<?xml version="1.0" encoding="UTF-8" standalone="no"?>
<!DOCTYPE svg PUBLIC "-//W3C//DTD SVG 1.1//EN"
 "http://www.w3.org/Graphics/SVG/1.1/DTD/svg11.dtd">
<!-- Generated by graphviz version 7.1.0 (0)
 -->
<!-- Title: ViennaRNA/2Dfold.h Pages: 1 -->
<!--zoomable 390 -->
<svg id="main" version="1.1" xmlns="http://www.w3.org/2000/svg" xmlns:xlink="http://www.w3.org/1999/xlink" xml:space="preserve" onload="init(evt)">
<style type="text/css"><![CDATA[
.edge:hover path { stroke: red; }
.edge:hover polygon { stroke: red; fill: red; }
]]></style>
<script type="text/javascript"><![CDATA[
var edges = document.getElementsByTagName('g');
if (edges && edges.length) {
  for (var i=0;i<edges.length;i++) {
    if (edges[i].id.substr(0,4)=='edge') {
      edges[i].setAttribute('class','edge');
    }
  }
}
]]></script>
        <defs>
                <circle id="rim" cx="0" cy="0" r="7"/>
                <circle id="rim2" cx="0" cy="0" r="3.5"/>
                <g id="zoomPlus">
                        <use xlink:href="#rim" fill="#404040">
                                <set attributeName="fill" to="#808080" begin="zoomplus.mouseover" end="zoomplus.mouseout"/>
                        </use>
                        <path d="M-4,0h8M0,-4v8" fill="none" stroke="white" stroke-width="1.5" pointer-events="none"/>
                </g>
                <g id="zoomMin">
                        <use xlink:href="#rim" fill="#404040">
                                <set attributeName="fill" to="#808080" begin="zoomminus.mouseover" end="zoomminus.mouseout"/>
                        </use>
                        <path d="M-4,0h8" fill="none" stroke="white" stroke-width="1.5" pointer-events="none"/>
                </g>
                <g id="dirArrow">
                        <path fill="none" stroke="white" stroke-width="1.5" d="M0,-3.0v7 M-2.5,-0.5L0,-3.0L2.5,-0.5"/>
                </g>
               <g id="resetDef">
                       <use xlink:href="#rim2" fill="#404040">
                               <set attributeName="fill" to="#808080" begin="reset.mouseover" end="reset.mouseout"/>
                       </use>
               </g>
        </defs>

<script type="text/javascript">
var viewWidth = 1198;
var viewHeight = 390;
var sectionId = 'dynsection-0';
</script>
<script xlink:href="svgpan.js"/>
<svg id="graph" class="graph">
<g id="viewport">
<title>ViennaRNA/2Dfold.h</title>
<!-- Node1 -->
<g id="node1" class="node">
<title>Node1</title>
<g id="a_node1"><a xlink:title="MFE structures for base pair distance classes.">
<polygon fill="#999999" stroke="#666666" points="924.27,-382 816.27,-382 816.27,-363 924.27,-363 924.27,-382"/>
<text text-anchor="middle" x="870.27" y="-370" font-family="Helvetica,sans-Serif" font-size="10.00">ViennaRNA/2Dfold.h</text>
</a>
</g>
</g>
<!-- Node2 -->
<g id="node2" class="node">
<title>Node2</title>
<g id="a_node2"><a xlink:href="fold__compound_8h.html" target="_top" xlink:title="The Basic Fold Compound API.">
<polygon fill="white" stroke="#666666" points="583.27,-327 437.27,-327 437.27,-308 583.27,-308 583.27,-327"/>
<text text-anchor="middle" x="510.27" y="-315" font-family="Helvetica,sans-Serif" font-size="10.00">ViennaRNA/fold_compound.h</text>
</a>
</g>
</g>
<!-- Node1&#45;&gt;Node2 -->
<g id="edge1" class="edge">
<title>Node1&#45;&gt;Node2</title>
<path fill="none" stroke="#63b8ff" d="M815.98,-363.51C753.75,-354.35 651.45,-339.29 582.52,-329.14"/>
<polygon fill="#63b8ff" stroke="#63b8ff" points="583.23,-325.7 572.83,-327.71 582.21,-332.63 583.23,-325.7"/>
</g>
<!-- Node4 -->
<g id="node4" class="node">
<title>Node4</title>
<g id="a_node4"><a xlink:href="params_2basic_8h.html" target="_top" xlink:title="Functions to deal with sets of energy parameters.">
<polygon fill="white" stroke="#666666" points="1036.27,-272 898.27,-272 898.27,-253 1036.27,-253 1036.27,-272"/>
<text text-anchor="middle" x="967.27" y="-260" font-family="Helvetica,sans-Serif" font-size="10.00">ViennaRNA/params/basic.h</text>
</a>
</g>
</g>
<!-- Node1&#45;&gt;Node4 -->
<g id="edge44" class="edge">
<title>Node1&#45;&gt;Node4</title>
<path fill="none" stroke="#63b8ff" d="M878.21,-362.66C894.27,-344.78 930.85,-304.05 951.79,-280.73"/>
<polygon fill="#63b8ff" stroke="#63b8ff" points="954.13,-283.36 958.21,-273.59 948.92,-278.69 954.13,-283.36"/>
</g>
<!-- Node7 -->
<g id="node7" class="node">
<title>Node7</title>
<g id="a_node7"><a xlink:href="datastructures_2basic_8h.html" target="_top" xlink:title="Various data structures and pre&#45;processor macros.">
<polygon fill="white" stroke="#666666" points="786.27,-217 652.27,-217 652.27,-187 786.27,-187 786.27,-217"/>
<text text-anchor="start" x="660.27" y="-205" font-family="Helvetica,sans-Serif" font-size="10.00">ViennaRNA/datastructures</text>
<text text-anchor="middle" x="719.27" y="-194" font-family="Helvetica,sans-Serif" font-size="10.00">/basic.h</text>
</a>
</g>
</g>
<!-- Node1&#45;&gt;Node7 -->
<g id="edge43" class="edge">
<title>Node1&#45;&gt;Node7</title>
<path fill="none" stroke="#63b8ff" d="M863.61,-362.53C848.41,-342.27 809.7,-291.73 773.27,-253 764.25,-243.41 753.74,-233.44 744.4,-224.94"/>
<polygon fill="#63b8ff" stroke="#63b8ff" points="746.8,-222.4 737.02,-218.33 742.13,-227.61 746.8,-222.4"/>
</g>
<!-- Node3 -->
<g id="node3" class="node">
<title>Node3</title>
<g id="a_node3"><a xlink:href="model_8h.html" target="_top" xlink:title="The model details data structure and its corresponding modifiers.">
<polygon fill="white" stroke="#666666" points="1190.27,-145.5 1084.27,-145.5 1084.27,-126.5 1190.27,-126.5 1190.27,-145.5"/>
<text text-anchor="middle" x="1137.27" y="-133.5" font-family="Helvetica,sans-Serif" font-size="10.00">ViennaRNA/model.h</text>
</a>
</g>
</g>
<!-- Node2&#45;&gt;Node3 -->
<g id="edge2" class="edge">
<title>Node2&#45;&gt;Node3</title>
<path fill="none" stroke="#63b8ff" d="M583.67,-313.89C720.96,-308.49 1006.34,-294.69 1045.27,-272 1090.48,-245.64 1118.31,-187.15 1130.33,-156.54"/>
<polygon fill="#63b8ff" stroke="#63b8ff" points="1133.53,-157.97 1133.75,-147.38 1126.97,-155.52 1133.53,-157.97"/>
</g>
<!-- Node2&#45;&gt;Node4 -->
<g id="edge3" class="edge">
<title>Node2&#45;&gt;Node4</title>
<path fill="none" stroke="#63b8ff" d="M582.58,-307.51C665.33,-297.67 800.39,-282.01 886.52,-272.27"/>
<polygon fill="#63b8ff" stroke="#63b8ff" points="886.76,-275.76 896.31,-271.16 885.98,-268.8 886.76,-275.76"/>
</g>
<!-- Node8 -->
<g id="node8" class="node">
<title>Node8</title>
<g id="a_node8"><a xlink:href="dp__matrices_8h.html" target="_top" xlink:title="Functions to deal with standard dynamic programming (DP) matrices.">
<polygon fill="white" stroke="#666666" points="889.77,-145.5 756.77,-145.5 756.77,-126.5 889.77,-126.5 889.77,-145.5"/>
<text text-anchor="middle" x="823.27" y="-133.5" font-family="Helvetica,sans-Serif" font-size="10.00">ViennaRNA/dp_matrices.h</text>
</a>
</g>
</g>
<!-- Node2&#45;&gt;Node8 -->
<g id="edge36" class="edge">
<title>Node2&#45;&gt;Node8</title>
<path fill="none" stroke="#63b8ff" d="M583.58,-311.46C648.43,-305.76 736.75,-294.21 764.27,-272 799.84,-243.3 810.11,-186.71 816.35,-156.73"/>
<polygon fill="#63b8ff" stroke="#63b8ff" points="819.73,-157.66 818.51,-147.14 812.9,-156.13 819.73,-157.66"/>
</g>
<!-- Node9 -->
<g id="node9" class="node">
<title>Node9</title>
<g id="a_node9"><a xlink:href="hard_8h.html" target="_top" xlink:title="Functions and data structures for handling of secondary structure hard constraints.">
<polygon fill="white" stroke="#666666" points="133.77,-151 14.77,-151 14.77,-121 133.77,-121 133.77,-151"/>
<text text-anchor="start" x="22.77" y="-139" font-family="Helvetica,sans-Serif" font-size="10.00">ViennaRNA/constraints</text>
<text text-anchor="middle" x="74.27" y="-128" font-family="Helvetica,sans-Serif" font-size="10.00">/hard.h</text>
</a>
</g>
</g>
<!-- Node2&#45;&gt;Node9 -->
<g id="edge37" class="edge">
<title>Node2&#45;&gt;Node9</title>
<path fill="none" stroke="#63b8ff" d="M471.42,-307.58C440.86,-299.27 397.8,-286.08 361.27,-272 267.14,-235.73 160.29,-184.36 107.33,-156.61"/>
<polygon fill="#63b8ff" stroke="#63b8ff" points="109.29,-153.69 98.81,-152.1 106.01,-159.88 109.29,-153.69"/>
</g>
<!-- Node11 -->
<g id="node11" class="node">
<title>Node11</title>
<g id="a_node11"><a xlink:href="soft_8h.html" target="_top" xlink:title="Functions and data structures for secondary structure soft constraints.">
<polygon fill="white" stroke="#666666" points="538.77,-151 419.77,-151 419.77,-121 538.77,-121 538.77,-151"/>
<text text-anchor="start" x="427.77" y="-139" font-family="Helvetica,sans-Serif" font-size="10.00">ViennaRNA/constraints</text>
<text text-anchor="middle" x="479.27" y="-128" font-family="Helvetica,sans-Serif" font-size="10.00">/soft.h</text>
</a>
</g>
</g>
<!-- Node2&#45;&gt;Node11 -->
<g id="edge38" class="edge">
<title>Node2&#45;&gt;Node11</title>
<path fill="none" stroke="#63b8ff" d="M475.62,-307.53C458.14,-300.58 438.86,-289.2 429.27,-272 410.87,-239 416.55,-222.57 429.27,-187 432.88,-176.91 439.5,-167.39 446.85,-159.42"/>
<polygon fill="#63b8ff" stroke="#63b8ff" points="449.23,-161.99 453.92,-152.49 444.33,-156.99 449.23,-161.99"/>
</g>
<!-- Node12 -->
<g id="node12" class="node">
<title>Node12</title>
<g id="a_node12"><a xlink:href="grammar_8h.html" target="_top" xlink:title="Implementations for the RNA folding grammar.">
<polygon fill="white" stroke="#666666" points="268.77,-145.5 151.77,-145.5 151.77,-126.5 268.77,-126.5 268.77,-145.5"/>
<text text-anchor="middle" x="210.27" y="-133.5" font-family="Helvetica,sans-Serif" font-size="10.00">ViennaRNA/grammar.h</text>
</a>
</g>
</g>
<!-- Node2&#45;&gt;Node12 -->
<g id="edge39" class="edge">
<title>Node2&#45;&gt;Node12</title>
<path fill="none" stroke="#63b8ff" d="M478.55,-307.57C455.18,-299.4 423.41,-286.41 397.27,-272 329.71,-234.77 256.46,-180.04 225.23,-153.14"/>
<polygon fill="#63b8ff" stroke="#63b8ff" points="227.86,-150.8 218.07,-146.74 223.19,-156.02 227.86,-150.8"/>
</g>
<!-- Node13 -->
<g id="node13" class="node">
<title>Node13</title>
<g id="a_node13"><a xlink:href="structured__domains_8h.html" target="_top" xlink:title="This module provides interfaces that deal with additional structured domains in the folding grammar.">
<polygon fill="white" stroke="#666666" points="401.77,-151 286.77,-151 286.77,-121 401.77,-121 401.77,-151"/>
<text text-anchor="start" x="294.77" y="-139" font-family="Helvetica,sans-Serif" font-size="10.00">ViennaRNA/structured</text>
<text text-anchor="middle" x="344.27" y="-128" font-family="Helvetica,sans-Serif" font-size="10.00">_domains.h</text>
</a>
</g>
</g>
<!-- Node2&#45;&gt;Node13 -->
<g id="edge40" class="edge">
<title>Node2&#45;&gt;Node13</title>
<path fill="none" stroke="#63b8ff" d="M485.65,-307.61C467.64,-300.18 443.44,-288.19 426.27,-272 392.3,-239.97 367.25,-190.84 354.27,-161.51"/>
<polygon fill="#63b8ff" stroke="#63b8ff" points="357.66,-160.52 350.5,-152.71 351.22,-163.28 357.66,-160.52"/>
</g>
<!-- Node14 -->
<g id="node14" class="node">
<title>Node14</title>
<g id="a_node14"><a xlink:href="unstructured__domains_8h.html" target="_top" xlink:title="Functions to modify unstructured domains, e.g. to incorporate ligands binding to unpaired stretches.">
<polygon fill="white" stroke="#666666" points="681.77,-151 556.77,-151 556.77,-121 681.77,-121 681.77,-151"/>
<text text-anchor="start" x="564.77" y="-139" font-family="Helvetica,sans-Serif" font-size="10.00">ViennaRNA/unstructured</text>
<text text-anchor="middle" x="619.27" y="-128" font-family="Helvetica,sans-Serif" font-size="10.00">_domains.h</text>
</a>
</g>
</g>
<!-- Node2&#45;&gt;Node14 -->
<g id="edge41" class="edge">
<title>Node2&#45;&gt;Node14</title>
<path fill="none" stroke="#63b8ff" d="M497.28,-307.66C485.27,-295.19 471.82,-271.86 480.27,-253 499.38,-210.35 542.78,-176.92 576.16,-157.13"/>
<polygon fill="#63b8ff" stroke="#63b8ff" points="577.9,-160.17 584.85,-152.17 574.43,-154.09 577.9,-160.17"/>
</g>
<!-- Node17 -->
<g id="node17" class="node">
<title>Node17</title>
<g id="a_node17"><a xlink:href="sequence_8h.html" target="_top" xlink:title="Functions and data structures related to sequence representations ,.">
<polygon fill="white" stroke="#666666" points="620.27,-272 498.27,-272 498.27,-253 620.27,-253 620.27,-272"/>
<text text-anchor="middle" x="559.27" y="-260" font-family="Helvetica,sans-Serif" font-size="10.00">ViennaRNA/sequence.h</text>
</a>
</g>
</g>
<!-- Node2&#45;&gt;Node17 -->
<g id="edge34" class="edge">
<title>Node2&#45;&gt;Node17</title>
<path fill="none" stroke="#63b8ff" d="M513.19,-307.75C518.5,-300.27 528.25,-289.32 537.53,-280.17"/>
<polygon fill="#63b8ff" stroke="#63b8ff" points="539.78,-282.87 544.69,-273.48 535,-277.75 539.78,-282.87"/>
</g>
<!-- Node18 -->
<g id="node18" class="node">
<title>Node18</title>
<g id="a_node18"><a xlink:href="zscore_8h_source.html" target="_top" xlink:title=" ">
<polygon fill="white" stroke="#666666" points="747.77,-272 638.77,-272 638.77,-253 747.77,-253 747.77,-272"/>
<text text-anchor="middle" x="693.27" y="-260" font-family="Helvetica,sans-Serif" font-size="10.00">ViennaRNA/zscore.h</text>
</a>
</g>
</g>
<!-- Node2&#45;&gt;Node18 -->
<g id="edge42" class="edge">
<title>Node2&#45;&gt;Node18</title>
<path fill="none" stroke="#63b8ff" d="M541.31,-307.51C571.64,-298.73 618,-285.3 651.54,-275.59"/>
<polygon fill="#63b8ff" stroke="#63b8ff" points="652.29,-279.01 660.93,-272.87 650.35,-272.29 652.29,-279.01"/>
</g>
<!-- Node4&#45;&gt;Node2 -->
<g id="edge32" class="edge">
<title>Node4&#45;&gt;Node2</title>
<path fill="none" stroke="#63b8ff" d="M897.83,-272.15C816.56,-281.82 682.14,-297.41 594.87,-307.3"/>
<polygon fill="#63b8ff" stroke="#63b8ff" points="594.72,-303.79 585.17,-308.4 595.5,-310.75 594.72,-303.79"/>
</g>
<!-- Node4&#45;&gt;Node3 -->
<g id="edge33" class="edge">
<title>Node4&#45;&gt;Node3</title>
<path fill="none" stroke="#63b8ff" d="M979.5,-252.55C1008.17,-231.55 1080.02,-178.93 1116.02,-152.56"/>
<polygon fill="#63b8ff" stroke="#63b8ff" points="1117.93,-155.5 1123.93,-146.77 1113.8,-149.85 1117.93,-155.5"/>
</g>
<!-- Node5 -->
<g id="node5" class="node">
<title>Node5</title>
<g id="a_node5"><a xlink:href="constants_8h.html" target="_top" xlink:title="Energy parameter constants.">
<polygon fill="white" stroke="#666666" points="1066.27,-145.5 908.27,-145.5 908.27,-126.5 1066.27,-126.5 1066.27,-145.5"/>
<text text-anchor="middle" x="987.27" y="-133.5" font-family="Helvetica,sans-Serif" font-size="10.00">ViennaRNA/params/constants.h</text>
</a>
</g>
</g>
<!-- Node4&#45;&gt;Node5 -->
<g id="edge4" class="edge">
<title>Node4&#45;&gt;Node5</title>
<path fill="none" stroke="#63b8ff" d="M968.71,-252.55C971.89,-232.72 979.61,-184.68 984.03,-157.19"/>
<polygon fill="#63b8ff" stroke="#63b8ff" points="987.47,-157.8 985.6,-147.37 980.56,-156.69 987.47,-157.8"/>
</g>
<!-- Node4&#45;&gt;Node7 -->
<g id="edge6" class="edge">
<title>Node4&#45;&gt;Node7</title>
<path fill="none" stroke="#63b8ff" d="M924.31,-252.55C885.98,-243.94 829.41,-230.68 785.35,-220.05"/>
<polygon fill="#63b8ff" stroke="#63b8ff" points="786.45,-216.72 775.91,-217.76 784.8,-223.52 786.45,-216.72"/>
</g>
<!-- Node6 -->
<g id="node6" class="node">
<title>Node6</title>
<g id="a_node6"><a xlink:title=" ">
<polygon fill="#e0e0e0" stroke="#999999" points="1011.27,-79.5 963.27,-79.5 963.27,-60.5 1011.27,-60.5 1011.27,-79.5"/>
<text text-anchor="middle" x="987.27" y="-67.5" font-family="Helvetica,sans-Serif" font-size="10.00">limits.h</text>
</a>
</g>
</g>
<!-- Node5&#45;&gt;Node6 -->
<g id="edge5" class="edge">
<title>Node5&#45;&gt;Node6</title>
<path fill="none" stroke="#63b8ff" d="M987.27,-126.1C987.27,-117.12 987.27,-102.95 987.27,-91.22"/>
<polygon fill="#63b8ff" stroke="#63b8ff" points="990.77,-91.34 987.27,-81.34 983.77,-91.34 990.77,-91.34"/>
</g>
<!-- Node7&#45;&gt;Node2 -->
<g id="edge8" class="edge">
<title>Node7&#45;&gt;Node2</title>
<path fill="none" stroke="#63b8ff" d="M736.28,-217.24C751.82,-231.96 770.39,-255.1 756.27,-272 735.8,-296.51 657.57,-307.55 594.75,-312.5"/>
<polygon fill="#63b8ff" stroke="#63b8ff" points="594.84,-308.98 585.13,-313.22 595.36,-315.96 594.84,-308.98"/>
</g>
<!-- Node7&#45;&gt;Node3 -->
<g id="edge9" class="edge">
<title>Node7&#45;&gt;Node3</title>
<path fill="none" stroke="#63b8ff" d="M786.46,-193.24C858.23,-184.56 975.2,-169.29 1075.27,-151 1079.66,-150.2 1084.22,-149.3 1088.77,-148.35"/>
<polygon fill="#63b8ff" stroke="#63b8ff" points="1089.48,-151.78 1098.52,-146.26 1088,-144.94 1089.48,-151.78"/>
</g>
<!-- Node7&#45;&gt;Node4 -->
<g id="edge10" class="edge">
<title>Node7&#45;&gt;Node4</title>
<path fill="none" stroke="#63b8ff" d="M786.26,-217.41C829.92,-227.41 885.58,-240.58 923.63,-249.91"/>
<polygon fill="#63b8ff" stroke="#63b8ff" points="922.34,-253.19 932.89,-252.19 924.02,-246.4 922.34,-253.19"/>
</g>
<!-- Node7&#45;&gt;Node5 -->
<g id="edge7" class="edge">
<title>Node7&#45;&gt;Node5</title>
<path fill="none" stroke="#63b8ff" d="M779.75,-186.56C827.75,-175.09 893.99,-159.28 938.6,-148.62"/>
<polygon fill="#63b8ff" stroke="#63b8ff" points="939.35,-152.04 948.27,-146.31 937.73,-145.23 939.35,-152.04"/>
</g>
<!-- Node7&#45;&gt;Node8 -->
<g id="edge11" class="edge">
<title>Node7&#45;&gt;Node8</title>
<path fill="none" stroke="#63b8ff" d="M736.63,-186.8C752.36,-176.28 775.54,-162.01 794.06,-151.44"/>
<polygon fill="#63b8ff" stroke="#63b8ff" points="795.72,-154.52 802.74,-146.58 792.31,-148.41 795.72,-154.52"/>
</g>
<!-- Node7&#45;&gt;Node9 -->
<g id="edge14" class="edge">
<title>Node7&#45;&gt;Node9</title>
<path fill="none" stroke="#63b8ff" d="M651.9,-197.72C546.03,-191.99 334.08,-178.27 145.17,-151.31"/>
<polygon fill="#63b8ff" stroke="#63b8ff" points="145.8,-147.87 135.4,-149.9 144.8,-154.8 145.8,-147.87"/>
</g>
<!-- Node7&#45;&gt;Node11 -->
<g id="edge18" class="edge">
<title>Node7&#45;&gt;Node11</title>
<path fill="none" stroke="#63b8ff" d="M659.36,-186.56C622.44,-177.04 575.36,-164.51 538.56,-154.43"/>
<polygon fill="#63b8ff" stroke="#63b8ff" points="539.52,-151.07 528.95,-151.79 537.66,-157.82 539.52,-151.07"/>
</g>
<!-- Node7&#45;&gt;Node12 -->
<g id="edge22" class="edge">
<title>Node7&#45;&gt;Node12</title>
<path fill="none" stroke="#63b8ff" d="M651.99,-195.36C565.11,-187.62 409.37,-172.23 277.27,-151 272.04,-150.16 266.61,-149.19 261.2,-148.16"/>
<polygon fill="#63b8ff" stroke="#63b8ff" points="262.16,-144.78 251.68,-146.27 260.81,-151.65 262.16,-144.78"/>
</g>
<!-- Node7&#45;&gt;Node13 -->
<g id="edge24" class="edge">
<title>Node7&#45;&gt;Node13</title>
<path fill="none" stroke="#63b8ff" d="M651.9,-191.06C591.76,-181.97 501.02,-167.72 413.41,-151.54"/>
<polygon fill="#63b8ff" stroke="#63b8ff" points="414.15,-148.12 403.67,-149.73 412.87,-155 414.15,-148.12"/>
</g>
<!-- Node7&#45;&gt;Node14 -->
<g id="edge25" class="edge">
<title>Node7&#45;&gt;Node14</title>
<path fill="none" stroke="#63b8ff" d="M691.09,-186.64C676.61,-178.07 659.2,-167.06 645.08,-157.58"/>
<polygon fill="#63b8ff" stroke="#63b8ff" points="647.38,-154.92 637.15,-152.17 643.44,-160.7 647.38,-154.92"/>
</g>
<!-- Node15 -->
<g id="node15" class="node">
<title>Node15</title>
<g id="a_node15"><a xlink:href="utils_2structures_8h.html" target="_top" xlink:title="Various utility&#45; and helper&#45;functions for secondary structure parsing, converting,...">
<polygon fill="white" stroke="#666666" points="791.27,-79.5 647.27,-79.5 647.27,-60.5 791.27,-60.5 791.27,-79.5"/>
<text text-anchor="middle" x="719.27" y="-67.5" font-family="Helvetica,sans-Serif" font-size="10.00">ViennaRNA/utils/structures.h</text>
</a>
</g>
</g>
<!-- Node7&#45;&gt;Node15 -->
<g id="edge31" class="edge">
<title>Node7&#45;&gt;Node15</title>
<path fill="none" stroke="#63b8ff" d="M714.84,-186.59C711.96,-163.3 711.76,-117.32 714.24,-90.91"/>
<polygon fill="#63b8ff" stroke="#63b8ff" points="717.69,-91.57 715.49,-81.21 710.75,-90.68 717.69,-91.57"/>
</g>
<!-- Node8&#45;&gt;Node2 -->
<g id="edge13" class="edge">
<title>Node8&#45;&gt;Node2</title>
<path fill="none" stroke="#63b8ff" d="M827.05,-145.66C830.52,-169.98 822.92,-239.2 782.27,-272 754.36,-294.52 663.96,-306.08 594.9,-311.7"/>
<polygon fill="#63b8ff" stroke="#63b8ff" points="594.79,-308.19 585.09,-312.46 595.33,-315.17 594.79,-308.19"/>
</g>
<!-- Node8&#45;&gt;Node7 -->
<g id="edge12" class="edge">
<title>Node8&#45;&gt;Node7</title>
<path fill="none" stroke="#63b8ff" d="M813.53,-145.99C800.72,-155.01 778.11,-169.23 758.17,-180.95"/>
<polygon fill="#63b8ff" stroke="#63b8ff" points="756.56,-177.84 749.66,-185.88 760.07,-183.89 756.56,-177.84"/>
</g>
<!-- Node9&#45;&gt;Node2 -->
<g id="edge15" class="edge">
<title>Node9&#45;&gt;Node2</title>
<path fill="none" stroke="#63b8ff" d="M108.06,-151.39C163.98,-177.45 278.87,-233.31 379.27,-272 411.23,-284.32 448.19,-295.96 474.81,-304.24"/>
<polygon fill="#63b8ff" stroke="#63b8ff" points="473.51,-307.5 484.09,-307.13 475.58,-300.82 473.51,-307.5"/>
</g>
<!-- Node10 -->
<g id="node10" class="node">
<title>Node10</title>
<g id="a_node10"><a xlink:href="constraints_2basic_8h.html" target="_top" xlink:title="Functions and data structures for constraining secondary structure predictions and evaluation.">
<polygon fill="white" stroke="#666666" points="133.77,-85 14.77,-85 14.77,-55 133.77,-55 133.77,-85"/>
<text text-anchor="start" x="22.77" y="-73" font-family="Helvetica,sans-Serif" font-size="10.00">ViennaRNA/constraints</text>
<text text-anchor="middle" x="74.27" y="-62" font-family="Helvetica,sans-Serif" font-size="10.00">/basic.h</text>
</a>
</g>
</g>
<!-- Node9&#45;&gt;Node10 -->
<g id="edge16" class="edge">
<title>Node9&#45;&gt;Node10</title>
<path fill="none" stroke="#63b8ff" d="M74.27,-120.8C74.27,-113.67 74.27,-104.82 74.27,-96.56"/>
<polygon fill="#63b8ff" stroke="#63b8ff" points="77.77,-96.68 74.27,-86.68 70.77,-96.68 77.77,-96.68"/>
</g>
<!-- Node10&#45;&gt;Node2 -->
<g id="edge17" class="edge">
<title>Node10&#45;&gt;Node2</title>
<path fill="none" stroke="#63b8ff" d="M42.65,-85.37C28.48,-93.61 13.2,-105.45 5.27,-121 -0.79,-132.88 -2.24,-139.98 5.27,-151 55.97,-225.39 322.85,-282.54 446.85,-305.5"/>
<polygon fill="#63b8ff" stroke="#63b8ff" points="446.07,-308.92 456.54,-307.28 447.34,-302.04 446.07,-308.92"/>
</g>
<!-- Node11&#45;&gt;Node2 -->
<g id="edge20" class="edge">
<title>Node11&#45;&gt;Node2</title>
<path fill="none" stroke="#63b8ff" d="M470.64,-151.43C462.68,-160.58 452.18,-173.26 447.27,-187 434.55,-222.57 428.87,-239 447.27,-272 454.76,-285.44 468.17,-295.33 480.78,-302.32"/>
<polygon fill="#63b8ff" stroke="#63b8ff" points="479.19,-305.44 489.69,-306.85 482.36,-299.2 479.19,-305.44"/>
</g>
<!-- Node11&#45;&gt;Node7 -->
<g id="edge19" class="edge">
<title>Node11&#45;&gt;Node7</title>
<path fill="none" stroke="#63b8ff" d="M538.98,-151.39C575.86,-160.9 622.94,-173.43 659.78,-183.51"/>
<polygon fill="#63b8ff" stroke="#63b8ff" points="658.83,-186.88 669.4,-186.16 660.69,-180.13 658.83,-186.88"/>
</g>
<!-- Node11&#45;&gt;Node10 -->
<g id="edge21" class="edge">
<title>Node11&#45;&gt;Node10</title>
<path fill="none" stroke="#63b8ff" d="M419.47,-122.67C416.36,-122.09 413.28,-121.53 410.27,-121 319.07,-104.97 213.35,-89.8 145.23,-80.46"/>
<polygon fill="#63b8ff" stroke="#63b8ff" points="146.09,-77.04 135.71,-79.16 145.14,-83.98 146.09,-77.04"/>
</g>
<!-- Node12&#45;&gt;Node2 -->
<g id="edge23" class="edge">
<title>Node12&#45;&gt;Node2</title>
<path fill="none" stroke="#63b8ff" d="M225.56,-145.74C259.24,-168.54 340.73,-230.91 415.27,-272 437.12,-284.05 462.9,-295.1 482.23,-303.17"/>
<polygon fill="#63b8ff" stroke="#63b8ff" points="480.81,-306.37 491.39,-306.99 483.5,-299.91 480.81,-306.37"/>
</g>
<!-- Node14&#45;&gt;Node2 -->
<g id="edge27" class="edge">
<title>Node14&#45;&gt;Node2</title>
<path fill="none" stroke="#63b8ff" d="M598.85,-151.42C570.02,-170.11 519.35,-205.93 498.27,-253 491.73,-267.59 498.3,-284.85 504.37,-297.69"/>
<polygon fill="#63b8ff" stroke="#63b8ff" points="501.04,-298.85 508.57,-306.3 507.33,-295.78 501.04,-298.85"/>
</g>
<!-- Node14&#45;&gt;Node7 -->
<g id="edge26" class="edge">
<title>Node14&#45;&gt;Node7</title>
<path fill="none" stroke="#63b8ff" d="M647.49,-151.39C662.01,-159.98 679.48,-171.03 693.62,-180.52"/>
<polygon fill="#63b8ff" stroke="#63b8ff" points="691.32,-183.19 701.55,-185.94 695.27,-177.41 691.32,-183.19"/>
</g>
<!-- Node14&#45;&gt;Node15 -->
<g id="edge28" class="edge">
<title>Node14&#45;&gt;Node15</title>
<path fill="none" stroke="#63b8ff" d="M641.46,-120.8C657.66,-110.43 679.58,-96.4 696.02,-85.88"/>
<polygon fill="#63b8ff" stroke="#63b8ff" points="697.64,-89 704.18,-80.66 693.87,-83.1 697.64,-89"/>
</g>
<!-- Node15&#45;&gt;Node7 -->
<g id="edge30" class="edge">
<title>Node15&#45;&gt;Node7</title>
<path fill="none" stroke="#63b8ff" d="M722.86,-79.71C726.3,-99.01 726.93,-146.01 724.76,-175.51"/>
<polygon fill="#63b8ff" stroke="#63b8ff" points="721.31,-174.8 723.85,-185.08 728.28,-175.46 721.31,-174.8"/>
</g>
<!-- Node16 -->
<g id="node16" class="node">
<title>Node16</title>
<g id="a_node16"><a xlink:title=" ">
<polygon fill="#e0e0e0" stroke="#999999" points="742.27,-19 696.27,-19 696.27,0 742.27,0 742.27,-19"/>
<text text-anchor="middle" x="719.27" y="-7" font-family="Helvetica,sans-Serif" font-size="10.00">stdio.h</text>
</a>
</g>
</g>
<!-- Node15&#45;&gt;Node16 -->
<g id="edge29" class="edge">
<title>Node15&#45;&gt;Node16</title>
<path fill="none" stroke="#63b8ff" d="M719.27,-60.37C719.27,-52.5 719.27,-40.6 719.27,-30.39"/>
<polygon fill="#63b8ff" stroke="#63b8ff" points="722.77,-30.68 719.27,-20.68 715.77,-30.68 722.77,-30.68"/>
</g>
<!-- Node17&#45;&gt;Node2 -->
<g id="edge35" class="edge">
<title>Node17&#45;&gt;Node2</title>
<path fill="none" stroke="#63b8ff" d="M556.27,-272.36C550.95,-279.82 541.26,-290.72 532.02,-299.81"/>
<polygon fill="#63b8ff" stroke="#63b8ff" points="529.81,-297.08 524.9,-306.47 534.6,-302.19 529.81,-297.08"/>
</g>
</g>
</svg>
        <g id="navigator" transform="translate(0 0)" fill="#404254">
                <rect fill="#f2f5e9" fill-opacity="0.5" stroke="#606060" stroke-width=".5" x="0" y="0" width="60" height="60"/>
                <use id="zoomplus" xlink:href="#zoomPlus" x="17" y="9" onmousedown="handleZoom(evt,'in')"/>
                <use id="zoomminus" xlink:href="#zoomMin" x="42" y="9" onmousedown="handleZoom(evt,'out')"/>
                <use id="reset" xlink:href="#resetDef" x="30" y="36" onmousedown="handleReset()"/>
                <g id="arrowUp" xlink:href="#dirArrow" transform="translate(30 24)" onmousedown="handlePan(0,-1)">
                  <use xlink:href="#rim" fill="#404040">
                        <set attributeName="fill" to="#808080" begin="arrowUp.mouseover" end="arrowUp.mouseout"/>
                  </use>
                  <path fill="none" stroke="white" stroke-width="1.5" d="M0,-3.0v7 M-2.5,-0.5L0,-3.0L2.5,-0.5"/>
                </g>
                <g id="arrowRight" xlink:href="#dirArrow" transform="rotate(90) translate(36 -43)" onmousedown="handlePan(1,0)">
                  <use xlink:href="#rim" fill="#404040">
                        <set attributeName="fill" to="#808080" begin="arrowRight.mouseover" end="arrowRight.mouseout"/>
                  </use>
                  <path fill="none" stroke="white" stroke-width="1.5" d="M0,-3.0v7 M-2.5,-0.5L0,-3.0L2.5,-0.5"/>
                </g>
                <g id="arrowDown" xlink:href="#dirArrow" transform="rotate(180) translate(-30 -48)" onmousedown="handlePan(0,1)">
                  <use xlink:href="#rim" fill="#404040">
                        <set attributeName="fill" to="#808080" begin="arrowDown.mouseover" end="arrowDown.mouseout"/>
                  </use>
                  <path fill="none" stroke="white" stroke-width="1.5" d="M0,-3.0v7 M-2.5,-0.5L0,-3.0L2.5,-0.5"/>
                </g>
                <g id="arrowLeft" xlink:href="#dirArrow" transform="rotate(270) translate(-36 17)" onmousedown="handlePan(-1,0)">
                  <use xlink:href="#rim" fill="#404040">
                        <set attributeName="fill" to="#808080" begin="arrowLeft.mouseover" end="arrowLeft.mouseout"/>
                  </use>
                  <path fill="none" stroke="white" stroke-width="1.5" d="M0,-3.0v7 M-2.5,-0.5L0,-3.0L2.5,-0.5"/>
                </g>
        </g>
        <svg viewBox="0 0 15 15" width="100%" height="30px" preserveAspectRatio="xMaxYMin meet">
         <g id="arrow_out" transform="scale(0.3 0.3)">
          <a xlink:href="2Dfold_8h__incl_org.svg" target="_base">
           <rect id="button" ry="5" rx="5" y="6" x="6" height="38" width="38"
                fill="#f2f5e9" fill-opacity="0.5" stroke="#606060" stroke-width="1.0"/>
           <path id="arrow"
             d="M 11.500037,31.436501 C 11.940474,20.09759 22.043105,11.32322 32.158766,21.979434 L 37.068811,17.246167 C 37.068811,17.246167 37.088388,32 37.088388,32 L 22.160133,31.978069 C 22.160133,31.978069 26.997745,27.140456 26.997745,27.140456 C 18.528582,18.264221 13.291696,25.230495 11.500037,31.436501 z"
             style="fill:#404040;"/>
          </a>
         </g>
        </svg>
</svg>
