<?xml version="1.0" encoding="UTF-8" standalone="no"?>
<!DOCTYPE svg PUBLIC "-//W3C//DTD SVG 1.1//EN"
 "http://www.w3.org/Graphics/SVG/1.1/DTD/svg11.dtd">
<!-- Generated by graphviz version 7.1.0 (0)
 -->
<!-- Title: ViennaRNA/alifold.h Pages: 1 -->
<svg width="1706pt" height="456pt"
 viewBox="0.00 0.00 1706.00 456.00" xmlns="http://www.w3.org/2000/svg" xmlns:xlink="http://www.w3.org/1999/xlink">
<g id="graph0" class="graph" transform="scale(1 1) rotate(0) translate(4 452)">
<title>ViennaRNA/alifold.h</title>
<!-- Node1 -->
<g id="node1" class="node">
<title>Node1</title>
<g id="a_node1"><a xlink:title="Functions for comparative structure prediction using RNA sequence alignments.">
<polygon fill="#999999" stroke="#666666" points="811.5,-448 706.5,-448 706.5,-429 811.5,-429 811.5,-448"/>
<text text-anchor="middle" x="759" y="-436" font-family="Helvetica,sans-Serif" font-size="10.00">ViennaRNA/alifold.h</text>
</a>
</g>
</g>
<!-- Node2 -->
<g id="node2" class="node">
<title>Node2</title>
<g id="a_node2"><a xlink:href="datastructures_2basic_8h.html" target="_top" xlink:title="Various data structures and pre&#45;processor macros.">
<polygon fill="white" stroke="#666666" points="671,-272 537,-272 537,-242 671,-242 671,-272"/>
<text text-anchor="start" x="545" y="-260" font-family="Helvetica,sans-Serif" font-size="10.00">ViennaRNA/datastructures</text>
<text text-anchor="middle" x="604" y="-249" font-family="Helvetica,sans-Serif" font-size="10.00">/basic.h</text>
</a>
</g>
</g>
<!-- Node1&#45;&gt;Node2 -->
<g id="edge1" class="edge">
<title>Node1&#45;&gt;Node2</title>
<path fill="none" stroke="#63b8ff" d="M706.28,-429.05C683.01,-422.77 657.12,-411.87 640,-393 612.35,-362.53 605.54,-313.16 604.09,-283.33"/>
<polygon fill="#63b8ff" stroke="#63b8ff" points="607.6,-283.61 603.8,-273.72 600.6,-283.82 607.6,-283.61"/>
</g>
<!-- Node7 -->
<g id="node7" class="node">
<title>Node7</title>
<g id="a_node7"><a xlink:href="params_2basic_8h.html" target="_top" xlink:title="Functions to deal with sets of energy parameters.">
<polygon fill="white" stroke="#666666" points="204,-145.5 66,-145.5 66,-126.5 204,-126.5 204,-145.5"/>
<text text-anchor="middle" x="135" y="-133.5" font-family="Helvetica,sans-Serif" font-size="10.00">ViennaRNA/params/basic.h</text>
</a>
</g>
</g>
<!-- Node1&#45;&gt;Node7 -->
<g id="edge43" class="edge">
<title>Node1&#45;&gt;Node7</title>
<path fill="none" stroke="#63b8ff" d="M706.28,-434.76C540.06,-425.44 38,-391.67 38,-324 38,-324 38,-324 38,-256 38,-210.22 81.66,-172.31 110.4,-152.31"/>
<polygon fill="#63b8ff" stroke="#63b8ff" points="112.21,-155.3 118.59,-146.84 108.33,-149.48 112.21,-155.3"/>
</g>
<!-- Node16 -->
<g id="node16" class="node">
<title>Node16</title>
<g id="a_node16"><a xlink:href="utils_2structures_8h.html" target="_top" xlink:title="Various utility&#45; and helper&#45;functions for secondary structure parsing, converting,...">
<polygon fill="white" stroke="#666666" points="1594,-79.5 1450,-79.5 1450,-60.5 1594,-60.5 1594,-79.5"/>
<text text-anchor="middle" x="1522" y="-67.5" font-family="Helvetica,sans-Serif" font-size="10.00">ViennaRNA/utils/structures.h</text>
</a>
</g>
</g>
<!-- Node1&#45;&gt;Node16 -->
<g id="edge69" class="edge">
<title>Node1&#45;&gt;Node16</title>
<path fill="none" stroke="#63b8ff" d="M811.84,-436.71C1010.03,-433.07 1698,-413.95 1698,-324 1698,-324 1698,-324 1698,-195.5 1698,-133.13 1623.42,-99.2 1571.36,-83.12"/>
<polygon fill="#63b8ff" stroke="#63b8ff" points="1572.66,-79.85 1562.08,-80.38 1570.68,-86.57 1572.66,-79.85"/>
</g>
<!-- Node19 -->
<g id="node19" class="node">
<title>Node19</title>
<g id="a_node19"><a xlink:href="ribo_8h.html" target="_top" xlink:title="Parse RiboSum Scoring Matrices for Covariance Scoring of Alignments.">
<polygon fill="white" stroke="#666666" points="743.5,-393 648.5,-393 648.5,-374 743.5,-374 743.5,-393"/>
<text text-anchor="middle" x="696" y="-381" font-family="Helvetica,sans-Serif" font-size="10.00">ViennaRNA/ribo.h</text>
</a>
</g>
</g>
<!-- Node1&#45;&gt;Node19 -->
<g id="edge44" class="edge">
<title>Node1&#45;&gt;Node19</title>
<path fill="none" stroke="#63b8ff" d="M748.31,-428.51C739.3,-420.93 726.17,-409.88 715.32,-400.75"/>
<polygon fill="#63b8ff" stroke="#63b8ff" points="717.59,-398.09 707.69,-394.33 713.09,-403.45 717.59,-398.09"/>
</g>
<!-- Node20 -->
<g id="node20" class="node">
<title>Node20</title>
<g id="a_node20"><a xlink:href="mfe_8h.html" target="_top" xlink:title="Compute Minimum Free energy (MFE) and backtrace corresponding secondary structures from RNA sequence ...">
<polygon fill="white" stroke="#666666" points="544,-332.5 448,-332.5 448,-313.5 544,-313.5 544,-332.5"/>
<text text-anchor="middle" x="496" y="-320.5" font-family="Helvetica,sans-Serif" font-size="10.00">ViennaRNA/mfe.h</text>
</a>
</g>
</g>
<!-- Node1&#45;&gt;Node20 -->
<g id="edge45" class="edge">
<title>Node1&#45;&gt;Node20</title>
<path fill="none" stroke="#63b8ff" d="M706.26,-434.66C663.73,-430.37 603.68,-419.66 558,-393 536.55,-380.48 518.44,-358 507.44,-342.11"/>
<polygon fill="#63b8ff" stroke="#63b8ff" points="510.54,-340.46 502.1,-334.05 504.7,-344.32 510.54,-340.46"/>
</g>
<!-- Node21 -->
<g id="node21" class="node">
<title>Node21</title>
<g id="a_node21"><a xlink:href="part__func_8h.html" target="_top" xlink:title="Partition function implementations.">
<polygon fill="white" stroke="#666666" points="882,-393 762,-393 762,-374 882,-374 882,-393"/>
<text text-anchor="middle" x="822" y="-381" font-family="Helvetica,sans-Serif" font-size="10.00">ViennaRNA/part_func.h</text>
</a>
</g>
</g>
<!-- Node1&#45;&gt;Node21 -->
<g id="edge49" class="edge">
<title>Node1&#45;&gt;Node21</title>
<path fill="none" stroke="#63b8ff" d="M769.69,-428.51C778.7,-420.93 791.83,-409.88 802.68,-400.75"/>
<polygon fill="#63b8ff" stroke="#63b8ff" points="804.91,-403.45 810.31,-394.33 800.41,-398.09 804.91,-403.45"/>
</g>
<!-- Node24 -->
<g id="node24" class="node">
<title>Node24</title>
<g id="a_node24"><a xlink:href="boltzmann__sampling_8h.html" target="_top" xlink:title="Boltzmann Sampling of secondary structures from the ensemble.">
<polygon fill="white" stroke="#666666" points="1275,-338 1159,-338 1159,-308 1275,-308 1275,-338"/>
<text text-anchor="start" x="1167" y="-326" font-family="Helvetica,sans-Serif" font-size="10.00">ViennaRNA/boltzmann</text>
<text text-anchor="middle" x="1217" y="-315" font-family="Helvetica,sans-Serif" font-size="10.00">_sampling.h</text>
</a>
</g>
</g>
<!-- Node1&#45;&gt;Node24 -->
<g id="edge70" class="edge">
<title>Node1&#45;&gt;Node24</title>
<path fill="none" stroke="#63b8ff" d="M794.94,-428.59C870.88,-409.77 1048.79,-365.68 1147.66,-341.18"/>
<polygon fill="#63b8ff" stroke="#63b8ff" points="1148.4,-344.61 1157.26,-338.8 1146.72,-337.81 1148.4,-344.61"/>
</g>
<!-- Node25 -->
<g id="node25" class="node">
<title>Node25</title>
<g id="a_node25"><a xlink:href="utils_2alignments_8h.html" target="_top" xlink:title="Various utility&#45; and helper&#45;functions for sequence alignments and comparative structure prediction.">
<polygon fill="white" stroke="#666666" points="1556,-266.5 1408,-266.5 1408,-247.5 1556,-247.5 1556,-266.5"/>
<text text-anchor="middle" x="1482" y="-254.5" font-family="Helvetica,sans-Serif" font-size="10.00">ViennaRNA/utils/alignments.h</text>
</a>
</g>
</g>
<!-- Node1&#45;&gt;Node25 -->
<g id="edge65" class="edge">
<title>Node1&#45;&gt;Node25</title>
<path fill="none" stroke="#63b8ff" d="M811.97,-430.97C907.61,-418.42 1114.88,-387.67 1284,-338 1345.84,-319.84 1415,-289.45 1453.02,-271.82"/>
<polygon fill="#63b8ff" stroke="#63b8ff" points="1454.38,-275.04 1461.96,-267.64 1451.42,-268.7 1454.38,-275.04"/>
</g>
<!-- Node3 -->
<g id="node3" class="node">
<title>Node3</title>
<g id="a_node3"><a xlink:href="constants_8h.html" target="_top" xlink:title="Energy parameter constants.">
<polygon fill="white" stroke="#666666" points="200,-79.5 42,-79.5 42,-60.5 200,-60.5 200,-79.5"/>
<text text-anchor="middle" x="121" y="-67.5" font-family="Helvetica,sans-Serif" font-size="10.00">ViennaRNA/params/constants.h</text>
</a>
</g>
</g>
<!-- Node2&#45;&gt;Node3 -->
<g id="edge2" class="edge">
<title>Node2&#45;&gt;Node3</title>
<path fill="none" stroke="#63b8ff" d="M536.6,-254.02C402.97,-248.46 112.55,-227.63 57,-151 40.03,-127.58 70.43,-101.64 94.88,-85.83"/>
<polygon fill="#63b8ff" stroke="#63b8ff" points="96.54,-88.92 103.22,-80.69 92.87,-82.96 96.54,-88.92"/>
</g>
<!-- Node5 -->
<g id="node5" class="node">
<title>Node5</title>
<g id="a_node5"><a xlink:href="fold__compound_8h.html" target="_top" xlink:title="The Basic Fold Compound API.">
<polygon fill="white" stroke="#666666" points="895,-206 749,-206 749,-187 895,-187 895,-206"/>
<text text-anchor="middle" x="822" y="-194" font-family="Helvetica,sans-Serif" font-size="10.00">ViennaRNA/fold_compound.h</text>
</a>
</g>
</g>
<!-- Node2&#45;&gt;Node5 -->
<g id="edge4" class="edge">
<title>Node2&#45;&gt;Node5</title>
<path fill="none" stroke="#63b8ff" d="M657.89,-241.54C694.86,-231.62 743.32,-218.61 777.98,-209.31"/>
<polygon fill="#63b8ff" stroke="#63b8ff" points="778.5,-212.8 787.25,-206.82 776.69,-206.04 778.5,-212.8"/>
</g>
<!-- Node6 -->
<g id="node6" class="node">
<title>Node6</title>
<g id="a_node6"><a xlink:href="model_8h.html" target="_top" xlink:title="The model details data structure and its corresponding modifiers.">
<polygon fill="white" stroke="#666666" points="581,-79.5 475,-79.5 475,-60.5 581,-60.5 581,-79.5"/>
<text text-anchor="middle" x="528" y="-67.5" font-family="Helvetica,sans-Serif" font-size="10.00">ViennaRNA/model.h</text>
</a>
</g>
</g>
<!-- Node2&#45;&gt;Node6 -->
<g id="edge34" class="edge">
<title>Node2&#45;&gt;Node6</title>
<path fill="none" stroke="#63b8ff" d="M536.88,-245.64C444.61,-229.87 286.11,-196.76 252,-151 244.03,-140.31 243.45,-131.23 252,-121 278.41,-89.38 390.47,-77.72 463.43,-73.44"/>
<polygon fill="#63b8ff" stroke="#63b8ff" points="463.48,-76.94 473.28,-72.9 463.1,-69.95 463.48,-76.94"/>
</g>
<!-- Node2&#45;&gt;Node7 -->
<g id="edge35" class="edge">
<title>Node2&#45;&gt;Node7</title>
<path fill="none" stroke="#63b8ff" d="M536.7,-252.1C467.91,-246.6 358.96,-233.91 269,-206 225.69,-192.56 179,-167.9 153.54,-151.99"/>
<polygon fill="#63b8ff" stroke="#63b8ff" points="155.55,-149.13 145.26,-146.6 151.73,-154.99 155.55,-149.13"/>
</g>
<!-- Node9 -->
<g id="node9" class="node">
<title>Node9</title>
<g id="a_node9"><a xlink:href="dp__matrices_8h.html" target="_top" xlink:title="Functions to deal with standard dynamic programming (DP) matrices.">
<polygon fill="white" stroke="#666666" points="393.5,-145.5 260.5,-145.5 260.5,-126.5 393.5,-126.5 393.5,-145.5"/>
<text text-anchor="middle" x="327" y="-133.5" font-family="Helvetica,sans-Serif" font-size="10.00">ViennaRNA/dp_matrices.h</text>
</a>
</g>
</g>
<!-- Node2&#45;&gt;Node9 -->
<g id="edge36" class="edge">
<title>Node2&#45;&gt;Node9</title>
<path fill="none" stroke="#63b8ff" d="M565.71,-241.53C508.93,-218.38 404.1,-173.33 354.36,-150.69"/>
<polygon fill="#63b8ff" stroke="#63b8ff" points="355.99,-147.58 345.44,-146.59 353.06,-153.94 355.99,-147.58"/>
</g>
<!-- Node10 -->
<g id="node10" class="node">
<title>Node10</title>
<g id="a_node10"><a xlink:href="hard_8h.html" target="_top" xlink:title="Functions and data structures for handling of secondary structure hard constraints.">
<polygon fill="white" stroke="#666666" points="974.5,-151 855.5,-151 855.5,-121 974.5,-121 974.5,-151"/>
<text text-anchor="start" x="863.5" y="-139" font-family="Helvetica,sans-Serif" font-size="10.00">ViennaRNA/constraints</text>
<text text-anchor="middle" x="915" y="-128" font-family="Helvetica,sans-Serif" font-size="10.00">/hard.h</text>
</a>
</g>
</g>
<!-- Node2&#45;&gt;Node10 -->
<g id="edge37" class="edge">
<title>Node2&#45;&gt;Node10</title>
<path fill="none" stroke="#63b8ff" d="M628.9,-241.54C655.67,-226.43 699.83,-202.76 740,-187 773.55,-173.84 811.94,-162.48 844.2,-153.93"/>
<polygon fill="#63b8ff" stroke="#63b8ff" points="845.08,-157.32 853.87,-151.41 843.31,-150.54 845.08,-157.32"/>
</g>
<!-- Node12 -->
<g id="node12" class="node">
<title>Node12</title>
<g id="a_node12"><a xlink:href="soft_8h.html" target="_top" xlink:title="Functions and data structures for secondary structure soft constraints.">
<polygon fill="white" stroke="#666666" points="663.5,-151 544.5,-151 544.5,-121 663.5,-121 663.5,-151"/>
<text text-anchor="start" x="552.5" y="-139" font-family="Helvetica,sans-Serif" font-size="10.00">ViennaRNA/constraints</text>
<text text-anchor="middle" x="604" y="-128" font-family="Helvetica,sans-Serif" font-size="10.00">/soft.h</text>
</a>
</g>
</g>
<!-- Node2&#45;&gt;Node12 -->
<g id="edge38" class="edge">
<title>Node2&#45;&gt;Node12</title>
<path fill="none" stroke="#63b8ff" d="M599.45,-241.88C596.95,-222.39 596.58,-186.92 598.33,-162.67"/>
<polygon fill="#63b8ff" stroke="#63b8ff" points="601.79,-163.26 599.26,-152.98 594.82,-162.6 601.79,-163.26"/>
</g>
<!-- Node13 -->
<g id="node13" class="node">
<title>Node13</title>
<g id="a_node13"><a xlink:href="grammar_8h.html" target="_top" xlink:title="Implementations for the RNA folding grammar.">
<polygon fill="white" stroke="#666666" points="798.5,-145.5 681.5,-145.5 681.5,-126.5 798.5,-126.5 798.5,-145.5"/>
<text text-anchor="middle" x="740" y="-133.5" font-family="Helvetica,sans-Serif" font-size="10.00">ViennaRNA/grammar.h</text>
</a>
</g>
</g>
<!-- Node2&#45;&gt;Node13 -->
<g id="edge39" class="edge">
<title>Node2&#45;&gt;Node13</title>
<path fill="none" stroke="#63b8ff" d="M620.4,-241.65C645.81,-219.42 694.52,-176.79 721.27,-153.39"/>
<polygon fill="#63b8ff" stroke="#63b8ff" points="723.38,-156.19 728.6,-146.97 718.77,-150.92 723.38,-156.19"/>
</g>
<!-- Node14 -->
<g id="node14" class="node">
<title>Node14</title>
<g id="a_node14"><a xlink:href="structured__domains_8h.html" target="_top" xlink:title="This module provides interfaces that deal with additional structured domains in the folding grammar.">
<polygon fill="white" stroke="#666666" points="526.5,-151 411.5,-151 411.5,-121 526.5,-121 526.5,-151"/>
<text text-anchor="start" x="419.5" y="-139" font-family="Helvetica,sans-Serif" font-size="10.00">ViennaRNA/structured</text>
<text text-anchor="middle" x="469" y="-128" font-family="Helvetica,sans-Serif" font-size="10.00">_domains.h</text>
</a>
</g>
</g>
<!-- Node2&#45;&gt;Node14 -->
<g id="edge40" class="edge">
<title>Node2&#45;&gt;Node14</title>
<path fill="none" stroke="#63b8ff" d="M587.72,-241.65C564.4,-221.1 521.32,-183.12 493.96,-159.01"/>
<polygon fill="#63b8ff" stroke="#63b8ff" points="496.29,-156.39 486.48,-152.41 491.66,-161.64 496.29,-156.39"/>
</g>
<!-- Node15 -->
<g id="node15" class="node">
<title>Node15</title>
<g id="a_node15"><a xlink:href="unstructured__domains_8h.html" target="_top" xlink:title="Functions to modify unstructured domains, e.g. to incorporate ligands binding to unpaired stretches.">
<polygon fill="white" stroke="#666666" points="1423.5,-151 1298.5,-151 1298.5,-121 1423.5,-121 1423.5,-151"/>
<text text-anchor="start" x="1306.5" y="-139" font-family="Helvetica,sans-Serif" font-size="10.00">ViennaRNA/unstructured</text>
<text text-anchor="middle" x="1361" y="-128" font-family="Helvetica,sans-Serif" font-size="10.00">_domains.h</text>
</a>
</g>
</g>
<!-- Node2&#45;&gt;Node15 -->
<g id="edge41" class="edge">
<title>Node2&#45;&gt;Node15</title>
<path fill="none" stroke="#63b8ff" d="M671.32,-245.91C793.21,-228.27 1058.18,-190 1281,-151 1283,-150.65 1285.03,-150.29 1287.09,-149.92"/>
<polygon fill="#63b8ff" stroke="#63b8ff" points="1287.52,-153.4 1296.72,-148.14 1286.25,-146.51 1287.52,-153.4"/>
</g>
<!-- Node2&#45;&gt;Node16 -->
<g id="edge42" class="edge">
<title>Node2&#45;&gt;Node16</title>
<path fill="none" stroke="#63b8ff" d="M671.34,-252.48C842.49,-243 1289.67,-213.27 1424,-151 1455.57,-136.37 1483.92,-106.64 1502.28,-87.83"/>
<polygon fill="#63b8ff" stroke="#63b8ff" points="1504.6,-90.46 1509.15,-80.9 1499.63,-85.53 1504.6,-90.46"/>
</g>
<!-- Node4 -->
<g id="node4" class="node">
<title>Node4</title>
<g id="a_node4"><a xlink:title=" ">
<polygon fill="#e0e0e0" stroke="#999999" points="145,-19 97,-19 97,0 145,0 145,-19"/>
<text text-anchor="middle" x="121" y="-7" font-family="Helvetica,sans-Serif" font-size="10.00">limits.h</text>
</a>
</g>
</g>
<!-- Node3&#45;&gt;Node4 -->
<g id="edge3" class="edge">
<title>Node3&#45;&gt;Node4</title>
<path fill="none" stroke="#63b8ff" d="M121,-60.37C121,-52.5 121,-40.6 121,-30.39"/>
<polygon fill="#63b8ff" stroke="#63b8ff" points="124.5,-30.68 121,-20.68 117.5,-30.68 124.5,-30.68"/>
</g>
<!-- Node5&#45;&gt;Node6 -->
<g id="edge5" class="edge">
<title>Node5&#45;&gt;Node6</title>
<path fill="none" stroke="#63b8ff" d="M823.23,-186.71C824.87,-171.11 825.76,-138.6 808,-121 778.37,-91.64 665.88,-79.25 592.82,-74.23"/>
<polygon fill="#63b8ff" stroke="#63b8ff" points="593.17,-70.74 582.96,-73.58 592.71,-77.73 593.17,-70.74"/>
</g>
<!-- Node5&#45;&gt;Node7 -->
<g id="edge6" class="edge">
<title>Node5&#45;&gt;Node7</title>
<path fill="none" stroke="#63b8ff" d="M748.67,-191.12C638.53,-184.01 424.26,-168.91 243,-151 231.85,-149.9 220.12,-148.63 208.66,-147.31"/>
<polygon fill="#63b8ff" stroke="#63b8ff" points="209.15,-143.84 198.81,-146.16 208.34,-150.8 209.15,-143.84"/>
</g>
<!-- Node8 -->
<g id="node8" class="node">
<title>Node8</title>
<g id="a_node8"><a xlink:href="sequence_8h.html" target="_top" xlink:title="Functions and data structures related to sequence representations ,.">
<polygon fill="white" stroke="#666666" points="1153,-145.5 1031,-145.5 1031,-126.5 1153,-126.5 1153,-145.5"/>
<text text-anchor="middle" x="1092" y="-133.5" font-family="Helvetica,sans-Serif" font-size="10.00">ViennaRNA/sequence.h</text>
</a>
</g>
</g>
<!-- Node5&#45;&gt;Node8 -->
<g id="edge11" class="edge">
<title>Node5&#45;&gt;Node8</title>
<path fill="none" stroke="#63b8ff" d="M858.28,-186.55C903.57,-176.27 981.34,-159.39 1034.69,-148.24"/>
<polygon fill="#63b8ff" stroke="#63b8ff" points="1035.12,-151.72 1044.2,-146.26 1033.7,-144.87 1035.12,-151.72"/>
</g>
<!-- Node5&#45;&gt;Node9 -->
<g id="edge13" class="edge">
<title>Node5&#45;&gt;Node9</title>
<path fill="none" stroke="#63b8ff" d="M748.72,-189.98C663.16,-182.77 517.8,-168.95 394,-151 387.62,-150.08 380.96,-149 374.4,-147.87"/>
<polygon fill="#63b8ff" stroke="#63b8ff" points="375.49,-144.51 365.03,-146.2 374.26,-151.4 375.49,-144.51"/>
</g>
<!-- Node5&#45;&gt;Node10 -->
<g id="edge16" class="edge">
<title>Node5&#45;&gt;Node10</title>
<path fill="none" stroke="#63b8ff" d="M831.12,-186.62C841.88,-178.81 859.9,-167.17 876.55,-157.13"/>
<polygon fill="#63b8ff" stroke="#63b8ff" points="878.02,-160.33 884.83,-152.21 874.44,-154.31 878.02,-160.33"/>
</g>
<!-- Node5&#45;&gt;Node12 -->
<g id="edge20" class="edge">
<title>Node5&#45;&gt;Node12</title>
<path fill="none" stroke="#63b8ff" d="M783.63,-186.55C750.15,-178.05 701.2,-165.02 662.81,-154.46"/>
<polygon fill="#63b8ff" stroke="#63b8ff" points="663.81,-151.1 653.24,-151.81 661.95,-157.85 663.81,-151.1"/>
</g>
<!-- Node5&#45;&gt;Node13 -->
<g id="edge24" class="edge">
<title>Node5&#45;&gt;Node13</title>
<path fill="none" stroke="#63b8ff" d="M804.54,-186.62C790.13,-177.68 770.2,-163.72 756.17,-152.87"/>
<polygon fill="#63b8ff" stroke="#63b8ff" points="758.72,-150.43 748.73,-146.91 754.35,-155.9 758.72,-150.43"/>
</g>
<!-- Node5&#45;&gt;Node14 -->
<g id="edge26" class="edge">
<title>Node5&#45;&gt;Node14</title>
<path fill="none" stroke="#63b8ff" d="M758.23,-186.54C702.72,-178.52 619.81,-166.03 537.98,-151.3"/>
<polygon fill="#63b8ff" stroke="#63b8ff" points="538.66,-147.87 528.2,-149.53 537.41,-154.75 538.66,-147.87"/>
</g>
<!-- Node5&#45;&gt;Node15 -->
<g id="edge27" class="edge">
<title>Node5&#45;&gt;Node15</title>
<path fill="none" stroke="#63b8ff" d="M895.33,-190.35C986.17,-183.76 1145.32,-170.78 1281,-151 1283.01,-150.71 1285.05,-150.4 1287.11,-150.07"/>
<polygon fill="#63b8ff" stroke="#63b8ff" points="1287.49,-153.55 1296.77,-148.44 1286.33,-146.65 1287.49,-153.55"/>
</g>
<!-- Node18 -->
<g id="node18" class="node">
<title>Node18</title>
<g id="a_node18"><a xlink:href="zscore_8h_source.html" target="_top" xlink:title=" ">
<polygon fill="white" stroke="#666666" points="1280.5,-145.5 1171.5,-145.5 1171.5,-126.5 1280.5,-126.5 1280.5,-145.5"/>
<text text-anchor="middle" x="1226" y="-133.5" font-family="Helvetica,sans-Serif" font-size="10.00">ViennaRNA/zscore.h</text>
</a>
</g>
</g>
<!-- Node5&#45;&gt;Node18 -->
<g id="edge33" class="edge">
<title>Node5&#45;&gt;Node18</title>
<path fill="none" stroke="#63b8ff" d="M895.23,-187.74C964.27,-180 1070.51,-166.96 1162,-151 1166.66,-150.19 1171.5,-149.27 1176.34,-148.3"/>
<polygon fill="#63b8ff" stroke="#63b8ff" points="1176.96,-151.74 1186.04,-146.28 1175.54,-144.89 1176.96,-151.74"/>
</g>
<!-- Node7&#45;&gt;Node2 -->
<g id="edge8" class="edge">
<title>Node7&#45;&gt;Node2</title>
<path fill="none" stroke="#63b8ff" d="M154.87,-145.77C183.58,-160.63 237.51,-190.64 287,-206 366.32,-230.61 460.4,-243.39 525.43,-249.83"/>
<polygon fill="#63b8ff" stroke="#63b8ff" points="525.02,-253.31 535.31,-250.78 525.69,-246.34 525.02,-253.31"/>
</g>
<!-- Node7&#45;&gt;Node3 -->
<g id="edge7" class="edge">
<title>Node7&#45;&gt;Node3</title>
<path fill="none" stroke="#63b8ff" d="M133.05,-126.1C131.07,-117.03 127.92,-102.64 125.34,-90.85"/>
<polygon fill="#63b8ff" stroke="#63b8ff" points="128.81,-90.32 123.25,-81.3 121.97,-91.82 128.81,-90.32"/>
</g>
<!-- Node7&#45;&gt;Node5 -->
<g id="edge9" class="edge">
<title>Node7&#45;&gt;Node5</title>
<path fill="none" stroke="#63b8ff" d="M204.28,-144.74C222.78,-146.92 242.68,-149.19 261,-151 429.86,-167.69 627.38,-181.93 737.3,-189.55"/>
<polygon fill="#63b8ff" stroke="#63b8ff" points="736.91,-193.04 747.12,-190.23 737.39,-186.05 736.91,-193.04"/>
</g>
<!-- Node7&#45;&gt;Node6 -->
<g id="edge10" class="edge">
<title>Node7&#45;&gt;Node6</title>
<path fill="none" stroke="#63b8ff" d="M187.68,-126.06C197.74,-124.36 208.2,-122.62 218,-121 302.82,-107.01 400.76,-91.28 463.48,-81.27"/>
<polygon fill="#63b8ff" stroke="#63b8ff" points="463.95,-84.74 473.28,-79.7 462.85,-77.82 463.95,-84.74"/>
</g>
<!-- Node8&#45;&gt;Node5 -->
<g id="edge12" class="edge">
<title>Node8&#45;&gt;Node5</title>
<path fill="none" stroke="#63b8ff" d="M1055.73,-145.95C1010.44,-156.23 932.67,-173.11 879.32,-184.26"/>
<polygon fill="#63b8ff" stroke="#63b8ff" points="878.88,-180.78 869.81,-186.24 880.31,-187.63 878.88,-180.78"/>
</g>
<!-- Node9&#45;&gt;Node2 -->
<g id="edge14" class="edge">
<title>Node9&#45;&gt;Node2</title>
<path fill="none" stroke="#63b8ff" d="M351.62,-145.95C399.85,-165.19 506.56,-210.84 564.65,-236.9"/>
<polygon fill="#63b8ff" stroke="#63b8ff" points="562.98,-239.98 573.53,-240.9 565.85,-233.6 562.98,-239.98"/>
</g>
<!-- Node9&#45;&gt;Node5 -->
<g id="edge15" class="edge">
<title>Node9&#45;&gt;Node5</title>
<path fill="none" stroke="#63b8ff" d="M381.09,-145.93C391.4,-147.76 402.04,-149.56 412,-151 524.18,-167.27 654.08,-180.14 737.14,-187.78"/>
<polygon fill="#63b8ff" stroke="#63b8ff" points="736.76,-191.26 747.04,-188.68 737.4,-184.29 736.76,-191.26"/>
</g>
<!-- Node10&#45;&gt;Node5 -->
<g id="edge17" class="edge">
<title>Node10&#45;&gt;Node5</title>
<path fill="none" stroke="#63b8ff" d="M897.96,-151.44C884.71,-160.48 866.27,-172.08 850.79,-181.11"/>
<polygon fill="#63b8ff" stroke="#63b8ff" points="849.4,-177.87 842.45,-185.87 852.87,-183.95 849.4,-177.87"/>
</g>
<!-- Node11 -->
<g id="node11" class="node">
<title>Node11</title>
<g id="a_node11"><a xlink:href="constraints_2basic_8h.html" target="_top" xlink:title="Functions and data structures for constraining secondary structure predictions and evaluation.">
<polygon fill="white" stroke="#666666" points="974.5,-85 855.5,-85 855.5,-55 974.5,-55 974.5,-85"/>
<text text-anchor="start" x="863.5" y="-73" font-family="Helvetica,sans-Serif" font-size="10.00">ViennaRNA/constraints</text>
<text text-anchor="middle" x="915" y="-62" font-family="Helvetica,sans-Serif" font-size="10.00">/basic.h</text>
</a>
</g>
</g>
<!-- Node10&#45;&gt;Node11 -->
<g id="edge18" class="edge">
<title>Node10&#45;&gt;Node11</title>
<path fill="none" stroke="#63b8ff" d="M915,-120.8C915,-113.67 915,-104.82 915,-96.56"/>
<polygon fill="#63b8ff" stroke="#63b8ff" points="918.5,-96.68 915,-86.68 911.5,-96.68 918.5,-96.68"/>
</g>
<!-- Node11&#45;&gt;Node5 -->
<g id="edge19" class="edge">
<title>Node11&#45;&gt;Node5</title>
<path fill="none" stroke="#63b8ff" d="M942.39,-85.3C968.79,-100.97 1002.24,-127.08 984,-151 972.65,-165.88 931.97,-177.03 894.22,-184.44"/>
<polygon fill="#63b8ff" stroke="#63b8ff" points="893.82,-180.95 884.64,-186.25 895.12,-187.83 893.82,-180.95"/>
</g>
<!-- Node12&#45;&gt;Node2 -->
<g id="edge21" class="edge">
<title>Node12&#45;&gt;Node2</title>
<path fill="none" stroke="#63b8ff" d="M608.6,-151.47C611.05,-171.06 611.41,-206.33 609.66,-230.44"/>
<polygon fill="#63b8ff" stroke="#63b8ff" points="606.18,-230.09 608.7,-240.38 613.15,-230.76 606.18,-230.09"/>
</g>
<!-- Node12&#45;&gt;Node5 -->
<g id="edge22" class="edge">
<title>Node12&#45;&gt;Node5</title>
<path fill="none" stroke="#63b8ff" d="M663.72,-151.44C701.67,-161.29 749.63,-174.2 782.82,-183.49"/>
<polygon fill="#63b8ff" stroke="#63b8ff" points="781.87,-186.86 792.44,-186.2 783.77,-180.12 781.87,-186.86"/>
</g>
<!-- Node12&#45;&gt;Node11 -->
<g id="edge23" class="edge">
<title>Node12&#45;&gt;Node11</title>
<path fill="none" stroke="#63b8ff" d="M663.96,-122.66C715.49,-112.06 789.85,-96.75 844.27,-85.56"/>
<polygon fill="#63b8ff" stroke="#63b8ff" points="844.65,-89.05 853.74,-83.61 843.24,-82.19 844.65,-89.05"/>
</g>
<!-- Node13&#45;&gt;Node5 -->
<g id="edge25" class="edge">
<title>Node13&#45;&gt;Node5</title>
<path fill="none" stroke="#63b8ff" d="M757.6,-145.97C772.04,-154.93 791.97,-168.9 805.96,-179.73"/>
<polygon fill="#63b8ff" stroke="#63b8ff" points="803.38,-182.15 813.37,-185.67 807.76,-176.68 803.38,-182.15"/>
</g>
<!-- Node15&#45;&gt;Node2 -->
<g id="edge28" class="edge">
<title>Node15&#45;&gt;Node2</title>
<path fill="none" stroke="#63b8ff" d="M1298.33,-151.12C1075.83,-190.05 811.52,-228.23 682.54,-245.86"/>
<polygon fill="#63b8ff" stroke="#63b8ff" points="682.17,-242.38 672.73,-247.2 683.11,-249.32 682.17,-242.38"/>
</g>
<!-- Node15&#45;&gt;Node5 -->
<g id="edge29" class="edge">
<title>Node15&#45;&gt;Node5</title>
<path fill="none" stroke="#63b8ff" d="M1298.17,-151.12C1161.94,-170.94 1002.27,-183.91 906.71,-190.46"/>
<polygon fill="#63b8ff" stroke="#63b8ff" points="906.63,-186.95 896.89,-191.12 907.1,-193.94 906.63,-186.95"/>
</g>
<!-- Node15&#45;&gt;Node16 -->
<g id="edge30" class="edge">
<title>Node15&#45;&gt;Node16</title>
<path fill="none" stroke="#63b8ff" d="M1397.13,-120.64C1424.67,-109.69 1462.29,-94.73 1489.02,-84.11"/>
<polygon fill="#63b8ff" stroke="#63b8ff" points="1489.99,-87.49 1497.99,-80.54 1487.4,-80.99 1489.99,-87.49"/>
</g>
<!-- Node16&#45;&gt;Node2 -->
<g id="edge32" class="edge">
<title>Node16&#45;&gt;Node2</title>
<path fill="none" stroke="#63b8ff" d="M1520.39,-79.82C1510.82,-96.85 1478.57,-134.05 1442,-151 1308.31,-212.97 864.78,-242.71 682.83,-252.35"/>
<polygon fill="#63b8ff" stroke="#63b8ff" points="682.81,-248.84 673.01,-252.86 683.17,-255.83 682.81,-248.84"/>
</g>
<!-- Node17 -->
<g id="node17" class="node">
<title>Node17</title>
<g id="a_node17"><a xlink:title=" ">
<polygon fill="#e0e0e0" stroke="#999999" points="1545,-19 1499,-19 1499,0 1545,0 1545,-19"/>
<text text-anchor="middle" x="1522" y="-7" font-family="Helvetica,sans-Serif" font-size="10.00">stdio.h</text>
</a>
</g>
</g>
<!-- Node16&#45;&gt;Node17 -->
<g id="edge31" class="edge">
<title>Node16&#45;&gt;Node17</title>
<path fill="none" stroke="#63b8ff" d="M1522,-60.37C1522,-52.5 1522,-40.6 1522,-30.39"/>
<polygon fill="#63b8ff" stroke="#63b8ff" points="1525.5,-30.68 1522,-20.68 1518.5,-30.68 1525.5,-30.68"/>
</g>
<!-- Node20&#45;&gt;Node2 -->
<g id="edge47" class="edge">
<title>Node20&#45;&gt;Node2</title>
<path fill="none" stroke="#63b8ff" d="M511.02,-313.1C526.12,-304.15 549.93,-290.04 569.68,-278.34"/>
<polygon fill="#63b8ff" stroke="#63b8ff" points="571.45,-281.36 578.27,-273.25 567.88,-275.34 571.45,-281.36"/>
</g>
<!-- Node20&#45;&gt;Node5 -->
<g id="edge48" class="edge">
<title>Node20&#45;&gt;Node5</title>
<path fill="none" stroke="#63b8ff" d="M539.24,-313.06C577.08,-304.57 633.17,-290.39 680,-272 723.2,-255.03 770.35,-228.57 797.99,-212.18"/>
<polygon fill="#63b8ff" stroke="#63b8ff" points="799.5,-215.35 806.28,-207.21 795.9,-209.35 799.5,-215.35"/>
</g>
<!-- Node20&#45;&gt;Node17 -->
<g id="edge46" class="edge">
<title>Node20&#45;&gt;Node17</title>
<path fill="none" stroke="#63b8ff" d="M447.54,-320.12C322.73,-313.96 0,-289.17 0,-197.5 0,-197.5 0,-197.5 0,-135 0,-96.54 1.36,-76.87 33,-55 94.76,-12.32 1269.84,-10.45 1487.48,-10.48"/>
<polygon fill="#63b8ff" stroke="#63b8ff" points="1487.27,-13.98 1497.27,-10.48 1487.27,-6.98 1487.27,-13.98"/>
</g>
<!-- Node21&#45;&gt;Node2 -->
<g id="edge50" class="edge">
<title>Node21&#45;&gt;Node2</title>
<path fill="none" stroke="#63b8ff" d="M761.61,-374.19C731.28,-367.87 695.12,-356.89 667,-338 645.78,-323.74 628.43,-300.06 617.35,-282.16"/>
<polygon fill="#63b8ff" stroke="#63b8ff" points="620.45,-280.52 612.34,-273.7 614.42,-284.09 620.45,-280.52"/>
</g>
<!-- Node21&#45;&gt;Node5 -->
<g id="edge51" class="edge">
<title>Node21&#45;&gt;Node5</title>
<path fill="none" stroke="#63b8ff" d="M822,-373.58C822,-345.37 822,-257.65 822,-217.7"/>
<polygon fill="#63b8ff" stroke="#63b8ff" points="825.5,-217.85 822,-207.85 818.5,-217.85 825.5,-217.85"/>
</g>
<!-- Node21&#45;&gt;Node7 -->
<g id="edge53" class="edge">
<title>Node21&#45;&gt;Node7</title>
<path fill="none" stroke="#63b8ff" d="M776.25,-373.57C737.48,-365.57 680.6,-352.85 632,-338 596.08,-327.03 589.24,-317.84 553,-308 391.28,-264.08 322.78,-308.24 190,-206 171.66,-191.88 155.8,-170.38 145.89,-155.14"/>
<polygon fill="#63b8ff" stroke="#63b8ff" points="149.1,-153.66 140.83,-147.04 143.16,-157.37 149.1,-153.66"/>
</g>
<!-- Node21&#45;&gt;Node16 -->
<g id="edge52" class="edge">
<title>Node21&#45;&gt;Node16</title>
<path fill="none" stroke="#63b8ff" d="M854.3,-373.56C912.78,-357.73 1040.34,-324.85 1150,-308 1198.48,-300.55 1554.9,-306.27 1590,-272 1638.17,-224.97 1613.82,-178 1578,-121 1569.44,-107.38 1556.11,-95.27 1544.61,-86.38"/>
<polygon fill="#63b8ff" stroke="#63b8ff" points="1546.87,-83.7 1536.74,-80.6 1542.73,-89.34 1546.87,-83.7"/>
</g>
<!-- Node22 -->
<g id="node22" class="node">
<title>Node22</title>
<g id="a_node22"><a xlink:href="centroid_8h.html" target="_top" xlink:title="Centroid structure computation.">
<polygon fill="white" stroke="#666666" points="964,-332.5 850,-332.5 850,-313.5 964,-313.5 964,-332.5"/>
<text text-anchor="middle" x="907" y="-320.5" font-family="Helvetica,sans-Serif" font-size="10.00">ViennaRNA/centroid.h</text>
</a>
</g>
</g>
<!-- Node21&#45;&gt;Node22 -->
<g id="edge54" class="edge">
<title>Node21&#45;&gt;Node22</title>
<path fill="none" stroke="#63b8ff" d="M834.91,-373.62C848.14,-364.51 868.97,-350.18 884.84,-339.25"/>
<polygon fill="#63b8ff" stroke="#63b8ff" points="886.47,-342.38 892.72,-333.83 882.5,-336.61 886.47,-342.38"/>
</g>
<!-- Node23 -->
<g id="node23" class="node">
<title>Node23</title>
<g id="a_node23"><a xlink:href="equilibrium__probs_8h.html" target="_top" xlink:title="Equilibrium Probability implementations.">
<polygon fill="white" stroke="#666666" points="794,-338 676,-338 676,-308 794,-308 794,-338"/>
<text text-anchor="start" x="684" y="-326" font-family="Helvetica,sans-Serif" font-size="10.00">ViennaRNA/equilibrium</text>
<text text-anchor="middle" x="735" y="-315" font-family="Helvetica,sans-Serif" font-size="10.00">_probs.h</text>
</a>
</g>
</g>
<!-- Node21&#45;&gt;Node23 -->
<g id="edge58" class="edge">
<title>Node21&#45;&gt;Node23</title>
<path fill="none" stroke="#63b8ff" d="M808.79,-373.62C797.4,-365.96 780.52,-354.61 765.77,-344.69"/>
<polygon fill="#63b8ff" stroke="#63b8ff" points="767.98,-341.96 757.73,-339.28 764.08,-347.77 767.98,-341.96"/>
</g>
<!-- Node21&#45;&gt;Node24 -->
<g id="edge63" class="edge">
<title>Node21&#45;&gt;Node24</title>
<path fill="none" stroke="#63b8ff" d="M882.28,-375.2C947.27,-367.1 1053.7,-353.15 1145,-338 1145.85,-337.86 1146.7,-337.72 1147.56,-337.57"/>
<polygon fill="#63b8ff" stroke="#63b8ff" points="1148.15,-341.02 1157.4,-335.85 1146.95,-334.13 1148.15,-341.02"/>
</g>
<!-- Node22&#45;&gt;Node2 -->
<g id="edge55" class="edge">
<title>Node22&#45;&gt;Node2</title>
<path fill="none" stroke="#63b8ff" d="M864.55,-313.03C817.42,-303.08 740.35,-286.8 682.23,-274.52"/>
<polygon fill="#63b8ff" stroke="#63b8ff" points="683.23,-271.16 672.72,-272.51 681.78,-278.01 683.23,-271.16"/>
</g>
<!-- Node22&#45;&gt;Node5 -->
<g id="edge56" class="edge">
<title>Node22&#45;&gt;Node5</title>
<path fill="none" stroke="#63b8ff" d="M900.89,-313.05C887.04,-292.77 853.06,-242.99 834.53,-215.86"/>
<polygon fill="#63b8ff" stroke="#63b8ff" points="837.44,-213.91 828.91,-207.62 831.66,-217.85 837.44,-213.91"/>
</g>
<!-- Node22&#45;&gt;Node16 -->
<g id="edge57" class="edge">
<title>Node22&#45;&gt;Node16</title>
<path fill="none" stroke="#63b8ff" d="M964.31,-318.16C1123.52,-307.41 1559.91,-277.49 1565,-272 1579.4,-256.47 1610.9,-262.39 1560,-121 1555.61,-108.82 1547.12,-97.18 1539.27,-88.2"/>
<polygon fill="#63b8ff" stroke="#63b8ff" points="1541.94,-85.93 1532.56,-81 1536.82,-90.7 1541.94,-85.93"/>
</g>
<!-- Node23&#45;&gt;Node2 -->
<g id="edge59" class="edge">
<title>Node23&#45;&gt;Node2</title>
<path fill="none" stroke="#63b8ff" d="M705.6,-307.64C687.31,-298.7 663.56,-287.1 643.63,-277.36"/>
<polygon fill="#63b8ff" stroke="#63b8ff" points="645.18,-274.22 634.66,-272.98 642.11,-280.51 645.18,-274.22"/>
</g>
<!-- Node23&#45;&gt;Node5 -->
<g id="edge60" class="edge">
<title>Node23&#45;&gt;Node5</title>
<path fill="none" stroke="#63b8ff" d="M744.98,-307.72C760.84,-285.03 791.77,-240.76 809.22,-215.79"/>
<polygon fill="#63b8ff" stroke="#63b8ff" points="812.07,-217.82 814.93,-207.62 806.33,-213.81 812.07,-217.82"/>
</g>
<!-- Node23&#45;&gt;Node7 -->
<g id="edge62" class="edge">
<title>Node23&#45;&gt;Node7</title>
<path fill="none" stroke="#63b8ff" d="M675.58,-311.79C559.1,-291.23 305.14,-243.62 225,-206 196.73,-192.73 168.94,-169.41 151.89,-153.59"/>
<polygon fill="#63b8ff" stroke="#63b8ff" points="154.34,-151.09 144.68,-146.73 149.51,-156.16 154.34,-151.09"/>
</g>
<!-- Node23&#45;&gt;Node16 -->
<g id="edge61" class="edge">
<title>Node23&#45;&gt;Node16</title>
<path fill="none" stroke="#63b8ff" d="M794.42,-311.26C960.72,-280.8 1422.24,-193.31 1477,-151 1496.77,-135.73 1509.2,-109.16 1515.87,-90.86"/>
<polygon fill="#63b8ff" stroke="#63b8ff" points="1519.17,-92.02 1519.03,-81.43 1512.53,-89.8 1519.17,-92.02"/>
</g>
<!-- Node24&#45;&gt;Node5 -->
<g id="edge64" class="edge">
<title>Node24&#45;&gt;Node5</title>
<path fill="none" stroke="#63b8ff" d="M1171.3,-307.6C1092.88,-282.88 934.04,-232.81 860.71,-209.7"/>
<polygon fill="#63b8ff" stroke="#63b8ff" points="862.15,-206.48 851.56,-206.82 860.04,-213.16 862.15,-206.48"/>
</g>
<!-- Node25&#45;&gt;Node5 -->
<g id="edge66" class="edge">
<title>Node25&#45;&gt;Node5</title>
<path fill="none" stroke="#63b8ff" d="M1407.57,-249.4C1283.96,-238.45 1037.06,-216.56 906.86,-205.02"/>
<polygon fill="#63b8ff" stroke="#63b8ff" points="907.18,-201.54 896.91,-204.14 906.56,-208.51 907.18,-201.54"/>
</g>
<!-- Node25&#45;&gt;Node6 -->
<g id="edge67" class="edge">
<title>Node25&#45;&gt;Node6</title>
<path fill="none" stroke="#63b8ff" d="M1481.88,-247.16C1481.02,-222.39 1474.83,-152.07 1433,-121 1424.55,-114.73 798.08,-84.01 592.53,-74.1"/>
<polygon fill="#63b8ff" stroke="#63b8ff" points="593,-70.61 582.84,-73.63 592.66,-77.61 593,-70.61"/>
</g>
<!-- Node25&#45;&gt;Node17 -->
<g id="edge68" class="edge">
<title>Node25&#45;&gt;Node17</title>
<path fill="none" stroke="#63b8ff" d="M1497.11,-247.11C1511.24,-238.18 1532.19,-223.3 1546,-206 1583.1,-159.55 1590.02,-143.01 1603,-85 1605.91,-71.99 1609.79,-66.48 1603,-55 1592.78,-37.73 1573.22,-26.72 1555.88,-19.96"/>
<polygon fill="#63b8ff" stroke="#63b8ff" points="1557.5,-16.82 1546.9,-16.8 1555.17,-23.42 1557.5,-16.82"/>
</g>
</g>
</svg>
