<?xml version="1.0" encoding="UTF-8" standalone="no"?>
<!DOCTYPE svg PUBLIC "-//W3C//DTD SVG 1.1//EN"
 "http://www.w3.org/Graphics/SVG/1.1/DTD/svg11.dtd">
<!-- Generated by graphviz version 7.1.0 (0)
 -->
<!-- Title: ViennaRNA/aln_util.h Pages: 1 -->
<svg width="1241pt" height="445pt"
 viewBox="0.00 0.00 1240.73 445.00" xmlns="http://www.w3.org/2000/svg" xmlns:xlink="http://www.w3.org/1999/xlink">
<g id="graph0" class="graph" transform="scale(1 1) rotate(0) translate(4 441)">
<title>ViennaRNA/aln_util.h</title>
<!-- Node1 -->
<g id="node1" class="node">
<title>Node1</title>
<g id="a_node1"><a xlink:title="Use ViennaRNA/utils/alignments.h instead.">
<polygon fill="#999999" stroke="#666666" points="1070.73,-437 960.73,-437 960.73,-418 1070.73,-418 1070.73,-437"/>
<text text-anchor="middle" x="1015.73" y="-425" font-family="Helvetica,sans-Serif" font-size="10.00">ViennaRNA/aln_util.h</text>
</a>
</g>
</g>
<!-- Node2 -->
<g id="node2" class="node">
<title>Node2</title>
<g id="a_node2"><a xlink:href="utils_2alignments_8h.html" target="_top" xlink:title="Various utility&#45; and helper&#45;functions for sequence alignments and comparative structure prediction.">
<polygon fill="white" stroke="#666666" points="1089.73,-382 941.73,-382 941.73,-363 1089.73,-363 1089.73,-382"/>
<text text-anchor="middle" x="1015.73" y="-370" font-family="Helvetica,sans-Serif" font-size="10.00">ViennaRNA/utils/alignments.h</text>
</a>
</g>
</g>
<!-- Node1&#45;&gt;Node2 -->
<g id="edge1" class="edge">
<title>Node1&#45;&gt;Node2</title>
<path fill="none" stroke="#63b8ff" d="M1015.73,-417.75C1015.73,-411.27 1015.73,-402.16 1015.73,-393.9"/>
<polygon fill="#63b8ff" stroke="#63b8ff" points="1019.23,-393.96 1015.73,-383.96 1012.23,-393.96 1019.23,-393.96"/>
</g>
<!-- Node3 -->
<g id="node3" class="node">
<title>Node3</title>
<g id="a_node3"><a xlink:href="fold__compound_8h.html" target="_top" xlink:title="The Basic Fold Compound API.">
<polygon fill="white" stroke="#666666" points="570.73,-327 424.73,-327 424.73,-308 570.73,-308 570.73,-327"/>
<text text-anchor="middle" x="497.73" y="-315" font-family="Helvetica,sans-Serif" font-size="10.00">ViennaRNA/fold_compound.h</text>
</a>
</g>
</g>
<!-- Node2&#45;&gt;Node3 -->
<g id="edge2" class="edge">
<title>Node2&#45;&gt;Node3</title>
<path fill="none" stroke="#63b8ff" d="M941.24,-363.88C846.08,-354.14 681.8,-337.33 582.12,-327.13"/>
<polygon fill="#63b8ff" stroke="#63b8ff" points="582.7,-323.68 572.39,-326.14 581.98,-330.64 582.7,-323.68"/>
</g>
<!-- Node4 -->
<g id="node4" class="node">
<title>Node4</title>
<g id="a_node4"><a xlink:href="model_8h.html" target="_top" xlink:title="The model details data structure and its corresponding modifiers.">
<polygon fill="white" stroke="#666666" points="1068.73,-145.5 962.73,-145.5 962.73,-126.5 1068.73,-126.5 1068.73,-145.5"/>
<text text-anchor="middle" x="1015.73" y="-133.5" font-family="Helvetica,sans-Serif" font-size="10.00">ViennaRNA/model.h</text>
</a>
</g>
</g>
<!-- Node2&#45;&gt;Node4 -->
<g id="edge44" class="edge">
<title>Node2&#45;&gt;Node4</title>
<path fill="none" stroke="#63b8ff" d="M1015.73,-362.59C1015.73,-328.57 1015.73,-206.25 1015.73,-157.38"/>
<polygon fill="#63b8ff" stroke="#63b8ff" points="1019.23,-157.43 1015.73,-147.43 1012.23,-157.43 1019.23,-157.43"/>
</g>
<!-- Node17 -->
<g id="node17" class="node">
<title>Node17</title>
<g id="a_node17"><a xlink:title=" ">
<polygon fill="#e0e0e0" stroke="#999999" points="937.73,-19 891.73,-19 891.73,0 937.73,0 937.73,-19"/>
<text text-anchor="middle" x="914.73" y="-7" font-family="Helvetica,sans-Serif" font-size="10.00">stdio.h</text>
</a>
</g>
</g>
<!-- Node2&#45;&gt;Node17 -->
<g id="edge45" class="edge">
<title>Node2&#45;&gt;Node17</title>
<path fill="none" stroke="#63b8ff" d="M1090.11,-364.84C1152.92,-354.64 1232.73,-328.83 1232.73,-263.5 1232.73,-263.5 1232.73,-263.5 1232.73,-135 1232.73,-74.68 1031.8,-31.59 949.38,-16.45"/>
<polygon fill="#63b8ff" stroke="#63b8ff" points="950.06,-13.02 939.6,-14.69 948.82,-19.91 950.06,-13.02"/>
</g>
<!-- Node3&#45;&gt;Node4 -->
<g id="edge3" class="edge">
<title>Node3&#45;&gt;Node4</title>
<path fill="none" stroke="#63b8ff" d="M570.96,-310.14C623.89,-304.07 696.56,-292.67 757.73,-272 849.96,-240.84 949.41,-180.18 993.04,-152.02"/>
<polygon fill="#63b8ff" stroke="#63b8ff" points="994.69,-155.13 1001.16,-146.74 990.87,-149.26 994.69,-155.13"/>
</g>
<!-- Node5 -->
<g id="node5" class="node">
<title>Node5</title>
<g id="a_node5"><a xlink:href="params_2basic_8h.html" target="_top" xlink:title="Functions to deal with sets of energy parameters.">
<polygon fill="white" stroke="#666666" points="710.73,-272 572.73,-272 572.73,-253 710.73,-253 710.73,-272"/>
<text text-anchor="middle" x="641.73" y="-260" font-family="Helvetica,sans-Serif" font-size="10.00">ViennaRNA/params/basic.h</text>
</a>
</g>
</g>
<!-- Node3&#45;&gt;Node5 -->
<g id="edge4" class="edge">
<title>Node3&#45;&gt;Node5</title>
<path fill="none" stroke="#63b8ff" d="M516.94,-307.51C538.58,-298.88 574,-285.76 601.66,-276.1"/>
<polygon fill="#63b8ff" stroke="#63b8ff" points="602.48,-279.52 610.79,-272.94 600.19,-272.9 602.48,-279.52"/>
</g>
<!-- Node9 -->
<g id="node9" class="node">
<title>Node9</title>
<g id="a_node9"><a xlink:href="dp__matrices_8h.html" target="_top" xlink:title="Functions to deal with standard dynamic programming (DP) matrices.">
<polygon fill="white" stroke="#666666" points="944.23,-145.5 811.23,-145.5 811.23,-126.5 944.23,-126.5 944.23,-145.5"/>
<text text-anchor="middle" x="877.73" y="-133.5" font-family="Helvetica,sans-Serif" font-size="10.00">ViennaRNA/dp_matrices.h</text>
</a>
</g>
</g>
<!-- Node3&#45;&gt;Node9 -->
<g id="edge37" class="edge">
<title>Node3&#45;&gt;Node9</title>
<path fill="none" stroke="#63b8ff" d="M570.99,-310.2C613.44,-304.41 666.89,-293.31 710.73,-272 771.9,-242.27 828.65,-183.13 857.92,-154.01"/>
<polygon fill="#63b8ff" stroke="#63b8ff" points="860.32,-156.56 865.01,-147.06 855.42,-151.55 860.32,-156.56"/>
</g>
<!-- Node10 -->
<g id="node10" class="node">
<title>Node10</title>
<g id="a_node10"><a xlink:href="hard_8h.html" target="_top" xlink:title="Functions and data structures for handling of secondary structure hard constraints.">
<polygon fill="white" stroke="#666666" points="280.23,-151 161.23,-151 161.23,-121 280.23,-121 280.23,-151"/>
<text text-anchor="start" x="169.23" y="-139" font-family="Helvetica,sans-Serif" font-size="10.00">ViennaRNA/constraints</text>
<text text-anchor="middle" x="220.73" y="-128" font-family="Helvetica,sans-Serif" font-size="10.00">/hard.h</text>
</a>
</g>
</g>
<!-- Node3&#45;&gt;Node10 -->
<g id="edge38" class="edge">
<title>Node3&#45;&gt;Node10</title>
<path fill="none" stroke="#63b8ff" d="M480.85,-307.6C434.34,-280.25 305.3,-196.92 248.25,-157.76"/>
<polygon fill="#63b8ff" stroke="#63b8ff" points="250.56,-155.1 240.35,-152.28 246.58,-160.85 250.56,-155.1"/>
</g>
<!-- Node12 -->
<g id="node12" class="node">
<title>Node12</title>
<g id="a_node12"><a xlink:href="soft_8h.html" target="_top" xlink:title="Functions and data structures for secondary structure soft constraints.">
<polygon fill="white" stroke="#666666" points="417.23,-151 298.23,-151 298.23,-121 417.23,-121 417.23,-151"/>
<text text-anchor="start" x="306.23" y="-139" font-family="Helvetica,sans-Serif" font-size="10.00">ViennaRNA/constraints</text>
<text text-anchor="middle" x="357.73" y="-128" font-family="Helvetica,sans-Serif" font-size="10.00">/soft.h</text>
</a>
</g>
</g>
<!-- Node3&#45;&gt;Node12 -->
<g id="edge39" class="edge">
<title>Node3&#45;&gt;Node12</title>
<path fill="none" stroke="#63b8ff" d="M487.93,-307.6C470.44,-285.99 435.35,-229.4 399.73,-187 391.68,-177.42 382.05,-167.62 373.89,-159.26"/>
<polygon fill="#63b8ff" stroke="#63b8ff" points="376.56,-156.99 367.09,-152.24 371.53,-161.86 376.56,-156.99"/>
</g>
<!-- Node13 -->
<g id="node13" class="node">
<title>Node13</title>
<g id="a_node13"><a xlink:href="grammar_8h.html" target="_top" xlink:title="Implementations for the RNA folding grammar.">
<polygon fill="white" stroke="#666666" points="1204.23,-145.5 1087.23,-145.5 1087.23,-126.5 1204.23,-126.5 1204.23,-145.5"/>
<text text-anchor="middle" x="1145.73" y="-133.5" font-family="Helvetica,sans-Serif" font-size="10.00">ViennaRNA/grammar.h</text>
</a>
</g>
</g>
<!-- Node3&#45;&gt;Node13 -->
<g id="edge40" class="edge">
<title>Node3&#45;&gt;Node13</title>
<path fill="none" stroke="#63b8ff" d="M570.98,-309.23C629.71,-302.64 713.77,-290.99 785.73,-272 909.3,-239.4 1049.12,-177.72 1112.11,-150.5"/>
<polygon fill="#63b8ff" stroke="#63b8ff" points="1113.41,-153.75 1121.22,-146.58 1110.65,-147.32 1113.41,-153.75"/>
</g>
<!-- Node14 -->
<g id="node14" class="node">
<title>Node14</title>
<g id="a_node14"><a xlink:href="structured__domains_8h.html" target="_top" xlink:title="This module provides interfaces that deal with additional structured domains in the folding grammar.">
<polygon fill="white" stroke="#666666" points="143.23,-151 28.23,-151 28.23,-121 143.23,-121 143.23,-151"/>
<text text-anchor="start" x="36.23" y="-139" font-family="Helvetica,sans-Serif" font-size="10.00">ViennaRNA/structured</text>
<text text-anchor="middle" x="85.73" y="-128" font-family="Helvetica,sans-Serif" font-size="10.00">_domains.h</text>
</a>
</g>
</g>
<!-- Node3&#45;&gt;Node14 -->
<g id="edge41" class="edge">
<title>Node3&#45;&gt;Node14</title>
<path fill="none" stroke="#63b8ff" d="M424.34,-313.63C313.02,-308.53 111.97,-296.07 89.73,-272 62.62,-242.66 69.82,-192.57 77.68,-162.35"/>
<polygon fill="#63b8ff" stroke="#63b8ff" points="80.99,-163.5 80.35,-152.92 74.25,-161.59 80.99,-163.5"/>
</g>
<!-- Node15 -->
<g id="node15" class="node">
<title>Node15</title>
<g id="a_node15"><a xlink:href="unstructured__domains_8h.html" target="_top" xlink:title="Functions to modify unstructured domains, e.g. to incorporate ligands binding to unpaired stretches.">
<polygon fill="white" stroke="#666666" points="560.23,-151 435.23,-151 435.23,-121 560.23,-121 560.23,-151"/>
<text text-anchor="start" x="443.23" y="-139" font-family="Helvetica,sans-Serif" font-size="10.00">ViennaRNA/unstructured</text>
<text text-anchor="middle" x="497.73" y="-128" font-family="Helvetica,sans-Serif" font-size="10.00">_domains.h</text>
</a>
</g>
</g>
<!-- Node3&#45;&gt;Node15 -->
<g id="edge42" class="edge">
<title>Node3&#45;&gt;Node15</title>
<path fill="none" stroke="#63b8ff" d="M494.62,-307.84C490.47,-281.88 489.87,-203.97 492.81,-162.94"/>
<polygon fill="#63b8ff" stroke="#63b8ff" points="496.3,-163.26 493.71,-152.99 489.33,-162.64 496.3,-163.26"/>
</g>
<!-- Node18 -->
<g id="node18" class="node">
<title>Node18</title>
<g id="a_node18"><a xlink:href="sequence_8h.html" target="_top" xlink:title="Functions and data structures related to sequence representations ,.">
<polygon fill="white" stroke="#666666" points="220.73,-272 98.73,-272 98.73,-253 220.73,-253 220.73,-272"/>
<text text-anchor="middle" x="159.73" y="-260" font-family="Helvetica,sans-Serif" font-size="10.00">ViennaRNA/sequence.h</text>
</a>
</g>
</g>
<!-- Node3&#45;&gt;Node18 -->
<g id="edge35" class="edge">
<title>Node3&#45;&gt;Node18</title>
<path fill="none" stroke="#63b8ff" d="M435.18,-307.51C374.78,-298.34 283.89,-284.11 223.19,-274.32"/>
<polygon fill="#63b8ff" stroke="#63b8ff" points="223.77,-270.87 213.34,-272.73 222.66,-277.78 223.77,-270.87"/>
</g>
<!-- Node19 -->
<g id="node19" class="node">
<title>Node19</title>
<g id="a_node19"><a xlink:href="zscore_8h_source.html" target="_top" xlink:title=" ">
<polygon fill="white" stroke="#666666" points="348.23,-272 239.23,-272 239.23,-253 348.23,-253 348.23,-272"/>
<text text-anchor="middle" x="293.73" y="-260" font-family="Helvetica,sans-Serif" font-size="10.00">ViennaRNA/zscore.h</text>
</a>
</g>
</g>
<!-- Node3&#45;&gt;Node19 -->
<g id="edge43" class="edge">
<title>Node3&#45;&gt;Node19</title>
<path fill="none" stroke="#63b8ff" d="M463.12,-307.51C429.02,-298.65 376.74,-285.07 339.28,-275.33"/>
<polygon fill="#63b8ff" stroke="#63b8ff" points="340.19,-271.95 329.63,-272.83 338.43,-278.73 340.19,-271.95"/>
</g>
<!-- Node5&#45;&gt;Node3 -->
<g id="edge33" class="edge">
<title>Node5&#45;&gt;Node3</title>
<path fill="none" stroke="#63b8ff" d="M622.85,-272.36C601.29,-280.97 565.75,-294.13 537.97,-303.84"/>
<polygon fill="#63b8ff" stroke="#63b8ff" points="537.11,-300.44 528.8,-307.01 539.4,-307.05 537.11,-300.44"/>
</g>
<!-- Node5&#45;&gt;Node4 -->
<g id="edge34" class="edge">
<title>Node5&#45;&gt;Node4</title>
<path fill="none" stroke="#63b8ff" d="M668.63,-252.55C734.18,-230.72 902.36,-174.74 977.94,-149.58"/>
<polygon fill="#63b8ff" stroke="#63b8ff" points="979.01,-152.91 987.39,-146.43 976.8,-146.27 979.01,-152.91"/>
</g>
<!-- Node6 -->
<g id="node6" class="node">
<title>Node6</title>
<g id="a_node6"><a xlink:href="constants_8h.html" target="_top" xlink:title="Energy parameter constants.">
<polygon fill="white" stroke="#666666" points="792.73,-145.5 634.73,-145.5 634.73,-126.5 792.73,-126.5 792.73,-145.5"/>
<text text-anchor="middle" x="713.73" y="-133.5" font-family="Helvetica,sans-Serif" font-size="10.00">ViennaRNA/params/constants.h</text>
</a>
</g>
</g>
<!-- Node5&#45;&gt;Node6 -->
<g id="edge5" class="edge">
<title>Node5&#45;&gt;Node6</title>
<path fill="none" stroke="#63b8ff" d="M649.9,-252.81C657.72,-244.19 669.5,-230.37 677.73,-217 689.8,-197.38 700.18,-173.01 706.65,-156.36"/>
<polygon fill="#63b8ff" stroke="#63b8ff" points="709.85,-157.78 710.1,-147.19 703.3,-155.31 709.85,-157.78"/>
</g>
<!-- Node8 -->
<g id="node8" class="node">
<title>Node8</title>
<g id="a_node8"><a xlink:href="datastructures_2basic_8h.html" target="_top" xlink:title="Various data structures and pre&#45;processor macros.">
<polygon fill="white" stroke="#666666" points="668.73,-217 534.73,-217 534.73,-187 668.73,-187 668.73,-217"/>
<text text-anchor="start" x="542.73" y="-205" font-family="Helvetica,sans-Serif" font-size="10.00">ViennaRNA/datastructures</text>
<text text-anchor="middle" x="601.73" y="-194" font-family="Helvetica,sans-Serif" font-size="10.00">/basic.h</text>
</a>
</g>
</g>
<!-- Node5&#45;&gt;Node8 -->
<g id="edge7" class="edge">
<title>Node5&#45;&gt;Node8</title>
<path fill="none" stroke="#63b8ff" d="M630.87,-252.87C624.72,-246.03 617.39,-236.14 611.47,-226.97"/>
<polygon fill="#63b8ff" stroke="#63b8ff" points="614.46,-225.16 606.29,-218.41 608.47,-228.78 614.46,-225.16"/>
</g>
<!-- Node7 -->
<g id="node7" class="node">
<title>Node7</title>
<g id="a_node7"><a xlink:title=" ">
<polygon fill="#e0e0e0" stroke="#999999" points="737.73,-79.5 689.73,-79.5 689.73,-60.5 737.73,-60.5 737.73,-79.5"/>
<text text-anchor="middle" x="713.73" y="-67.5" font-family="Helvetica,sans-Serif" font-size="10.00">limits.h</text>
</a>
</g>
</g>
<!-- Node6&#45;&gt;Node7 -->
<g id="edge6" class="edge">
<title>Node6&#45;&gt;Node7</title>
<path fill="none" stroke="#63b8ff" d="M713.73,-126.1C713.73,-117.12 713.73,-102.95 713.73,-91.22"/>
<polygon fill="#63b8ff" stroke="#63b8ff" points="717.23,-91.34 713.73,-81.34 710.23,-91.34 717.23,-91.34"/>
</g>
<!-- Node8&#45;&gt;Node3 -->
<g id="edge9" class="edge">
<title>Node8&#45;&gt;Node3</title>
<path fill="none" stroke="#63b8ff" d="M588.5,-217.44C569.32,-238.37 533.88,-277.05 513.41,-299.38"/>
<polygon fill="#63b8ff" stroke="#63b8ff" points="511.09,-296.74 506.91,-306.48 516.25,-301.47 511.09,-296.74"/>
</g>
<!-- Node8&#45;&gt;Node4 -->
<g id="edge10" class="edge">
<title>Node8&#45;&gt;Node4</title>
<path fill="none" stroke="#63b8ff" d="M669.14,-193.07C740.19,-184.33 855.23,-169.09 953.73,-151 958.12,-150.19 962.68,-149.29 967.23,-148.35"/>
<polygon fill="#63b8ff" stroke="#63b8ff" points="967.93,-151.77 976.98,-146.25 966.46,-144.93 967.93,-151.77"/>
</g>
<!-- Node8&#45;&gt;Node5 -->
<g id="edge11" class="edge">
<title>Node8&#45;&gt;Node5</title>
<path fill="none" stroke="#63b8ff" d="M617.25,-217.11C623.54,-224.87 630.33,-234.58 635.37,-242.93"/>
<polygon fill="#63b8ff" stroke="#63b8ff" points="632.2,-244.43 640.06,-251.54 638.35,-241.08 632.2,-244.43"/>
</g>
<!-- Node8&#45;&gt;Node6 -->
<g id="edge8" class="edge">
<title>Node8&#45;&gt;Node6</title>
<path fill="none" stroke="#63b8ff" d="M626.86,-186.64C645.09,-176.22 669.65,-162.19 688.01,-151.7"/>
<polygon fill="#63b8ff" stroke="#63b8ff" points="689.74,-154.74 696.69,-146.74 686.27,-148.66 689.74,-154.74"/>
</g>
<!-- Node8&#45;&gt;Node9 -->
<g id="edge12" class="edge">
<title>Node8&#45;&gt;Node9</title>
<path fill="none" stroke="#63b8ff" d="M658.26,-186.56C706.55,-175.02 775.46,-159.08 823.17,-148.42"/>
<polygon fill="#63b8ff" stroke="#63b8ff" points="823.74,-151.88 832.74,-146.29 822.22,-145.05 823.74,-151.88"/>
</g>
<!-- Node8&#45;&gt;Node10 -->
<g id="edge15" class="edge">
<title>Node8&#45;&gt;Node10</title>
<path fill="none" stroke="#63b8ff" d="M534.42,-191.14C473.48,-182 380.95,-167.64 291.57,-151.47"/>
<polygon fill="#63b8ff" stroke="#63b8ff" points="292.36,-148.06 281.89,-149.71 291.11,-154.95 292.36,-148.06"/>
</g>
<!-- Node8&#45;&gt;Node12 -->
<g id="edge19" class="edge">
<title>Node8&#45;&gt;Node12</title>
<path fill="none" stroke="#63b8ff" d="M540.92,-186.56C503.24,-176.99 455.12,-164.4 417.62,-154.3"/>
<polygon fill="#63b8ff" stroke="#63b8ff" points="418.88,-151.02 408.31,-151.79 417.05,-157.77 418.88,-151.02"/>
</g>
<!-- Node8&#45;&gt;Node13 -->
<g id="edge23" class="edge">
<title>Node8&#45;&gt;Node13</title>
<path fill="none" stroke="#63b8ff" d="M669,-196.03C761.45,-188.73 932.8,-173.47 1077.73,-151 1083.25,-150.14 1088.99,-149.14 1094.7,-148.07"/>
<polygon fill="#63b8ff" stroke="#63b8ff" points="1094.95,-151.59 1104.09,-146.24 1093.61,-144.72 1094.95,-151.59"/>
</g>
<!-- Node8&#45;&gt;Node14 -->
<g id="edge25" class="edge">
<title>Node8&#45;&gt;Node14</title>
<path fill="none" stroke="#63b8ff" d="M534.36,-195.6C448.45,-188.24 295.11,-173.57 154.97,-151.43"/>
<polygon fill="#63b8ff" stroke="#63b8ff" points="155.54,-147.98 145.11,-149.85 154.43,-154.89 155.54,-147.98"/>
</g>
<!-- Node8&#45;&gt;Node15 -->
<g id="edge26" class="edge">
<title>Node8&#45;&gt;Node15</title>
<path fill="none" stroke="#63b8ff" d="M572.65,-186.64C557.64,-178.07 539.53,-167.06 524.82,-157.58"/>
<polygon fill="#63b8ff" stroke="#63b8ff" points="526.81,-154.7 516.52,-152.14 522.97,-160.55 526.81,-154.7"/>
</g>
<!-- Node16 -->
<g id="node16" class="node">
<title>Node16</title>
<g id="a_node16"><a xlink:href="utils_2structures_8h.html" target="_top" xlink:title="Various utility&#45; and helper&#45;functions for secondary structure parsing, converting,...">
<polygon fill="white" stroke="#666666" points="669.73,-79.5 525.73,-79.5 525.73,-60.5 669.73,-60.5 669.73,-79.5"/>
<text text-anchor="middle" x="597.73" y="-67.5" font-family="Helvetica,sans-Serif" font-size="10.00">ViennaRNA/utils/structures.h</text>
</a>
</g>
</g>
<!-- Node8&#45;&gt;Node16 -->
<g id="edge32" class="edge">
<title>Node8&#45;&gt;Node16</title>
<path fill="none" stroke="#63b8ff" d="M596.85,-186.59C593.26,-163.3 591.65,-117.32 593.32,-90.91"/>
<polygon fill="#63b8ff" stroke="#63b8ff" points="596.78,-91.51 594.26,-81.21 589.81,-90.83 596.78,-91.51"/>
</g>
<!-- Node9&#45;&gt;Node3 -->
<g id="edge14" class="edge">
<title>Node9&#45;&gt;Node3</title>
<path fill="none" stroke="#63b8ff" d="M874.44,-146C858.35,-170.58 796.22,-239.19 728.73,-272 683.43,-294.02 627.86,-305.15 582.52,-310.77"/>
<polygon fill="#63b8ff" stroke="#63b8ff" points="582.25,-307.27 572.73,-311.9 583.06,-314.23 582.25,-307.27"/>
</g>
<!-- Node9&#45;&gt;Node8 -->
<g id="edge13" class="edge">
<title>Node9&#45;&gt;Node8</title>
<path fill="none" stroke="#63b8ff" d="M844.13,-145.92C803.55,-155.8 734.21,-171.97 680.03,-184.24"/>
<polygon fill="#63b8ff" stroke="#63b8ff" points="679.52,-180.77 670.53,-186.38 681.06,-187.59 679.52,-180.77"/>
</g>
<!-- Node10&#45;&gt;Node3 -->
<g id="edge16" class="edge">
<title>Node10&#45;&gt;Node3</title>
<path fill="none" stroke="#63b8ff" d="M246.87,-151.42C302.05,-184.73 428.66,-266.75 477.87,-301.04"/>
<polygon fill="#63b8ff" stroke="#63b8ff" points="475.72,-303.81 485.91,-306.72 479.76,-298.09 475.72,-303.81"/>
</g>
<!-- Node11 -->
<g id="node11" class="node">
<title>Node11</title>
<g id="a_node11"><a xlink:href="constraints_2basic_8h.html" target="_top" xlink:title="Functions and data structures for constraining secondary structure predictions and evaluation.">
<polygon fill="white" stroke="#666666" points="280.23,-85 161.23,-85 161.23,-55 280.23,-55 280.23,-85"/>
<text text-anchor="start" x="169.23" y="-73" font-family="Helvetica,sans-Serif" font-size="10.00">ViennaRNA/constraints</text>
<text text-anchor="middle" x="220.73" y="-62" font-family="Helvetica,sans-Serif" font-size="10.00">/basic.h</text>
</a>
</g>
</g>
<!-- Node10&#45;&gt;Node11 -->
<g id="edge17" class="edge">
<title>Node10&#45;&gt;Node11</title>
<path fill="none" stroke="#63b8ff" d="M220.73,-120.8C220.73,-113.67 220.73,-104.82 220.73,-96.56"/>
<polygon fill="#63b8ff" stroke="#63b8ff" points="224.23,-96.68 220.73,-86.68 217.23,-96.68 224.23,-96.68"/>
</g>
<!-- Node11&#45;&gt;Node3 -->
<g id="edge18" class="edge">
<title>Node11&#45;&gt;Node3</title>
<path fill="none" stroke="#63b8ff" d="M160.8,-77.7C107.77,-85.01 36.15,-98.74 18.73,-121 -25.39,-177.37 16.52,-230.35 74.73,-272 127.24,-309.57 305.4,-316.58 413.04,-317.25"/>
<polygon fill="#63b8ff" stroke="#63b8ff" points="412.99,-320.74 423,-317.29 413.02,-313.74 412.99,-320.74"/>
</g>
<!-- Node12&#45;&gt;Node3 -->
<g id="edge21" class="edge">
<title>Node12&#45;&gt;Node3</title>
<path fill="none" stroke="#63b8ff" d="M381.6,-151.36C393.37,-160.98 406.96,-174.18 417.73,-187 448.62,-223.77 479.11,-271.21 492.22,-297.25"/>
<polygon fill="#63b8ff" stroke="#63b8ff" points="488.98,-298.59 496.33,-306.22 495.35,-295.67 488.98,-298.59"/>
</g>
<!-- Node12&#45;&gt;Node8 -->
<g id="edge20" class="edge">
<title>Node12&#45;&gt;Node8</title>
<path fill="none" stroke="#63b8ff" d="M417.47,-151.17C455.2,-160.74 503.74,-173.44 541.55,-183.62"/>
<polygon fill="#63b8ff" stroke="#63b8ff" points="540.39,-186.93 550.96,-186.16 542.22,-180.17 540.39,-186.93"/>
</g>
<!-- Node12&#45;&gt;Node11 -->
<g id="edge22" class="edge">
<title>Node12&#45;&gt;Node11</title>
<path fill="none" stroke="#63b8ff" d="M326.98,-120.64C307.68,-111.62 282.56,-99.89 261.6,-90.09"/>
<polygon fill="#63b8ff" stroke="#63b8ff" points="263.29,-87.02 252.74,-85.96 260.32,-93.36 263.29,-87.02"/>
</g>
<!-- Node13&#45;&gt;Node3 -->
<g id="edge24" class="edge">
<title>Node13&#45;&gt;Node3</title>
<path fill="none" stroke="#63b8ff" d="M1131.02,-145.98C1083.97,-170.21 934.72,-237.44 803.73,-272 730.41,-291.34 644.53,-303.07 582.38,-309.59"/>
<polygon fill="#63b8ff" stroke="#63b8ff" points="582.16,-306.1 572.57,-310.6 582.87,-313.06 582.16,-306.1"/>
</g>
<!-- Node15&#45;&gt;Node3 -->
<g id="edge28" class="edge">
<title>Node15&#45;&gt;Node3</title>
<path fill="none" stroke="#63b8ff" d="M501.62,-151.48C505.25,-183.52 505.42,-260.44 502.14,-296.81"/>
<polygon fill="#63b8ff" stroke="#63b8ff" points="498.72,-296 501.02,-306.34 505.67,-296.82 498.72,-296"/>
</g>
<!-- Node15&#45;&gt;Node8 -->
<g id="edge27" class="edge">
<title>Node15&#45;&gt;Node8</title>
<path fill="none" stroke="#63b8ff" d="M526.85,-151.39C541.91,-159.98 560.07,-171.03 574.8,-180.52"/>
<polygon fill="#63b8ff" stroke="#63b8ff" points="572.82,-183.41 583.1,-185.97 576.66,-177.56 572.82,-183.41"/>
</g>
<!-- Node15&#45;&gt;Node16 -->
<g id="edge29" class="edge">
<title>Node15&#45;&gt;Node16</title>
<path fill="none" stroke="#63b8ff" d="M519.92,-120.8C536.12,-110.43 558.04,-96.4 574.48,-85.88"/>
<polygon fill="#63b8ff" stroke="#63b8ff" points="576.1,-89 582.64,-80.66 572.33,-83.1 576.1,-89"/>
</g>
<!-- Node16&#45;&gt;Node8 -->
<g id="edge31" class="edge">
<title>Node16&#45;&gt;Node8</title>
<path fill="none" stroke="#63b8ff" d="M601.59,-79.71C605.6,-98.92 607.68,-145.59 606.45,-175.12"/>
<polygon fill="#63b8ff" stroke="#63b8ff" points="602.96,-174.88 605.82,-185.08 609.95,-175.32 602.96,-174.88"/>
</g>
<!-- Node16&#45;&gt;Node17 -->
<g id="edge30" class="edge">
<title>Node16&#45;&gt;Node17</title>
<path fill="none" stroke="#63b8ff" d="M646.22,-60.05C710.83,-48.13 823.55,-27.33 880.18,-16.88"/>
<polygon fill="#63b8ff" stroke="#63b8ff" points="880.69,-20.34 889.89,-15.08 879.42,-13.46 880.69,-20.34"/>
</g>
<!-- Node18&#45;&gt;Node3 -->
<g id="edge36" class="edge">
<title>Node18&#45;&gt;Node3</title>
<path fill="none" stroke="#63b8ff" d="M221.12,-272.31C281.61,-281.49 373.48,-295.88 434.58,-305.73"/>
<polygon fill="#63b8ff" stroke="#63b8ff" points="433.69,-309.13 444.12,-307.27 434.8,-302.22 433.69,-309.13"/>
</g>
</g>
</svg>
