<?xml version="1.0" encoding="UTF-8" standalone="no"?>
<!DOCTYPE svg PUBLIC "-//W3C//DTD SVG 1.1//EN"
 "http://www.w3.org/Graphics/SVG/1.1/DTD/svg11.dtd">
<!-- Generated by graphviz version 7.1.0 (0)
 -->
<!-- Title: ViennaRNA/alphabet.h Pages: 1 -->
<svg width="1229pt" height="390pt"
 viewBox="0.00 0.00 1228.50 390.00" xmlns="http://www.w3.org/2000/svg" xmlns:xlink="http://www.w3.org/1999/xlink">
<g id="graph0" class="graph" transform="scale(1 1) rotate(0) translate(4 386)">
<title>ViennaRNA/alphabet.h</title>
<!-- Node1 -->
<g id="node1" class="node">
<title>Node1</title>
<g id="a_node1"><a xlink:title="Functions to process, convert, and generally handle different nucleotide and/or base pair alphabets.">
<polygon fill="#999999" stroke="#666666" points="414,-382 298,-382 298,-363 414,-363 414,-382"/>
<text text-anchor="middle" x="356" y="-370" font-family="Helvetica,sans-Serif" font-size="10.00">ViennaRNA/alphabet.h</text>
</a>
</g>
</g>
<!-- Node2 -->
<g id="node2" class="node">
<title>Node2</title>
<g id="a_node2"><a xlink:href="fold__compound_8h.html" target="_top" xlink:title="The Basic Fold Compound API.">
<polygon fill="white" stroke="#666666" points="781,-327 635,-327 635,-308 781,-308 781,-327"/>
<text text-anchor="middle" x="708" y="-315" font-family="Helvetica,sans-Serif" font-size="10.00">ViennaRNA/fold_compound.h</text>
</a>
</g>
</g>
<!-- Node1&#45;&gt;Node2 -->
<g id="edge1" class="edge">
<title>Node1&#45;&gt;Node2</title>
<path fill="none" stroke="#63b8ff" d="M414.13,-362.75C475.32,-353.53 571.69,-339.02 637.26,-329.15"/>
<polygon fill="#63b8ff" stroke="#63b8ff" points="637.45,-332.66 646.82,-327.71 636.41,-325.74 637.45,-332.66"/>
</g>
<!-- Node3 -->
<g id="node3" class="node">
<title>Node3</title>
<g id="a_node3"><a xlink:href="model_8h.html" target="_top" xlink:title="The model details data structure and its corresponding modifiers.">
<polygon fill="white" stroke="#666666" points="106,-145.5 0,-145.5 0,-126.5 106,-126.5 106,-145.5"/>
<text text-anchor="middle" x="53" y="-133.5" font-family="Helvetica,sans-Serif" font-size="10.00">ViennaRNA/model.h</text>
</a>
</g>
</g>
<!-- Node1&#45;&gt;Node3 -->
<g id="edge43" class="edge">
<title>Node1&#45;&gt;Node3</title>
<path fill="none" stroke="#63b8ff" d="M344.49,-362.59C299.12,-327.48 132.25,-198.33 73.57,-152.92"/>
<polygon fill="#63b8ff" stroke="#63b8ff" points="75.77,-150.19 65.72,-146.84 71.48,-155.73 75.77,-150.19"/>
</g>
<!-- Node2&#45;&gt;Node3 -->
<g id="edge2" class="edge">
<title>Node2&#45;&gt;Node3</title>
<path fill="none" stroke="#63b8ff" d="M634.77,-311.84C568,-306.33 467.09,-294.87 382,-272 265.73,-240.76 135.7,-178.78 80.33,-151.02"/>
<polygon fill="#63b8ff" stroke="#63b8ff" points="82.14,-148.01 71.63,-146.63 78.98,-154.26 82.14,-148.01"/>
</g>
<!-- Node4 -->
<g id="node4" class="node">
<title>Node4</title>
<g id="a_node4"><a xlink:href="params_2basic_8h.html" target="_top" xlink:title="Functions to deal with sets of energy parameters.">
<polygon fill="white" stroke="#666666" points="577,-272 439,-272 439,-253 577,-253 577,-272"/>
<text text-anchor="middle" x="508" y="-260" font-family="Helvetica,sans-Serif" font-size="10.00">ViennaRNA/params/basic.h</text>
</a>
</g>
</g>
<!-- Node2&#45;&gt;Node4 -->
<g id="edge3" class="edge">
<title>Node2&#45;&gt;Node4</title>
<path fill="none" stroke="#63b8ff" d="M668.86,-307.51C633.72,-298.69 582.58,-285.18 547.38,-275.46"/>
<polygon fill="#63b8ff" stroke="#63b8ff" points="548.58,-272.16 538.01,-272.85 546.71,-278.9 548.58,-272.16"/>
</g>
<!-- Node8 -->
<g id="node8" class="node">
<title>Node8</title>
<g id="a_node8"><a xlink:href="dp__matrices_8h.html" target="_top" xlink:title="Functions to deal with standard dynamic programming (DP) matrices.">
<polygon fill="white" stroke="#666666" points="257.5,-145.5 124.5,-145.5 124.5,-126.5 257.5,-126.5 257.5,-145.5"/>
<text text-anchor="middle" x="191" y="-133.5" font-family="Helvetica,sans-Serif" font-size="10.00">ViennaRNA/dp_matrices.h</text>
</a>
</g>
</g>
<!-- Node2&#45;&gt;Node8 -->
<g id="edge36" class="edge">
<title>Node2&#45;&gt;Node8</title>
<path fill="none" stroke="#63b8ff" d="M634.66,-312.53C575.43,-307.54 490.9,-296.45 421,-272 335.06,-241.94 244.29,-181.57 207.5,-152.86"/>
<polygon fill="#63b8ff" stroke="#63b8ff" points="209.75,-150.18 199.78,-146.61 205.35,-155.62 209.75,-150.18"/>
</g>
<!-- Node9 -->
<g id="node9" class="node">
<title>Node9</title>
<g id="a_node9"><a xlink:href="hard_8h.html" target="_top" xlink:title="Functions and data structures for handling of secondary structure hard constraints.">
<polygon fill="white" stroke="#666666" points="1220.5,-151 1101.5,-151 1101.5,-121 1220.5,-121 1220.5,-151"/>
<text text-anchor="start" x="1109.5" y="-139" font-family="Helvetica,sans-Serif" font-size="10.00">ViennaRNA/constraints</text>
<text text-anchor="middle" x="1161" y="-128" font-family="Helvetica,sans-Serif" font-size="10.00">/hard.h</text>
</a>
</g>
</g>
<!-- Node2&#45;&gt;Node9 -->
<g id="edge37" class="edge">
<title>Node2&#45;&gt;Node9</title>
<path fill="none" stroke="#63b8ff" d="M781.19,-313.34C894.54,-307.93 1101.93,-295.16 1127,-272 1156.86,-244.43 1158.03,-193.7 1158.15,-162.89"/>
<polygon fill="#63b8ff" stroke="#63b8ff" points="1161.65,-162.93 1158.2,-152.91 1154.65,-162.89 1161.65,-162.93"/>
</g>
<!-- Node11 -->
<g id="node11" class="node">
<title>Node11</title>
<g id="a_node11"><a xlink:href="soft_8h.html" target="_top" xlink:title="Functions and data structures for secondary structure soft constraints.">
<polygon fill="white" stroke="#666666" points="770.5,-151 651.5,-151 651.5,-121 770.5,-121 770.5,-151"/>
<text text-anchor="start" x="659.5" y="-139" font-family="Helvetica,sans-Serif" font-size="10.00">ViennaRNA/constraints</text>
<text text-anchor="middle" x="711" y="-128" font-family="Helvetica,sans-Serif" font-size="10.00">/soft.h</text>
</a>
</g>
</g>
<!-- Node2&#45;&gt;Node11 -->
<g id="edge38" class="edge">
<title>Node2&#45;&gt;Node11</title>
<path fill="none" stroke="#63b8ff" d="M705.04,-307.84C701.31,-281.83 702.02,-203.64 705.67,-162.67"/>
<polygon fill="#63b8ff" stroke="#63b8ff" points="709.13,-163.3 706.71,-152.99 702.17,-162.56 709.13,-163.3"/>
</g>
<!-- Node12 -->
<g id="node12" class="node">
<title>Node12</title>
<g id="a_node12"><a xlink:href="grammar_8h.html" target="_top" xlink:title="Implementations for the RNA folding grammar.">
<polygon fill="white" stroke="#666666" points="905.5,-145.5 788.5,-145.5 788.5,-126.5 905.5,-126.5 905.5,-145.5"/>
<text text-anchor="middle" x="847" y="-133.5" font-family="Helvetica,sans-Serif" font-size="10.00">ViennaRNA/grammar.h</text>
</a>
</g>
</g>
<!-- Node2&#45;&gt;Node12 -->
<g id="edge39" class="edge">
<title>Node2&#45;&gt;Node12</title>
<path fill="none" stroke="#63b8ff" d="M708.8,-307.62C717.37,-286.06 752.59,-229.58 788,-187 798.06,-174.91 810.57,-162.39 821.69,-152.91"/>
<polygon fill="#63b8ff" stroke="#63b8ff" points="823.84,-155.68 829.44,-146.68 819.46,-150.22 823.84,-155.68"/>
</g>
<!-- Node13 -->
<g id="node13" class="node">
<title>Node13</title>
<g id="a_node13"><a xlink:href="structured__domains_8h.html" target="_top" xlink:title="This module provides interfaces that deal with additional structured domains in the folding grammar.">
<polygon fill="white" stroke="#666666" points="1038.5,-151 923.5,-151 923.5,-121 1038.5,-121 1038.5,-151"/>
<text text-anchor="start" x="931.5" y="-139" font-family="Helvetica,sans-Serif" font-size="10.00">ViennaRNA/structured</text>
<text text-anchor="middle" x="981" y="-128" font-family="Helvetica,sans-Serif" font-size="10.00">_domains.h</text>
</a>
</g>
</g>
<!-- Node2&#45;&gt;Node13 -->
<g id="edge40" class="edge">
<title>Node2&#45;&gt;Node13</title>
<path fill="none" stroke="#63b8ff" d="M721.54,-307.6C763.22,-280.19 890.39,-196.58 949.8,-157.51"/>
<polygon fill="#63b8ff" stroke="#63b8ff" points="951.37,-160.67 957.8,-152.25 947.52,-154.82 951.37,-160.67"/>
</g>
<!-- Node14 -->
<g id="node14" class="node">
<title>Node14</title>
<g id="a_node14"><a xlink:href="unstructured__domains_8h.html" target="_top" xlink:title="Functions to modify unstructured domains, e.g. to incorporate ligands binding to unpaired stretches.">
<polygon fill="white" stroke="#666666" points="633.5,-151 508.5,-151 508.5,-121 633.5,-121 633.5,-151"/>
<text text-anchor="start" x="516.5" y="-139" font-family="Helvetica,sans-Serif" font-size="10.00">ViennaRNA/unstructured</text>
<text text-anchor="middle" x="571" y="-128" font-family="Helvetica,sans-Serif" font-size="10.00">_domains.h</text>
</a>
</g>
</g>
<!-- Node2&#45;&gt;Node14 -->
<g id="edge41" class="edge">
<title>Node2&#45;&gt;Node14</title>
<path fill="none" stroke="#63b8ff" d="M698.28,-307.84C673.91,-281.44 612.17,-201.27 584.44,-160.85"/>
<polygon fill="#63b8ff" stroke="#63b8ff" points="587.48,-159.1 579.01,-152.74 581.67,-163 587.48,-159.1"/>
</g>
<!-- Node17 -->
<g id="node17" class="node">
<title>Node17</title>
<g id="a_node17"><a xlink:href="sequence_8h.html" target="_top" xlink:title="Functions and data structures related to sequence representations ,.">
<polygon fill="white" stroke="#666666" points="999,-272 877,-272 877,-253 999,-253 999,-272"/>
<text text-anchor="middle" x="938" y="-260" font-family="Helvetica,sans-Serif" font-size="10.00">ViennaRNA/sequence.h</text>
</a>
</g>
</g>
<!-- Node2&#45;&gt;Node17 -->
<g id="edge34" class="edge">
<title>Node2&#45;&gt;Node17</title>
<path fill="none" stroke="#63b8ff" d="M741.8,-307.51C778.94,-298.52 838.95,-284.65 882.89,-274.9"/>
<polygon fill="#63b8ff" stroke="#63b8ff" points="883.48,-278.35 892.49,-272.77 881.97,-271.51 883.48,-278.35"/>
</g>
<!-- Node18 -->
<g id="node18" class="node">
<title>Node18</title>
<g id="a_node18"><a xlink:href="zscore_8h_source.html" target="_top" xlink:title=" ">
<polygon fill="white" stroke="#666666" points="1126.5,-272 1017.5,-272 1017.5,-253 1126.5,-253 1126.5,-272"/>
<text text-anchor="middle" x="1072" y="-260" font-family="Helvetica,sans-Serif" font-size="10.00">ViennaRNA/zscore.h</text>
</a>
</g>
</g>
<!-- Node2&#45;&gt;Node18 -->
<g id="edge42" class="edge">
<title>Node2&#45;&gt;Node18</title>
<path fill="none" stroke="#63b8ff" d="M769.75,-307.51C835.32,-297.96 938.6,-282.92 1005.82,-273.14"/>
<polygon fill="#63b8ff" stroke="#63b8ff" points="1006.22,-276.62 1015.61,-271.71 1005.21,-269.69 1006.22,-276.62"/>
</g>
<!-- Node4&#45;&gt;Node2 -->
<g id="edge32" class="edge">
<title>Node4&#45;&gt;Node2</title>
<path fill="none" stroke="#63b8ff" d="M546.97,-272.45C582.05,-281.25 633.19,-294.76 668.44,-304.49"/>
<polygon fill="#63b8ff" stroke="#63b8ff" points="667.26,-307.8 677.83,-307.1 669.14,-301.05 667.26,-307.8"/>
</g>
<!-- Node4&#45;&gt;Node3 -->
<g id="edge33" class="edge">
<title>Node4&#45;&gt;Node3</title>
<path fill="none" stroke="#63b8ff" d="M475.28,-252.55C394.87,-230.54 187.56,-173.82 96.73,-148.96"/>
<polygon fill="#63b8ff" stroke="#63b8ff" points="97.76,-145.62 87.19,-146.36 95.91,-152.37 97.76,-145.62"/>
</g>
<!-- Node5 -->
<g id="node5" class="node">
<title>Node5</title>
<g id="a_node5"><a xlink:href="constants_8h.html" target="_top" xlink:title="Energy parameter constants.">
<polygon fill="white" stroke="#666666" points="434,-145.5 276,-145.5 276,-126.5 434,-126.5 434,-145.5"/>
<text text-anchor="middle" x="355" y="-133.5" font-family="Helvetica,sans-Serif" font-size="10.00">ViennaRNA/params/constants.h</text>
</a>
</g>
</g>
<!-- Node4&#45;&gt;Node5 -->
<g id="edge4" class="edge">
<title>Node4&#45;&gt;Node5</title>
<path fill="none" stroke="#63b8ff" d="M496.8,-252.69C485.46,-243.76 467.44,-229.5 452,-217 424.88,-195.05 393.81,-169.32 374.3,-153.09"/>
<polygon fill="#63b8ff" stroke="#63b8ff" points="376.8,-150.62 366.88,-146.91 372.32,-156 376.8,-150.62"/>
</g>
<!-- Node7 -->
<g id="node7" class="node">
<title>Node7</title>
<g id="a_node7"><a xlink:href="datastructures_2basic_8h.html" target="_top" xlink:title="Various data structures and pre&#45;processor macros.">
<polygon fill="white" stroke="#666666" points="595,-217 461,-217 461,-187 595,-187 595,-217"/>
<text text-anchor="start" x="469" y="-205" font-family="Helvetica,sans-Serif" font-size="10.00">ViennaRNA/datastructures</text>
<text text-anchor="middle" x="528" y="-194" font-family="Helvetica,sans-Serif" font-size="10.00">/basic.h</text>
</a>
</g>
</g>
<!-- Node4&#45;&gt;Node7 -->
<g id="edge6" class="edge">
<title>Node4&#45;&gt;Node7</title>
<path fill="none" stroke="#63b8ff" d="M506,-252.87C506.84,-246.18 509.55,-236.57 512.93,-227.56"/>
<polygon fill="#63b8ff" stroke="#63b8ff" points="516.09,-229.09 516.72,-218.51 509.63,-226.38 516.09,-229.09"/>
</g>
<!-- Node6 -->
<g id="node6" class="node">
<title>Node6</title>
<g id="a_node6"><a xlink:title=" ">
<polygon fill="#e0e0e0" stroke="#999999" points="379,-79.5 331,-79.5 331,-60.5 379,-60.5 379,-79.5"/>
<text text-anchor="middle" x="355" y="-67.5" font-family="Helvetica,sans-Serif" font-size="10.00">limits.h</text>
</a>
</g>
</g>
<!-- Node5&#45;&gt;Node6 -->
<g id="edge5" class="edge">
<title>Node5&#45;&gt;Node6</title>
<path fill="none" stroke="#63b8ff" d="M355,-126.1C355,-117.12 355,-102.95 355,-91.22"/>
<polygon fill="#63b8ff" stroke="#63b8ff" points="358.5,-91.34 355,-81.34 351.5,-91.34 358.5,-91.34"/>
</g>
<!-- Node7&#45;&gt;Node2 -->
<g id="edge8" class="edge">
<title>Node7&#45;&gt;Node2</title>
<path fill="none" stroke="#63b8ff" d="M547.78,-217.26C567.9,-231.59 600.14,-254.06 629,-272 646.05,-282.6 665.73,-293.69 681.18,-302.14"/>
<polygon fill="#63b8ff" stroke="#63b8ff" points="679.32,-305.12 689.78,-306.81 682.66,-298.97 679.32,-305.12"/>
</g>
<!-- Node7&#45;&gt;Node3 -->
<g id="edge9" class="edge">
<title>Node7&#45;&gt;Node3</title>
<path fill="none" stroke="#63b8ff" d="M460.81,-194.98C378.83,-187.15 236.16,-171.96 115,-151 110.41,-150.21 105.65,-149.29 100.9,-148.32"/>
<polygon fill="#63b8ff" stroke="#63b8ff" points="101.91,-144.96 91.4,-146.3 100.45,-151.81 101.91,-144.96"/>
</g>
<!-- Node7&#45;&gt;Node4 -->
<g id="edge10" class="edge">
<title>Node7&#45;&gt;Node4</title>
<path fill="none" stroke="#63b8ff" d="M529.05,-217.11C527.4,-224.78 524.29,-234.36 520.8,-242.65"/>
<polygon fill="#63b8ff" stroke="#63b8ff" points="517.72,-240.97 516.56,-251.5 524.04,-244 517.72,-240.97"/>
</g>
<!-- Node7&#45;&gt;Node5 -->
<g id="edge7" class="edge">
<title>Node7&#45;&gt;Node5</title>
<path fill="none" stroke="#63b8ff" d="M489.18,-186.64C459.45,-175.64 418.8,-160.6 390.05,-149.97"/>
<polygon fill="#63b8ff" stroke="#63b8ff" points="391.3,-146.7 380.71,-146.51 388.87,-153.26 391.3,-146.7"/>
</g>
<!-- Node7&#45;&gt;Node8 -->
<g id="edge11" class="edge">
<title>Node7&#45;&gt;Node8</title>
<path fill="none" stroke="#63b8ff" d="M460.82,-189.26C397.31,-177.56 303.35,-159.71 244.67,-148.19"/>
<polygon fill="#63b8ff" stroke="#63b8ff" points="245.4,-144.77 234.91,-146.27 244.05,-151.64 245.4,-144.77"/>
</g>
<!-- Node7&#45;&gt;Node9 -->
<g id="edge14" class="edge">
<title>Node7&#45;&gt;Node9</title>
<path fill="none" stroke="#63b8ff" d="M595.37,-195.12C694.57,-186.32 885.73,-168.85 1048,-151 1061.64,-149.5 1076.2,-147.78 1090.17,-146.08"/>
<polygon fill="#63b8ff" stroke="#63b8ff" points="1090.22,-149.6 1099.72,-144.9 1089.36,-142.65 1090.22,-149.6"/>
</g>
<!-- Node7&#45;&gt;Node11 -->
<g id="edge18" class="edge">
<title>Node7&#45;&gt;Node11</title>
<path fill="none" stroke="#63b8ff" d="M563.33,-186.64C588.88,-177.28 623.86,-165 653.4,-155"/>
<polygon fill="#63b8ff" stroke="#63b8ff" points="654.21,-158.42 662.57,-151.91 651.98,-151.78 654.21,-158.42"/>
</g>
<!-- Node7&#45;&gt;Node12 -->
<g id="edge22" class="edge">
<title>Node7&#45;&gt;Node12</title>
<path fill="none" stroke="#63b8ff" d="M595.42,-187.82C646.19,-177.84 717.5,-163.73 780,-151 784.33,-150.12 788.82,-149.2 793.32,-148.27"/>
<polygon fill="#63b8ff" stroke="#63b8ff" points="793.92,-151.72 803,-146.26 792.5,-144.86 793.92,-151.72"/>
</g>
<!-- Node7&#45;&gt;Node13 -->
<g id="edge24" class="edge">
<title>Node7&#45;&gt;Node13</title>
<path fill="none" stroke="#63b8ff" d="M595.36,-193.96C670.35,-185.75 795.35,-170.96 911.86,-151.46"/>
<polygon fill="#63b8ff" stroke="#63b8ff" points="912.33,-154.93 921.61,-149.81 911.17,-148.03 912.33,-154.93"/>
</g>
<!-- Node7&#45;&gt;Node14 -->
<g id="edge25" class="edge">
<title>Node7&#45;&gt;Node14</title>
<path fill="none" stroke="#63b8ff" d="M531.82,-186.8C536.05,-179.01 542.4,-169.16 548.84,-160.28"/>
<polygon fill="#63b8ff" stroke="#63b8ff" points="551.59,-162.45 554.85,-152.37 546.01,-158.21 551.59,-162.45"/>
</g>
<!-- Node15 -->
<g id="node15" class="node">
<title>Node15</title>
<g id="a_node15"><a xlink:href="utils_2structures_8h.html" target="_top" xlink:title="Various utility&#45; and helper&#45;functions for secondary structure parsing, converting,...">
<polygon fill="white" stroke="#666666" points="543,-79.5 399,-79.5 399,-60.5 543,-60.5 543,-79.5"/>
<text text-anchor="middle" x="471" y="-67.5" font-family="Helvetica,sans-Serif" font-size="10.00">ViennaRNA/utils/structures.h</text>
</a>
</g>
</g>
<!-- Node7&#45;&gt;Node15 -->
<g id="edge31" class="edge">
<title>Node7&#45;&gt;Node15</title>
<path fill="none" stroke="#63b8ff" d="M510.97,-186.51C503.53,-176.74 495.7,-163.4 490,-151 480.79,-130.97 472.77,-106.99 469.5,-90.54"/>
<polygon fill="#63b8ff" stroke="#63b8ff" points="473.04,-90.54 468.2,-81.11 466.1,-91.5 473.04,-90.54"/>
</g>
<!-- Node8&#45;&gt;Node2 -->
<g id="edge13" class="edge">
<title>Node8&#45;&gt;Node2</title>
<path fill="none" stroke="#63b8ff" d="M207.08,-145.83C245.66,-170.28 345.21,-239.2 439,-272 498.87,-292.94 569.48,-304.09 623.38,-309.99"/>
<polygon fill="#63b8ff" stroke="#63b8ff" points="622.8,-313.44 633.11,-311.01 623.54,-306.48 622.8,-313.44"/>
</g>
<!-- Node8&#45;&gt;Node7 -->
<g id="edge12" class="edge">
<title>Node8&#45;&gt;Node7</title>
<path fill="none" stroke="#63b8ff" d="M243.16,-145.98C298.33,-156.06 385.87,-172.62 449.39,-184.94"/>
<polygon fill="#63b8ff" stroke="#63b8ff" points="448.58,-188.35 459.07,-186.82 449.92,-181.48 448.58,-188.35"/>
</g>
<!-- Node9&#45;&gt;Node2 -->
<g id="edge15" class="edge">
<title>Node9&#45;&gt;Node2</title>
<path fill="none" stroke="#63b8ff" d="M1168.37,-151.4C1175.81,-179.28 1178.97,-240.63 1145,-272 1119.91,-295.17 912.31,-307.94 792.44,-313.35"/>
<polygon fill="#63b8ff" stroke="#63b8ff" points="792.47,-309.85 782.63,-313.79 792.78,-316.84 792.47,-309.85"/>
</g>
<!-- Node10 -->
<g id="node10" class="node">
<title>Node10</title>
<g id="a_node10"><a xlink:href="constraints_2basic_8h.html" target="_top" xlink:title="Functions and data structures for constraining secondary structure predictions and evaluation.">
<polygon fill="white" stroke="#666666" points="1126.5,-85 1007.5,-85 1007.5,-55 1126.5,-55 1126.5,-85"/>
<text text-anchor="start" x="1015.5" y="-73" font-family="Helvetica,sans-Serif" font-size="10.00">ViennaRNA/constraints</text>
<text text-anchor="middle" x="1067" y="-62" font-family="Helvetica,sans-Serif" font-size="10.00">/basic.h</text>
</a>
</g>
</g>
<!-- Node9&#45;&gt;Node10 -->
<g id="edge16" class="edge">
<title>Node9&#45;&gt;Node10</title>
<path fill="none" stroke="#63b8ff" d="M1140.14,-120.8C1127.57,-112.24 1111.34,-101.19 1097.37,-91.68"/>
<polygon fill="#63b8ff" stroke="#63b8ff" points="1099.62,-88.97 1089.38,-86.24 1095.68,-94.76 1099.62,-88.97"/>
</g>
<!-- Node10&#45;&gt;Node2 -->
<g id="edge17" class="edge">
<title>Node10&#45;&gt;Node2</title>
<path fill="none" stroke="#63b8ff" d="M1067.13,-85.28C1066.57,-102.62 1063.19,-131.89 1048,-151 1026.93,-177.5 819.02,-268.76 739.09,-303.2"/>
<polygon fill="#63b8ff" stroke="#63b8ff" points="737.89,-299.91 730.08,-307.08 740.65,-306.34 737.89,-299.91"/>
</g>
<!-- Node11&#45;&gt;Node2 -->
<g id="edge20" class="edge">
<title>Node11&#45;&gt;Node2</title>
<path fill="none" stroke="#63b8ff" d="M714.65,-151.48C717.74,-183.52 716.63,-260.44 712.74,-296.81"/>
<polygon fill="#63b8ff" stroke="#63b8ff" points="709.33,-295.96 711.46,-306.34 716.26,-296.9 709.33,-295.96"/>
</g>
<!-- Node11&#45;&gt;Node7 -->
<g id="edge19" class="edge">
<title>Node11&#45;&gt;Node7</title>
<path fill="none" stroke="#63b8ff" d="M675.5,-151.43C649.91,-160.79 614.92,-173.07 585.41,-183.07"/>
<polygon fill="#63b8ff" stroke="#63b8ff" points="584.6,-179.65 576.24,-186.15 586.84,-186.28 584.6,-179.65"/>
</g>
<!-- Node11&#45;&gt;Node10 -->
<g id="edge21" class="edge">
<title>Node11&#45;&gt;Node10</title>
<path fill="none" stroke="#63b8ff" d="M770.82,-122.76C773.92,-122.16 777,-121.57 780,-121 853.5,-107.14 937.86,-92.61 996.01,-82.81"/>
<polygon fill="#63b8ff" stroke="#63b8ff" points="996.5,-86.27 1005.78,-81.16 995.34,-79.37 996.5,-86.27"/>
</g>
<!-- Node12&#45;&gt;Node2 -->
<g id="edge23" class="edge">
<title>Node12&#45;&gt;Node2</title>
<path fill="none" stroke="#63b8ff" d="M843.89,-145.73C835.77,-155.35 818.87,-171.52 806,-187 774.74,-224.59 743.63,-273.01 724.69,-298.68"/>
<polygon fill="#63b8ff" stroke="#63b8ff" points="722.06,-296.36 718.75,-306.42 727.61,-300.62 722.06,-296.36"/>
</g>
<!-- Node14&#45;&gt;Node2 -->
<g id="edge27" class="edge">
<title>Node14&#45;&gt;Node2</title>
<path fill="none" stroke="#63b8ff" d="M585.94,-151.48C614.39,-183.94 674.45,-262.46 698.33,-298.22"/>
<polygon fill="#63b8ff" stroke="#63b8ff" points="695.34,-300.04 703.68,-306.57 701.23,-296.26 695.34,-300.04"/>
</g>
<!-- Node14&#45;&gt;Node7 -->
<g id="edge26" class="edge">
<title>Node14&#45;&gt;Node7</title>
<path fill="none" stroke="#63b8ff" d="M567.2,-151.16C562.98,-158.95 556.63,-168.79 550.19,-177.68"/>
<polygon fill="#63b8ff" stroke="#63b8ff" points="547.44,-175.51 544.18,-185.59 553.02,-179.75 547.44,-175.51"/>
</g>
<!-- Node14&#45;&gt;Node15 -->
<g id="edge28" class="edge">
<title>Node14&#45;&gt;Node15</title>
<path fill="none" stroke="#63b8ff" d="M548.81,-120.8C532.61,-110.43 510.69,-96.4 494.25,-85.88"/>
<polygon fill="#63b8ff" stroke="#63b8ff" points="496.4,-83.1 486.09,-80.66 492.63,-89 496.4,-83.1"/>
</g>
<!-- Node15&#45;&gt;Node7 -->
<g id="edge30" class="edge">
<title>Node15&#45;&gt;Node7</title>
<path fill="none" stroke="#63b8ff" d="M478.87,-79.62C486.76,-94.5 496.44,-125.87 508,-151 511.92,-159.52 516.85,-168.49 521.08,-176.44"/>
<polygon fill="#63b8ff" stroke="#63b8ff" points="517.88,-177.88 525.57,-185.17 524.11,-174.68 517.88,-177.88"/>
</g>
<!-- Node16 -->
<g id="node16" class="node">
<title>Node16</title>
<g id="a_node16"><a xlink:title=" ">
<polygon fill="#e0e0e0" stroke="#999999" points="494,-19 448,-19 448,0 494,0 494,-19"/>
<text text-anchor="middle" x="471" y="-7" font-family="Helvetica,sans-Serif" font-size="10.00">stdio.h</text>
</a>
</g>
</g>
<!-- Node15&#45;&gt;Node16 -->
<g id="edge29" class="edge">
<title>Node15&#45;&gt;Node16</title>
<path fill="none" stroke="#63b8ff" d="M471,-60.37C471,-52.5 471,-40.6 471,-30.39"/>
<polygon fill="#63b8ff" stroke="#63b8ff" points="474.5,-30.68 471,-20.68 467.5,-30.68 474.5,-30.68"/>
</g>
<!-- Node17&#45;&gt;Node2 -->
<g id="edge35" class="edge">
<title>Node17&#45;&gt;Node2</title>
<path fill="none" stroke="#63b8ff" d="M904.38,-272.45C867.32,-281.42 807.32,-295.28 763.33,-305.06"/>
<polygon fill="#63b8ff" stroke="#63b8ff" points="762.72,-301.61 753.71,-307.18 764.23,-308.44 762.72,-301.61"/>
</g>
</g>
</svg>
