<?xml version="1.0" encoding="UTF-8" standalone="no"?>
<!DOCTYPE svg PUBLIC "-//W3C//DTD SVG 1.1//EN"
 "http://www.w3.org/Graphics/SVG/1.1/DTD/svg11.dtd">
<!-- Generated by graphviz version 7.1.0 (0)
 -->
<!-- Title: ViennaRNA/boltzmann_sampling.h Pages: 1 -->
<svg width="268pt" height="148pt"
 viewBox="0.00 0.00 267.50 148.00" xmlns="http://www.w3.org/2000/svg" xmlns:xlink="http://www.w3.org/1999/xlink">
<g id="graph0" class="graph" transform="scale(1 1) rotate(0) translate(4 144)">
<title>ViennaRNA/boltzmann_sampling.h</title>
<!-- Node1 -->
<g id="node1" class="node">
<title>Node1</title>
<g id="a_node1"><a xlink:title="Boltzmann Sampling of secondary structures from the ensemble.">
<polygon fill="#999999" stroke="#666666" points="154.5,-140 38.5,-140 38.5,-110 154.5,-110 154.5,-140"/>
<text text-anchor="start" x="46.5" y="-128" font-family="Helvetica,sans-Serif" font-size="10.00">ViennaRNA/boltzmann</text>
<text text-anchor="middle" x="96.5" y="-117" font-family="Helvetica,sans-Serif" font-size="10.00">_sampling.h</text>
</a>
</g>
</g>
<!-- Node2 -->
<g id="node2" class="node">
<title>Node2</title>
<g id="a_node2"><a xlink:href="alifold_8h.html" target="_top" xlink:title="Functions for comparative structure prediction using RNA sequence alignments.">
<polygon fill="white" stroke="#666666" points="105,-19 0,-19 0,0 105,0 105,-19"/>
<text text-anchor="middle" x="52.5" y="-7" font-family="Helvetica,sans-Serif" font-size="10.00">ViennaRNA/alifold.h</text>
</a>
</g>
</g>
<!-- Node1&#45;&gt;Node2 -->
<g id="edge1" class="edge">
<title>Node1&#45;&gt;Node2</title>
<path fill="none" stroke="#63b8ff" d="M83.29,-99.69C79.2,-91.64 74.89,-82.56 71.5,-74 63.96,-54.96 57.72,-31.7 54.62,-19.29"/>
<polygon fill="#63b8ff" stroke="#63b8ff" points="80.17,-101.28 87.9,-108.52 86.37,-98.04 80.17,-101.28"/>
</g>
<!-- Node3 -->
<g id="node3" class="node">
<title>Node3</title>
<g id="a_node3"><a xlink:href="part__func_8h.html" target="_top" xlink:title="Partition function implementations.">
<polygon fill="white" stroke="#666666" points="200.5,-74 80.5,-74 80.5,-55 200.5,-55 200.5,-74"/>
<text text-anchor="middle" x="140.5" y="-62" font-family="Helvetica,sans-Serif" font-size="10.00">ViennaRNA/part_func.h</text>
</a>
</g>
</g>
<!-- Node1&#45;&gt;Node3 -->
<g id="edge2" class="edge">
<title>Node1&#45;&gt;Node3</title>
<path fill="none" stroke="#63b8ff" d="M114.29,-100.35C121.24,-91.11 128.78,-81.09 133.98,-74.18"/>
<polygon fill="#63b8ff" stroke="#63b8ff" points="111.5,-98.23 108.29,-108.33 117.09,-102.44 111.5,-98.23"/>
</g>
<!-- Node3&#45;&gt;Node2 -->
<g id="edge3" class="edge">
<title>Node3&#45;&gt;Node2</title>
<path fill="none" stroke="#63b8ff" d="M115.98,-48.73C100.3,-39.29 80.49,-27.36 67.21,-19.36"/>
<polygon fill="#63b8ff" stroke="#63b8ff" points="113.9,-51.57 124.28,-53.73 117.51,-45.57 113.9,-51.57"/>
</g>
<!-- Node4 -->
<g id="node4" class="node">
<title>Node4</title>
<g id="a_node4"><a xlink:href="part__func__co_8h.html" target="_top" xlink:title="Partition function for two RNA sequences.">
<polygon fill="white" stroke="#666666" points="259.5,-19 123.5,-19 123.5,0 259.5,0 259.5,-19"/>
<text text-anchor="middle" x="191.5" y="-7" font-family="Helvetica,sans-Serif" font-size="10.00">ViennaRNA/part_func_co.h</text>
</a>
</g>
</g>
<!-- Node3&#45;&gt;Node4 -->
<g id="edge4" class="edge">
<title>Node3&#45;&gt;Node4</title>
<path fill="none" stroke="#63b8ff" d="M156.86,-46.5C165.52,-37.5 175.8,-26.82 182.9,-19.44"/>
<polygon fill="#63b8ff" stroke="#63b8ff" points="154.38,-44.02 149.97,-53.66 159.43,-48.88 154.38,-44.02"/>
</g>
</g>
</svg>
