<?xml version="1.0" encoding="UTF-8" standalone="no"?>
<!DOCTYPE svg PUBLIC "-//W3C//DTD SVG 1.1//EN"
 "http://www.w3.org/Graphics/SVG/1.1/DTD/svg11.dtd">
<!-- Generated by graphviz version 7.1.0 (0)
 -->
<!-- Title: ViennaRNA/char_stream.h Pages: 1 -->
<svg width="142pt" height="148pt"
 viewBox="0.00 0.00 142.00 148.00" xmlns="http://www.w3.org/2000/svg" xmlns:xlink="http://www.w3.org/1999/xlink">
<g id="graph0" class="graph" transform="scale(1 1) rotate(0) translate(4 144)">
<title>ViennaRNA/char_stream.h</title>
<!-- Node1 -->
<g id="node1" class="node">
<title>Node1</title>
<g id="a_node1"><a xlink:title="Use ViennaRNA/datastructures/char_stream.h instead.">
<polygon fill="#999999" stroke="#666666" points="134,-140 0,-140 0,-121 134,-121 134,-140"/>
<text text-anchor="middle" x="67" y="-128" font-family="Helvetica,sans-Serif" font-size="10.00">ViennaRNA/char_stream.h</text>
</a>
</g>
</g>
<!-- Node2 -->
<g id="node2" class="node">
<title>Node2</title>
<g id="a_node2"><a xlink:href="datastructures_2char__stream_8h.html" target="_top" xlink:title="Implementation of a dynamic, buffered character stream.">
<polygon fill="white" stroke="#666666" points="134,-85 0,-85 0,-55 134,-55 134,-85"/>
<text text-anchor="start" x="8" y="-73" font-family="Helvetica,sans-Serif" font-size="10.00">ViennaRNA/datastructures</text>
<text text-anchor="middle" x="67" y="-62" font-family="Helvetica,sans-Serif" font-size="10.00">/char_stream.h</text>
</a>
</g>
</g>
<!-- Node1&#45;&gt;Node2 -->
<g id="edge1" class="edge">
<title>Node1&#45;&gt;Node2</title>
<path fill="none" stroke="#63b8ff" d="M67,-120.87C67,-114.4 67,-105.2 67,-96.45"/>
<polygon fill="#63b8ff" stroke="#63b8ff" points="70.5,-96.63 67,-86.63 63.5,-96.63 70.5,-96.63"/>
</g>
<!-- Node3 -->
<g id="node3" class="node">
<title>Node3</title>
<g id="a_node3"><a xlink:title=" ">
<polygon fill="#e0e0e0" stroke="#999999" points="60,-19 8,-19 8,0 60,0 60,-19"/>
<text text-anchor="middle" x="34" y="-7" font-family="Helvetica,sans-Serif" font-size="10.00">stdarg.h</text>
</a>
</g>
</g>
<!-- Node2&#45;&gt;Node3 -->
<g id="edge2" class="edge">
<title>Node2&#45;&gt;Node3</title>
<path fill="none" stroke="#63b8ff" d="M58.84,-54.54C54.49,-46.82 49.09,-37.24 44.43,-28.99"/>
<polygon fill="#63b8ff" stroke="#63b8ff" points="47.6,-27.48 39.64,-20.49 41.5,-30.92 47.6,-27.48"/>
</g>
<!-- Node4 -->
<g id="node4" class="node">
<title>Node4</title>
<g id="a_node4"><a xlink:title=" ">
<polygon fill="#e0e0e0" stroke="#999999" points="124,-19 78,-19 78,0 124,0 124,-19"/>
<text text-anchor="middle" x="101" y="-7" font-family="Helvetica,sans-Serif" font-size="10.00">stdio.h</text>
</a>
</g>
</g>
<!-- Node2&#45;&gt;Node4 -->
<g id="edge3" class="edge">
<title>Node2&#45;&gt;Node4</title>
<path fill="none" stroke="#63b8ff" d="M75.4,-54.54C79.89,-46.82 85.46,-37.24 90.25,-28.99"/>
<polygon fill="#63b8ff" stroke="#63b8ff" points="93.2,-30.89 95.2,-20.48 87.15,-27.37 93.2,-30.89"/>
</g>
</g>
</svg>
