<?xml version="1.0" encoding="UTF-8" standalone="no"?>
<!DOCTYPE svg PUBLIC "-//W3C//DTD SVG 1.1//EN"
 "http://www.w3.org/Graphics/SVG/1.1/DTD/svg11.dtd">
<!-- Generated by graphviz version 7.1.0 (0)
 -->
<!-- Title: ViennaRNA/cofold.h Pages: 1 -->
<!--zoomable 390 -->
<svg id="main" version="1.1" xmlns="http://www.w3.org/2000/svg" xmlns:xlink="http://www.w3.org/1999/xlink" xml:space="preserve" onload="init(evt)">
<style type="text/css"><![CDATA[
.edge:hover path { stroke: red; }
.edge:hover polygon { stroke: red; fill: red; }
]]></style>
<script type="text/javascript"><![CDATA[
var edges = document.getElementsByTagName('g');
if (edges && edges.length) {
  for (var i=0;i<edges.length;i++) {
    if (edges[i].id.substr(0,4)=='edge') {
      edges[i].setAttribute('class','edge');
    }
  }
}
]]></script>
        <defs>
                <circle id="rim" cx="0" cy="0" r="7"/>
                <circle id="rim2" cx="0" cy="0" r="3.5"/>
                <g id="zoomPlus">
                        <use xlink:href="#rim" fill="#404040">
                                <set attributeName="fill" to="#808080" begin="zoomplus.mouseover" end="zoomplus.mouseout"/>
                        </use>
                        <path d="M-4,0h8M0,-4v8" fill="none" stroke="white" stroke-width="1.5" pointer-events="none"/>
                </g>
                <g id="zoomMin">
                        <use xlink:href="#rim" fill="#404040">
                                <set attributeName="fill" to="#808080" begin="zoomminus.mouseover" end="zoomminus.mouseout"/>
                        </use>
                        <path d="M-4,0h8" fill="none" stroke="white" stroke-width="1.5" pointer-events="none"/>
                </g>
                <g id="dirArrow">
                        <path fill="none" stroke="white" stroke-width="1.5" d="M0,-3.0v7 M-2.5,-0.5L0,-3.0L2.5,-0.5"/>
                </g>
               <g id="resetDef">
                       <use xlink:href="#rim2" fill="#404040">
                               <set attributeName="fill" to="#808080" begin="reset.mouseover" end="reset.mouseout"/>
                       </use>
               </g>
        </defs>

<script type="text/javascript">
var viewWidth = 1560;
var viewHeight = 390;
var sectionId = 'dynsection-0';
</script>
<script xlink:href="svgpan.js"/>
<svg id="graph" class="graph">
<g id="viewport">
<title>ViennaRNA/cofold.h</title>
<!-- Node1 -->
<g id="node1" class="node">
<title>Node1</title>
<g id="a_node1"><a xlink:title="MFE implementations for RNA&#45;RNA interaction.">
<polygon fill="#999999" stroke="#666666" points="667,-382 561,-382 561,-363 667,-363 667,-382"/>
<text text-anchor="middle" x="614" y="-370" font-family="Helvetica,sans-Serif" font-size="10.00">ViennaRNA/cofold.h</text>
</a>
</g>
</g>
<!-- Node2 -->
<g id="node2" class="node">
<title>Node2</title>
<g id="a_node2"><a xlink:href="datastructures_2basic_8h.html" target="_top" xlink:title="Various data structures and pre&#45;processor macros.">
<polygon fill="white" stroke="#666666" points="681,-272 547,-272 547,-242 681,-242 681,-272"/>
<text text-anchor="start" x="555" y="-260" font-family="Helvetica,sans-Serif" font-size="10.00">ViennaRNA/datastructures</text>
<text text-anchor="middle" x="614" y="-249" font-family="Helvetica,sans-Serif" font-size="10.00">/basic.h</text>
</a>
</g>
</g>
<!-- Node1&#45;&gt;Node2 -->
<g id="edge1" class="edge">
<title>Node1&#45;&gt;Node2</title>
<path fill="none" stroke="#63b8ff" d="M614,-362.59C614,-345.8 614,-308.87 614,-283.71"/>
<polygon fill="#63b8ff" stroke="#63b8ff" points="617.5,-283.95 614,-273.95 610.5,-283.95 617.5,-283.95"/>
</g>
<!-- Node7 -->
<g id="node7" class="node">
<title>Node7</title>
<g id="a_node7"><a xlink:href="params_2basic_8h.html" target="_top" xlink:title="Functions to deal with sets of energy parameters.">
<polygon fill="white" stroke="#666666" points="223,-145.5 85,-145.5 85,-126.5 223,-126.5 223,-145.5"/>
<text text-anchor="middle" x="154" y="-133.5" font-family="Helvetica,sans-Serif" font-size="10.00">ViennaRNA/params/basic.h</text>
</a>
</g>
</g>
<!-- Node1&#45;&gt;Node7 -->
<g id="edge43" class="edge">
<title>Node1&#45;&gt;Node7</title>
<path fill="none" stroke="#63b8ff" d="M569.45,-362.51C488.93,-344.45 316.87,-297.47 202,-206 184.91,-192.39 171.4,-171.11 163.12,-155.78"/>
<polygon fill="#63b8ff" stroke="#63b8ff" points="166.41,-154.52 158.73,-147.21 160.17,-157.71 166.41,-154.52"/>
</g>
<!-- Node19 -->
<g id="node19" class="node">
<title>Node19</title>
<g id="a_node19"><a xlink:href="mfe_8h.html" target="_top" xlink:title="Compute Minimum Free energy (MFE) and backtrace corresponding secondary structures from RNA sequence ...">
<polygon fill="white" stroke="#666666" points="750,-327 654,-327 654,-308 750,-308 750,-327"/>
<text text-anchor="middle" x="702" y="-315" font-family="Helvetica,sans-Serif" font-size="10.00">ViennaRNA/mfe.h</text>
</a>
</g>
</g>
<!-- Node1&#45;&gt;Node19 -->
<g id="edge44" class="edge">
<title>Node1&#45;&gt;Node19</title>
<path fill="none" stroke="#63b8ff" d="M628.93,-362.51C642.28,-354.47 662.11,-342.53 677.74,-333.11"/>
<polygon fill="#63b8ff" stroke="#63b8ff" points="679.24,-336.3 686,-328.14 675.62,-330.3 679.24,-336.3"/>
</g>
<!-- Node3 -->
<g id="node3" class="node">
<title>Node3</title>
<g id="a_node3"><a xlink:href="constants_8h.html" target="_top" xlink:title="Energy parameter constants.">
<polygon fill="white" stroke="#666666" points="158,-79.5 0,-79.5 0,-60.5 158,-60.5 158,-79.5"/>
<text text-anchor="middle" x="79" y="-67.5" font-family="Helvetica,sans-Serif" font-size="10.00">ViennaRNA/params/constants.h</text>
</a>
</g>
</g>
<!-- Node2&#45;&gt;Node3 -->
<g id="edge2" class="edge">
<title>Node2&#45;&gt;Node3</title>
<path fill="none" stroke="#63b8ff" d="M546.85,-253.82C464.34,-249.8 320.7,-238.36 202,-206 143.05,-189.93 109.47,-202.12 76,-151 64.31,-133.13 67.73,-107.9 72.33,-90.58"/>
<polygon fill="#63b8ff" stroke="#63b8ff" points="75.61,-91.84 75.18,-81.25 68.91,-89.8 75.61,-91.84"/>
</g>
<!-- Node5 -->
<g id="node5" class="node">
<title>Node5</title>
<g id="a_node5"><a xlink:href="fold__compound_8h.html" target="_top" xlink:title="The Basic Fold Compound API.">
<polygon fill="white" stroke="#666666" points="788,-206 642,-206 642,-187 788,-187 788,-206"/>
<text text-anchor="middle" x="715" y="-194" font-family="Helvetica,sans-Serif" font-size="10.00">ViennaRNA/fold_compound.h</text>
</a>
</g>
</g>
<!-- Node2&#45;&gt;Node5 -->
<g id="edge4" class="edge">
<title>Node2&#45;&gt;Node5</title>
<path fill="none" stroke="#63b8ff" d="M638.97,-241.54C654.44,-232.58 674.25,-221.1 689.77,-212.11"/>
<polygon fill="#63b8ff" stroke="#63b8ff" points="691.52,-215.15 698.42,-207.1 688.01,-209.09 691.52,-215.15"/>
</g>
<!-- Node6 -->
<g id="node6" class="node">
<title>Node6</title>
<g id="a_node6"><a xlink:href="model_8h.html" target="_top" xlink:title="The model details data structure and its corresponding modifiers.">
<polygon fill="white" stroke="#666666" points="304,-79.5 198,-79.5 198,-60.5 304,-60.5 304,-79.5"/>
<text text-anchor="middle" x="251" y="-67.5" font-family="Helvetica,sans-Serif" font-size="10.00">ViennaRNA/model.h</text>
</a>
</g>
</g>
<!-- Node2&#45;&gt;Node6 -->
<g id="edge34" class="edge">
<title>Node2&#45;&gt;Node6</title>
<path fill="none" stroke="#63b8ff" d="M546.84,-254.28C469.36,-248.58 343.35,-227.22 271,-151 255.77,-134.96 251.64,-109.14 250.76,-91.19"/>
<polygon fill="#63b8ff" stroke="#63b8ff" points="254.26,-91.22 250.6,-81.28 247.26,-91.33 254.26,-91.22"/>
</g>
<!-- Node2&#45;&gt;Node7 -->
<g id="edge35" class="edge">
<title>Node2&#45;&gt;Node7</title>
<path fill="none" stroke="#63b8ff" d="M546.52,-251.98C451.29,-245.29 283.19,-230.16 228,-206 200.99,-194.17 175.83,-170.82 162.54,-154.58"/>
<polygon fill="#63b8ff" stroke="#63b8ff" points="165.53,-152.74 156.78,-146.76 159.89,-156.89 165.53,-152.74"/>
</g>
<!-- Node9 -->
<g id="node9" class="node">
<title>Node9</title>
<g id="a_node9"><a xlink:href="dp__matrices_8h.html" target="_top" xlink:title="Functions to deal with standard dynamic programming (DP) matrices.">
<polygon fill="white" stroke="#666666" points="412.5,-145.5 279.5,-145.5 279.5,-126.5 412.5,-126.5 412.5,-145.5"/>
<text text-anchor="middle" x="346" y="-133.5" font-family="Helvetica,sans-Serif" font-size="10.00">ViennaRNA/dp_matrices.h</text>
</a>
</g>
</g>
<!-- Node2&#45;&gt;Node9 -->
<g id="edge36" class="edge">
<title>Node2&#45;&gt;Node9</title>
<path fill="none" stroke="#63b8ff" d="M576.81,-241.53C521.89,-218.43 420.78,-173.52 372.63,-150.83"/>
<polygon fill="#63b8ff" stroke="#63b8ff" points="374.29,-147.74 363.75,-146.6 371.28,-154.06 374.29,-147.74"/>
</g>
<!-- Node10 -->
<g id="node10" class="node">
<title>Node10</title>
<g id="a_node10"><a xlink:href="hard_8h.html" target="_top" xlink:title="Functions and data structures for handling of secondary structure hard constraints.">
<polygon fill="white" stroke="#666666" points="686.5,-151 567.5,-151 567.5,-121 686.5,-121 686.5,-151"/>
<text text-anchor="start" x="575.5" y="-139" font-family="Helvetica,sans-Serif" font-size="10.00">ViennaRNA/constraints</text>
<text text-anchor="middle" x="627" y="-128" font-family="Helvetica,sans-Serif" font-size="10.00">/hard.h</text>
</a>
</g>
</g>
<!-- Node2&#45;&gt;Node10 -->
<g id="edge37" class="edge">
<title>Node2&#45;&gt;Node10</title>
<path fill="none" stroke="#63b8ff" d="M615.54,-241.88C617.67,-222.39 621.55,-186.92 624.2,-162.67"/>
<polygon fill="#63b8ff" stroke="#63b8ff" points="627.65,-163.3 625.25,-152.98 620.69,-162.54 627.65,-163.3"/>
</g>
<!-- Node12 -->
<g id="node12" class="node">
<title>Node12</title>
<g id="a_node12"><a xlink:href="soft_8h.html" target="_top" xlink:title="Functions and data structures for secondary structure soft constraints.">
<polygon fill="white" stroke="#666666" points="549.5,-151 430.5,-151 430.5,-121 549.5,-121 549.5,-151"/>
<text text-anchor="start" x="438.5" y="-139" font-family="Helvetica,sans-Serif" font-size="10.00">ViennaRNA/constraints</text>
<text text-anchor="middle" x="490" y="-128" font-family="Helvetica,sans-Serif" font-size="10.00">/soft.h</text>
</a>
</g>
</g>
<!-- Node2&#45;&gt;Node12 -->
<g id="edge38" class="edge">
<title>Node2&#45;&gt;Node12</title>
<path fill="none" stroke="#63b8ff" d="M594.46,-241.65C570.66,-221.28 531.31,-183.78 508.16,-159.64"/>
<polygon fill="#63b8ff" stroke="#63b8ff" points="510.85,-157.4 501.46,-152.51 505.75,-162.19 510.85,-157.4"/>
</g>
<!-- Node13 -->
<g id="node13" class="node">
<title>Node13</title>
<g id="a_node13"><a xlink:href="grammar_8h.html" target="_top" xlink:title="Implementations for the RNA folding grammar.">
<polygon fill="white" stroke="#666666" points="1165.5,-145.5 1048.5,-145.5 1048.5,-126.5 1165.5,-126.5 1165.5,-145.5"/>
<text text-anchor="middle" x="1107" y="-133.5" font-family="Helvetica,sans-Serif" font-size="10.00">ViennaRNA/grammar.h</text>
</a>
</g>
</g>
<!-- Node2&#45;&gt;Node13 -->
<g id="edge39" class="edge">
<title>Node2&#45;&gt;Node13</title>
<path fill="none" stroke="#63b8ff" d="M673.96,-241.53C772.89,-217.65 968.35,-170.47 1058.88,-148.61"/>
<polygon fill="#63b8ff" stroke="#63b8ff" points="1059.54,-152.06 1068.44,-146.31 1057.9,-145.25 1059.54,-152.06"/>
</g>
<!-- Node14 -->
<g id="node14" class="node">
<title>Node14</title>
<g id="a_node14"><a xlink:href="structured__domains_8h.html" target="_top" xlink:title="This module provides interfaces that deal with additional structured domains in the folding grammar.">
<polygon fill="white" stroke="#666666" points="1441.5,-151 1326.5,-151 1326.5,-121 1441.5,-121 1441.5,-151"/>
<text text-anchor="start" x="1334.5" y="-139" font-family="Helvetica,sans-Serif" font-size="10.00">ViennaRNA/structured</text>
<text text-anchor="middle" x="1384" y="-128" font-family="Helvetica,sans-Serif" font-size="10.00">_domains.h</text>
</a>
</g>
</g>
<!-- Node2&#45;&gt;Node14 -->
<g id="edge40" class="edge">
<title>Node2&#45;&gt;Node14</title>
<path fill="none" stroke="#63b8ff" d="M681.2,-247.39C804.76,-231.25 1076.48,-194.33 1314.77,-151.53"/>
<polygon fill="#63b8ff" stroke="#63b8ff" points="1315.38,-154.98 1324.6,-149.76 1314.14,-148.09 1315.38,-154.98"/>
</g>
<!-- Node15 -->
<g id="node15" class="node">
<title>Node15</title>
<g id="a_node15"><a xlink:href="unstructured__domains_8h.html" target="_top" xlink:title="Functions to modify unstructured domains, e.g. to incorporate ligands binding to unpaired stretches.">
<polygon fill="white" stroke="#666666" points="1308.5,-151 1183.5,-151 1183.5,-121 1308.5,-121 1308.5,-151"/>
<text text-anchor="start" x="1191.5" y="-139" font-family="Helvetica,sans-Serif" font-size="10.00">ViennaRNA/unstructured</text>
<text text-anchor="middle" x="1246" y="-128" font-family="Helvetica,sans-Serif" font-size="10.00">_domains.h</text>
</a>
</g>
</g>
<!-- Node2&#45;&gt;Node15 -->
<g id="edge41" class="edge">
<title>Node2&#45;&gt;Node15</title>
<path fill="none" stroke="#63b8ff" d="M681.22,-242.55C785.23,-222.79 991.09,-184.61 1166,-151 1168,-150.62 1170.02,-150.23 1172.07,-149.83"/>
<polygon fill="#63b8ff" stroke="#63b8ff" points="1172.54,-153.3 1181.69,-147.97 1171.21,-146.43 1172.54,-153.3"/>
</g>
<!-- Node16 -->
<g id="node16" class="node">
<title>Node16</title>
<g id="a_node16"><a xlink:href="utils_2structures_8h.html" target="_top" xlink:title="Various utility&#45; and helper&#45;functions for secondary structure parsing, converting,...">
<polygon fill="white" stroke="#666666" points="1524,-79.5 1380,-79.5 1380,-60.5 1524,-60.5 1524,-79.5"/>
<text text-anchor="middle" x="1452" y="-67.5" font-family="Helvetica,sans-Serif" font-size="10.00">ViennaRNA/utils/structures.h</text>
</a>
</g>
</g>
<!-- Node2&#45;&gt;Node16 -->
<g id="edge42" class="edge">
<title>Node2&#45;&gt;Node16</title>
<path fill="none" stroke="#63b8ff" d="M681.41,-252.35C869.92,-241.77 1391.57,-208.13 1442,-151 1456.2,-134.91 1453.63,-109.1 1451.33,-91.17"/>
<polygon fill="#63b8ff" stroke="#63b8ff" points="1454.81,-90.76 1450.13,-81.25 1447.86,-91.6 1454.81,-90.76"/>
</g>
<!-- Node4 -->
<g id="node4" class="node">
<title>Node4</title>
<g id="a_node4"><a xlink:title=" ">
<polygon fill="#e0e0e0" stroke="#999999" points="103,-19 55,-19 55,0 103,0 103,-19"/>
<text text-anchor="middle" x="79" y="-7" font-family="Helvetica,sans-Serif" font-size="10.00">limits.h</text>
</a>
</g>
</g>
<!-- Node3&#45;&gt;Node4 -->
<g id="edge3" class="edge">
<title>Node3&#45;&gt;Node4</title>
<path fill="none" stroke="#63b8ff" d="M79,-60.37C79,-52.5 79,-40.6 79,-30.39"/>
<polygon fill="#63b8ff" stroke="#63b8ff" points="82.5,-30.68 79,-20.68 75.5,-30.68 82.5,-30.68"/>
</g>
<!-- Node5&#45;&gt;Node6 -->
<g id="edge5" class="edge">
<title>Node5&#45;&gt;Node6</title>
<path fill="none" stroke="#63b8ff" d="M715.68,-186.52C716.33,-170.63 715.13,-137.66 696,-121 667.88,-96.51 431.96,-80.64 315.51,-74.23"/>
<polygon fill="#63b8ff" stroke="#63b8ff" points="315.97,-70.75 305.8,-73.7 315.59,-77.74 315.97,-70.75"/>
</g>
<!-- Node5&#45;&gt;Node7 -->
<g id="edge6" class="edge">
<title>Node5&#45;&gt;Node7</title>
<path fill="none" stroke="#63b8ff" d="M641.81,-189.19C552.05,-180.91 395.6,-165.69 262,-151 251.51,-149.85 240.5,-148.59 229.67,-147.32"/>
<polygon fill="#63b8ff" stroke="#63b8ff" points="230.34,-143.87 219.99,-146.17 229.51,-150.82 230.34,-143.87"/>
</g>
<!-- Node8 -->
<g id="node8" class="node">
<title>Node8</title>
<g id="a_node8"><a xlink:href="sequence_8h.html" target="_top" xlink:title="Functions and data structures related to sequence representations ,.">
<polygon fill="white" stroke="#666666" points="903,-145.5 781,-145.5 781,-126.5 903,-126.5 903,-145.5"/>
<text text-anchor="middle" x="842" y="-133.5" font-family="Helvetica,sans-Serif" font-size="10.00">ViennaRNA/sequence.h</text>
</a>
</g>
</g>
<!-- Node5&#45;&gt;Node8 -->
<g id="edge11" class="edge">
<title>Node5&#45;&gt;Node8</title>
<path fill="none" stroke="#63b8ff" d="M729.28,-186.62C748.14,-176.99 781.44,-161.54 807.06,-150.43"/>
<polygon fill="#63b8ff" stroke="#63b8ff" points="808.29,-153.71 816.11,-146.56 805.54,-147.27 808.29,-153.71"/>
</g>
<!-- Node5&#45;&gt;Node9 -->
<g id="edge13" class="edge">
<title>Node5&#45;&gt;Node9</title>
<path fill="none" stroke="#63b8ff" d="M645.07,-186.52C583.64,-177.91 492.15,-164.3 413,-151 407.36,-150.05 401.48,-149.03 395.66,-147.99"/>
<polygon fill="#63b8ff" stroke="#63b8ff" points="396.53,-144.59 386.07,-146.24 395.28,-151.48 396.53,-144.59"/>
</g>
<!-- Node5&#45;&gt;Node10 -->
<g id="edge16" class="edge">
<title>Node5&#45;&gt;Node10</title>
<path fill="none" stroke="#63b8ff" d="M696.63,-186.62C683.62,-179.03 666.26,-167.82 652.05,-157.98"/>
<polygon fill="#63b8ff" stroke="#63b8ff" points="654.23,-155.23 644.04,-152.31 650.19,-160.95 654.23,-155.23"/>
</g>
<!-- Node5&#45;&gt;Node12 -->
<g id="edge20" class="edge">
<title>Node5&#45;&gt;Node12</title>
<path fill="none" stroke="#63b8ff" d="M675.56,-186.55C640.92,-178.01 590.12,-164.91 550.39,-154.32"/>
<polygon fill="#63b8ff" stroke="#63b8ff" points="551.53,-151 540.97,-151.8 549.72,-157.76 551.53,-151"/>
</g>
<!-- Node5&#45;&gt;Node13 -->
<g id="edge24" class="edge">
<title>Node5&#45;&gt;Node13</title>
<path fill="none" stroke="#63b8ff" d="M784.57,-186.53C848.74,-178.45 946.4,-165.61 1031,-151 1036.08,-150.12 1041.35,-149.14 1046.66,-148.12"/>
<polygon fill="#63b8ff" stroke="#63b8ff" points="1046.93,-151.63 1056.07,-146.26 1045.58,-144.76 1046.93,-151.63"/>
</g>
<!-- Node5&#45;&gt;Node14 -->
<g id="edge26" class="edge">
<title>Node5&#45;&gt;Node14</title>
<path fill="none" stroke="#63b8ff" d="M788.21,-193.29C899.85,-189.22 1119.51,-178.45 1314.79,-151.34"/>
<polygon fill="#63b8ff" stroke="#63b8ff" points="1315.22,-154.81 1324.63,-149.95 1314.24,-147.88 1315.22,-154.81"/>
</g>
<!-- Node5&#45;&gt;Node15 -->
<g id="edge27" class="edge">
<title>Node5&#45;&gt;Node15</title>
<path fill="none" stroke="#63b8ff" d="M788.16,-190.18C877.6,-183.49 1033.23,-170.46 1166,-151 1168.01,-150.71 1170.05,-150.39 1172.11,-150.06"/>
<polygon fill="#63b8ff" stroke="#63b8ff" points="1172.49,-153.55 1181.77,-148.43 1171.32,-146.65 1172.49,-153.55"/>
</g>
<!-- Node18 -->
<g id="node18" class="node">
<title>Node18</title>
<g id="a_node18"><a xlink:href="zscore_8h_source.html" target="_top" xlink:title=" ">
<polygon fill="white" stroke="#666666" points="1030.5,-145.5 921.5,-145.5 921.5,-126.5 1030.5,-126.5 1030.5,-145.5"/>
<text text-anchor="middle" x="976" y="-133.5" font-family="Helvetica,sans-Serif" font-size="10.00">ViennaRNA/zscore.h</text>
</a>
</g>
</g>
<!-- Node5&#45;&gt;Node18 -->
<g id="edge33" class="edge">
<title>Node5&#45;&gt;Node18</title>
<path fill="none" stroke="#63b8ff" d="M754.92,-186.55C800.5,-176.34 875.15,-159.6 924.93,-148.45"/>
<polygon fill="#63b8ff" stroke="#63b8ff" points="925.61,-151.88 934.6,-146.28 924.08,-145.05 925.61,-151.88"/>
</g>
<!-- Node7&#45;&gt;Node2 -->
<g id="edge8" class="edge">
<title>Node7&#45;&gt;Node2</title>
<path fill="none" stroke="#63b8ff" d="M166.79,-145.79C183.78,-160.96 213.56,-191.79 246,-206 296.8,-228.24 443.28,-242.83 535.44,-250.22"/>
<polygon fill="#63b8ff" stroke="#63b8ff" points="534.92,-253.69 545.17,-250.99 535.47,-246.71 534.92,-253.69"/>
</g>
<!-- Node7&#45;&gt;Node3 -->
<g id="edge7" class="edge">
<title>Node7&#45;&gt;Node3</title>
<path fill="none" stroke="#63b8ff" d="M143.57,-126.1C131.82,-116.07 112.46,-99.56 98.01,-87.22"/>
<polygon fill="#63b8ff" stroke="#63b8ff" points="100.37,-84.63 90.49,-80.81 95.83,-89.96 100.37,-84.63"/>
</g>
<!-- Node7&#45;&gt;Node5 -->
<g id="edge9" class="edge">
<title>Node7&#45;&gt;Node5</title>
<path fill="none" stroke="#63b8ff" d="M223.31,-144.49C241.8,-146.66 261.7,-148.99 280,-151 401.91,-164.4 542.83,-178.25 630.51,-186.86"/>
<polygon fill="#63b8ff" stroke="#63b8ff" points="629.92,-190.32 640.22,-187.81 630.61,-183.35 629.92,-190.32"/>
</g>
<!-- Node7&#45;&gt;Node6 -->
<g id="edge10" class="edge">
<title>Node7&#45;&gt;Node6</title>
<path fill="none" stroke="#63b8ff" d="M167.49,-126.1C183.2,-115.74 209.4,-98.45 228.27,-86"/>
<polygon fill="#63b8ff" stroke="#63b8ff" points="229.94,-89.09 236.36,-80.66 226.09,-83.24 229.94,-89.09"/>
</g>
<!-- Node8&#45;&gt;Node5 -->
<g id="edge12" class="edge">
<title>Node8&#45;&gt;Node5</title>
<path fill="none" stroke="#63b8ff" d="M827.56,-145.97C808.61,-155.62 775.3,-171.08 749.72,-182.16"/>
<polygon fill="#63b8ff" stroke="#63b8ff" points="748.51,-178.87 740.69,-186.02 751.26,-185.31 748.51,-178.87"/>
</g>
<!-- Node9&#45;&gt;Node2 -->
<g id="edge14" class="edge">
<title>Node9&#45;&gt;Node2</title>
<path fill="none" stroke="#63b8ff" d="M369.94,-145.95C416.62,-165.15 519.55,-210.65 575.75,-236.74"/>
<polygon fill="#63b8ff" stroke="#63b8ff" points="574.09,-239.83 584.63,-240.89 577.05,-233.48 574.09,-239.83"/>
</g>
<!-- Node9&#45;&gt;Node5 -->
<g id="edge15" class="edge">
<title>Node9&#45;&gt;Node5</title>
<path fill="none" stroke="#63b8ff" d="M402.21,-145.97C411.86,-147.69 421.74,-149.44 431,-151 505.21,-163.47 590.25,-176.21 647.86,-184.85"/>
<polygon fill="#63b8ff" stroke="#63b8ff" points="647.1,-188.28 657.5,-186.3 648.13,-181.35 647.1,-188.28"/>
</g>
<!-- Node10&#45;&gt;Node5 -->
<g id="edge17" class="edge">
<title>Node10&#45;&gt;Node5</title>
<path fill="none" stroke="#63b8ff" d="M654.63,-151.44C668.65,-160.05 685.14,-170.98 697.44,-179.8"/>
<polygon fill="#63b8ff" stroke="#63b8ff" points="695.31,-182.57 705.43,-185.71 699.48,-176.95 695.31,-182.57"/>
</g>
<!-- Node11 -->
<g id="node11" class="node">
<title>Node11</title>
<g id="a_node11"><a xlink:href="constraints_2basic_8h.html" target="_top" xlink:title="Functions and data structures for constraining secondary structure predictions and evaluation.">
<polygon fill="white" stroke="#666666" points="686.5,-85 567.5,-85 567.5,-55 686.5,-55 686.5,-85"/>
<text text-anchor="start" x="575.5" y="-73" font-family="Helvetica,sans-Serif" font-size="10.00">ViennaRNA/constraints</text>
<text text-anchor="middle" x="627" y="-62" font-family="Helvetica,sans-Serif" font-size="10.00">/basic.h</text>
</a>
</g>
</g>
<!-- Node10&#45;&gt;Node11 -->
<g id="edge18" class="edge">
<title>Node10&#45;&gt;Node11</title>
<path fill="none" stroke="#63b8ff" d="M627,-120.8C627,-113.67 627,-104.82 627,-96.56"/>
<polygon fill="#63b8ff" stroke="#63b8ff" points="630.5,-96.68 627,-86.68 623.5,-96.68 630.5,-96.68"/>
</g>
<!-- Node11&#45;&gt;Node5 -->
<g id="edge19" class="edge">
<title>Node11&#45;&gt;Node5</title>
<path fill="none" stroke="#63b8ff" d="M682.84,-85.43C700.72,-92.97 718.57,-104.26 729,-121 739.53,-137.89 732.73,-160.84 725.4,-176.78"/>
<polygon fill="#63b8ff" stroke="#63b8ff" points="722.32,-175.12 720.9,-185.62 728.55,-178.3 722.32,-175.12"/>
</g>
<!-- Node12&#45;&gt;Node2 -->
<g id="edge21" class="edge">
<title>Node12&#45;&gt;Node2</title>
<path fill="none" stroke="#63b8ff" d="M509.68,-151.47C533.59,-171.96 573.08,-209.6 596.15,-233.68"/>
<polygon fill="#63b8ff" stroke="#63b8ff" points="593.41,-235.88 602.81,-240.78 598.52,-231.09 593.41,-235.88"/>
</g>
<!-- Node12&#45;&gt;Node5 -->
<g id="edge22" class="edge">
<title>Node12&#45;&gt;Node5</title>
<path fill="none" stroke="#63b8ff" d="M549.66,-150.99C589.33,-160.97 640.28,-174.24 675.12,-183.69"/>
<polygon fill="#63b8ff" stroke="#63b8ff" points="673.81,-186.96 684.38,-186.22 675.65,-180.21 673.81,-186.96"/>
</g>
<!-- Node12&#45;&gt;Node11 -->
<g id="edge23" class="edge">
<title>Node12&#45;&gt;Node11</title>
<path fill="none" stroke="#63b8ff" d="M520.75,-120.64C540.05,-111.62 565.17,-99.89 586.13,-90.09"/>
<polygon fill="#63b8ff" stroke="#63b8ff" points="587.41,-93.36 594.99,-85.96 584.44,-87.02 587.41,-93.36"/>
</g>
<!-- Node13&#45;&gt;Node5 -->
<g id="edge25" class="edge">
<title>Node13&#45;&gt;Node5</title>
<path fill="none" stroke="#63b8ff" d="M1075.13,-145.97C1066.67,-147.75 1057.55,-149.52 1049,-151 964.61,-165.58 867.22,-178.38 799.4,-186.47"/>
<polygon fill="#63b8ff" stroke="#63b8ff" points="799.38,-182.95 789.86,-187.6 800.2,-189.9 799.38,-182.95"/>
</g>
<!-- Node15&#45;&gt;Node2 -->
<g id="edge28" class="edge">
<title>Node15&#45;&gt;Node2</title>
<path fill="none" stroke="#63b8ff" d="M1183.2,-151.15C1008.33,-184.75 802.73,-222.88 692.73,-242.6"/>
<polygon fill="#63b8ff" stroke="#63b8ff" points="692.13,-239.15 682.91,-244.35 693.37,-246.04 692.13,-239.15"/>
</g>
<!-- Node15&#45;&gt;Node5 -->
<g id="edge29" class="edge">
<title>Node15&#45;&gt;Node5</title>
<path fill="none" stroke="#63b8ff" d="M1183.19,-151.12C1049.99,-170.61 894,-183.62 799.86,-190.27"/>
<polygon fill="#63b8ff" stroke="#63b8ff" points="799.66,-186.78 789.92,-190.97 800.14,-193.76 799.66,-186.78"/>
</g>
<!-- Node15&#45;&gt;Node16 -->
<g id="edge30" class="edge">
<title>Node15&#45;&gt;Node16</title>
<path fill="none" stroke="#63b8ff" d="M1292.49,-120.56C1328.52,-109.36 1377.93,-94.01 1412.16,-83.38"/>
<polygon fill="#63b8ff" stroke="#63b8ff" points="1413.19,-86.72 1421.71,-80.41 1411.12,-80.04 1413.19,-86.72"/>
</g>
<!-- Node16&#45;&gt;Node2 -->
<g id="edge32" class="edge">
<title>Node16&#45;&gt;Node2</title>
<path fill="none" stroke="#63b8ff" d="M1460.36,-79.75C1469.39,-96 1477.65,-131.01 1460,-151 1409.82,-207.85 893.03,-241.44 692.68,-252.19"/>
<polygon fill="#63b8ff" stroke="#63b8ff" points="692.69,-248.69 682.89,-252.71 693.06,-255.68 692.69,-248.69"/>
</g>
<!-- Node17 -->
<g id="node17" class="node">
<title>Node17</title>
<g id="a_node17"><a xlink:title=" ">
<polygon fill="#e0e0e0" stroke="#999999" points="1525,-19 1479,-19 1479,0 1525,0 1525,-19"/>
<text text-anchor="middle" x="1502" y="-7" font-family="Helvetica,sans-Serif" font-size="10.00">stdio.h</text>
</a>
</g>
</g>
<!-- Node16&#45;&gt;Node17 -->
<g id="edge31" class="edge">
<title>Node16&#45;&gt;Node17</title>
<path fill="none" stroke="#63b8ff" d="M1459.38,-60.37C1466.69,-51.81 1478.09,-38.47 1487.26,-27.74"/>
<polygon fill="#63b8ff" stroke="#63b8ff" points="1489.77,-30.19 1493.61,-20.32 1484.45,-25.65 1489.77,-30.19"/>
</g>
<!-- Node19&#45;&gt;Node2 -->
<g id="edge46" class="edge">
<title>Node19&#45;&gt;Node2</title>
<path fill="none" stroke="#63b8ff" d="M688.63,-307.62C677.12,-299.96 660.04,-288.61 645.13,-278.69"/>
<polygon fill="#63b8ff" stroke="#63b8ff" points="647.25,-275.9 636.98,-273.28 643.37,-281.73 647.25,-275.9"/>
</g>
<!-- Node19&#45;&gt;Node5 -->
<g id="edge47" class="edge">
<title>Node19&#45;&gt;Node5</title>
<path fill="none" stroke="#63b8ff" d="M702.98,-307.56C705.06,-288.51 709.97,-243.56 712.83,-217.37"/>
<polygon fill="#63b8ff" stroke="#63b8ff" points="716.28,-218.05 713.88,-207.73 709.32,-217.29 716.28,-218.05"/>
</g>
<!-- Node19&#45;&gt;Node17 -->
<g id="edge45" class="edge">
<title>Node19&#45;&gt;Node17</title>
<path fill="none" stroke="#63b8ff" d="M750.44,-314.86C930.66,-308.14 1552,-279.04 1552,-197.5 1552,-197.5 1552,-197.5 1552,-135 1552,-98.46 1547.93,-88.36 1533,-55 1528.78,-45.57 1522.49,-36.06 1516.67,-28.25"/>
<polygon fill="#63b8ff" stroke="#63b8ff" points="1519.61,-26.33 1510.68,-20.62 1514.1,-30.65 1519.61,-26.33"/>
</g>
</g>
</svg>
        <g id="navigator" transform="translate(0 0)" fill="#404254">
                <rect fill="#f2f5e9" fill-opacity="0.5" stroke="#606060" stroke-width=".5" x="0" y="0" width="60" height="60"/>
                <use id="zoomplus" xlink:href="#zoomPlus" x="17" y="9" onmousedown="handleZoom(evt,'in')"/>
                <use id="zoomminus" xlink:href="#zoomMin" x="42" y="9" onmousedown="handleZoom(evt,'out')"/>
                <use id="reset" xlink:href="#resetDef" x="30" y="36" onmousedown="handleReset()"/>
                <g id="arrowUp" xlink:href="#dirArrow" transform="translate(30 24)" onmousedown="handlePan(0,-1)">
                  <use xlink:href="#rim" fill="#404040">
                        <set attributeName="fill" to="#808080" begin="arrowUp.mouseover" end="arrowUp.mouseout"/>
                  </use>
                  <path fill="none" stroke="white" stroke-width="1.5" d="M0,-3.0v7 M-2.5,-0.5L0,-3.0L2.5,-0.5"/>
                </g>
                <g id="arrowRight" xlink:href="#dirArrow" transform="rotate(90) translate(36 -43)" onmousedown="handlePan(1,0)">
                  <use xlink:href="#rim" fill="#404040">
                        <set attributeName="fill" to="#808080" begin="arrowRight.mouseover" end="arrowRight.mouseout"/>
                  </use>
                  <path fill="none" stroke="white" stroke-width="1.5" d="M0,-3.0v7 M-2.5,-0.5L0,-3.0L2.5,-0.5"/>
                </g>
                <g id="arrowDown" xlink:href="#dirArrow" transform="rotate(180) translate(-30 -48)" onmousedown="handlePan(0,1)">
                  <use xlink:href="#rim" fill="#404040">
                        <set attributeName="fill" to="#808080" begin="arrowDown.mouseover" end="arrowDown.mouseout"/>
                  </use>
                  <path fill="none" stroke="white" stroke-width="1.5" d="M0,-3.0v7 M-2.5,-0.5L0,-3.0L2.5,-0.5"/>
                </g>
                <g id="arrowLeft" xlink:href="#dirArrow" transform="rotate(270) translate(-36 17)" onmousedown="handlePan(-1,0)">
                  <use xlink:href="#rim" fill="#404040">
                        <set attributeName="fill" to="#808080" begin="arrowLeft.mouseover" end="arrowLeft.mouseout"/>
                  </use>
                  <path fill="none" stroke="white" stroke-width="1.5" d="M0,-3.0v7 M-2.5,-0.5L0,-3.0L2.5,-0.5"/>
                </g>
        </g>
        <svg viewBox="0 0 15 15" width="100%" height="30px" preserveAspectRatio="xMaxYMin meet">
         <g id="arrow_out" transform="scale(0.3 0.3)">
          <a xlink:href="cofold_8h__incl_org.svg" target="_base">
           <rect id="button" ry="5" rx="5" y="6" x="6" height="38" width="38"
                fill="#f2f5e9" fill-opacity="0.5" stroke="#606060" stroke-width="1.0"/>
           <path id="arrow"
             d="M 11.500037,31.436501 C 11.940474,20.09759 22.043105,11.32322 32.158766,21.979434 L 37.068811,17.246167 C 37.068811,17.246167 37.088388,32 37.088388,32 L 22.160133,31.978069 C 22.160133,31.978069 26.997745,27.140456 26.997745,27.140456 C 18.528582,18.264221 13.291696,25.230495 11.500037,31.436501 z"
             style="fill:#404040;"/>
          </a>
         </g>
        </svg>
</svg>
