<?xml version="1.0" encoding="UTF-8" standalone="no"?>
<!DOCTYPE svg PUBLIC "-//W3C//DTD SVG 1.1//EN"
 "http://www.w3.org/Graphics/SVG/1.1/DTD/svg11.dtd">
<!-- Generated by graphviz version 7.1.0 (0)
 -->
<!-- Title: ViennaRNA/concentrations.h Pages: 1 -->
<!--zoomable 390 -->
<svg id="main" version="1.1" xmlns="http://www.w3.org/2000/svg" xmlns:xlink="http://www.w3.org/1999/xlink" xml:space="preserve" onload="init(evt)">
<style type="text/css"><![CDATA[
.edge:hover path { stroke: red; }
.edge:hover polygon { stroke: red; fill: red; }
]]></style>
<script type="text/javascript"><![CDATA[
var edges = document.getElementsByTagName('g');
if (edges && edges.length) {
  for (var i=0;i<edges.length;i++) {
    if (edges[i].id.substr(0,4)=='edge') {
      edges[i].setAttribute('class','edge');
    }
  }
}
]]></script>
        <defs>
                <circle id="rim" cx="0" cy="0" r="7"/>
                <circle id="rim2" cx="0" cy="0" r="3.5"/>
                <g id="zoomPlus">
                        <use xlink:href="#rim" fill="#404040">
                                <set attributeName="fill" to="#808080" begin="zoomplus.mouseover" end="zoomplus.mouseout"/>
                        </use>
                        <path d="M-4,0h8M0,-4v8" fill="none" stroke="white" stroke-width="1.5" pointer-events="none"/>
                </g>
                <g id="zoomMin">
                        <use xlink:href="#rim" fill="#404040">
                                <set attributeName="fill" to="#808080" begin="zoomminus.mouseover" end="zoomminus.mouseout"/>
                        </use>
                        <path d="M-4,0h8" fill="none" stroke="white" stroke-width="1.5" pointer-events="none"/>
                </g>
                <g id="dirArrow">
                        <path fill="none" stroke="white" stroke-width="1.5" d="M0,-3.0v7 M-2.5,-0.5L0,-3.0L2.5,-0.5"/>
                </g>
               <g id="resetDef">
                       <use xlink:href="#rim2" fill="#404040">
                               <set attributeName="fill" to="#808080" begin="reset.mouseover" end="reset.mouseout"/>
                       </use>
               </g>
        </defs>

<script type="text/javascript">
var viewWidth = 1432;
var viewHeight = 390;
var sectionId = 'dynsection-0';
</script>
<script xlink:href="svgpan.js"/>
<svg id="graph" class="graph">
<g id="viewport">
<title>ViennaRNA/concentrations.h</title>
<!-- Node1 -->
<g id="node1" class="node">
<title>Node1</title>
<g id="a_node1"><a xlink:title="Concentration computations for RNA&#45;RNA interactions.">
<polygon fill="#999999" stroke="#666666" points="818.5,-382 675.5,-382 675.5,-363 818.5,-363 818.5,-382"/>
<text text-anchor="middle" x="747" y="-370" font-family="Helvetica,sans-Serif" font-size="10.00">ViennaRNA/concentrations.h</text>
</a>
</g>
</g>
<!-- Node2 -->
<g id="node2" class="node">
<title>Node2</title>
<g id="a_node2"><a xlink:href="params_2basic_8h.html" target="_top" xlink:title="Functions to deal with sets of energy parameters.">
<polygon fill="white" stroke="#666666" points="816,-327 678,-327 678,-308 816,-308 816,-327"/>
<text text-anchor="middle" x="747" y="-315" font-family="Helvetica,sans-Serif" font-size="10.00">ViennaRNA/params/basic.h</text>
</a>
</g>
</g>
<!-- Node1&#45;&gt;Node2 -->
<g id="edge1" class="edge">
<title>Node1&#45;&gt;Node2</title>
<path fill="none" stroke="#63b8ff" d="M747,-362.75C747,-356.27 747,-347.16 747,-338.9"/>
<polygon fill="#63b8ff" stroke="#63b8ff" points="750.5,-338.96 747,-328.96 743.5,-338.96 750.5,-338.96"/>
</g>
<!-- Node3 -->
<g id="node3" class="node">
<title>Node3</title>
<g id="a_node3"><a xlink:href="constants_8h.html" target="_top" xlink:title="Energy parameter constants.">
<polygon fill="white" stroke="#666666" points="487,-206 329,-206 329,-187 487,-187 487,-206"/>
<text text-anchor="middle" x="408" y="-194" font-family="Helvetica,sans-Serif" font-size="10.00">ViennaRNA/params/constants.h</text>
</a>
</g>
</g>
<!-- Node2&#45;&gt;Node3 -->
<g id="edge2" class="edge">
<title>Node2&#45;&gt;Node3</title>
<path fill="none" stroke="#63b8ff" d="M677.74,-313.1C626.89,-308.47 557.19,-297.58 501,-272 470.38,-258.06 441.12,-231.76 423.86,-214.43"/>
<polygon fill="#63b8ff" stroke="#63b8ff" points="426.51,-212.14 417.04,-207.39 421.48,-217.01 426.51,-212.14"/>
</g>
<!-- Node5 -->
<g id="node5" class="node">
<title>Node5</title>
<g id="a_node5"><a xlink:href="datastructures_2basic_8h.html" target="_top" xlink:title="Various data structures and pre&#45;processor macros.">
<polygon fill="white" stroke="#666666" points="918,-272 784,-272 784,-242 918,-242 918,-272"/>
<text text-anchor="start" x="792" y="-260" font-family="Helvetica,sans-Serif" font-size="10.00">ViennaRNA/datastructures</text>
<text text-anchor="middle" x="851" y="-249" font-family="Helvetica,sans-Serif" font-size="10.00">/basic.h</text>
</a>
</g>
</g>
<!-- Node2&#45;&gt;Node5 -->
<g id="edge4" class="edge">
<title>Node2&#45;&gt;Node5</title>
<path fill="none" stroke="#63b8ff" d="M757.79,-307.62C770.13,-299.74 790.6,-287.96 809.29,-277.85"/>
<polygon fill="#63b8ff" stroke="#63b8ff" points="810.91,-280.95 818.08,-273.15 807.61,-274.77 810.91,-280.95"/>
</g>
<!-- Node6 -->
<g id="node6" class="node">
<title>Node6</title>
<g id="a_node6"><a xlink:href="fold__compound_8h.html" target="_top" xlink:title="The Basic Fold Compound API.">
<polygon fill="white" stroke="#666666" points="821,-206 675,-206 675,-187 821,-187 821,-206"/>
<text text-anchor="middle" x="748" y="-194" font-family="Helvetica,sans-Serif" font-size="10.00">ViennaRNA/fold_compound.h</text>
</a>
</g>
</g>
<!-- Node2&#45;&gt;Node6 -->
<g id="edge41" class="edge">
<title>Node2&#45;&gt;Node6</title>
<path fill="none" stroke="#63b8ff" d="M743.3,-307.56C740.04,-288.51 739.95,-243.56 742.65,-217.37"/>
<polygon fill="#63b8ff" stroke="#63b8ff" points="746.08,-218.11 743.98,-207.72 739.14,-217.15 746.08,-218.11"/>
</g>
<!-- Node7 -->
<g id="node7" class="node">
<title>Node7</title>
<g id="a_node7"><a xlink:href="model_8h.html" target="_top" xlink:title="The model details data structure and its corresponding modifiers.">
<polygon fill="white" stroke="#666666" points="172,-145.5 66,-145.5 66,-126.5 172,-126.5 172,-145.5"/>
<text text-anchor="middle" x="119" y="-133.5" font-family="Helvetica,sans-Serif" font-size="10.00">ViennaRNA/model.h</text>
</a>
</g>
</g>
<!-- Node2&#45;&gt;Node7 -->
<g id="edge42" class="edge">
<title>Node2&#45;&gt;Node7</title>
<path fill="none" stroke="#63b8ff" d="M728.45,-307.51C690.62,-289.09 601.97,-245.46 529,-206 514.11,-197.95 512.07,-192.29 496,-187 362.16,-142.93 319.93,-174.55 181,-151 176.35,-150.21 171.52,-149.3 166.71,-148.32"/>
<polygon fill="#63b8ff" stroke="#63b8ff" points="167.58,-144.92 157.07,-146.27 166.12,-151.77 167.58,-144.92"/>
</g>
<!-- Node4 -->
<g id="node4" class="node">
<title>Node4</title>
<g id="a_node4"><a xlink:title=" ">
<polygon fill="#e0e0e0" stroke="#999999" points="48,-145.5 0,-145.5 0,-126.5 48,-126.5 48,-145.5"/>
<text text-anchor="middle" x="24" y="-133.5" font-family="Helvetica,sans-Serif" font-size="10.00">limits.h</text>
</a>
</g>
</g>
<!-- Node3&#45;&gt;Node4 -->
<g id="edge3" class="edge">
<title>Node3&#45;&gt;Node4</title>
<path fill="none" stroke="#63b8ff" d="M328.73,-191.68C256.79,-186.75 148.33,-175.65 57,-151 55.65,-150.64 54.28,-150.23 52.91,-149.78"/>
<polygon fill="#63b8ff" stroke="#63b8ff" points="54.54,-146.66 43.95,-146.44 52.09,-153.22 54.54,-146.66"/>
</g>
<!-- Node5&#45;&gt;Node2 -->
<g id="edge33" class="edge">
<title>Node5&#45;&gt;Node2</title>
<path fill="none" stroke="#63b8ff" d="M831.24,-272.44C816.15,-281.56 795.28,-293.3 778.01,-302.36"/>
<polygon fill="#63b8ff" stroke="#63b8ff" points="776.44,-299.23 769.15,-306.92 779.64,-305.46 776.44,-299.23"/>
</g>
<!-- Node5&#45;&gt;Node3 -->
<g id="edge5" class="edge">
<title>Node5&#45;&gt;Node3</title>
<path fill="none" stroke="#63b8ff" d="M783.72,-247.12C704.11,-236.6 571.75,-219.12 487.25,-207.97"/>
<polygon fill="#63b8ff" stroke="#63b8ff" points="487.79,-204.51 477.42,-206.67 486.87,-211.45 487.79,-204.51"/>
</g>
<!-- Node5&#45;&gt;Node6 -->
<g id="edge6" class="edge">
<title>Node5&#45;&gt;Node6</title>
<path fill="none" stroke="#63b8ff" d="M825.54,-241.54C809.61,-232.49 789.17,-220.88 773.27,-211.85"/>
<polygon fill="#63b8ff" stroke="#63b8ff" points="775.32,-208.99 764.89,-207.09 771.86,-215.08 775.32,-208.99"/>
</g>
<!-- Node5&#45;&gt;Node7 -->
<g id="edge32" class="edge">
<title>Node5&#45;&gt;Node7</title>
<path fill="none" stroke="#63b8ff" d="M783.67,-249.7C725.26,-242.93 639.02,-229.78 567,-206 549.07,-200.08 547.13,-192.28 529,-187 379.71,-143.53 334.44,-176.17 181,-151 176.28,-150.23 171.39,-149.31 166.51,-148.33"/>
<polygon fill="#63b8ff" stroke="#63b8ff" points="167.24,-144.91 156.73,-146.26 165.79,-151.76 167.24,-144.91"/>
</g>
<!-- Node9 -->
<g id="node9" class="node">
<title>Node9</title>
<g id="a_node9"><a xlink:href="dp__matrices_8h.html" target="_top" xlink:title="Functions to deal with standard dynamic programming (DP) matrices.">
<polygon fill="white" stroke="#666666" points="1171.5,-145.5 1038.5,-145.5 1038.5,-126.5 1171.5,-126.5 1171.5,-145.5"/>
<text text-anchor="middle" x="1105" y="-133.5" font-family="Helvetica,sans-Serif" font-size="10.00">ViennaRNA/dp_matrices.h</text>
</a>
</g>
</g>
<!-- Node5&#45;&gt;Node9 -->
<g id="edge34" class="edge">
<title>Node5&#45;&gt;Node9</title>
<path fill="none" stroke="#63b8ff" d="M877.05,-241.65C923.55,-218.49 1020.22,-173.22 1071.54,-150.58"/>
<polygon fill="#63b8ff" stroke="#63b8ff" points="1072.92,-153.79 1080.68,-146.58 1070.12,-147.38 1072.92,-153.79"/>
</g>
<!-- Node10 -->
<g id="node10" class="node">
<title>Node10</title>
<g id="a_node10"><a xlink:href="hard_8h.html" target="_top" xlink:title="Functions and data structures for handling of secondary structure hard constraints.">
<polygon fill="white" stroke="#666666" points="885.5,-151 766.5,-151 766.5,-121 885.5,-121 885.5,-151"/>
<text text-anchor="start" x="774.5" y="-139" font-family="Helvetica,sans-Serif" font-size="10.00">ViennaRNA/constraints</text>
<text text-anchor="middle" x="826" y="-128" font-family="Helvetica,sans-Serif" font-size="10.00">/hard.h</text>
</a>
</g>
</g>
<!-- Node5&#45;&gt;Node10 -->
<g id="edge35" class="edge">
<title>Node5&#45;&gt;Node10</title>
<path fill="none" stroke="#63b8ff" d="M848.03,-241.88C843.94,-222.39 836.49,-186.92 831.39,-162.67"/>
<polygon fill="#63b8ff" stroke="#63b8ff" points="834.83,-162.02 829.35,-152.95 827.98,-163.46 834.83,-162.02"/>
</g>
<!-- Node12 -->
<g id="node12" class="node">
<title>Node12</title>
<g id="a_node12"><a xlink:href="soft_8h.html" target="_top" xlink:title="Functions and data structures for secondary structure soft constraints.">
<polygon fill="white" stroke="#666666" points="442.5,-151 323.5,-151 323.5,-121 442.5,-121 442.5,-151"/>
<text text-anchor="start" x="331.5" y="-139" font-family="Helvetica,sans-Serif" font-size="10.00">ViennaRNA/constraints</text>
<text text-anchor="middle" x="383" y="-128" font-family="Helvetica,sans-Serif" font-size="10.00">/soft.h</text>
</a>
</g>
</g>
<!-- Node5&#45;&gt;Node12 -->
<g id="edge36" class="edge">
<title>Node5&#45;&gt;Node12</title>
<path fill="none" stroke="#63b8ff" d="M787.73,-241.56C749.58,-231.86 700.29,-218.59 657,-206 629.73,-198.07 623.43,-194.35 596,-187 548.81,-174.36 495.41,-162.26 453.82,-153.14"/>
<polygon fill="#63b8ff" stroke="#63b8ff" points="454.69,-149.74 444.17,-151.03 453.2,-156.58 454.69,-149.74"/>
</g>
<!-- Node13 -->
<g id="node13" class="node">
<title>Node13</title>
<g id="a_node13"><a xlink:href="grammar_8h.html" target="_top" xlink:title="Implementations for the RNA folding grammar.">
<polygon fill="white" stroke="#666666" points="1020.5,-145.5 903.5,-145.5 903.5,-126.5 1020.5,-126.5 1020.5,-145.5"/>
<text text-anchor="middle" x="962" y="-133.5" font-family="Helvetica,sans-Serif" font-size="10.00">ViennaRNA/grammar.h</text>
</a>
</g>
</g>
<!-- Node5&#45;&gt;Node13 -->
<g id="edge37" class="edge">
<title>Node5&#45;&gt;Node13</title>
<path fill="none" stroke="#63b8ff" d="M864.17,-241.88C884.65,-219.92 924.07,-177.66 946.1,-154.04"/>
<polygon fill="#63b8ff" stroke="#63b8ff" points="948.58,-156.52 952.84,-146.82 943.46,-151.74 948.58,-156.52"/>
</g>
<!-- Node14 -->
<g id="node14" class="node">
<title>Node14</title>
<g id="a_node14"><a xlink:href="structured__domains_8h.html" target="_top" xlink:title="This module provides interfaces that deal with additional structured domains in the folding grammar.">
<polygon fill="white" stroke="#666666" points="305.5,-151 190.5,-151 190.5,-121 305.5,-121 305.5,-151"/>
<text text-anchor="start" x="198.5" y="-139" font-family="Helvetica,sans-Serif" font-size="10.00">ViennaRNA/structured</text>
<text text-anchor="middle" x="248" y="-128" font-family="Helvetica,sans-Serif" font-size="10.00">_domains.h</text>
</a>
</g>
</g>
<!-- Node5&#45;&gt;Node14 -->
<g id="edge38" class="edge">
<title>Node5&#45;&gt;Node14</title>
<path fill="none" stroke="#63b8ff" d="M783.7,-247.21C733.53,-239.49 663.81,-226.28 605,-206 587.15,-199.84 585.03,-192.63 567,-187 462.07,-154.26 428.03,-169.71 317.23,-151.45"/>
<polygon fill="#63b8ff" stroke="#63b8ff" points="317.84,-148.01 307.4,-149.77 316.66,-154.91 317.84,-148.01"/>
</g>
<!-- Node15 -->
<g id="node15" class="node">
<title>Node15</title>
<g id="a_node15"><a xlink:href="unstructured__domains_8h.html" target="_top" xlink:title="Functions to modify unstructured domains, e.g. to incorporate ligands binding to unpaired stretches.">
<polygon fill="white" stroke="#666666" points="1314.5,-151 1189.5,-151 1189.5,-121 1314.5,-121 1314.5,-151"/>
<text text-anchor="start" x="1197.5" y="-139" font-family="Helvetica,sans-Serif" font-size="10.00">ViennaRNA/unstructured</text>
<text text-anchor="middle" x="1252" y="-128" font-family="Helvetica,sans-Serif" font-size="10.00">_domains.h</text>
</a>
</g>
</g>
<!-- Node5&#45;&gt;Node15 -->
<g id="edge39" class="edge">
<title>Node5&#45;&gt;Node15</title>
<path fill="none" stroke="#63b8ff" d="M895.17,-241.53C966.16,-219.65 1105.71,-178.2 1187.73,-154.6"/>
<polygon fill="#63b8ff" stroke="#63b8ff" points="1188.56,-158 1197.2,-151.88 1186.63,-151.28 1188.56,-158"/>
</g>
<!-- Node16 -->
<g id="node16" class="node">
<title>Node16</title>
<g id="a_node16"><a xlink:href="utils_2structures_8h.html" target="_top" xlink:title="Various utility&#45; and helper&#45;functions for secondary structure parsing, converting,...">
<polygon fill="white" stroke="#666666" points="1424,-79.5 1280,-79.5 1280,-60.5 1424,-60.5 1424,-79.5"/>
<text text-anchor="middle" x="1352" y="-67.5" font-family="Helvetica,sans-Serif" font-size="10.00">ViennaRNA/utils/structures.h</text>
</a>
</g>
</g>
<!-- Node5&#45;&gt;Node16 -->
<g id="edge40" class="edge">
<title>Node5&#45;&gt;Node16</title>
<path fill="none" stroke="#63b8ff" d="M918.17,-248.5C1032.12,-235.01 1256.36,-203.09 1315,-151 1332.16,-135.76 1338.81,-109.38 1343.41,-91.11"/>
<polygon fill="#63b8ff" stroke="#63b8ff" points="1346.79,-92.01 1345.99,-81.44 1340.03,-90.2 1346.79,-92.01"/>
</g>
<!-- Node6&#45;&gt;Node2 -->
<g id="edge8" class="edge">
<title>Node6&#45;&gt;Node2</title>
<path fill="none" stroke="#63b8ff" d="M751.66,-206.22C754.95,-225.07 755.06,-269.99 752.39,-296.32"/>
<polygon fill="#63b8ff" stroke="#63b8ff" points="748.94,-295.67 751.05,-306.06 755.88,-296.62 748.94,-295.67"/>
</g>
<!-- Node6&#45;&gt;Node7 -->
<g id="edge7" class="edge">
<title>Node6&#45;&gt;Node7</title>
<path fill="none" stroke="#63b8ff" d="M674.68,-191.06C543.62,-182.91 274.17,-165.1 181,-151 176.02,-150.25 170.84,-149.32 165.69,-148.29"/>
<polygon fill="#63b8ff" stroke="#63b8ff" points="166.56,-144.9 156.05,-146.26 165.11,-151.75 166.56,-144.9"/>
</g>
<!-- Node8 -->
<g id="node8" class="node">
<title>Node8</title>
<g id="a_node8"><a xlink:href="sequence_8h.html" target="_top" xlink:title="Functions and data structures related to sequence representations ,.">
<polygon fill="white" stroke="#666666" points="583,-145.5 461,-145.5 461,-126.5 583,-126.5 583,-145.5"/>
<text text-anchor="middle" x="522" y="-133.5" font-family="Helvetica,sans-Serif" font-size="10.00">ViennaRNA/sequence.h</text>
</a>
</g>
</g>
<!-- Node6&#45;&gt;Node8 -->
<g id="edge9" class="edge">
<title>Node6&#45;&gt;Node8</title>
<path fill="none" stroke="#63b8ff" d="M708.41,-186.55C667.42,-176.49 603.92,-160.1 562.58,-148.94"/>
<polygon fill="#63b8ff" stroke="#63b8ff" points="563.57,-145.59 553,-146.34 561.74,-152.34 563.57,-145.59"/>
</g>
<!-- Node6&#45;&gt;Node9 -->
<g id="edge11" class="edge">
<title>Node6&#45;&gt;Node9</title>
<path fill="none" stroke="#63b8ff" d="M800.61,-186.51C855.48,-177.82 943.69,-164.07 1020,-151 1025.56,-150.05 1031.34,-149.03 1037.17,-148"/>
<polygon fill="#63b8ff" stroke="#63b8ff" points="1037.65,-151.47 1046.88,-146.26 1036.42,-144.57 1037.65,-151.47"/>
</g>
<!-- Node6&#45;&gt;Node10 -->
<g id="edge14" class="edge">
<title>Node6&#45;&gt;Node10</title>
<path fill="none" stroke="#63b8ff" d="M754.84,-186.62C763.35,-179.03 777.8,-167.82 791.53,-157.98"/>
<polygon fill="#63b8ff" stroke="#63b8ff" points="793.42,-160.92 799.6,-152.31 789.4,-155.19 793.42,-160.92"/>
</g>
<!-- Node6&#45;&gt;Node12 -->
<g id="edge18" class="edge">
<title>Node6&#45;&gt;Node12</title>
<path fill="none" stroke="#63b8ff" d="M674.66,-186.52C615.65,-178.55 530.48,-166.17 454.59,-153.03"/>
<polygon fill="#63b8ff" stroke="#63b8ff" points="455.41,-149.62 444.95,-151.34 454.2,-156.51 455.41,-149.62"/>
</g>
<!-- Node6&#45;&gt;Node13 -->
<g id="edge22" class="edge">
<title>Node6&#45;&gt;Node13</title>
<path fill="none" stroke="#63b8ff" d="M775.49,-186.62C810.29,-176.52 870.53,-160.01 913.18,-148.83"/>
<polygon fill="#63b8ff" stroke="#63b8ff" points="913.91,-152.26 922.7,-146.35 912.14,-145.48 913.91,-152.26"/>
</g>
<!-- Node6&#45;&gt;Node14 -->
<g id="edge24" class="edge">
<title>Node6&#45;&gt;Node14</title>
<path fill="none" stroke="#63b8ff" d="M674.74,-190.39C590.58,-183.98 448.14,-171.49 316.92,-151.36"/>
<polygon fill="#63b8ff" stroke="#63b8ff" points="317.8,-147.95 307.38,-149.88 316.72,-154.87 317.8,-147.95"/>
</g>
<!-- Node6&#45;&gt;Node15 -->
<g id="edge25" class="edge">
<title>Node6&#45;&gt;Node15</title>
<path fill="none" stroke="#63b8ff" d="M821.25,-189.42C905.8,-182.31 1048.69,-169.15 1171,-151 1173.31,-150.66 1175.66,-150.29 1178.04,-149.91"/>
<polygon fill="#63b8ff" stroke="#63b8ff" points="1178.52,-153.38 1187.79,-148.25 1177.35,-146.47 1178.52,-153.38"/>
</g>
<!-- Node18 -->
<g id="node18" class="node">
<title>Node18</title>
<g id="a_node18"><a xlink:href="zscore_8h_source.html" target="_top" xlink:title=" ">
<polygon fill="white" stroke="#666666" points="748.5,-145.5 639.5,-145.5 639.5,-126.5 748.5,-126.5 748.5,-145.5"/>
<text text-anchor="middle" x="694" y="-133.5" font-family="Helvetica,sans-Serif" font-size="10.00">ViennaRNA/zscore.h</text>
</a>
</g>
</g>
<!-- Node6&#45;&gt;Node18 -->
<g id="edge31" class="edge">
<title>Node6&#45;&gt;Node18</title>
<path fill="none" stroke="#63b8ff" d="M740.03,-186.87C732.06,-178.23 719.57,-164.7 709.61,-153.92"/>
<polygon fill="#63b8ff" stroke="#63b8ff" points="712.38,-151.75 703.03,-146.78 707.24,-156.5 712.38,-151.75"/>
</g>
<!-- Node8&#45;&gt;Node6 -->
<g id="edge10" class="edge">
<title>Node8&#45;&gt;Node6</title>
<path fill="none" stroke="#63b8ff" d="M561.67,-145.97C602.74,-156.05 666.36,-172.48 707.66,-183.62"/>
<polygon fill="#63b8ff" stroke="#63b8ff" points="706.66,-186.97 717.22,-186.22 708.49,-180.22 706.66,-186.97"/>
</g>
<!-- Node9&#45;&gt;Node5 -->
<g id="edge12" class="edge">
<title>Node9&#45;&gt;Node5</title>
<path fill="none" stroke="#63b8ff" d="M1089.66,-145.95C1052.05,-165.19 955.06,-210.84 896.88,-236.9"/>
<polygon fill="#63b8ff" stroke="#63b8ff" points="895.58,-233.65 887.87,-240.91 898.43,-240.04 895.58,-233.65"/>
</g>
<!-- Node9&#45;&gt;Node6 -->
<g id="edge13" class="edge">
<title>Node9&#45;&gt;Node6</title>
<path fill="none" stroke="#63b8ff" d="M1066.02,-146C1056.85,-147.7 1047.12,-149.44 1038,-151 966.31,-163.28 884.11,-176.16 825.51,-184.88"/>
<polygon fill="#63b8ff" stroke="#63b8ff" points="825.36,-181.36 815.98,-186.29 826.38,-188.29 825.36,-181.36"/>
</g>
<!-- Node10&#45;&gt;Node6 -->
<g id="edge15" class="edge">
<title>Node10&#45;&gt;Node6</title>
<path fill="none" stroke="#63b8ff" d="M812.66,-151.44C802.04,-160.22 787.14,-171.42 774.23,-180.33"/>
<polygon fill="#63b8ff" stroke="#63b8ff" points="772.47,-177.3 766.11,-185.77 776.37,-183.11 772.47,-177.3"/>
</g>
<!-- Node11 -->
<g id="node11" class="node">
<title>Node11</title>
<g id="a_node11"><a xlink:href="constraints_2basic_8h.html" target="_top" xlink:title="Functions and data structures for constraining secondary structure predictions and evaluation.">
<polygon fill="white" stroke="#666666" points="670.5,-85 551.5,-85 551.5,-55 670.5,-55 670.5,-85"/>
<text text-anchor="start" x="559.5" y="-73" font-family="Helvetica,sans-Serif" font-size="10.00">ViennaRNA/constraints</text>
<text text-anchor="middle" x="611" y="-62" font-family="Helvetica,sans-Serif" font-size="10.00">/basic.h</text>
</a>
</g>
</g>
<!-- Node10&#45;&gt;Node11 -->
<g id="edge16" class="edge">
<title>Node10&#45;&gt;Node11</title>
<path fill="none" stroke="#63b8ff" d="M777.48,-120.56C745.63,-111.08 703.78,-98.62 670,-88.56"/>
<polygon fill="#63b8ff" stroke="#63b8ff" points="671.38,-85.32 660.79,-85.82 669.38,-92.03 671.38,-85.32"/>
</g>
<!-- Node11&#45;&gt;Node6 -->
<g id="edge17" class="edge">
<title>Node11&#45;&gt;Node6</title>
<path fill="none" stroke="#63b8ff" d="M610.56,-85.23C610.78,-102.79 613.78,-132.57 630,-151 643.61,-166.46 663.14,-176.57 682.42,-183.17"/>
<polygon fill="#63b8ff" stroke="#63b8ff" points="681.34,-186.5 691.93,-186.12 683.42,-179.81 681.34,-186.5"/>
</g>
<!-- Node12&#45;&gt;Node5 -->
<g id="edge19" class="edge">
<title>Node12&#45;&gt;Node5</title>
<path fill="none" stroke="#63b8ff" d="M442.94,-147.64C489.94,-157.04 556.57,-171.61 614,-187 641.43,-194.35 647.73,-198.07 675,-206 714.06,-217.36 758.01,-229.27 792.29,-238.62"/>
<polygon fill="#63b8ff" stroke="#63b8ff" points="791.03,-241.9 801.6,-241.16 792.87,-235.15 791.03,-241.9"/>
</g>
<!-- Node12&#45;&gt;Node6 -->
<g id="edge20" class="edge">
<title>Node12&#45;&gt;Node6</title>
<path fill="none" stroke="#63b8ff" d="M442.75,-147.62C448.93,-148.8 455.1,-149.96 461,-151 534.76,-164.02 619.3,-176.49 677.49,-184.89"/>
<polygon fill="#63b8ff" stroke="#63b8ff" points="676.87,-188.34 687.27,-186.3 677.87,-181.41 676.87,-188.34"/>
</g>
<!-- Node12&#45;&gt;Node11 -->
<g id="edge21" class="edge">
<title>Node12&#45;&gt;Node11</title>
<path fill="none" stroke="#63b8ff" d="M434.45,-120.56C468.37,-111.04 513,-98.51 548.9,-88.43"/>
<polygon fill="#63b8ff" stroke="#63b8ff" points="549.6,-91.87 558.28,-85.8 547.7,-85.13 549.6,-91.87"/>
</g>
<!-- Node13&#45;&gt;Node6 -->
<g id="edge23" class="edge">
<title>Node13&#45;&gt;Node6</title>
<path fill="none" stroke="#63b8ff" d="M934.22,-145.97C899.28,-156.1 839.02,-172.62 796.47,-183.76"/>
<polygon fill="#63b8ff" stroke="#63b8ff" points="795.77,-180.33 786.98,-186.23 797.54,-187.1 795.77,-180.33"/>
</g>
<!-- Node15&#45;&gt;Node5 -->
<g id="edge26" class="edge">
<title>Node15&#45;&gt;Node5</title>
<path fill="none" stroke="#63b8ff" d="M1207.86,-151.46C1136.88,-173.34 997.33,-214.79 915.3,-238.39"/>
<polygon fill="#63b8ff" stroke="#63b8ff" points="914.47,-234.99 905.82,-241.11 916.4,-241.72 914.47,-234.99"/>
</g>
<!-- Node15&#45;&gt;Node6 -->
<g id="edge27" class="edge">
<title>Node15&#45;&gt;Node6</title>
<path fill="none" stroke="#63b8ff" d="M1188.62,-151.06C1065.63,-169.29 921.92,-182.48 832.86,-189.56"/>
<polygon fill="#63b8ff" stroke="#63b8ff" points="832.67,-186.06 822.97,-190.33 833.22,-193.04 832.67,-186.06"/>
</g>
<!-- Node15&#45;&gt;Node16 -->
<g id="edge28" class="edge">
<title>Node15&#45;&gt;Node16</title>
<path fill="none" stroke="#63b8ff" d="M1274.19,-120.8C1290.39,-110.43 1312.31,-96.4 1328.75,-85.88"/>
<polygon fill="#63b8ff" stroke="#63b8ff" points="1330.37,-89 1336.91,-80.66 1326.6,-83.1 1330.37,-89"/>
</g>
<!-- Node16&#45;&gt;Node5 -->
<g id="edge30" class="edge">
<title>Node16&#45;&gt;Node5</title>
<path fill="none" stroke="#63b8ff" d="M1356.79,-79.98C1359.31,-96.62 1354.12,-132.24 1333,-151 1274.44,-203.02 1050.74,-234.92 929.71,-248.45"/>
<polygon fill="#63b8ff" stroke="#63b8ff" points="929.39,-244.96 919.83,-249.53 930.16,-251.92 929.39,-244.96"/>
</g>
<!-- Node17 -->
<g id="node17" class="node">
<title>Node17</title>
<g id="a_node17"><a xlink:title=" ">
<polygon fill="#e0e0e0" stroke="#999999" points="1375,-19 1329,-19 1329,0 1375,0 1375,-19"/>
<text text-anchor="middle" x="1352" y="-7" font-family="Helvetica,sans-Serif" font-size="10.00">stdio.h</text>
</a>
</g>
</g>
<!-- Node16&#45;&gt;Node17 -->
<g id="edge29" class="edge">
<title>Node16&#45;&gt;Node17</title>
<path fill="none" stroke="#63b8ff" d="M1352,-60.37C1352,-52.5 1352,-40.6 1352,-30.39"/>
<polygon fill="#63b8ff" stroke="#63b8ff" points="1355.5,-30.68 1352,-20.68 1348.5,-30.68 1355.5,-30.68"/>
</g>
</g>
</svg>
        <g id="navigator" transform="translate(0 0)" fill="#404254">
                <rect fill="#f2f5e9" fill-opacity="0.5" stroke="#606060" stroke-width=".5" x="0" y="0" width="60" height="60"/>
                <use id="zoomplus" xlink:href="#zoomPlus" x="17" y="9" onmousedown="handleZoom(evt,'in')"/>
                <use id="zoomminus" xlink:href="#zoomMin" x="42" y="9" onmousedown="handleZoom(evt,'out')"/>
                <use id="reset" xlink:href="#resetDef" x="30" y="36" onmousedown="handleReset()"/>
                <g id="arrowUp" xlink:href="#dirArrow" transform="translate(30 24)" onmousedown="handlePan(0,-1)">
                  <use xlink:href="#rim" fill="#404040">
                        <set attributeName="fill" to="#808080" begin="arrowUp.mouseover" end="arrowUp.mouseout"/>
                  </use>
                  <path fill="none" stroke="white" stroke-width="1.5" d="M0,-3.0v7 M-2.5,-0.5L0,-3.0L2.5,-0.5"/>
                </g>
                <g id="arrowRight" xlink:href="#dirArrow" transform="rotate(90) translate(36 -43)" onmousedown="handlePan(1,0)">
                  <use xlink:href="#rim" fill="#404040">
                        <set attributeName="fill" to="#808080" begin="arrowRight.mouseover" end="arrowRight.mouseout"/>
                  </use>
                  <path fill="none" stroke="white" stroke-width="1.5" d="M0,-3.0v7 M-2.5,-0.5L0,-3.0L2.5,-0.5"/>
                </g>
                <g id="arrowDown" xlink:href="#dirArrow" transform="rotate(180) translate(-30 -48)" onmousedown="handlePan(0,1)">
                  <use xlink:href="#rim" fill="#404040">
                        <set attributeName="fill" to="#808080" begin="arrowDown.mouseover" end="arrowDown.mouseout"/>
                  </use>
                  <path fill="none" stroke="white" stroke-width="1.5" d="M0,-3.0v7 M-2.5,-0.5L0,-3.0L2.5,-0.5"/>
                </g>
                <g id="arrowLeft" xlink:href="#dirArrow" transform="rotate(270) translate(-36 17)" onmousedown="handlePan(-1,0)">
                  <use xlink:href="#rim" fill="#404040">
                        <set attributeName="fill" to="#808080" begin="arrowLeft.mouseover" end="arrowLeft.mouseout"/>
                  </use>
                  <path fill="none" stroke="white" stroke-width="1.5" d="M0,-3.0v7 M-2.5,-0.5L0,-3.0L2.5,-0.5"/>
                </g>
        </g>
        <svg viewBox="0 0 15 15" width="100%" height="30px" preserveAspectRatio="xMaxYMin meet">
         <g id="arrow_out" transform="scale(0.3 0.3)">
          <a xlink:href="concentrations_8h__incl_org.svg" target="_base">
           <rect id="button" ry="5" rx="5" y="6" x="6" height="38" width="38"
                fill="#f2f5e9" fill-opacity="0.5" stroke="#606060" stroke-width="1.0"/>
           <path id="arrow"
             d="M 11.500037,31.436501 C 11.940474,20.09759 22.043105,11.32322 32.158766,21.979434 L 37.068811,17.246167 C 37.068811,17.246167 37.088388,32 37.088388,32 L 22.160133,31.978069 C 22.160133,31.978069 26.997745,27.140456 26.997745,27.140456 C 18.528582,18.264221 13.291696,25.230495 11.500037,31.436501 z"
             style="fill:#404040;"/>
          </a>
         </g>
        </svg>
</svg>
