<?xml version="1.0" encoding="UTF-8" standalone="no"?>
<!DOCTYPE svg PUBLIC "-//W3C//DTD SVG 1.1//EN"
 "http://www.w3.org/Graphics/SVG/1.1/DTD/svg11.dtd">
<!-- Generated by graphviz version 7.1.0 (0)
 -->
<!-- Title: ViennaRNA/constraints.h Pages: 1 -->
<svg width="1183pt" height="445pt"
 viewBox="0.00 0.00 1183.00 445.00" xmlns="http://www.w3.org/2000/svg" xmlns:xlink="http://www.w3.org/1999/xlink">
<g id="graph0" class="graph" transform="scale(1 1) rotate(0) translate(4 441)">
<title>ViennaRNA/constraints.h</title>
<!-- Node1 -->
<g id="node1" class="node">
<title>Node1</title>
<g id="a_node1"><a xlink:title="Use ViennaRNA/constraints/basic.h instead.">
<polygon fill="#999999" stroke="#666666" points="1043.5,-437 915.5,-437 915.5,-418 1043.5,-418 1043.5,-437"/>
<text text-anchor="middle" x="979.5" y="-425" font-family="Helvetica,sans-Serif" font-size="10.00">ViennaRNA/constraints.h</text>
</a>
</g>
</g>
<!-- Node2 -->
<g id="node2" class="node">
<title>Node2</title>
<g id="a_node2"><a xlink:href="constraints_2basic_8h.html" target="_top" xlink:title="Functions and data structures for constraining secondary structure predictions and evaluation.">
<polygon fill="white" stroke="#666666" points="1127,-382 1008,-382 1008,-352 1127,-352 1127,-382"/>
<text text-anchor="start" x="1016" y="-370" font-family="Helvetica,sans-Serif" font-size="10.00">ViennaRNA/constraints</text>
<text text-anchor="middle" x="1067.5" y="-359" font-family="Helvetica,sans-Serif" font-size="10.00">/basic.h</text>
</a>
</g>
</g>
<!-- Node1&#45;&gt;Node2 -->
<g id="edge1" class="edge">
<title>Node1&#45;&gt;Node2</title>
<path fill="none" stroke="#63b8ff" d="M992.87,-417.62C1004.38,-409.96 1021.46,-398.61 1036.37,-388.69"/>
<polygon fill="#63b8ff" stroke="#63b8ff" points="1038.13,-391.73 1044.52,-383.28 1034.25,-385.9 1038.13,-391.73"/>
</g>
<!-- Node10 -->
<g id="node10" class="node">
<title>Node10</title>
<g id="a_node10"><a xlink:href="hard_8h.html" target="_top" xlink:title="Functions and data structures for handling of secondary structure hard constraints.">
<polygon fill="white" stroke="#666666" points="1038,-140 919,-140 919,-110 1038,-110 1038,-140"/>
<text text-anchor="start" x="927" y="-128" font-family="Helvetica,sans-Serif" font-size="10.00">ViennaRNA/constraints</text>
<text text-anchor="middle" x="978.5" y="-117" font-family="Helvetica,sans-Serif" font-size="10.00">/hard.h</text>
</a>
</g>
</g>
<!-- Node1&#45;&gt;Node10 -->
<g id="edge43" class="edge">
<title>Node1&#45;&gt;Node10</title>
<path fill="none" stroke="#63b8ff" d="M979.5,-417.54C979.5,-397.72 979.5,-348.61 979.5,-307.5 979.5,-307.5 979.5,-307.5 979.5,-250.5 979.5,-216.29 979.12,-176.8 978.83,-151.63"/>
<polygon fill="#63b8ff" stroke="#63b8ff" points="982.33,-151.66 978.71,-141.7 975.33,-151.74 982.33,-151.66"/>
</g>
<!-- Node11 -->
<g id="node11" class="node">
<title>Node11</title>
<g id="a_node11"><a xlink:href="soft_8h.html" target="_top" xlink:title="Functions and data structures for secondary structure soft constraints.">
<polygon fill="white" stroke="#666666" points="1175,-140 1056,-140 1056,-110 1175,-110 1175,-140"/>
<text text-anchor="start" x="1064" y="-128" font-family="Helvetica,sans-Serif" font-size="10.00">ViennaRNA/constraints</text>
<text text-anchor="middle" x="1115.5" y="-117" font-family="Helvetica,sans-Serif" font-size="10.00">/soft.h</text>
</a>
</g>
</g>
<!-- Node1&#45;&gt;Node11 -->
<g id="edge44" class="edge">
<title>Node1&#45;&gt;Node11</title>
<path fill="none" stroke="#63b8ff" d="M1043.69,-423.04C1075.6,-418.03 1112.39,-406.76 1136.5,-382 1160.34,-357.52 1155.5,-341.67 1155.5,-307.5 1155.5,-307.5 1155.5,-307.5 1155.5,-250.5 1155.5,-214.47 1140.13,-175.27 1128.44,-150.67"/>
<polygon fill="#63b8ff" stroke="#63b8ff" points="1131.64,-149.24 1124.07,-141.82 1125.36,-152.34 1131.64,-149.24"/>
</g>
<!-- Node19 -->
<g id="node19" class="node">
<title>Node19</title>
<g id="a_node19"><a xlink:href="SHAPE_8h.html" target="_top" xlink:title="This module provides function to incorporate SHAPE reactivity data into the folding recursions by mea...">
<polygon fill="white" stroke="#666666" points="784,-382 665,-382 665,-352 784,-352 784,-382"/>
<text text-anchor="start" x="673" y="-370" font-family="Helvetica,sans-Serif" font-size="10.00">ViennaRNA/constraints</text>
<text text-anchor="middle" x="724.5" y="-359" font-family="Helvetica,sans-Serif" font-size="10.00">/SHAPE.h</text>
</a>
</g>
</g>
<!-- Node1&#45;&gt;Node19 -->
<g id="edge45" class="edge">
<title>Node1&#45;&gt;Node19</title>
<path fill="none" stroke="#63b8ff" d="M940.49,-417.55C902,-408.72 842.28,-395.02 795.38,-384.26"/>
<polygon fill="#63b8ff" stroke="#63b8ff" points="796.37,-380.9 785.84,-382.07 794.81,-387.72 796.37,-380.9"/>
</g>
<!-- Node20 -->
<g id="node20" class="node">
<title>Node20</title>
<g id="a_node20"><a xlink:href="ligand_8h.html" target="_top" xlink:title="Functions for incorporation of ligands binding to hairpin and interior loop motifs using the soft con...">
<polygon fill="white" stroke="#666666" points="951,-382 832,-382 832,-352 951,-352 951,-382"/>
<text text-anchor="start" x="840" y="-370" font-family="Helvetica,sans-Serif" font-size="10.00">ViennaRNA/constraints</text>
<text text-anchor="middle" x="891.5" y="-359" font-family="Helvetica,sans-Serif" font-size="10.00">/ligand.h</text>
</a>
</g>
</g>
<!-- Node1&#45;&gt;Node20 -->
<g id="edge47" class="edge">
<title>Node1&#45;&gt;Node20</title>
<path fill="none" stroke="#63b8ff" d="M966.13,-417.62C954.62,-409.96 937.54,-398.61 922.63,-388.69"/>
<polygon fill="#63b8ff" stroke="#63b8ff" points="924.75,-385.9 914.48,-383.28 920.87,-391.73 924.75,-385.9"/>
</g>
<!-- Node3 -->
<g id="node3" class="node">
<title>Node3</title>
<g id="a_node3"><a xlink:href="fold__compound_8h.html" target="_top" xlink:title="The Basic Fold Compound API.">
<polygon fill="white" stroke="#666666" points="767.5,-316 621.5,-316 621.5,-297 767.5,-297 767.5,-316"/>
<text text-anchor="middle" x="694.5" y="-304" font-family="Helvetica,sans-Serif" font-size="10.00">ViennaRNA/fold_compound.h</text>
</a>
</g>
</g>
<!-- Node2&#45;&gt;Node3 -->
<g id="edge2" class="edge">
<title>Node2&#45;&gt;Node3</title>
<path fill="none" stroke="#63b8ff" d="M1007.57,-356.6C940.86,-346.14 833.23,-329.26 763.17,-318.27"/>
<polygon fill="#63b8ff" stroke="#63b8ff" points="763.75,-314.82 753.33,-316.73 762.66,-321.73 763.75,-314.82"/>
</g>
<!-- Node4 -->
<g id="node4" class="node">
<title>Node4</title>
<g id="a_node4"><a xlink:href="model_8h.html" target="_top" xlink:title="The model details data structure and its corresponding modifiers.">
<polygon fill="white" stroke="#666666" points="525.5,-134.5 419.5,-134.5 419.5,-115.5 525.5,-115.5 525.5,-134.5"/>
<text text-anchor="middle" x="472.5" y="-122.5" font-family="Helvetica,sans-Serif" font-size="10.00">ViennaRNA/model.h</text>
</a>
</g>
</g>
<!-- Node3&#45;&gt;Node4 -->
<g id="edge3" class="edge">
<title>Node3&#45;&gt;Node4</title>
<path fill="none" stroke="#63b8ff" d="M676.1,-296.56C659.8,-288.29 635.69,-275.16 616.5,-261 565.72,-223.52 513.47,-170.09 488.15,-143.06"/>
<polygon fill="#63b8ff" stroke="#63b8ff" points="491.04,-141.03 481.67,-136.08 485.91,-145.79 491.04,-141.03"/>
</g>
<!-- Node5 -->
<g id="node5" class="node">
<title>Node5</title>
<g id="a_node5"><a xlink:href="params_2basic_8h.html" target="_top" xlink:title="Functions to deal with sets of energy parameters.">
<polygon fill="white" stroke="#666666" points="763.5,-261 625.5,-261 625.5,-242 763.5,-242 763.5,-261"/>
<text text-anchor="middle" x="694.5" y="-249" font-family="Helvetica,sans-Serif" font-size="10.00">ViennaRNA/params/basic.h</text>
</a>
</g>
</g>
<!-- Node3&#45;&gt;Node5 -->
<g id="edge4" class="edge">
<title>Node3&#45;&gt;Node5</title>
<path fill="none" stroke="#63b8ff" d="M689.33,-296.75C687.92,-290.19 687.46,-280.95 687.93,-272.6"/>
<polygon fill="#63b8ff" stroke="#63b8ff" points="691.37,-273.3 689.11,-262.94 684.42,-272.45 691.37,-273.3"/>
</g>
<!-- Node9 -->
<g id="node9" class="node">
<title>Node9</title>
<g id="a_node9"><a xlink:href="dp__matrices_8h.html" target="_top" xlink:title="Functions to deal with standard dynamic programming (DP) matrices.">
<polygon fill="white" stroke="#666666" points="401,-134.5 268,-134.5 268,-115.5 401,-115.5 401,-134.5"/>
<text text-anchor="middle" x="334.5" y="-122.5" font-family="Helvetica,sans-Serif" font-size="10.00">ViennaRNA/dp_matrices.h</text>
</a>
</g>
</g>
<!-- Node3&#45;&gt;Node9 -->
<g id="edge36" class="edge">
<title>Node3&#45;&gt;Node9</title>
<path fill="none" stroke="#63b8ff" d="M621.43,-302.48C513.49,-297.1 322.15,-284.18 301.5,-261 272.18,-228.09 297.83,-172.16 317.68,-143.73"/>
<polygon fill="#63b8ff" stroke="#63b8ff" points="320.2,-146.19 323.44,-136.11 314.62,-141.97 320.2,-146.19"/>
</g>
<!-- Node3&#45;&gt;Node10 -->
<g id="edge37" class="edge">
<title>Node3&#45;&gt;Node10</title>
<path fill="none" stroke="#63b8ff" d="M721.61,-296.54C745.52,-289.11 780.46,-277.15 808.5,-261 864.27,-228.89 919.63,-176.92 951.61,-147.72"/>
<polygon fill="#63b8ff" stroke="#63b8ff" points="953.81,-150.45 958.87,-141.14 949.11,-145.26 953.81,-150.45"/>
</g>
<!-- Node3&#45;&gt;Node11 -->
<g id="edge38" class="edge">
<title>Node3&#45;&gt;Node11</title>
<path fill="none" stroke="#63b8ff" d="M727.8,-296.55C758.68,-288.79 805.28,-276.41 844.5,-261 930.23,-227.32 1024.93,-174.26 1076.73,-145.73"/>
<polygon fill="#63b8ff" stroke="#63b8ff" points="1078.1,-148.97 1085.18,-141.09 1074.73,-142.83 1078.1,-148.97"/>
</g>
<!-- Node12 -->
<g id="node12" class="node">
<title>Node12</title>
<g id="a_node12"><a xlink:href="grammar_8h.html" target="_top" xlink:title="Implementations for the RNA folding grammar.">
<polygon fill="white" stroke="#666666" points="117,-134.5 0,-134.5 0,-115.5 117,-115.5 117,-134.5"/>
<text text-anchor="middle" x="58.5" y="-122.5" font-family="Helvetica,sans-Serif" font-size="10.00">ViennaRNA/grammar.h</text>
</a>
</g>
</g>
<!-- Node3&#45;&gt;Node12 -->
<g id="edge39" class="edge">
<title>Node3&#45;&gt;Node12</title>
<path fill="none" stroke="#63b8ff" d="M621.15,-302.25C514.84,-296.67 323.87,-283.61 259.5,-261 181.71,-233.68 103.58,-172.42 72.25,-142.75"/>
<polygon fill="#63b8ff" stroke="#63b8ff" points="75.03,-140.57 65.47,-136.01 70.1,-145.54 75.03,-140.57"/>
</g>
<!-- Node13 -->
<g id="node13" class="node">
<title>Node13</title>
<g id="a_node13"><a xlink:href="structured__domains_8h.html" target="_top" xlink:title="This module provides interfaces that deal with additional structured domains in the folding grammar.">
<polygon fill="white" stroke="#666666" points="250,-140 135,-140 135,-110 250,-110 250,-140"/>
<text text-anchor="start" x="143" y="-128" font-family="Helvetica,sans-Serif" font-size="10.00">ViennaRNA/structured</text>
<text text-anchor="middle" x="192.5" y="-117" font-family="Helvetica,sans-Serif" font-size="10.00">_domains.h</text>
</a>
</g>
</g>
<!-- Node3&#45;&gt;Node13 -->
<g id="edge40" class="edge">
<title>Node3&#45;&gt;Node13</title>
<path fill="none" stroke="#63b8ff" d="M621.19,-304.08C521.77,-301.02 350.42,-291.36 296.5,-261 251.3,-235.55 219.23,-181.64 203.51,-150.19"/>
<polygon fill="#63b8ff" stroke="#63b8ff" points="206.79,-148.93 199.29,-141.45 200.48,-151.97 206.79,-148.93"/>
</g>
<!-- Node14 -->
<g id="node14" class="node">
<title>Node14</title>
<g id="a_node14"><a xlink:href="unstructured__domains_8h.html" target="_top" xlink:title="Functions to modify unstructured domains, e.g. to incorporate ligands binding to unpaired stretches.">
<polygon fill="white" stroke="#666666" points="901,-140 776,-140 776,-110 901,-110 901,-140"/>
<text text-anchor="start" x="784" y="-128" font-family="Helvetica,sans-Serif" font-size="10.00">ViennaRNA/unstructured</text>
<text text-anchor="middle" x="838.5" y="-117" font-family="Helvetica,sans-Serif" font-size="10.00">_domains.h</text>
</a>
</g>
</g>
<!-- Node3&#45;&gt;Node14 -->
<g id="edge41" class="edge">
<title>Node3&#45;&gt;Node14</title>
<path fill="none" stroke="#63b8ff" d="M720.04,-296.51C738.69,-289.65 763.17,-278.36 779.5,-261 808.54,-230.11 821.05,-180.89 828.8,-151.18"/>
<polygon fill="#63b8ff" stroke="#63b8ff" points="832.17,-152.15 831.37,-141.58 825.41,-150.33 832.17,-152.15"/>
</g>
<!-- Node17 -->
<g id="node17" class="node">
<title>Node17</title>
<g id="a_node17"><a xlink:href="sequence_8h.html" target="_top" xlink:title="Functions and data structures related to sequence representations ,.">
<polygon fill="white" stroke="#666666" points="441.5,-261 319.5,-261 319.5,-242 441.5,-242 441.5,-261"/>
<text text-anchor="middle" x="380.5" y="-249" font-family="Helvetica,sans-Serif" font-size="10.00">ViennaRNA/sequence.h</text>
</a>
</g>
</g>
<!-- Node3&#45;&gt;Node17 -->
<g id="edge34" class="edge">
<title>Node3&#45;&gt;Node17</title>
<path fill="none" stroke="#63b8ff" d="M636.02,-296.51C580,-287.38 496.03,-273.23 439.76,-263.45"/>
<polygon fill="#63b8ff" stroke="#63b8ff" points="440.49,-260.02 430.04,-261.75 439.29,-266.92 440.49,-260.02"/>
</g>
<!-- Node18 -->
<g id="node18" class="node">
<title>Node18</title>
<g id="a_node18"><a xlink:href="zscore_8h_source.html" target="_top" xlink:title=" ">
<polygon fill="white" stroke="#666666" points="569,-261 460,-261 460,-242 569,-242 569,-261"/>
<text text-anchor="middle" x="514.5" y="-249" font-family="Helvetica,sans-Serif" font-size="10.00">ViennaRNA/zscore.h</text>
</a>
</g>
</g>
<!-- Node3&#45;&gt;Node18 -->
<g id="edge42" class="edge">
<title>Node3&#45;&gt;Node18</title>
<path fill="none" stroke="#63b8ff" d="M663.97,-296.51C634.14,-287.73 588.54,-274.3 555.55,-264.59"/>
<polygon fill="#63b8ff" stroke="#63b8ff" points="556.92,-261.34 546.34,-261.87 554.94,-268.06 556.92,-261.34"/>
</g>
<!-- Node5&#45;&gt;Node3 -->
<g id="edge32" class="edge">
<title>Node5&#45;&gt;Node3</title>
<path fill="none" stroke="#63b8ff" d="M699.71,-261.44C701.08,-267.97 701.54,-277.1 701.07,-285.35"/>
<polygon fill="#63b8ff" stroke="#63b8ff" points="697.6,-284.89 699.85,-295.25 704.55,-285.75 697.6,-284.89"/>
</g>
<!-- Node5&#45;&gt;Node4 -->
<g id="edge33" class="edge">
<title>Node5&#45;&gt;Node4</title>
<path fill="none" stroke="#63b8ff" d="M681.83,-241.7C660.69,-227.19 616.68,-197.7 577.5,-176 553.13,-162.51 524.54,-149.04 503.35,-139.48"/>
<polygon fill="#63b8ff" stroke="#63b8ff" points="504.94,-136.36 494.38,-135.48 502.09,-142.75 504.94,-136.36"/>
</g>
<!-- Node6 -->
<g id="node6" class="node">
<title>Node6</title>
<g id="a_node6"><a xlink:href="constants_8h.html" target="_top" xlink:title="Energy parameter constants.">
<polygon fill="white" stroke="#666666" points="701.5,-134.5 543.5,-134.5 543.5,-115.5 701.5,-115.5 701.5,-134.5"/>
<text text-anchor="middle" x="622.5" y="-122.5" font-family="Helvetica,sans-Serif" font-size="10.00">ViennaRNA/params/constants.h</text>
</a>
</g>
</g>
<!-- Node5&#45;&gt;Node6 -->
<g id="edge5" class="edge">
<title>Node5&#45;&gt;Node6</title>
<path fill="none" stroke="#63b8ff" d="M686.33,-241.81C678.51,-233.19 666.73,-219.37 658.5,-206 646.43,-186.38 636.05,-162.01 629.58,-145.36"/>
<polygon fill="#63b8ff" stroke="#63b8ff" points="632.93,-144.31 626.13,-136.19 626.38,-146.78 632.93,-144.31"/>
</g>
<!-- Node8 -->
<g id="node8" class="node">
<title>Node8</title>
<g id="a_node8"><a xlink:href="datastructures_2basic_8h.html" target="_top" xlink:title="Various data structures and pre&#45;processor macros.">
<polygon fill="white" stroke="#666666" points="801.5,-206 667.5,-206 667.5,-176 801.5,-176 801.5,-206"/>
<text text-anchor="start" x="675.5" y="-194" font-family="Helvetica,sans-Serif" font-size="10.00">ViennaRNA/datastructures</text>
<text text-anchor="middle" x="734.5" y="-183" font-family="Helvetica,sans-Serif" font-size="10.00">/basic.h</text>
</a>
</g>
</g>
<!-- Node5&#45;&gt;Node8 -->
<g id="edge7" class="edge">
<title>Node5&#45;&gt;Node8</title>
<path fill="none" stroke="#63b8ff" d="M695.45,-241.87C698.75,-234.81 705.24,-224.5 712.1,-215.08"/>
<polygon fill="#63b8ff" stroke="#63b8ff" points="714.75,-217.38 718.06,-207.32 709.19,-213.12 714.75,-217.38"/>
</g>
<!-- Node7 -->
<g id="node7" class="node">
<title>Node7</title>
<g id="a_node7"><a xlink:title=" ">
<polygon fill="#e0e0e0" stroke="#999999" points="646.5,-74 598.5,-74 598.5,-55 646.5,-55 646.5,-74"/>
<text text-anchor="middle" x="622.5" y="-62" font-family="Helvetica,sans-Serif" font-size="10.00">limits.h</text>
</a>
</g>
</g>
<!-- Node6&#45;&gt;Node7 -->
<g id="edge6" class="edge">
<title>Node6&#45;&gt;Node7</title>
<path fill="none" stroke="#63b8ff" d="M622.5,-115.37C622.5,-107.5 622.5,-95.6 622.5,-85.39"/>
<polygon fill="#63b8ff" stroke="#63b8ff" points="626,-85.68 622.5,-75.68 619,-85.68 626,-85.68"/>
</g>
<!-- Node8&#45;&gt;Node3 -->
<g id="edge9" class="edge">
<title>Node8&#45;&gt;Node3</title>
<path fill="none" stroke="#63b8ff" d="M751.71,-206.38C766.33,-220.41 783.35,-242.32 772.5,-261 764.31,-275.1 749.79,-285.11 735.48,-292.02"/>
<polygon fill="#63b8ff" stroke="#63b8ff" points="734.34,-288.69 726.58,-295.9 737.14,-295.11 734.34,-288.69"/>
</g>
<!-- Node8&#45;&gt;Node4 -->
<g id="edge10" class="edge">
<title>Node8&#45;&gt;Node4</title>
<path fill="none" stroke="#63b8ff" d="M675.38,-175.56C628.55,-164.12 563.97,-148.34 520.35,-137.69"/>
<polygon fill="#63b8ff" stroke="#63b8ff" points="521.21,-134.3 510.66,-135.32 519.55,-141.1 521.21,-134.3"/>
</g>
<!-- Node8&#45;&gt;Node5 -->
<g id="edge11" class="edge">
<title>Node8&#45;&gt;Node5</title>
<path fill="none" stroke="#63b8ff" d="M730.72,-206.11C726.22,-214.21 719.34,-224.45 712.67,-233.05"/>
<polygon fill="#63b8ff" stroke="#63b8ff" points="710.01,-230.77 706.32,-240.7 715.4,-235.24 710.01,-230.77"/>
</g>
<!-- Node8&#45;&gt;Node6 -->
<g id="edge8" class="edge">
<title>Node8&#45;&gt;Node6</title>
<path fill="none" stroke="#63b8ff" d="M709.37,-175.64C691.14,-165.22 666.58,-151.19 648.22,-140.7"/>
<polygon fill="#63b8ff" stroke="#63b8ff" points="649.96,-137.66 639.54,-135.74 646.49,-143.74 649.96,-137.66"/>
</g>
<!-- Node8&#45;&gt;Node9 -->
<g id="edge12" class="edge">
<title>Node8&#45;&gt;Node9</title>
<path fill="none" stroke="#63b8ff" d="M667.14,-181.17C599.64,-171.57 493.11,-155.5 401.5,-140 395.86,-139.05 389.98,-138.02 384.16,-136.97"/>
<polygon fill="#63b8ff" stroke="#63b8ff" points="385.03,-133.58 374.57,-135.22 383.78,-140.46 385.03,-133.58"/>
</g>
<!-- Node8&#45;&gt;Node10 -->
<g id="edge15" class="edge">
<title>Node8&#45;&gt;Node10</title>
<path fill="none" stroke="#63b8ff" d="M789.56,-175.56C826.02,-165.99 874.03,-153.4 912.53,-143.3"/>
<polygon fill="#63b8ff" stroke="#63b8ff" points="913.39,-146.7 922.17,-140.77 911.61,-139.93 913.39,-146.7"/>
</g>
<!-- Node8&#45;&gt;Node11 -->
<g id="edge18" class="edge">
<title>Node8&#45;&gt;Node11</title>
<path fill="none" stroke="#63b8ff" d="M801.79,-179.06C863.48,-169.5 957.17,-154.86 1038.5,-140 1040.5,-139.63 1042.54,-139.26 1044.59,-138.87"/>
<polygon fill="#63b8ff" stroke="#63b8ff" points="1045.09,-142.34 1054.25,-137.01 1043.77,-135.46 1045.09,-142.34"/>
</g>
<!-- Node8&#45;&gt;Node12 -->
<g id="edge22" class="edge">
<title>Node8&#45;&gt;Node12</title>
<path fill="none" stroke="#63b8ff" d="M667.06,-187.2C554.41,-181.91 321.04,-168.34 125.5,-140 119.91,-139.19 114.09,-138.2 108.31,-137.12"/>
<polygon fill="#63b8ff" stroke="#63b8ff" points="109.3,-133.75 98.81,-135.26 107.95,-140.62 109.3,-133.75"/>
</g>
<!-- Node8&#45;&gt;Node13 -->
<g id="edge24" class="edge">
<title>Node8&#45;&gt;Node13</title>
<path fill="none" stroke="#63b8ff" d="M667.21,-185.16C576.99,-178.17 411.68,-163.64 261.62,-140.4"/>
<polygon fill="#63b8ff" stroke="#63b8ff" points="262.3,-136.96 251.88,-138.87 261.22,-143.88 262.3,-136.96"/>
</g>
<!-- Node8&#45;&gt;Node14 -->
<g id="edge25" class="edge">
<title>Node8&#45;&gt;Node14</title>
<path fill="none" stroke="#63b8ff" d="M751.86,-175.8C764.9,-167.07 783.08,-155.77 799.47,-146.13"/>
<polygon fill="#63b8ff" stroke="#63b8ff" points="801.17,-149.19 808.07,-141.14 797.66,-143.13 801.17,-149.19"/>
</g>
<!-- Node15 -->
<g id="node15" class="node">
<title>Node15</title>
<g id="a_node15"><a xlink:href="utils_2structures_8h.html" target="_top" xlink:title="Various utility&#45; and helper&#45;functions for secondary structure parsing, converting,...">
<polygon fill="white" stroke="#666666" points="810.5,-74 666.5,-74 666.5,-55 810.5,-55 810.5,-74"/>
<text text-anchor="middle" x="738.5" y="-62" font-family="Helvetica,sans-Serif" font-size="10.00">ViennaRNA/utils/structures.h</text>
</a>
</g>
</g>
<!-- Node8&#45;&gt;Node15 -->
<g id="edge31" class="edge">
<title>Node8&#45;&gt;Node15</title>
<path fill="none" stroke="#63b8ff" d="M730.46,-175.72C728.39,-153.53 729.56,-110.73 732.74,-85.49"/>
<polygon fill="#63b8ff" stroke="#63b8ff" points="736.16,-86.3 734.28,-75.88 729.25,-85.2 736.16,-86.3"/>
</g>
<!-- Node9&#45;&gt;Node3 -->
<g id="edge14" class="edge">
<title>Node9&#45;&gt;Node3</title>
<path fill="none" stroke="#63b8ff" d="M332.84,-134.9C322.64,-158.65 286.72,-224.21 319.5,-261 338.69,-282.55 505.41,-295.23 610.04,-301.23"/>
<polygon fill="#63b8ff" stroke="#63b8ff" points="609.53,-304.71 619.71,-301.77 609.92,-297.72 609.53,-304.71"/>
</g>
<!-- Node9&#45;&gt;Node8 -->
<g id="edge13" class="edge">
<title>Node9&#45;&gt;Node8</title>
<path fill="none" stroke="#63b8ff" d="M390.71,-134.95C400.36,-136.68 410.24,-138.43 419.5,-140 500.1,-153.64 592.24,-167.71 656.02,-177.44"/>
<polygon fill="#63b8ff" stroke="#63b8ff" points="655.28,-180.87 665.7,-178.92 656.34,-173.95 655.28,-180.87"/>
</g>
<!-- Node10&#45;&gt;Node2 -->
<g id="edge17" class="edge">
<title>Node10&#45;&gt;Node2</title>
<path fill="none" stroke="#63b8ff" d="M983.77,-140.22C998.42,-179.73 1039.77,-291.21 1058.31,-341.21"/>
<polygon fill="#63b8ff" stroke="#63b8ff" points="1054.91,-342.13 1061.67,-350.29 1061.48,-339.69 1054.91,-342.13"/>
</g>
<!-- Node10&#45;&gt;Node3 -->
<g id="edge16" class="edge">
<title>Node10&#45;&gt;Node3</title>
<path fill="none" stroke="#63b8ff" d="M970.28,-140.12C948.04,-166.98 887.51,-225.87 826.5,-261 802.07,-275.07 772.41,-285.95 747.32,-293.44"/>
<polygon fill="#63b8ff" stroke="#63b8ff" points="746.61,-290 737.96,-296.12 748.54,-296.73 746.61,-290"/>
</g>
<!-- Node11&#45;&gt;Node2 -->
<g id="edge21" class="edge">
<title>Node11&#45;&gt;Node2</title>
<path fill="none" stroke="#63b8ff" d="M1114.56,-140.06C1112.19,-171.86 1104.86,-251.62 1087.5,-316 1085.22,-324.47 1081.92,-333.44 1078.66,-341.42"/>
<polygon fill="#63b8ff" stroke="#63b8ff" points="1075.5,-339.9 1074.79,-350.47 1081.94,-342.66 1075.5,-339.9"/>
</g>
<!-- Node11&#45;&gt;Node3 -->
<g id="edge20" class="edge">
<title>Node11&#45;&gt;Node3</title>
<path fill="none" stroke="#63b8ff" d="M1096.91,-140.36C1055.6,-167.1 953.94,-225.08 862.5,-261 827.26,-274.84 786.07,-286.25 753.2,-294.04"/>
<polygon fill="#63b8ff" stroke="#63b8ff" points="752.82,-290.54 743.87,-296.21 754.4,-297.36 752.82,-290.54"/>
</g>
<!-- Node11&#45;&gt;Node8 -->
<g id="edge19" class="edge">
<title>Node11&#45;&gt;Node8</title>
<path fill="none" stroke="#63b8ff" d="M1055.73,-140.14C973.25,-155.2 878.23,-170.01 812.98,-179.52"/>
<polygon fill="#63b8ff" stroke="#63b8ff" points="812.86,-176 803.46,-180.9 813.86,-182.93 812.86,-176"/>
</g>
<!-- Node12&#45;&gt;Node3 -->
<g id="edge23" class="edge">
<title>Node12&#45;&gt;Node3</title>
<path fill="none" stroke="#63b8ff" d="M72.6,-134.95C106.15,-160 192.03,-230.99 277.5,-261 337.26,-281.99 506.15,-294.75 609.79,-300.94"/>
<polygon fill="#63b8ff" stroke="#63b8ff" points="609.47,-304.42 619.65,-301.52 609.88,-297.44 609.47,-304.42"/>
</g>
<!-- Node14&#45;&gt;Node3 -->
<g id="edge27" class="edge">
<title>Node14&#45;&gt;Node3</title>
<path fill="none" stroke="#63b8ff" d="M842.05,-140.12C842.18,-166.97 830.54,-225.86 797.5,-261 783.85,-275.52 764.51,-285.79 746.19,-292.77"/>
<polygon fill="#63b8ff" stroke="#63b8ff" points="745.27,-289.39 737,-296.01 747.6,-295.99 745.27,-289.39"/>
</g>
<!-- Node14&#45;&gt;Node8 -->
<g id="edge26" class="edge">
<title>Node14&#45;&gt;Node8</title>
<path fill="none" stroke="#63b8ff" d="M820.97,-140.31C807.92,-149.03 789.8,-160.31 773.46,-169.91"/>
<polygon fill="#63b8ff" stroke="#63b8ff" points="771.79,-166.84 764.89,-174.88 775.3,-172.89 771.79,-166.84"/>
</g>
<!-- Node14&#45;&gt;Node15 -->
<g id="edge28" class="edge">
<title>Node14&#45;&gt;Node15</title>
<path fill="none" stroke="#63b8ff" d="M813.78,-109.54C798.46,-100.58 778.84,-89.1 763.48,-80.11"/>
<polygon fill="#63b8ff" stroke="#63b8ff" points="765.33,-77.14 754.93,-75.11 761.79,-83.18 765.33,-77.14"/>
</g>
<!-- Node15&#45;&gt;Node8 -->
<g id="edge30" class="edge">
<title>Node15&#45;&gt;Node8</title>
<path fill="none" stroke="#63b8ff" d="M741.9,-74.38C744.61,-92.93 743.84,-136.38 740.9,-164.42"/>
<polygon fill="#63b8ff" stroke="#63b8ff" points="737.44,-163.85 739.64,-174.22 744.39,-164.74 737.44,-163.85"/>
</g>
<!-- Node16 -->
<g id="node16" class="node">
<title>Node16</title>
<g id="a_node16"><a xlink:title=" ">
<polygon fill="#e0e0e0" stroke="#999999" points="761.5,-19 715.5,-19 715.5,0 761.5,0 761.5,-19"/>
<text text-anchor="middle" x="738.5" y="-7" font-family="Helvetica,sans-Serif" font-size="10.00">stdio.h</text>
</a>
</g>
</g>
<!-- Node15&#45;&gt;Node16 -->
<g id="edge29" class="edge">
<title>Node15&#45;&gt;Node16</title>
<path fill="none" stroke="#63b8ff" d="M738.5,-54.75C738.5,-48.27 738.5,-39.16 738.5,-30.9"/>
<polygon fill="#63b8ff" stroke="#63b8ff" points="742,-30.96 738.5,-20.96 735,-30.96 742,-30.96"/>
</g>
<!-- Node17&#45;&gt;Node3 -->
<g id="edge35" class="edge">
<title>Node17&#45;&gt;Node3</title>
<path fill="none" stroke="#63b8ff" d="M438.98,-261.49C494.99,-270.62 578.96,-284.77 635.23,-294.55"/>
<polygon fill="#63b8ff" stroke="#63b8ff" points="634.51,-297.98 644.96,-296.25 635.71,-291.08 634.51,-297.98"/>
</g>
<!-- Node19&#45;&gt;Node3 -->
<g id="edge46" class="edge">
<title>Node19&#45;&gt;Node3</title>
<path fill="none" stroke="#63b8ff" d="M717.08,-351.54C713.17,-343.91 708.32,-334.46 704.13,-326.27"/>
<polygon fill="#63b8ff" stroke="#63b8ff" points="707.32,-324.82 699.64,-317.52 701.09,-328.02 707.32,-324.82"/>
</g>
<!-- Node20&#45;&gt;Node3 -->
<g id="edge49" class="edge">
<title>Node20&#45;&gt;Node3</title>
<path fill="none" stroke="#63b8ff" d="M842.8,-351.54C809.82,-341.75 766.73,-328.95 735.51,-319.68"/>
<polygon fill="#63b8ff" stroke="#63b8ff" points="736.61,-316.35 726.03,-316.86 734.62,-323.06 736.61,-316.35"/>
</g>
<!-- Node20&#45;&gt;Node8 -->
<g id="edge48" class="edge">
<title>Node20&#45;&gt;Node8</title>
<path fill="none" stroke="#63b8ff" d="M880.64,-351.73C862.45,-328.12 824.3,-279.78 788.5,-242 779.44,-232.44 768.93,-222.48 759.59,-213.98"/>
<polygon fill="#63b8ff" stroke="#63b8ff" points="762,-211.44 752.22,-207.36 757.32,-216.64 762,-211.44"/>
</g>
</g>
</svg>
