<?xml version="1.0" encoding="UTF-8" standalone="no"?>
<!DOCTYPE svg PUBLIC "-//W3C//DTD SVG 1.1//EN"
 "http://www.w3.org/Graphics/SVG/1.1/DTD/svg11.dtd">
<!-- Generated by graphviz version 7.1.0 (0)
 -->
<!-- Title: ViennaRNA/constraints/basic.h Pages: 1 -->
<svg width="1184pt" height="390pt"
 viewBox="0.00 0.00 1183.50 390.00" xmlns="http://www.w3.org/2000/svg" xmlns:xlink="http://www.w3.org/1999/xlink">
<g id="graph0" class="graph" transform="scale(1 1) rotate(0) translate(4 386)">
<title>ViennaRNA/constraints/basic.h</title>
<!-- Node1 -->
<g id="node1" class="node">
<title>Node1</title>
<g id="a_node1"><a xlink:title="Functions and data structures for constraining secondary structure predictions and evaluation.">
<polygon fill="#999999" stroke="#666666" points="529,-382 410,-382 410,-352 529,-352 529,-382"/>
<text text-anchor="start" x="418" y="-370" font-family="Helvetica,sans-Serif" font-size="10.00">ViennaRNA/constraints</text>
<text text-anchor="middle" x="469.5" y="-359" font-family="Helvetica,sans-Serif" font-size="10.00">/basic.h</text>
</a>
</g>
</g>
<!-- Node2 -->
<g id="node2" class="node">
<title>Node2</title>
<g id="a_node2"><a xlink:href="fold__compound_8h.html" target="_top" xlink:title="The Basic Fold Compound API.">
<polygon fill="white" stroke="#666666" points="542.5,-316 396.5,-316 396.5,-297 542.5,-297 542.5,-316"/>
<text text-anchor="middle" x="469.5" y="-304" font-family="Helvetica,sans-Serif" font-size="10.00">ViennaRNA/fold_compound.h</text>
</a>
</g>
</g>
<!-- Node1&#45;&gt;Node2 -->
<g id="edge1" class="edge">
<title>Node1&#45;&gt;Node2</title>
<path fill="none" stroke="#63b8ff" d="M469.5,-351.54C469.5,-344.34 469.5,-335.53 469.5,-327.68"/>
<polygon fill="#63b8ff" stroke="#63b8ff" points="473,-327.69 469.5,-317.69 466,-327.69 473,-327.69"/>
</g>
<!-- Node3 -->
<g id="node3" class="node">
<title>Node3</title>
<g id="a_node3"><a xlink:href="model_8h.html" target="_top" xlink:title="The model details data structure and its corresponding modifiers.">
<polygon fill="white" stroke="#666666" points="1175.5,-134.5 1069.5,-134.5 1069.5,-115.5 1175.5,-115.5 1175.5,-134.5"/>
<text text-anchor="middle" x="1122.5" y="-122.5" font-family="Helvetica,sans-Serif" font-size="10.00">ViennaRNA/model.h</text>
</a>
</g>
</g>
<!-- Node2&#45;&gt;Node3 -->
<g id="edge2" class="edge">
<title>Node2&#45;&gt;Node3</title>
<path fill="none" stroke="#63b8ff" d="M542.59,-301.47C645.54,-295.17 827.72,-281.54 890.5,-261 975.84,-233.08 1064.14,-170.72 1102.6,-141.57"/>
<polygon fill="#63b8ff" stroke="#63b8ff" points="1104.27,-144.7 1110.07,-135.84 1100.01,-139.15 1104.27,-144.7"/>
</g>
<!-- Node4 -->
<g id="node4" class="node">
<title>Node4</title>
<g id="a_node4"><a xlink:href="params_2basic_8h.html" target="_top" xlink:title="Functions to deal with sets of energy parameters.">
<polygon fill="white" stroke="#666666" points="814.5,-261 676.5,-261 676.5,-242 814.5,-242 814.5,-261"/>
<text text-anchor="middle" x="745.5" y="-249" font-family="Helvetica,sans-Serif" font-size="10.00">ViennaRNA/params/basic.h</text>
</a>
</g>
</g>
<!-- Node2&#45;&gt;Node4 -->
<g id="edge3" class="edge">
<title>Node2&#45;&gt;Node4</title>
<path fill="none" stroke="#63b8ff" d="M511.1,-296.51C556.62,-287.4 629.93,-273.3 682.49,-263.52"/>
<polygon fill="#63b8ff" stroke="#63b8ff" points="683.02,-266.99 692.22,-261.72 681.75,-260.1 683.02,-266.99"/>
</g>
<!-- Node8 -->
<g id="node8" class="node">
<title>Node8</title>
<g id="a_node8"><a xlink:href="dp__matrices_8h.html" target="_top" xlink:title="Functions to deal with standard dynamic programming (DP) matrices.">
<polygon fill="white" stroke="#666666" points="270,-134.5 137,-134.5 137,-115.5 270,-115.5 270,-134.5"/>
<text text-anchor="middle" x="203.5" y="-122.5" font-family="Helvetica,sans-Serif" font-size="10.00">ViennaRNA/dp_matrices.h</text>
</a>
</g>
</g>
<!-- Node2&#45;&gt;Node8 -->
<g id="edge35" class="edge">
<title>Node2&#45;&gt;Node8</title>
<path fill="none" stroke="#63b8ff" d="M437.57,-296.6C414.95,-288.63 384.79,-275.92 360.5,-261 302.17,-225.18 241.8,-170.98 215.91,-143.42"/>
<polygon fill="#63b8ff" stroke="#63b8ff" points="218.54,-141.1 209.26,-135.98 213.32,-145.77 218.54,-141.1"/>
</g>
<!-- Node9 -->
<g id="node9" class="node">
<title>Node9</title>
<g id="a_node9"><a xlink:href="hard_8h.html" target="_top" xlink:title="Functions and data structures for handling of secondary structure hard constraints.">
<polygon fill="white" stroke="#666666" points="119,-140 0,-140 0,-110 119,-110 119,-140"/>
<text text-anchor="start" x="8" y="-128" font-family="Helvetica,sans-Serif" font-size="10.00">ViennaRNA/constraints</text>
<text text-anchor="middle" x="59.5" y="-117" font-family="Helvetica,sans-Serif" font-size="10.00">/hard.h</text>
</a>
</g>
</g>
<!-- Node2&#45;&gt;Node9 -->
<g id="edge36" class="edge">
<title>Node2&#45;&gt;Node9</title>
<path fill="none" stroke="#63b8ff" d="M432.66,-296.54C403.92,-288.2 363.61,-274.99 329.5,-261 240.95,-224.7 140.78,-173.68 90.89,-145.91"/>
<polygon fill="#63b8ff" stroke="#63b8ff" points="92.78,-142.96 82.35,-141.1 89.34,-149.06 92.78,-142.96"/>
</g>
<!-- Node10 -->
<g id="node10" class="node">
<title>Node10</title>
<g id="a_node10"><a xlink:href="soft_8h.html" target="_top" xlink:title="Functions and data structures for secondary structure soft constraints.">
<polygon fill="white" stroke="#666666" points="1051,-140 932,-140 932,-110 1051,-110 1051,-140"/>
<text text-anchor="start" x="940" y="-128" font-family="Helvetica,sans-Serif" font-size="10.00">ViennaRNA/constraints</text>
<text text-anchor="middle" x="991.5" y="-117" font-family="Helvetica,sans-Serif" font-size="10.00">/soft.h</text>
</a>
</g>
</g>
<!-- Node2&#45;&gt;Node10 -->
<g id="edge37" class="edge">
<title>Node2&#45;&gt;Node10</title>
<path fill="none" stroke="#63b8ff" d="M542.89,-302.32C636.51,-297.42 792.33,-285.88 844.5,-261 898.47,-235.27 944.23,-179.84 970.07,-148.6"/>
<polygon fill="#63b8ff" stroke="#63b8ff" points="972.46,-151.2 976.16,-141.28 967.07,-146.73 972.46,-151.2"/>
</g>
<!-- Node11 -->
<g id="node11" class="node">
<title>Node11</title>
<g id="a_node11"><a xlink:href="grammar_8h.html" target="_top" xlink:title="Implementations for the RNA folding grammar.">
<polygon fill="white" stroke="#666666" points="405,-134.5 288,-134.5 288,-115.5 405,-115.5 405,-134.5"/>
<text text-anchor="middle" x="346.5" y="-122.5" font-family="Helvetica,sans-Serif" font-size="10.00">ViennaRNA/grammar.h</text>
</a>
</g>
</g>
<!-- Node2&#45;&gt;Node11 -->
<g id="edge38" class="edge">
<title>Node2&#45;&gt;Node11</title>
<path fill="none" stroke="#63b8ff" d="M432.24,-296.51C412.81,-289.55 390.45,-278.16 376.5,-261 349.01,-227.18 340.9,-174.82 341.56,-146.27"/>
<polygon fill="#63b8ff" stroke="#63b8ff" points="345.03,-146.73 342.33,-136.48 338.06,-146.18 345.03,-146.73"/>
</g>
<!-- Node12 -->
<g id="node12" class="node">
<title>Node12</title>
<g id="a_node12"><a xlink:href="structured__domains_8h.html" target="_top" xlink:title="This module provides interfaces that deal with additional structured domains in the folding grammar.">
<polygon fill="white" stroke="#666666" points="538,-140 423,-140 423,-110 538,-110 538,-140"/>
<text text-anchor="start" x="431" y="-128" font-family="Helvetica,sans-Serif" font-size="10.00">ViennaRNA/structured</text>
<text text-anchor="middle" x="480.5" y="-117" font-family="Helvetica,sans-Serif" font-size="10.00">_domains.h</text>
</a>
</g>
</g>
<!-- Node2&#45;&gt;Node12 -->
<g id="edge39" class="edge">
<title>Node2&#45;&gt;Node12</title>
<path fill="none" stroke="#63b8ff" d="M438.81,-296.51C421.63,-289.73 401.68,-278.53 391.5,-261 387.26,-253.7 388.79,-250 391.5,-242 404.25,-204.44 434.59,-169.51 456.3,-148"/>
<polygon fill="#63b8ff" stroke="#63b8ff" points="458.57,-150.68 463.34,-141.22 453.71,-145.64 458.57,-150.68"/>
</g>
<!-- Node13 -->
<g id="node13" class="node">
<title>Node13</title>
<g id="a_node13"><a xlink:href="unstructured__domains_8h.html" target="_top" xlink:title="Functions to modify unstructured domains, e.g. to incorporate ligands binding to unpaired stretches.">
<polygon fill="white" stroke="#666666" points="914,-140 789,-140 789,-110 914,-110 914,-140"/>
<text text-anchor="start" x="797" y="-128" font-family="Helvetica,sans-Serif" font-size="10.00">ViennaRNA/unstructured</text>
<text text-anchor="middle" x="851.5" y="-117" font-family="Helvetica,sans-Serif" font-size="10.00">_domains.h</text>
</a>
</g>
</g>
<!-- Node2&#45;&gt;Node13 -->
<g id="edge40" class="edge">
<title>Node2&#45;&gt;Node13</title>
<path fill="none" stroke="#63b8ff" d="M542.66,-305.91C631.98,-304.65 775.76,-296.77 814.5,-261 844.48,-233.31 846.95,-182.62 847.91,-151.85"/>
<polygon fill="#63b8ff" stroke="#63b8ff" points="851.41,-152 848.24,-141.89 844.41,-151.77 851.41,-152"/>
</g>
<!-- Node16 -->
<g id="node16" class="node">
<title>Node16</title>
<g id="a_node16"><a xlink:href="sequence_8h.html" target="_top" xlink:title="Functions and data structures related to sequence representations ,.">
<polygon fill="white" stroke="#666666" points="530.5,-261 408.5,-261 408.5,-242 530.5,-242 530.5,-261"/>
<text text-anchor="middle" x="469.5" y="-249" font-family="Helvetica,sans-Serif" font-size="10.00">ViennaRNA/sequence.h</text>
</a>
</g>
</g>
<!-- Node2&#45;&gt;Node16 -->
<g id="edge33" class="edge">
<title>Node2&#45;&gt;Node16</title>
<path fill="none" stroke="#63b8ff" d="M464.33,-296.75C462.92,-290.19 462.46,-280.95 462.93,-272.6"/>
<polygon fill="#63b8ff" stroke="#63b8ff" points="466.37,-273.3 464.11,-262.94 459.42,-272.45 466.37,-273.3"/>
</g>
<!-- Node17 -->
<g id="node17" class="node">
<title>Node17</title>
<g id="a_node17"><a xlink:href="zscore_8h_source.html" target="_top" xlink:title=" ">
<polygon fill="white" stroke="#666666" points="658,-261 549,-261 549,-242 658,-242 658,-261"/>
<text text-anchor="middle" x="603.5" y="-249" font-family="Helvetica,sans-Serif" font-size="10.00">ViennaRNA/zscore.h</text>
</a>
</g>
</g>
<!-- Node2&#45;&gt;Node17 -->
<g id="edge41" class="edge">
<title>Node2&#45;&gt;Node17</title>
<path fill="none" stroke="#63b8ff" d="M492.23,-296.51C513.73,-288.01 546.23,-275.15 570.57,-265.53"/>
<polygon fill="#63b8ff" stroke="#63b8ff" points="571.69,-268.85 579.7,-261.91 569.11,-262.34 571.69,-268.85"/>
</g>
<!-- Node4&#45;&gt;Node2 -->
<g id="edge31" class="edge">
<title>Node4&#45;&gt;Node2</title>
<path fill="none" stroke="#63b8ff" d="M704.12,-261.45C658.69,-270.54 585.4,-284.64 532.77,-294.43"/>
<polygon fill="#63b8ff" stroke="#63b8ff" points="532.22,-290.97 523.02,-296.23 533.5,-297.85 532.22,-290.97"/>
</g>
<!-- Node4&#45;&gt;Node3 -->
<g id="edge32" class="edge">
<title>Node4&#45;&gt;Node3</title>
<path fill="none" stroke="#63b8ff" d="M772.61,-241.55C838.83,-219.68 1008.92,-163.51 1084.88,-138.42"/>
<polygon fill="#63b8ff" stroke="#63b8ff" points="1085.54,-141.89 1093.94,-135.43 1083.35,-135.24 1085.54,-141.89"/>
</g>
<!-- Node5 -->
<g id="node5" class="node">
<title>Node5</title>
<g id="a_node5"><a xlink:href="constants_8h.html" target="_top" xlink:title="Energy parameter constants.">
<polygon fill="white" stroke="#666666" points="770.5,-134.5 612.5,-134.5 612.5,-115.5 770.5,-115.5 770.5,-134.5"/>
<text text-anchor="middle" x="691.5" y="-122.5" font-family="Helvetica,sans-Serif" font-size="10.00">ViennaRNA/params/constants.h</text>
</a>
</g>
</g>
<!-- Node4&#45;&gt;Node5 -->
<g id="edge4" class="edge">
<title>Node4&#45;&gt;Node5</title>
<path fill="none" stroke="#63b8ff" d="M741.62,-241.55C732.9,-221.45 711.61,-172.37 699.78,-145.08"/>
<polygon fill="#63b8ff" stroke="#63b8ff" points="703.14,-144.04 695.95,-136.26 696.72,-146.83 703.14,-144.04"/>
</g>
<!-- Node7 -->
<g id="node7" class="node">
<title>Node7</title>
<g id="a_node7"><a xlink:href="datastructures_2basic_8h.html" target="_top" xlink:title="Various data structures and pre&#45;processor macros.">
<polygon fill="white" stroke="#666666" points="666.5,-206 532.5,-206 532.5,-176 666.5,-176 666.5,-206"/>
<text text-anchor="start" x="540.5" y="-194" font-family="Helvetica,sans-Serif" font-size="10.00">ViennaRNA/datastructures</text>
<text text-anchor="middle" x="599.5" y="-183" font-family="Helvetica,sans-Serif" font-size="10.00">/basic.h</text>
</a>
</g>
</g>
<!-- Node4&#45;&gt;Node7 -->
<g id="edge6" class="edge">
<title>Node4&#45;&gt;Node7</title>
<path fill="none" stroke="#63b8ff" d="M718.32,-241.62C696.31,-233.48 665.17,-221.19 640.24,-210.87"/>
<polygon fill="#63b8ff" stroke="#63b8ff" points="641.6,-207.65 631.02,-207.02 638.9,-214.1 641.6,-207.65"/>
</g>
<!-- Node6 -->
<g id="node6" class="node">
<title>Node6</title>
<g id="a_node6"><a xlink:title=" ">
<polygon fill="#e0e0e0" stroke="#999999" points="715.5,-74 667.5,-74 667.5,-55 715.5,-55 715.5,-74"/>
<text text-anchor="middle" x="691.5" y="-62" font-family="Helvetica,sans-Serif" font-size="10.00">limits.h</text>
</a>
</g>
</g>
<!-- Node5&#45;&gt;Node6 -->
<g id="edge5" class="edge">
<title>Node5&#45;&gt;Node6</title>
<path fill="none" stroke="#63b8ff" d="M691.5,-115.37C691.5,-107.5 691.5,-95.6 691.5,-85.39"/>
<polygon fill="#63b8ff" stroke="#63b8ff" points="695,-85.68 691.5,-75.68 688,-85.68 695,-85.68"/>
</g>
<!-- Node7&#45;&gt;Node2 -->
<g id="edge8" class="edge">
<title>Node7&#45;&gt;Node2</title>
<path fill="none" stroke="#63b8ff" d="M532.23,-199.93C480.75,-207.54 415.88,-221.02 399.5,-242 384.3,-261.46 411.17,-279.99 435.89,-291.95"/>
<polygon fill="#63b8ff" stroke="#63b8ff" points="434.3,-295.07 444.85,-296.03 437.2,-288.7 434.3,-295.07"/>
</g>
<!-- Node7&#45;&gt;Node3 -->
<g id="edge9" class="edge">
<title>Node7&#45;&gt;Node3</title>
<path fill="none" stroke="#63b8ff" d="M666.63,-185.13C756.66,-178.06 921.33,-163.18 1060.5,-140 1065.15,-139.22 1069.98,-138.32 1074.8,-137.35"/>
<polygon fill="#63b8ff" stroke="#63b8ff" points="1075.38,-140.8 1084.44,-135.3 1073.93,-133.95 1075.38,-140.8"/>
</g>
<!-- Node7&#45;&gt;Node4 -->
<g id="edge10" class="edge">
<title>Node7&#45;&gt;Node4</title>
<path fill="none" stroke="#63b8ff" d="M641.45,-206.44C666.02,-215.82 696.28,-227.96 717.9,-237.13"/>
<polygon fill="#63b8ff" stroke="#63b8ff" points="716.38,-240.28 726.94,-241.02 719.14,-233.85 716.38,-240.28"/>
</g>
<!-- Node7&#45;&gt;Node5 -->
<g id="edge7" class="edge">
<title>Node7&#45;&gt;Node5</title>
<path fill="none" stroke="#63b8ff" d="M619.92,-175.8C634.68,-165.53 654.6,-151.67 669.68,-141.18"/>
<polygon fill="#63b8ff" stroke="#63b8ff" points="671.33,-144.29 677.54,-135.71 667.34,-138.55 671.33,-144.29"/>
</g>
<!-- Node7&#45;&gt;Node8 -->
<g id="edge11" class="edge">
<title>Node7&#45;&gt;Node8</title>
<path fill="none" stroke="#63b8ff" d="M532.08,-181.1C465.15,-171.49 359.98,-155.49 269.5,-140 263.93,-139.05 258.14,-138.02 252.39,-136.98"/>
<polygon fill="#63b8ff" stroke="#63b8ff" points="253.41,-133.61 242.94,-135.23 252.14,-140.49 253.41,-133.61"/>
</g>
<!-- Node7&#45;&gt;Node9 -->
<g id="edge14" class="edge">
<title>Node7&#45;&gt;Node9</title>
<path fill="none" stroke="#63b8ff" d="M532.01,-184.93C442.4,-177.74 279.03,-163.03 130.28,-140.34"/>
<polygon fill="#63b8ff" stroke="#63b8ff" points="131.06,-136.92 120.64,-138.85 129.99,-143.84 131.06,-136.92"/>
</g>
<!-- Node7&#45;&gt;Node10 -->
<g id="edge17" class="edge">
<title>Node7&#45;&gt;Node10</title>
<path fill="none" stroke="#63b8ff" d="M666.88,-179.58C730.77,-170.13 829.22,-155.35 914.5,-140 916.5,-139.64 918.54,-139.27 920.6,-138.88"/>
<polygon fill="#63b8ff" stroke="#63b8ff" points="921.09,-142.35 930.25,-137.04 919.77,-135.48 921.09,-142.35"/>
</g>
<!-- Node7&#45;&gt;Node11 -->
<g id="edge21" class="edge">
<title>Node7&#45;&gt;Node11</title>
<path fill="none" stroke="#63b8ff" d="M542.41,-175.56C497.28,-164.14 435.09,-148.41 392.98,-137.76"/>
<polygon fill="#63b8ff" stroke="#63b8ff" points="393.95,-134.39 383.4,-135.33 392.24,-141.18 393.95,-134.39"/>
</g>
<!-- Node7&#45;&gt;Node12 -->
<g id="edge23" class="edge">
<title>Node7&#45;&gt;Node12</title>
<path fill="none" stroke="#63b8ff" d="M572.79,-175.64C556.41,-166.83 535.2,-155.42 517.25,-145.77"/>
<polygon fill="#63b8ff" stroke="#63b8ff" points="518.91,-142.69 508.45,-141.03 515.6,-148.85 518.91,-142.69"/>
</g>
<!-- Node7&#45;&gt;Node13 -->
<g id="edge24" class="edge">
<title>Node7&#45;&gt;Node13</title>
<path fill="none" stroke="#63b8ff" d="M650.62,-175.56C687.29,-165.93 737.17,-153.24 778.09,-143.11"/>
<polygon fill="#63b8ff" stroke="#63b8ff" points="778.76,-146.55 787.63,-140.75 777.08,-139.75 778.76,-146.55"/>
</g>
<!-- Node14 -->
<g id="node14" class="node">
<title>Node14</title>
<g id="a_node14"><a xlink:href="utils_2structures_8h.html" target="_top" xlink:title="Various utility&#45; and helper&#45;functions for secondary structure parsing, converting,...">
<polygon fill="white" stroke="#666666" points="647.5,-74 503.5,-74 503.5,-55 647.5,-55 647.5,-74"/>
<text text-anchor="middle" x="575.5" y="-62" font-family="Helvetica,sans-Serif" font-size="10.00">ViennaRNA/utils/structures.h</text>
</a>
</g>
</g>
<!-- Node7&#45;&gt;Node14 -->
<g id="edge30" class="edge">
<title>Node7&#45;&gt;Node14</title>
<path fill="none" stroke="#63b8ff" d="M592.25,-175.72C585.22,-153.64 576.81,-111.12 574.27,-85.83"/>
<polygon fill="#63b8ff" stroke="#63b8ff" points="577.77,-85.64 573.62,-75.89 570.78,-86.1 577.77,-85.64"/>
</g>
<!-- Node8&#45;&gt;Node2 -->
<g id="edge13" class="edge">
<title>Node8&#45;&gt;Node2</title>
<path fill="none" stroke="#63b8ff" d="M216.87,-134.86C245.54,-157.94 313.29,-220.96 378.5,-261 398.71,-273.41 422.98,-284.3 441.51,-292.2"/>
<polygon fill="#63b8ff" stroke="#63b8ff" points="439.98,-295.35 450.55,-296.01 442.7,-288.9 439.98,-295.35"/>
</g>
<!-- Node8&#45;&gt;Node7 -->
<g id="edge12" class="edge">
<title>Node8&#45;&gt;Node7</title>
<path fill="none" stroke="#63b8ff" d="M259.09,-134.95C268.61,-136.68 278.36,-138.44 287.5,-140 367.08,-153.62 458.04,-167.64 521.19,-177.36"/>
<polygon fill="#63b8ff" stroke="#63b8ff" points="520.34,-180.77 530.76,-178.83 521.41,-173.85 520.34,-180.77"/>
</g>
<!-- Node9&#45;&gt;Node1 -->
<g id="edge16" class="edge">
<title>Node9&#45;&gt;Node1</title>
<path fill="none" stroke="#63b8ff" d="M73.74,-140.21C91.26,-157.21 122.39,-185.89 152.5,-206 243.36,-266.69 360.37,-320.04 423.75,-347.12"/>
<polygon fill="#63b8ff" stroke="#63b8ff" points="422.24,-350.28 432.81,-350.96 424.97,-343.84 422.24,-350.28"/>
</g>
<!-- Node9&#45;&gt;Node2 -->
<g id="edge15" class="edge">
<title>Node9&#45;&gt;Node2</title>
<path fill="none" stroke="#63b8ff" d="M91.61,-140.35C144.47,-166.35 252.65,-222.12 347.5,-261 377.18,-273.17 411.54,-284.75 436.35,-293.05"/>
<polygon fill="#63b8ff" stroke="#63b8ff" points="434.99,-296.28 445.59,-296.14 437.22,-289.65 434.99,-296.28"/>
</g>
<!-- Node10&#45;&gt;Node1 -->
<g id="edge20" class="edge">
<title>Node10&#45;&gt;Node1</title>
<path fill="none" stroke="#63b8ff" d="M989.08,-140.48C985.67,-157.49 978.17,-185.92 963.5,-206 939.54,-238.8 927.17,-243.51 890.5,-261 774.68,-316.24 626.58,-344.46 540.45,-357.16"/>
<polygon fill="#63b8ff" stroke="#63b8ff" points="540.12,-353.67 530.73,-358.56 541.12,-360.59 540.12,-353.67"/>
</g>
<!-- Node10&#45;&gt;Node2 -->
<g id="edge19" class="edge">
<title>Node10&#45;&gt;Node2</title>
<path fill="none" stroke="#63b8ff" d="M987.04,-140.11C971.19,-168.61 921.8,-232.73 862.5,-261 810.13,-285.97 653.33,-297.51 554.28,-302.37"/>
<polygon fill="#63b8ff" stroke="#63b8ff" points="554.13,-298.87 544.31,-302.84 554.47,-305.87 554.13,-298.87"/>
</g>
<!-- Node10&#45;&gt;Node7 -->
<g id="edge18" class="edge">
<title>Node10&#45;&gt;Node7</title>
<path fill="none" stroke="#63b8ff" d="M931.7,-140.14C845.42,-155.65 745.85,-170.56 678.32,-179.97"/>
<polygon fill="#63b8ff" stroke="#63b8ff" points="677.85,-176.5 668.43,-181.34 678.81,-183.44 677.85,-176.5"/>
</g>
<!-- Node11&#45;&gt;Node2 -->
<g id="edge22" class="edge">
<title>Node11&#45;&gt;Node2</title>
<path fill="none" stroke="#63b8ff" d="M351.07,-134.97C356.87,-158.35 362.8,-222 394.5,-261 405.72,-274.81 422.39,-284.88 437.26,-291.91"/>
<polygon fill="#63b8ff" stroke="#63b8ff" points="435.72,-295.06 446.28,-295.89 438.54,-288.65 435.72,-295.06"/>
</g>
<!-- Node13&#45;&gt;Node2 -->
<g id="edge26" class="edge">
<title>Node13&#45;&gt;Node2</title>
<path fill="none" stroke="#63b8ff" d="M858.45,-140.38C865.1,-168.21 866.61,-229.49 832.5,-261 793.58,-296.94 648.64,-304.72 554.04,-305.92"/>
<polygon fill="#63b8ff" stroke="#63b8ff" points="554.24,-302.42 544.27,-306.03 554.31,-309.42 554.24,-302.42"/>
</g>
<!-- Node13&#45;&gt;Node7 -->
<g id="edge25" class="edge">
<title>Node13&#45;&gt;Node7</title>
<path fill="none" stroke="#63b8ff" d="M800.58,-140.39C763.96,-150 714.08,-162.7 673.14,-172.84"/>
<polygon fill="#63b8ff" stroke="#63b8ff" points="672.46,-169.4 663.59,-175.19 674.14,-176.2 672.46,-169.4"/>
</g>
<!-- Node13&#45;&gt;Node14 -->
<g id="edge27" class="edge">
<title>Node13&#45;&gt;Node14</title>
<path fill="none" stroke="#63b8ff" d="M788.53,-110.65C740.27,-100.42 674.43,-86.47 628.78,-76.79"/>
<polygon fill="#63b8ff" stroke="#63b8ff" points="629.62,-73.39 619.11,-74.74 628.17,-80.24 629.62,-73.39"/>
</g>
<!-- Node14&#45;&gt;Node7 -->
<g id="edge29" class="edge">
<title>Node14&#45;&gt;Node7</title>
<path fill="none" stroke="#63b8ff" d="M580.9,-74.38C587.78,-92.93 596.79,-136.38 600.15,-164.42"/>
<polygon fill="#63b8ff" stroke="#63b8ff" points="596.65,-164.6 601.09,-174.21 603.61,-163.92 596.65,-164.6"/>
</g>
<!-- Node15 -->
<g id="node15" class="node">
<title>Node15</title>
<g id="a_node15"><a xlink:title=" ">
<polygon fill="#e0e0e0" stroke="#999999" points="598.5,-19 552.5,-19 552.5,0 598.5,0 598.5,-19"/>
<text text-anchor="middle" x="575.5" y="-7" font-family="Helvetica,sans-Serif" font-size="10.00">stdio.h</text>
</a>
</g>
</g>
<!-- Node14&#45;&gt;Node15 -->
<g id="edge28" class="edge">
<title>Node14&#45;&gt;Node15</title>
<path fill="none" stroke="#63b8ff" d="M575.5,-54.75C575.5,-48.27 575.5,-39.16 575.5,-30.9"/>
<polygon fill="#63b8ff" stroke="#63b8ff" points="579,-30.96 575.5,-20.96 572,-30.96 579,-30.96"/>
</g>
<!-- Node16&#45;&gt;Node2 -->
<g id="edge34" class="edge">
<title>Node16&#45;&gt;Node2</title>
<path fill="none" stroke="#63b8ff" d="M474.71,-261.44C476.08,-267.97 476.54,-277.1 476.07,-285.35"/>
<polygon fill="#63b8ff" stroke="#63b8ff" points="472.6,-284.89 474.85,-295.25 479.55,-285.75 472.6,-284.89"/>
</g>
</g>
</svg>
