<?xml version="1.0" encoding="UTF-8" standalone="no"?>
<!DOCTYPE svg PUBLIC "-//W3C//DTD SVG 1.1//EN"
 "http://www.w3.org/Graphics/SVG/1.1/DTD/svg11.dtd">
<!-- Generated by graphviz version 7.1.0 (0)
 -->
<!-- Title: ViennaRNA/datastructures/basic.h Pages: 1 -->
<!--zoomable 280 -->
<svg id="main" version="1.1" xmlns="http://www.w3.org/2000/svg" xmlns:xlink="http://www.w3.org/1999/xlink" xml:space="preserve" onload="init(evt)">
<style type="text/css"><![CDATA[
.edge:hover path { stroke: red; }
.edge:hover polygon { stroke: red; fill: red; }
]]></style>
<script type="text/javascript"><![CDATA[
var edges = document.getElementsByTagName('g');
if (edges && edges.length) {
  for (var i=0;i<edges.length;i++) {
    if (edges[i].id.substr(0,4)=='edge') {
      edges[i].setAttribute('class','edge');
    }
  }
}
]]></script>
        <defs>
                <circle id="rim" cx="0" cy="0" r="7"/>
                <circle id="rim2" cx="0" cy="0" r="3.5"/>
                <g id="zoomPlus">
                        <use xlink:href="#rim" fill="#404040">
                                <set attributeName="fill" to="#808080" begin="zoomplus.mouseover" end="zoomplus.mouseout"/>
                        </use>
                        <path d="M-4,0h8M0,-4v8" fill="none" stroke="white" stroke-width="1.5" pointer-events="none"/>
                </g>
                <g id="zoomMin">
                        <use xlink:href="#rim" fill="#404040">
                                <set attributeName="fill" to="#808080" begin="zoomminus.mouseover" end="zoomminus.mouseout"/>
                        </use>
                        <path d="M-4,0h8" fill="none" stroke="white" stroke-width="1.5" pointer-events="none"/>
                </g>
                <g id="dirArrow">
                        <path fill="none" stroke="white" stroke-width="1.5" d="M0,-3.0v7 M-2.5,-0.5L0,-3.0L2.5,-0.5"/>
                </g>
               <g id="resetDef">
                       <use xlink:href="#rim2" fill="#404040">
                               <set attributeName="fill" to="#808080" begin="reset.mouseover" end="reset.mouseout"/>
                       </use>
               </g>
        </defs>

<script type="text/javascript">
var viewWidth = 1581;
var viewHeight = 280;
var sectionId = 'dynsection-0';
</script>
<script xlink:href="svgpan.js"/>
<svg id="graph" class="graph">
<g id="viewport">
<title>ViennaRNA/datastructures/basic.h</title>
<!-- Node1 -->
<g id="node1" class="node">
<title>Node1</title>
<g id="a_node1"><a xlink:title="Various data structures and pre&#45;processor macros.">
<polygon fill="#999999" stroke="#666666" points="990,-272 856,-272 856,-242 990,-242 990,-272"/>
<text text-anchor="start" x="864" y="-260" font-family="Helvetica,sans-Serif" font-size="10.00">ViennaRNA/datastructures</text>
<text text-anchor="middle" x="923" y="-249" font-family="Helvetica,sans-Serif" font-size="10.00">/basic.h</text>
</a>
</g>
</g>
<!-- Node2 -->
<g id="node2" class="node">
<title>Node2</title>
<g id="a_node2"><a xlink:href="constants_8h.html" target="_top" xlink:title="Energy parameter constants.">
<polygon fill="white" stroke="#666666" points="158,-79.5 0,-79.5 0,-60.5 158,-60.5 158,-79.5"/>
<text text-anchor="middle" x="79" y="-67.5" font-family="Helvetica,sans-Serif" font-size="10.00">ViennaRNA/params/constants.h</text>
</a>
</g>
</g>
<!-- Node1&#45;&gt;Node2 -->
<g id="edge1" class="edge">
<title>Node1&#45;&gt;Node2</title>
<path fill="none" stroke="#63b8ff" d="M855.59,-254.42C706.2,-250.4 351.38,-237.7 236,-206 183.29,-191.52 165.93,-188.32 126,-151 107.65,-133.85 94.22,-107.91 86.52,-90.25"/>
<polygon fill="#63b8ff" stroke="#63b8ff" points="89.83,-89.1 82.78,-81.19 83.36,-91.77 89.83,-89.1"/>
</g>
<!-- Node4 -->
<g id="node4" class="node">
<title>Node4</title>
<g id="a_node4"><a xlink:href="fold__compound_8h.html" target="_top" xlink:title="The Basic Fold Compound API.">
<polygon fill="white" stroke="#666666" points="927,-206 781,-206 781,-187 927,-187 927,-206"/>
<text text-anchor="middle" x="854" y="-194" font-family="Helvetica,sans-Serif" font-size="10.00">ViennaRNA/fold_compound.h</text>
</a>
</g>
</g>
<!-- Node1&#45;&gt;Node4 -->
<g id="edge3" class="edge">
<title>Node1&#45;&gt;Node4</title>
<path fill="none" stroke="#63b8ff" d="M905.94,-241.54C895.92,-233.04 883.24,-222.29 872.91,-213.53"/>
<polygon fill="#63b8ff" stroke="#63b8ff" points="875.28,-210.95 865.39,-207.15 870.75,-216.29 875.28,-210.95"/>
</g>
<!-- Node5 -->
<g id="node5" class="node">
<title>Node5</title>
<g id="a_node5"><a xlink:href="model_8h.html" target="_top" xlink:title="The model details data structure and its corresponding modifiers.">
<polygon fill="white" stroke="#666666" points="282,-79.5 176,-79.5 176,-60.5 282,-60.5 282,-79.5"/>
<text text-anchor="middle" x="229" y="-67.5" font-family="Helvetica,sans-Serif" font-size="10.00">ViennaRNA/model.h</text>
</a>
</g>
</g>
<!-- Node1&#45;&gt;Node5 -->
<g id="edge33" class="edge">
<title>Node1&#45;&gt;Node5</title>
<path fill="none" stroke="#63b8ff" d="M855.62,-252.07C673.61,-240.78 182.64,-205.49 136,-151 113.22,-124.39 158.11,-98.95 193.11,-84.16"/>
<polygon fill="#63b8ff" stroke="#63b8ff" points="194.21,-87.49 202.17,-80.49 191.58,-81 194.21,-87.49"/>
</g>
<!-- Node6 -->
<g id="node6" class="node">
<title>Node6</title>
<g id="a_node6"><a xlink:href="params_2basic_8h.html" target="_top" xlink:title="Functions to deal with sets of energy parameters.">
<polygon fill="white" stroke="#666666" points="283,-145.5 145,-145.5 145,-126.5 283,-126.5 283,-145.5"/>
<text text-anchor="middle" x="214" y="-133.5" font-family="Helvetica,sans-Serif" font-size="10.00">ViennaRNA/params/basic.h</text>
</a>
</g>
</g>
<!-- Node1&#45;&gt;Node6 -->
<g id="edge34" class="edge">
<title>Node1&#45;&gt;Node6</title>
<path fill="none" stroke="#63b8ff" d="M855.59,-247.16C787.71,-237.52 680.34,-221.4 588,-206 473.03,-186.83 339.08,-162.16 266.7,-148.11"/>
<polygon fill="#63b8ff" stroke="#63b8ff" points="267.59,-144.72 257.11,-146.24 266.25,-151.59 267.59,-144.72"/>
</g>
<!-- Node8 -->
<g id="node8" class="node">
<title>Node8</title>
<g id="a_node8"><a xlink:href="dp__matrices_8h.html" target="_top" xlink:title="Functions to deal with standard dynamic programming (DP) matrices.">
<polygon fill="white" stroke="#666666" points="434.5,-145.5 301.5,-145.5 301.5,-126.5 434.5,-126.5 434.5,-145.5"/>
<text text-anchor="middle" x="368" y="-133.5" font-family="Helvetica,sans-Serif" font-size="10.00">ViennaRNA/dp_matrices.h</text>
</a>
</g>
</g>
<!-- Node1&#45;&gt;Node8 -->
<g id="edge35" class="edge">
<title>Node1&#45;&gt;Node8</title>
<path fill="none" stroke="#63b8ff" d="M855.52,-243.25C806.38,-233.17 738.45,-218.73 679,-206 585.03,-185.87 475.58,-162.23 414.69,-148.5"/>
<polygon fill="#63b8ff" stroke="#63b8ff" points="415.55,-145.1 405.02,-146.3 414,-151.93 415.55,-145.1"/>
</g>
<!-- Node9 -->
<g id="node9" class="node">
<title>Node9</title>
<g id="a_node9"><a xlink:href="hard_8h.html" target="_top" xlink:title="Functions and data structures for handling of secondary structure hard constraints.">
<polygon fill="white" stroke="#666666" points="571.5,-151 452.5,-151 452.5,-121 571.5,-121 571.5,-151"/>
<text text-anchor="start" x="460.5" y="-139" font-family="Helvetica,sans-Serif" font-size="10.00">ViennaRNA/constraints</text>
<text text-anchor="middle" x="512" y="-128" font-family="Helvetica,sans-Serif" font-size="10.00">/hard.h</text>
</a>
</g>
</g>
<!-- Node1&#45;&gt;Node9 -->
<g id="edge36" class="edge">
<title>Node1&#45;&gt;Node9</title>
<path fill="none" stroke="#63b8ff" d="M873.01,-241.53C797.36,-219.62 654,-178.11 572.54,-154.53"/>
<polygon fill="#63b8ff" stroke="#63b8ff" points="573.99,-151.31 563.41,-151.89 572.04,-158.03 573.99,-151.31"/>
</g>
<!-- Node11 -->
<g id="node11" class="node">
<title>Node11</title>
<g id="a_node11"><a xlink:href="soft_8h.html" target="_top" xlink:title="Functions and data structures for secondary structure soft constraints.">
<polygon fill="white" stroke="#666666" points="1187.5,-151 1068.5,-151 1068.5,-121 1187.5,-121 1187.5,-151"/>
<text text-anchor="start" x="1076.5" y="-139" font-family="Helvetica,sans-Serif" font-size="10.00">ViennaRNA/constraints</text>
<text text-anchor="middle" x="1128" y="-128" font-family="Helvetica,sans-Serif" font-size="10.00">/soft.h</text>
</a>
</g>
</g>
<!-- Node1&#45;&gt;Node11 -->
<g id="edge37" class="edge">
<title>Node1&#45;&gt;Node11</title>
<path fill="none" stroke="#63b8ff" d="M943.14,-241.65C976.95,-220.47 1045.11,-180.79 1088.63,-156.84"/>
<polygon fill="#63b8ff" stroke="#63b8ff" points="1090.16,-159.99 1097.27,-152.13 1086.81,-153.85 1090.16,-159.99"/>
</g>
<!-- Node12 -->
<g id="node12" class="node">
<title>Node12</title>
<g id="a_node12"><a xlink:href="grammar_8h.html" target="_top" xlink:title="Implementations for the RNA folding grammar.">
<polygon fill="white" stroke="#666666" points="1050.5,-145.5 933.5,-145.5 933.5,-126.5 1050.5,-126.5 1050.5,-145.5"/>
<text text-anchor="middle" x="992" y="-133.5" font-family="Helvetica,sans-Serif" font-size="10.00">ViennaRNA/grammar.h</text>
</a>
</g>
</g>
<!-- Node1&#45;&gt;Node12 -->
<g id="edge38" class="edge">
<title>Node1&#45;&gt;Node12</title>
<path fill="none" stroke="#63b8ff" d="M931.19,-241.88C943.64,-220.41 967.34,-179.52 981.19,-155.64"/>
<polygon fill="#63b8ff" stroke="#63b8ff" points="984.2,-157.43 986.19,-147.02 978.15,-153.92 984.2,-157.43"/>
</g>
<!-- Node13 -->
<g id="node13" class="node">
<title>Node13</title>
<g id="a_node13"><a xlink:href="structured__domains_8h.html" target="_top" xlink:title="This module provides interfaces that deal with additional structured domains in the folding grammar.">
<polygon fill="white" stroke="#666666" points="1320.5,-151 1205.5,-151 1205.5,-121 1320.5,-121 1320.5,-151"/>
<text text-anchor="start" x="1213.5" y="-139" font-family="Helvetica,sans-Serif" font-size="10.00">ViennaRNA/structured</text>
<text text-anchor="middle" x="1263" y="-128" font-family="Helvetica,sans-Serif" font-size="10.00">_domains.h</text>
</a>
</g>
</g>
<!-- Node1&#45;&gt;Node13 -->
<g id="edge39" class="edge">
<title>Node1&#45;&gt;Node13</title>
<path fill="none" stroke="#63b8ff" d="M964.35,-241.53C1026.29,-219.85 1143.12,-178.96 1210.84,-155.26"/>
<polygon fill="#63b8ff" stroke="#63b8ff" points="1211.96,-158.57 1220.24,-151.97 1209.65,-151.97 1211.96,-158.57"/>
</g>
<!-- Node14 -->
<g id="node14" class="node">
<title>Node14</title>
<g id="a_node14"><a xlink:href="unstructured__domains_8h.html" target="_top" xlink:title="Functions to modify unstructured domains, e.g. to incorporate ligands binding to unpaired stretches.">
<polygon fill="white" stroke="#666666" points="1463.5,-151 1338.5,-151 1338.5,-121 1463.5,-121 1463.5,-151"/>
<text text-anchor="start" x="1346.5" y="-139" font-family="Helvetica,sans-Serif" font-size="10.00">ViennaRNA/unstructured</text>
<text text-anchor="middle" x="1401" y="-128" font-family="Helvetica,sans-Serif" font-size="10.00">_domains.h</text>
</a>
</g>
</g>
<!-- Node1&#45;&gt;Node14 -->
<g id="edge40" class="edge">
<title>Node1&#45;&gt;Node14</title>
<path fill="none" stroke="#63b8ff" d="M976.53,-241.53C1062.21,-219.51 1230.09,-177.69 1327.12,-154.17"/>
<polygon fill="#63b8ff" stroke="#63b8ff" points="1327.93,-157.57 1336.83,-151.82 1326.28,-150.77 1327.93,-157.57"/>
</g>
<!-- Node15 -->
<g id="node15" class="node">
<title>Node15</title>
<g id="a_node15"><a xlink:href="utils_2structures_8h.html" target="_top" xlink:title="Various utility&#45; and helper&#45;functions for secondary structure parsing, converting,...">
<polygon fill="white" stroke="#666666" points="1573,-79.5 1429,-79.5 1429,-60.5 1573,-60.5 1573,-79.5"/>
<text text-anchor="middle" x="1501" y="-67.5" font-family="Helvetica,sans-Serif" font-size="10.00">ViennaRNA/utils/structures.h</text>
</a>
</g>
</g>
<!-- Node1&#45;&gt;Node15 -->
<g id="edge41" class="edge">
<title>Node1&#45;&gt;Node15</title>
<path fill="none" stroke="#63b8ff" d="M990.48,-251.02C1119.28,-240.53 1393.31,-211.93 1464,-151 1481.56,-135.86 1488.11,-109.05 1492.65,-90.67"/>
<polygon fill="#63b8ff" stroke="#63b8ff" points="1495.97,-91.81 1495.13,-81.25 1489.2,-90.03 1495.97,-91.81"/>
</g>
<!-- Node3 -->
<g id="node3" class="node">
<title>Node3</title>
<g id="a_node3"><a xlink:title=" ">
<polygon fill="#e0e0e0" stroke="#999999" points="103,-19 55,-19 55,0 103,0 103,-19"/>
<text text-anchor="middle" x="79" y="-7" font-family="Helvetica,sans-Serif" font-size="10.00">limits.h</text>
</a>
</g>
</g>
<!-- Node2&#45;&gt;Node3 -->
<g id="edge2" class="edge">
<title>Node2&#45;&gt;Node3</title>
<path fill="none" stroke="#63b8ff" d="M79,-60.37C79,-52.5 79,-40.6 79,-30.39"/>
<polygon fill="#63b8ff" stroke="#63b8ff" points="82.5,-30.68 79,-20.68 75.5,-30.68 82.5,-30.68"/>
</g>
<!-- Node4&#45;&gt;Node5 -->
<g id="edge4" class="edge">
<title>Node4&#45;&gt;Node5</title>
<path fill="none" stroke="#63b8ff" d="M836.51,-186.55C797.93,-166.81 708.85,-121.25 708,-121 564.28,-78.44 386.95,-70.97 293.56,-70.31"/>
<polygon fill="#63b8ff" stroke="#63b8ff" points="293.85,-66.81 283.84,-70.27 293.82,-73.81 293.85,-66.81"/>
</g>
<!-- Node4&#45;&gt;Node6 -->
<g id="edge5" class="edge">
<title>Node4&#45;&gt;Node6</title>
<path fill="none" stroke="#63b8ff" d="M780.59,-192.3C671.49,-186.81 460.64,-173.92 283,-151 276.19,-150.12 269.06,-149.05 262.08,-147.9"/>
<polygon fill="#63b8ff" stroke="#63b8ff" points="262.85,-144.48 252.4,-146.23 261.66,-151.38 262.85,-144.48"/>
</g>
<!-- Node7 -->
<g id="node7" class="node">
<title>Node7</title>
<g id="a_node7"><a xlink:href="sequence_8h.html" target="_top" xlink:title="Functions and data structures related to sequence representations ,.">
<polygon fill="white" stroke="#666666" points="915,-145.5 793,-145.5 793,-126.5 915,-126.5 915,-145.5"/>
<text text-anchor="middle" x="854" y="-133.5" font-family="Helvetica,sans-Serif" font-size="10.00">ViennaRNA/sequence.h</text>
</a>
</g>
</g>
<!-- Node4&#45;&gt;Node7 -->
<g id="edge10" class="edge">
<title>Node4&#45;&gt;Node7</title>
<path fill="none" stroke="#63b8ff" d="M849.04,-186.87C847.35,-179 846.85,-167.1 847.57,-156.89"/>
<polygon fill="#63b8ff" stroke="#63b8ff" points="851.01,-157.54 848.84,-147.17 844.07,-156.63 851.01,-157.54"/>
</g>
<!-- Node4&#45;&gt;Node8 -->
<g id="edge12" class="edge">
<title>Node4&#45;&gt;Node8</title>
<path fill="none" stroke="#63b8ff" d="M780.52,-189.83C696.34,-182.57 554.71,-168.77 434,-151 427.86,-150.1 421.45,-149.05 415.14,-147.95"/>
<polygon fill="#63b8ff" stroke="#63b8ff" points="415.9,-144.53 405.44,-146.2 414.65,-151.42 415.9,-144.53"/>
</g>
<!-- Node4&#45;&gt;Node9 -->
<g id="edge15" class="edge">
<title>Node4&#45;&gt;Node9</title>
<path fill="none" stroke="#63b8ff" d="M787.29,-186.54C732.83,-178.49 653.78,-166 583.12,-153.21"/>
<polygon fill="#63b8ff" stroke="#63b8ff" points="583.82,-149.78 573.35,-151.43 582.56,-156.67 583.82,-149.78"/>
</g>
<!-- Node4&#45;&gt;Node11 -->
<g id="edge19" class="edge">
<title>Node4&#45;&gt;Node11</title>
<path fill="none" stroke="#63b8ff" d="M890.89,-186.55C933.34,-177.06 1003.84,-161.95 1057,-150.91"/>
<polygon fill="#63b8ff" stroke="#63b8ff" points="1057.5,-154.38 1066.58,-148.93 1056.08,-147.53 1057.5,-154.38"/>
</g>
<!-- Node4&#45;&gt;Node12 -->
<g id="edge23" class="edge">
<title>Node4&#45;&gt;Node12</title>
<path fill="none" stroke="#63b8ff" d="M869.95,-186.62C890.8,-176.91 927.47,-161.26 955.27,-150.14"/>
<polygon fill="#63b8ff" stroke="#63b8ff" points="956.4,-153.46 964.41,-146.52 953.82,-146.95 956.4,-153.46"/>
</g>
<!-- Node4&#45;&gt;Node13 -->
<g id="edge25" class="edge">
<title>Node4&#45;&gt;Node13</title>
<path fill="none" stroke="#63b8ff" d="M927.19,-187.72C994.22,-180.21 1096.43,-167.77 1193.86,-151.46"/>
<polygon fill="#63b8ff" stroke="#63b8ff" points="1194.33,-154.93 1203.61,-149.81 1193.17,-148.03 1194.33,-154.93"/>
</g>
<!-- Node4&#45;&gt;Node14 -->
<g id="edge26" class="edge">
<title>Node4&#45;&gt;Node14</title>
<path fill="none" stroke="#63b8ff" d="M927.46,-190.52C1019.69,-184.03 1182.39,-171.09 1321,-151 1323.01,-150.71 1325.05,-150.4 1327.11,-150.07"/>
<polygon fill="#63b8ff" stroke="#63b8ff" points="1327.49,-153.56 1336.77,-148.45 1326.33,-146.65 1327.49,-153.56"/>
</g>
<!-- Node17 -->
<g id="node17" class="node">
<title>Node17</title>
<g id="a_node17"><a xlink:href="zscore_8h_source.html" target="_top" xlink:title=" ">
<polygon fill="white" stroke="#666666" points="698.5,-145.5 589.5,-145.5 589.5,-126.5 698.5,-126.5 698.5,-145.5"/>
<text text-anchor="middle" x="644" y="-133.5" font-family="Helvetica,sans-Serif" font-size="10.00">ViennaRNA/zscore.h</text>
</a>
</g>
</g>
<!-- Node4&#45;&gt;Node17 -->
<g id="edge32" class="edge">
<title>Node4&#45;&gt;Node17</title>
<path fill="none" stroke="#63b8ff" d="M822.11,-186.62C786.1,-176.59 727.34,-160.22 687.23,-149.04"/>
<polygon fill="#63b8ff" stroke="#63b8ff" points="688.23,-145.69 677.65,-146.37 686.35,-152.43 688.23,-145.69"/>
</g>
<!-- Node6&#45;&gt;Node1 -->
<g id="edge7" class="edge">
<title>Node6&#45;&gt;Node1</title>
<path fill="none" stroke="#63b8ff" d="M267.18,-145.95C342.69,-159.51 484.88,-185.8 606,-206 687.25,-219.55 780.13,-233.66 844.32,-243.42"/>
<polygon fill="#63b8ff" stroke="#63b8ff" points="843.65,-246.86 854.06,-244.9 844.7,-239.94 843.65,-246.86"/>
</g>
<!-- Node6&#45;&gt;Node2 -->
<g id="edge6" class="edge">
<title>Node6&#45;&gt;Node2</title>
<path fill="none" stroke="#63b8ff" d="M195.23,-126.1C172.56,-115.35 134.19,-97.16 107.78,-84.64"/>
<polygon fill="#63b8ff" stroke="#63b8ff" points="109.51,-81.59 98.98,-80.47 106.52,-87.92 109.51,-81.59"/>
</g>
<!-- Node6&#45;&gt;Node4 -->
<g id="edge8" class="edge">
<title>Node6&#45;&gt;Node4</title>
<path fill="none" stroke="#63b8ff" d="M268.42,-145.97C279.25,-147.84 290.49,-149.64 301,-151 466.47,-172.35 660.77,-185 769.47,-191.07"/>
<polygon fill="#63b8ff" stroke="#63b8ff" points="769,-194.55 779.17,-191.6 769.38,-187.56 769,-194.55"/>
</g>
<!-- Node6&#45;&gt;Node5 -->
<g id="edge9" class="edge">
<title>Node6&#45;&gt;Node5</title>
<path fill="none" stroke="#63b8ff" d="M216.09,-126.1C218.21,-117.03 221.58,-102.64 224.35,-90.85"/>
<polygon fill="#63b8ff" stroke="#63b8ff" points="227.71,-91.83 226.59,-81.3 220.9,-90.23 227.71,-91.83"/>
</g>
<!-- Node7&#45;&gt;Node4 -->
<g id="edge11" class="edge">
<title>Node7&#45;&gt;Node4</title>
<path fill="none" stroke="#63b8ff" d="M858.96,-145.67C860.66,-153.54 861.15,-165.45 860.43,-175.66"/>
<polygon fill="#63b8ff" stroke="#63b8ff" points="856.99,-175 859.15,-185.37 863.93,-175.91 856.99,-175"/>
</g>
<!-- Node8&#45;&gt;Node1 -->
<g id="edge13" class="edge">
<title>Node8&#45;&gt;Node1</title>
<path fill="none" stroke="#63b8ff" d="M415.29,-145.97C479.4,-159.17 596.97,-184.57 697,-206 748.89,-217.11 807.24,-229.53 851.71,-239.21"/>
<polygon fill="#63b8ff" stroke="#63b8ff" points="850.71,-242.57 861.23,-241.29 852.21,-235.73 850.71,-242.57"/>
</g>
<!-- Node8&#45;&gt;Node4 -->
<g id="edge14" class="edge">
<title>Node8&#45;&gt;Node4</title>
<path fill="none" stroke="#63b8ff" d="M421.49,-145.93C431.66,-147.75 442.17,-149.55 452,-151 561.35,-167.1 687.88,-179.94 769.38,-187.61"/>
<polygon fill="#63b8ff" stroke="#63b8ff" points="768.79,-191.06 779.07,-188.51 769.44,-184.1 768.79,-191.06"/>
</g>
<!-- Node9&#45;&gt;Node4 -->
<g id="edge16" class="edge">
<title>Node9&#45;&gt;Node4</title>
<path fill="none" stroke="#63b8ff" d="M571.77,-147.71C577.61,-148.85 583.43,-149.97 589,-151 657.7,-163.64 736.44,-176.24 790.19,-184.78"/>
<polygon fill="#63b8ff" stroke="#63b8ff" points="789.35,-188.19 799.78,-186.3 790.45,-181.28 789.35,-188.19"/>
</g>
<!-- Node10 -->
<g id="node10" class="node">
<title>Node10</title>
<g id="a_node10"><a xlink:href="constraints_2basic_8h.html" target="_top" xlink:title="Functions and data structures for constraining secondary structure predictions and evaluation.">
<polygon fill="white" stroke="#666666" points="824.5,-85 705.5,-85 705.5,-55 824.5,-55 824.5,-85"/>
<text text-anchor="start" x="713.5" y="-73" font-family="Helvetica,sans-Serif" font-size="10.00">ViennaRNA/constraints</text>
<text text-anchor="middle" x="765" y="-62" font-family="Helvetica,sans-Serif" font-size="10.00">/basic.h</text>
</a>
</g>
</g>
<!-- Node9&#45;&gt;Node10 -->
<g id="edge17" class="edge">
<title>Node9&#45;&gt;Node10</title>
<path fill="none" stroke="#63b8ff" d="M569.09,-120.56C607.06,-110.95 657.11,-98.29 697.11,-88.17"/>
<polygon fill="#63b8ff" stroke="#63b8ff" points="697.81,-91.61 706.65,-85.76 696.09,-84.82 697.81,-91.61"/>
</g>
<!-- Node10&#45;&gt;Node4 -->
<g id="edge18" class="edge">
<title>Node10&#45;&gt;Node4</title>
<path fill="none" stroke="#63b8ff" d="M765.23,-85.33C766.16,-102.44 769.92,-131.23 784,-151 793.39,-164.18 808.02,-174.36 821.48,-181.64"/>
<polygon fill="#63b8ff" stroke="#63b8ff" points="819.58,-184.6 830.09,-185.96 822.72,-178.35 819.58,-184.6"/>
</g>
<!-- Node11&#45;&gt;Node1 -->
<g id="edge20" class="edge">
<title>Node11&#45;&gt;Node1</title>
<path fill="none" stroke="#63b8ff" d="M1107.78,-151.41C1073.91,-172.61 1005.75,-212.29 962.26,-236.21"/>
<polygon fill="#63b8ff" stroke="#63b8ff" points="960.74,-233.06 953.64,-240.92 964.1,-239.2 960.74,-233.06"/>
</g>
<!-- Node11&#45;&gt;Node4 -->
<g id="edge21" class="edge">
<title>Node11&#45;&gt;Node4</title>
<path fill="none" stroke="#63b8ff" d="M1068.22,-151.01C1021.89,-161.19 958.14,-174.77 912.21,-184.24"/>
<polygon fill="#63b8ff" stroke="#63b8ff" points="911.51,-180.81 902.42,-186.25 912.92,-187.66 911.51,-180.81"/>
</g>
<!-- Node11&#45;&gt;Node10 -->
<g id="edge22" class="edge">
<title>Node11&#45;&gt;Node10</title>
<path fill="none" stroke="#63b8ff" d="M1068.32,-122.59C1065.51,-122.04 1062.72,-121.51 1060,-121 983.74,-106.69 896.04,-92.06 836.21,-82.35"/>
<polygon fill="#63b8ff" stroke="#63b8ff" points="836.92,-78.92 826.49,-80.78 835.81,-85.83 836.92,-78.92"/>
</g>
<!-- Node12&#45;&gt;Node4 -->
<g id="edge24" class="edge">
<title>Node12&#45;&gt;Node4</title>
<path fill="none" stroke="#63b8ff" d="M975.87,-145.97C954.93,-155.71 918.24,-171.36 890.49,-182.46"/>
<polygon fill="#63b8ff" stroke="#63b8ff" points="889.39,-179.13 881.38,-186.06 891.96,-185.64 889.39,-179.13"/>
</g>
<!-- Node14&#45;&gt;Node1 -->
<g id="edge27" class="edge">
<title>Node14&#45;&gt;Node1</title>
<path fill="none" stroke="#63b8ff" d="M1347.5,-151.46C1261.84,-173.48 1093.96,-215.3 996.92,-238.82"/>
<polygon fill="#63b8ff" stroke="#63b8ff" points="996.1,-235.42 987.2,-241.17 997.75,-242.22 996.1,-235.42"/>
</g>
<!-- Node14&#45;&gt;Node4 -->
<g id="edge28" class="edge">
<title>Node14&#45;&gt;Node4</title>
<path fill="none" stroke="#63b8ff" d="M1338.15,-151.12C1198.87,-171.27 1035.48,-184.2 938.51,-190.64"/>
<polygon fill="#63b8ff" stroke="#63b8ff" points="938.57,-187.13 928.82,-191.27 939.03,-194.11 938.57,-187.13"/>
</g>
<!-- Node14&#45;&gt;Node15 -->
<g id="edge29" class="edge">
<title>Node14&#45;&gt;Node15</title>
<path fill="none" stroke="#63b8ff" d="M1423.19,-120.8C1439.39,-110.43 1461.31,-96.4 1477.75,-85.88"/>
<polygon fill="#63b8ff" stroke="#63b8ff" points="1479.37,-89 1485.91,-80.66 1475.6,-83.1 1479.37,-89"/>
</g>
<!-- Node15&#45;&gt;Node1 -->
<g id="edge31" class="edge">
<title>Node15&#45;&gt;Node1</title>
<path fill="none" stroke="#63b8ff" d="M1505.8,-79.78C1508.5,-96.4 1503.51,-132.46 1482,-151 1411.41,-211.85 1138.04,-240.45 1001.45,-250.97"/>
<polygon fill="#63b8ff" stroke="#63b8ff" points="1001.48,-247.46 991.77,-251.71 1002.01,-254.44 1001.48,-247.46"/>
</g>
<!-- Node16 -->
<g id="node16" class="node">
<title>Node16</title>
<g id="a_node16"><a xlink:title=" ">
<polygon fill="#e0e0e0" stroke="#999999" points="1524,-19 1478,-19 1478,0 1524,0 1524,-19"/>
<text text-anchor="middle" x="1501" y="-7" font-family="Helvetica,sans-Serif" font-size="10.00">stdio.h</text>
</a>
</g>
</g>
<!-- Node15&#45;&gt;Node16 -->
<g id="edge30" class="edge">
<title>Node15&#45;&gt;Node16</title>
<path fill="none" stroke="#63b8ff" d="M1501,-60.37C1501,-52.5 1501,-40.6 1501,-30.39"/>
<polygon fill="#63b8ff" stroke="#63b8ff" points="1504.5,-30.68 1501,-20.68 1497.5,-30.68 1504.5,-30.68"/>
</g>
</g>
</svg>
        <g id="navigator" transform="translate(0 0)" fill="#404254">
                <rect fill="#f2f5e9" fill-opacity="0.5" stroke="#606060" stroke-width=".5" x="0" y="0" width="60" height="60"/>
                <use id="zoomplus" xlink:href="#zoomPlus" x="17" y="9" onmousedown="handleZoom(evt,'in')"/>
                <use id="zoomminus" xlink:href="#zoomMin" x="42" y="9" onmousedown="handleZoom(evt,'out')"/>
                <use id="reset" xlink:href="#resetDef" x="30" y="36" onmousedown="handleReset()"/>
                <g id="arrowUp" xlink:href="#dirArrow" transform="translate(30 24)" onmousedown="handlePan(0,-1)">
                  <use xlink:href="#rim" fill="#404040">
                        <set attributeName="fill" to="#808080" begin="arrowUp.mouseover" end="arrowUp.mouseout"/>
                  </use>
                  <path fill="none" stroke="white" stroke-width="1.5" d="M0,-3.0v7 M-2.5,-0.5L0,-3.0L2.5,-0.5"/>
                </g>
                <g id="arrowRight" xlink:href="#dirArrow" transform="rotate(90) translate(36 -43)" onmousedown="handlePan(1,0)">
                  <use xlink:href="#rim" fill="#404040">
                        <set attributeName="fill" to="#808080" begin="arrowRight.mouseover" end="arrowRight.mouseout"/>
                  </use>
                  <path fill="none" stroke="white" stroke-width="1.5" d="M0,-3.0v7 M-2.5,-0.5L0,-3.0L2.5,-0.5"/>
                </g>
                <g id="arrowDown" xlink:href="#dirArrow" transform="rotate(180) translate(-30 -48)" onmousedown="handlePan(0,1)">
                  <use xlink:href="#rim" fill="#404040">
                        <set attributeName="fill" to="#808080" begin="arrowDown.mouseover" end="arrowDown.mouseout"/>
                  </use>
                  <path fill="none" stroke="white" stroke-width="1.5" d="M0,-3.0v7 M-2.5,-0.5L0,-3.0L2.5,-0.5"/>
                </g>
                <g id="arrowLeft" xlink:href="#dirArrow" transform="rotate(270) translate(-36 17)" onmousedown="handlePan(-1,0)">
                  <use xlink:href="#rim" fill="#404040">
                        <set attributeName="fill" to="#808080" begin="arrowLeft.mouseover" end="arrowLeft.mouseout"/>
                  </use>
                  <path fill="none" stroke="white" stroke-width="1.5" d="M0,-3.0v7 M-2.5,-0.5L0,-3.0L2.5,-0.5"/>
                </g>
        </g>
        <svg viewBox="0 0 15 15" width="100%" height="30px" preserveAspectRatio="xMaxYMin meet">
         <g id="arrow_out" transform="scale(0.3 0.3)">
          <a xlink:href="datastructures_2basic_8h__incl_org.svg" target="_base">
           <rect id="button" ry="5" rx="5" y="6" x="6" height="38" width="38"
                fill="#f2f5e9" fill-opacity="0.5" stroke="#606060" stroke-width="1.0"/>
           <path id="arrow"
             d="M 11.500037,31.436501 C 11.940474,20.09759 22.043105,11.32322 32.158766,21.979434 L 37.068811,17.246167 C 37.068811,17.246167 37.088388,32 37.088388,32 L 22.160133,31.978069 C 22.160133,31.978069 26.997745,27.140456 26.997745,27.140456 C 18.528582,18.264221 13.291696,25.230495 11.500037,31.436501 z"
             style="fill:#404040;"/>
          </a>
         </g>
        </svg>
</svg>
