<?xml version="1.0" encoding="UTF-8" standalone="no"?>
<!DOCTYPE svg PUBLIC "-//W3C//DTD SVG 1.1//EN"
 "http://www.w3.org/Graphics/SVG/1.1/DTD/svg11.dtd">
<!-- Generated by graphviz version 7.1.0 (0)
 -->
<!-- Title: ViennaRNA/datastructures/char_stream.h Pages: 1 -->
<svg width="258pt" height="148pt"
 viewBox="0.00 0.00 258.00 148.00" xmlns="http://www.w3.org/2000/svg" xmlns:xlink="http://www.w3.org/1999/xlink">
<g id="graph0" class="graph" transform="scale(1 1) rotate(0) translate(4 144)">
<title>ViennaRNA/datastructures/char_stream.h</title>
<!-- Node1 -->
<g id="node1" class="node">
<title>Node1</title>
<g id="a_node1"><a xlink:title="Implementation of a dynamic, buffered character stream.">
<polygon fill="#999999" stroke="#666666" points="201,-140 67,-140 67,-110 201,-110 201,-140"/>
<text text-anchor="start" x="75" y="-128" font-family="Helvetica,sans-Serif" font-size="10.00">ViennaRNA/datastructures</text>
<text text-anchor="middle" x="134" y="-117" font-family="Helvetica,sans-Serif" font-size="10.00">/char_stream.h</text>
</a>
</g>
</g>
<!-- Node2 -->
<g id="node2" class="node">
<title>Node2</title>
<g id="a_node2"><a xlink:href="char__stream_8h.html" target="_top" xlink:title="Use ViennaRNA/datastructures/char_stream.h instead.">
<polygon fill="white" stroke="#666666" points="134,-74 0,-74 0,-55 134,-55 134,-74"/>
<text text-anchor="middle" x="67" y="-62" font-family="Helvetica,sans-Serif" font-size="10.00">ViennaRNA/char_stream.h</text>
</a>
</g>
</g>
<!-- Node1&#45;&gt;Node2 -->
<g id="edge1" class="edge">
<title>Node1&#45;&gt;Node2</title>
<path fill="none" stroke="#63b8ff" d="M108.91,-102.09C97.79,-92.38 85.35,-81.52 76.94,-74.18"/>
<polygon fill="#63b8ff" stroke="#63b8ff" points="106.46,-104.6 116.3,-108.54 111.07,-99.33 106.46,-104.6"/>
</g>
<!-- Node3 -->
<g id="node3" class="node">
<title>Node3</title>
<g id="a_node3"><a xlink:href="eval_8h.html" target="_top" xlink:title="Functions and variables related to energy evaluation of sequence/structure pairs.">
<polygon fill="white" stroke="#666666" points="250,-74 152,-74 152,-55 250,-55 250,-74"/>
<text text-anchor="middle" x="201" y="-62" font-family="Helvetica,sans-Serif" font-size="10.00">ViennaRNA/eval.h</text>
</a>
</g>
</g>
<!-- Node1&#45;&gt;Node3 -->
<g id="edge2" class="edge">
<title>Node1&#45;&gt;Node3</title>
<path fill="none" stroke="#63b8ff" d="M159.09,-102.09C170.21,-92.38 182.65,-81.52 191.06,-74.18"/>
<polygon fill="#63b8ff" stroke="#63b8ff" points="156.93,-99.33 151.7,-108.54 161.54,-104.6 156.93,-99.33"/>
</g>
<!-- Node4 -->
<g id="node4" class="node">
<title>Node4</title>
<g id="a_node4"><a xlink:href="fold_8h.html" target="_top" xlink:title="MFE calculations for single RNA sequences.">
<polygon fill="white" stroke="#666666" points="248.5,-19 153.5,-19 153.5,0 248.5,0 248.5,-19"/>
<text text-anchor="middle" x="201" y="-7" font-family="Helvetica,sans-Serif" font-size="10.00">ViennaRNA/fold.h</text>
</a>
</g>
</g>
<!-- Node3&#45;&gt;Node4 -->
<g id="edge3" class="edge">
<title>Node3&#45;&gt;Node4</title>
<path fill="none" stroke="#63b8ff" d="M201,-43.35C201,-35.1 201,-25.97 201,-19.44"/>
<polygon fill="#63b8ff" stroke="#63b8ff" points="197.5,-43.23 201,-53.23 204.5,-43.23 197.5,-43.23"/>
</g>
</g>
</svg>
