<?xml version="1.0" encoding="UTF-8" standalone="no"?>
<!DOCTYPE svg PUBLIC "-//W3C//DTD SVG 1.1//EN"
 "http://www.w3.org/Graphics/SVG/1.1/DTD/svg11.dtd">
<!-- Generated by graphviz version 7.1.0 (0)
 -->
<!-- Title: ViennaRNA Pages: 1 -->
<svg width="339pt" height="334pt"
 viewBox="0.00 0.00 339.00 334.00" xmlns="http://www.w3.org/2000/svg" xmlns:xlink="http://www.w3.org/1999/xlink">
<g id="graph0" class="graph" transform="scale(1 1) rotate(0) translate(4 330)">
<title>ViennaRNA</title>
<g id="clust1" class="cluster">
<title>clusterdir_94a42affd43e91f8a4e9ff1a4c7599c5</title>
<g id="a_clust1"><a xlink:href="dir_94a42affd43e91f8a4e9ff1a4c7599c5.html" target="_top">
<polygon fill="#edf0f7" stroke="#404040" stroke-width="2" points="8,-8 8,-318 323,-318 323,-8 8,-8"/>
</a>
</g>
</g>
<!-- dir_94a42affd43e91f8a4e9ff1a4c7599c5 -->
<g id="node1" class="node">
<title>dir_94a42affd43e91f8a4e9ff1a4c7599c5</title>
<text text-anchor="middle" x="154" y="-298" font-family="Helvetica,sans-Serif" font-size="10.00">ViennaRNA</text>
</g>
<!-- dir_e78bc76dd94a8744fef38d57611bd23c -->
<g id="node2" class="node">
<title>dir_e78bc76dd94a8744fef38d57611bd23c</title>
<g id="a_node2"><a xlink:href="dir_e78bc76dd94a8744fef38d57611bd23c.html" target="_top" xlink:title="constraints">
<polygon fill="#a2b4d6" stroke="#404040" points="148.5,-200 83.5,-200 83.5,-181 148.5,-181 148.5,-200"/>
<text text-anchor="middle" x="116" y="-188" font-family="Helvetica,sans-Serif" font-size="10.00">constraints</text>
</a>
</g>
</g>
<!-- dir_94a42affd43e91f8a4e9ff1a4c7599c5&#45;&gt;dir_e78bc76dd94a8744fef38d57611bd23c -->
<g id="edge8" class="edge">
<title>dir_94a42affd43e91f8a4e9ff1a4c7599c5&#45;&gt;dir_e78bc76dd94a8744fef38d57611bd23c</title>
<path fill="none" stroke="#63b8ff" d="M127.08,-291.03C110.29,-284.2 90.04,-272.75 80,-255 70.89,-238.89 83.88,-220.5 96.73,-207.67"/>
<polygon fill="#63b8ff" stroke="#63b8ff" points="98.83,-210.5 103.81,-201.15 94.08,-205.36 98.83,-210.5"/>
<g id="a_edge8&#45;headlabel"><a xlink:href="dir_000013_000000.html" target="_top" xlink:title="15">
<text text-anchor="middle" x="99.22" y="-211.5" font-family="Helvetica,sans-Serif" font-size="10.00" fill="#63b8ff">15</text>
</a>
</g>
</g>
<!-- dir_8a4ca9b4a73205797ab566a10a6011af -->
<g id="node3" class="node">
<title>dir_8a4ca9b4a73205797ab566a10a6011af</title>
<g id="a_node3"><a xlink:href="dir_8a4ca9b4a73205797ab566a10a6011af.html" target="_top" xlink:title="datastructures">
<polygon fill="#a2b4d6" stroke="#404040" points="159.5,-145 80.5,-145 80.5,-126 159.5,-126 159.5,-145"/>
<text text-anchor="middle" x="120" y="-133" font-family="Helvetica,sans-Serif" font-size="10.00">datastructures</text>
</a>
</g>
</g>
<!-- dir_94a42affd43e91f8a4e9ff1a4c7599c5&#45;&gt;dir_8a4ca9b4a73205797ab566a10a6011af -->
<g id="edge6" class="edge">
<title>dir_94a42affd43e91f8a4e9ff1a4c7599c5&#45;&gt;dir_8a4ca9b4a73205797ab566a10a6011af</title>
<path fill="none" stroke="#63b8ff" d="M124.37,-291.12C103.83,-284.12 76.89,-272.45 58,-255 37.39,-235.96 34.12,-227.14 27,-200 24.86,-191.83 22.5,-188.14 27,-181 36.63,-165.72 53.11,-155.57 69.55,-148.88"/>
<polygon fill="#63b8ff" stroke="#63b8ff" points="70.66,-152.21 78.86,-145.49 68.26,-145.63 70.66,-152.21"/>
<g id="a_edge6&#45;headlabel"><a xlink:href="dir_000013_000001.html" target="_top" xlink:title="46">
<text text-anchor="middle" x="69.68" y="-153.09" font-family="Helvetica,sans-Serif" font-size="10.00" fill="#63b8ff">46</text>
</a>
</g>
</g>
<!-- dir_45ac42044d8b814ecf694abd17d2de12 -->
<g id="node4" class="node">
<title>dir_45ac42044d8b814ecf694abd17d2de12</title>
<g id="a_node4"><a xlink:href="dir_45ac42044d8b814ecf694abd17d2de12.html" target="_top" xlink:title="io">
<polygon fill="#a2b4d6" stroke="#404040" points="65.5,-200 36.5,-200 36.5,-181 65.5,-181 65.5,-200"/>
<text text-anchor="middle" x="51" y="-188" font-family="Helvetica,sans-Serif" font-size="10.00">io</text>
</a>
</g>
</g>
<!-- dir_94a42affd43e91f8a4e9ff1a4c7599c5&#45;&gt;dir_45ac42044d8b814ecf694abd17d2de12 -->
<g id="edge4" class="edge">
<title>dir_94a42affd43e91f8a4e9ff1a4c7599c5&#45;&gt;dir_45ac42044d8b814ecf694abd17d2de12</title>
<path fill="none" stroke="#63b8ff" d="M128.48,-291.09C110.68,-284.03 87.59,-272.29 73,-255 62.51,-242.58 56.93,-224.86 54.01,-211.3"/>
<polygon fill="#63b8ff" stroke="#63b8ff" points="57.51,-210.99 52.29,-201.77 50.62,-212.23 57.51,-210.99"/>
<g id="a_edge4&#45;headlabel"><a xlink:href="dir_000013_000004.html" target="_top" xlink:title="5">
<text text-anchor="middle" x="60.67" y="-210.03" font-family="Helvetica,sans-Serif" font-size="10.00" fill="#63b8ff">5</text>
</a>
</g>
</g>
<!-- dir_3d74ce004720553e7871f65d12e07ff9 -->
<g id="node5" class="node">
<title>dir_3d74ce004720553e7871f65d12e07ff9</title>
<g id="a_node5"><a xlink:href="dir_3d74ce004720553e7871f65d12e07ff9.html" target="_top" xlink:title="landscape">
<polygon fill="#a2b4d6" stroke="#404040" points="150.5,-255 89.5,-255 89.5,-236 150.5,-236 150.5,-255"/>
<text text-anchor="middle" x="120" y="-243" font-family="Helvetica,sans-Serif" font-size="10.00">landscape</text>
</a>
</g>
</g>
<!-- dir_94a42affd43e91f8a4e9ff1a4c7599c5&#45;&gt;dir_3d74ce004720553e7871f65d12e07ff9 -->
<g id="edge3" class="edge">
<title>dir_94a42affd43e91f8a4e9ff1a4c7599c5&#45;&gt;dir_3d74ce004720553e7871f65d12e07ff9</title>
<path fill="none" stroke="#63b8ff" d="M148.69,-291.22C144.18,-284.19 137.54,-273.84 131.78,-264.87"/>
<polygon fill="#63b8ff" stroke="#63b8ff" points="134.78,-263.05 126.43,-256.53 128.89,-266.83 134.78,-263.05"/>
<g id="a_edge3&#45;headlabel"><a xlink:href="dir_000013_000005.html" target="_top" xlink:title="6">
<text text-anchor="middle" x="138.29" y="-260.77" font-family="Helvetica,sans-Serif" font-size="10.00" fill="#63b8ff">6</text>
</a>
</g>
</g>
<!-- dir_54da8e06181df970e10d68c1aa7bbb33 -->
<g id="node6" class="node">
<title>dir_54da8e06181df970e10d68c1aa7bbb33</title>
<g id="a_node6"><a xlink:href="dir_54da8e06181df970e10d68c1aa7bbb33.html" target="_top" xlink:title="loops">
<polygon fill="#a2b4d6" stroke="#404040" points="209,-255 169,-255 169,-236 209,-236 209,-255"/>
<text text-anchor="middle" x="189" y="-243" font-family="Helvetica,sans-Serif" font-size="10.00">loops</text>
</a>
</g>
</g>
<!-- dir_94a42affd43e91f8a4e9ff1a4c7599c5&#45;&gt;dir_54da8e06181df970e10d68c1aa7bbb33 -->
<g id="edge5" class="edge">
<title>dir_94a42affd43e91f8a4e9ff1a4c7599c5&#45;&gt;dir_54da8e06181df970e10d68c1aa7bbb33</title>
<path fill="none" stroke="#63b8ff" d="M159.47,-291.22C164.16,-284.11 171.09,-273.62 177.06,-264.58"/>
<polygon fill="#63b8ff" stroke="#63b8ff" points="179.8,-266.79 182.39,-256.51 173.96,-262.93 179.8,-266.79"/>
<g id="a_edge5&#45;headlabel"><a xlink:href="dir_000013_000006.html" target="_top" xlink:title="5">
<text text-anchor="middle" x="181.02" y="-267.59" font-family="Helvetica,sans-Serif" font-size="10.00" fill="#63b8ff">5</text>
</a>
</g>
</g>
<!-- dir_8b3d6293463b6781f7bf8859fc72e182 -->
<g id="node7" class="node">
<title>dir_8b3d6293463b6781f7bf8859fc72e182</title>
<g id="a_node7"><a xlink:href="dir_8b3d6293463b6781f7bf8859fc72e182.html" target="_top" xlink:title="params">
<polygon fill="#a2b4d6" stroke="#404040" points="188.5,-90 139.5,-90 139.5,-71 188.5,-71 188.5,-90"/>
<text text-anchor="middle" x="164" y="-78" font-family="Helvetica,sans-Serif" font-size="10.00">params</text>
</a>
</g>
</g>
<!-- dir_94a42affd43e91f8a4e9ff1a4c7599c5&#45;&gt;dir_8b3d6293463b6781f7bf8859fc72e182 -->
<g id="edge7" class="edge">
<title>dir_94a42affd43e91f8a4e9ff1a4c7599c5&#45;&gt;dir_8b3d6293463b6781f7bf8859fc72e182</title>
<path fill="none" stroke="#63b8ff" d="M175.48,-291.02C190.38,-283.86 209.1,-272.03 218,-255 245.94,-201.54 202.01,-131.14 177.99,-98.94"/>
<polygon fill="#63b8ff" stroke="#63b8ff" points="181.08,-97.21 172.2,-91.43 175.54,-101.48 181.08,-97.21"/>
<g id="a_edge7&#45;headlabel"><a xlink:href="dir_000013_000007.html" target="_top" xlink:title="27">
<text text-anchor="middle" x="184.6" y="-94.62" font-family="Helvetica,sans-Serif" font-size="10.00" fill="#63b8ff">27</text>
</a>
</g>
</g>
<!-- dir_1ca6f3a46323f79e1934000abf5d4efb -->
<g id="node8" class="node">
<title>dir_1ca6f3a46323f79e1934000abf5d4efb</title>
<g id="a_node8"><a xlink:href="dir_1ca6f3a46323f79e1934000abf5d4efb.html" target="_top" xlink:title="plotting">
<polygon fill="#a2b4d6" stroke="#404040" points="295,-200 247,-200 247,-181 295,-181 295,-200"/>
<text text-anchor="middle" x="271" y="-188" font-family="Helvetica,sans-Serif" font-size="10.00">plotting</text>
</a>
</g>
</g>
<!-- dir_94a42affd43e91f8a4e9ff1a4c7599c5&#45;&gt;dir_1ca6f3a46323f79e1934000abf5d4efb -->
<g id="edge1" class="edge">
<title>dir_94a42affd43e91f8a4e9ff1a4c7599c5&#45;&gt;dir_1ca6f3a46323f79e1934000abf5d4efb</title>
<path fill="none" stroke="#63b8ff" d="M175.41,-291.1C192.51,-283.59 216.31,-271.26 233,-255 246.09,-242.25 256.36,-224.08 262.91,-210.43"/>
<polygon fill="#63b8ff" stroke="#63b8ff" points="265.95,-212.19 266.88,-201.64 259.57,-209.31 265.95,-212.19"/>
<g id="a_edge1&#45;headlabel"><a xlink:href="dir_000013_000008.html" target="_top" xlink:title="10">
<text text-anchor="middle" x="267.68" y="-212.76" font-family="Helvetica,sans-Serif" font-size="10.00" fill="#63b8ff">10</text>
</a>
</g>
</g>
<!-- dir_1ddf03e95848b6488d60454f7a385ded -->
<g id="node10" class="node">
<title>dir_1ddf03e95848b6488d60454f7a385ded</title>
<g id="a_node10"><a xlink:href="dir_1ddf03e95848b6488d60454f7a385ded.html" target="_top" xlink:title="utils">
<polygon fill="#a2b4d6" stroke="#404040" points="203.5,-35 168.5,-35 168.5,-16 203.5,-16 203.5,-35"/>
<text text-anchor="middle" x="186" y="-23" font-family="Helvetica,sans-Serif" font-size="10.00">utils</text>
</a>
</g>
</g>
<!-- dir_94a42affd43e91f8a4e9ff1a4c7599c5&#45;&gt;dir_1ddf03e95848b6488d60454f7a385ded -->
<g id="edge2" class="edge">
<title>dir_94a42affd43e91f8a4e9ff1a4c7599c5&#45;&gt;dir_1ddf03e95848b6488d60454f7a385ded</title>
<path fill="none" stroke="#63b8ff" d="M187.93,-292.55C234.9,-280.71 314,-251.82 314,-191.5 314,-191.5 314,-191.5 314,-134.5 314,-82.63 251.85,-50.61 214.16,-35.96"/>
<polygon fill="#63b8ff" stroke="#63b8ff" points="215.81,-32.84 205.22,-32.65 213.38,-39.4 215.81,-32.84"/>
<g id="a_edge2&#45;headlabel"><a xlink:href="dir_000013_000012.html" target="_top" xlink:title="23">
<text text-anchor="middle" x="218.75" y="-28.4" font-family="Helvetica,sans-Serif" font-size="10.00" fill="#63b8ff">23</text>
</a>
</g>
</g>
<!-- dir_e78bc76dd94a8744fef38d57611bd23c&#45;&gt;dir_8a4ca9b4a73205797ab566a10a6011af -->
<g id="edge9" class="edge">
<title>dir_e78bc76dd94a8744fef38d57611bd23c&#45;&gt;dir_8a4ca9b4a73205797ab566a10a6011af</title>
<path fill="none" stroke="#63b8ff" d="M111.49,-180.75C110.58,-174.19 110.81,-164.95 111.91,-156.6"/>
<polygon fill="#63b8ff" stroke="#63b8ff" points="115.32,-157.42 113.82,-146.93 108.45,-156.06 115.32,-157.42"/>
<g id="a_edge9&#45;headlabel"><a xlink:href="dir_000000_000001.html" target="_top" xlink:title="2">
<text text-anchor="middle" x="117.7" y="-157.51" font-family="Helvetica,sans-Serif" font-size="10.00" fill="#63b8ff">2</text>
</a>
</g>
</g>
<!-- dir_8a4ca9b4a73205797ab566a10a6011af&#45;&gt;dir_e78bc76dd94a8744fef38d57611bd23c -->
<g id="edge12" class="edge">
<title>dir_8a4ca9b4a73205797ab566a10a6011af&#45;&gt;dir_e78bc76dd94a8744fef38d57611bd23c</title>
<path fill="none" stroke="#63b8ff" d="M124.53,-145.44C125.42,-152.05 125.18,-161.31 124.06,-169.64"/>
<polygon fill="#63b8ff" stroke="#63b8ff" points="120.66,-168.77 122.12,-179.26 127.52,-170.15 120.66,-168.77"/>
<g id="a_edge12&#45;headlabel"><a xlink:href="dir_000001_000000.html" target="_top" xlink:title="2">
<text text-anchor="middle" x="118.29" y="-163.67" font-family="Helvetica,sans-Serif" font-size="10.00" fill="#63b8ff">2</text>
</a>
</g>
</g>
<!-- dir_8a4ca9b4a73205797ab566a10a6011af&#45;&gt;dir_8b3d6293463b6781f7bf8859fc72e182 -->
<g id="edge11" class="edge">
<title>dir_8a4ca9b4a73205797ab566a10a6011af&#45;&gt;dir_8b3d6293463b6781f7bf8859fc72e182</title>
<path fill="none" stroke="#63b8ff" d="M122.1,-125.75C126.65,-118.35 135.23,-107.54 143.58,-98.45"/>
<polygon fill="#63b8ff" stroke="#63b8ff" points="145.85,-101.14 150.31,-91.53 140.83,-96.26 145.85,-101.14"/>
<g id="a_edge11&#45;headlabel"><a xlink:href="dir_000001_000007.html" target="_top" xlink:title="2">
<text text-anchor="middle" x="146.44" y="-102.11" font-family="Helvetica,sans-Serif" font-size="10.00" fill="#63b8ff">2</text>
</a>
</g>
</g>
<!-- dir_8a4ca9b4a73205797ab566a10a6011af&#45;&gt;dir_1ddf03e95848b6488d60454f7a385ded -->
<g id="edge10" class="edge">
<title>dir_8a4ca9b4a73205797ab566a10a6011af&#45;&gt;dir_1ddf03e95848b6488d60454f7a385ded</title>
<path fill="none" stroke="#63b8ff" d="M113.76,-125.62C110.51,-112.7 111.8,-88.37 122,-71 130.33,-56.82 144.99,-45.3 158.36,-37.54"/>
<polygon fill="#63b8ff" stroke="#63b8ff" points="159.66,-40.81 166.88,-33.06 156.4,-34.62 159.66,-40.81"/>
<g id="a_edge10&#45;headlabel"><a xlink:href="dir_000001_000012.html" target="_top" xlink:title="1">
<text text-anchor="middle" x="159.14" y="-41.79" font-family="Helvetica,sans-Serif" font-size="10.00" fill="#63b8ff">1</text>
</a>
</g>
</g>
<!-- dir_45ac42044d8b814ecf694abd17d2de12&#45;&gt;dir_8a4ca9b4a73205797ab566a10a6011af -->
<g id="edge13" class="edge">
<title>dir_45ac42044d8b814ecf694abd17d2de12&#45;&gt;dir_8a4ca9b4a73205797ab566a10a6011af</title>
<path fill="none" stroke="#63b8ff" d="M62.7,-180.51C72.78,-172.77 87.54,-161.43 99.56,-152.2"/>
<polygon fill="#63b8ff" stroke="#63b8ff" points="101.47,-155.15 107.27,-146.28 97.21,-149.6 101.47,-155.15"/>
<g id="a_edge13&#45;headlabel"><a xlink:href="dir_000004_000001.html" target="_top" xlink:title="1">
<text text-anchor="middle" x="101.55" y="-156.17" font-family="Helvetica,sans-Serif" font-size="10.00" fill="#63b8ff">1</text>
</a>
</g>
</g>
<!-- dir_54da8e06181df970e10d68c1aa7bbb33&#45;&gt;dir_e78bc76dd94a8744fef38d57611bd23c -->
<g id="edge17" class="edge">
<title>dir_54da8e06181df970e10d68c1aa7bbb33&#45;&gt;dir_e78bc76dd94a8744fef38d57611bd23c</title>
<path fill="none" stroke="#63b8ff" d="M176.62,-235.51C165.85,-227.7 150.03,-216.21 137.25,-206.93"/>
<polygon fill="#63b8ff" stroke="#63b8ff" points="139.57,-204.29 129.43,-201.25 135.46,-209.95 139.57,-204.29"/>
<g id="a_edge17&#45;headlabel"><a xlink:href="dir_000006_000000.html" target="_top" xlink:title="2">
<text text-anchor="middle" x="142.93" y="-200.72" font-family="Helvetica,sans-Serif" font-size="10.00" fill="#63b8ff">2</text>
</a>
</g>
</g>
<!-- dir_54da8e06181df970e10d68c1aa7bbb33&#45;&gt;dir_8a4ca9b4a73205797ab566a10a6011af -->
<g id="edge15" class="edge">
<title>dir_54da8e06181df970e10d68c1aa7bbb33&#45;&gt;dir_8a4ca9b4a73205797ab566a10a6011af</title>
<path fill="none" stroke="#63b8ff" d="M185.63,-235.92C180.52,-223.36 170.11,-199.47 158,-181 151.75,-171.47 143.69,-161.76 136.6,-153.84"/>
<polygon fill="#63b8ff" stroke="#63b8ff" points="139.27,-151.58 129.91,-146.61 134.13,-156.33 139.27,-151.58"/>
<g id="a_edge15&#45;headlabel"><a xlink:href="dir_000006_000001.html" target="_top" xlink:title="4">
<text text-anchor="middle" x="142.77" y="-148.68" font-family="Helvetica,sans-Serif" font-size="10.00" fill="#63b8ff">4</text>
</a>
</g>
</g>
<!-- dir_54da8e06181df970e10d68c1aa7bbb33&#45;&gt;dir_8b3d6293463b6781f7bf8859fc72e182 -->
<g id="edge16" class="edge">
<title>dir_54da8e06181df970e10d68c1aa7bbb33&#45;&gt;dir_8b3d6293463b6781f7bf8859fc72e182</title>
<path fill="none" stroke="#63b8ff" d="M187.66,-235.74C183.79,-210.53 172.57,-137.36 167.09,-101.62"/>
<polygon fill="#63b8ff" stroke="#63b8ff" points="170.56,-101.16 165.58,-91.8 163.64,-102.22 170.56,-101.16"/>
<g id="a_edge16&#45;headlabel"><a xlink:href="dir_000006_000007.html" target="_top" xlink:title="6">
<text text-anchor="middle" x="173.68" y="-100.28" font-family="Helvetica,sans-Serif" font-size="10.00" fill="#63b8ff">6</text>
</a>
</g>
</g>
<!-- dir_54da8e06181df970e10d68c1aa7bbb33&#45;&gt;dir_1ddf03e95848b6488d60454f7a385ded -->
<g id="edge14" class="edge">
<title>dir_54da8e06181df970e10d68c1aa7bbb33&#45;&gt;dir_1ddf03e95848b6488d60454f7a385ded</title>
<path fill="none" stroke="#63b8ff" d="M190.57,-235.79C194.93,-210.32 206.32,-133.79 198,-71 196.9,-62.67 194.68,-53.69 192.45,-45.99"/>
<polygon fill="#63b8ff" stroke="#63b8ff" points="195.86,-45.17 189.54,-36.67 189.18,-47.26 195.86,-45.17"/>
<g id="a_edge14&#45;headlabel"><a xlink:href="dir_000006_000012.html" target="_top" xlink:title="3">
<text text-anchor="middle" x="199.19" y="-43.81" font-family="Helvetica,sans-Serif" font-size="10.00" fill="#63b8ff">3</text>
</a>
</g>
</g>
<!-- dir_8b3d6293463b6781f7bf8859fc72e182&#45;&gt;dir_8a4ca9b4a73205797ab566a10a6011af -->
<g id="edge19" class="edge">
<title>dir_8b3d6293463b6781f7bf8859fc72e182&#45;&gt;dir_8a4ca9b4a73205797ab566a10a6011af</title>
<path fill="none" stroke="#63b8ff" d="M161.78,-90.44C157.16,-97.9 148.55,-108.72 140.21,-117.78"/>
<polygon fill="#63b8ff" stroke="#63b8ff" points="137.97,-115.06 133.49,-124.66 142.98,-119.95 137.97,-115.06"/>
<g id="a_edge19&#45;headlabel"><a xlink:href="dir_000007_000001.html" target="_top" xlink:title="1">
<text text-anchor="middle" x="137.39" y="-109.09" font-family="Helvetica,sans-Serif" font-size="10.00" fill="#63b8ff">1</text>
</a>
</g>
</g>
<!-- dir_8b3d6293463b6781f7bf8859fc72e182&#45;&gt;dir_1ddf03e95848b6488d60454f7a385ded -->
<g id="edge18" class="edge">
<title>dir_8b3d6293463b6781f7bf8859fc72e182&#45;&gt;dir_1ddf03e95848b6488d60454f7a385ded</title>
<path fill="none" stroke="#63b8ff" d="M167.63,-70.75C170.42,-64.04 174.37,-54.52 177.9,-46.02"/>
<polygon fill="#63b8ff" stroke="#63b8ff" points="181.11,-47.42 181.71,-36.84 174.64,-44.73 181.11,-47.42"/>
<g id="a_edge18&#45;headlabel"><a xlink:href="dir_000007_000012.html" target="_top" xlink:title="1">
<text text-anchor="middle" x="182.93" y="-47.93" font-family="Helvetica,sans-Serif" font-size="10.00" fill="#63b8ff">1</text>
</a>
</g>
</g>
<!-- dir_1ca6f3a46323f79e1934000abf5d4efb&#45;&gt;dir_8a4ca9b4a73205797ab566a10a6011af -->
<g id="edge21" class="edge">
<title>dir_1ca6f3a46323f79e1934000abf5d4efb&#45;&gt;dir_8a4ca9b4a73205797ab566a10a6011af</title>
<path fill="none" stroke="#63b8ff" d="M246.74,-180.98C222.23,-172.38 184.08,-158.99 156.04,-149.15"/>
<polygon fill="#63b8ff" stroke="#63b8ff" points="157.48,-145.95 146.89,-145.94 155.17,-152.55 157.48,-145.95"/>
<g id="a_edge21&#45;headlabel"><a xlink:href="dir_000008_000001.html" target="_top" xlink:title="3">
<text text-anchor="middle" x="160.39" y="-141.46" font-family="Helvetica,sans-Serif" font-size="10.00" fill="#63b8ff">3</text>
</a>
</g>
</g>
<!-- dir_1ca6f3a46323f79e1934000abf5d4efb&#45;&gt;dir_1ddf03e95848b6488d60454f7a385ded -->
<g id="edge20" class="edge">
<title>dir_1ca6f3a46323f79e1934000abf5d4efb&#45;&gt;dir_1ddf03e95848b6488d60454f7a385ded</title>
<path fill="none" stroke="#63b8ff" d="M267.04,-180.74C258.01,-160.91 234.97,-111.2 213,-71 208.23,-62.28 202.58,-52.84 197.68,-44.9"/>
<polygon fill="#63b8ff" stroke="#63b8ff" points="200.7,-43.13 192.42,-36.51 194.76,-46.84 200.7,-43.13"/>
<g id="a_edge20&#45;headlabel"><a xlink:href="dir_000008_000012.html" target="_top" xlink:title="2">
<text text-anchor="middle" x="204.21" y="-40.88" font-family="Helvetica,sans-Serif" font-size="10.00" fill="#63b8ff">2</text>
</a>
</g>
</g>
<!-- dir_ece6de16e10c3ab1bafd819fa99af76e -->
<g id="node9" class="node">
<title>dir_ece6de16e10c3ab1bafd819fa99af76e</title>
<g id="a_node9"><a xlink:href="dir_ece6de16e10c3ab1bafd819fa99af76e.html" target="_top" xlink:title="search">
<polygon fill="#a2b4d6" stroke="#404040" points="99,-310 53,-310 53,-291 99,-291 99,-310"/>
<text text-anchor="middle" x="76" y="-298" font-family="Helvetica,sans-Serif" font-size="10.00">search</text>
</a>
</g>
</g>
<!-- dir_1ddf03e95848b6488d60454f7a385ded&#45;&gt;dir_8a4ca9b4a73205797ab566a10a6011af -->
<g id="edge22" class="edge">
<title>dir_1ddf03e95848b6488d60454f7a385ded&#45;&gt;dir_8a4ca9b4a73205797ab566a10a6011af</title>
<path fill="none" stroke="#63b8ff" d="M177.07,-35.21C166.15,-42.9 149.21,-55.33 140,-71 132.27,-84.16 129.66,-101.32 127.54,-114.49"/>
<polygon fill="#63b8ff" stroke="#63b8ff" points="124.13,-113.67 125.78,-124.14 131.02,-114.93 124.13,-113.67"/>
<g id="a_edge22&#45;headlabel"><a xlink:href="dir_000012_000001.html" target="_top" xlink:title="3">
<text text-anchor="middle" x="121.71" y="-108.61" font-family="Helvetica,sans-Serif" font-size="10.00" fill="#63b8ff">3</text>
</a>
</g>
</g>
</g>
</svg>
