<?xml version="1.0" encoding="UTF-8" standalone="no"?>
<!DOCTYPE svg PUBLIC "-//W3C//DTD SVG 1.1//EN"
 "http://www.w3.org/Graphics/SVG/1.1/DTD/svg11.dtd">
<!-- Generated by graphviz version 7.1.0 (0)
 -->
<!-- Title: ViennaRNA/datastructures Pages: 1 -->
<svg width="226pt" height="133pt"
 viewBox="0.00 0.00 226.00 133.00" xmlns="http://www.w3.org/2000/svg" xmlns:xlink="http://www.w3.org/1999/xlink">
<g id="graph0" class="graph" transform="scale(1 1) rotate(0) translate(4 129)">
<title>ViennaRNA/datastructures</title>
<g id="clust1" class="cluster">
<title>clusterdir_94a42affd43e91f8a4e9ff1a4c7599c5</title>
<g id="a_clust1"><a xlink:href="dir_94a42affd43e91f8a4e9ff1a4c7599c5.html" target="_top" xlink:title="ViennaRNA">
<polygon fill="#edf0f7" stroke="#404040" stroke-dasharray="5,2" points="8,-8 8,-117 210,-117 210,-8 8,-8"/>
<text text-anchor="middle" x="109" y="-105" font-family="Helvetica,sans-Serif" font-size="10.00">ViennaRNA</text>
</a>
</g>
</g>
<!-- dir_1ddf03e95848b6488d60454f7a385ded -->
<g id="node1" class="node">
<title>dir_1ddf03e95848b6488d60454f7a385ded</title>
<g id="a_node1"><a xlink:href="dir_1ddf03e95848b6488d60454f7a385ded.html" target="_top" xlink:title="utils">
<polygon fill="#a2b4d6" stroke="#404040" points="51.5,-35 16.5,-35 16.5,-16 51.5,-16 51.5,-35"/>
<text text-anchor="middle" x="34" y="-23" font-family="Helvetica,sans-Serif" font-size="10.00">utils</text>
</a>
</g>
</g>
<!-- dir_8b3d6293463b6781f7bf8859fc72e182 -->
<g id="node2" class="node">
<title>dir_8b3d6293463b6781f7bf8859fc72e182</title>
<g id="a_node2"><a xlink:href="dir_8b3d6293463b6781f7bf8859fc72e182.html" target="_top" xlink:title="params">
<polygon fill="#a2b4d6" stroke="#404040" points="118.5,-35 69.5,-35 69.5,-16 118.5,-16 118.5,-35"/>
<text text-anchor="middle" x="94" y="-23" font-family="Helvetica,sans-Serif" font-size="10.00">params</text>
</a>
</g>
</g>
<!-- dir_e78bc76dd94a8744fef38d57611bd23c -->
<g id="node3" class="node">
<title>dir_e78bc76dd94a8744fef38d57611bd23c</title>
<g id="a_node3"><a xlink:href="dir_e78bc76dd94a8744fef38d57611bd23c.html" target="_top" xlink:title="constraints">
<polygon fill="#a2b4d6" stroke="#404040" points="201.5,-35 136.5,-35 136.5,-16 201.5,-16 201.5,-35"/>
<text text-anchor="middle" x="169" y="-23" font-family="Helvetica,sans-Serif" font-size="10.00">constraints</text>
</a>
</g>
</g>
<!-- dir_8a4ca9b4a73205797ab566a10a6011af -->
<g id="node4" class="node">
<title>dir_8a4ca9b4a73205797ab566a10a6011af</title>
<g id="a_node4"><a xlink:href="dir_8a4ca9b4a73205797ab566a10a6011af.html" target="_top" xlink:title="datastructures">
<polygon fill="#edf0f7" stroke="#404040" stroke-width="2" points="133.5,-90 54.5,-90 54.5,-71 133.5,-71 133.5,-90"/>
<text text-anchor="middle" x="94" y="-78" font-family="Helvetica,sans-Serif" font-size="10.00">datastructures</text>
</a>
</g>
</g>
<!-- dir_8a4ca9b4a73205797ab566a10a6011af&#45;&gt;dir_1ddf03e95848b6488d60454f7a385ded -->
<g id="edge1" class="edge">
<title>dir_8a4ca9b4a73205797ab566a10a6011af&#45;&gt;dir_1ddf03e95848b6488d60454f7a385ded</title>
<path fill="none" stroke="#63b8ff" d="M83.82,-70.51C75.24,-62.93 62.73,-51.88 52.4,-42.75"/>
<polygon fill="#63b8ff" stroke="#63b8ff" points="54.97,-40.36 45.16,-36.36 50.34,-45.6 54.97,-40.36"/>
<g id="a_edge1&#45;headlabel"><a xlink:href="dir_000001_000012.html" target="_top" xlink:title="1">
<text text-anchor="middle" x="58.41" y="-37.11" font-family="Helvetica,sans-Serif" font-size="10.00" fill="#63b8ff">1</text>
</a>
</g>
</g>
<!-- dir_8a4ca9b4a73205797ab566a10a6011af&#45;&gt;dir_8b3d6293463b6781f7bf8859fc72e182 -->
<g id="edge2" class="edge">
<title>dir_8a4ca9b4a73205797ab566a10a6011af&#45;&gt;dir_8b3d6293463b6781f7bf8859fc72e182</title>
<path fill="none" stroke="#63b8ff" d="M94,-70.75C94,-64.27 94,-55.16 94,-46.9"/>
<polygon fill="#63b8ff" stroke="#63b8ff" points="97.5,-46.96 94,-36.96 90.5,-46.96 97.5,-46.96"/>
<g id="a_edge2&#45;headlabel"><a xlink:href="dir_000001_000007.html" target="_top" xlink:title="2">
<text text-anchor="middle" x="100.34" y="-46.54" font-family="Helvetica,sans-Serif" font-size="10.00" fill="#63b8ff">2</text>
</a>
</g>
</g>
<!-- dir_8a4ca9b4a73205797ab566a10a6011af&#45;&gt;dir_e78bc76dd94a8744fef38d57611bd23c -->
<g id="edge3" class="edge">
<title>dir_8a4ca9b4a73205797ab566a10a6011af&#45;&gt;dir_e78bc76dd94a8744fef38d57611bd23c</title>
<path fill="none" stroke="#63b8ff" d="M106.72,-70.51C117.78,-62.7 134.04,-51.21 147.17,-41.93"/>
<polygon fill="#63b8ff" stroke="#63b8ff" points="149.08,-44.86 155.23,-36.23 145.04,-39.14 149.08,-44.86"/>
<g id="a_edge3&#45;headlabel"><a xlink:href="dir_000001_000000.html" target="_top" xlink:title="2">
<text text-anchor="middle" x="149.02" y="-45.88" font-family="Helvetica,sans-Serif" font-size="10.00" fill="#63b8ff">2</text>
</a>
</g>
</g>
</g>
</svg>
