<?xml version="1.0" encoding="UTF-8" standalone="no"?>
<!DOCTYPE svg PUBLIC "-//W3C//DTD SVG 1.1//EN"
 "http://www.w3.org/Graphics/SVG/1.1/DTD/svg11.dtd">
<!-- Generated by graphviz version 7.1.0 (0)
 -->
<!-- Title: ViennaRNA/loops Pages: 1 -->
<svg width="323pt" height="133pt"
 viewBox="0.00 0.00 323.00 133.00" xmlns="http://www.w3.org/2000/svg" xmlns:xlink="http://www.w3.org/1999/xlink">
<g id="graph0" class="graph" transform="scale(1 1) rotate(0) translate(4 129)">
<title>ViennaRNA/loops</title>
<g id="clust1" class="cluster">
<title>clusterdir_94a42affd43e91f8a4e9ff1a4c7599c5</title>
<g id="a_clust1"><a xlink:href="dir_94a42affd43e91f8a4e9ff1a4c7599c5.html" target="_top" xlink:title="ViennaRNA">
<polygon fill="#edf0f7" stroke="#404040" stroke-dasharray="5,2" points="8,-8 8,-117 307,-117 307,-8 8,-8"/>
<text text-anchor="middle" x="157.5" y="-105" font-family="Helvetica,sans-Serif" font-size="10.00">ViennaRNA</text>
</a>
</g>
</g>
<!-- dir_1ddf03e95848b6488d60454f7a385ded -->
<g id="node1" class="node">
<title>dir_1ddf03e95848b6488d60454f7a385ded</title>
<g id="a_node1"><a xlink:href="dir_1ddf03e95848b6488d60454f7a385ded.html" target="_top" xlink:title="utils">
<polygon fill="#a2b4d6" stroke="#404040" points="51.5,-35 16.5,-35 16.5,-16 51.5,-16 51.5,-35"/>
<text text-anchor="middle" x="34" y="-23" font-family="Helvetica,sans-Serif" font-size="10.00">utils</text>
</a>
</g>
</g>
<!-- dir_8a4ca9b4a73205797ab566a10a6011af -->
<g id="node2" class="node">
<title>dir_8a4ca9b4a73205797ab566a10a6011af</title>
<g id="a_node2"><a xlink:href="dir_8a4ca9b4a73205797ab566a10a6011af.html" target="_top" xlink:title="datastructures">
<polygon fill="#a2b4d6" stroke="#404040" points="148.5,-35 69.5,-35 69.5,-16 148.5,-16 148.5,-35"/>
<text text-anchor="middle" x="109" y="-23" font-family="Helvetica,sans-Serif" font-size="10.00">datastructures</text>
</a>
</g>
</g>
<!-- dir_8b3d6293463b6781f7bf8859fc72e182 -->
<g id="node3" class="node">
<title>dir_8b3d6293463b6781f7bf8859fc72e182</title>
<g id="a_node3"><a xlink:href="dir_8b3d6293463b6781f7bf8859fc72e182.html" target="_top" xlink:title="params">
<polygon fill="#a2b4d6" stroke="#404040" points="215.5,-35 166.5,-35 166.5,-16 215.5,-16 215.5,-35"/>
<text text-anchor="middle" x="191" y="-23" font-family="Helvetica,sans-Serif" font-size="10.00">params</text>
</a>
</g>
</g>
<!-- dir_e78bc76dd94a8744fef38d57611bd23c -->
<g id="node4" class="node">
<title>dir_e78bc76dd94a8744fef38d57611bd23c</title>
<g id="a_node4"><a xlink:href="dir_e78bc76dd94a8744fef38d57611bd23c.html" target="_top" xlink:title="constraints">
<polygon fill="#a2b4d6" stroke="#404040" points="298.5,-35 233.5,-35 233.5,-16 298.5,-16 298.5,-35"/>
<text text-anchor="middle" x="266" y="-23" font-family="Helvetica,sans-Serif" font-size="10.00">constraints</text>
</a>
</g>
</g>
<!-- dir_54da8e06181df970e10d68c1aa7bbb33 -->
<g id="node5" class="node">
<title>dir_54da8e06181df970e10d68c1aa7bbb33</title>
<g id="a_node5"><a xlink:href="dir_54da8e06181df970e10d68c1aa7bbb33.html" target="_top" xlink:title="loops">
<polygon fill="#edf0f7" stroke="#404040" stroke-width="2" points="170,-90 130,-90 130,-71 170,-71 170,-90"/>
<text text-anchor="middle" x="150" y="-78" font-family="Helvetica,sans-Serif" font-size="10.00">loops</text>
</a>
</g>
</g>
<!-- dir_54da8e06181df970e10d68c1aa7bbb33&#45;&gt;dir_1ddf03e95848b6488d60454f7a385ded -->
<g id="edge1" class="edge">
<title>dir_54da8e06181df970e10d68c1aa7bbb33&#45;&gt;dir_1ddf03e95848b6488d60454f7a385ded</title>
<path fill="none" stroke="#63b8ff" d="M130.32,-70.51C111.61,-61.96 83.26,-49.01 62.15,-39.36"/>
<polygon fill="#63b8ff" stroke="#63b8ff" points="63.79,-36.26 53.24,-35.29 60.88,-42.63 63.79,-36.26"/>
<g id="a_edge1&#45;headlabel"><a xlink:href="dir_000006_000012.html" target="_top" xlink:title="3">
<text text-anchor="middle" x="66.87" y="-32.05" font-family="Helvetica,sans-Serif" font-size="10.00" fill="#63b8ff">3</text>
</a>
</g>
</g>
<!-- dir_54da8e06181df970e10d68c1aa7bbb33&#45;&gt;dir_8a4ca9b4a73205797ab566a10a6011af -->
<g id="edge2" class="edge">
<title>dir_54da8e06181df970e10d68c1aa7bbb33&#45;&gt;dir_8a4ca9b4a73205797ab566a10a6011af</title>
<path fill="none" stroke="#63b8ff" d="M143.23,-70.75C137.68,-63.58 129.66,-53.2 122.77,-44.3"/>
<polygon fill="#63b8ff" stroke="#63b8ff" points="125.73,-42.41 116.84,-36.64 120.19,-46.69 125.73,-42.41"/>
<g id="a_edge2&#45;headlabel"><a xlink:href="dir_000006_000001.html" target="_top" xlink:title="4">
<text text-anchor="middle" x="129.25" y="-39.82" font-family="Helvetica,sans-Serif" font-size="10.00" fill="#63b8ff">4</text>
</a>
</g>
</g>
<!-- dir_54da8e06181df970e10d68c1aa7bbb33&#45;&gt;dir_8b3d6293463b6781f7bf8859fc72e182 -->
<g id="edge3" class="edge">
<title>dir_54da8e06181df970e10d68c1aa7bbb33&#45;&gt;dir_8b3d6293463b6781f7bf8859fc72e182</title>
<path fill="none" stroke="#63b8ff" d="M156.77,-70.75C162.32,-63.58 170.34,-53.2 177.23,-44.3"/>
<polygon fill="#63b8ff" stroke="#63b8ff" points="179.81,-46.69 183.16,-36.64 174.27,-42.41 179.81,-46.69"/>
<g id="a_edge3&#45;headlabel"><a xlink:href="dir_000006_000007.html" target="_top" xlink:title="6">
<text text-anchor="middle" x="180.78" y="-47.57" font-family="Helvetica,sans-Serif" font-size="10.00" fill="#63b8ff">6</text>
</a>
</g>
</g>
<!-- dir_54da8e06181df970e10d68c1aa7bbb33&#45;&gt;dir_e78bc76dd94a8744fef38d57611bd23c -->
<g id="edge4" class="edge">
<title>dir_54da8e06181df970e10d68c1aa7bbb33&#45;&gt;dir_e78bc76dd94a8744fef38d57611bd23c</title>
<path fill="none" stroke="#63b8ff" d="M169.68,-70.51C187.95,-62.16 215.41,-49.61 236.35,-40.05"/>
<polygon fill="#63b8ff" stroke="#63b8ff" points="237.6,-43.33 245.24,-35.99 234.69,-36.96 237.6,-43.33"/>
<g id="a_edge4&#45;headlabel"><a xlink:href="dir_000006_000000.html" target="_top" xlink:title="2">
<text text-anchor="middle" x="236.88" y="-44.27" font-family="Helvetica,sans-Serif" font-size="10.00" fill="#63b8ff">2</text>
</a>
</g>
</g>
</g>
</svg>
