<?xml version="1.0" encoding="UTF-8" standalone="no"?>
<!DOCTYPE svg PUBLIC "-//W3C//DTD SVG 1.1//EN"
 "http://www.w3.org/Graphics/SVG/1.1/DTD/svg11.dtd">
<!-- Generated by graphviz version 7.1.0 (0)
 -->
<!-- Title: ViennaRNA/dist_vars.h Pages: 1 -->
<svg width="258pt" height="82pt"
 viewBox="0.00 0.00 257.50 82.00" xmlns="http://www.w3.org/2000/svg" xmlns:xlink="http://www.w3.org/1999/xlink">
<g id="graph0" class="graph" transform="scale(1 1) rotate(0) translate(4 78)">
<title>ViennaRNA/dist_vars.h</title>
<!-- Node1 -->
<g id="node1" class="node">
<title>Node1</title>
<g id="a_node1"><a xlink:title="Global variables for Distance&#45;Package.">
<polygon fill="#999999" stroke="#666666" points="186,-74 67,-74 67,-55 186,-55 186,-74"/>
<text text-anchor="middle" x="126.5" y="-62" font-family="Helvetica,sans-Serif" font-size="10.00">ViennaRNA/dist_vars.h</text>
</a>
</g>
</g>
<!-- Node2 -->
<g id="node2" class="node">
<title>Node2</title>
<g id="a_node2"><a xlink:href="stringdist_8h.html" target="_top" xlink:title="Functions for String Alignment.">
<polygon fill="white" stroke="#666666" points="119,-19 0,-19 0,0 119,0 119,-19"/>
<text text-anchor="middle" x="59.5" y="-7" font-family="Helvetica,sans-Serif" font-size="10.00">ViennaRNA/stringdist.h</text>
</a>
</g>
</g>
<!-- Node1&#45;&gt;Node2 -->
<g id="edge1" class="edge">
<title>Node1&#45;&gt;Node2</title>
<path fill="none" stroke="#63b8ff" d="M106.45,-47.64C94.75,-38.39 80.43,-27.05 70.7,-19.36"/>
<polygon fill="#63b8ff" stroke="#63b8ff" points="103.93,-50.11 113.95,-53.57 108.28,-44.62 103.93,-50.11"/>
</g>
<!-- Node3 -->
<g id="node3" class="node">
<title>Node3</title>
<g id="a_node3"><a xlink:href="treedist_8h.html" target="_top" xlink:title="Functions for Tree Edit Distances.">
<polygon fill="white" stroke="#666666" points="249.5,-19 137.5,-19 137.5,0 249.5,0 249.5,-19"/>
<text text-anchor="middle" x="193.5" y="-7" font-family="Helvetica,sans-Serif" font-size="10.00">ViennaRNA/treedist.h</text>
</a>
</g>
</g>
<!-- Node1&#45;&gt;Node3 -->
<g id="edge2" class="edge">
<title>Node1&#45;&gt;Node3</title>
<path fill="none" stroke="#63b8ff" d="M146.55,-47.64C158.25,-38.39 172.57,-27.05 182.3,-19.36"/>
<polygon fill="#63b8ff" stroke="#63b8ff" points="144.72,-44.62 139.05,-53.57 149.07,-50.11 144.72,-44.62"/>
</g>
</g>
</svg>
