<?xml version="1.0" encoding="UTF-8" standalone="no"?>
<!DOCTYPE svg PUBLIC "-//W3C//DTD SVG 1.1//EN"
 "http://www.w3.org/Graphics/SVG/1.1/DTD/svg11.dtd">
<!-- Generated by graphviz version 7.1.0 (0)
 -->
<!-- Title: ViennaRNA/dp_matrices.h Pages: 1 -->
<svg width="1409pt" height="335pt"
 viewBox="0.00 0.00 1409.00 335.00" xmlns="http://www.w3.org/2000/svg" xmlns:xlink="http://www.w3.org/1999/xlink">
<g id="graph0" class="graph" transform="scale(1 1) rotate(0) translate(4 331)">
<title>ViennaRNA/dp_matrices.h</title>
<!-- Node1 -->
<g id="node1" class="node">
<title>Node1</title>
<g id="a_node1"><a xlink:title="Functions to deal with standard dynamic programming (DP) matrices.">
<polygon fill="#999999" stroke="#666666" points="816.5,-327 683.5,-327 683.5,-308 816.5,-308 816.5,-327"/>
<text text-anchor="middle" x="750" y="-315" font-family="Helvetica,sans-Serif" font-size="10.00">ViennaRNA/dp_matrices.h</text>
</a>
</g>
</g>
<!-- Node2 -->
<g id="node2" class="node">
<title>Node2</title>
<g id="a_node2"><a xlink:href="datastructures_2basic_8h.html" target="_top" xlink:title="Various data structures and pre&#45;processor macros.">
<polygon fill="white" stroke="#666666" points="872,-272 738,-272 738,-242 872,-242 872,-272"/>
<text text-anchor="start" x="746" y="-260" font-family="Helvetica,sans-Serif" font-size="10.00">ViennaRNA/datastructures</text>
<text text-anchor="middle" x="805" y="-249" font-family="Helvetica,sans-Serif" font-size="10.00">/basic.h</text>
</a>
</g>
</g>
<!-- Node1&#45;&gt;Node2 -->
<g id="edge1" class="edge">
<title>Node1&#45;&gt;Node2</title>
<path fill="none" stroke="#63b8ff" d="M753.16,-307.87C758.48,-300.52 768.18,-289.63 777.84,-279.91"/>
<polygon fill="#63b8ff" stroke="#63b8ff" points="780.04,-282.65 784.77,-273.17 775.16,-277.63 780.04,-282.65"/>
</g>
<!-- Node5 -->
<g id="node5" class="node">
<title>Node5</title>
<g id="a_node5"><a xlink:href="fold__compound_8h.html" target="_top" xlink:title="The Basic Fold Compound API.">
<polygon fill="white" stroke="#666666" points="768,-206 622,-206 622,-187 768,-187 768,-206"/>
<text text-anchor="middle" x="695" y="-194" font-family="Helvetica,sans-Serif" font-size="10.00">ViennaRNA/fold_compound.h</text>
</a>
</g>
</g>
<!-- Node1&#45;&gt;Node5 -->
<g id="edge41" class="edge">
<title>Node1&#45;&gt;Node5</title>
<path fill="none" stroke="#63b8ff" d="M738.98,-307.65C732.52,-298.68 725.75,-284.4 720,-272 711.4,-253.46 701.73,-232.25 696.51,-217.22"/>
<polygon fill="#63b8ff" stroke="#63b8ff" points="699.89,-216.29 693.71,-207.69 693.17,-218.27 699.89,-216.29"/>
</g>
<!-- Node2&#45;&gt;Node1 -->
<g id="edge34" class="edge">
<title>Node2&#45;&gt;Node1</title>
<path fill="none" stroke="#63b8ff" d="M797.34,-272.44C790.52,-280.79 780.69,-291.32 771.66,-300"/>
<polygon fill="#63b8ff" stroke="#63b8ff" points="769.48,-297.25 764.48,-306.59 774.21,-302.41 769.48,-297.25"/>
</g>
<!-- Node3 -->
<g id="node3" class="node">
<title>Node3</title>
<g id="a_node3"><a xlink:href="constants_8h.html" target="_top" xlink:title="Energy parameter constants.">
<polygon fill="white" stroke="#666666" points="158,-79.5 0,-79.5 0,-60.5 158,-60.5 158,-79.5"/>
<text text-anchor="middle" x="79" y="-67.5" font-family="Helvetica,sans-Serif" font-size="10.00">ViennaRNA/params/constants.h</text>
</a>
</g>
</g>
<!-- Node2&#45;&gt;Node3 -->
<g id="edge2" class="edge">
<title>Node2&#45;&gt;Node3</title>
<path fill="none" stroke="#63b8ff" d="M737.66,-251.29C565.34,-238.55 118.93,-200.99 76,-151 61.95,-134.64 66.03,-108.71 71.43,-90.84"/>
<polygon fill="#63b8ff" stroke="#63b8ff" points="74.74,-91.98 74.68,-81.39 68.12,-89.71 74.74,-91.98"/>
</g>
<!-- Node2&#45;&gt;Node5 -->
<g id="edge4" class="edge">
<title>Node2&#45;&gt;Node5</title>
<path fill="none" stroke="#63b8ff" d="M777.81,-241.54C760.63,-232.4 738.55,-220.66 721.5,-211.6"/>
<polygon fill="#63b8ff" stroke="#63b8ff" points="723.44,-208.66 712.97,-207.06 720.16,-214.84 723.44,-208.66"/>
</g>
<!-- Node6 -->
<g id="node6" class="node">
<title>Node6</title>
<g id="a_node6"><a xlink:href="model_8h.html" target="_top" xlink:title="The model details data structure and its corresponding modifiers.">
<polygon fill="white" stroke="#666666" points="304,-79.5 198,-79.5 198,-60.5 304,-60.5 304,-79.5"/>
<text text-anchor="middle" x="251" y="-67.5" font-family="Helvetica,sans-Serif" font-size="10.00">ViennaRNA/model.h</text>
</a>
</g>
</g>
<!-- Node2&#45;&gt;Node6 -->
<g id="edge32" class="edge">
<title>Node2&#45;&gt;Node6</title>
<path fill="none" stroke="#63b8ff" d="M872.38,-256.71C1025.67,-256.26 1378.59,-242.44 1263,-121 1254.8,-112.38 537.48,-82.61 315.63,-73.6"/>
<polygon fill="#63b8ff" stroke="#63b8ff" points="315.85,-70.11 305.72,-73.2 315.57,-77.1 315.85,-70.11"/>
</g>
<!-- Node7 -->
<g id="node7" class="node">
<title>Node7</title>
<g id="a_node7"><a xlink:href="params_2basic_8h.html" target="_top" xlink:title="Functions to deal with sets of energy parameters.">
<polygon fill="white" stroke="#666666" points="223,-145.5 85,-145.5 85,-126.5 223,-126.5 223,-145.5"/>
<text text-anchor="middle" x="154" y="-133.5" font-family="Helvetica,sans-Serif" font-size="10.00">ViennaRNA/params/basic.h</text>
</a>
</g>
</g>
<!-- Node2&#45;&gt;Node7 -->
<g id="edge33" class="edge">
<title>Node2&#45;&gt;Node7</title>
<path fill="none" stroke="#63b8ff" d="M737.79,-244.48C609.01,-221.57 329.91,-170.54 210.24,-148.03"/>
<polygon fill="#63b8ff" stroke="#63b8ff" points="211.13,-144.64 200.66,-146.23 209.83,-151.52 211.13,-144.64"/>
</g>
<!-- Node9 -->
<g id="node9" class="node">
<title>Node9</title>
<g id="a_node9"><a xlink:href="hard_8h.html" target="_top" xlink:title="Functions and data structures for handling of secondary structure hard constraints.">
<polygon fill="white" stroke="#666666" points="398.5,-151 279.5,-151 279.5,-121 398.5,-121 398.5,-151"/>
<text text-anchor="start" x="287.5" y="-139" font-family="Helvetica,sans-Serif" font-size="10.00">ViennaRNA/constraints</text>
<text text-anchor="middle" x="339" y="-128" font-family="Helvetica,sans-Serif" font-size="10.00">/hard.h</text>
</a>
</g>
</g>
<!-- Node2&#45;&gt;Node9 -->
<g id="edge35" class="edge">
<title>Node2&#45;&gt;Node9</title>
<path fill="none" stroke="#63b8ff" d="M748.33,-241.53C662.2,-219.53 498.67,-177.77 406.52,-154.24"/>
<polygon fill="#63b8ff" stroke="#63b8ff" points="407.67,-150.92 397.11,-151.84 405.93,-157.7 407.67,-150.92"/>
</g>
<!-- Node11 -->
<g id="node11" class="node">
<title>Node11</title>
<g id="a_node11"><a xlink:href="soft_8h.html" target="_top" xlink:title="Functions and data structures for secondary structure soft constraints.">
<polygon fill="white" stroke="#666666" points="842.5,-151 723.5,-151 723.5,-121 842.5,-121 842.5,-151"/>
<text text-anchor="start" x="731.5" y="-139" font-family="Helvetica,sans-Serif" font-size="10.00">ViennaRNA/constraints</text>
<text text-anchor="middle" x="783" y="-128" font-family="Helvetica,sans-Serif" font-size="10.00">/soft.h</text>
</a>
</g>
</g>
<!-- Node2&#45;&gt;Node11 -->
<g id="edge36" class="edge">
<title>Node2&#45;&gt;Node11</title>
<path fill="none" stroke="#63b8ff" d="M797.84,-241.88C791.74,-222.39 784.81,-186.92 782.08,-162.67"/>
<polygon fill="#63b8ff" stroke="#63b8ff" points="785.59,-162.63 781.21,-152.98 778.62,-163.25 785.59,-162.63"/>
</g>
<!-- Node12 -->
<g id="node12" class="node">
<title>Node12</title>
<g id="a_node12"><a xlink:href="grammar_8h.html" target="_top" xlink:title="Implementations for the RNA folding grammar.">
<polygon fill="white" stroke="#666666" points="977.5,-145.5 860.5,-145.5 860.5,-126.5 977.5,-126.5 977.5,-145.5"/>
<text text-anchor="middle" x="919" y="-133.5" font-family="Helvetica,sans-Serif" font-size="10.00">ViennaRNA/grammar.h</text>
</a>
</g>
</g>
<!-- Node2&#45;&gt;Node12 -->
<g id="edge37" class="edge">
<title>Node2&#45;&gt;Node12</title>
<path fill="none" stroke="#63b8ff" d="M818.52,-241.88C839.65,-219.83 880.4,-177.29 902.97,-153.73"/>
<polygon fill="#63b8ff" stroke="#63b8ff" points="905.22,-156.45 909.61,-146.8 900.16,-151.6 905.22,-156.45"/>
</g>
<!-- Node13 -->
<g id="node13" class="node">
<title>Node13</title>
<g id="a_node13"><a xlink:href="structured__domains_8h.html" target="_top" xlink:title="This module provides interfaces that deal with additional structured domains in the folding grammar.">
<polygon fill="white" stroke="#666666" points="1110.5,-151 995.5,-151 995.5,-121 1110.5,-121 1110.5,-151"/>
<text text-anchor="start" x="1003.5" y="-139" font-family="Helvetica,sans-Serif" font-size="10.00">ViennaRNA/structured</text>
<text text-anchor="middle" x="1053" y="-128" font-family="Helvetica,sans-Serif" font-size="10.00">_domains.h</text>
</a>
</g>
</g>
<!-- Node2&#45;&gt;Node13 -->
<g id="edge38" class="edge">
<title>Node2&#45;&gt;Node13</title>
<path fill="none" stroke="#63b8ff" d="M834.91,-241.65C879.42,-220.29 963.14,-180.12 1012.9,-156.24"/>
<polygon fill="#63b8ff" stroke="#63b8ff" points="1014.11,-159.54 1021.61,-152.06 1011.08,-153.23 1014.11,-159.54"/>
</g>
<!-- Node14 -->
<g id="node14" class="node">
<title>Node14</title>
<g id="a_node14"><a xlink:href="unstructured__domains_8h.html" target="_top" xlink:title="Functions to modify unstructured domains, e.g. to incorporate ligands binding to unpaired stretches.">
<polygon fill="white" stroke="#666666" points="1253.5,-151 1128.5,-151 1128.5,-121 1253.5,-121 1253.5,-151"/>
<text text-anchor="start" x="1136.5" y="-139" font-family="Helvetica,sans-Serif" font-size="10.00">ViennaRNA/unstructured</text>
<text text-anchor="middle" x="1191" y="-128" font-family="Helvetica,sans-Serif" font-size="10.00">_domains.h</text>
</a>
</g>
</g>
<!-- Node2&#45;&gt;Node14 -->
<g id="edge39" class="edge">
<title>Node2&#45;&gt;Node14</title>
<path fill="none" stroke="#63b8ff" d="M847.35,-241.53C915.51,-219.67 1049.63,-178.28 1128.7,-154.67"/>
<polygon fill="#63b8ff" stroke="#63b8ff" points="1129.45,-158.1 1138.03,-151.9 1127.45,-151.4 1129.45,-158.1"/>
</g>
<!-- Node15 -->
<g id="node15" class="node">
<title>Node15</title>
<g id="a_node15"><a xlink:href="utils_2structures_8h.html" target="_top" xlink:title="Various utility&#45; and helper&#45;functions for secondary structure parsing, converting,...">
<polygon fill="white" stroke="#666666" points="1401,-79.5 1257,-79.5 1257,-60.5 1401,-60.5 1401,-79.5"/>
<text text-anchor="middle" x="1329" y="-67.5" font-family="Helvetica,sans-Serif" font-size="10.00">ViennaRNA/utils/structures.h</text>
</a>
</g>
</g>
<!-- Node2&#45;&gt;Node15 -->
<g id="edge40" class="edge">
<title>Node2&#45;&gt;Node15</title>
<path fill="none" stroke="#63b8ff" d="M872.17,-253.18C997.33,-247.51 1256.1,-232.9 1287,-206 1320.12,-177.17 1322.83,-121.1 1324.86,-91.09"/>
<polygon fill="#63b8ff" stroke="#63b8ff" points="1328.32,-91.75 1325.65,-81.49 1321.34,-91.17 1328.32,-91.75"/>
</g>
<!-- Node4 -->
<g id="node4" class="node">
<title>Node4</title>
<g id="a_node4"><a xlink:title=" ">
<polygon fill="#e0e0e0" stroke="#999999" points="103,-19 55,-19 55,0 103,0 103,-19"/>
<text text-anchor="middle" x="79" y="-7" font-family="Helvetica,sans-Serif" font-size="10.00">limits.h</text>
</a>
</g>
</g>
<!-- Node3&#45;&gt;Node4 -->
<g id="edge3" class="edge">
<title>Node3&#45;&gt;Node4</title>
<path fill="none" stroke="#63b8ff" d="M79,-60.37C79,-52.5 79,-40.6 79,-30.39"/>
<polygon fill="#63b8ff" stroke="#63b8ff" points="82.5,-30.68 79,-20.68 75.5,-30.68 82.5,-30.68"/>
</g>
<!-- Node5&#45;&gt;Node1 -->
<g id="edge13" class="edge">
<title>Node5&#45;&gt;Node1</title>
<path fill="none" stroke="#63b8ff" d="M704.6,-206.23C714.24,-220.17 726.99,-248.27 738,-272 741.78,-280.14 745.99,-289.08 749.02,-296.81"/>
<polygon fill="#63b8ff" stroke="#63b8ff" points="745.66,-297.81 752.11,-306.21 752.31,-295.62 745.66,-297.81"/>
</g>
<!-- Node5&#45;&gt;Node6 -->
<g id="edge5" class="edge">
<title>Node5&#45;&gt;Node6</title>
<path fill="none" stroke="#63b8ff" d="M621.68,-192.33C507.33,-186.73 296.88,-173.48 271,-151 254.13,-136.35 250.4,-109.83 250.05,-91.36"/>
<polygon fill="#63b8ff" stroke="#63b8ff" points="253.55,-91.43 250.22,-81.37 246.55,-91.31 253.55,-91.43"/>
</g>
<!-- Node5&#45;&gt;Node7 -->
<g id="edge6" class="edge">
<title>Node5&#45;&gt;Node7</title>
<path fill="none" stroke="#63b8ff" d="M621.56,-190.45C529.26,-183.4 366.39,-169.37 228,-151 220.87,-150.05 213.41,-148.95 206.08,-147.79"/>
<polygon fill="#63b8ff" stroke="#63b8ff" points="206.66,-144.34 196.23,-146.18 205.53,-151.25 206.66,-144.34"/>
</g>
<!-- Node8 -->
<g id="node8" class="node">
<title>Node8</title>
<g id="a_node8"><a xlink:href="sequence_8h.html" target="_top" xlink:title="Functions and data structures related to sequence representations ,.">
<polygon fill="white" stroke="#666666" points="539,-145.5 417,-145.5 417,-126.5 539,-126.5 539,-145.5"/>
<text text-anchor="middle" x="478" y="-133.5" font-family="Helvetica,sans-Serif" font-size="10.00">ViennaRNA/sequence.h</text>
</a>
</g>
</g>
<!-- Node5&#45;&gt;Node8 -->
<g id="edge11" class="edge">
<title>Node5&#45;&gt;Node8</title>
<path fill="none" stroke="#63b8ff" d="M657.03,-186.62C617.72,-176.59 556.81,-160.22 517.09,-149.04"/>
<polygon fill="#63b8ff" stroke="#63b8ff" points="518.27,-145.74 507.7,-146.38 516.36,-152.47 518.27,-145.74"/>
</g>
<!-- Node5&#45;&gt;Node9 -->
<g id="edge14" class="edge">
<title>Node5&#45;&gt;Node9</title>
<path fill="none" stroke="#63b8ff" d="M624.57,-186.53C567.4,-178.51 484.6,-166.06 410.75,-153.08"/>
<polygon fill="#63b8ff" stroke="#63b8ff" points="411.4,-149.64 400.94,-151.34 410.18,-156.54 411.4,-149.64"/>
</g>
<!-- Node5&#45;&gt;Node11 -->
<g id="edge18" class="edge">
<title>Node5&#45;&gt;Node11</title>
<path fill="none" stroke="#63b8ff" d="M703.36,-186.62C713.36,-178.89 730.16,-167.39 745.83,-157.41"/>
<polygon fill="#63b8ff" stroke="#63b8ff" points="747.46,-160.52 754.08,-152.24 743.75,-154.58 747.46,-160.52"/>
</g>
<!-- Node5&#45;&gt;Node12 -->
<g id="edge22" class="edge">
<title>Node5&#45;&gt;Node12</title>
<path fill="none" stroke="#63b8ff" d="M724.01,-186.62C760.69,-176.48 824.13,-159.86 868.73,-148.69"/>
<polygon fill="#63b8ff" stroke="#63b8ff" points="869.31,-152.15 878.16,-146.33 867.61,-145.36 869.31,-152.15"/>
</g>
<!-- Node5&#45;&gt;Node13 -->
<g id="edge24" class="edge">
<title>Node5&#45;&gt;Node13</title>
<path fill="none" stroke="#63b8ff" d="M761.28,-186.51C817.98,-178.57 902.03,-166.2 983.83,-151.52"/>
<polygon fill="#63b8ff" stroke="#63b8ff" points="984.38,-154.98 993.6,-149.75 983.14,-148.09 984.38,-154.98"/>
</g>
<!-- Node5&#45;&gt;Node14 -->
<g id="edge25" class="edge">
<title>Node5&#45;&gt;Node14</title>
<path fill="none" stroke="#63b8ff" d="M768.49,-189.28C851.82,-182.13 991.42,-169.01 1111,-151 1113.01,-150.7 1115.05,-150.38 1117.11,-150.04"/>
<polygon fill="#63b8ff" stroke="#63b8ff" points="1117.49,-153.53 1126.76,-148.39 1116.31,-146.63 1117.49,-153.53"/>
</g>
<!-- Node17 -->
<g id="node17" class="node">
<title>Node17</title>
<g id="a_node17"><a xlink:href="zscore_8h_source.html" target="_top" xlink:title=" ">
<polygon fill="white" stroke="#666666" points="666.5,-145.5 557.5,-145.5 557.5,-126.5 666.5,-126.5 666.5,-145.5"/>
<text text-anchor="middle" x="612" y="-133.5" font-family="Helvetica,sans-Serif" font-size="10.00">ViennaRNA/zscore.h</text>
</a>
</g>
</g>
<!-- Node5&#45;&gt;Node17 -->
<g id="edge31" class="edge">
<title>Node5&#45;&gt;Node17</title>
<path fill="none" stroke="#63b8ff" d="M682.39,-186.62C669.6,-177.6 649.52,-163.45 634.08,-152.56"/>
<polygon fill="#63b8ff" stroke="#63b8ff" points="636.15,-149.74 625.96,-146.84 632.12,-155.46 636.15,-149.74"/>
</g>
<!-- Node7&#45;&gt;Node2 -->
<g id="edge8" class="edge">
<title>Node7&#45;&gt;Node2</title>
<path fill="none" stroke="#63b8ff" d="M206.8,-145.96C321.2,-166.21 592.1,-215.67 726.57,-240.81"/>
<polygon fill="#63b8ff" stroke="#63b8ff" points="725.62,-244.19 736.09,-242.59 726.91,-237.31 725.62,-244.19"/>
</g>
<!-- Node7&#45;&gt;Node3 -->
<g id="edge7" class="edge">
<title>Node7&#45;&gt;Node3</title>
<path fill="none" stroke="#63b8ff" d="M143.57,-126.1C131.82,-116.07 112.46,-99.56 98.01,-87.22"/>
<polygon fill="#63b8ff" stroke="#63b8ff" points="100.37,-84.63 90.49,-80.81 95.83,-89.96 100.37,-84.63"/>
</g>
<!-- Node7&#45;&gt;Node5 -->
<g id="edge9" class="edge">
<title>Node7&#45;&gt;Node5</title>
<path fill="none" stroke="#63b8ff" d="M212.28,-145.94C223.51,-147.76 235.14,-149.56 246,-151 372.83,-167.84 520.22,-181.02 610.6,-188.54"/>
<polygon fill="#63b8ff" stroke="#63b8ff" points="610.11,-192.01 620.37,-189.35 610.69,-185.03 610.11,-192.01"/>
</g>
<!-- Node7&#45;&gt;Node6 -->
<g id="edge10" class="edge">
<title>Node7&#45;&gt;Node6</title>
<path fill="none" stroke="#63b8ff" d="M167.49,-126.1C183.2,-115.74 209.4,-98.45 228.27,-86"/>
<polygon fill="#63b8ff" stroke="#63b8ff" points="229.94,-89.09 236.36,-80.66 226.09,-83.24 229.94,-89.09"/>
</g>
<!-- Node8&#45;&gt;Node5 -->
<g id="edge12" class="edge">
<title>Node8&#45;&gt;Node5</title>
<path fill="none" stroke="#63b8ff" d="M516.29,-145.97C555.64,-156.01 616.38,-172.34 655.98,-183.48"/>
<polygon fill="#63b8ff" stroke="#63b8ff" points="655.02,-186.84 665.6,-186.2 656.93,-180.11 655.02,-186.84"/>
</g>
<!-- Node9&#45;&gt;Node5 -->
<g id="edge15" class="edge">
<title>Node9&#45;&gt;Node5</title>
<path fill="none" stroke="#63b8ff" d="M398.76,-147.59C404.94,-148.78 411.1,-149.95 417,-151 488.74,-163.83 570.96,-176.36 627.34,-184.84"/>
<polygon fill="#63b8ff" stroke="#63b8ff" points="626.71,-188.28 637.12,-186.31 627.75,-181.36 626.71,-188.28"/>
</g>
<!-- Node10 -->
<g id="node10" class="node">
<title>Node10</title>
<g id="a_node10"><a xlink:href="constraints_2basic_8h.html" target="_top" xlink:title="Functions and data structures for constraining secondary structure predictions and evaluation.">
<polygon fill="white" stroke="#666666" points="754.5,-85 635.5,-85 635.5,-55 754.5,-55 754.5,-85"/>
<text text-anchor="start" x="643.5" y="-73" font-family="Helvetica,sans-Serif" font-size="10.00">ViennaRNA/constraints</text>
<text text-anchor="middle" x="695" y="-62" font-family="Helvetica,sans-Serif" font-size="10.00">/basic.h</text>
</a>
</g>
</g>
<!-- Node9&#45;&gt;Node10 -->
<g id="edge16" class="edge">
<title>Node9&#45;&gt;Node10</title>
<path fill="none" stroke="#63b8ff" d="M398.82,-122.76C401.92,-122.16 405,-121.57 408,-121 481.5,-107.14 565.86,-92.61 624.01,-82.81"/>
<polygon fill="#63b8ff" stroke="#63b8ff" points="624.5,-86.27 633.78,-81.16 623.34,-79.37 624.5,-86.27"/>
</g>
<!-- Node10&#45;&gt;Node5 -->
<g id="edge17" class="edge">
<title>Node10&#45;&gt;Node5</title>
<path fill="none" stroke="#63b8ff" d="M695,-85.45C695,-107.56 695,-149.88 695,-175.11"/>
<polygon fill="#63b8ff" stroke="#63b8ff" points="691.5,-175.03 695,-185.03 698.5,-175.03 691.5,-175.03"/>
</g>
<!-- Node11&#45;&gt;Node2 -->
<g id="edge19" class="edge">
<title>Node11&#45;&gt;Node2</title>
<path fill="none" stroke="#63b8ff" d="M790.27,-151.47C796.35,-171.06 803.22,-206.33 805.93,-230.44"/>
<polygon fill="#63b8ff" stroke="#63b8ff" points="802.45,-230.72 806.81,-240.37 809.42,-230.11 802.45,-230.72"/>
</g>
<!-- Node11&#45;&gt;Node5 -->
<g id="edge20" class="edge">
<title>Node11&#45;&gt;Node5</title>
<path fill="none" stroke="#63b8ff" d="M767.19,-151.44C754.83,-160.39 737.6,-171.86 722.98,-180.85"/>
<polygon fill="#63b8ff" stroke="#63b8ff" points="721.44,-177.69 714.67,-185.84 725.05,-183.69 721.44,-177.69"/>
</g>
<!-- Node11&#45;&gt;Node10 -->
<g id="edge21" class="edge">
<title>Node11&#45;&gt;Node10</title>
<path fill="none" stroke="#63b8ff" d="M763.47,-120.8C751.82,-112.32 736.81,-101.4 723.81,-91.95"/>
<polygon fill="#63b8ff" stroke="#63b8ff" points="726.15,-89.33 716,-86.28 722.03,-94.99 726.15,-89.33"/>
</g>
<!-- Node12&#45;&gt;Node5 -->
<g id="edge23" class="edge">
<title>Node12&#45;&gt;Node5</title>
<path fill="none" stroke="#63b8ff" d="M889.76,-145.95C853.1,-156.08 789.95,-172.61 745.45,-183.77"/>
<polygon fill="#63b8ff" stroke="#63b8ff" points="744.61,-180.37 735.76,-186.19 746.31,-187.16 744.61,-180.37"/>
</g>
<!-- Node14&#45;&gt;Node2 -->
<g id="edge26" class="edge">
<title>Node14&#45;&gt;Node2</title>
<path fill="none" stroke="#63b8ff" d="M1148.68,-151.46C1080.53,-173.32 946.41,-214.7 867.33,-238.32"/>
<polygon fill="#63b8ff" stroke="#63b8ff" points="866.58,-234.89 858,-241.1 868.58,-241.6 866.58,-234.89"/>
</g>
<!-- Node14&#45;&gt;Node5 -->
<g id="edge27" class="edge">
<title>Node14&#45;&gt;Node5</title>
<path fill="none" stroke="#63b8ff" d="M1128.26,-151.11C1007.71,-169.24 866.98,-182.39 779.35,-189.48"/>
<polygon fill="#63b8ff" stroke="#63b8ff" points="779.34,-185.97 769.65,-190.26 779.89,-192.95 779.34,-185.97"/>
</g>
<!-- Node14&#45;&gt;Node15 -->
<g id="edge28" class="edge">
<title>Node14&#45;&gt;Node15</title>
<path fill="none" stroke="#63b8ff" d="M1221.97,-120.64C1245.05,-109.93 1276.39,-95.4 1299.19,-84.82"/>
<polygon fill="#63b8ff" stroke="#63b8ff" points="1300.65,-88.01 1308.25,-80.62 1297.71,-81.65 1300.65,-88.01"/>
</g>
<!-- Node15&#45;&gt;Node2 -->
<g id="edge30" class="edge">
<title>Node15&#45;&gt;Node2</title>
<path fill="none" stroke="#63b8ff" d="M1334.12,-79.98C1340.98,-104.52 1342.85,-173.05 1305,-206 1274.15,-232.85 1016.19,-247.46 883.32,-253.16"/>
<polygon fill="#63b8ff" stroke="#63b8ff" points="883.38,-249.65 873.54,-253.57 883.68,-256.64 883.38,-249.65"/>
</g>
<!-- Node16 -->
<g id="node16" class="node">
<title>Node16</title>
<g id="a_node16"><a xlink:title=" ">
<polygon fill="#e0e0e0" stroke="#999999" points="1352,-19 1306,-19 1306,0 1352,0 1352,-19"/>
<text text-anchor="middle" x="1329" y="-7" font-family="Helvetica,sans-Serif" font-size="10.00">stdio.h</text>
</a>
</g>
</g>
<!-- Node15&#45;&gt;Node16 -->
<g id="edge29" class="edge">
<title>Node15&#45;&gt;Node16</title>
<path fill="none" stroke="#63b8ff" d="M1329,-60.37C1329,-52.5 1329,-40.6 1329,-30.39"/>
<polygon fill="#63b8ff" stroke="#63b8ff" points="1332.5,-30.68 1329,-20.68 1325.5,-30.68 1332.5,-30.68"/>
</g>
</g>
</svg>
