<?xml version="1.0" encoding="UTF-8" standalone="no"?>
<!DOCTYPE svg PUBLIC "-//W3C//DTD SVG 1.1//EN"
 "http://www.w3.org/Graphics/SVG/1.1/DTD/svg11.dtd">
<!-- Generated by graphviz version 7.1.0 (0)
 -->
<!-- Title: ViennaRNA/energy_const.h Pages: 1 -->
<svg width="166pt" height="137pt"
 viewBox="0.00 0.00 166.00 137.00" xmlns="http://www.w3.org/2000/svg" xmlns:xlink="http://www.w3.org/1999/xlink">
<g id="graph0" class="graph" transform="scale(1 1) rotate(0) translate(4 133)">
<title>ViennaRNA/energy_const.h</title>
<!-- Node1 -->
<g id="node1" class="node">
<title>Node1</title>
<g id="a_node1"><a xlink:title="Use ViennaRNA/params/constants.h instead.">
<polygon fill="#999999" stroke="#666666" points="148,-129 10,-129 10,-110 148,-110 148,-129"/>
<text text-anchor="middle" x="79" y="-117" font-family="Helvetica,sans-Serif" font-size="10.00">ViennaRNA/energy_const.h</text>
</a>
</g>
</g>
<!-- Node2 -->
<g id="node2" class="node">
<title>Node2</title>
<g id="a_node2"><a xlink:href="constants_8h.html" target="_top" xlink:title="Energy parameter constants.">
<polygon fill="white" stroke="#666666" points="158,-74 0,-74 0,-55 158,-55 158,-74"/>
<text text-anchor="middle" x="79" y="-62" font-family="Helvetica,sans-Serif" font-size="10.00">ViennaRNA/params/constants.h</text>
</a>
</g>
</g>
<!-- Node1&#45;&gt;Node2 -->
<g id="edge1" class="edge">
<title>Node1&#45;&gt;Node2</title>
<path fill="none" stroke="#63b8ff" d="M79,-109.75C79,-103.27 79,-94.16 79,-85.9"/>
<polygon fill="#63b8ff" stroke="#63b8ff" points="82.5,-85.96 79,-75.96 75.5,-85.96 82.5,-85.96"/>
</g>
<!-- Node3 -->
<g id="node3" class="node">
<title>Node3</title>
<g id="a_node3"><a xlink:title=" ">
<polygon fill="#e0e0e0" stroke="#999999" points="103,-19 55,-19 55,0 103,0 103,-19"/>
<text text-anchor="middle" x="79" y="-7" font-family="Helvetica,sans-Serif" font-size="10.00">limits.h</text>
</a>
</g>
</g>
<!-- Node2&#45;&gt;Node3 -->
<g id="edge2" class="edge">
<title>Node2&#45;&gt;Node3</title>
<path fill="none" stroke="#63b8ff" d="M79,-54.75C79,-48.27 79,-39.16 79,-30.9"/>
<polygon fill="#63b8ff" stroke="#63b8ff" points="82.5,-30.96 79,-20.96 75.5,-30.96 82.5,-30.96"/>
</g>
</g>
</svg>
