<?xml version="1.0" encoding="UTF-8" standalone="no"?>
<!DOCTYPE svg PUBLIC "-//W3C//DTD SVG 1.1//EN"
 "http://www.w3.org/Graphics/SVG/1.1/DTD/svg11.dtd">
<!-- Generated by graphviz version 7.1.0 (0)
 -->
<!-- Title: ViennaRNA/equilibrium_probs.h Pages: 1 -->
<svg width="268pt" height="148pt"
 viewBox="0.00 0.00 267.50 148.00" xmlns="http://www.w3.org/2000/svg" xmlns:xlink="http://www.w3.org/1999/xlink">
<g id="graph0" class="graph" transform="scale(1 1) rotate(0) translate(4 144)">
<title>ViennaRNA/equilibrium_probs.h</title>
<!-- Node1 -->
<g id="node1" class="node">
<title>Node1</title>
<g id="a_node1"><a xlink:title="Equilibrium Probability implementations.">
<polygon fill="#999999" stroke="#666666" points="206.5,-140 88.5,-140 88.5,-110 206.5,-110 206.5,-140"/>
<text text-anchor="start" x="96.5" y="-128" font-family="Helvetica,sans-Serif" font-size="10.00">ViennaRNA/equilibrium</text>
<text text-anchor="middle" x="147.5" y="-117" font-family="Helvetica,sans-Serif" font-size="10.00">_probs.h</text>
</a>
</g>
</g>
<!-- Node2 -->
<g id="node2" class="node">
<title>Node2</title>
<g id="a_node2"><a xlink:href="part__func_8h.html" target="_top" xlink:title="Partition function implementations.">
<polygon fill="white" stroke="#666666" points="163.5,-74 43.5,-74 43.5,-55 163.5,-55 163.5,-74"/>
<text text-anchor="middle" x="103.5" y="-62" font-family="Helvetica,sans-Serif" font-size="10.00">ViennaRNA/part_func.h</text>
</a>
</g>
</g>
<!-- Node1&#45;&gt;Node2 -->
<g id="edge1" class="edge">
<title>Node1&#45;&gt;Node2</title>
<path fill="none" stroke="#63b8ff" d="M129.71,-100.35C122.76,-91.11 115.22,-81.09 110.02,-74.18"/>
<polygon fill="#63b8ff" stroke="#63b8ff" points="126.91,-102.44 135.71,-108.33 132.5,-98.23 126.91,-102.44"/>
</g>
<!-- Node4 -->
<g id="node4" class="node">
<title>Node4</title>
<g id="a_node4"><a xlink:href="part__func__co_8h.html" target="_top" xlink:title="Partition function for two RNA sequences.">
<polygon fill="white" stroke="#666666" points="259.5,-19 123.5,-19 123.5,0 259.5,0 259.5,-19"/>
<text text-anchor="middle" x="191.5" y="-7" font-family="Helvetica,sans-Serif" font-size="10.00">ViennaRNA/part_func_co.h</text>
</a>
</g>
</g>
<!-- Node1&#45;&gt;Node4 -->
<g id="edge4" class="edge">
<title>Node1&#45;&gt;Node4</title>
<path fill="none" stroke="#63b8ff" d="M160.71,-99.69C164.8,-91.64 169.11,-82.56 172.5,-74 180.04,-54.96 186.28,-31.7 189.38,-19.29"/>
<polygon fill="#63b8ff" stroke="#63b8ff" points="157.63,-98.04 156.1,-108.52 163.83,-101.28 157.63,-98.04"/>
</g>
<!-- Node3 -->
<g id="node3" class="node">
<title>Node3</title>
<g id="a_node3"><a xlink:href="alifold_8h.html" target="_top" xlink:title="Functions for comparative structure prediction using RNA sequence alignments.">
<polygon fill="white" stroke="#666666" points="105,-19 0,-19 0,0 105,0 105,-19"/>
<text text-anchor="middle" x="52.5" y="-7" font-family="Helvetica,sans-Serif" font-size="10.00">ViennaRNA/alifold.h</text>
</a>
</g>
</g>
<!-- Node2&#45;&gt;Node3 -->
<g id="edge2" class="edge">
<title>Node2&#45;&gt;Node3</title>
<path fill="none" stroke="#63b8ff" d="M87.14,-46.5C78.48,-37.5 68.2,-26.82 61.1,-19.44"/>
<polygon fill="#63b8ff" stroke="#63b8ff" points="84.57,-48.88 94.03,-53.66 89.62,-44.02 84.57,-48.88"/>
</g>
<!-- Node2&#45;&gt;Node4 -->
<g id="edge3" class="edge">
<title>Node2&#45;&gt;Node4</title>
<path fill="none" stroke="#63b8ff" d="M128.02,-48.73C143.7,-39.29 163.51,-27.36 176.79,-19.36"/>
<polygon fill="#63b8ff" stroke="#63b8ff" points="126.49,-45.57 119.72,-53.73 130.1,-51.57 126.49,-45.57"/>
</g>
</g>
</svg>
