<?xml version="1.0" encoding="UTF-8" standalone="no"?>
<!DOCTYPE svg PUBLIC "-//W3C//DTD SVG 1.1//EN"
 "http://www.w3.org/Graphics/SVG/1.1/DTD/svg11.dtd">
<!-- Generated by graphviz version 7.1.0 (0)
 -->
<!-- Title: ViennaRNA/equilibrium_probs.h Pages: 1 -->
<!--zoomable 346 -->
<svg id="main" version="1.1" xmlns="http://www.w3.org/2000/svg" xmlns:xlink="http://www.w3.org/1999/xlink" xml:space="preserve" onload="init(evt)">
<style type="text/css"><![CDATA[
.edge:hover path { stroke: red; }
.edge:hover polygon { stroke: red; fill: red; }
]]></style>
<script type="text/javascript"><![CDATA[
var edges = document.getElementsByTagName('g');
if (edges && edges.length) {
  for (var i=0;i<edges.length;i++) {
    if (edges[i].id.substr(0,4)=='edge') {
      edges[i].setAttribute('class','edge');
    }
  }
}
]]></script>
        <defs>
                <circle id="rim" cx="0" cy="0" r="7"/>
                <circle id="rim2" cx="0" cy="0" r="3.5"/>
                <g id="zoomPlus">
                        <use xlink:href="#rim" fill="#404040">
                                <set attributeName="fill" to="#808080" begin="zoomplus.mouseover" end="zoomplus.mouseout"/>
                        </use>
                        <path d="M-4,0h8M0,-4v8" fill="none" stroke="white" stroke-width="1.5" pointer-events="none"/>
                </g>
                <g id="zoomMin">
                        <use xlink:href="#rim" fill="#404040">
                                <set attributeName="fill" to="#808080" begin="zoomminus.mouseover" end="zoomminus.mouseout"/>
                        </use>
                        <path d="M-4,0h8" fill="none" stroke="white" stroke-width="1.5" pointer-events="none"/>
                </g>
                <g id="dirArrow">
                        <path fill="none" stroke="white" stroke-width="1.5" d="M0,-3.0v7 M-2.5,-0.5L0,-3.0L2.5,-0.5"/>
                </g>
               <g id="resetDef">
                       <use xlink:href="#rim2" fill="#404040">
                               <set attributeName="fill" to="#808080" begin="reset.mouseover" end="reset.mouseout"/>
                       </use>
               </g>
        </defs>

<script type="text/javascript">
var viewWidth = 1560;
var viewHeight = 346;
var sectionId = 'dynsection-0';
</script>
<script xlink:href="svgpan.js"/>
<svg id="graph" class="graph">
<g id="viewport">
<title>ViennaRNA/equilibrium_probs.h</title>
<!-- Node1 -->
<g id="node1" class="node">
<title>Node1</title>
<g id="a_node1"><a xlink:title="Equilibrium Probability implementations.">
<polygon fill="#999999" stroke="#666666" points="943,-338 825,-338 825,-308 943,-308 943,-338"/>
<text text-anchor="start" x="833" y="-326" font-family="Helvetica,sans-Serif" font-size="10.00">ViennaRNA/equilibrium</text>
<text text-anchor="middle" x="884" y="-315" font-family="Helvetica,sans-Serif" font-size="10.00">_probs.h</text>
</a>
</g>
</g>
<!-- Node2 -->
<g id="node2" class="node">
<title>Node2</title>
<g id="a_node2"><a xlink:href="datastructures_2basic_8h.html" target="_top" xlink:title="Various data structures and pre&#45;processor macros.">
<polygon fill="white" stroke="#666666" points="999,-272 865,-272 865,-242 999,-242 999,-272"/>
<text text-anchor="start" x="873" y="-260" font-family="Helvetica,sans-Serif" font-size="10.00">ViennaRNA/datastructures</text>
<text text-anchor="middle" x="932" y="-249" font-family="Helvetica,sans-Serif" font-size="10.00">/basic.h</text>
</a>
</g>
</g>
<!-- Node1&#45;&gt;Node2 -->
<g id="edge1" class="edge">
<title>Node1&#45;&gt;Node2</title>
<path fill="none" stroke="#63b8ff" d="M894.65,-307.8C900.49,-300.01 907.88,-290.16 914.54,-281.28"/>
<polygon fill="#63b8ff" stroke="#63b8ff" points="917.27,-283.47 920.47,-273.37 911.67,-279.27 917.27,-283.47"/>
</g>
<!-- Node5 -->
<g id="node5" class="node">
<title>Node5</title>
<g id="a_node5"><a xlink:href="fold__compound_8h.html" target="_top" xlink:title="The Basic Fold Compound API.">
<polygon fill="white" stroke="#666666" points="904,-206 758,-206 758,-187 904,-187 904,-206"/>
<text text-anchor="middle" x="831" y="-194" font-family="Helvetica,sans-Serif" font-size="10.00">ViennaRNA/fold_compound.h</text>
</a>
</g>
</g>
<!-- Node1&#45;&gt;Node5 -->
<g id="edge43" class="edge">
<title>Node1&#45;&gt;Node5</title>
<path fill="none" stroke="#63b8ff" d="M875.18,-307.92C869.26,-298.1 861.56,-284.55 856,-272 847.98,-253.89 841.01,-232.36 836.49,-217.11"/>
<polygon fill="#63b8ff" stroke="#63b8ff" points="839.96,-216.51 833.83,-207.87 833.23,-218.45 839.96,-216.51"/>
</g>
<!-- Node7 -->
<g id="node7" class="node">
<title>Node7</title>
<g id="a_node7"><a xlink:href="params_2basic_8h.html" target="_top" xlink:title="Functions to deal with sets of energy parameters.">
<polygon fill="white" stroke="#666666" points="223,-145.5 85,-145.5 85,-126.5 223,-126.5 223,-145.5"/>
<text text-anchor="middle" x="154" y="-133.5" font-family="Helvetica,sans-Serif" font-size="10.00">ViennaRNA/params/basic.h</text>
</a>
</g>
</g>
<!-- Node1&#45;&gt;Node7 -->
<g id="edge45" class="edge">
<title>Node1&#45;&gt;Node7</title>
<path fill="none" stroke="#63b8ff" d="M824.62,-317.78C678.46,-306.47 305.61,-271.79 202,-206 183.36,-194.17 169.99,-172.22 162.17,-156.25"/>
<polygon fill="#63b8ff" stroke="#63b8ff" points="165.42,-154.93 158.09,-147.28 159.04,-157.83 165.42,-154.93"/>
</g>
<!-- Node16 -->
<g id="node16" class="node">
<title>Node16</title>
<g id="a_node16"><a xlink:href="utils_2structures_8h.html" target="_top" xlink:title="Various utility&#45; and helper&#45;functions for secondary structure parsing, converting,...">
<polygon fill="white" stroke="#666666" points="1552,-79.5 1408,-79.5 1408,-60.5 1552,-60.5 1552,-79.5"/>
<text text-anchor="middle" x="1480" y="-67.5" font-family="Helvetica,sans-Serif" font-size="10.00">ViennaRNA/utils/structures.h</text>
</a>
</g>
</g>
<!-- Node1&#45;&gt;Node16 -->
<g id="edge44" class="edge">
<title>Node1&#45;&gt;Node16</title>
<path fill="none" stroke="#63b8ff" d="M943.42,-311.47C1035.16,-294.36 1216.16,-257.21 1364,-206 1419.44,-186.8 1452.32,-200.38 1484,-151 1495.54,-133.02 1491.79,-107.81 1486.94,-90.52"/>
<polygon fill="#63b8ff" stroke="#63b8ff" points="1490.35,-89.68 1483.97,-81.22 1483.68,-91.81 1490.35,-89.68"/>
</g>
<!-- Node3 -->
<g id="node3" class="node">
<title>Node3</title>
<g id="a_node3"><a xlink:href="constants_8h.html" target="_top" xlink:title="Energy parameter constants.">
<polygon fill="white" stroke="#666666" points="158,-79.5 0,-79.5 0,-60.5 158,-60.5 158,-79.5"/>
<text text-anchor="middle" x="79" y="-67.5" font-family="Helvetica,sans-Serif" font-size="10.00">ViennaRNA/params/constants.h</text>
</a>
</g>
</g>
<!-- Node2&#45;&gt;Node3 -->
<g id="edge2" class="edge">
<title>Node2&#45;&gt;Node3</title>
<path fill="none" stroke="#63b8ff" d="M864.61,-254.33C708.62,-249.98 326.55,-236.48 202,-206 142.65,-191.48 109.47,-202.12 76,-151 64.31,-133.13 67.73,-107.9 72.33,-90.58"/>
<polygon fill="#63b8ff" stroke="#63b8ff" points="75.61,-91.84 75.18,-81.25 68.91,-89.8 75.61,-91.84"/>
</g>
<!-- Node2&#45;&gt;Node5 -->
<g id="edge4" class="edge">
<title>Node2&#45;&gt;Node5</title>
<path fill="none" stroke="#63b8ff" d="M907.03,-241.54C891.56,-232.58 871.75,-221.1 856.23,-212.11"/>
<polygon fill="#63b8ff" stroke="#63b8ff" points="857.99,-209.09 847.58,-207.1 854.48,-215.15 857.99,-209.09"/>
</g>
<!-- Node6 -->
<g id="node6" class="node">
<title>Node6</title>
<g id="a_node6"><a xlink:href="model_8h.html" target="_top" xlink:title="The model details data structure and its corresponding modifiers.">
<polygon fill="white" stroke="#666666" points="304,-79.5 198,-79.5 198,-60.5 304,-60.5 304,-79.5"/>
<text text-anchor="middle" x="251" y="-67.5" font-family="Helvetica,sans-Serif" font-size="10.00">ViennaRNA/model.h</text>
</a>
</g>
</g>
<!-- Node2&#45;&gt;Node6 -->
<g id="edge34" class="edge">
<title>Node2&#45;&gt;Node6</title>
<path fill="none" stroke="#63b8ff" d="M864.61,-254.49C714,-249.71 356.6,-230.11 271,-151 254.59,-135.84 250.76,-109.43 250.26,-91.13"/>
<polygon fill="#63b8ff" stroke="#63b8ff" points="253.76,-91.28 250.34,-81.26 246.76,-91.23 253.76,-91.28"/>
</g>
<!-- Node2&#45;&gt;Node7 -->
<g id="edge35" class="edge">
<title>Node2&#45;&gt;Node7</title>
<path fill="none" stroke="#63b8ff" d="M864.54,-256.35C711.27,-256.41 341.76,-251.79 228,-206 200.65,-194.99 175.56,-171.45 162.38,-154.94"/>
<polygon fill="#63b8ff" stroke="#63b8ff" points="165.35,-153.07 156.68,-146.97 159.66,-157.14 165.35,-153.07"/>
</g>
<!-- Node9 -->
<g id="node9" class="node">
<title>Node9</title>
<g id="a_node9"><a xlink:href="dp__matrices_8h.html" target="_top" xlink:title="Functions to deal with standard dynamic programming (DP) matrices.">
<polygon fill="white" stroke="#666666" points="412.5,-145.5 279.5,-145.5 279.5,-126.5 412.5,-126.5 412.5,-145.5"/>
<text text-anchor="middle" x="346" y="-133.5" font-family="Helvetica,sans-Serif" font-size="10.00">ViennaRNA/dp_matrices.h</text>
</a>
</g>
</g>
<!-- Node2&#45;&gt;Node9 -->
<g id="edge36" class="edge">
<title>Node2&#45;&gt;Node9</title>
<path fill="none" stroke="#63b8ff" d="M864.63,-243.21C746.17,-219.81 503.32,-170.48 397.31,-148.26"/>
<polygon fill="#63b8ff" stroke="#63b8ff" points="398.27,-144.89 387.76,-146.26 396.83,-151.74 398.27,-144.89"/>
</g>
<!-- Node10 -->
<g id="node10" class="node">
<title>Node10</title>
<g id="a_node10"><a xlink:href="hard_8h.html" target="_top" xlink:title="Functions and data structures for handling of secondary structure hard constraints.">
<polygon fill="white" stroke="#666666" points="1029.5,-151 910.5,-151 910.5,-121 1029.5,-121 1029.5,-151"/>
<text text-anchor="start" x="918.5" y="-139" font-family="Helvetica,sans-Serif" font-size="10.00">ViennaRNA/constraints</text>
<text text-anchor="middle" x="970" y="-128" font-family="Helvetica,sans-Serif" font-size="10.00">/hard.h</text>
</a>
</g>
</g>
<!-- Node2&#45;&gt;Node10 -->
<g id="edge37" class="edge">
<title>Node2&#45;&gt;Node10</title>
<path fill="none" stroke="#63b8ff" d="M936.51,-241.88C942.76,-222.31 954.16,-186.59 961.91,-162.34"/>
<polygon fill="#63b8ff" stroke="#63b8ff" points="965.21,-163.5 964.92,-152.91 958.54,-161.37 965.21,-163.5"/>
</g>
<!-- Node12 -->
<g id="node12" class="node">
<title>Node12</title>
<g id="a_node12"><a xlink:href="soft_8h.html" target="_top" xlink:title="Functions and data structures for secondary structure soft constraints.">
<polygon fill="white" stroke="#666666" points="1299.5,-151 1180.5,-151 1180.5,-121 1299.5,-121 1299.5,-151"/>
<text text-anchor="start" x="1188.5" y="-139" font-family="Helvetica,sans-Serif" font-size="10.00">ViennaRNA/constraints</text>
<text text-anchor="middle" x="1240" y="-128" font-family="Helvetica,sans-Serif" font-size="10.00">/soft.h</text>
</a>
</g>
</g>
<!-- Node2&#45;&gt;Node12 -->
<g id="edge38" class="edge">
<title>Node2&#45;&gt;Node12</title>
<path fill="none" stroke="#63b8ff" d="M964.86,-241.53C1018.15,-219.89 1123.51,-179.13 1187.32,-155.4"/>
<polygon fill="#63b8ff" stroke="#63b8ff" points="1188.38,-158.74 1196.54,-151.99 1185.95,-152.18 1188.38,-158.74"/>
</g>
<!-- Node13 -->
<g id="node13" class="node">
<title>Node13</title>
<g id="a_node13"><a xlink:href="grammar_8h.html" target="_top" xlink:title="Implementations for the RNA folding grammar.">
<polygon fill="white" stroke="#666666" points="892.5,-145.5 775.5,-145.5 775.5,-126.5 892.5,-126.5 892.5,-145.5"/>
<text text-anchor="middle" x="834" y="-133.5" font-family="Helvetica,sans-Serif" font-size="10.00">ViennaRNA/grammar.h</text>
</a>
</g>
</g>
<!-- Node2&#45;&gt;Node13 -->
<g id="edge39" class="edge">
<title>Node2&#45;&gt;Node13</title>
<path fill="none" stroke="#63b8ff" d="M931.07,-241.74C929.46,-226.8 925.06,-203.27 913,-187 901.27,-171.17 882.9,-159.1 866.82,-150.8"/>
<polygon fill="#63b8ff" stroke="#63b8ff" points="868.57,-147.76 858.04,-146.54 865.51,-154.06 868.57,-147.76"/>
</g>
<!-- Node14 -->
<g id="node14" class="node">
<title>Node14</title>
<g id="a_node14"><a xlink:href="structured__domains_8h.html" target="_top" xlink:title="This module provides interfaces that deal with additional structured domains in the folding grammar.">
<polygon fill="white" stroke="#666666" points="1162.5,-151 1047.5,-151 1047.5,-121 1162.5,-121 1162.5,-151"/>
<text text-anchor="start" x="1055.5" y="-139" font-family="Helvetica,sans-Serif" font-size="10.00">ViennaRNA/structured</text>
<text text-anchor="middle" x="1105" y="-128" font-family="Helvetica,sans-Serif" font-size="10.00">_domains.h</text>
</a>
</g>
</g>
<!-- Node2&#45;&gt;Node14 -->
<g id="edge40" class="edge">
<title>Node2&#45;&gt;Node14</title>
<path fill="none" stroke="#63b8ff" d="M952.87,-241.65C983.26,-220.74 1039.88,-181.79 1074.82,-157.76"/>
<polygon fill="#63b8ff" stroke="#63b8ff" points="1076.56,-160.81 1082.81,-152.26 1072.59,-155.05 1076.56,-160.81"/>
</g>
<!-- Node15 -->
<g id="node15" class="node">
<title>Node15</title>
<g id="a_node15"><a xlink:href="unstructured__domains_8h.html" target="_top" xlink:title="Functions to modify unstructured domains, e.g. to incorporate ligands binding to unpaired stretches.">
<polygon fill="white" stroke="#666666" points="1442.5,-151 1317.5,-151 1317.5,-121 1442.5,-121 1442.5,-151"/>
<text text-anchor="start" x="1325.5" y="-139" font-family="Helvetica,sans-Serif" font-size="10.00">ViennaRNA/unstructured</text>
<text text-anchor="middle" x="1380" y="-128" font-family="Helvetica,sans-Serif" font-size="10.00">_domains.h</text>
</a>
</g>
</g>
<!-- Node2&#45;&gt;Node15 -->
<g id="edge41" class="edge">
<title>Node2&#45;&gt;Node15</title>
<path fill="none" stroke="#63b8ff" d="M981.89,-241.53C1061.85,-219.56 1218.71,-177.86 1309.89,-154.31"/>
<polygon fill="#63b8ff" stroke="#63b8ff" points="1310.67,-157.73 1319.48,-151.84 1308.92,-150.95 1310.67,-157.73"/>
</g>
<!-- Node2&#45;&gt;Node16 -->
<g id="edge42" class="edge">
<title>Node2&#45;&gt;Node16</title>
<path fill="none" stroke="#63b8ff" d="M999.39,-250.12C1122.55,-238.47 1377.03,-208.47 1443,-151 1460.48,-135.77 1467.05,-108.98 1471.62,-90.63"/>
<polygon fill="#63b8ff" stroke="#63b8ff" points="1474.93,-91.79 1474.11,-81.22 1468.16,-90 1474.93,-91.79"/>
</g>
<!-- Node4 -->
<g id="node4" class="node">
<title>Node4</title>
<g id="a_node4"><a xlink:title=" ">
<polygon fill="#e0e0e0" stroke="#999999" points="103,-19 55,-19 55,0 103,0 103,-19"/>
<text text-anchor="middle" x="79" y="-7" font-family="Helvetica,sans-Serif" font-size="10.00">limits.h</text>
</a>
</g>
</g>
<!-- Node3&#45;&gt;Node4 -->
<g id="edge3" class="edge">
<title>Node3&#45;&gt;Node4</title>
<path fill="none" stroke="#63b8ff" d="M79,-60.37C79,-52.5 79,-40.6 79,-30.39"/>
<polygon fill="#63b8ff" stroke="#63b8ff" points="82.5,-30.68 79,-20.68 75.5,-30.68 82.5,-30.68"/>
</g>
<!-- Node5&#45;&gt;Node6 -->
<g id="edge5" class="edge">
<title>Node5&#45;&gt;Node6</title>
<path fill="none" stroke="#63b8ff" d="M816.14,-186.74C785.51,-168.83 716.05,-129.05 690,-121 561.3,-81.22 402.58,-72.49 315.6,-70.93"/>
<polygon fill="#63b8ff" stroke="#63b8ff" points="315.89,-67.43 305.84,-70.78 315.79,-74.43 315.89,-67.43"/>
</g>
<!-- Node5&#45;&gt;Node7 -->
<g id="edge6" class="edge">
<title>Node5&#45;&gt;Node7</title>
<path fill="none" stroke="#63b8ff" d="M757.53,-190.99C648.88,-183.78 439.36,-168.65 262,-151 250.85,-149.89 239.13,-148.62 227.66,-147.3"/>
<polygon fill="#63b8ff" stroke="#63b8ff" points="228.15,-143.83 217.82,-146.14 227.34,-150.78 228.15,-143.83"/>
</g>
<!-- Node8 -->
<g id="node8" class="node">
<title>Node8</title>
<g id="a_node8"><a xlink:href="sequence_8h.html" target="_top" xlink:title="Functions and data structures related to sequence representations ,.">
<polygon fill="white" stroke="#666666" points="553,-145.5 431,-145.5 431,-126.5 553,-126.5 553,-145.5"/>
<text text-anchor="middle" x="492" y="-133.5" font-family="Helvetica,sans-Serif" font-size="10.00">ViennaRNA/sequence.h</text>
</a>
</g>
</g>
<!-- Node5&#45;&gt;Node8 -->
<g id="edge11" class="edge">
<title>Node5&#45;&gt;Node8</title>
<path fill="none" stroke="#63b8ff" d="M766.98,-186.53C710.61,-177.88 626.63,-164.19 554,-151 549,-150.09 543.8,-149.12 538.64,-148.13"/>
<polygon fill="#63b8ff" stroke="#63b8ff" points="539.43,-144.72 528.94,-146.23 538.09,-151.59 539.43,-144.72"/>
</g>
<!-- Node5&#45;&gt;Node9 -->
<g id="edge13" class="edge">
<title>Node5&#45;&gt;Node9</title>
<path fill="none" stroke="#63b8ff" d="M757.85,-189.76C674.08,-182.43 533.15,-168.58 413,-151 406.86,-150.1 400.46,-149.07 394.14,-147.99"/>
<polygon fill="#63b8ff" stroke="#63b8ff" points="394.89,-144.56 384.43,-146.25 393.66,-151.45 394.89,-144.56"/>
</g>
<!-- Node5&#45;&gt;Node10 -->
<g id="edge16" class="edge">
<title>Node5&#45;&gt;Node10</title>
<path fill="none" stroke="#63b8ff" d="M847.1,-186.62C864.79,-178.45 893.74,-166.08 919.15,-155.73"/>
<polygon fill="#63b8ff" stroke="#63b8ff" points="920.41,-159 928.37,-152.01 917.79,-152.5 920.41,-159"/>
</g>
<!-- Node5&#45;&gt;Node12 -->
<g id="edge20" class="edge">
<title>Node5&#45;&gt;Node12</title>
<path fill="none" stroke="#63b8ff" d="M904.35,-186.68C971.77,-178.69 1074.24,-165.91 1163,-151 1165.01,-150.66 1167.05,-150.31 1169.11,-149.94"/>
<polygon fill="#63b8ff" stroke="#63b8ff" points="1169.58,-153.42 1178.77,-148.16 1168.3,-146.53 1169.58,-153.42"/>
</g>
<!-- Node5&#45;&gt;Node13 -->
<g id="edge24" class="edge">
<title>Node5&#45;&gt;Node13</title>
<path fill="none" stroke="#63b8ff" d="M826.49,-186.87C825.19,-179 825.31,-167.1 826.55,-156.89"/>
<polygon fill="#63b8ff" stroke="#63b8ff" points="829.97,-157.62 828.32,-147.16 823.08,-156.37 829.97,-157.62"/>
</g>
<!-- Node5&#45;&gt;Node14 -->
<g id="edge26" class="edge">
<title>Node5&#45;&gt;Node14</title>
<path fill="none" stroke="#63b8ff" d="M872.91,-186.55C916.28,-177.29 984.73,-162.68 1036.07,-151.72"/>
<polygon fill="#63b8ff" stroke="#63b8ff" points="1036.55,-155.19 1045.6,-149.68 1035.09,-148.35 1036.55,-155.19"/>
</g>
<!-- Node5&#45;&gt;Node15 -->
<g id="edge27" class="edge">
<title>Node5&#45;&gt;Node15</title>
<path fill="none" stroke="#63b8ff" d="M904.39,-190.57C996.94,-184.11 1160.6,-171.18 1300,-151 1302.01,-150.71 1304.05,-150.4 1306.11,-150.07"/>
<polygon fill="#63b8ff" stroke="#63b8ff" points="1306.49,-153.56 1315.77,-148.45 1305.33,-146.66 1306.49,-153.56"/>
</g>
<!-- Node18 -->
<g id="node18" class="node">
<title>Node18</title>
<g id="a_node18"><a xlink:href="zscore_8h_source.html" target="_top" xlink:title=" ">
<polygon fill="white" stroke="#666666" points="680.5,-145.5 571.5,-145.5 571.5,-126.5 680.5,-126.5 680.5,-145.5"/>
<text text-anchor="middle" x="626" y="-133.5" font-family="Helvetica,sans-Serif" font-size="10.00">ViennaRNA/zscore.h</text>
</a>
</g>
</g>
<!-- Node5&#45;&gt;Node18 -->
<g id="edge33" class="edge">
<title>Node5&#45;&gt;Node18</title>
<path fill="none" stroke="#63b8ff" d="M799.86,-186.62C764.8,-176.61 707.6,-160.29 668.45,-149.12"/>
<polygon fill="#63b8ff" stroke="#63b8ff" points="669.46,-145.76 658.88,-146.38 667.54,-152.49 669.46,-145.76"/>
</g>
<!-- Node7&#45;&gt;Node2 -->
<g id="edge8" class="edge">
<title>Node7&#45;&gt;Node2</title>
<path fill="none" stroke="#63b8ff" d="M166.71,-145.99C183.56,-161.47 213.15,-192.78 246,-206 354.73,-249.77 697.06,-255.92 853.15,-256.33"/>
<polygon fill="#63b8ff" stroke="#63b8ff" points="852.99,-259.83 863,-256.35 853,-252.83 852.99,-259.83"/>
</g>
<!-- Node7&#45;&gt;Node3 -->
<g id="edge7" class="edge">
<title>Node7&#45;&gt;Node3</title>
<path fill="none" stroke="#63b8ff" d="M143.57,-126.1C131.82,-116.07 112.46,-99.56 98.01,-87.22"/>
<polygon fill="#63b8ff" stroke="#63b8ff" points="100.37,-84.63 90.49,-80.81 95.83,-89.96 100.37,-84.63"/>
</g>
<!-- Node7&#45;&gt;Node5 -->
<g id="edge9" class="edge">
<title>Node7&#45;&gt;Node5</title>
<path fill="none" stroke="#63b8ff" d="M223.28,-144.73C241.78,-146.91 261.68,-149.18 280,-151 445.2,-167.44 638.31,-181.69 746.52,-189.4"/>
<polygon fill="#63b8ff" stroke="#63b8ff" points="745.95,-192.87 756.17,-190.08 746.45,-185.88 745.95,-192.87"/>
</g>
<!-- Node7&#45;&gt;Node6 -->
<g id="edge10" class="edge">
<title>Node7&#45;&gt;Node6</title>
<path fill="none" stroke="#63b8ff" d="M167.49,-126.1C183.2,-115.74 209.4,-98.45 228.27,-86"/>
<polygon fill="#63b8ff" stroke="#63b8ff" points="229.94,-89.09 236.36,-80.66 226.09,-83.24 229.94,-89.09"/>
</g>
<!-- Node8&#45;&gt;Node5 -->
<g id="edge12" class="edge">
<title>Node8&#45;&gt;Node5</title>
<path fill="none" stroke="#63b8ff" d="M545.09,-145.94C554.12,-147.67 563.35,-149.43 572,-151 639.66,-163.29 717.18,-176.01 769.72,-184.69"/>
<polygon fill="#63b8ff" stroke="#63b8ff" points="768.94,-188.11 779.38,-186.29 770.08,-181.2 768.94,-188.11"/>
</g>
<!-- Node9&#45;&gt;Node2 -->
<g id="edge14" class="edge">
<title>Node9&#45;&gt;Node2</title>
<path fill="none" stroke="#63b8ff" d="M393.86,-145.95C495.01,-165.77 730.97,-213.61 854.13,-239.2"/>
<polygon fill="#63b8ff" stroke="#63b8ff" points="853.35,-242.61 863.85,-241.22 854.77,-235.76 853.35,-242.61"/>
</g>
<!-- Node9&#45;&gt;Node5 -->
<g id="edge15" class="edge">
<title>Node9&#45;&gt;Node5</title>
<path fill="none" stroke="#63b8ff" d="M400.51,-145.99C410.68,-147.79 421.18,-149.56 431,-151 539.67,-166.9 665.36,-179.75 746.46,-187.48"/>
<polygon fill="#63b8ff" stroke="#63b8ff" points="745.81,-190.94 756.09,-188.4 746.47,-183.97 745.81,-190.94"/>
</g>
<!-- Node10&#45;&gt;Node5 -->
<g id="edge17" class="edge">
<title>Node10&#45;&gt;Node5</title>
<path fill="none" stroke="#63b8ff" d="M941.6,-151.44C920.18,-160.95 890.78,-173.3 867.6,-182.5"/>
<polygon fill="#63b8ff" stroke="#63b8ff" points="866.56,-179.15 858.53,-186.06 869.12,-185.67 866.56,-179.15"/>
</g>
<!-- Node11 -->
<g id="node11" class="node">
<title>Node11</title>
<g id="a_node11"><a xlink:href="constraints_2basic_8h.html" target="_top" xlink:title="Functions and data structures for constraining secondary structure predictions and evaluation.">
<polygon fill="white" stroke="#666666" points="1029.5,-85 910.5,-85 910.5,-55 1029.5,-55 1029.5,-85"/>
<text text-anchor="start" x="918.5" y="-73" font-family="Helvetica,sans-Serif" font-size="10.00">ViennaRNA/constraints</text>
<text text-anchor="middle" x="970" y="-62" font-family="Helvetica,sans-Serif" font-size="10.00">/basic.h</text>
</a>
</g>
</g>
<!-- Node10&#45;&gt;Node11 -->
<g id="edge18" class="edge">
<title>Node10&#45;&gt;Node11</title>
<path fill="none" stroke="#63b8ff" d="M970,-120.8C970,-113.67 970,-104.82 970,-96.56"/>
<polygon fill="#63b8ff" stroke="#63b8ff" points="973.5,-96.68 970,-86.68 966.5,-96.68 973.5,-96.68"/>
</g>
<!-- Node11&#45;&gt;Node5 -->
<g id="edge19" class="edge">
<title>Node11&#45;&gt;Node5</title>
<path fill="none" stroke="#63b8ff" d="M910.03,-77.62C856.71,-84.89 784.55,-98.61 767,-121 758.78,-131.5 760.82,-139.18 767,-151 773.81,-164.02 786.36,-174.01 798.55,-181.18"/>
<polygon fill="#63b8ff" stroke="#63b8ff" points="796.77,-184.2 807.24,-185.84 800.08,-178.03 796.77,-184.2"/>
</g>
<!-- Node12&#45;&gt;Node2 -->
<g id="edge21" class="edge">
<title>Node12&#45;&gt;Node2</title>
<path fill="none" stroke="#63b8ff" d="M1207.39,-151.37C1154.19,-172.98 1048.64,-213.82 984.72,-237.58"/>
<polygon fill="#63b8ff" stroke="#63b8ff" points="983.64,-234.25 975.48,-241 986.07,-240.81 983.64,-234.25"/>
</g>
<!-- Node12&#45;&gt;Node5 -->
<g id="edge22" class="edge">
<title>Node12&#45;&gt;Node5</title>
<path fill="none" stroke="#63b8ff" d="M1180.17,-151.14C1090.22,-166.22 986.37,-179.11 915.39,-187.05"/>
<polygon fill="#63b8ff" stroke="#63b8ff" points="915.35,-183.53 905.8,-188.11 916.12,-190.49 915.35,-183.53"/>
</g>
<!-- Node12&#45;&gt;Node11 -->
<g id="edge23" class="edge">
<title>Node12&#45;&gt;Node11</title>
<path fill="none" stroke="#63b8ff" d="M1180.08,-120.8C1138.92,-111.04 1084.1,-98.05 1040.79,-87.78"/>
<polygon fill="#63b8ff" stroke="#63b8ff" points="1041.76,-84.41 1031.23,-85.51 1040.15,-91.23 1041.76,-84.41"/>
</g>
<!-- Node13&#45;&gt;Node5 -->
<g id="edge25" class="edge">
<title>Node13&#45;&gt;Node5</title>
<path fill="none" stroke="#63b8ff" d="M838.52,-145.67C839.81,-153.54 839.69,-165.45 838.45,-175.66"/>
<polygon fill="#63b8ff" stroke="#63b8ff" points="835.03,-174.91 836.67,-185.38 841.91,-176.17 835.03,-174.91"/>
</g>
<!-- Node15&#45;&gt;Node2 -->
<g id="edge28" class="edge">
<title>Node15&#45;&gt;Node2</title>
<path fill="none" stroke="#63b8ff" d="M1330.14,-151.46C1250.2,-173.43 1093.34,-215.13 1002.14,-238.68"/>
<polygon fill="#63b8ff" stroke="#63b8ff" points="1001.36,-235.26 992.55,-241.15 1003.11,-242.04 1001.36,-235.26"/>
</g>
<!-- Node15&#45;&gt;Node5 -->
<g id="edge29" class="edge">
<title>Node15&#45;&gt;Node5</title>
<path fill="none" stroke="#63b8ff" d="M1317.15,-151.12C1177.08,-171.35 1012.74,-184.28 915.42,-190.68"/>
<polygon fill="#63b8ff" stroke="#63b8ff" points="915.45,-187.17 905.7,-191.32 915.9,-194.16 915.45,-187.17"/>
</g>
<!-- Node15&#45;&gt;Node16 -->
<g id="edge30" class="edge">
<title>Node15&#45;&gt;Node16</title>
<path fill="none" stroke="#63b8ff" d="M1402.19,-120.8C1418.39,-110.43 1440.31,-96.4 1456.75,-85.88"/>
<polygon fill="#63b8ff" stroke="#63b8ff" points="1458.37,-89 1464.91,-80.66 1454.6,-83.1 1458.37,-89"/>
</g>
<!-- Node16&#45;&gt;Node2 -->
<g id="edge32" class="edge">
<title>Node16&#45;&gt;Node2</title>
<path fill="none" stroke="#63b8ff" d="M1484.78,-79.76C1487.45,-96.35 1482.41,-132.34 1461,-151 1395.04,-208.46 1140.64,-238.46 1010.11,-250.12"/>
<polygon fill="#63b8ff" stroke="#63b8ff" points="1010.18,-246.6 1000.53,-250.96 1010.79,-253.57 1010.18,-246.6"/>
</g>
<!-- Node17 -->
<g id="node17" class="node">
<title>Node17</title>
<g id="a_node17"><a xlink:title=" ">
<polygon fill="#e0e0e0" stroke="#999999" points="1503,-19 1457,-19 1457,0 1503,0 1503,-19"/>
<text text-anchor="middle" x="1480" y="-7" font-family="Helvetica,sans-Serif" font-size="10.00">stdio.h</text>
</a>
</g>
</g>
<!-- Node16&#45;&gt;Node17 -->
<g id="edge31" class="edge">
<title>Node16&#45;&gt;Node17</title>
<path fill="none" stroke="#63b8ff" d="M1480,-60.37C1480,-52.5 1480,-40.6 1480,-30.39"/>
<polygon fill="#63b8ff" stroke="#63b8ff" points="1483.5,-30.68 1480,-20.68 1476.5,-30.68 1483.5,-30.68"/>
</g>
</g>
</svg>
        <g id="navigator" transform="translate(0 0)" fill="#404254">
                <rect fill="#f2f5e9" fill-opacity="0.5" stroke="#606060" stroke-width=".5" x="0" y="0" width="60" height="60"/>
                <use id="zoomplus" xlink:href="#zoomPlus" x="17" y="9" onmousedown="handleZoom(evt,'in')"/>
                <use id="zoomminus" xlink:href="#zoomMin" x="42" y="9" onmousedown="handleZoom(evt,'out')"/>
                <use id="reset" xlink:href="#resetDef" x="30" y="36" onmousedown="handleReset()"/>
                <g id="arrowUp" xlink:href="#dirArrow" transform="translate(30 24)" onmousedown="handlePan(0,-1)">
                  <use xlink:href="#rim" fill="#404040">
                        <set attributeName="fill" to="#808080" begin="arrowUp.mouseover" end="arrowUp.mouseout"/>
                  </use>
                  <path fill="none" stroke="white" stroke-width="1.5" d="M0,-3.0v7 M-2.5,-0.5L0,-3.0L2.5,-0.5"/>
                </g>
                <g id="arrowRight" xlink:href="#dirArrow" transform="rotate(90) translate(36 -43)" onmousedown="handlePan(1,0)">
                  <use xlink:href="#rim" fill="#404040">
                        <set attributeName="fill" to="#808080" begin="arrowRight.mouseover" end="arrowRight.mouseout"/>
                  </use>
                  <path fill="none" stroke="white" stroke-width="1.5" d="M0,-3.0v7 M-2.5,-0.5L0,-3.0L2.5,-0.5"/>
                </g>
                <g id="arrowDown" xlink:href="#dirArrow" transform="rotate(180) translate(-30 -48)" onmousedown="handlePan(0,1)">
                  <use xlink:href="#rim" fill="#404040">
                        <set attributeName="fill" to="#808080" begin="arrowDown.mouseover" end="arrowDown.mouseout"/>
                  </use>
                  <path fill="none" stroke="white" stroke-width="1.5" d="M0,-3.0v7 M-2.5,-0.5L0,-3.0L2.5,-0.5"/>
                </g>
                <g id="arrowLeft" xlink:href="#dirArrow" transform="rotate(270) translate(-36 17)" onmousedown="handlePan(-1,0)">
                  <use xlink:href="#rim" fill="#404040">
                        <set attributeName="fill" to="#808080" begin="arrowLeft.mouseover" end="arrowLeft.mouseout"/>
                  </use>
                  <path fill="none" stroke="white" stroke-width="1.5" d="M0,-3.0v7 M-2.5,-0.5L0,-3.0L2.5,-0.5"/>
                </g>
        </g>
        <svg viewBox="0 0 15 15" width="100%" height="30px" preserveAspectRatio="xMaxYMin meet">
         <g id="arrow_out" transform="scale(0.3 0.3)">
          <a xlink:href="equilibrium__probs_8h__incl_org.svg" target="_base">
           <rect id="button" ry="5" rx="5" y="6" x="6" height="38" width="38"
                fill="#f2f5e9" fill-opacity="0.5" stroke="#606060" stroke-width="1.0"/>
           <path id="arrow"
             d="M 11.500037,31.436501 C 11.940474,20.09759 22.043105,11.32322 32.158766,21.979434 L 37.068811,17.246167 C 37.068811,17.246167 37.088388,32 37.088388,32 L 22.160133,31.978069 C 22.160133,31.978069 26.997745,27.140456 26.997745,27.140456 C 18.528582,18.264221 13.291696,25.230495 11.500037,31.436501 z"
             style="fill:#404040;"/>
          </a>
         </g>
        </svg>
</svg>
