<?xml version="1.0" encoding="UTF-8" standalone="no"?>
<!DOCTYPE svg PUBLIC "-//W3C//DTD SVG 1.1//EN"
 "http://www.w3.org/Graphics/SVG/1.1/DTD/svg11.dtd">
<!-- Generated by graphviz version 7.1.0 (0)
 -->
<!-- Title: ViennaRNA/loops/external.h Pages: 1 -->
<svg width="258pt" height="148pt"
 viewBox="0.00 0.00 258.00 148.00" xmlns="http://www.w3.org/2000/svg" xmlns:xlink="http://www.w3.org/1999/xlink">
<g id="graph0" class="graph" transform="scale(1 1) rotate(0) translate(4 144)">
<title>ViennaRNA/loops/external.h</title>
<!-- Node1 -->
<g id="node1" class="node">
<title>Node1</title>
<g id="a_node1"><a xlink:title="Energy evaluation of exterior loops for MFE and partition function calculations.">
<polygon fill="#999999" stroke="#666666" points="186,-140 46,-140 46,-121 186,-121 186,-140"/>
<text text-anchor="middle" x="116" y="-128" font-family="Helvetica,sans-Serif" font-size="10.00">ViennaRNA/loops/external.h</text>
</a>
</g>
</g>
<!-- Node2 -->
<g id="node2" class="node">
<title>Node2</title>
<g id="a_node2"><a xlink:href="exterior__loops_8h.html" target="_top" xlink:title="Use ViennaRNA/loops/external.h instead.">
<polygon fill="white" stroke="#666666" points="104,-85 0,-85 0,-55 104,-55 104,-85"/>
<text text-anchor="start" x="8" y="-73" font-family="Helvetica,sans-Serif" font-size="10.00">ViennaRNA/exterior</text>
<text text-anchor="middle" x="52" y="-62" font-family="Helvetica,sans-Serif" font-size="10.00">_loops.h</text>
</a>
</g>
</g>
<!-- Node1&#45;&gt;Node2 -->
<g id="edge1" class="edge">
<title>Node1&#45;&gt;Node2</title>
<path fill="none" stroke="#63b8ff" d="M97.95,-113C88.46,-104.32 76.93,-93.79 67.8,-85.44"/>
<polygon fill="#63b8ff" stroke="#63b8ff" points="95.42,-115.43 105.16,-119.59 100.14,-110.26 95.42,-115.43"/>
</g>
<!-- Node3 -->
<g id="node3" class="node">
<title>Node3</title>
<g id="a_node3"><a xlink:href="all_8h.html" target="_top" xlink:title="Energy evaluation for MFE and partition function calculations.">
<polygon fill="white" stroke="#666666" points="238,-79.5 122,-79.5 122,-60.5 238,-60.5 238,-79.5"/>
<text text-anchor="middle" x="180" y="-67.5" font-family="Helvetica,sans-Serif" font-size="10.00">ViennaRNA/loops/all.h</text>
</a>
</g>
</g>
<!-- Node1&#45;&gt;Node3 -->
<g id="edge2" class="edge">
<title>Node1&#45;&gt;Node3</title>
<path fill="none" stroke="#63b8ff" d="M133.94,-113.1C145.68,-102.37 160.57,-88.76 170.19,-79.97"/>
<polygon fill="#63b8ff" stroke="#63b8ff" points="131.86,-110.26 126.84,-119.59 136.58,-115.43 131.86,-110.26"/>
</g>
<!-- Node4 -->
<g id="node4" class="node">
<title>Node4</title>
<g id="a_node4"><a xlink:href="loop__energies_8h.html" target="_top" xlink:title="Use ViennaRNA/loops/all.h instead.">
<polygon fill="white" stroke="#666666" points="250,-19 110,-19 110,0 250,0 250,-19"/>
<text text-anchor="middle" x="180" y="-7" font-family="Helvetica,sans-Serif" font-size="10.00">ViennaRNA/loop_energies.h</text>
</a>
</g>
</g>
<!-- Node3&#45;&gt;Node4 -->
<g id="edge3" class="edge">
<title>Node3&#45;&gt;Node4</title>
<path fill="none" stroke="#63b8ff" d="M180,-49.16C180,-38.95 180,-27.04 180,-19.17"/>
<polygon fill="#63b8ff" stroke="#63b8ff" points="176.5,-48.85 180,-58.85 183.5,-48.85 176.5,-48.85"/>
</g>
</g>
</svg>
