<?xml version="1.0" encoding="UTF-8" standalone="no"?>
<!DOCTYPE svg PUBLIC "-//W3C//DTD SVG 1.1//EN"
 "http://www.w3.org/Graphics/SVG/1.1/DTD/svg11.dtd">
<!-- Generated by graphviz version 7.1.0 (0)
 -->
<!-- Title: ViennaRNA/loops/external.h Pages: 1 -->
<svg width="1512pt" height="335pt"
 viewBox="0.00 0.00 1512.00 335.00" xmlns="http://www.w3.org/2000/svg" xmlns:xlink="http://www.w3.org/1999/xlink">
<g id="graph0" class="graph" transform="scale(1 1) rotate(0) translate(4 331)">
<title>ViennaRNA/loops/external.h</title>
<!-- Node1 -->
<g id="node1" class="node">
<title>Node1</title>
<g id="a_node1"><a xlink:title="Energy evaluation of exterior loops for MFE and partition function calculations.">
<polygon fill="#999999" stroke="#666666" points="805,-327 665,-327 665,-308 805,-308 805,-327"/>
<text text-anchor="middle" x="735" y="-315" font-family="Helvetica,sans-Serif" font-size="10.00">ViennaRNA/loops/external.h</text>
</a>
</g>
</g>
<!-- Node2 -->
<g id="node2" class="node">
<title>Node2</title>
<g id="a_node2"><a xlink:href="datastructures_2basic_8h.html" target="_top" xlink:title="Various data structures and pre&#45;processor macros.">
<polygon fill="white" stroke="#666666" points="663,-272 529,-272 529,-242 663,-242 663,-272"/>
<text text-anchor="start" x="537" y="-260" font-family="Helvetica,sans-Serif" font-size="10.00">ViennaRNA/datastructures</text>
<text text-anchor="middle" x="596" y="-249" font-family="Helvetica,sans-Serif" font-size="10.00">/basic.h</text>
</a>
</g>
</g>
<!-- Node1&#45;&gt;Node2 -->
<g id="edge1" class="edge">
<title>Node1&#45;&gt;Node2</title>
<path fill="none" stroke="#63b8ff" d="M713.89,-307.62C694.57,-299.48 665.35,-287.19 640.84,-276.87"/>
<polygon fill="#63b8ff" stroke="#63b8ff" points="642.28,-273.68 631.7,-273.03 639.56,-280.13 642.28,-273.68"/>
</g>
<!-- Node5 -->
<g id="node5" class="node">
<title>Node5</title>
<g id="a_node5"><a xlink:href="fold__compound_8h.html" target="_top" xlink:title="The Basic Fold Compound API.">
<polygon fill="white" stroke="#666666" points="808,-206 662,-206 662,-187 808,-187 808,-206"/>
<text text-anchor="middle" x="735" y="-194" font-family="Helvetica,sans-Serif" font-size="10.00">ViennaRNA/fold_compound.h</text>
</a>
</g>
</g>
<!-- Node1&#45;&gt;Node5 -->
<g id="edge43" class="edge">
<title>Node1&#45;&gt;Node5</title>
<path fill="none" stroke="#63b8ff" d="M735,-307.56C735,-288.6 735,-243.97 735,-217.73"/>
<polygon fill="#63b8ff" stroke="#63b8ff" points="738.5,-217.74 735,-207.74 731.5,-217.74 738.5,-217.74"/>
</g>
<!-- Node7 -->
<g id="node7" class="node">
<title>Node7</title>
<g id="a_node7"><a xlink:href="params_2basic_8h.html" target="_top" xlink:title="Functions to deal with sets of energy parameters.">
<polygon fill="white" stroke="#666666" points="1467,-145.5 1329,-145.5 1329,-126.5 1467,-126.5 1467,-145.5"/>
<text text-anchor="middle" x="1398" y="-133.5" font-family="Helvetica,sans-Serif" font-size="10.00">ViennaRNA/params/basic.h</text>
</a>
</g>
</g>
<!-- Node1&#45;&gt;Node7 -->
<g id="edge44" class="edge">
<title>Node1&#45;&gt;Node7</title>
<path fill="none" stroke="#63b8ff" d="M805.44,-310.93C947.79,-298.55 1263.77,-265.09 1353,-206 1371.04,-194.05 1383.47,-172.13 1390.63,-156.19"/>
<polygon fill="#63b8ff" stroke="#63b8ff" points="1393.73,-157.85 1394.33,-147.27 1387.26,-155.17 1393.73,-157.85"/>
</g>
<!-- Node3 -->
<g id="node3" class="node">
<title>Node3</title>
<g id="a_node3"><a xlink:href="constants_8h.html" target="_top" xlink:title="Energy parameter constants.">
<polygon fill="white" stroke="#666666" points="1380,-79.5 1222,-79.5 1222,-60.5 1380,-60.5 1380,-79.5"/>
<text text-anchor="middle" x="1301" y="-67.5" font-family="Helvetica,sans-Serif" font-size="10.00">ViennaRNA/params/constants.h</text>
</a>
</g>
</g>
<!-- Node2&#45;&gt;Node3 -->
<g id="edge2" class="edge">
<title>Node2&#45;&gt;Node3</title>
<path fill="none" stroke="#63b8ff" d="M663.32,-254.95C818.07,-251.13 1192.64,-233.38 1282,-151 1298.38,-135.9 1301.85,-109.48 1302.06,-91.15"/>
<polygon fill="#63b8ff" stroke="#63b8ff" points="1305.56,-91.19 1301.83,-81.27 1298.57,-91.35 1305.56,-91.19"/>
</g>
<!-- Node2&#45;&gt;Node5 -->
<g id="edge4" class="edge">
<title>Node2&#45;&gt;Node5</title>
<path fill="none" stroke="#63b8ff" d="M630.36,-241.54C652.78,-232.1 681.82,-219.88 703.62,-210.71"/>
<polygon fill="#63b8ff" stroke="#63b8ff" points="704.73,-214.04 712.59,-206.93 702.01,-207.59 704.73,-214.04"/>
</g>
<!-- Node6 -->
<g id="node6" class="node">
<title>Node6</title>
<g id="a_node6"><a xlink:href="model_8h.html" target="_top" xlink:title="The model details data structure and its corresponding modifiers.">
<polygon fill="white" stroke="#666666" points="1504,-79.5 1398,-79.5 1398,-60.5 1504,-60.5 1504,-79.5"/>
<text text-anchor="middle" x="1451" y="-67.5" font-family="Helvetica,sans-Serif" font-size="10.00">ViennaRNA/model.h</text>
</a>
</g>
</g>
<!-- Node2&#45;&gt;Node6 -->
<g id="edge34" class="edge">
<title>Node2&#45;&gt;Node6</title>
<path fill="none" stroke="#63b8ff" d="M663.22,-254.6C823.27,-250.77 1223.25,-238.2 1353,-206 1411.12,-191.58 1443.43,-201.25 1476,-151 1488.45,-131.79 1476.16,-105.97 1464.83,-88.93"/>
<polygon fill="#63b8ff" stroke="#63b8ff" points="1467.68,-86.9 1459.01,-80.81 1461.99,-90.98 1467.68,-86.9"/>
</g>
<!-- Node2&#45;&gt;Node7 -->
<g id="edge35" class="edge">
<title>Node2&#45;&gt;Node7</title>
<path fill="none" stroke="#63b8ff" d="M663.36,-256.56C817.28,-256.89 1190.01,-252.53 1306,-206 1333.99,-194.77 1359.59,-170.39 1376.98,-153.83"/>
<polygon fill="#63b8ff" stroke="#63b8ff" points="1379.32,-156.44 1384.19,-147.03 1374.52,-151.34 1379.32,-156.44"/>
</g>
<!-- Node9 -->
<g id="node9" class="node">
<title>Node9</title>
<g id="a_node9"><a xlink:href="dp__matrices_8h.html" target="_top" xlink:title="Functions to deal with standard dynamic programming (DP) matrices.">
<polygon fill="white" stroke="#666666" points="522.5,-145.5 389.5,-145.5 389.5,-126.5 522.5,-126.5 522.5,-145.5"/>
<text text-anchor="middle" x="456" y="-133.5" font-family="Helvetica,sans-Serif" font-size="10.00">ViennaRNA/dp_matrices.h</text>
</a>
</g>
</g>
<!-- Node2&#45;&gt;Node9 -->
<g id="edge36" class="edge">
<title>Node2&#45;&gt;Node9</title>
<path fill="none" stroke="#63b8ff" d="M574.53,-241.65C545.7,-219.51 495.78,-177.16 470.78,-153.69"/>
<polygon fill="#63b8ff" stroke="#63b8ff" points="473.49,-151.45 463.87,-147.03 468.63,-156.49 473.49,-151.45"/>
</g>
<!-- Node10 -->
<g id="node10" class="node">
<title>Node10</title>
<g id="a_node10"><a xlink:href="hard_8h.html" target="_top" xlink:title="Functions and data structures for handling of secondary structure hard constraints.">
<polygon fill="white" stroke="#666666" points="792.5,-151 673.5,-151 673.5,-121 792.5,-121 792.5,-151"/>
<text text-anchor="start" x="681.5" y="-139" font-family="Helvetica,sans-Serif" font-size="10.00">ViennaRNA/constraints</text>
<text text-anchor="middle" x="733" y="-128" font-family="Helvetica,sans-Serif" font-size="10.00">/hard.h</text>
</a>
</g>
</g>
<!-- Node2&#45;&gt;Node10 -->
<g id="edge37" class="edge">
<title>Node2&#45;&gt;Node10</title>
<path fill="none" stroke="#63b8ff" d="M605.75,-241.63C616.27,-226.81 634.07,-203.59 653,-187 665.79,-175.8 681.36,-165.46 695.35,-157.12"/>
<polygon fill="#63b8ff" stroke="#63b8ff" points="696.99,-160.22 703.89,-152.18 693.48,-154.16 696.99,-160.22"/>
</g>
<!-- Node12 -->
<g id="node12" class="node">
<title>Node12</title>
<g id="a_node12"><a xlink:href="soft_8h.html" target="_top" xlink:title="Functions and data structures for secondary structure soft constraints.">
<polygon fill="white" stroke="#666666" points="371.5,-151 252.5,-151 252.5,-121 371.5,-121 371.5,-151"/>
<text text-anchor="start" x="260.5" y="-139" font-family="Helvetica,sans-Serif" font-size="10.00">ViennaRNA/constraints</text>
<text text-anchor="middle" x="312" y="-128" font-family="Helvetica,sans-Serif" font-size="10.00">/soft.h</text>
</a>
</g>
</g>
<!-- Node2&#45;&gt;Node12 -->
<g id="edge38" class="edge">
<title>Node2&#45;&gt;Node12</title>
<path fill="none" stroke="#63b8ff" d="M556.86,-241.53C502.89,-220.04 406.43,-179.69 352.01,-155.9"/>
<polygon fill="#63b8ff" stroke="#63b8ff" points="353.66,-152.8 343.1,-151.98 350.84,-159.21 353.66,-152.8"/>
</g>
<!-- Node13 -->
<g id="node13" class="node">
<title>Node13</title>
<g id="a_node13"><a xlink:href="grammar_8h.html" target="_top" xlink:title="Implementations for the RNA folding grammar.">
<polygon fill="white" stroke="#666666" points="1272.5,-145.5 1155.5,-145.5 1155.5,-126.5 1272.5,-126.5 1272.5,-145.5"/>
<text text-anchor="middle" x="1214" y="-133.5" font-family="Helvetica,sans-Serif" font-size="10.00">ViennaRNA/grammar.h</text>
</a>
</g>
</g>
<!-- Node2&#45;&gt;Node13 -->
<g id="edge39" class="edge">
<title>Node2&#45;&gt;Node13</title>
<path fill="none" stroke="#63b8ff" d="M663.31,-243.04C785.47,-219.52 1041.62,-170.19 1156.32,-148.11"/>
<polygon fill="#63b8ff" stroke="#63b8ff" points="1156.65,-151.61 1165.81,-146.28 1155.33,-144.73 1156.65,-151.61"/>
</g>
<!-- Node14 -->
<g id="node14" class="node">
<title>Node14</title>
<g id="a_node14"><a xlink:href="structured__domains_8h.html" target="_top" xlink:title="This module provides interfaces that deal with additional structured domains in the folding grammar.">
<polygon fill="white" stroke="#666666" points="655.5,-151 540.5,-151 540.5,-121 655.5,-121 655.5,-151"/>
<text text-anchor="start" x="548.5" y="-139" font-family="Helvetica,sans-Serif" font-size="10.00">ViennaRNA/structured</text>
<text text-anchor="middle" x="598" y="-128" font-family="Helvetica,sans-Serif" font-size="10.00">_domains.h</text>
</a>
</g>
</g>
<!-- Node2&#45;&gt;Node14 -->
<g id="edge40" class="edge">
<title>Node2&#45;&gt;Node14</title>
<path fill="none" stroke="#63b8ff" d="M596.24,-241.88C596.56,-222.39 597.16,-186.92 597.57,-162.67"/>
<polygon fill="#63b8ff" stroke="#63b8ff" points="601.06,-163.04 597.73,-152.98 594.06,-162.92 601.06,-163.04"/>
</g>
<!-- Node15 -->
<g id="node15" class="node">
<title>Node15</title>
<g id="a_node15"><a xlink:href="unstructured__domains_8h.html" target="_top" xlink:title="Functions to modify unstructured domains, e.g. to incorporate ligands binding to unpaired stretches.">
<polygon fill="white" stroke="#666666" points="234.5,-151 109.5,-151 109.5,-121 234.5,-121 234.5,-151"/>
<text text-anchor="start" x="117.5" y="-139" font-family="Helvetica,sans-Serif" font-size="10.00">ViennaRNA/unstructured</text>
<text text-anchor="middle" x="172" y="-128" font-family="Helvetica,sans-Serif" font-size="10.00">_domains.h</text>
</a>
</g>
</g>
<!-- Node2&#45;&gt;Node15 -->
<g id="edge41" class="edge">
<title>Node2&#45;&gt;Node15</title>
<path fill="none" stroke="#63b8ff" d="M539.83,-241.53C459.05,-219.62 311.03,-178.11 229.51,-154.53"/>
<polygon fill="#63b8ff" stroke="#63b8ff" points="230.97,-151.31 220.39,-151.89 229.02,-158.03 230.97,-151.31"/>
</g>
<!-- Node16 -->
<g id="node16" class="node">
<title>Node16</title>
<g id="a_node16"><a xlink:href="utils_2structures_8h.html" target="_top" xlink:title="Various utility&#45; and helper&#45;functions for secondary structure parsing, converting,...">
<polygon fill="white" stroke="#666666" points="144,-79.5 0,-79.5 0,-60.5 144,-60.5 144,-79.5"/>
<text text-anchor="middle" x="72" y="-67.5" font-family="Helvetica,sans-Serif" font-size="10.00">ViennaRNA/utils/structures.h</text>
</a>
</g>
</g>
<!-- Node2&#45;&gt;Node16 -->
<g id="edge42" class="edge">
<title>Node2&#45;&gt;Node16</title>
<path fill="none" stroke="#63b8ff" d="M528.52,-250.4C406.2,-238.59 154.92,-207.43 91,-151 73.87,-135.88 67.22,-109.68 66.65,-91.39"/>
<polygon fill="#63b8ff" stroke="#63b8ff" points="70.14,-91.66 67.13,-81.51 63.15,-91.32 70.14,-91.66"/>
</g>
<!-- Node4 -->
<g id="node4" class="node">
<title>Node4</title>
<g id="a_node4"><a xlink:title=" ">
<polygon fill="#e0e0e0" stroke="#999999" points="1325,-19 1277,-19 1277,0 1325,0 1325,-19"/>
<text text-anchor="middle" x="1301" y="-7" font-family="Helvetica,sans-Serif" font-size="10.00">limits.h</text>
</a>
</g>
</g>
<!-- Node3&#45;&gt;Node4 -->
<g id="edge3" class="edge">
<title>Node3&#45;&gt;Node4</title>
<path fill="none" stroke="#63b8ff" d="M1301,-60.37C1301,-52.5 1301,-40.6 1301,-30.39"/>
<polygon fill="#63b8ff" stroke="#63b8ff" points="1304.5,-30.68 1301,-20.68 1297.5,-30.68 1304.5,-30.68"/>
</g>
<!-- Node5&#45;&gt;Node6 -->
<g id="edge5" class="edge">
<title>Node5&#45;&gt;Node6</title>
<path fill="none" stroke="#63b8ff" d="M808.18,-188.87C908.9,-179.43 1080.94,-162.04 1108,-151 1128.25,-142.74 1126.87,-129.55 1147,-121 1247.08,-78.49 1282.11,-104.99 1389,-85 1393.33,-84.19 1397.82,-83.29 1402.31,-82.35"/>
<polygon fill="#63b8ff" stroke="#63b8ff" points="1402.87,-85.81 1411.91,-80.28 1401.4,-78.97 1402.87,-85.81"/>
</g>
<!-- Node5&#45;&gt;Node7 -->
<g id="edge6" class="edge">
<title>Node5&#45;&gt;Node7</title>
<path fill="none" stroke="#63b8ff" d="M808.24,-190.02C911.85,-182.44 1106.87,-167.78 1273,-151 1287.31,-149.55 1302.6,-147.84 1317.41,-146.11"/>
<polygon fill="#63b8ff" stroke="#63b8ff" points="1317.6,-149.61 1327.12,-144.96 1316.78,-142.66 1317.6,-149.61"/>
</g>
<!-- Node8 -->
<g id="node8" class="node">
<title>Node8</title>
<g id="a_node8"><a xlink:href="sequence_8h.html" target="_top" xlink:title="Functions and data structures related to sequence representations ,.">
<polygon fill="white" stroke="#666666" points="971,-145.5 849,-145.5 849,-126.5 971,-126.5 971,-145.5"/>
<text text-anchor="middle" x="910" y="-133.5" font-family="Helvetica,sans-Serif" font-size="10.00">ViennaRNA/sequence.h</text>
</a>
</g>
</g>
<!-- Node5&#45;&gt;Node8 -->
<g id="edge11" class="edge">
<title>Node5&#45;&gt;Node8</title>
<path fill="none" stroke="#63b8ff" d="M756.57,-186.62C784.16,-176.69 832.2,-160.57 867.26,-149.4"/>
<polygon fill="#63b8ff" stroke="#63b8ff" points="868.22,-152.77 876.7,-146.42 866.11,-146.1 868.22,-152.77"/>
</g>
<!-- Node5&#45;&gt;Node9 -->
<g id="edge13" class="edge">
<title>Node5&#45;&gt;Node9</title>
<path fill="none" stroke="#63b8ff" d="M687.3,-186.55C636.34,-176.32 556.15,-159.53 504.79,-148.38"/>
<polygon fill="#63b8ff" stroke="#63b8ff" points="505.65,-144.98 495.13,-146.27 504.15,-151.82 505.65,-144.98"/>
</g>
<!-- Node5&#45;&gt;Node10 -->
<g id="edge16" class="edge">
<title>Node5&#45;&gt;Node10</title>
<path fill="none" stroke="#63b8ff" d="M729.75,-186.87C728.13,-180.4 727.23,-171.2 727.17,-162.45"/>
<polygon fill="#63b8ff" stroke="#63b8ff" points="730.66,-162.76 727.55,-152.63 723.67,-162.48 730.66,-162.76"/>
</g>
<!-- Node5&#45;&gt;Node12 -->
<g id="edge20" class="edge">
<title>Node5&#45;&gt;Node12</title>
<path fill="none" stroke="#63b8ff" d="M661.7,-188.72C590.8,-181.39 480.3,-168.61 383.06,-152.97"/>
<polygon fill="#63b8ff" stroke="#63b8ff" points="383.81,-149.54 373.37,-151.39 382.68,-156.45 383.81,-149.54"/>
</g>
<!-- Node5&#45;&gt;Node13 -->
<g id="edge24" class="edge">
<title>Node5&#45;&gt;Node13</title>
<path fill="none" stroke="#63b8ff" d="M808.21,-188.65C888.04,-181.17 1019.28,-167.96 1132,-151 1137.98,-150.1 1144.22,-149.06 1150.48,-147.96"/>
<polygon fill="#63b8ff" stroke="#63b8ff" points="1150.99,-151.43 1160.22,-146.21 1149.75,-144.54 1150.99,-151.43"/>
</g>
<!-- Node5&#45;&gt;Node14 -->
<g id="edge26" class="edge">
<title>Node5&#45;&gt;Node14</title>
<path fill="none" stroke="#63b8ff" d="M714.19,-186.62C695.15,-178.48 666.35,-166.19 642.19,-155.87"/>
<polygon fill="#63b8ff" stroke="#63b8ff" points="643.78,-152.74 633.21,-152.03 641.03,-159.18 643.78,-152.74"/>
</g>
<!-- Node5&#45;&gt;Node15 -->
<g id="edge27" class="edge">
<title>Node5&#45;&gt;Node15</title>
<path fill="none" stroke="#63b8ff" d="M661.51,-191.63C566.03,-185.84 394.25,-173.32 245.97,-152.69"/>
<polygon fill="#63b8ff" stroke="#63b8ff" points="246.77,-149.27 236.38,-151.34 245.8,-156.2 246.77,-149.27"/>
</g>
<!-- Node18 -->
<g id="node18" class="node">
<title>Node18</title>
<g id="a_node18"><a xlink:href="zscore_8h_source.html" target="_top" xlink:title=" ">
<polygon fill="white" stroke="#666666" points="1098.5,-145.5 989.5,-145.5 989.5,-126.5 1098.5,-126.5 1098.5,-145.5"/>
<text text-anchor="middle" x="1044" y="-133.5" font-family="Helvetica,sans-Serif" font-size="10.00">ViennaRNA/zscore.h</text>
</a>
</g>
</g>
<!-- Node5&#45;&gt;Node18 -->
<g id="edge33" class="edge">
<title>Node5&#45;&gt;Node18</title>
<path fill="none" stroke="#63b8ff" d="M787.2,-186.58C836.87,-177.95 913.66,-164.28 980,-151 984.27,-150.15 988.69,-149.23 993.13,-148.3"/>
<polygon fill="#63b8ff" stroke="#63b8ff" points="993.57,-151.78 1002.62,-146.27 992.11,-144.94 993.57,-151.78"/>
</g>
<!-- Node7&#45;&gt;Node2 -->
<g id="edge8" class="edge">
<title>Node7&#45;&gt;Node2</title>
<path fill="none" stroke="#63b8ff" d="M1396.2,-145.75C1386.76,-161.16 1357.04,-192.74 1324,-206 1208.46,-252.35 838.17,-256.85 674.71,-256.56"/>
<polygon fill="#63b8ff" stroke="#63b8ff" points="674.83,-253.06 664.82,-256.54 674.81,-260.06 674.83,-253.06"/>
</g>
<!-- Node7&#45;&gt;Node3 -->
<g id="edge7" class="edge">
<title>Node7&#45;&gt;Node3</title>
<path fill="none" stroke="#63b8ff" d="M1384.51,-126.1C1368.8,-115.74 1342.6,-98.45 1323.73,-86"/>
<polygon fill="#63b8ff" stroke="#63b8ff" points="1325.91,-83.24 1315.64,-80.66 1322.06,-89.09 1325.91,-83.24"/>
</g>
<!-- Node7&#45;&gt;Node5 -->
<g id="edge9" class="edge">
<title>Node7&#45;&gt;Node5</title>
<path fill="none" stroke="#63b8ff" d="M1335.99,-145.99C1321.28,-147.76 1305.63,-149.52 1291,-151 1124.37,-167.83 928.67,-182.53 819.47,-190.09"/>
<polygon fill="#63b8ff" stroke="#63b8ff" points="819.46,-186.58 809.72,-190.76 819.94,-193.56 819.46,-186.58"/>
</g>
<!-- Node7&#45;&gt;Node6 -->
<g id="edge10" class="edge">
<title>Node7&#45;&gt;Node6</title>
<path fill="none" stroke="#63b8ff" d="M1405.37,-126.1C1413.36,-116.45 1426.32,-100.81 1436.39,-88.65"/>
<polygon fill="#63b8ff" stroke="#63b8ff" points="1439.05,-90.92 1442.73,-80.99 1433.65,-86.46 1439.05,-90.92"/>
</g>
<!-- Node8&#45;&gt;Node5 -->
<g id="edge12" class="edge">
<title>Node8&#45;&gt;Node5</title>
<path fill="none" stroke="#63b8ff" d="M888.2,-145.97C860.49,-155.92 812.44,-172.06 777.45,-183.19"/>
<polygon fill="#63b8ff" stroke="#63b8ff" points="776.52,-179.81 768.03,-186.16 778.62,-186.49 776.52,-179.81"/>
</g>
<!-- Node9&#45;&gt;Node2 -->
<g id="edge14" class="edge">
<title>Node9&#45;&gt;Node2</title>
<path fill="none" stroke="#63b8ff" d="M469.98,-145.71C495.08,-164.18 546.86,-207.73 575.77,-234.25"/>
<polygon fill="#63b8ff" stroke="#63b8ff" points="573.14,-236.58 582.84,-240.85 577.92,-231.47 573.14,-236.58"/>
</g>
<!-- Node9&#45;&gt;Node5 -->
<g id="edge15" class="edge">
<title>Node9&#45;&gt;Node5</title>
<path fill="none" stroke="#63b8ff" d="M503.7,-145.95C554.65,-156.18 634.84,-172.97 686.21,-184.12"/>
<polygon fill="#63b8ff" stroke="#63b8ff" points="685.35,-187.52 695.87,-186.23 686.84,-180.68 685.35,-187.52"/>
</g>
<!-- Node10&#45;&gt;Node5 -->
<g id="edge17" class="edge">
<title>Node10&#45;&gt;Node5</title>
<path fill="none" stroke="#63b8ff" d="M739.35,-151.11C740.54,-158.43 741.04,-167.49 740.76,-175.51"/>
<polygon fill="#63b8ff" stroke="#63b8ff" points="737.28,-175.07 739.81,-185.36 744.25,-175.74 737.28,-175.07"/>
</g>
<!-- Node11 -->
<g id="node11" class="node">
<title>Node11</title>
<g id="a_node11"><a xlink:href="constraints_2basic_8h.html" target="_top" xlink:title="Functions and data structures for constraining secondary structure predictions and evaluation.">
<polygon fill="white" stroke="#666666" points="792.5,-85 673.5,-85 673.5,-55 792.5,-55 792.5,-85"/>
<text text-anchor="start" x="681.5" y="-73" font-family="Helvetica,sans-Serif" font-size="10.00">ViennaRNA/constraints</text>
<text text-anchor="middle" x="733" y="-62" font-family="Helvetica,sans-Serif" font-size="10.00">/basic.h</text>
</a>
</g>
</g>
<!-- Node10&#45;&gt;Node11 -->
<g id="edge18" class="edge">
<title>Node10&#45;&gt;Node11</title>
<path fill="none" stroke="#63b8ff" d="M733,-120.8C733,-113.67 733,-104.82 733,-96.56"/>
<polygon fill="#63b8ff" stroke="#63b8ff" points="736.5,-96.68 733,-86.68 729.5,-96.68 736.5,-96.68"/>
</g>
<!-- Node11&#45;&gt;Node5 -->
<g id="edge19" class="edge">
<title>Node11&#45;&gt;Node5</title>
<path fill="none" stroke="#63b8ff" d="M764.17,-85.47C778.14,-93.74 793.19,-105.57 801,-121 807.02,-132.9 807.26,-139.23 801,-151 793.93,-164.29 780.94,-174.32 768.34,-181.47"/>
<polygon fill="#63b8ff" stroke="#63b8ff" points="767.05,-178.19 759.78,-185.89 770.27,-184.41 767.05,-178.19"/>
</g>
<!-- Node12&#45;&gt;Node2 -->
<g id="edge21" class="edge">
<title>Node12&#45;&gt;Node2</title>
<path fill="none" stroke="#63b8ff" d="M350.89,-151.37C404.72,-172.8 501.18,-213.15 555.73,-236.99"/>
<polygon fill="#63b8ff" stroke="#63b8ff" points="554.11,-240.1 564.67,-240.92 556.93,-233.69 554.11,-240.1"/>
</g>
<!-- Node12&#45;&gt;Node5 -->
<g id="edge22" class="edge">
<title>Node12&#45;&gt;Node5</title>
<path fill="none" stroke="#63b8ff" d="M371.73,-147.91C377.58,-149.02 383.41,-150.08 389,-151 477.96,-165.71 580.18,-178.05 650.38,-185.97"/>
<polygon fill="#63b8ff" stroke="#63b8ff" points="649.97,-189.45 660.29,-187.08 650.75,-182.49 649.97,-189.45"/>
</g>
<!-- Node12&#45;&gt;Node11 -->
<g id="edge23" class="edge">
<title>Node12&#45;&gt;Node11</title>
<path fill="none" stroke="#63b8ff" d="M371.66,-122.5C374.48,-121.98 377.27,-121.47 380,-121 477.4,-104.09 590.65,-88.82 662.08,-79.72"/>
<polygon fill="#63b8ff" stroke="#63b8ff" points="662.19,-83.24 671.67,-78.51 661.31,-76.29 662.19,-83.24"/>
</g>
<!-- Node13&#45;&gt;Node5 -->
<g id="edge25" class="edge">
<title>Node13&#45;&gt;Node5</title>
<path fill="none" stroke="#63b8ff" d="M1179.25,-145.94C1169.8,-147.76 1159.57,-149.56 1150,-151 1036.37,-168.09 903.91,-181.38 819.71,-188.83"/>
<polygon fill="#63b8ff" stroke="#63b8ff" points="819.58,-185.32 809.92,-189.68 820.19,-192.3 819.58,-185.32"/>
</g>
<!-- Node15&#45;&gt;Node2 -->
<g id="edge28" class="edge">
<title>Node15&#45;&gt;Node2</title>
<path fill="none" stroke="#63b8ff" d="M228.14,-151.46C308.83,-173.34 456.62,-214.79 538.21,-238.39"/>
<polygon fill="#63b8ff" stroke="#63b8ff" points="537,-241.68 547.58,-241.11 538.95,-234.96 537,-241.68"/>
</g>
<!-- Node15&#45;&gt;Node5 -->
<g id="edge29" class="edge">
<title>Node15&#45;&gt;Node5</title>
<path fill="none" stroke="#63b8ff" d="M234.74,-148.22C240.58,-149.24 246.4,-150.2 252,-151 391.09,-170.95 553.67,-183.59 650.34,-190.11"/>
<polygon fill="#63b8ff" stroke="#63b8ff" points="650.08,-193.6 660.29,-190.77 650.54,-186.61 650.08,-193.6"/>
</g>
<!-- Node15&#45;&gt;Node16 -->
<g id="edge30" class="edge">
<title>Node15&#45;&gt;Node16</title>
<path fill="none" stroke="#63b8ff" d="M149.81,-120.8C133.61,-110.43 111.69,-96.4 95.25,-85.88"/>
<polygon fill="#63b8ff" stroke="#63b8ff" points="97.4,-83.1 87.09,-80.66 93.63,-89 97.4,-83.1"/>
</g>
<!-- Node16&#45;&gt;Node2 -->
<g id="edge32" class="edge">
<title>Node16&#45;&gt;Node2</title>
<path fill="none" stroke="#63b8ff" d="M77.61,-79.99C82.66,-96.65 87.82,-132.3 109,-151 169.23,-204.17 395.77,-234.9 517.55,-248.16"/>
<polygon fill="#63b8ff" stroke="#63b8ff" points="516.82,-251.6 527.14,-249.19 517.57,-244.64 516.82,-251.6"/>
</g>
<!-- Node17 -->
<g id="node17" class="node">
<title>Node17</title>
<g id="a_node17"><a xlink:title=" ">
<polygon fill="#e0e0e0" stroke="#999999" points="95,-19 49,-19 49,0 95,0 95,-19"/>
<text text-anchor="middle" x="72" y="-7" font-family="Helvetica,sans-Serif" font-size="10.00">stdio.h</text>
</a>
</g>
</g>
<!-- Node16&#45;&gt;Node17 -->
<g id="edge31" class="edge">
<title>Node16&#45;&gt;Node17</title>
<path fill="none" stroke="#63b8ff" d="M72,-60.37C72,-52.5 72,-40.6 72,-30.39"/>
<polygon fill="#63b8ff" stroke="#63b8ff" points="75.5,-30.68 72,-20.68 68.5,-30.68 75.5,-30.68"/>
</g>
</g>
</svg>
