<?xml version="1.0" encoding="UTF-8" standalone="no"?>
<!DOCTYPE svg PUBLIC "-//W3C//DTD SVG 1.1//EN"
 "http://www.w3.org/Graphics/SVG/1.1/DTD/svg11.dtd">
<!-- Generated by graphviz version 7.1.0 (0)
 -->
<!-- Title: ViennaRNA/file_utils.h Pages: 1 -->
<svg width="124pt" height="137pt"
 viewBox="0.00 0.00 124.00 137.00" xmlns="http://www.w3.org/2000/svg" xmlns:xlink="http://www.w3.org/1999/xlink">
<g id="graph0" class="graph" transform="scale(1 1) rotate(0) translate(4 133)">
<title>ViennaRNA/file_utils.h</title>
<!-- Node1 -->
<g id="node1" class="node">
<title>Node1</title>
<g id="a_node1"><a xlink:title="Use ViennaRNA/io/utils.h instead.">
<polygon fill="#999999" stroke="#666666" points="116,-129 0,-129 0,-110 116,-110 116,-129"/>
<text text-anchor="middle" x="58" y="-117" font-family="Helvetica,sans-Serif" font-size="10.00">ViennaRNA/file_utils.h</text>
</a>
</g>
</g>
<!-- Node2 -->
<g id="node2" class="node">
<title>Node2</title>
<g id="a_node2"><a xlink:href="io_2utils_8h.html" target="_top" xlink:title="Several utilities for file handling.">
<polygon fill="white" stroke="#666666" points="112,-74 4,-74 4,-55 112,-55 112,-74"/>
<text text-anchor="middle" x="58" y="-62" font-family="Helvetica,sans-Serif" font-size="10.00">ViennaRNA/io/utils.h</text>
</a>
</g>
</g>
<!-- Node1&#45;&gt;Node2 -->
<g id="edge1" class="edge">
<title>Node1&#45;&gt;Node2</title>
<path fill="none" stroke="#63b8ff" d="M58,-109.75C58,-103.27 58,-94.16 58,-85.9"/>
<polygon fill="#63b8ff" stroke="#63b8ff" points="61.5,-85.96 58,-75.96 54.5,-85.96 61.5,-85.96"/>
</g>
<!-- Node3 -->
<g id="node3" class="node">
<title>Node3</title>
<g id="a_node3"><a xlink:title=" ">
<polygon fill="#e0e0e0" stroke="#999999" points="81,-19 35,-19 35,0 81,0 81,-19"/>
<text text-anchor="middle" x="58" y="-7" font-family="Helvetica,sans-Serif" font-size="10.00">stdio.h</text>
</a>
</g>
</g>
<!-- Node2&#45;&gt;Node3 -->
<g id="edge2" class="edge">
<title>Node2&#45;&gt;Node3</title>
<path fill="none" stroke="#63b8ff" d="M58,-54.75C58,-48.27 58,-39.16 58,-30.9"/>
<polygon fill="#63b8ff" stroke="#63b8ff" points="61.5,-30.96 58,-20.96 54.5,-30.96 61.5,-30.96"/>
</g>
</g>
</svg>
