<?xml version="1.0" encoding="UTF-8" standalone="no"?>
<!DOCTYPE svg PUBLIC "-//W3C//DTD SVG 1.1//EN"
 "http://www.w3.org/Graphics/SVG/1.1/DTD/svg11.dtd">
<!-- Generated by graphviz version 7.1.0 (0)
 -->
<!-- Title: ViennaRNA/file_formats_msa.h Pages: 1 -->
<svg width="141pt" height="159pt"
 viewBox="0.00 0.00 141.00 159.00" xmlns="http://www.w3.org/2000/svg" xmlns:xlink="http://www.w3.org/1999/xlink">
<g id="graph0" class="graph" transform="scale(1 1) rotate(0) translate(4 155)">
<title>ViennaRNA/file_formats_msa.h</title>
<!-- Node1 -->
<g id="node1" class="node">
<title>Node1</title>
<g id="a_node1"><a xlink:title="Use ViennaRNA/io/file_formats_msa.h instead.">
<polygon fill="#999999" stroke="#666666" points="127.5,-151 5.5,-151 5.5,-121 127.5,-121 127.5,-151"/>
<text text-anchor="start" x="13.5" y="-139" font-family="Helvetica,sans-Serif" font-size="10.00">ViennaRNA/file_formats</text>
<text text-anchor="middle" x="66.5" y="-128" font-family="Helvetica,sans-Serif" font-size="10.00">_msa.h</text>
</a>
</g>
</g>
<!-- Node2 -->
<g id="node2" class="node">
<title>Node2</title>
<g id="a_node2"><a xlink:href="io_2file__formats__msa_8h.html" target="_top" xlink:title="Functions dealing with file formats for Multiple Sequence Alignments (MSA)">
<polygon fill="white" stroke="#666666" points="133,-85 0,-85 0,-55 133,-55 133,-85"/>
<text text-anchor="start" x="8" y="-73" font-family="Helvetica,sans-Serif" font-size="10.00">ViennaRNA/io/file_formats</text>
<text text-anchor="middle" x="66.5" y="-62" font-family="Helvetica,sans-Serif" font-size="10.00">_msa.h</text>
</a>
</g>
</g>
<!-- Node1&#45;&gt;Node2 -->
<g id="edge1" class="edge">
<title>Node1&#45;&gt;Node2</title>
<path fill="none" stroke="#63b8ff" d="M66.5,-120.8C66.5,-113.67 66.5,-104.82 66.5,-96.56"/>
<polygon fill="#63b8ff" stroke="#63b8ff" points="70,-96.68 66.5,-86.68 63,-96.68 70,-96.68"/>
</g>
<!-- Node3 -->
<g id="node3" class="node">
<title>Node3</title>
<g id="a_node3"><a xlink:title=" ">
<polygon fill="#e0e0e0" stroke="#999999" points="89.5,-19 43.5,-19 43.5,0 89.5,0 89.5,-19"/>
<text text-anchor="middle" x="66.5" y="-7" font-family="Helvetica,sans-Serif" font-size="10.00">stdio.h</text>
</a>
</g>
</g>
<!-- Node2&#45;&gt;Node3 -->
<g id="edge2" class="edge">
<title>Node2&#45;&gt;Node3</title>
<path fill="none" stroke="#63b8ff" d="M66.5,-54.54C66.5,-47.34 66.5,-38.53 66.5,-30.68"/>
<polygon fill="#63b8ff" stroke="#63b8ff" points="70,-30.69 66.5,-20.69 63,-30.69 70,-30.69"/>
</g>
</g>
</svg>
