<?xml version="1.0" encoding="UTF-8" standalone="no"?>
<!DOCTYPE svg PUBLIC "-//W3C//DTD SVG 1.1//EN"
 "http://www.w3.org/Graphics/SVG/1.1/DTD/svg11.dtd">
<!-- Generated by graphviz version 7.1.0 (0)
 -->
<!-- Title: ViennaRNA/file_formats.h Pages: 1 -->
<svg width="1676pt" height="390pt"
 viewBox="0.00 0.00 1676.00 390.00" xmlns="http://www.w3.org/2000/svg" xmlns:xlink="http://www.w3.org/1999/xlink">
<g id="graph0" class="graph" transform="scale(1 1) rotate(0) translate(4 386)">
<title>ViennaRNA/file_formats.h</title>
<!-- Node1 -->
<g id="node1" class="node">
<title>Node1</title>
<g id="a_node1"><a xlink:title="Use ViennaRNA/io/file_formats.h instead.">
<polygon fill="#999999" stroke="#666666" points="1617,-382 1486,-382 1486,-363 1617,-363 1617,-382"/>
<text text-anchor="middle" x="1551.5" y="-370" font-family="Helvetica,sans-Serif" font-size="10.00">ViennaRNA/file_formats.h</text>
</a>
</g>
</g>
<!-- Node2 -->
<g id="node2" class="node">
<title>Node2</title>
<g id="a_node2"><a xlink:href="io_2file__formats_8h.html" target="_top" xlink:title="Read and write different file formats for RNA sequences, structures.">
<polygon fill="white" stroke="#666666" points="1573,-327 1432,-327 1432,-308 1573,-308 1573,-327"/>
<text text-anchor="middle" x="1502.5" y="-315" font-family="Helvetica,sans-Serif" font-size="10.00">ViennaRNA/io/file_formats.h</text>
</a>
</g>
</g>
<!-- Node1&#45;&gt;Node2 -->
<g id="edge1" class="edge">
<title>Node1&#45;&gt;Node2</title>
<path fill="none" stroke="#63b8ff" d="M1543.41,-362.75C1536.64,-355.43 1526.78,-344.76 1518.44,-335.74"/>
<polygon fill="#63b8ff" stroke="#63b8ff" points="1521.15,-333.52 1511.79,-328.55 1516.01,-338.27 1521.15,-333.52"/>
</g>
<!-- Node20 -->
<g id="node20" class="node">
<title>Node20</title>
<g id="a_node20"><a xlink:href="io_2file__formats__msa_8h.html" target="_top" xlink:title="Functions dealing with file formats for Multiple Sequence Alignments (MSA)">
<polygon fill="white" stroke="#666666" points="1668,-272 1535,-272 1535,-242 1668,-242 1668,-272"/>
<text text-anchor="start" x="1543" y="-260" font-family="Helvetica,sans-Serif" font-size="10.00">ViennaRNA/io/file_formats</text>
<text text-anchor="middle" x="1601.5" y="-249" font-family="Helvetica,sans-Serif" font-size="10.00">_msa.h</text>
</a>
</g>
</g>
<!-- Node1&#45;&gt;Node20 -->
<g id="edge45" class="edge">
<title>Node1&#45;&gt;Node20</title>
<path fill="none" stroke="#63b8ff" d="M1558.58,-362.79C1565.3,-354.16 1575.26,-340.33 1581.5,-327 1587.93,-313.25 1592.77,-296.97 1596.08,-283.68"/>
<polygon fill="#63b8ff" stroke="#63b8ff" points="1599.48,-284.48 1598.34,-273.95 1592.67,-282.9 1599.48,-284.48"/>
</g>
<!-- Node3 -->
<g id="node3" class="node">
<title>Node3</title>
<g id="a_node3"><a xlink:title=" ">
<polygon fill="#e0e0e0" stroke="#999999" points="1529.5,-19 1483.5,-19 1483.5,0 1529.5,0 1529.5,-19"/>
<text text-anchor="middle" x="1506.5" y="-7" font-family="Helvetica,sans-Serif" font-size="10.00">stdio.h</text>
</a>
</g>
</g>
<!-- Node2&#45;&gt;Node3 -->
<g id="edge2" class="edge">
<title>Node2&#45;&gt;Node3</title>
<path fill="none" stroke="#63b8ff" d="M1503.01,-307.55C1504.08,-287.73 1506.5,-238.64 1506.5,-197.5 1506.5,-197.5 1506.5,-197.5 1506.5,-135 1506.5,-98.17 1506.5,-55.22 1506.5,-30.61"/>
<polygon fill="#63b8ff" stroke="#63b8ff" points="1510,-30.77 1506.5,-20.77 1503,-30.77 1510,-30.77"/>
</g>
<!-- Node4 -->
<g id="node4" class="node">
<title>Node4</title>
<g id="a_node4"><a xlink:href="datastructures_2basic_8h.html" target="_top" xlink:title="Various data structures and pre&#45;processor macros.">
<polygon fill="white" stroke="#666666" points="1115.5,-272 981.5,-272 981.5,-242 1115.5,-242 1115.5,-272"/>
<text text-anchor="start" x="989.5" y="-260" font-family="Helvetica,sans-Serif" font-size="10.00">ViennaRNA/datastructures</text>
<text text-anchor="middle" x="1048.5" y="-249" font-family="Helvetica,sans-Serif" font-size="10.00">/basic.h</text>
</a>
</g>
</g>
<!-- Node2&#45;&gt;Node4 -->
<g id="edge3" class="edge">
<title>Node2&#45;&gt;Node4</title>
<path fill="none" stroke="#63b8ff" d="M1433.05,-307.55C1350.56,-296.92 1213.3,-279.24 1127.02,-268.12"/>
<polygon fill="#63b8ff" stroke="#63b8ff" points="1127.58,-264.66 1117.22,-266.85 1126.69,-271.6 1127.58,-264.66"/>
</g>
<!-- Node5 -->
<g id="node5" class="node">
<title>Node5</title>
<g id="a_node5"><a xlink:href="constants_8h.html" target="_top" xlink:title="Energy parameter constants.">
<polygon fill="white" stroke="#666666" points="1310.5,-79.5 1152.5,-79.5 1152.5,-60.5 1310.5,-60.5 1310.5,-79.5"/>
<text text-anchor="middle" x="1231.5" y="-67.5" font-family="Helvetica,sans-Serif" font-size="10.00">ViennaRNA/params/constants.h</text>
</a>
</g>
</g>
<!-- Node4&#45;&gt;Node5 -->
<g id="edge4" class="edge">
<title>Node4&#45;&gt;Node5</title>
<path fill="none" stroke="#63b8ff" d="M1115.78,-255.33C1190.92,-250.52 1309.45,-229.92 1366.5,-151 1391.18,-116.87 1336.81,-94.78 1289.87,-82.64"/>
<polygon fill="#63b8ff" stroke="#63b8ff" points="1290.79,-79.26 1280.24,-80.28 1289.12,-86.06 1290.79,-79.26"/>
</g>
<!-- Node7 -->
<g id="node7" class="node">
<title>Node7</title>
<g id="a_node7"><a xlink:href="fold__compound_8h.html" target="_top" xlink:title="The Basic Fold Compound API.">
<polygon fill="white" stroke="#666666" points="763.5,-206 617.5,-206 617.5,-187 763.5,-187 763.5,-206"/>
<text text-anchor="middle" x="690.5" y="-194" font-family="Helvetica,sans-Serif" font-size="10.00">ViennaRNA/fold_compound.h</text>
</a>
</g>
</g>
<!-- Node4&#45;&gt;Node7 -->
<g id="edge6" class="edge">
<title>Node4&#45;&gt;Node7</title>
<path fill="none" stroke="#63b8ff" d="M981.16,-245C916.87,-234.49 820.57,-218.75 756.66,-208.31"/>
<polygon fill="#63b8ff" stroke="#63b8ff" points="757.44,-204.89 747.01,-206.73 756.32,-211.8 757.44,-204.89"/>
</g>
<!-- Node8 -->
<g id="node8" class="node">
<title>Node8</title>
<g id="a_node8"><a xlink:href="model_8h.html" target="_top" xlink:title="The model details data structure and its corresponding modifiers.">
<polygon fill="white" stroke="#666666" points="1101.5,-79.5 995.5,-79.5 995.5,-60.5 1101.5,-60.5 1101.5,-79.5"/>
<text text-anchor="middle" x="1048.5" y="-67.5" font-family="Helvetica,sans-Serif" font-size="10.00">ViennaRNA/model.h</text>
</a>
</g>
</g>
<!-- Node4&#45;&gt;Node8 -->
<g id="edge36" class="edge">
<title>Node4&#45;&gt;Node8</title>
<path fill="none" stroke="#63b8ff" d="M1048.5,-241.79C1048.5,-209.25 1048.5,-129.21 1048.5,-91.4"/>
<polygon fill="#63b8ff" stroke="#63b8ff" points="1052,-91.45 1048.5,-81.45 1045,-91.45 1052,-91.45"/>
</g>
<!-- Node9 -->
<g id="node9" class="node">
<title>Node9</title>
<g id="a_node9"><a xlink:href="params_2basic_8h.html" target="_top" xlink:title="Functions to deal with sets of energy parameters.">
<polygon fill="white" stroke="#666666" points="1214.5,-145.5 1076.5,-145.5 1076.5,-126.5 1214.5,-126.5 1214.5,-145.5"/>
<text text-anchor="middle" x="1145.5" y="-133.5" font-family="Helvetica,sans-Serif" font-size="10.00">ViennaRNA/params/basic.h</text>
</a>
</g>
</g>
<!-- Node4&#45;&gt;Node9 -->
<g id="edge37" class="edge">
<title>Node4&#45;&gt;Node9</title>
<path fill="none" stroke="#63b8ff" d="M1055.45,-241.88C1070.61,-219.83 1105.18,-177.29 1127,-153.73"/>
<polygon fill="#63b8ff" stroke="#63b8ff" points="1129.24,-156.45 1133.62,-146.8 1124.18,-151.61 1129.24,-156.45"/>
</g>
<!-- Node11 -->
<g id="node11" class="node">
<title>Node11</title>
<g id="a_node11"><a xlink:href="dp__matrices_8h.html" target="_top" xlink:title="Functions to deal with standard dynamic programming (DP) matrices.">
<polygon fill="white" stroke="#666666" points="270,-145.5 137,-145.5 137,-126.5 270,-126.5 270,-145.5"/>
<text text-anchor="middle" x="203.5" y="-133.5" font-family="Helvetica,sans-Serif" font-size="10.00">ViennaRNA/dp_matrices.h</text>
</a>
</g>
</g>
<!-- Node4&#45;&gt;Node11 -->
<g id="edge38" class="edge">
<title>Node4&#45;&gt;Node11</title>
<path fill="none" stroke="#63b8ff" d="M981.36,-252.44C879.98,-246.24 682.37,-231.61 516.5,-206 417.5,-190.71 303.19,-164.03 243.78,-148.71"/>
<polygon fill="#63b8ff" stroke="#63b8ff" points="245.02,-145.42 234.46,-146.28 243.25,-152.19 245.02,-145.42"/>
</g>
<!-- Node12 -->
<g id="node12" class="node">
<title>Node12</title>
<g id="a_node12"><a xlink:href="hard_8h.html" target="_top" xlink:title="Functions and data structures for handling of secondary structure hard constraints.">
<polygon fill="white" stroke="#666666" points="407,-151 288,-151 288,-121 407,-121 407,-151"/>
<text text-anchor="start" x="296" y="-139" font-family="Helvetica,sans-Serif" font-size="10.00">ViennaRNA/constraints</text>
<text text-anchor="middle" x="347.5" y="-128" font-family="Helvetica,sans-Serif" font-size="10.00">/hard.h</text>
</a>
</g>
</g>
<!-- Node4&#45;&gt;Node12 -->
<g id="edge39" class="edge">
<title>Node4&#45;&gt;Node12</title>
<path fill="none" stroke="#63b8ff" d="M981.33,-251.42C894.65,-244.81 739.4,-230.61 608.5,-206 537.33,-192.62 456.99,-170.26 404.48,-154.63"/>
<polygon fill="#63b8ff" stroke="#63b8ff" points="405.74,-151.35 395.16,-151.83 403.73,-158.06 405.74,-151.35"/>
</g>
<!-- Node14 -->
<g id="node14" class="node">
<title>Node14</title>
<g id="a_node14"><a xlink:href="soft_8h.html" target="_top" xlink:title="Functions and data structures for secondary structure soft constraints.">
<polygon fill="white" stroke="#666666" points="119,-151 0,-151 0,-121 119,-121 119,-151"/>
<text text-anchor="start" x="8" y="-139" font-family="Helvetica,sans-Serif" font-size="10.00">ViennaRNA/constraints</text>
<text text-anchor="middle" x="59.5" y="-128" font-family="Helvetica,sans-Serif" font-size="10.00">/soft.h</text>
</a>
</g>
</g>
<!-- Node4&#45;&gt;Node14 -->
<g id="edge40" class="edge">
<title>Node4&#45;&gt;Node14</title>
<path fill="none" stroke="#63b8ff" d="M981.42,-253.17C865.42,-247.54 620.48,-233.12 415.5,-206 314.91,-192.69 200.1,-169.68 128.63,-153.92"/>
<polygon fill="#63b8ff" stroke="#63b8ff" points="129.54,-150.53 119.02,-151.78 128.02,-157.37 129.54,-150.53"/>
</g>
<!-- Node15 -->
<g id="node15" class="node">
<title>Node15</title>
<g id="a_node15"><a xlink:href="grammar_8h.html" target="_top" xlink:title="Implementations for the RNA folding grammar.">
<polygon fill="white" stroke="#666666" points="887,-145.5 770,-145.5 770,-126.5 887,-126.5 887,-145.5"/>
<text text-anchor="middle" x="828.5" y="-133.5" font-family="Helvetica,sans-Serif" font-size="10.00">ViennaRNA/grammar.h</text>
</a>
</g>
</g>
<!-- Node4&#45;&gt;Node15 -->
<g id="edge41" class="edge">
<title>Node4&#45;&gt;Node15</title>
<path fill="none" stroke="#63b8ff" d="M1021.96,-241.65C979.7,-218.79 897.56,-174.36 855.2,-151.44"/>
<polygon fill="#63b8ff" stroke="#63b8ff" points="856.88,-148.37 846.42,-146.69 853.55,-154.53 856.88,-148.37"/>
</g>
<!-- Node16 -->
<g id="node16" class="node">
<title>Node16</title>
<g id="a_node16"><a xlink:href="structured__domains_8h.html" target="_top" xlink:title="This module provides interfaces that deal with additional structured domains in the folding grammar.">
<polygon fill="white" stroke="#666666" points="1020,-151 905,-151 905,-121 1020,-121 1020,-151"/>
<text text-anchor="start" x="913" y="-139" font-family="Helvetica,sans-Serif" font-size="10.00">ViennaRNA/structured</text>
<text text-anchor="middle" x="962.5" y="-128" font-family="Helvetica,sans-Serif" font-size="10.00">_domains.h</text>
</a>
</g>
</g>
<!-- Node4&#45;&gt;Node16 -->
<g id="edge42" class="edge">
<title>Node4&#45;&gt;Node16</title>
<path fill="none" stroke="#63b8ff" d="M1038.3,-241.88C1023.83,-221.86 997.16,-184.96 979.63,-160.7"/>
<polygon fill="#63b8ff" stroke="#63b8ff" points="982.54,-158.75 973.84,-152.7 976.87,-162.85 982.54,-158.75"/>
</g>
<!-- Node17 -->
<g id="node17" class="node">
<title>Node17</title>
<g id="a_node17"><a xlink:href="unstructured__domains_8h.html" target="_top" xlink:title="Functions to modify unstructured domains, e.g. to incorporate ligands binding to unpaired stretches.">
<polygon fill="white" stroke="#666666" points="1358,-151 1233,-151 1233,-121 1358,-121 1358,-151"/>
<text text-anchor="start" x="1241" y="-139" font-family="Helvetica,sans-Serif" font-size="10.00">ViennaRNA/unstructured</text>
<text text-anchor="middle" x="1295.5" y="-128" font-family="Helvetica,sans-Serif" font-size="10.00">_domains.h</text>
</a>
</g>
</g>
<!-- Node4&#45;&gt;Node17 -->
<g id="edge43" class="edge">
<title>Node4&#45;&gt;Node17</title>
<path fill="none" stroke="#63b8ff" d="M1073.71,-241.65C1115.42,-220.25 1198.89,-179.95 1250.76,-156.09"/>
<polygon fill="#63b8ff" stroke="#63b8ff" points="1251.99,-159.38 1259.63,-152.03 1249.08,-153.01 1251.99,-159.38"/>
</g>
<!-- Node18 -->
<g id="node18" class="node">
<title>Node18</title>
<g id="a_node18"><a xlink:href="utils_2structures_8h.html" target="_top" xlink:title="Various utility&#45; and helper&#45;functions for secondary structure parsing, converting,...">
<polygon fill="white" stroke="#666666" points="1478.5,-79.5 1334.5,-79.5 1334.5,-60.5 1478.5,-60.5 1478.5,-79.5"/>
<text text-anchor="middle" x="1406.5" y="-67.5" font-family="Helvetica,sans-Serif" font-size="10.00">ViennaRNA/utils/structures.h</text>
</a>
</g>
</g>
<!-- Node4&#45;&gt;Node18 -->
<g id="edge44" class="edge">
<title>Node4&#45;&gt;Node18</title>
<path fill="none" stroke="#63b8ff" d="M1115.98,-255.53C1174.1,-252.27 1258.48,-241 1323.5,-206 1353.12,-190.05 1358.99,-180.31 1375.5,-151 1386.19,-132.01 1391.93,-107.53 1396.69,-90.68"/>
<polygon fill="#63b8ff" stroke="#63b8ff" points="1399.95,-91.97 1399.59,-81.39 1393.27,-89.89 1399.95,-91.97"/>
</g>
<!-- Node6 -->
<g id="node6" class="node">
<title>Node6</title>
<g id="a_node6"><a xlink:title=" ">
<polygon fill="#e0e0e0" stroke="#999999" points="1255.5,-19 1207.5,-19 1207.5,0 1255.5,0 1255.5,-19"/>
<text text-anchor="middle" x="1231.5" y="-7" font-family="Helvetica,sans-Serif" font-size="10.00">limits.h</text>
</a>
</g>
</g>
<!-- Node5&#45;&gt;Node6 -->
<g id="edge5" class="edge">
<title>Node5&#45;&gt;Node6</title>
<path fill="none" stroke="#63b8ff" d="M1231.5,-60.37C1231.5,-52.5 1231.5,-40.6 1231.5,-30.39"/>
<polygon fill="#63b8ff" stroke="#63b8ff" points="1235,-30.68 1231.5,-20.68 1228,-30.68 1235,-30.68"/>
</g>
<!-- Node7&#45;&gt;Node8 -->
<g id="edge7" class="edge">
<title>Node7&#45;&gt;Node8</title>
<path fill="none" stroke="#63b8ff" d="M664.99,-186.65C649.09,-179.65 629.93,-168.17 620.5,-151 614.08,-139.31 611.64,-130.96 620.5,-121 644.21,-94.36 870.1,-79.66 983.79,-73.9"/>
<polygon fill="#63b8ff" stroke="#63b8ff" points="983.77,-77.4 993.59,-73.41 983.42,-70.41 983.77,-77.4"/>
</g>
<!-- Node7&#45;&gt;Node9 -->
<g id="edge8" class="edge">
<title>Node7&#45;&gt;Node9</title>
<path fill="none" stroke="#63b8ff" d="M755.08,-186.55C836.54,-175.79 976.48,-157.79 1064.87,-146.7"/>
<polygon fill="#63b8ff" stroke="#63b8ff" points="1065.19,-150.19 1074.68,-145.47 1064.32,-143.24 1065.19,-150.19"/>
</g>
<!-- Node10 -->
<g id="node10" class="node">
<title>Node10</title>
<g id="a_node10"><a xlink:href="sequence_8h.html" target="_top" xlink:title="Functions and data structures related to sequence representations ,.">
<polygon fill="white" stroke="#666666" points="751.5,-145.5 629.5,-145.5 629.5,-126.5 751.5,-126.5 751.5,-145.5"/>
<text text-anchor="middle" x="690.5" y="-133.5" font-family="Helvetica,sans-Serif" font-size="10.00">ViennaRNA/sequence.h</text>
</a>
</g>
</g>
<!-- Node7&#45;&gt;Node10 -->
<g id="edge13" class="edge">
<title>Node7&#45;&gt;Node10</title>
<path fill="none" stroke="#63b8ff" d="M685.54,-186.87C683.85,-179 683.35,-167.1 684.07,-156.89"/>
<polygon fill="#63b8ff" stroke="#63b8ff" points="687.51,-157.54 685.34,-147.17 680.57,-156.63 687.51,-157.54"/>
</g>
<!-- Node7&#45;&gt;Node11 -->
<g id="edge15" class="edge">
<title>Node7&#45;&gt;Node11</title>
<path fill="none" stroke="#63b8ff" d="M617.23,-189.87C532.9,-182.62 390.68,-168.83 269.5,-151 263.36,-150.1 256.95,-149.05 250.63,-147.95"/>
<polygon fill="#63b8ff" stroke="#63b8ff" points="251.4,-144.54 240.94,-146.2 250.15,-151.42 251.4,-144.54"/>
</g>
<!-- Node7&#45;&gt;Node12 -->
<g id="edge18" class="edge">
<title>Node7&#45;&gt;Node12</title>
<path fill="none" stroke="#63b8ff" d="M626.83,-186.5C572.92,-178.18 493.55,-165.26 418.47,-152.04"/>
<polygon fill="#63b8ff" stroke="#63b8ff" points="419.37,-148.65 408.91,-150.36 418.15,-155.54 419.37,-148.65"/>
</g>
<!-- Node7&#45;&gt;Node14 -->
<g id="edge22" class="edge">
<title>Node7&#45;&gt;Node14</title>
<path fill="none" stroke="#63b8ff" d="M617.34,-192.88C510.54,-188.25 305.84,-176.77 130.52,-152.68"/>
<polygon fill="#63b8ff" stroke="#63b8ff" points="131.17,-149.24 120.78,-151.32 130.2,-156.17 131.17,-149.24"/>
</g>
<!-- Node7&#45;&gt;Node15 -->
<g id="edge26" class="edge">
<title>Node7&#45;&gt;Node15</title>
<path fill="none" stroke="#63b8ff" d="M706.45,-186.62C727.3,-176.91 763.97,-161.26 791.77,-150.14"/>
<polygon fill="#63b8ff" stroke="#63b8ff" points="792.9,-153.46 800.91,-146.52 790.32,-146.95 792.9,-153.46"/>
</g>
<!-- Node7&#45;&gt;Node16 -->
<g id="edge28" class="edge">
<title>Node7&#45;&gt;Node16</title>
<path fill="none" stroke="#63b8ff" d="M732.11,-186.55C774.93,-177.34 842.38,-162.83 893.26,-151.89"/>
<polygon fill="#63b8ff" stroke="#63b8ff" points="893.98,-155.32 903.02,-149.79 892.51,-148.47 893.98,-155.32"/>
</g>
<!-- Node7&#45;&gt;Node17 -->
<g id="edge29" class="edge">
<title>Node7&#45;&gt;Node17</title>
<path fill="none" stroke="#63b8ff" d="M763.65,-191.58C865.2,-185.8 1054.23,-173.21 1214.5,-151 1216.82,-150.68 1219.17,-150.33 1221.55,-149.96"/>
<polygon fill="#63b8ff" stroke="#63b8ff" points="1222.01,-153.44 1231.31,-148.36 1220.87,-146.53 1222.01,-153.44"/>
</g>
<!-- Node19 -->
<g id="node19" class="node">
<title>Node19</title>
<g id="a_node19"><a xlink:href="zscore_8h_source.html" target="_top" xlink:title=" ">
<polygon fill="white" stroke="#666666" points="573,-145.5 464,-145.5 464,-126.5 573,-126.5 573,-145.5"/>
<text text-anchor="middle" x="518.5" y="-133.5" font-family="Helvetica,sans-Serif" font-size="10.00">ViennaRNA/zscore.h</text>
</a>
</g>
</g>
<!-- Node7&#45;&gt;Node19 -->
<g id="edge35" class="edge">
<title>Node7&#45;&gt;Node19</title>
<path fill="none" stroke="#63b8ff" d="M664.38,-186.62C635.33,-176.74 588.2,-160.71 555.4,-149.55"/>
<polygon fill="#63b8ff" stroke="#63b8ff" points="556.9,-146.36 546.3,-146.46 554.64,-152.99 556.9,-146.36"/>
</g>
<!-- Node9&#45;&gt;Node4 -->
<g id="edge10" class="edge">
<title>Node9&#45;&gt;Node4</title>
<path fill="none" stroke="#63b8ff" d="M1142.13,-145.71C1130.56,-164.02 1096.1,-206.98 1072.21,-233.56"/>
<polygon fill="#63b8ff" stroke="#63b8ff" points="1069.77,-231.04 1065.59,-240.77 1074.93,-235.77 1069.77,-231.04"/>
</g>
<!-- Node9&#45;&gt;Node5 -->
<g id="edge9" class="edge">
<title>Node9&#45;&gt;Node5</title>
<path fill="none" stroke="#63b8ff" d="M1157.46,-126.1C1171.19,-115.88 1193.98,-98.93 1210.65,-86.52"/>
<polygon fill="#63b8ff" stroke="#63b8ff" points="1212.5,-89.5 1218.43,-80.73 1208.32,-83.89 1212.5,-89.5"/>
</g>
<!-- Node9&#45;&gt;Node7 -->
<g id="edge11" class="edge">
<title>Node9&#45;&gt;Node7</title>
<path fill="none" stroke="#63b8ff" d="M1080.53,-146C1000.26,-156.6 863.61,-174.18 775.19,-185.29"/>
<polygon fill="#63b8ff" stroke="#63b8ff" points="774.84,-181.81 765.36,-186.52 775.71,-188.75 774.84,-181.81"/>
</g>
<!-- Node9&#45;&gt;Node8 -->
<g id="edge12" class="edge">
<title>Node9&#45;&gt;Node8</title>
<path fill="none" stroke="#63b8ff" d="M1132.01,-126.1C1116.3,-115.74 1090.1,-98.45 1071.23,-86"/>
<polygon fill="#63b8ff" stroke="#63b8ff" points="1073.41,-83.24 1063.14,-80.66 1069.56,-89.09 1073.41,-83.24"/>
</g>
<!-- Node10&#45;&gt;Node7 -->
<g id="edge14" class="edge">
<title>Node10&#45;&gt;Node7</title>
<path fill="none" stroke="#63b8ff" d="M695.46,-145.67C697.16,-153.54 697.65,-165.45 696.93,-175.66"/>
<polygon fill="#63b8ff" stroke="#63b8ff" points="693.49,-175 695.65,-185.37 700.43,-175.91 693.49,-175"/>
</g>
<!-- Node11&#45;&gt;Node4 -->
<g id="edge16" class="edge">
<title>Node11&#45;&gt;Node4</title>
<path fill="none" stroke="#63b8ff" d="M244.28,-145.96C306.72,-160.62 429.26,-189.75 534.5,-206 687.92,-229.69 868.5,-243.98 969.68,-250.9"/>
<polygon fill="#63b8ff" stroke="#63b8ff" points="969.29,-254.38 979.5,-251.56 969.76,-247.4 969.29,-254.38"/>
</g>
<!-- Node11&#45;&gt;Node7 -->
<g id="edge17" class="edge">
<title>Node11&#45;&gt;Node7</title>
<path fill="none" stroke="#63b8ff" d="M256.99,-145.93C267.16,-147.75 277.67,-149.55 287.5,-151 397.29,-167.15 524.35,-179.99 606.04,-187.65"/>
<polygon fill="#63b8ff" stroke="#63b8ff" points="605.47,-191.11 615.75,-188.56 606.12,-184.14 605.47,-191.11"/>
</g>
<!-- Node12&#45;&gt;Node7 -->
<g id="edge19" class="edge">
<title>Node12&#45;&gt;Node7</title>
<path fill="none" stroke="#63b8ff" d="M407.32,-146.79C415.15,-148.23 423.03,-149.68 430.5,-151 498.67,-163.09 576.76,-175.89 629.5,-184.64"/>
<polygon fill="#63b8ff" stroke="#63b8ff" points="628.75,-188.07 639.19,-186.25 629.9,-181.16 628.75,-188.07"/>
</g>
<!-- Node13 -->
<g id="node13" class="node">
<title>Node13</title>
<g id="a_node13"><a xlink:href="constraints_2basic_8h.html" target="_top" xlink:title="Functions and data structures for constraining secondary structure predictions and evaluation.">
<polygon fill="white" stroke="#666666" points="407,-85 288,-85 288,-55 407,-55 407,-85"/>
<text text-anchor="start" x="296" y="-73" font-family="Helvetica,sans-Serif" font-size="10.00">ViennaRNA/constraints</text>
<text text-anchor="middle" x="347.5" y="-62" font-family="Helvetica,sans-Serif" font-size="10.00">/basic.h</text>
</a>
</g>
</g>
<!-- Node12&#45;&gt;Node13 -->
<g id="edge20" class="edge">
<title>Node12&#45;&gt;Node13</title>
<path fill="none" stroke="#63b8ff" d="M347.5,-120.8C347.5,-113.67 347.5,-104.82 347.5,-96.56"/>
<polygon fill="#63b8ff" stroke="#63b8ff" points="351,-96.68 347.5,-86.68 344,-96.68 351,-96.68"/>
</g>
<!-- Node13&#45;&gt;Node7 -->
<g id="edge21" class="edge">
<title>Node13&#45;&gt;Node7</title>
<path fill="none" stroke="#63b8ff" d="M367.22,-85.33C380.84,-95.27 399.34,-108.84 415.5,-121 432.98,-134.14 434.54,-142.06 454.5,-151 502.13,-172.33 559.61,-183.44 605.92,-189.23"/>
<polygon fill="#63b8ff" stroke="#63b8ff" points="605.29,-192.68 615.63,-190.37 606.11,-185.72 605.29,-192.68"/>
</g>
<!-- Node14&#45;&gt;Node4 -->
<g id="edge23" class="edge">
<title>Node14&#45;&gt;Node4</title>
<path fill="none" stroke="#63b8ff" d="M119.47,-149.11C193.24,-164.62 322.1,-191.26 433.5,-206 625.62,-231.42 852.84,-245.68 970.02,-252"/>
<polygon fill="#63b8ff" stroke="#63b8ff" points="969.67,-255.49 979.84,-252.53 970.04,-248.5 969.67,-255.49"/>
</g>
<!-- Node14&#45;&gt;Node7 -->
<g id="edge24" class="edge">
<title>Node14&#45;&gt;Node7</title>
<path fill="none" stroke="#63b8ff" d="M119.19,-148.17C125.05,-149.23 130.89,-150.2 136.5,-151 302.22,-174.52 497.27,-186.46 606.18,-191.8"/>
<polygon fill="#63b8ff" stroke="#63b8ff" points="605.74,-195.29 615.9,-192.27 606.08,-188.29 605.74,-195.29"/>
</g>
<!-- Node14&#45;&gt;Node13 -->
<g id="edge25" class="edge">
<title>Node14&#45;&gt;Node13</title>
<path fill="none" stroke="#63b8ff" d="M119.17,-121.74C165.03,-111.55 228.5,-97.44 276.89,-86.69"/>
<polygon fill="#63b8ff" stroke="#63b8ff" points="277.42,-90.16 286.43,-84.57 275.9,-83.32 277.42,-90.16"/>
</g>
<!-- Node15&#45;&gt;Node7 -->
<g id="edge27" class="edge">
<title>Node15&#45;&gt;Node7</title>
<path fill="none" stroke="#63b8ff" d="M812.37,-145.97C791.43,-155.71 754.74,-171.36 726.99,-182.46"/>
<polygon fill="#63b8ff" stroke="#63b8ff" points="725.89,-179.13 717.88,-186.06 728.46,-185.64 725.89,-179.13"/>
</g>
<!-- Node17&#45;&gt;Node4 -->
<g id="edge30" class="edge">
<title>Node17&#45;&gt;Node4</title>
<path fill="none" stroke="#63b8ff" d="M1270.26,-151.37C1228.57,-172.75 1145.26,-212.98 1093.39,-236.84"/>
<polygon fill="#63b8ff" stroke="#63b8ff" points="1092.15,-233.56 1084.52,-240.9 1095.07,-239.92 1092.15,-233.56"/>
</g>
<!-- Node17&#45;&gt;Node7 -->
<g id="edge31" class="edge">
<title>Node17&#45;&gt;Node7</title>
<path fill="none" stroke="#63b8ff" d="M1232.01,-151.07C1071.48,-173.28 882.24,-185.86 775.25,-191.62"/>
<polygon fill="#63b8ff" stroke="#63b8ff" points="775.2,-188.11 765.4,-192.14 775.57,-195.1 775.2,-188.11"/>
</g>
<!-- Node17&#45;&gt;Node18 -->
<g id="edge32" class="edge">
<title>Node17&#45;&gt;Node18</title>
<path fill="none" stroke="#63b8ff" d="M1320.41,-120.64C1338.47,-110.22 1362.82,-96.19 1381.01,-85.7"/>
<polygon fill="#63b8ff" stroke="#63b8ff" points="1382.69,-88.77 1389.6,-80.74 1379.19,-82.7 1382.69,-88.77"/>
</g>
<!-- Node18&#45;&gt;Node3 -->
<g id="edge33" class="edge">
<title>Node18&#45;&gt;Node3</title>
<path fill="none" stroke="#63b8ff" d="M1421.69,-60.12C1437.55,-50.84 1462.68,-36.13 1481.48,-25.14"/>
<polygon fill="#63b8ff" stroke="#63b8ff" points="1483,-28.3 1489.86,-20.23 1479.46,-22.26 1483,-28.3"/>
</g>
<!-- Node18&#45;&gt;Node4 -->
<g id="edge34" class="edge">
<title>Node18&#45;&gt;Node4</title>
<path fill="none" stroke="#63b8ff" d="M1410.92,-79.94C1412.42,-95.32 1406.79,-127.4 1393.5,-151 1376.99,-180.31 1371.12,-190.05 1341.5,-206 1275.31,-241.63 1189.06,-252.67 1127.24,-255.7"/>
<polygon fill="#63b8ff" stroke="#63b8ff" points="1127.35,-252.19 1117.5,-256.11 1127.64,-259.19 1127.35,-252.19"/>
</g>
<!-- Node20&#45;&gt;Node3 -->
<g id="edge46" class="edge">
<title>Node20&#45;&gt;Node3</title>
<path fill="none" stroke="#63b8ff" d="M1595.98,-241.74C1579.81,-199.94 1532.49,-77.67 1514.02,-29.92"/>
<polygon fill="#63b8ff" stroke="#63b8ff" points="1517.3,-28.72 1510.43,-20.66 1510.78,-31.25 1517.3,-28.72"/>
</g>
</g>
</svg>
