<?xml version="1.0" encoding="UTF-8" standalone="no"?>
<!DOCTYPE svg PUBLIC "-//W3C//DTD SVG 1.1//EN"
 "http://www.w3.org/Graphics/SVG/1.1/DTD/svg11.dtd">
<!-- Generated by graphviz version 7.1.0 (0)
 -->
<!-- Title: ViennaRNA/grammar.h Pages: 1 -->
<!--zoomable 390 -->
<svg id="main" version="1.1" xmlns="http://www.w3.org/2000/svg" xmlns:xlink="http://www.w3.org/1999/xlink" xml:space="preserve" onload="init(evt)">
<style type="text/css"><![CDATA[
.edge:hover path { stroke: red; }
.edge:hover polygon { stroke: red; fill: red; }
]]></style>
<script type="text/javascript"><![CDATA[
var edges = document.getElementsByTagName('g');
if (edges && edges.length) {
  for (var i=0;i<edges.length;i++) {
    if (edges[i].id.substr(0,4)=='edge') {
      edges[i].setAttribute('class','edge');
    }
  }
}
]]></script>
        <defs>
                <circle id="rim" cx="0" cy="0" r="7"/>
                <circle id="rim2" cx="0" cy="0" r="3.5"/>
                <g id="zoomPlus">
                        <use xlink:href="#rim" fill="#404040">
                                <set attributeName="fill" to="#808080" begin="zoomplus.mouseover" end="zoomplus.mouseout"/>
                        </use>
                        <path d="M-4,0h8M0,-4v8" fill="none" stroke="white" stroke-width="1.5" pointer-events="none"/>
                </g>
                <g id="zoomMin">
                        <use xlink:href="#rim" fill="#404040">
                                <set attributeName="fill" to="#808080" begin="zoomminus.mouseover" end="zoomminus.mouseout"/>
                        </use>
                        <path d="M-4,0h8" fill="none" stroke="white" stroke-width="1.5" pointer-events="none"/>
                </g>
                <g id="dirArrow">
                        <path fill="none" stroke="white" stroke-width="1.5" d="M0,-3.0v7 M-2.5,-0.5L0,-3.0L2.5,-0.5"/>
                </g>
               <g id="resetDef">
                       <use xlink:href="#rim2" fill="#404040">
                               <set attributeName="fill" to="#808080" begin="reset.mouseover" end="reset.mouseout"/>
                       </use>
               </g>
        </defs>

<script type="text/javascript">
var viewWidth = 1064;
var viewHeight = 390;
var sectionId = 'dynsection-0';
</script>
<script xlink:href="svgpan.js"/>
<svg id="graph" class="graph">
<g id="viewport">
<title>ViennaRNA/grammar.h</title>
<!-- Node1 -->
<g id="node1" class="node">
<title>Node1</title>
<g id="a_node1"><a xlink:title="Implementations for the RNA folding grammar.">
<polygon fill="#999999" stroke="#666666" points="645.5,-382 528.5,-382 528.5,-363 645.5,-363 645.5,-382"/>
<text text-anchor="middle" x="587" y="-370" font-family="Helvetica,sans-Serif" font-size="10.00">ViennaRNA/grammar.h</text>
</a>
</g>
</g>
<!-- Node2 -->
<g id="node2" class="node">
<title>Node2</title>
<g id="a_node2"><a xlink:href="fold__compound_8h.html" target="_top" xlink:title="The Basic Fold Compound API.">
<polygon fill="white" stroke="#666666" points="660,-327 514,-327 514,-308 660,-308 660,-327"/>
<text text-anchor="middle" x="587" y="-315" font-family="Helvetica,sans-Serif" font-size="10.00">ViennaRNA/fold_compound.h</text>
</a>
</g>
</g>
<!-- Node1&#45;&gt;Node2 -->
<g id="edge1" class="edge">
<title>Node1&#45;&gt;Node2</title>
<path fill="none" stroke="#63b8ff" d="M581.83,-362.75C580.42,-356.19 579.96,-346.95 580.43,-338.6"/>
<polygon fill="#63b8ff" stroke="#63b8ff" points="583.87,-339.3 581.61,-328.94 576.92,-338.45 583.87,-339.3"/>
</g>
<!-- Node2&#45;&gt;Node1 -->
<g id="edge38" class="edge">
<title>Node2&#45;&gt;Node1</title>
<path fill="none" stroke="#63b8ff" d="M592.21,-327.44C593.58,-333.97 594.04,-343.1 593.57,-351.35"/>
<polygon fill="#63b8ff" stroke="#63b8ff" points="590.1,-350.89 592.35,-361.25 597.05,-351.75 590.1,-350.89"/>
</g>
<!-- Node3 -->
<g id="node3" class="node">
<title>Node3</title>
<g id="a_node3"><a xlink:href="model_8h.html" target="_top" xlink:title="The model details data structure and its corresponding modifiers.">
<polygon fill="white" stroke="#666666" points="106,-145.5 0,-145.5 0,-126.5 106,-126.5 106,-145.5"/>
<text text-anchor="middle" x="53" y="-133.5" font-family="Helvetica,sans-Serif" font-size="10.00">ViennaRNA/model.h</text>
</a>
</g>
</g>
<!-- Node2&#45;&gt;Node3 -->
<g id="edge2" class="edge">
<title>Node2&#45;&gt;Node3</title>
<path fill="none" stroke="#63b8ff" d="M513.59,-315.94C445.16,-313.27 341.29,-303.66 257,-272 181.05,-243.47 104.85,-182.34 71.07,-153.16"/>
<polygon fill="#63b8ff" stroke="#63b8ff" points="73.67,-150.78 63.84,-146.82 69.05,-156.04 73.67,-150.78"/>
</g>
<!-- Node4 -->
<g id="node4" class="node">
<title>Node4</title>
<g id="a_node4"><a xlink:href="params_2basic_8h.html" target="_top" xlink:title="Functions to deal with sets of energy parameters.">
<polygon fill="white" stroke="#666666" points="432,-272 294,-272 294,-253 432,-253 432,-272"/>
<text text-anchor="middle" x="363" y="-260" font-family="Helvetica,sans-Serif" font-size="10.00">ViennaRNA/params/basic.h</text>
</a>
</g>
</g>
<!-- Node2&#45;&gt;Node4 -->
<g id="edge3" class="edge">
<title>Node2&#45;&gt;Node4</title>
<path fill="none" stroke="#63b8ff" d="M543.78,-307.51C504.32,-298.61 446.4,-284.95 406.77,-275.21"/>
<polygon fill="#63b8ff" stroke="#63b8ff" points="407.62,-271.81 397.07,-272.81 405.94,-278.61 407.62,-271.81"/>
</g>
<!-- Node8 -->
<g id="node8" class="node">
<title>Node8</title>
<g id="a_node8"><a xlink:href="dp__matrices_8h.html" target="_top" xlink:title="Functions to deal with standard dynamic programming (DP) matrices.">
<polygon fill="white" stroke="#666666" points="1040.5,-145.5 907.5,-145.5 907.5,-126.5 1040.5,-126.5 1040.5,-145.5"/>
<text text-anchor="middle" x="974" y="-133.5" font-family="Helvetica,sans-Serif" font-size="10.00">ViennaRNA/dp_matrices.h</text>
</a>
</g>
</g>
<!-- Node2&#45;&gt;Node8 -->
<g id="edge35" class="edge">
<title>Node2&#45;&gt;Node8</title>
<path fill="none" stroke="#63b8ff" d="M660.25,-314.72C710.7,-310.66 777.84,-299.79 831,-272 885.96,-243.28 932.39,-184.06 956.78,-154.53"/>
<polygon fill="#63b8ff" stroke="#63b8ff" points="959.44,-156.81 963.22,-146.9 954.09,-152.29 959.44,-156.81"/>
</g>
<!-- Node9 -->
<g id="node9" class="node">
<title>Node9</title>
<g id="a_node9"><a xlink:href="hard_8h.html" target="_top" xlink:title="Functions and data structures for handling of secondary structure hard constraints.">
<polygon fill="white" stroke="#666666" points="752.5,-151 633.5,-151 633.5,-121 752.5,-121 752.5,-151"/>
<text text-anchor="start" x="641.5" y="-139" font-family="Helvetica,sans-Serif" font-size="10.00">ViennaRNA/constraints</text>
<text text-anchor="middle" x="693" y="-128" font-family="Helvetica,sans-Serif" font-size="10.00">/hard.h</text>
</a>
</g>
</g>
<!-- Node2&#45;&gt;Node9 -->
<g id="edge36" class="edge">
<title>Node2&#45;&gt;Node9</title>
<path fill="none" stroke="#63b8ff" d="M660.25,-308.52C706.89,-301.93 761.14,-290.57 776,-272 806.74,-233.58 753.56,-185.23 718.89,-158.06"/>
<polygon fill="#63b8ff" stroke="#63b8ff" points="721.37,-155.55 711.31,-152.22 717.1,-161.1 721.37,-155.55"/>
</g>
<!-- Node11 -->
<g id="node11" class="node">
<title>Node11</title>
<g id="a_node11"><a xlink:href="soft_8h.html" target="_top" xlink:title="Functions and data structures for secondary structure soft constraints.">
<polygon fill="white" stroke="#666666" points="889.5,-151 770.5,-151 770.5,-121 889.5,-121 889.5,-151"/>
<text text-anchor="start" x="778.5" y="-139" font-family="Helvetica,sans-Serif" font-size="10.00">ViennaRNA/constraints</text>
<text text-anchor="middle" x="830" y="-128" font-family="Helvetica,sans-Serif" font-size="10.00">/soft.h</text>
</a>
</g>
</g>
<!-- Node2&#45;&gt;Node11 -->
<g id="edge37" class="edge">
<title>Node2&#45;&gt;Node11</title>
<path fill="none" stroke="#63b8ff" d="M660.42,-310.34C715.11,-304.29 783.44,-292.83 803,-272 830.46,-242.76 829.43,-193 828.23,-162.75"/>
<polygon fill="#63b8ff" stroke="#63b8ff" points="831.74,-162.83 827.86,-152.97 824.74,-163.1 831.74,-162.83"/>
</g>
<!-- Node12 -->
<g id="node12" class="node">
<title>Node12</title>
<g id="a_node12"><a xlink:href="structured__domains_8h.html" target="_top" xlink:title="This module provides interfaces that deal with additional structured domains in the folding grammar.">
<polygon fill="white" stroke="#666666" points="615.5,-151 500.5,-151 500.5,-121 615.5,-121 615.5,-151"/>
<text text-anchor="start" x="508.5" y="-139" font-family="Helvetica,sans-Serif" font-size="10.00">ViennaRNA/structured</text>
<text text-anchor="middle" x="558" y="-128" font-family="Helvetica,sans-Serif" font-size="10.00">_domains.h</text>
</a>
</g>
</g>
<!-- Node2&#45;&gt;Node12 -->
<g id="edge39" class="edge">
<title>Node2&#45;&gt;Node12</title>
<path fill="none" stroke="#63b8ff" d="M561.49,-307.65C545.59,-300.65 526.43,-289.17 517,-272 506.51,-252.9 530.4,-195.16 545.95,-161.7"/>
<polygon fill="#63b8ff" stroke="#63b8ff" points="549.07,-163.28 550.19,-152.74 542.75,-160.28 549.07,-163.28"/>
</g>
<!-- Node13 -->
<g id="node13" class="node">
<title>Node13</title>
<g id="a_node13"><a xlink:href="unstructured__domains_8h.html" target="_top" xlink:title="Functions to modify unstructured domains, e.g. to incorporate ligands binding to unpaired stretches.">
<polygon fill="white" stroke="#666666" points="249.5,-151 124.5,-151 124.5,-121 249.5,-121 249.5,-151"/>
<text text-anchor="start" x="132.5" y="-139" font-family="Helvetica,sans-Serif" font-size="10.00">ViennaRNA/unstructured</text>
<text text-anchor="middle" x="187" y="-128" font-family="Helvetica,sans-Serif" font-size="10.00">_domains.h</text>
</a>
</g>
</g>
<!-- Node2&#45;&gt;Node13 -->
<g id="edge40" class="edge">
<title>Node2&#45;&gt;Node13</title>
<path fill="none" stroke="#63b8ff" d="M513.63,-312.66C434.36,-307.23 314.42,-295.27 276,-272 233.17,-246.06 203.49,-193.57 191.51,-162.23"/>
<polygon fill="#63b8ff" stroke="#63b8ff" points="194.83,-161.12 188.28,-152.79 188.2,-163.39 194.83,-161.12"/>
</g>
<!-- Node16 -->
<g id="node16" class="node">
<title>Node16</title>
<g id="a_node16"><a xlink:href="sequence_8h.html" target="_top" xlink:title="Functions and data structures related to sequence representations ,.">
<polygon fill="white" stroke="#666666" points="648,-272 526,-272 526,-253 648,-253 648,-272"/>
<text text-anchor="middle" x="587" y="-260" font-family="Helvetica,sans-Serif" font-size="10.00">ViennaRNA/sequence.h</text>
</a>
</g>
</g>
<!-- Node2&#45;&gt;Node16 -->
<g id="edge33" class="edge">
<title>Node2&#45;&gt;Node16</title>
<path fill="none" stroke="#63b8ff" d="M581.83,-307.75C580.42,-301.19 579.96,-291.95 580.43,-283.6"/>
<polygon fill="#63b8ff" stroke="#63b8ff" points="583.87,-284.3 581.61,-273.94 576.92,-283.45 583.87,-284.3"/>
</g>
<!-- Node17 -->
<g id="node17" class="node">
<title>Node17</title>
<g id="a_node17"><a xlink:href="zscore_8h_source.html" target="_top" xlink:title=" ">
<polygon fill="white" stroke="#666666" points="775.5,-272 666.5,-272 666.5,-253 775.5,-253 775.5,-272"/>
<text text-anchor="middle" x="721" y="-260" font-family="Helvetica,sans-Serif" font-size="10.00">ViennaRNA/zscore.h</text>
</a>
</g>
</g>
<!-- Node2&#45;&gt;Node17 -->
<g id="edge41" class="edge">
<title>Node2&#45;&gt;Node17</title>
<path fill="none" stroke="#63b8ff" d="M609.73,-307.51C631.23,-299.01 663.73,-286.15 688.07,-276.53"/>
<polygon fill="#63b8ff" stroke="#63b8ff" points="689.19,-279.85 697.2,-272.91 686.61,-273.34 689.19,-279.85"/>
</g>
<!-- Node4&#45;&gt;Node2 -->
<g id="edge31" class="edge">
<title>Node4&#45;&gt;Node2</title>
<path fill="none" stroke="#63b8ff" d="M406.02,-272.45C445.51,-281.35 503.58,-295.05 543.29,-304.81"/>
<polygon fill="#63b8ff" stroke="#63b8ff" points="542.2,-308.14 552.75,-307.15 543.88,-301.35 542.2,-308.14"/>
</g>
<!-- Node4&#45;&gt;Node3 -->
<g id="edge32" class="edge">
<title>Node4&#45;&gt;Node3</title>
<path fill="none" stroke="#63b8ff" d="M342.4,-252.52C309.5,-238.25 242.99,-209.7 186,-187 153.11,-173.9 115.31,-159.78 88.43,-149.89"/>
<polygon fill="#63b8ff" stroke="#63b8ff" points="89.64,-146.61 79.04,-146.45 87.23,-153.18 89.64,-146.61"/>
</g>
<!-- Node5 -->
<g id="node5" class="node">
<title>Node5</title>
<g id="a_node5"><a xlink:href="constants_8h.html" target="_top" xlink:title="Energy parameter constants.">
<polygon fill="white" stroke="#666666" points="426,-145.5 268,-145.5 268,-126.5 426,-126.5 426,-145.5"/>
<text text-anchor="middle" x="347" y="-133.5" font-family="Helvetica,sans-Serif" font-size="10.00">ViennaRNA/params/constants.h</text>
</a>
</g>
</g>
<!-- Node4&#45;&gt;Node5 -->
<g id="edge4" class="edge">
<title>Node4&#45;&gt;Node5</title>
<path fill="none" stroke="#63b8ff" d="M361.85,-252.55C359.3,-232.72 353.13,-184.68 349.59,-157.19"/>
<polygon fill="#63b8ff" stroke="#63b8ff" points="353.08,-156.85 348.33,-147.37 346.14,-157.74 353.08,-156.85"/>
</g>
<!-- Node7 -->
<g id="node7" class="node">
<title>Node7</title>
<g id="a_node7"><a xlink:href="datastructures_2basic_8h.html" target="_top" xlink:title="Various data structures and pre&#45;processor macros.">
<polygon fill="white" stroke="#666666" points="509,-217 375,-217 375,-187 509,-187 509,-217"/>
<text text-anchor="start" x="383" y="-205" font-family="Helvetica,sans-Serif" font-size="10.00">ViennaRNA/datastructures</text>
<text text-anchor="middle" x="442" y="-194" font-family="Helvetica,sans-Serif" font-size="10.00">/basic.h</text>
</a>
</g>
</g>
<!-- Node4&#45;&gt;Node7 -->
<g id="edge6" class="edge">
<title>Node4&#45;&gt;Node7</title>
<path fill="none" stroke="#63b8ff" d="M369.99,-252.62C378.63,-245.03 393.27,-233.82 407.17,-223.98"/>
<polygon fill="#63b8ff" stroke="#63b8ff" points="409.12,-226.88 415.34,-218.3 405.13,-221.13 409.12,-226.88"/>
</g>
<!-- Node6 -->
<g id="node6" class="node">
<title>Node6</title>
<g id="a_node6"><a xlink:title=" ">
<polygon fill="#e0e0e0" stroke="#999999" points="371,-79.5 323,-79.5 323,-60.5 371,-60.5 371,-79.5"/>
<text text-anchor="middle" x="347" y="-67.5" font-family="Helvetica,sans-Serif" font-size="10.00">limits.h</text>
</a>
</g>
</g>
<!-- Node5&#45;&gt;Node6 -->
<g id="edge5" class="edge">
<title>Node5&#45;&gt;Node6</title>
<path fill="none" stroke="#63b8ff" d="M347,-126.1C347,-117.12 347,-102.95 347,-91.22"/>
<polygon fill="#63b8ff" stroke="#63b8ff" points="350.5,-91.34 347,-81.34 343.5,-91.34 350.5,-91.34"/>
</g>
<!-- Node7&#45;&gt;Node1 -->
<g id="edge22" class="edge">
<title>Node7&#45;&gt;Node1</title>
<path fill="none" stroke="#63b8ff" d="M374.55,-209.4C320.6,-217.37 258.08,-234.79 285,-272 337.67,-344.81 445.48,-365.26 517,-370.49"/>
<polygon fill="#63b8ff" stroke="#63b8ff" points="516.43,-373.96 526.64,-371.11 516.88,-366.98 516.43,-373.96"/>
</g>
<!-- Node7&#45;&gt;Node2 -->
<g id="edge8" class="edge">
<title>Node7&#45;&gt;Node2</title>
<path fill="none" stroke="#63b8ff" d="M447.65,-217.48C454.29,-232.83 466.65,-256.91 484,-272 500.66,-286.49 522.77,-296.88 542.23,-303.95"/>
<polygon fill="#63b8ff" stroke="#63b8ff" points="540.99,-307.23 551.59,-307.15 543.26,-300.6 540.99,-307.23"/>
</g>
<!-- Node7&#45;&gt;Node3 -->
<g id="edge9" class="edge">
<title>Node7&#45;&gt;Node3</title>
<path fill="none" stroke="#63b8ff" d="M374.75,-192.13C308.48,-183.05 204.44,-167.91 115,-151 110.67,-150.18 106.19,-149.28 101.7,-148.34"/>
<polygon fill="#63b8ff" stroke="#63b8ff" points="102.61,-144.95 92.1,-146.26 101.13,-151.79 102.61,-144.95"/>
</g>
<!-- Node7&#45;&gt;Node4 -->
<g id="edge10" class="edge">
<title>Node7&#45;&gt;Node4</title>
<path fill="none" stroke="#63b8ff" d="M428.41,-217.44C417.64,-226.22 402.55,-237.42 389.49,-246.33"/>
<polygon fill="#63b8ff" stroke="#63b8ff" points="387.67,-243.34 381.27,-251.78 391.54,-249.17 387.67,-243.34"/>
</g>
<!-- Node7&#45;&gt;Node5 -->
<g id="edge7" class="edge">
<title>Node7&#45;&gt;Node5</title>
<path fill="none" stroke="#63b8ff" d="M420.92,-186.8C405.67,-176.53 385.1,-162.67 369.53,-152.18"/>
<polygon fill="#63b8ff" stroke="#63b8ff" points="371.63,-149.37 361.38,-146.69 367.72,-155.18 371.63,-149.37"/>
</g>
<!-- Node7&#45;&gt;Node8 -->
<g id="edge11" class="edge">
<title>Node7&#45;&gt;Node8</title>
<path fill="none" stroke="#63b8ff" d="M509.49,-194.65C597.36,-186.47 755.38,-170.9 890,-151 896.21,-150.08 902.69,-149.02 909.19,-147.91"/>
<polygon fill="#63b8ff" stroke="#63b8ff" points="909.36,-151.43 918.61,-146.26 908.15,-144.54 909.36,-151.43"/>
</g>
<!-- Node7&#45;&gt;Node9 -->
<g id="edge14" class="edge">
<title>Node7&#45;&gt;Node9</title>
<path fill="none" stroke="#63b8ff" d="M498.64,-186.56C536.31,-176.95 585.96,-164.29 625.65,-154.17"/>
<polygon fill="#63b8ff" stroke="#63b8ff" points="626.27,-157.63 635.1,-151.76 624.54,-150.84 626.27,-157.63"/>
</g>
<!-- Node7&#45;&gt;Node11 -->
<g id="edge18" class="edge">
<title>Node7&#45;&gt;Node11</title>
<path fill="none" stroke="#63b8ff" d="M509.39,-190.39C572.49,-180.9 669.17,-166.17 753,-151 755,-150.64 757.04,-150.26 759.09,-149.88"/>
<polygon fill="#63b8ff" stroke="#63b8ff" points="759.59,-153.35 768.75,-148.03 758.27,-146.47 759.59,-153.35"/>
</g>
<!-- Node7&#45;&gt;Node12 -->
<g id="edge23" class="edge">
<title>Node7&#45;&gt;Node12</title>
<path fill="none" stroke="#63b8ff" d="M468.03,-186.64C484,-177.83 504.67,-166.42 522.18,-156.77"/>
<polygon fill="#63b8ff" stroke="#63b8ff" points="523.66,-159.94 530.73,-152.05 520.28,-153.81 523.66,-159.94"/>
</g>
<!-- Node7&#45;&gt;Node13 -->
<g id="edge24" class="edge">
<title>Node7&#45;&gt;Node13</title>
<path fill="none" stroke="#63b8ff" d="M378.7,-186.56C339.3,-176.97 288.89,-164.35 249.61,-154.24"/>
<polygon fill="#63b8ff" stroke="#63b8ff" points="250.61,-150.88 240.06,-151.77 248.86,-157.66 250.61,-150.88"/>
</g>
<!-- Node14 -->
<g id="node14" class="node">
<title>Node14</title>
<g id="a_node14"><a xlink:href="utils_2structures_8h.html" target="_top" xlink:title="Various utility&#45; and helper&#45;functions for secondary structure parsing, converting,...">
<polygon fill="white" stroke="#666666" points="535,-79.5 391,-79.5 391,-60.5 535,-60.5 535,-79.5"/>
<text text-anchor="middle" x="463" y="-67.5" font-family="Helvetica,sans-Serif" font-size="10.00">ViennaRNA/utils/structures.h</text>
</a>
</g>
</g>
<!-- Node7&#45;&gt;Node14 -->
<g id="edge30" class="edge">
<title>Node7&#45;&gt;Node14</title>
<path fill="none" stroke="#63b8ff" d="M439.9,-186.59C440.78,-163.19 448.08,-116.9 454.85,-90.56"/>
<polygon fill="#63b8ff" stroke="#63b8ff" points="458.15,-91.74 457.58,-81.16 451.43,-89.79 458.15,-91.74"/>
</g>
<!-- Node8&#45;&gt;Node2 -->
<g id="edge13" class="edge">
<title>Node8&#45;&gt;Node2</title>
<path fill="none" stroke="#63b8ff" d="M972.4,-145.75C960.77,-170.28 910.17,-240.03 849,-272 794.48,-300.5 725.26,-311.2 671.6,-315.02"/>
<polygon fill="#63b8ff" stroke="#63b8ff" points="671.67,-311.51 661.91,-315.64 672.11,-318.49 671.67,-311.51"/>
</g>
<!-- Node8&#45;&gt;Node7 -->
<g id="edge12" class="edge">
<title>Node8&#45;&gt;Node7</title>
<path fill="none" stroke="#63b8ff" d="M937.66,-145.99C928.05,-147.79 917.7,-149.57 908,-151 772.71,-171 613.78,-186.63 520.78,-194.78"/>
<polygon fill="#63b8ff" stroke="#63b8ff" points="520.66,-191.27 511,-195.62 521.26,-198.25 520.66,-191.27"/>
</g>
<!-- Node9&#45;&gt;Node2 -->
<g id="edge15" class="edge">
<title>Node9&#45;&gt;Node2</title>
<path fill="none" stroke="#63b8ff" d="M720.87,-151.3C761.39,-176.51 827.49,-230.15 794,-272 778.75,-291.05 722.03,-302.52 671.76,-309.02"/>
<polygon fill="#63b8ff" stroke="#63b8ff" points="671.48,-305.53 661.99,-310.23 672.34,-312.48 671.48,-305.53"/>
</g>
<!-- Node10 -->
<g id="node10" class="node">
<title>Node10</title>
<g id="a_node10"><a xlink:href="constraints_2basic_8h.html" target="_top" xlink:title="Functions and data structures for constraining secondary structure predictions and evaluation.">
<polygon fill="white" stroke="#666666" points="889.5,-85 770.5,-85 770.5,-55 889.5,-55 889.5,-85"/>
<text text-anchor="start" x="778.5" y="-73" font-family="Helvetica,sans-Serif" font-size="10.00">ViennaRNA/constraints</text>
<text text-anchor="middle" x="830" y="-62" font-family="Helvetica,sans-Serif" font-size="10.00">/basic.h</text>
</a>
</g>
</g>
<!-- Node9&#45;&gt;Node10 -->
<g id="edge16" class="edge">
<title>Node9&#45;&gt;Node10</title>
<path fill="none" stroke="#63b8ff" d="M723.75,-120.64C743.05,-111.62 768.17,-99.89 789.13,-90.09"/>
<polygon fill="#63b8ff" stroke="#63b8ff" points="790.41,-93.36 797.99,-85.96 787.44,-87.02 790.41,-93.36"/>
</g>
<!-- Node10&#45;&gt;Node2 -->
<g id="edge17" class="edge">
<title>Node10&#45;&gt;Node2</title>
<path fill="none" stroke="#63b8ff" d="M889.74,-70.94C965.67,-73.42 1083.19,-87.29 1050,-151 1006.65,-234.22 964.09,-237.08 877,-272 811.04,-298.44 730.85,-309.28 671.52,-313.67"/>
<polygon fill="#63b8ff" stroke="#63b8ff" points="671.57,-310.16 661.83,-314.34 672.05,-317.14 671.57,-310.16"/>
</g>
<!-- Node11&#45;&gt;Node2 -->
<g id="edge20" class="edge">
<title>Node11&#45;&gt;Node2</title>
<path fill="none" stroke="#63b8ff" d="M838.09,-151.46C846.61,-178.9 852.24,-238.74 821,-272 801.02,-293.27 730.18,-304.77 671.57,-310.72"/>
<polygon fill="#63b8ff" stroke="#63b8ff" points="671.53,-307.2 661.91,-311.65 672.2,-314.17 671.53,-307.2"/>
</g>
<!-- Node11&#45;&gt;Node7 -->
<g id="edge19" class="edge">
<title>Node11&#45;&gt;Node7</title>
<path fill="none" stroke="#63b8ff" d="M770.21,-151.14C685.25,-166.5 587.25,-181.39 520.54,-190.83"/>
<polygon fill="#63b8ff" stroke="#63b8ff" points="520.2,-187.35 510.79,-192.21 521.18,-194.28 520.2,-187.35"/>
</g>
<!-- Node11&#45;&gt;Node10 -->
<g id="edge21" class="edge">
<title>Node11&#45;&gt;Node10</title>
<path fill="none" stroke="#63b8ff" d="M830,-120.8C830,-113.67 830,-104.82 830,-96.56"/>
<polygon fill="#63b8ff" stroke="#63b8ff" points="833.5,-96.68 830,-86.68 826.5,-96.68 833.5,-96.68"/>
</g>
<!-- Node13&#45;&gt;Node2 -->
<g id="edge26" class="edge">
<title>Node13&#45;&gt;Node2</title>
<path fill="none" stroke="#63b8ff" d="M197.84,-151.36C214.12,-179.73 245.69,-242.74 294,-272 328.49,-292.89 428.71,-304.67 502.42,-310.79"/>
<polygon fill="#63b8ff" stroke="#63b8ff" points="501.79,-314.25 512.04,-311.56 502.35,-307.27 501.79,-314.25"/>
</g>
<!-- Node13&#45;&gt;Node7 -->
<g id="edge25" class="edge">
<title>Node13&#45;&gt;Node7</title>
<path fill="none" stroke="#63b8ff" d="M249.63,-151.28C289.04,-160.86 339.67,-173.54 379.13,-183.7"/>
<polygon fill="#63b8ff" stroke="#63b8ff" points="378.18,-187.07 388.74,-186.18 379.93,-180.29 378.18,-187.07"/>
</g>
<!-- Node13&#45;&gt;Node14 -->
<g id="edge27" class="edge">
<title>Node13&#45;&gt;Node14</title>
<path fill="none" stroke="#63b8ff" d="M249.28,-120.56C298.82,-109.07 367.22,-93.21 413.17,-82.55"/>
<polygon fill="#63b8ff" stroke="#63b8ff" points="413.92,-85.97 422.87,-80.3 412.34,-79.15 413.92,-85.97"/>
</g>
<!-- Node14&#45;&gt;Node7 -->
<g id="edge29" class="edge">
<title>Node14&#45;&gt;Node7</title>
<path fill="none" stroke="#63b8ff" d="M465.18,-79.71C465.5,-99.01 458.54,-146.01 451.61,-175.51"/>
<polygon fill="#63b8ff" stroke="#63b8ff" points="448.24,-174.57 449.14,-185.13 455.02,-176.31 448.24,-174.57"/>
</g>
<!-- Node15 -->
<g id="node15" class="node">
<title>Node15</title>
<g id="a_node15"><a xlink:title=" ">
<polygon fill="#e0e0e0" stroke="#999999" points="486,-19 440,-19 440,0 486,0 486,-19"/>
<text text-anchor="middle" x="463" y="-7" font-family="Helvetica,sans-Serif" font-size="10.00">stdio.h</text>
</a>
</g>
</g>
<!-- Node14&#45;&gt;Node15 -->
<g id="edge28" class="edge">
<title>Node14&#45;&gt;Node15</title>
<path fill="none" stroke="#63b8ff" d="M463,-60.37C463,-52.5 463,-40.6 463,-30.39"/>
<polygon fill="#63b8ff" stroke="#63b8ff" points="466.5,-30.68 463,-20.68 459.5,-30.68 466.5,-30.68"/>
</g>
<!-- Node16&#45;&gt;Node2 -->
<g id="edge34" class="edge">
<title>Node16&#45;&gt;Node2</title>
<path fill="none" stroke="#63b8ff" d="M592.21,-272.44C593.58,-278.97 594.04,-288.1 593.57,-296.35"/>
<polygon fill="#63b8ff" stroke="#63b8ff" points="590.1,-295.89 592.35,-306.25 597.05,-296.75 590.1,-295.89"/>
</g>
</g>
</svg>
        <g id="navigator" transform="translate(0 0)" fill="#404254">
                <rect fill="#f2f5e9" fill-opacity="0.5" stroke="#606060" stroke-width=".5" x="0" y="0" width="60" height="60"/>
                <use id="zoomplus" xlink:href="#zoomPlus" x="17" y="9" onmousedown="handleZoom(evt,'in')"/>
                <use id="zoomminus" xlink:href="#zoomMin" x="42" y="9" onmousedown="handleZoom(evt,'out')"/>
                <use id="reset" xlink:href="#resetDef" x="30" y="36" onmousedown="handleReset()"/>
                <g id="arrowUp" xlink:href="#dirArrow" transform="translate(30 24)" onmousedown="handlePan(0,-1)">
                  <use xlink:href="#rim" fill="#404040">
                        <set attributeName="fill" to="#808080" begin="arrowUp.mouseover" end="arrowUp.mouseout"/>
                  </use>
                  <path fill="none" stroke="white" stroke-width="1.5" d="M0,-3.0v7 M-2.5,-0.5L0,-3.0L2.5,-0.5"/>
                </g>
                <g id="arrowRight" xlink:href="#dirArrow" transform="rotate(90) translate(36 -43)" onmousedown="handlePan(1,0)">
                  <use xlink:href="#rim" fill="#404040">
                        <set attributeName="fill" to="#808080" begin="arrowRight.mouseover" end="arrowRight.mouseout"/>
                  </use>
                  <path fill="none" stroke="white" stroke-width="1.5" d="M0,-3.0v7 M-2.5,-0.5L0,-3.0L2.5,-0.5"/>
                </g>
                <g id="arrowDown" xlink:href="#dirArrow" transform="rotate(180) translate(-30 -48)" onmousedown="handlePan(0,1)">
                  <use xlink:href="#rim" fill="#404040">
                        <set attributeName="fill" to="#808080" begin="arrowDown.mouseover" end="arrowDown.mouseout"/>
                  </use>
                  <path fill="none" stroke="white" stroke-width="1.5" d="M0,-3.0v7 M-2.5,-0.5L0,-3.0L2.5,-0.5"/>
                </g>
                <g id="arrowLeft" xlink:href="#dirArrow" transform="rotate(270) translate(-36 17)" onmousedown="handlePan(-1,0)">
                  <use xlink:href="#rim" fill="#404040">
                        <set attributeName="fill" to="#808080" begin="arrowLeft.mouseover" end="arrowLeft.mouseout"/>
                  </use>
                  <path fill="none" stroke="white" stroke-width="1.5" d="M0,-3.0v7 M-2.5,-0.5L0,-3.0L2.5,-0.5"/>
                </g>
        </g>
        <svg viewBox="0 0 15 15" width="100%" height="30px" preserveAspectRatio="xMaxYMin meet">
         <g id="arrow_out" transform="scale(0.3 0.3)">
          <a xlink:href="grammar_8h__incl_org.svg" target="_base">
           <rect id="button" ry="5" rx="5" y="6" x="6" height="38" width="38"
                fill="#f2f5e9" fill-opacity="0.5" stroke="#606060" stroke-width="1.0"/>
           <path id="arrow"
             d="M 11.500037,31.436501 C 11.940474,20.09759 22.043105,11.32322 32.158766,21.979434 L 37.068811,17.246167 C 37.068811,17.246167 37.088388,32 37.088388,32 L 22.160133,31.978069 C 22.160133,31.978069 26.997745,27.140456 26.997745,27.140456 C 18.528582,18.264221 13.291696,25.230495 11.500037,31.436501 z"
             style="fill:#404040;"/>
          </a>
         </g>
        </svg>
</svg>
