<?xml version="1.0" encoding="UTF-8" standalone="no"?>
<!DOCTYPE svg PUBLIC "-//W3C//DTD SVG 1.1//EN"
 "http://www.w3.org/Graphics/SVG/1.1/DTD/svg11.dtd">
<!-- Generated by graphviz version 7.1.0 (0)
 -->
<!-- Title: (Re&#45;)folding Paths, Saddle Points, Energy Barriers, and Local Minima Pages: 1 -->
<svg width="502pt" height="179pt"
 viewBox="0.00 0.00 502.00 178.50" xmlns="http://www.w3.org/2000/svg" xmlns:xlink="http://www.w3.org/1999/xlink">
<g id="graph0" class="graph" transform="scale(1 1) rotate(0) translate(4 174.5)">
<title>(Re&#45;)folding Paths, Saddle Points, Energy Barriers, and Local Minima</title>
<!-- Node2 -->
<g id="node1" class="node">
<title>Node2</title>
<g id="a_node1"><a xlink:href="group__landscape.html" target="_top" xlink:title=" ">
<polygon fill="white" stroke="#666666" points="149,-94.5 0,-94.5 0,-64.5 149,-64.5 149,-94.5"/>
<text text-anchor="start" x="8" y="-82.5" font-family="Helvetica,sans-Serif" font-size="10.00">The RNA Secondary Structure</text>
<text text-anchor="middle" x="74.5" y="-71.5" font-family="Helvetica,sans-Serif" font-size="10.00"> Landscape</text>
</a>
</g>
</g>
<!-- Node1 -->
<g id="node2" class="node">
<title>Node1</title>
<g id="a_node2"><a xlink:title="API for various RNA folding path algorithms.">
<polygon fill="#999999" stroke="#666666" points="321,-100 185,-100 185,-59 321,-59 321,-100"/>
<text text-anchor="start" x="193" y="-88" font-family="Helvetica,sans-Serif" font-size="10.00">(Re&#45;)folding Paths,</text>
<text text-anchor="start" x="193" y="-77" font-family="Helvetica,sans-Serif" font-size="10.00"> Saddle Points, Energy</text>
<text text-anchor="middle" x="253" y="-66" font-family="Helvetica,sans-Serif" font-size="10.00"> Barriers, and Local Minima</text>
</a>
</g>
</g>
<!-- Node2&#45;&gt;Node1 -->
<g id="edge1" class="edge">
<title>Node2&#45;&gt;Node1</title>
<path fill="none" stroke="black" d="M160.66,-79.5C168.72,-79.5 176.81,-79.5 184.66,-79.5"/>
<polygon fill="black" stroke="black" points="160.84,-76 150.84,-79.5 160.84,-83 160.84,-76"/>
</g>
<!-- Node5 -->
<g id="node3" class="node">
<title>Node5</title>
<g id="a_node3"><a xlink:href="group__paths__deprecated.html" target="_top" xlink:title=" ">
<polygon fill="white" stroke="#666666" points="493.5,-170.5 357.5,-170.5 357.5,-118.5 493.5,-118.5 493.5,-170.5"/>
<text text-anchor="start" x="365.5" y="-158.5" font-family="Helvetica,sans-Serif" font-size="10.00">Deprecated Interface</text>
<text text-anchor="start" x="365.5" y="-147.5" font-family="Helvetica,sans-Serif" font-size="10.00"> for (Re&#45;)folding Paths,</text>
<text text-anchor="start" x="365.5" y="-136.5" font-family="Helvetica,sans-Serif" font-size="10.00"> Saddle Points, and Energy</text>
<text text-anchor="middle" x="425.5" y="-125.5" font-family="Helvetica,sans-Serif" font-size="10.00"> Barriers</text>
</a>
</g>
</g>
<!-- Node1&#45;&gt;Node5 -->
<g id="edge4" class="edge">
<title>Node1&#45;&gt;Node5</title>
<path fill="none" stroke="black" d="M319.55,-104.49C331.88,-109.19 344.79,-114.11 357.18,-118.84"/>
<polygon fill="black" stroke="black" points="320.89,-101.26 310.3,-100.96 318.4,-107.8 320.89,-101.26"/>
</g>
<!-- Node3 -->
<g id="node4" class="node">
<title>Node3</title>
<g id="a_node4"><a xlink:href="group__paths__direct.html" target="_top" xlink:title="Heuristics to explore direct, optimal (re&#45;)folding paths between two secondary structures.">
<polygon fill="white" stroke="#666666" points="488,-100 363,-100 363,-59 488,-59 488,-100"/>
<text text-anchor="start" x="371" y="-88" font-family="Helvetica,sans-Serif" font-size="10.00">Direct Refolding Paths</text>
<text text-anchor="start" x="371" y="-77" font-family="Helvetica,sans-Serif" font-size="10.00"> between two Secondary</text>
<text text-anchor="middle" x="425.5" y="-66" font-family="Helvetica,sans-Serif" font-size="10.00"> Structures</text>
</a>
</g>
</g>
<!-- Node1&#45;&gt;Node3 -->
<g id="edge2" class="edge">
<title>Node1&#45;&gt;Node3</title>
<path fill="none" stroke="black" d="M332.65,-79.5C342.69,-79.5 352.86,-79.5 362.59,-79.5"/>
<polygon fill="black" stroke="black" points="332.9,-76 322.9,-79.5 332.9,-83 332.9,-76"/>
</g>
<!-- Node4 -->
<g id="node5" class="node">
<title>Node4</title>
<g id="a_node5"><a xlink:href="group__paths__walk.html" target="_top" xlink:title="Implementation of gradient&#45; and random walks starting from a single secondary structure.">
<polygon fill="white" stroke="#666666" points="494,-41 357,-41 357,0 494,0 494,-41"/>
<text text-anchor="start" x="365" y="-29" font-family="Helvetica,sans-Serif" font-size="10.00">Folding Paths that</text>
<text text-anchor="start" x="365" y="-18" font-family="Helvetica,sans-Serif" font-size="10.00"> start at a single Secondary</text>
<text text-anchor="middle" x="425.5" y="-7" font-family="Helvetica,sans-Serif" font-size="10.00"> Structure</text>
</a>
</g>
</g>
<!-- Node1&#45;&gt;Node4 -->
<g id="edge3" class="edge">
<title>Node1&#45;&gt;Node4</title>
<path fill="none" stroke="black" d="M325.24,-54.85C338.06,-50.41 351.32,-45.82 363.82,-41.5"/>
<polygon fill="black" stroke="black" points="324.33,-51.46 316.02,-58.04 326.62,-58.08 324.33,-51.46"/>
</g>
</g>
</svg>
