<?xml version="1.0" encoding="UTF-8" standalone="no"?>
<!DOCTYPE svg PUBLIC "-//W3C//DTD SVG 1.1//EN"
 "http://www.w3.org/Graphics/SVG/1.1/DTD/svg11.dtd">
<!-- Generated by graphviz version 7.1.0 (0)
 -->
<!-- Title: Experimental Structure Probing Data Pages: 1 -->
<svg width="291pt" height="76pt"
 viewBox="0.00 0.00 291.00 75.50" xmlns="http://www.w3.org/2000/svg" xmlns:xlink="http://www.w3.org/1999/xlink">
<g id="graph0" class="graph" transform="scale(1 1) rotate(0) translate(4 71.5)">
<title>Experimental Structure Probing Data</title>
<!-- Node2 -->
<g id="node1" class="node">
<title>Node2</title>
<g id="a_node1"><a xlink:href="group__SHAPE__reactivities.html" target="_top" xlink:title="Incorporate SHAPE reactivity structure probing data into the folding recursions by means of soft cons...">
<polygon fill="white" stroke="#666666" points="278.5,-67.5 156.5,-67.5 156.5,-48.5 278.5,-48.5 278.5,-67.5"/>
<text text-anchor="middle" x="217.5" y="-55.5" font-family="Helvetica,sans-Serif" font-size="10.00">SHAPE Reactivity Data</text>
</a>
</g>
</g>
<!-- Node3 -->
<g id="node2" class="node">
<title>Node3</title>
<g id="a_node2"><a xlink:href="group__perturbation.html" target="_top" xlink:title="Find a vector of perturbation energies that minimizes the discripancies between predicted and observe...">
<polygon fill="white" stroke="#666666" points="283,-30 152,-30 152,0 283,0 283,-30"/>
<text text-anchor="start" x="160" y="-18" font-family="Helvetica,sans-Serif" font-size="10.00">Generate Soft Constraints</text>
<text text-anchor="middle" x="217.5" y="-7" font-family="Helvetica,sans-Serif" font-size="10.00"> from Data</text>
</a>
</g>
</g>
<!-- Node1 -->
<g id="node3" class="node">
<title>Node1</title>
<g id="a_node3"><a xlink:title="Include Experimental Structure Probing Data to Guide Structure Predictions.">
<polygon fill="#999999" stroke="#666666" points="116,-51 0,-51 0,-21 116,-21 116,-51"/>
<text text-anchor="start" x="8" y="-39" font-family="Helvetica,sans-Serif" font-size="10.00">Experimental Structure</text>
<text text-anchor="middle" x="58" y="-28" font-family="Helvetica,sans-Serif" font-size="10.00"> Probing Data</text>
</a>
</g>
</g>
<!-- Node1&#45;&gt;Node2 -->
<g id="edge1" class="edge">
<title>Node1&#45;&gt;Node2</title>
<path fill="none" stroke="black" d="M127.69,-45.59C137.13,-46.91 146.77,-48.26 156.05,-49.56"/>
<polygon fill="black" stroke="black" points="128.19,-42.13 117.81,-44.21 127.23,-49.06 128.19,-42.13"/>
</g>
<!-- Node1&#45;&gt;Node3 -->
<g id="edge2" class="edge">
<title>Node1&#45;&gt;Node3</title>
<path fill="none" stroke="black" d="M127.55,-26.86C135.59,-25.79 143.78,-24.7 151.77,-23.63"/>
<polygon fill="black" stroke="black" points="127.26,-23.37 117.81,-28.16 128.18,-30.31 127.26,-23.37"/>
</g>
</g>
</svg>
