<?xml version="1.0" encoding="UTF-8" standalone="no"?>
<!DOCTYPE svg PUBLIC "-//W3C//DTD SVG 1.1//EN"
 "http://www.w3.org/Graphics/SVG/1.1/DTD/svg11.dtd">
<!-- Generated by graphviz version 7.1.0 (0)
 -->
<!-- Title: Utilities Pages: 1 -->
<!--zoomable 700 -->
<svg id="main" version="1.1" xmlns="http://www.w3.org/2000/svg" xmlns:xlink="http://www.w3.org/1999/xlink" xml:space="preserve" onload="init(evt)">
<style type="text/css"><![CDATA[
.edge:hover path { stroke: red; }
.edge:hover polygon { stroke: red; fill: red; }
]]></style>
<script type="text/javascript"><![CDATA[
var edges = document.getElementsByTagName('g');
if (edges && edges.length) {
  for (var i=0;i<edges.length;i++) {
    if (edges[i].id.substr(0,4)=='edge') {
      edges[i].setAttribute('class','edge');
    }
  }
}
]]></script>
        <defs>
                <circle id="rim" cx="0" cy="0" r="7"/>
                <circle id="rim2" cx="0" cy="0" r="3.5"/>
                <g id="zoomPlus">
                        <use xlink:href="#rim" fill="#404040">
                                <set attributeName="fill" to="#808080" begin="zoomplus.mouseover" end="zoomplus.mouseout"/>
                        </use>
                        <path d="M-4,0h8M0,-4v8" fill="none" stroke="white" stroke-width="1.5" pointer-events="none"/>
                </g>
                <g id="zoomMin">
                        <use xlink:href="#rim" fill="#404040">
                                <set attributeName="fill" to="#808080" begin="zoomminus.mouseover" end="zoomminus.mouseout"/>
                        </use>
                        <path d="M-4,0h8" fill="none" stroke="white" stroke-width="1.5" pointer-events="none"/>
                </g>
                <g id="dirArrow">
                        <path fill="none" stroke="white" stroke-width="1.5" d="M0,-3.0v7 M-2.5,-0.5L0,-3.0L2.5,-0.5"/>
                </g>
               <g id="resetDef">
                       <use xlink:href="#rim2" fill="#404040">
                               <set attributeName="fill" to="#808080" begin="reset.mouseover" end="reset.mouseout"/>
                       </use>
               </g>
        </defs>

<script type="text/javascript">
var viewWidth = 326;
var viewHeight = 700;
var sectionId = 'dynsection-0';
</script>
<script xlink:href="svgpan.js"/>
<svg id="graph" class="graph">
<g id="viewport">
<title>Utilities</title>
<!-- Node5 -->
<g id="node1" class="node">
<title>Node5</title>
<g id="a_node1"><a xlink:href="group__aln__utils.html" target="_top" xlink:title="Functions to extract features from and to manipulate multiple sequence alignments.">
<polygon fill="white" stroke="#666666" points="315.5,-684.66 172.5,-684.66 172.5,-654.66 315.5,-654.66 315.5,-684.66"/>
<text text-anchor="start" x="180.5" y="-672.66" font-family="Helvetica,sans-Serif" font-size="10.00">Multiple Sequence Alignment</text>
<text text-anchor="middle" x="244" y="-661.66" font-family="Helvetica,sans-Serif" font-size="10.00"> Utilities</text>
</a>
</g>
</g>
<!-- Node2 -->
<g id="node2" class="node">
<title>Node2</title>
<g id="a_node2"><a xlink:href="group__alphabet__utils.html" target="_top" xlink:title="Functions to cope with various aspects related to the nucleotide sequence alphabet.">
<polygon fill="white" stroke="#666666" points="300,-618.66 188,-618.66 188,-588.66 300,-588.66 300,-618.66"/>
<text text-anchor="start" x="196" y="-606.66" font-family="Helvetica,sans-Serif" font-size="10.00">Utilities to deal with</text>
<text text-anchor="middle" x="244" y="-595.66" font-family="Helvetica,sans-Serif" font-size="10.00"> Nucleotide Alphabets</text>
</a>
</g>
</g>
<!-- Node15 -->
<g id="node3" class="node">
<title>Node15</title>
<g id="a_node3"><a xlink:href="group__buffer__utils.html" target="_top" xlink:title="Functions that provide dynamically buffered stream&#45;like data structures.">
<polygon fill="white" stroke="#666666" points="268,-551.16 220,-551.16 220,-532.16 268,-532.16 268,-551.16"/>
<text text-anchor="middle" x="244" y="-539.16" font-family="Helvetica,sans-Serif" font-size="10.00">Buffers</text>
</a>
</g>
</g>
<!-- Node9 -->
<g id="node4" class="node">
<title>Node9</title>
<g id="a_node4"><a xlink:href="group__combinatorics__utils.html" target="_top" xlink:title="Implementations to solve various combinatorial aspects for strings of objects.">
<polygon fill="white" stroke="#666666" points="308,-507.16 180,-507.16 180,-488.16 308,-488.16 308,-507.16"/>
<text text-anchor="middle" x="244" y="-495.16" font-family="Helvetica,sans-Serif" font-size="10.00">Combinatorics Algorithms</text>
</a>
</g>
</g>
<!-- Node13 -->
<g id="node5" class="node">
<title>Node13</title>
<g id="a_node5"><a xlink:href="group__command__files.html" target="_top" xlink:title="Functions to parse and interpret the content of Command Files.">
<polygon fill="white" stroke="#666666" points="287,-462.16 201,-462.16 201,-443.16 287,-443.16 287,-462.16"/>
<text text-anchor="middle" x="244" y="-450.16" font-family="Helvetica,sans-Serif" font-size="10.00">Command Files</text>
</a>
</g>
</g>
<!-- Node10 -->
<g id="node6" class="node">
<title>Node10</title>
<g id="a_node6"><a xlink:href="group__data__structures.html" target="_top" xlink:title="All datastructures and typedefs shared among the ViennaRNA Package can be found here.">
<polygon fill="white" stroke="#666666" points="309.5,-425.16 178.5,-425.16 178.5,-406.16 309.5,-406.16 309.5,-425.16"/>
<text text-anchor="middle" x="244" y="-413.16" font-family="Helvetica,sans-Serif" font-size="10.00">(Abstract) Data Structures</text>
</a>
</g>
</g>
<!-- Node14 -->
<g id="node7" class="node">
<title>Node14</title>
<g id="a_node7"><a xlink:href="group__file__formats__msa.html" target="_top" xlink:title="Functions to read/write multiple sequence alignments (MSA) in various file formats.">
<polygon fill="white" stroke="#666666" points="318,-388.16 170,-388.16 170,-369.16 318,-369.16 318,-388.16"/>
<text text-anchor="middle" x="244" y="-376.16" font-family="Helvetica,sans-Serif" font-size="10.00">Multiple Sequence Alignments</text>
</a>
</g>
</g>
<!-- Node6 -->
<g id="node8" class="node">
<title>Node6</title>
<g id="a_node8"><a xlink:href="group__file__utils.html" target="_top" xlink:title="Functions to parse, write, and convert various file formats and to deal with file system related issu...">
<polygon fill="white" stroke="#666666" points="280.5,-337.16 207.5,-337.16 207.5,-318.16 280.5,-318.16 280.5,-337.16"/>
<text text-anchor="middle" x="244" y="-325.16" font-family="Helvetica,sans-Serif" font-size="10.00">Files and I/O</text>
</a>
</g>
</g>
<!-- Node11 -->
<g id="node9" class="node">
<title>Node11</title>
<g id="a_node9"><a xlink:href="group__message__utils.html" target="_top" xlink:title="Functions to print various kind of messages.">
<polygon fill="white" stroke="#666666" points="275,-285.16 213,-285.16 213,-266.16 275,-266.16 275,-285.16"/>
<text text-anchor="middle" x="244" y="-273.16" font-family="Helvetica,sans-Serif" font-size="10.00">Messages</text>
</a>
</g>
</g>
<!-- Node7 -->
<g id="node10" class="node">
<title>Node7</title>
<g id="a_node10"><a xlink:href="group__plotting__utils.html" target="_top" xlink:title="Functions for Creating Secondary Structure Plots, Dot&#45;Plots, and More.">
<polygon fill="white" stroke="#666666" points="269,-241.16 219,-241.16 219,-222.16 269,-222.16 269,-241.16"/>
<text text-anchor="middle" x="244" y="-229.16" font-family="Helvetica,sans-Serif" font-size="10.00">Plotting</text>
</a>
</g>
</g>
<!-- Node8 -->
<g id="node11" class="node">
<title>Node8</title>
<g id="a_node11"><a xlink:href="group__search__utils.html" target="_top" xlink:title="Implementations of various search algorithms to detect strings of objects within other strings of obj...">
<polygon fill="white" stroke="#666666" points="292,-180.16 196,-180.16 196,-161.16 292,-161.16 292,-180.16"/>
<text text-anchor="middle" x="244" y="-168.16" font-family="Helvetica,sans-Serif" font-size="10.00">Search Algorithms</text>
</a>
</g>
</g>
<!-- Node3 -->
<g id="node12" class="node">
<title>Node3</title>
<g id="a_node12"><a xlink:href="group__string__utils.html" target="_top" xlink:title="Functions to parse, convert, manipulate, create, and compare (nucleic acid sequence) strings.">
<polygon fill="white" stroke="#666666" points="306,-142.66 182,-142.66 182,-112.66 306,-112.66 306,-142.66"/>
<text text-anchor="start" x="190" y="-130.66" font-family="Helvetica,sans-Serif" font-size="10.00">(Nucleic Acid Sequence)</text>
<text text-anchor="middle" x="244" y="-119.66" font-family="Helvetica,sans-Serif" font-size="10.00"> String Utilitites</text>
</a>
</g>
</g>
<!-- Node4 -->
<g id="node13" class="node">
<title>Node4</title>
<g id="a_node13"><a xlink:href="group__struct__utils.html" target="_top" xlink:title="Functions to create, parse, convert, manipulate, and compare secondary structure representations.">
<polygon fill="white" stroke="#666666" points="297,-88.66 191,-88.66 191,-58.66 297,-58.66 297,-88.66"/>
<text text-anchor="start" x="199" y="-76.66" font-family="Helvetica,sans-Serif" font-size="10.00">Secondary Structure</text>
<text text-anchor="middle" x="244" y="-65.66" font-family="Helvetica,sans-Serif" font-size="10.00"> Utilities</text>
</a>
</g>
</g>
<!-- Node12 -->
<g id="node14" class="node">
<title>Node12</title>
<g id="a_node14"><a xlink:href="group__units.html" target="_top" xlink:title="Functions to convert between various physical units.">
<polygon fill="white" stroke="#666666" points="287.5,-36.16 200.5,-36.16 200.5,-17.16 287.5,-17.16 287.5,-36.16"/>
<text text-anchor="middle" x="244" y="-24.16" font-family="Helvetica,sans-Serif" font-size="10.00">Unit Conversion</text>
</a>
</g>
</g>
<!-- Node1 -->
<g id="node15" class="node">
<title>Node1</title>
<g id="a_node15"><a xlink:title=" ">
<polygon fill="#999999" stroke="#666666" points="50,-342.16 0,-342.16 0,-323.16 50,-323.16 50,-342.16"/>
<text text-anchor="middle" x="25" y="-330.16" font-family="Helvetica,sans-Serif" font-size="10.00">Utilities</text>
</a>
</g>
</g>
<!-- Node1&#45;&gt;Node5 -->
<g id="edge4" class="edge">
<title>Node1&#45;&gt;Node5</title>
<path fill="none" stroke="black" d="M27.04,-353.56C30.73,-423.74 44.31,-647.62 68,-668.66 101.74,-698.61 155.22,-694.15 194.19,-685.12"/>
<polygon fill="black" stroke="black" points="30.55,-353.65 26.54,-343.85 23.56,-354.01 30.55,-353.65"/>
</g>
<!-- Node1&#45;&gt;Node5 -->
<g id="edge18" class="edge">
<title>Node1&#45;&gt;Node5</title>
<path fill="none" stroke="darkgreen" stroke-dasharray="5,2" d="M25.91,-342.61C25.72,-389.77 27.31,-590.26 68,-633.66 75.43,-641.58 127.07,-651.6 172.34,-659.06"/>
<text text-anchor="middle" x="110" y="-657.66" font-family="Helvetica,sans-Serif" font-size="10.00">alignments.h</text>
</g>
<!-- Node1&#45;&gt;Node2 -->
<g id="edge1" class="edge">
<title>Node1&#45;&gt;Node2</title>
<path fill="none" stroke="black" d="M25.83,-353.76C25.85,-412.62 29.43,-576.49 68,-609.66 104.77,-641.27 163.65,-631.16 202.82,-619.05"/>
<polygon fill="black" stroke="black" points="29.33,-354.12 25.87,-344.1 22.33,-354.09 29.33,-354.12"/>
</g>
<!-- Node1&#45;&gt;Node2 -->
<g id="edge12" class="edge">
<title>Node1&#45;&gt;Node2</title>
<path fill="none" stroke="darkgreen" stroke-dasharray="5,2" d="M26.38,-342.65C28.13,-382.84 36.67,-532.04 68,-564.66 68.54,-565.22 136.76,-580.31 187.86,-591.55"/>
<text text-anchor="middle" x="110" y="-596.66" font-family="Helvetica,sans-Serif" font-size="10.00">alphabet.h</text>
<text text-anchor="middle" x="110" y="-585.66" font-family="Helvetica,sans-Serif" font-size="10.00">sequence.h</text>
</g>
<!-- Node1&#45;&gt;Node15 -->
<g id="edge22" class="edge">
<title>Node1&#45;&gt;Node15</title>
<path fill="none" stroke="darkgreen" stroke-dasharray="5,2" d="M26.73,-342.18C29.57,-376.81 41.15,-495.27 68,-519.66 89.76,-539.42 177.32,-541.91 219.74,-541.92"/>
<text text-anchor="middle" x="110" y="-552.66" font-family="Helvetica,sans-Serif" font-size="10.00">char_stream.h</text>
<text text-anchor="middle" x="110" y="-541.66" font-family="Helvetica,sans-Serif" font-size="10.00">stream_output.h</text>
</g>
<!-- Node1&#45;&gt;Node9 -->
<g id="edge8" class="edge">
<title>Node1&#45;&gt;Node9</title>
<path fill="none" stroke="black" d="M28.3,-353.49C33.16,-393.17 45.86,-477.22 68,-494.66 108.7,-526.71 172.81,-517.4 211.1,-507.6"/>
<polygon fill="black" stroke="black" points="31.81,-353.34 27.17,-343.81 24.85,-354.15 31.81,-353.34"/>
</g>
<!-- Node1&#45;&gt;Node9 -->
<g id="edge13" class="edge">
<title>Node1&#45;&gt;Node9</title>
<path fill="none" stroke="darkgreen" stroke-dasharray="5,2" d="M26.1,-342.41C26.9,-366.43 32.48,-428.8 68,-460.66 72.62,-464.8 139.83,-478.22 189.58,-487.7"/>
<text text-anchor="middle" x="110" y="-481.66" font-family="Helvetica,sans-Serif" font-size="10.00">combinatorics.h</text>
</g>
<!-- Node1&#45;&gt;Node13 -->
<g id="edge15" class="edge">
<title>Node1&#45;&gt;Node13</title>
<path fill="none" stroke="darkgreen" stroke-dasharray="5,2" d="M28.13,-342.5C32.44,-359.93 43.91,-396.13 68,-414.66 106.2,-444.04 162.29,-451.77 200.61,-453.3"/>
<text text-anchor="middle" x="110" y="-449.66" font-family="Helvetica,sans-Serif" font-size="10.00">commands.h</text>
</g>
<!-- Node1&#45;&gt;Node10 -->
<g id="edge9" class="edge">
<title>Node1&#45;&gt;Node10</title>
<path fill="none" stroke="black" d="M35.67,-352.4C42.84,-364.85 53.81,-380.15 68,-388.66 100.96,-408.42 143.45,-415.32 178.31,-417.21"/>
<polygon fill="black" stroke="black" points="38.86,-350.94 31.08,-343.76 32.68,-354.23 38.86,-350.94"/>
</g>
<!-- Node1&#45;&gt;Node14 -->
<g id="edge16" class="edge">
<title>Node1&#45;&gt;Node14</title>
<path fill="none" stroke="darkgreen" stroke-dasharray="5,2" d="M39.29,-342.53C47.22,-347.91 57.72,-354.16 68,-357.66 100.3,-368.65 137.66,-374.05 169.55,-376.65"/>
<text text-anchor="middle" x="110" y="-376.66" font-family="Helvetica,sans-Serif" font-size="10.00">file_formats_msa.h</text>
</g>
<!-- Node1&#45;&gt;Node6 -->
<g id="edge5" class="edge">
<title>Node1&#45;&gt;Node6</title>
<path fill="none" stroke="black" d="M61.36,-341.69C63.59,-342.07 65.82,-342.4 68,-342.66 105.08,-347.01 114.79,-345.7 152,-342.66 170.35,-341.15 190.58,-337.97 207.29,-334.93"/>
<polygon fill="black" stroke="black" points="62.24,-338.3 51.74,-339.75 60.85,-345.16 62.24,-338.3"/>
</g>
<!-- Node1&#45;&gt;Node6 -->
<g id="edge14" class="edge">
<title>Node1&#45;&gt;Node6</title>
<path fill="none" stroke="darkgreen" stroke-dasharray="5,2" d="M37.23,-322.88C45.21,-316.61 56.52,-309.03 68,-305.66 119.12,-290.64 181.6,-306.2 216.37,-317.71"/>
<text text-anchor="middle" x="110" y="-330.66" font-family="Helvetica,sans-Serif" font-size="10.00">commands.h</text>
<text text-anchor="middle" x="110" y="-319.66" font-family="Helvetica,sans-Serif" font-size="10.00">file_formats_msa.h</text>
<text text-anchor="middle" x="110" y="-308.66" font-family="Helvetica,sans-Serif" font-size="10.00">utils.h</text>
</g>
<!-- Node1&#45;&gt;Node11 -->
<g id="edge10" class="edge">
<title>Node1&#45;&gt;Node11</title>
<path fill="none" stroke="black" d="M41.35,-314.42C48.64,-307.02 57.94,-299.17 68,-294.66 115.26,-273.45 176.66,-272 212.75,-273.43"/>
<polygon fill="black" stroke="black" points="39,-311.81 34.83,-321.55 44.16,-316.53 39,-311.81"/>
</g>
<!-- Node1&#45;&gt;Node7 -->
<g id="edge6" class="edge">
<title>Node1&#45;&gt;Node7</title>
<path fill="none" stroke="black" d="M34.48,-312.91C41.48,-298.99 52.73,-281.04 68,-270.66 114.58,-238.97 182.78,-232.59 218.74,-231.58"/>
<polygon fill="black" stroke="black" points="31.48,-311.07 30.43,-321.62 37.82,-314.03 31.48,-311.07"/>
</g>
<!-- Node1&#45;&gt;Node7 -->
<g id="edge17" class="edge">
<title>Node1&#45;&gt;Node7</title>
<path fill="none" stroke="darkgreen" stroke-dasharray="5,2" d="M26.33,-322.92C27.67,-300.76 34.39,-246.72 68,-223.66 113.51,-192.42 182.45,-209.5 218.73,-222.08"/>
<text text-anchor="middle" x="110" y="-226.66" font-family="Helvetica,sans-Serif" font-size="10.00">utils.h</text>
</g>
<!-- Node1&#45;&gt;Node8 -->
<g id="edge7" class="edge">
<title>Node1&#45;&gt;Node8</title>
<path fill="none" stroke="black" d="M26.74,-311.57C28.93,-283.13 37.23,-232.88 68,-205.66 86.62,-189.18 150.68,-179.61 195.88,-174.76"/>
<polygon fill="black" stroke="black" points="23.25,-311.26 26.19,-321.44 30.24,-311.65 23.25,-311.26"/>
</g>
<!-- Node1&#45;&gt;Node8 -->
<g id="edge21" class="edge">
<title>Node1&#45;&gt;Node8</title>
<path fill="none" stroke="darkgreen" stroke-dasharray="5,2" d="M26.94,-322.7C30.26,-289.78 42.65,-185.42 68,-165.66 87.18,-150.71 150.74,-156.4 195.72,-162.77"/>
<text text-anchor="middle" x="110" y="-168.66" font-family="Helvetica,sans-Serif" font-size="10.00">BoyerMoore.h</text>
</g>
<!-- Node1&#45;&gt;Node3 -->
<g id="edge2" class="edge">
<title>Node1&#45;&gt;Node3</title>
<path fill="none" stroke="black" d="M27.92,-311.71C32.3,-268.79 44.52,-173.08 68,-151.66 98.25,-124.07 144.54,-118.72 181.91,-119.93"/>
<polygon fill="black" stroke="black" points="24.45,-311.18 26.97,-321.47 31.42,-311.85 24.45,-311.18"/>
</g>
<!-- Node1&#45;&gt;Node3 -->
<g id="edge19" class="edge">
<title>Node1&#45;&gt;Node3</title>
<path fill="none" stroke="darkgreen" stroke-dasharray="5,2" d="M26.23,-322.68C27.39,-282.57 33.95,-133.98 68,-105.66 85.83,-90.82 143.85,-101.25 188.24,-112.24"/>
<text text-anchor="middle" x="110" y="-108.66" font-family="Helvetica,sans-Serif" font-size="10.00">strings.h</text>
</g>
<!-- Node1&#45;&gt;Node4 -->
<g id="edge3" class="edge">
<title>Node1&#45;&gt;Node4</title>
<path fill="none" stroke="black" d="M26.59,-311.57C28.53,-258.83 36.55,-123.27 68,-93.66 100.17,-63.36 151.78,-60.9 190.63,-64.49"/>
<polygon fill="black" stroke="black" points="23.1,-311.2 26.27,-321.31 30.1,-311.43 23.1,-311.2"/>
</g>
<!-- Node1&#45;&gt;Node12 -->
<g id="edge11" class="edge">
<title>Node1&#45;&gt;Node12</title>
<path fill="none" stroke="black" d="M26.29,-311.35C27.52,-254.01 34,-98.35 68,-62.66 85.81,-43.96 154.48,-34.35 200.32,-29.92"/>
<polygon fill="black" stroke="black" points="22.79,-311.28 26.11,-321.34 29.79,-311.41 22.79,-311.28"/>
</g>
<!-- Node1&#45;&gt;Node12 -->
<g id="edge20" class="edge">
<title>Node1&#45;&gt;Node12</title>
<path fill="none" stroke="darkgreen" stroke-dasharray="5,2" d="M25.69,-322.84C24.41,-274.47 21.54,-62.26 68,-21.66 109.88,14.95 181.31,-3.34 218.64,-16.74"/>
<text text-anchor="middle" x="110" y="-24.66" font-family="Helvetica,sans-Serif" font-size="10.00">units.h</text>
</g>
</g>
</svg>
        <g id="navigator" transform="translate(0 0)" fill="#404254">
                <rect fill="#f2f5e9" fill-opacity="0.5" stroke="#606060" stroke-width=".5" x="0" y="0" width="60" height="60"/>
                <use id="zoomplus" xlink:href="#zoomPlus" x="17" y="9" onmousedown="handleZoom(evt,'in')"/>
                <use id="zoomminus" xlink:href="#zoomMin" x="42" y="9" onmousedown="handleZoom(evt,'out')"/>
                <use id="reset" xlink:href="#resetDef" x="30" y="36" onmousedown="handleReset()"/>
                <g id="arrowUp" xlink:href="#dirArrow" transform="translate(30 24)" onmousedown="handlePan(0,-1)">
                  <use xlink:href="#rim" fill="#404040">
                        <set attributeName="fill" to="#808080" begin="arrowUp.mouseover" end="arrowUp.mouseout"/>
                  </use>
                  <path fill="none" stroke="white" stroke-width="1.5" d="M0,-3.0v7 M-2.5,-0.5L0,-3.0L2.5,-0.5"/>
                </g>
                <g id="arrowRight" xlink:href="#dirArrow" transform="rotate(90) translate(36 -43)" onmousedown="handlePan(1,0)">
                  <use xlink:href="#rim" fill="#404040">
                        <set attributeName="fill" to="#808080" begin="arrowRight.mouseover" end="arrowRight.mouseout"/>
                  </use>
                  <path fill="none" stroke="white" stroke-width="1.5" d="M0,-3.0v7 M-2.5,-0.5L0,-3.0L2.5,-0.5"/>
                </g>
                <g id="arrowDown" xlink:href="#dirArrow" transform="rotate(180) translate(-30 -48)" onmousedown="handlePan(0,1)">
                  <use xlink:href="#rim" fill="#404040">
                        <set attributeName="fill" to="#808080" begin="arrowDown.mouseover" end="arrowDown.mouseout"/>
                  </use>
                  <path fill="none" stroke="white" stroke-width="1.5" d="M0,-3.0v7 M-2.5,-0.5L0,-3.0L2.5,-0.5"/>
                </g>
                <g id="arrowLeft" xlink:href="#dirArrow" transform="rotate(270) translate(-36 17)" onmousedown="handlePan(-1,0)">
                  <use xlink:href="#rim" fill="#404040">
                        <set attributeName="fill" to="#808080" begin="arrowLeft.mouseover" end="arrowLeft.mouseout"/>
                  </use>
                  <path fill="none" stroke="white" stroke-width="1.5" d="M0,-3.0v7 M-2.5,-0.5L0,-3.0L2.5,-0.5"/>
                </g>
        </g>
        <svg viewBox="0 0 15 15" width="100%" height="30px" preserveAspectRatio="xMaxYMin meet">
         <g id="arrow_out" transform="scale(0.3 0.3)">
          <a xlink:href="group__utils_org.svg" target="_base">
           <rect id="button" ry="5" rx="5" y="6" x="6" height="38" width="38"
                fill="#f2f5e9" fill-opacity="0.5" stroke="#606060" stroke-width="1.0"/>
           <path id="arrow"
             d="M 11.500037,31.436501 C 11.940474,20.09759 22.043105,11.32322 32.158766,21.979434 L 37.068811,17.246167 C 37.068811,17.246167 37.088388,32 37.088388,32 L 22.160133,31.978069 C 22.160133,31.978069 26.997745,27.140456 26.997745,27.140456 C 18.528582,18.264221 13.291696,25.230495 11.500037,31.436501 z"
             style="fill:#404040;"/>
          </a>
         </g>
        </svg>
</svg>
