<?xml version="1.0" encoding="UTF-8" standalone="no"?>
<!DOCTYPE svg PUBLIC "-//W3C//DTD SVG 1.1//EN"
 "http://www.w3.org/Graphics/SVG/1.1/DTD/svg11.dtd">
<!-- Generated by graphviz version 7.1.0 (0)
 -->
<!-- Title: RNA&#45;RNA Interaction Pages: 1 -->
<svg width="362pt" height="177pt"
 viewBox="0.00 0.00 362.00 176.50" xmlns="http://www.w3.org/2000/svg" xmlns:xlink="http://www.w3.org/1999/xlink">
<g id="graph0" class="graph" transform="scale(1 1) rotate(0) translate(4 172.5)">
<title>RNA&#45;RNA Interaction</title>
<!-- Node1 -->
<g id="node1" class="node">
<title>Node1</title>
<g id="a_node1"><a xlink:title=" ">
<polygon fill="#999999" stroke="#666666" points="111,-111.5 0,-111.5 0,-92.5 111,-92.5 111,-111.5"/>
<text text-anchor="middle" x="55.5" y="-99.5" font-family="Helvetica,sans-Serif" font-size="10.00">RNA&#45;RNA Interaction</text>
</a>
</g>
</g>
<!-- Node2 -->
<g id="node2" class="node">
<title>Node2</title>
<g id="a_node2"><a xlink:href="group__pf__cofold.html" target="_top" xlink:title="Partition Function Cofolding.">
<polygon fill="white" stroke="#666666" points="337.5,-168.5 236.5,-168.5 236.5,-127.5 337.5,-127.5 337.5,-168.5"/>
<text text-anchor="start" x="244.5" y="-156.5" font-family="Helvetica,sans-Serif" font-size="10.00">Partition Function</text>
<text text-anchor="start" x="244.5" y="-145.5" font-family="Helvetica,sans-Serif" font-size="10.00"> for Two Hybridized</text>
<text text-anchor="middle" x="287" y="-134.5" font-family="Helvetica,sans-Serif" font-size="10.00"> Sequences</text>
</a>
</g>
</g>
<!-- Node1&#45;&gt;Node2 -->
<g id="edge1" class="edge">
<title>Node1&#45;&gt;Node2</title>
<path fill="none" stroke="black" d="M79.36,-118.24C93.06,-127.02 111.23,-137.06 129,-142 163.95,-151.72 204.96,-152.96 236.3,-151.91"/>
<polygon fill="black" stroke="black" points="81.35,-115.36 71.09,-112.72 77.46,-121.18 81.35,-115.36"/>
</g>
<!-- Node1&#45;&gt;Node2 -->
<g id="edge4" class="edge">
<title>Node1&#45;&gt;Node2</title>
<path fill="none" stroke="darkgreen" stroke-dasharray="5,2" d="M111.3,-103.8C138.81,-105.58 172.47,-109.09 202,-116 213.85,-118.77 226.28,-122.83 237.83,-127.13"/>
<text text-anchor="middle" x="165.5" y="-130" font-family="Helvetica,sans-Serif" font-size="10.00">concentrations.h</text>
<text text-anchor="middle" x="165.5" y="-119" font-family="Helvetica,sans-Serif" font-size="10.00">part_func_up.h</text>
</g>
<!-- Node4 -->
<g id="node3" class="node">
<title>Node4</title>
<g id="a_node3"><a xlink:href="group__pf__fold.html" target="_top" xlink:title="Compute the partition function to assess various equilibrium properties.">
<polygon fill="white" stroke="#666666" points="354,-100 220,-100 220,-70 354,-70 354,-100"/>
<text text-anchor="start" x="228" y="-88" font-family="Helvetica,sans-Serif" font-size="10.00">Partition Function</text>
<text text-anchor="middle" x="287" y="-77" font-family="Helvetica,sans-Serif" font-size="10.00"> and Equilibrium Properties</text>
</a>
</g>
</g>
<!-- Node1&#45;&gt;Node4 -->
<g id="edge3" class="edge">
<title>Node1&#45;&gt;Node4</title>
<path fill="none" stroke="darkgreen" stroke-dasharray="5,2" d="M94.63,-92.01C105.64,-89.55 117.73,-87.27 129,-86 158.66,-82.67 191.67,-82.01 219.74,-82.34"/>
<text text-anchor="middle" x="165.5" y="-89" font-family="Helvetica,sans-Serif" font-size="10.00">concentrations.h</text>
</g>
<!-- Node3 -->
<g id="node4" class="node">
<title>Node3</title>
<g id="a_node4"><a xlink:href="group__up__cofold.html" target="_top" xlink:title="RNA&#45;RNA interaction as a stepwise process.">
<polygon fill="white" stroke="#666666" points="354,-52 220,-52 220,0 354,0 354,-52"/>
<text text-anchor="start" x="228" y="-40" font-family="Helvetica,sans-Serif" font-size="10.00">Partition Function</text>
<text text-anchor="start" x="228" y="-29" font-family="Helvetica,sans-Serif" font-size="10.00"> for two Hybridized</text>
<text text-anchor="start" x="228" y="-18" font-family="Helvetica,sans-Serif" font-size="10.00"> Sequences as a Stepwise</text>
<text text-anchor="middle" x="287" y="-7" font-family="Helvetica,sans-Serif" font-size="10.00"> Process</text>
</a>
</g>
</g>
<!-- Node1&#45;&gt;Node3 -->
<g id="edge2" class="edge">
<title>Node1&#45;&gt;Node3</title>
<path fill="none" stroke="black" d="M97.4,-88.45C131.34,-77.22 180.26,-61.02 219.77,-47.93"/>
<polygon fill="black" stroke="black" points="96.33,-85.12 87.94,-91.59 98.53,-91.77 96.33,-85.12"/>
</g>
</g>
</svg>
