<?xml version="1.0" encoding="UTF-8" standalone="no"?>
<!DOCTYPE svg PUBLIC "-//W3C//DTD SVG 1.1//EN"
 "http://www.w3.org/Graphics/SVG/1.1/DTD/svg11.dtd">
<!-- Generated by graphviz version 7.1.0 (0)
 -->
<!-- Title: (Abstract) Data Structures Pages: 1 -->
<svg width="427pt" height="226pt"
 viewBox="0.00 0.00 427.00 226.00" xmlns="http://www.w3.org/2000/svg" xmlns:xlink="http://www.w3.org/1999/xlink">
<g id="graph0" class="graph" transform="scale(1 1) rotate(0) translate(4 222)">
<title>(Abstract) Data Structures</title>
<!-- Node7 -->
<g id="node1" class="node">
<title>Node7</title>
<g id="a_node1"><a xlink:href="group__array__utils.html" target="_top" xlink:title="Interface for an abstract implementation of an array data structure.">
<polygon fill="white" stroke="#666666" points="373.5,-218 328.5,-218 328.5,-199 373.5,-199 373.5,-218"/>
<text text-anchor="middle" x="351" y="-206" font-family="Helvetica,sans-Serif" font-size="10.00">Arrays</text>
</a>
</g>
</g>
<!-- Node8 -->
<g id="node2" class="node">
<title>Node8</title>
<g id="a_node2"><a xlink:href="group__buffer__utils.html" target="_top" xlink:title="Functions that provide dynamically buffered stream&#45;like data structures.">
<polygon fill="white" stroke="#666666" points="375,-179 327,-179 327,-160 375,-160 375,-179"/>
<text text-anchor="middle" x="351" y="-167" font-family="Helvetica,sans-Serif" font-size="10.00">Buffers</text>
</a>
</g>
</g>
<!-- Node1 -->
<g id="node3" class="node">
<title>Node1</title>
<g id="a_node3"><a xlink:title="All datastructures and typedefs shared among the ViennaRNA Package can be found here.">
<polygon fill="#999999" stroke="#666666" points="218,-136 87,-136 87,-117 218,-117 218,-136"/>
<text text-anchor="middle" x="152.5" y="-124" font-family="Helvetica,sans-Serif" font-size="10.00">(Abstract) Data Structures</text>
</a>
</g>
</g>
<!-- Node1&#45;&gt;Node7 -->
<g id="edge6" class="edge">
<title>Node1&#45;&gt;Node7</title>
<path fill="none" stroke="black" d="M168.82,-144.62C184.02,-161.22 208.9,-184.91 236,-196.5 266.01,-209.34 304.35,-210.65 328.04,-209.94"/>
<polygon fill="black" stroke="black" points="171.67,-142.56 162.43,-137.39 166.43,-147.2 171.67,-142.56"/>
</g>
<!-- Node1&#45;&gt;Node7 -->
<g id="edge8" class="edge">
<title>Node1&#45;&gt;Node7</title>
<path fill="none" stroke="darkgreen" stroke-dasharray="5,2" d="M171.97,-136.48C196.73,-149.59 242.3,-172.79 283,-188.5 297.84,-194.23 315.03,-199.33 328.29,-202.95"/>
<text text-anchor="middle" x="250.5" y="-183.5" font-family="Helvetica,sans-Serif" font-size="10.00">array.h</text>
</g>
<!-- Node1&#45;&gt;Node8 -->
<g id="edge7" class="edge">
<title>Node1&#45;&gt;Node8</title>
<path fill="none" stroke="black" d="M210.2,-138.91C248.91,-147.38 298.17,-158.16 326.69,-164.4"/>
<polygon fill="black" stroke="black" points="211.07,-135.52 200.55,-136.8 209.57,-142.35 211.07,-135.52"/>
</g>
<!-- Node4 -->
<g id="node4" class="node">
<title>Node4</title>
<g id="a_node4"><a xlink:href="group__dp__matrices.html" target="_top" xlink:title="This module provides interfaces that deal with creation and destruction of dynamic programming matric...">
<polygon fill="white" stroke="#666666" points="419,-141.5 283,-141.5 283,-111.5 419,-111.5 419,-141.5"/>
<text text-anchor="start" x="291" y="-129.5" font-family="Helvetica,sans-Serif" font-size="10.00">The Dynamic Programming</text>
<text text-anchor="middle" x="351" y="-118.5" font-family="Helvetica,sans-Serif" font-size="10.00"> Matrices</text>
</a>
</g>
</g>
<!-- Node1&#45;&gt;Node4 -->
<g id="edge3" class="edge">
<title>Node1&#45;&gt;Node4</title>
<path fill="none" stroke="black" d="M229.73,-126.5C247.24,-126.5 265.73,-126.5 282.83,-126.5"/>
<polygon fill="black" stroke="black" points="229.9,-123 219.9,-126.5 229.9,-130 229.9,-123"/>
</g>
<!-- Node3 -->
<g id="node5" class="node">
<title>Node3</title>
<g id="a_node5"><a xlink:href="group__fold__compound.html" target="_top" xlink:title="This module provides interfaces that deal with the most basic data structure used in structure predic...">
<polygon fill="white" stroke="#666666" points="403.5,-93 298.5,-93 298.5,-74 403.5,-74 403.5,-93"/>
<text text-anchor="middle" x="351" y="-81" font-family="Helvetica,sans-Serif" font-size="10.00">The Fold Compound</text>
</a>
</g>
</g>
<!-- Node1&#45;&gt;Node3 -->
<g id="edge2" class="edge">
<title>Node1&#45;&gt;Node3</title>
<path fill="none" stroke="black" d="M210.19,-114.09C240.08,-107.55 276.27,-99.64 304.33,-93.49"/>
<polygon fill="black" stroke="black" points="209.57,-110.65 200.55,-116.2 211.07,-117.48 209.57,-110.65"/>
</g>
<!-- Node5 -->
<g id="node6" class="node">
<title>Node5</title>
<g id="a_node6"><a xlink:href="group__hash__table__utils.html" target="_top" xlink:title="Various implementations of hash table functions.">
<polygon fill="white" stroke="#666666" points="386.5,-56 315.5,-56 315.5,-37 386.5,-37 386.5,-56"/>
<text text-anchor="middle" x="351" y="-44" font-family="Helvetica,sans-Serif" font-size="10.00">Hash Tables</text>
</a>
</g>
</g>
<!-- Node1&#45;&gt;Node5 -->
<g id="edge4" class="edge">
<title>Node1&#45;&gt;Node5</title>
<path fill="none" stroke="black" d="M181.3,-111.34C207.1,-97.73 246.84,-77.88 283,-64.5 293.28,-60.7 304.72,-57.32 315.19,-54.55"/>
<polygon fill="black" stroke="black" points="179.99,-108.07 172.82,-115.87 183.29,-114.25 179.99,-108.07"/>
</g>
<!-- Node6 -->
<g id="node7" class="node">
<title>Node6</title>
<g id="a_node7"><a xlink:href="group__heap__utils.html" target="_top" xlink:title="Interface for an abstract implementation of a heap data structure.">
<polygon fill="white" stroke="#666666" points="373.5,-19 328.5,-19 328.5,0 373.5,0 373.5,-19"/>
<text text-anchor="middle" x="351" y="-7" font-family="Helvetica,sans-Serif" font-size="10.00">Heaps</text>
</a>
</g>
</g>
<!-- Node1&#45;&gt;Node6 -->
<g id="edge5" class="edge">
<title>Node1&#45;&gt;Node6</title>
<path fill="none" stroke="black" d="M171.65,-108.86C195.36,-86.75 239.07,-49.13 283,-27.5 297.26,-20.48 314.63,-15.91 328.11,-13.13"/>
<polygon fill="black" stroke="black" points="169.25,-106.31 164.4,-115.73 174.07,-111.39 169.25,-106.31"/>
</g>
<!-- Node2 -->
<g id="node8" class="node">
<title>Node2</title>
<g id="a_node8"><a xlink:href="group__utils.html" target="_top" xlink:title=" ">
<polygon fill="white" stroke="#666666" points="50,-136 0,-136 0,-117 50,-117 50,-136"/>
<text text-anchor="middle" x="25" y="-124" font-family="Helvetica,sans-Serif" font-size="10.00">Utilities</text>
</a>
</g>
</g>
<!-- Node2&#45;&gt;Node1 -->
<g id="edge1" class="edge">
<title>Node2&#45;&gt;Node1</title>
<path fill="none" stroke="black" d="M61.76,-126.5C69.59,-126.5 78.11,-126.5 86.68,-126.5"/>
<polygon fill="black" stroke="black" points="62.01,-123 52.01,-126.5 62.01,-130 62.01,-123"/>
</g>
</g>
</svg>
