<?xml version="1.0" encoding="UTF-8" standalone="no"?>
<!DOCTYPE svg PUBLIC "-//W3C//DTD SVG 1.1//EN"
 "http://www.w3.org/Graphics/SVG/1.1/DTD/svg11.dtd">
<!-- Generated by graphviz version 7.1.0 (0)
 -->
<!-- Title: Partition Function for Two Hybridized Sequences Pages: 1 -->
<svg width="572pt" height="53pt"
 viewBox="0.00 0.00 572.00 53.08" xmlns="http://www.w3.org/2000/svg" xmlns:xlink="http://www.w3.org/1999/xlink">
<g id="graph0" class="graph" transform="scale(1 1) rotate(0) translate(4 49.08)">
<title>Partition Function for Two Hybridized Sequences</title>
<!-- Node2 -->
<g id="node1" class="node">
<title>Node2</title>
<g id="a_node1"><a xlink:href="group__cofold.html" target="_top" xlink:title=" ">
<polygon fill="white" stroke="#666666" points="111,-34.08 0,-34.08 0,-15.08 111,-15.08 111,-34.08"/>
<text text-anchor="middle" x="55.5" y="-22.08" font-family="Helvetica,sans-Serif" font-size="10.00">RNA&#45;RNA Interaction</text>
</a>
</g>
</g>
<!-- Node1 -->
<g id="node2" class="node">
<title>Node1</title>
<g id="a_node2"><a xlink:title="Partition Function Cofolding.">
<polygon fill="#999999" stroke="#666666" points="321,-45.08 220,-45.08 220,-4.08 321,-4.08 321,-45.08"/>
<text text-anchor="start" x="228" y="-33.08" font-family="Helvetica,sans-Serif" font-size="10.00">Partition Function</text>
<text text-anchor="start" x="228" y="-22.08" font-family="Helvetica,sans-Serif" font-size="10.00"> for Two Hybridized</text>
<text text-anchor="middle" x="270.5" y="-11.08" font-family="Helvetica,sans-Serif" font-size="10.00"> Sequences</text>
</a>
</g>
</g>
<!-- Node2&#45;&gt;Node1 -->
<g id="edge1" class="edge">
<title>Node2&#45;&gt;Node1</title>
<path fill="none" stroke="black" d="M122.38,-29.32C124.61,-29.41 126.82,-29.5 129,-29.58 161.43,-30.69 169.58,-30.78 202,-29.58 207.75,-29.36 213.78,-29.05 219.76,-28.68"/>
<polygon fill="black" stroke="black" points="122.78,-25.83 112.62,-28.82 122.43,-32.82 122.78,-25.83"/>
</g>
<!-- Node1&#45;&gt;Node2 -->
<g id="edge3" class="edge">
<title>Node1&#45;&gt;Node2</title>
<path fill="none" stroke="darkgreen" stroke-dasharray="5,2" d="M219.76,-7.27C213.84,-5.75 207.82,-4.46 202,-3.58 169.92,1.3 161.12,0.98 129,-3.58 113.82,-5.73 97.37,-10.3 83.99,-14.63"/>
<text text-anchor="middle" x="165.5" y="-17.58" font-family="Helvetica,sans-Serif" font-size="10.00">concentrations.h</text>
<text text-anchor="middle" x="165.5" y="-6.58" font-family="Helvetica,sans-Serif" font-size="10.00">part_func_up.h</text>
</g>
<!-- Node3 -->
<g id="node3" class="node">
<title>Node3</title>
<g id="a_node3"><a xlink:href="group__pf__fold.html" target="_top" xlink:title="Compute the partition function to assess various equilibrium properties.">
<polygon fill="white" stroke="#666666" points="564,-39.58 430,-39.58 430,-9.58 564,-9.58 564,-39.58"/>
<text text-anchor="start" x="438" y="-27.58" font-family="Helvetica,sans-Serif" font-size="10.00">Partition Function</text>
<text text-anchor="middle" x="497" y="-16.58" font-family="Helvetica,sans-Serif" font-size="10.00"> and Equilibrium Properties</text>
</a>
</g>
</g>
<!-- Node1&#45;&gt;Node3 -->
<g id="edge2" class="edge">
<title>Node1&#45;&gt;Node3</title>
<path fill="none" stroke="darkgreen" stroke-dasharray="5,2" d="M321.32,-24.58C353.23,-24.58 395.01,-24.58 429.7,-24.58"/>
<text text-anchor="middle" x="375.5" y="-27.58" font-family="Helvetica,sans-Serif" font-size="10.00">concentrations.h</text>
</g>
</g>
</svg>
