<?xml version="1.0" encoding="UTF-8" standalone="no"?>
<!DOCTYPE svg PUBLIC "-//W3C//DTD SVG 1.1//EN"
 "http://www.w3.org/Graphics/SVG/1.1/DTD/svg11.dtd">
<!-- Generated by graphviz version 7.1.0 (0)
 -->
<!-- Title: Global MFE Prediction Pages: 1 -->
<svg width="345pt" height="139pt"
 viewBox="0.00 0.00 345.00 139.00" xmlns="http://www.w3.org/2000/svg" xmlns:xlink="http://www.w3.org/1999/xlink">
<g id="graph0" class="graph" transform="scale(1 1) rotate(0) translate(4 135)">
<title>Global MFE Prediction</title>
<!-- Node3 -->
<g id="node1" class="node">
<title>Node3</title>
<g id="a_node1"><a xlink:href="group__kl__neighborhood__mfe.html" target="_top" xlink:title="Compute the minimum free energy (MFE) and secondary structures for a partitioning of the secondary st...">
<polygon fill="white" stroke="#666666" points="337,-78 176,-78 176,-48 337,-48 337,-78"/>
<text text-anchor="start" x="184" y="-66" font-family="Helvetica,sans-Serif" font-size="10.00">Computing MFE representatives</text>
<text text-anchor="middle" x="256.5" y="-55" font-family="Helvetica,sans-Serif" font-size="10.00"> of a Distance Based Partitioning</text>
</a>
</g>
</g>
<!-- Node2 -->
<g id="node2" class="node">
<title>Node2</title>
<g id="a_node2"><a xlink:href="group__mfe.html" target="_top" xlink:title="Predicting the Minimum Free Energy (MFE) and a corresponding (consensus) secondary structure.">
<polygon fill="white" stroke="#666666" points="313,-131 200,-131 200,-101 313,-101 313,-131"/>
<text text-anchor="start" x="208" y="-119" font-family="Helvetica,sans-Serif" font-size="10.00">Minimum Free Energy</text>
<text text-anchor="middle" x="256.5" y="-108" font-family="Helvetica,sans-Serif" font-size="10.00"> (MFE) Algorithms</text>
</a>
</g>
</g>
<!-- Node1 -->
<g id="node3" class="node">
<title>Node1</title>
<g id="a_node3"><a xlink:title="Variations of the global Minimum Free Energy (MFE) prediction algorithm.">
<polygon fill="#999999" stroke="#666666" points="115,-84.5 0,-84.5 0,-65.5 115,-65.5 115,-84.5"/>
<text text-anchor="middle" x="57.5" y="-72.5" font-family="Helvetica,sans-Serif" font-size="10.00">Global MFE Prediction</text>
</a>
</g>
</g>
<!-- Node2&#45;&gt;Node1 -->
<g id="edge1" class="edge">
<title>Node2&#45;&gt;Node1</title>
<path fill="none" stroke="black" d="M188.72,-102.1C161.72,-96.48 131.16,-90.12 106.44,-84.98"/>
<polygon fill="black" stroke="black" points="187.66,-105.46 198.17,-104.07 189.09,-98.6 187.66,-105.46"/>
</g>
<!-- Node1&#45;&gt;Node3 -->
<g id="edge2" class="edge">
<title>Node1&#45;&gt;Node3</title>
<path fill="none" stroke="black" d="M126.72,-70.84C142.47,-69.88 159.37,-68.86 175.57,-67.87"/>
<polygon fill="black" stroke="black" points="126.76,-67.34 116.99,-71.44 127.19,-74.32 126.76,-67.34"/>
</g>
<!-- Node1&#45;&gt;Node2 -->
<g id="edge4" class="edge">
<title>Node1&#45;&gt;Node2</title>
<path fill="none" stroke="darkgreen" stroke-dasharray="5,2" d="M85.43,-84.93C99.45,-89.77 116.97,-95.34 133,-99 154.56,-103.93 178.6,-107.64 199.64,-110.32"/>
<text text-anchor="middle" x="145.5" y="-106" font-family="Helvetica,sans-Serif" font-size="10.00">mfe.h</text>
</g>
<!-- Node4 -->
<g id="node4" class="node">
<title>Node4</title>
<g id="a_node4"><a xlink:href="group__mfe__global__deprecated.html" target="_top" xlink:title=" ">
<polygon fill="white" stroke="#666666" points="322.5,-30 190.5,-30 190.5,0 322.5,0 322.5,-30"/>
<text text-anchor="start" x="198.5" y="-18" font-family="Helvetica,sans-Serif" font-size="10.00">Deprecated Interface</text>
<text text-anchor="middle" x="256.5" y="-7" font-family="Helvetica,sans-Serif" font-size="10.00"> for Global MFE Prediction</text>
</a>
</g>
</g>
<!-- Node1&#45;&gt;Node4 -->
<g id="edge3" class="edge">
<title>Node1&#45;&gt;Node4</title>
<path fill="none" stroke="black" d="M101.67,-61.73C123.87,-54.91 151.38,-46.49 176,-39 185.1,-36.23 194.8,-33.29 204.17,-30.46"/>
<polygon fill="black" stroke="black" points="100.89,-58.31 92.35,-64.59 102.94,-65 100.89,-58.31"/>
</g>
</g>
</svg>
