<?xml version="1.0" encoding="UTF-8" standalone="no"?>
<!DOCTYPE svg PUBLIC "-//W3C//DTD SVG 1.1//EN"
 "http://www.w3.org/Graphics/SVG/1.1/DTD/svg11.dtd">
<!-- Generated by graphviz version 7.1.0 (0)
 -->
<!-- Title: Random Structure Samples from the Ensemble Pages: 1 -->
<svg width="515pt" height="98pt"
 viewBox="0.00 0.00 515.00 97.50" xmlns="http://www.w3.org/2000/svg" xmlns:xlink="http://www.w3.org/1999/xlink">
<g id="graph0" class="graph" transform="scale(1 1) rotate(0) translate(4 93.5)">
<title>Random Structure Samples from the Ensemble</title>
<!-- Node3 -->
<g id="node1" class="node">
<title>Node3</title>
<g id="a_node1"><a xlink:href="group__kl__neighborhood__stochbt.html" target="_top" xlink:title="Contains functions related to stochastic backtracking from a specified distance class.">
<polygon fill="white" stroke="#666666" points="507,-89.5 367,-89.5 367,-48.5 507,-48.5 507,-89.5"/>
<text text-anchor="start" x="375" y="-77.5" font-family="Helvetica,sans-Serif" font-size="10.00">Stochastic Backtracking</text>
<text text-anchor="start" x="375" y="-66.5" font-family="Helvetica,sans-Serif" font-size="10.00"> of Structures from Distance</text>
<text text-anchor="middle" x="437" y="-55.5" font-family="Helvetica,sans-Serif" font-size="10.00"> Based Partitioning</text>
</a>
</g>
</g>
<!-- Node2 -->
<g id="node2" class="node">
<title>Node2</title>
<g id="a_node2"><a xlink:href="group__subopt__and__representatives.html" target="_top" xlink:title="Sample and enumerate suboptimal secondary structures from RNA sequence data.">
<polygon fill="white" stroke="#666666" points="158,-57 0,-57 0,-27 158,-27 158,-57"/>
<text text-anchor="start" x="8" y="-45" font-family="Helvetica,sans-Serif" font-size="10.00">Suboptimals and Representative</text>
<text text-anchor="middle" x="79" y="-34" font-family="Helvetica,sans-Serif" font-size="10.00"> Structures</text>
</a>
</g>
</g>
<!-- Node1 -->
<g id="node3" class="node">
<title>Node1</title>
<g id="a_node3"><a xlink:title="Functions to draw random structure samples from the ensemble according to their equilibrium probabili...">
<polygon fill="#999999" stroke="#666666" points="331,-57 194,-57 194,-27 331,-27 331,-57"/>
<text text-anchor="start" x="202" y="-45" font-family="Helvetica,sans-Serif" font-size="10.00">Random Structure Samples</text>
<text text-anchor="middle" x="262.5" y="-34" font-family="Helvetica,sans-Serif" font-size="10.00"> from the Ensemble</text>
</a>
</g>
</g>
<!-- Node2&#45;&gt;Node1 -->
<g id="edge1" class="edge">
<title>Node2&#45;&gt;Node1</title>
<path fill="none" stroke="black" d="M169.69,-42C177.78,-42 185.88,-42 193.73,-42"/>
<polygon fill="black" stroke="black" points="169.8,-38.5 159.8,-42 169.8,-45.5 169.8,-38.5"/>
</g>
<!-- Node1&#45;&gt;Node3 -->
<g id="edge2" class="edge">
<title>Node1&#45;&gt;Node3</title>
<path fill="none" stroke="black" d="M342.45,-54.36C350.49,-55.62 358.61,-56.89 366.53,-58.13"/>
<polygon fill="black" stroke="black" points="343.1,-50.92 332.68,-52.83 342.02,-57.83 343.1,-50.92"/>
</g>
<!-- Node4 -->
<g id="node4" class="node">
<title>Node4</title>
<g id="a_node4"><a xlink:href="group__subopt__stochbt__deprecated.html" target="_top" xlink:title=" ">
<polygon fill="white" stroke="#666666" points="507,-30 367,-30 367,0 507,0 507,-30"/>
<text text-anchor="start" x="375" y="-18" font-family="Helvetica,sans-Serif" font-size="10.00">Deprecated Interface</text>
<text text-anchor="middle" x="437" y="-7" font-family="Helvetica,sans-Serif" font-size="10.00"> for Stochastic Backtracking</text>
</a>
</g>
</g>
<!-- Node1&#45;&gt;Node4 -->
<g id="edge3" class="edge">
<title>Node1&#45;&gt;Node4</title>
<path fill="none" stroke="black" d="M342.45,-29.64C350.49,-28.38 358.61,-27.11 366.53,-25.87"/>
<polygon fill="black" stroke="black" points="342.02,-26.17 332.68,-31.17 343.1,-33.08 342.02,-26.17"/>
</g>
</g>
</svg>
