<?xml version="1.0" encoding="UTF-8" standalone="no"?>
<!DOCTYPE svg PUBLIC "-//W3C//DTD SVG 1.1//EN"
 "http://www.w3.org/Graphics/SVG/1.1/DTD/svg11.dtd">
<!-- Generated by graphviz version 7.1.0 (0)
 -->
<!-- Title: Global Partition Function and Equilibrium Probabilities Pages: 1 -->
<svg width="370pt" height="205pt"
 viewBox="0.00 0.00 370.00 204.50" xmlns="http://www.w3.org/2000/svg" xmlns:xlink="http://www.w3.org/1999/xlink">
<g id="graph0" class="graph" transform="scale(1 1) rotate(0) translate(4 200.5)">
<title>Global Partition Function and Equilibrium Probabilities</title>
<!-- Node3 -->
<g id="node1" class="node">
<title>Node3</title>
<g id="a_node1"><a xlink:href="group__kl__neighborhood__pf.html" target="_top" xlink:title="Compute the partition function and stochastically sample secondary structures for a partitioning of t...">
<polygon fill="white" stroke="#666666" points="357,-196.5 233,-196.5 233,-155.5 357,-155.5 357,-196.5"/>
<text text-anchor="start" x="241" y="-184.5" font-family="Helvetica,sans-Serif" font-size="10.00">Computing Partition</text>
<text text-anchor="start" x="241" y="-173.5" font-family="Helvetica,sans-Serif" font-size="10.00"> Functions of a Distance</text>
<text text-anchor="middle" x="295" y="-162.5" font-family="Helvetica,sans-Serif" font-size="10.00"> Based Partitioning</text>
</a>
</g>
</g>
<!-- Node1 -->
<g id="node2" class="node">
<title>Node1</title>
<g id="a_node2"><a xlink:title="Variations of the global partition function algorithm.">
<polygon fill="#999999" stroke="#666666" points="143,-106 0,-106 0,-76 143,-76 143,-106"/>
<text text-anchor="start" x="8" y="-94" font-family="Helvetica,sans-Serif" font-size="10.00">Global Partition Function</text>
<text text-anchor="middle" x="71.5" y="-83" font-family="Helvetica,sans-Serif" font-size="10.00"> and Equilibrium Probabilities</text>
</a>
</g>
</g>
<!-- Node1&#45;&gt;Node3 -->
<g id="edge2" class="edge">
<title>Node1&#45;&gt;Node3</title>
<path fill="none" stroke="black" d="M123.24,-110.47C157.92,-123.78 203.83,-141.4 239.32,-155.02"/>
<polygon fill="black" stroke="black" points="124.87,-107.35 114.28,-107.03 122.36,-113.88 124.87,-107.35"/>
</g>
<!-- Node5 -->
<g id="node3" class="node">
<title>Node5</title>
<g id="a_node3"><a xlink:href="group__part__func__global__deprecated.html" target="_top" xlink:title=" ">
<polygon fill="white" stroke="#666666" points="353,-137.5 237,-137.5 237,-96.5 353,-96.5 353,-137.5"/>
<text text-anchor="start" x="245" y="-125.5" font-family="Helvetica,sans-Serif" font-size="10.00">Deprecated Interface</text>
<text text-anchor="start" x="245" y="-114.5" font-family="Helvetica,sans-Serif" font-size="10.00"> for Global Partition</text>
<text text-anchor="middle" x="295" y="-103.5" font-family="Helvetica,sans-Serif" font-size="10.00"> Function Computation</text>
</a>
</g>
</g>
<!-- Node1&#45;&gt;Node5 -->
<g id="edge4" class="edge">
<title>Node1&#45;&gt;Node5</title>
<path fill="none" stroke="black" d="M154.79,-102.24C156.88,-102.5 158.95,-102.75 161,-103 185.78,-105.98 213.2,-108.93 236.68,-111.34"/>
<polygon fill="black" stroke="black" points="155.34,-98.78 144.98,-101 154.47,-105.73 155.34,-98.78"/>
</g>
<!-- Node2 -->
<g id="node4" class="node">
<title>Node2</title>
<g id="a_node4"><a xlink:href="group__pf__fold.html" target="_top" xlink:title="Compute the partition function to assess various equilibrium properties.">
<polygon fill="white" stroke="#666666" points="362,-78 228,-78 228,-48 362,-48 362,-78"/>
<text text-anchor="start" x="236" y="-66" font-family="Helvetica,sans-Serif" font-size="10.00">Partition Function</text>
<text text-anchor="middle" x="295" y="-55" font-family="Helvetica,sans-Serif" font-size="10.00"> and Equilibrium Properties</text>
</a>
</g>
</g>
<!-- Node1&#45;&gt;Node2 -->
<g id="edge5" class="edge">
<title>Node1&#45;&gt;Node2</title>
<path fill="none" stroke="darkgreen" stroke-dasharray="5,2" d="M143.5,-82.03C170.45,-78.62 201.03,-74.75 227.54,-71.4"/>
<text text-anchor="middle" x="185.5" y="-82" font-family="Helvetica,sans-Serif" font-size="10.00">part_func.h</text>
</g>
<!-- Node4 -->
<g id="node5" class="node">
<title>Node4</title>
<g id="a_node5"><a xlink:href="group__thermodynamics.html" target="_top" xlink:title="Compute various thermodynamic properties using the partition function.">
<polygon fill="white" stroke="#666666" points="361,-30 229,-30 229,0 361,0 361,-30"/>
<text text-anchor="start" x="237" y="-18" font-family="Helvetica,sans-Serif" font-size="10.00">Predicting various</text>
<text text-anchor="middle" x="295" y="-7" font-family="Helvetica,sans-Serif" font-size="10.00"> thermodynamic properties</text>
</a>
</g>
</g>
<!-- Node1&#45;&gt;Node4 -->
<g id="edge3" class="edge">
<title>Node1&#45;&gt;Node4</title>
<path fill="none" stroke="black" d="M128.29,-71.86C165.62,-59.05 214.11,-42.41 248.97,-30.45"/>
<polygon fill="black" stroke="black" points="127.35,-68.48 119.02,-75.04 129.62,-75.1 127.35,-68.48"/>
</g>
<!-- Node2&#45;&gt;Node1 -->
<g id="edge1" class="edge">
<title>Node2&#45;&gt;Node1</title>
<path fill="none" stroke="black" d="M216.08,-66.39C197.95,-67.7 178.76,-69.51 161,-72 154,-72.98 146.72,-74.21 139.49,-75.56"/>
<polygon fill="black" stroke="black" points="216.26,-69.88 226,-65.72 215.78,-62.9 216.26,-69.88"/>
</g>
</g>
</svg>
