<?xml version="1.0" encoding="UTF-8" standalone="no"?>
<!DOCTYPE svg PUBLIC "-//W3C//DTD SVG 1.1//EN"
 "http://www.w3.org/Graphics/SVG/1.1/DTD/svg11.dtd">
<!-- Generated by graphviz version 7.1.0 (0)
 -->
<!-- Title: Computing MFE representatives of a Distance Based Partitioning Pages: 1 -->
<svg width="372pt" height="76pt"
 viewBox="0.00 0.00 372.00 75.50" xmlns="http://www.w3.org/2000/svg" xmlns:xlink="http://www.w3.org/1999/xlink">
<g id="graph0" class="graph" transform="scale(1 1) rotate(0) translate(4 71.5)">
<title>Computing MFE representatives of a Distance Based Partitioning</title>
<!-- Node2 -->
<g id="node1" class="node">
<title>Node2</title>
<g id="a_node1"><a xlink:href="group__kl__neighborhood.html" target="_top" xlink:title=" ">
<polygon fill="white" stroke="#666666" points="167,-67.5 0,-67.5 0,-37.5 167,-37.5 167,-67.5"/>
<text text-anchor="start" x="8" y="-55.5" font-family="Helvetica,sans-Serif" font-size="10.00">Distance Based Partitioning</text>
<text text-anchor="middle" x="83.5" y="-44.5" font-family="Helvetica,sans-Serif" font-size="10.00"> of the Secondary Structure Space</text>
</a>
</g>
</g>
<!-- Node1 -->
<g id="node2" class="node">
<title>Node1</title>
<g id="a_node2"><a xlink:title="Compute the minimum free energy (MFE) and secondary structures for a partitioning of the secondary st...">
<polygon fill="#999999" stroke="#666666" points="364,-45.5 203,-45.5 203,-15.5 364,-15.5 364,-45.5"/>
<text text-anchor="start" x="211" y="-33.5" font-family="Helvetica,sans-Serif" font-size="10.00">Computing MFE representatives</text>
<text text-anchor="middle" x="283.5" y="-22.5" font-family="Helvetica,sans-Serif" font-size="10.00"> of a Distance Based Partitioning</text>
</a>
</g>
</g>
<!-- Node2&#45;&gt;Node1 -->
<g id="edge1" class="edge">
<title>Node2&#45;&gt;Node1</title>
<path fill="none" stroke="black" d="M178.6,-42.04C186.61,-41.15 194.66,-40.26 202.55,-39.38"/>
<polygon fill="black" stroke="black" points="178.38,-38.55 168.83,-43.13 179.15,-45.5 178.38,-38.55"/>
</g>
<!-- Node3 -->
<g id="node3" class="node">
<title>Node3</title>
<g id="a_node3"><a xlink:href="group__mfe__global.html" target="_top" xlink:title="Variations of the global Minimum Free Energy (MFE) prediction algorithm.">
<polygon fill="white" stroke="#666666" points="141,-19 26,-19 26,0 141,0 141,-19"/>
<text text-anchor="middle" x="83.5" y="-7" font-family="Helvetica,sans-Serif" font-size="10.00">Global MFE Prediction</text>
</a>
</g>
</g>
<!-- Node3&#45;&gt;Node1 -->
<g id="edge2" class="edge">
<title>Node3&#45;&gt;Node1</title>
<path fill="none" stroke="black" d="M152.22,-16.68C168.41,-18.4 185.84,-20.25 202.52,-22.02"/>
<polygon fill="black" stroke="black" points="153.06,-13.25 142.74,-15.68 152.32,-20.21 153.06,-13.25"/>
</g>
</g>
</svg>
