<?xml version="1.0" encoding="UTF-8" standalone="no"?>
<!DOCTYPE svg PUBLIC "-//W3C//DTD SVG 1.1//EN"
 "http://www.w3.org/Graphics/SVG/1.1/DTD/svg11.dtd">
<!-- Generated by graphviz version 7.1.0 (0)
 -->
<!-- Title: Suboptimals and Representative Structures Pages: 1 -->
<svg width="339pt" height="265pt"
 viewBox="0.00 0.00 339.00 264.50" xmlns="http://www.w3.org/2000/svg" xmlns:xlink="http://www.w3.org/1999/xlink">
<g id="graph0" class="graph" transform="scale(1 1) rotate(0) translate(4 260.5)">
<title>Suboptimals and Representative Structures</title>
<!-- Node6 -->
<g id="node1" class="node">
<title>Node6</title>
<g id="a_node1"><a xlink:href="group__centroid__fold.html" target="_top" xlink:title=" ">
<polygon fill="white" stroke="#666666" points="319,-256.5 206,-256.5 206,-226.5 319,-226.5 319,-256.5"/>
<text text-anchor="start" x="214" y="-244.5" font-family="Helvetica,sans-Serif" font-size="10.00">Compute the Centroid</text>
<text text-anchor="middle" x="262.5" y="-233.5" font-family="Helvetica,sans-Serif" font-size="10.00"> Structure</text>
</a>
</g>
</g>
<!-- Node5 -->
<g id="node2" class="node">
<title>Node5</title>
<g id="a_node2"><a xlink:href="group__mea__fold.html" target="_top" xlink:title=" ">
<polygon fill="white" stroke="#666666" points="326.5,-208 198.5,-208 198.5,-167 326.5,-167 326.5,-208"/>
<text text-anchor="start" x="206.5" y="-196" font-family="Helvetica,sans-Serif" font-size="10.00">Compute the Structure</text>
<text text-anchor="start" x="206.5" y="-185" font-family="Helvetica,sans-Serif" font-size="10.00"> with Maximum Expected</text>
<text text-anchor="middle" x="262.5" y="-174" font-family="Helvetica,sans-Serif" font-size="10.00"> Accuracy (MEA)</text>
</a>
</g>
</g>
<!-- Node1 -->
<g id="node3" class="node">
<title>Node1</title>
<g id="a_node3"><a xlink:title="Sample and enumerate suboptimal secondary structures from RNA sequence data.">
<polygon fill="#999999" stroke="#666666" points="158,-148.5 0,-148.5 0,-118.5 158,-118.5 158,-148.5"/>
<text text-anchor="start" x="8" y="-136.5" font-family="Helvetica,sans-Serif" font-size="10.00">Suboptimals and Representative</text>
<text text-anchor="middle" x="79" y="-125.5" font-family="Helvetica,sans-Serif" font-size="10.00"> Structures</text>
</a>
</g>
</g>
<!-- Node1&#45;&gt;Node6 -->
<g id="edge5" class="edge">
<title>Node1&#45;&gt;Node6</title>
<path fill="none" stroke="black" d="M106.26,-156.34C128.45,-174.76 161.71,-200.34 194,-217.5 199.93,-220.65 206.36,-223.54 212.82,-226.14"/>
<polygon fill="black" stroke="black" points="108.52,-153.67 98.61,-149.91 104.01,-159.03 108.52,-153.67"/>
</g>
<!-- Node1&#45;&gt;Node5 -->
<g id="edge4" class="edge">
<title>Node1&#45;&gt;Node5</title>
<path fill="none" stroke="black" d="M142.91,-152.22C160.8,-157.54 180.29,-163.34 198.2,-168.67"/>
<polygon fill="black" stroke="black" points="144.04,-148.9 133.46,-149.41 142.05,-155.61 144.04,-148.9"/>
</g>
<!-- Node4 -->
<g id="node4" class="node">
<title>Node4</title>
<g id="a_node4"><a xlink:href="group__subopt__stochbt.html" target="_top" xlink:title="Functions to draw random structure samples from the ensemble according to their equilibrium probabili...">
<polygon fill="white" stroke="#666666" points="331,-148.5 194,-148.5 194,-118.5 331,-118.5 331,-148.5"/>
<text text-anchor="start" x="202" y="-136.5" font-family="Helvetica,sans-Serif" font-size="10.00">Random Structure Samples</text>
<text text-anchor="middle" x="262.5" y="-125.5" font-family="Helvetica,sans-Serif" font-size="10.00"> from the Ensemble</text>
</a>
</g>
</g>
<!-- Node1&#45;&gt;Node4 -->
<g id="edge3" class="edge">
<title>Node1&#45;&gt;Node4</title>
<path fill="none" stroke="black" d="M169.69,-133.5C177.78,-133.5 185.88,-133.5 193.73,-133.5"/>
<polygon fill="black" stroke="black" points="169.8,-130 159.8,-133.5 169.8,-137 169.8,-130"/>
</g>
<!-- Node3 -->
<g id="node5" class="node">
<title>Node3</title>
<g id="a_node5"><a xlink:href="group__subopt__wuchty.html" target="_top" xlink:title=" ">
<polygon fill="white" stroke="#666666" points="321.5,-100 203.5,-100 203.5,-59 321.5,-59 321.5,-100"/>
<text text-anchor="start" x="211.5" y="-88" font-family="Helvetica,sans-Serif" font-size="10.00">Suboptimal Structures</text>
<text text-anchor="start" x="211.5" y="-77" font-family="Helvetica,sans-Serif" font-size="10.00"> within an Energy Band</text>
<text text-anchor="middle" x="262.5" y="-66" font-family="Helvetica,sans-Serif" font-size="10.00"> around the MFE</text>
</a>
</g>
</g>
<!-- Node1&#45;&gt;Node3 -->
<g id="edge2" class="edge">
<title>Node1&#45;&gt;Node3</title>
<path fill="none" stroke="black" d="M142.95,-114.77C162.47,-108.96 183.9,-102.59 203.1,-96.88"/>
<polygon fill="black" stroke="black" points="142.05,-111.39 133.46,-117.59 144.04,-118.1 142.05,-111.39"/>
</g>
<!-- Node2 -->
<g id="node6" class="node">
<title>Node2</title>
<g id="a_node6"><a xlink:href="group__subopt__zuker.html" target="_top" xlink:title=" ">
<polygon fill="white" stroke="#666666" points="324,-41 201,-41 201,0 324,0 324,-41"/>
<text text-anchor="start" x="209" y="-29" font-family="Helvetica,sans-Serif" font-size="10.00">Suboptimal Structures</text>
<text text-anchor="start" x="209" y="-18" font-family="Helvetica,sans-Serif" font-size="10.00"> sensu Stiegler et al.</text>
<text text-anchor="middle" x="262.5" y="-7" font-family="Helvetica,sans-Serif" font-size="10.00"> 1984 / Zuker et al. 1989</text>
</a>
</g>
</g>
<!-- Node1&#45;&gt;Node2 -->
<g id="edge1" class="edge">
<title>Node1&#45;&gt;Node2</title>
<path fill="none" stroke="black" d="M107.45,-110.96C129.87,-93.19 162.84,-68.5 194,-50.5 199.44,-47.36 205.27,-44.32 211.15,-41.46"/>
<polygon fill="black" stroke="black" points="105.32,-108.18 99.71,-117.17 109.7,-113.65 105.32,-108.18"/>
</g>
</g>
</svg>
