<?xml version="1.0" encoding="UTF-8" standalone="no"?>
<!DOCTYPE svg PUBLIC "-//W3C//DTD SVG 1.1//EN"
 "http://www.w3.org/Graphics/SVG/1.1/DTD/svg11.dtd">
<!-- Generated by graphviz version 7.1.0 (0)
 -->
<!-- Title: Stochastic Backtracking of Structures from Distance Based Partitioning Pages: 1 -->
<svg width="351pt" height="86pt"
 viewBox="0.00 0.00 351.00 86.00" xmlns="http://www.w3.org/2000/svg" xmlns:xlink="http://www.w3.org/1999/xlink">
<g id="graph0" class="graph" transform="scale(1 1) rotate(0) translate(4 82)">
<title>Stochastic Backtracking of Structures from Distance Based Partitioning</title>
<!-- Node2 -->
<g id="node1" class="node">
<title>Node2</title>
<g id="a_node1"><a xlink:href="group__kl__neighborhood.html" target="_top" xlink:title=" ">
<polygon fill="white" stroke="#666666" points="167,-78 0,-78 0,-48 167,-48 167,-78"/>
<text text-anchor="start" x="8" y="-66" font-family="Helvetica,sans-Serif" font-size="10.00">Distance Based Partitioning</text>
<text text-anchor="middle" x="83.5" y="-55" font-family="Helvetica,sans-Serif" font-size="10.00"> of the Secondary Structure Space</text>
</a>
</g>
</g>
<!-- Node1 -->
<g id="node2" class="node">
<title>Node1</title>
<g id="a_node2"><a xlink:title="Contains functions related to stochastic backtracking from a specified distance class.">
<polygon fill="#999999" stroke="#666666" points="343,-59.5 203,-59.5 203,-18.5 343,-18.5 343,-59.5"/>
<text text-anchor="start" x="211" y="-47.5" font-family="Helvetica,sans-Serif" font-size="10.00">Stochastic Backtracking</text>
<text text-anchor="start" x="211" y="-36.5" font-family="Helvetica,sans-Serif" font-size="10.00"> of Structures from Distance</text>
<text text-anchor="middle" x="273" y="-25.5" font-family="Helvetica,sans-Serif" font-size="10.00"> Based Partitioning</text>
</a>
</g>
</g>
<!-- Node2&#45;&gt;Node1 -->
<g id="edge1" class="edge">
<title>Node2&#45;&gt;Node1</title>
<path fill="none" stroke="black" d="M178.65,-50.95C186.7,-49.92 194.74,-48.89 202.55,-47.89"/>
<polygon fill="black" stroke="black" points="178.26,-47.47 168.79,-52.21 179.15,-54.41 178.26,-47.47"/>
</g>
<!-- Node3 -->
<g id="node3" class="node">
<title>Node3</title>
<g id="a_node3"><a xlink:href="group__subopt__stochbt.html" target="_top" xlink:title="Functions to draw random structure samples from the ensemble according to their equilibrium probabili...">
<polygon fill="white" stroke="#666666" points="152,-30 15,-30 15,0 152,0 152,-30"/>
<text text-anchor="start" x="23" y="-18" font-family="Helvetica,sans-Serif" font-size="10.00">Random Structure Samples</text>
<text text-anchor="middle" x="83.5" y="-7" font-family="Helvetica,sans-Serif" font-size="10.00"> from the Ensemble</text>
</a>
</g>
</g>
<!-- Node3&#45;&gt;Node1 -->
<g id="edge2" class="edge">
<title>Node3&#45;&gt;Node1</title>
<path fill="none" stroke="black" d="M163.72,-25.14C176.67,-26.8 190.01,-28.51 202.7,-30.13"/>
<polygon fill="black" stroke="black" points="164.32,-21.69 153.96,-23.89 163.43,-28.63 164.32,-21.69"/>
</g>
</g>
</svg>
