<?xml version="1.0" encoding="UTF-8" standalone="no"?>
<!DOCTYPE svg PUBLIC "-//W3C//DTD SVG 1.1//EN"
 "http://www.w3.org/Graphics/SVG/1.1/DTD/svg11.dtd">
<!-- Generated by graphviz version 7.1.0 (0)
 -->
<!-- Title: Plotting Pages: 1 -->
<svg width="246pt" height="187pt"
 viewBox="0.00 0.00 246.00 187.00" xmlns="http://www.w3.org/2000/svg" xmlns:xlink="http://www.w3.org/1999/xlink">
<g id="graph0" class="graph" transform="scale(1 1) rotate(0) translate(4 183)">
<title>Plotting</title>
<!-- Node5 -->
<g id="node1" class="node">
<title>Node5</title>
<g id="a_node1"><a xlink:href="group__alignment__plots.html" target="_top" xlink:title="Functions to generate Alignment plots with annotated consensus structure.">
<polygon fill="white" stroke="#666666" points="218.5,-179 132.5,-179 132.5,-160 218.5,-160 218.5,-179"/>
<text text-anchor="middle" x="175.5" y="-167" font-family="Helvetica,sans-Serif" font-size="10.00">Alignment Plots</text>
</a>
</g>
</g>
<!-- Node4 -->
<g id="node2" class="node">
<title>Node4</title>
<g id="a_node2"><a xlink:href="group__annotation__utils.html" target="_top" xlink:title="Functions to generate annotations for Secondary Structure Plots, Dot&#45;Plots, and Others.">
<polygon fill="white" stroke="#666666" points="207,-142 144,-142 144,-123 207,-123 207,-142"/>
<text text-anchor="middle" x="175.5" y="-130" font-family="Helvetica,sans-Serif" font-size="10.00">Annotation</text>
</a>
</g>
</g>
<!-- Node3 -->
<g id="node3" class="node">
<title>Node3</title>
<g id="a_node3"><a xlink:href="group__plot__layout__utils.html" target="_top" xlink:title="Functions to compute coordinate layouts for secondary structure plots.">
<polygon fill="white" stroke="#666666" points="238,-105 113,-105 113,-86 238,-86 238,-105"/>
<text text-anchor="middle" x="175.5" y="-93" font-family="Helvetica,sans-Serif" font-size="10.00">Layouts and Coordinates</text>
</a>
</g>
</g>
<!-- Node1 -->
<g id="node4" class="node">
<title>Node1</title>
<g id="a_node4"><a xlink:title="Functions for Creating Secondary Structure Plots, Dot&#45;Plots, and More.">
<polygon fill="#999999" stroke="#666666" points="50,-91 0,-91 0,-72 50,-72 50,-91"/>
<text text-anchor="middle" x="25" y="-79" font-family="Helvetica,sans-Serif" font-size="10.00">Plotting</text>
</a>
</g>
</g>
<!-- Node1&#45;&gt;Node5 -->
<g id="edge4" class="edge">
<title>Node1&#45;&gt;Node5</title>
<path fill="none" stroke="black" d="M43.55,-99.56C60.05,-115.51 86.16,-138.24 113,-151.5 119.28,-154.6 126.2,-157.27 133.06,-159.53"/>
<polygon fill="black" stroke="black" points="46.07,-97.13 36.5,-92.56 41.13,-102.09 46.07,-97.13"/>
</g>
<!-- Node1&#45;&gt;Node4 -->
<g id="edge3" class="edge">
<title>Node1&#45;&gt;Node4</title>
<path fill="none" stroke="black" d="M57.24,-96.14C60.84,-97.68 64.48,-99.16 68,-100.5 93.08,-110.03 122.33,-118.65 143.82,-124.53"/>
<polygon fill="black" stroke="black" points="58.67,-92.94 48.11,-92.1 55.83,-99.35 58.67,-92.94"/>
</g>
<!-- Node1&#45;&gt;Node3 -->
<g id="edge2" class="edge">
<title>Node1&#45;&gt;Node3</title>
<path fill="none" stroke="black" d="M61.24,-84.82C76.58,-86.27 95.01,-88.01 112.51,-89.66"/>
<polygon fill="black" stroke="black" points="61.98,-81.38 51.7,-83.92 61.32,-88.35 61.98,-81.38"/>
</g>
<!-- Node6 -->
<g id="node5" class="node">
<title>Node6</title>
<g id="a_node5"><a xlink:href="group__plotting__utils__deprecated.html" target="_top" xlink:title=" ">
<polygon fill="white" stroke="#666666" points="229.5,-67.5 121.5,-67.5 121.5,-37.5 229.5,-37.5 229.5,-67.5"/>
<text text-anchor="start" x="129.5" y="-55.5" font-family="Helvetica,sans-Serif" font-size="10.00">Deprecated Interface</text>
<text text-anchor="middle" x="175.5" y="-44.5" font-family="Helvetica,sans-Serif" font-size="10.00"> for Plotting Utilities</text>
</a>
</g>
</g>
<!-- Node1&#45;&gt;Node6 -->
<g id="edge5" class="edge">
<title>Node1&#45;&gt;Node6</title>
<path fill="none" stroke="black" d="M61.25,-74.62C79.11,-71.13 101.16,-66.82 121.05,-62.94"/>
<polygon fill="black" stroke="black" points="60.82,-71.13 51.68,-76.49 62.16,-78 60.82,-71.13"/>
</g>
<!-- Node2 -->
<g id="node6" class="node">
<title>Node2</title>
<g id="a_node6"><a xlink:href="group__utils.html" target="_top" xlink:title=" ">
<polygon fill="white" stroke="#666666" points="200.5,-19 150.5,-19 150.5,0 200.5,0 200.5,-19"/>
<text text-anchor="middle" x="175.5" y="-7" font-family="Helvetica,sans-Serif" font-size="10.00">Utilities</text>
</a>
</g>
</g>
<!-- Node1&#45;&gt;Node2 -->
<g id="edge6" class="edge">
<title>Node1&#45;&gt;Node2</title>
<path fill="none" stroke="darkgreen" stroke-dasharray="5,2" d="M40.2,-71.62C48.25,-66.12 58.57,-59.25 68,-53.5 87.53,-41.59 91.96,-37.48 113,-28.5 124.92,-23.41 138.67,-19.03 150.14,-15.77"/>
<text text-anchor="middle" x="81.5" y="-56.5" font-family="Helvetica,sans-Serif" font-size="10.00">utils.h</text>
</g>
<!-- Node2&#45;&gt;Node1 -->
<g id="edge1" class="edge">
<title>Node2&#45;&gt;Node1</title>
<path fill="none" stroke="black" d="M138.86,-7.3C117,-7.55 89.22,-10.85 68,-23.5 48.99,-34.83 36.11,-58.44 30.03,-71.78"/>
<polygon fill="black" stroke="black" points="138.77,-10.8 148.81,-7.42 138.85,-3.8 138.77,-10.8"/>
</g>
</g>
</svg>
