<?xml version="1.0" encoding="UTF-8" standalone="no"?>
<!DOCTYPE svg PUBLIC "-//W3C//DTD SVG 1.1//EN"
 "http://www.w3.org/Graphics/SVG/1.1/DTD/svg11.dtd">
<!-- Generated by graphviz version 7.1.0 (0)
 -->
<!-- Title: Structure Modules and Pseudoknots Pages: 1 -->
<svg width="246pt" height="64pt"
 viewBox="0.00 0.00 246.00 64.00" xmlns="http://www.w3.org/2000/svg" xmlns:xlink="http://www.w3.org/1999/xlink">
<g id="graph0" class="graph" transform="scale(1 1) rotate(0) translate(4 60)">
<title>Structure Modules and Pseudoknots</title>
<!-- Node3 -->
<g id="node1" class="node">
<title>Node3</title>
<g id="a_node1"><a xlink:href="group__gquads.html" target="_top" xlink:title="Various functions related to G&#45;quadruplex computations.">
<polygon fill="white" stroke="#666666" points="238,-56 151,-56 151,-37 238,-37 238,-56"/>
<text text-anchor="middle" x="194.5" y="-44" font-family="Helvetica,sans-Serif" font-size="10.00">G&#45;Quadruplexes</text>
</a>
</g>
</g>
<!-- Node1 -->
<g id="node2" class="node">
<title>Node1</title>
<g id="a_node2"><a xlink:title=" ">
<polygon fill="#999999" stroke="#666666" points="115,-42.5 0,-42.5 0,-12.5 115,-12.5 115,-42.5"/>
<text text-anchor="start" x="8" y="-30.5" font-family="Helvetica,sans-Serif" font-size="10.00">Structure Modules and</text>
<text text-anchor="middle" x="57.5" y="-19.5" font-family="Helvetica,sans-Serif" font-size="10.00"> Pseudoknots</text>
</a>
</g>
</g>
<!-- Node1&#45;&gt;Node3 -->
<g id="edge2" class="edge">
<title>Node1&#45;&gt;Node3</title>
<path fill="none" stroke="black" d="M126.53,-37.07C134.74,-38.23 142.95,-39.39 150.65,-40.47"/>
<polygon fill="black" stroke="black" points="127.25,-33.64 116.86,-35.71 126.27,-40.57 127.25,-33.64"/>
</g>
<!-- Node2 -->
<g id="node3" class="node">
<title>Node2</title>
<g id="a_node3"><a xlink:href="group__pseudoknots.html" target="_top" xlink:title="Implementations to predict pseudoknotted structures.">
<polygon fill="white" stroke="#666666" points="231.5,-19 157.5,-19 157.5,0 231.5,0 231.5,-19"/>
<text text-anchor="middle" x="194.5" y="-7" font-family="Helvetica,sans-Serif" font-size="10.00">Pseudoknots</text>
</a>
</g>
</g>
<!-- Node1&#45;&gt;Node2 -->
<g id="edge1" class="edge">
<title>Node1&#45;&gt;Node2</title>
<path fill="none" stroke="black" d="M126.7,-18.41C137.19,-17.01 147.66,-15.61 157.09,-14.36"/>
<polygon fill="black" stroke="black" points="126.31,-14.93 116.86,-19.72 127.24,-21.87 126.31,-14.93"/>
</g>
</g>
</svg>
