<?xml version="1.0" encoding="UTF-8" standalone="no"?>
<!DOCTYPE svg PUBLIC "-//W3C//DTD SVG 1.1//EN"
 "http://www.w3.org/Graphics/SVG/1.1/DTD/svg11.dtd">
<!-- Generated by graphviz version 7.1.0 (0)
 -->
<!-- Title: Files and I/O Pages: 1 -->
<svg width="349pt" height="249pt"
 viewBox="0.00 0.00 349.00 248.52" xmlns="http://www.w3.org/2000/svg" xmlns:xlink="http://www.w3.org/1999/xlink">
<g id="graph0" class="graph" transform="scale(1 1) rotate(0) translate(4 244.52)">
<title>Files and I/O</title>
<!-- Node5 -->
<g id="node1" class="node">
<title>Node5</title>
<g id="a_node1"><a xlink:href="group__command__files.html" target="_top" xlink:title="Functions to parse and interpret the content of Command Files.">
<polygon fill="white" stroke="#666666" points="310,-233.47 224,-233.47 224,-214.47 310,-214.47 310,-233.47"/>
<text text-anchor="middle" x="267" y="-221.47" font-family="Helvetica,sans-Serif" font-size="10.00">Command Files</text>
</a>
</g>
</g>
<!-- Node3 -->
<g id="node2" class="node">
<title>Node3</title>
<g id="a_node2"><a xlink:href="group__file__formats.html" target="_top" xlink:title="Functions to read/write different file formats for nucleic acid sequences and secondary structures.">
<polygon fill="white" stroke="#666666" points="328.5,-179.97 205.5,-179.97 205.5,-149.97 328.5,-149.97 328.5,-179.97"/>
<text text-anchor="start" x="213.5" y="-167.97" font-family="Helvetica,sans-Serif" font-size="10.00">Nucleic Acid Sequences</text>
<text text-anchor="middle" x="267" y="-156.97" font-family="Helvetica,sans-Serif" font-size="10.00"> and Structures</text>
</a>
</g>
</g>
<!-- Node4 -->
<g id="node3" class="node">
<title>Node4</title>
<g id="a_node3"><a xlink:href="group__file__formats__msa.html" target="_top" xlink:title="Functions to read/write multiple sequence alignments (MSA) in various file formats.">
<polygon fill="white" stroke="#666666" points="341,-115.47 193,-115.47 193,-96.47 341,-96.47 341,-115.47"/>
<text text-anchor="middle" x="267" y="-103.47" font-family="Helvetica,sans-Serif" font-size="10.00">Multiple Sequence Alignments</text>
</a>
</g>
</g>
<!-- Node1 -->
<g id="node4" class="node">
<title>Node1</title>
<g id="a_node4"><a xlink:title="Functions to parse, write, and convert various file formats and to deal with file system related issu...">
<polygon fill="#999999" stroke="#666666" points="73,-144.47 0,-144.47 0,-125.47 73,-125.47 73,-144.47"/>
<text text-anchor="middle" x="36.5" y="-132.47" font-family="Helvetica,sans-Serif" font-size="10.00">Files and I/O</text>
</a>
</g>
</g>
<!-- Node1&#45;&gt;Node5 -->
<g id="edge4" class="edge">
<title>Node1&#45;&gt;Node5</title>
<path fill="none" stroke="black" d="M43.52,-155.71C50.9,-176.89 65.65,-208.62 91,-222.97 132.91,-246.69 190,-241.42 227.42,-233.97"/>
<polygon fill="black" stroke="black" points="46.92,-154.85 40.54,-146.39 40.25,-156.98 46.92,-154.85"/>
</g>
<!-- Node1&#45;&gt;Node5 -->
<g id="edge6" class="edge">
<title>Node1&#45;&gt;Node5</title>
<path fill="none" stroke="darkgreen" stroke-dasharray="5,2" d="M45.93,-144.81C55.69,-155.57 72.78,-172.52 91,-181.97 113.82,-193.79 179.57,-207.76 223.66,-216.24"/>
<text text-anchor="middle" x="133" y="-207.97" font-family="Helvetica,sans-Serif" font-size="10.00">commands.h</text>
</g>
<!-- Node1&#45;&gt;Node3 -->
<g id="edge2" class="edge">
<title>Node1&#45;&gt;Node3</title>
<path fill="none" stroke="black" d="M60.94,-150.91C69.94,-156.13 80.56,-161.29 91,-163.97 128.08,-173.48 171.05,-173.88 205.14,-171.82"/>
<polygon fill="black" stroke="black" points="62.86,-147.98 52.52,-145.68 59.17,-153.93 62.86,-147.98"/>
</g>
<!-- Node1&#45;&gt;Node3 -->
<g id="edge7" class="edge">
<title>Node1&#45;&gt;Node3</title>
<path fill="none" stroke="darkgreen" stroke-dasharray="5,2" d="M73.44,-138.78C101.21,-141.82 140.59,-146.32 175,-150.97 184.82,-152.29 195.22,-153.8 205.35,-155.32"/>
<text text-anchor="middle" x="133" y="-153.97" font-family="Helvetica,sans-Serif" font-size="10.00">file_formats.h</text>
</g>
<!-- Node1&#45;&gt;Node4 -->
<g id="edge3" class="edge">
<title>Node1&#45;&gt;Node4</title>
<path fill="none" stroke="black" d="M84.87,-128.96C116.07,-125 157.53,-119.73 192.92,-115.24"/>
<polygon fill="black" stroke="black" points="84.44,-125.48 74.96,-130.21 85.32,-132.43 84.44,-125.48"/>
</g>
<!-- Node1&#45;&gt;Node4 -->
<g id="edge8" class="edge">
<title>Node1&#45;&gt;Node4</title>
<path fill="none" stroke="darkgreen" stroke-dasharray="5,2" d="M49.32,-124.98C59.59,-117 75.25,-106.43 91,-101.97 128.42,-91.35 172.17,-92.35 206.57,-96.01"/>
<text text-anchor="middle" x="133" y="-104.97" font-family="Helvetica,sans-Serif" font-size="10.00">file_formats_msa.h</text>
</g>
<!-- Node2 -->
<g id="node5" class="node">
<title>Node2</title>
<g id="a_node5"><a xlink:href="group__utils.html" target="_top" xlink:title=" ">
<polygon fill="white" stroke="#666666" points="292,-30.47 242,-30.47 242,-11.47 292,-11.47 292,-30.47"/>
<text text-anchor="middle" x="267" y="-18.47" font-family="Helvetica,sans-Serif" font-size="10.00">Utilities</text>
</a>
</g>
</g>
<!-- Node1&#45;&gt;Node2 -->
<g id="edge5" class="edge">
<title>Node1&#45;&gt;Node2</title>
<path fill="none" stroke="darkgreen" stroke-dasharray="5,2" d="M41.22,-125.13C48.19,-108.1 64.92,-73.29 91,-55.97 137.71,-24.93 205.85,-20.29 241.77,-20.23"/>
<text text-anchor="middle" x="133" y="-80.97" font-family="Helvetica,sans-Serif" font-size="10.00">commands.h</text>
<text text-anchor="middle" x="133" y="-69.97" font-family="Helvetica,sans-Serif" font-size="10.00">file_formats_msa.h</text>
<text text-anchor="middle" x="133" y="-58.97" font-family="Helvetica,sans-Serif" font-size="10.00">utils.h</text>
</g>
<!-- Node2&#45;&gt;Node1 -->
<g id="edge1" class="edge">
<title>Node2&#45;&gt;Node1</title>
<path fill="none" stroke="black" d="M230.71,-9.65C192.98,0.15 132.94,8.97 91,-17.97 52.85,-42.47 41.56,-101.68 38.52,-125.15"/>
<polygon fill="black" stroke="black" points="229.63,-12.99 240.2,-12.29 231.5,-6.24 229.63,-12.99"/>
</g>
</g>
</svg>
