<?xml version="1.0" encoding="UTF-8" standalone="no"?>
<!DOCTYPE svg PUBLIC "-//W3C//DTD SVG 1.1//EN"
 "http://www.w3.org/Graphics/SVG/1.1/DTD/svg11.dtd">
<!-- Generated by graphviz version 7.1.0 (0)
 -->
<!-- Title: Computing Partition Functions of a Distance Based Partitioning Pages: 1 -->
<svg width="335pt" height="86pt"
 viewBox="0.00 0.00 335.00 86.00" xmlns="http://www.w3.org/2000/svg" xmlns:xlink="http://www.w3.org/1999/xlink">
<g id="graph0" class="graph" transform="scale(1 1) rotate(0) translate(4 82)">
<title>Computing Partition Functions of a Distance Based Partitioning</title>
<!-- Node2 -->
<g id="node1" class="node">
<title>Node2</title>
<g id="a_node1"><a xlink:href="group__kl__neighborhood.html" target="_top" xlink:title=" ">
<polygon fill="white" stroke="#666666" points="167,-78 0,-78 0,-48 167,-48 167,-78"/>
<text text-anchor="start" x="8" y="-66" font-family="Helvetica,sans-Serif" font-size="10.00">Distance Based Partitioning</text>
<text text-anchor="middle" x="83.5" y="-55" font-family="Helvetica,sans-Serif" font-size="10.00"> of the Secondary Structure Space</text>
</a>
</g>
</g>
<!-- Node1 -->
<g id="node2" class="node">
<title>Node1</title>
<g id="a_node2"><a xlink:title="Compute the partition function and stochastically sample secondary structures for a partitioning of t...">
<polygon fill="#999999" stroke="#666666" points="327,-59.5 203,-59.5 203,-18.5 327,-18.5 327,-59.5"/>
<text text-anchor="start" x="211" y="-47.5" font-family="Helvetica,sans-Serif" font-size="10.00">Computing Partition</text>
<text text-anchor="start" x="211" y="-36.5" font-family="Helvetica,sans-Serif" font-size="10.00"> Functions of a Distance</text>
<text text-anchor="middle" x="265" y="-25.5" font-family="Helvetica,sans-Serif" font-size="10.00"> Based Partitioning</text>
</a>
</g>
</g>
<!-- Node2&#45;&gt;Node1 -->
<g id="edge1" class="edge">
<title>Node2&#45;&gt;Node1</title>
<path fill="none" stroke="black" d="M178.83,-50.39C186.89,-49.31 194.91,-48.24 202.62,-47.21"/>
<polygon fill="black" stroke="black" points="178.37,-46.92 168.92,-51.71 179.3,-53.86 178.37,-46.92"/>
</g>
<!-- Node3 -->
<g id="node3" class="node">
<title>Node3</title>
<g id="a_node3"><a xlink:href="group__part__func__global.html" target="_top" xlink:title="Variations of the global partition function algorithm.">
<polygon fill="white" stroke="#666666" points="155,-30 12,-30 12,0 155,0 155,-30"/>
<text text-anchor="start" x="20" y="-18" font-family="Helvetica,sans-Serif" font-size="10.00">Global Partition Function</text>
<text text-anchor="middle" x="83.5" y="-7" font-family="Helvetica,sans-Serif" font-size="10.00"> and Equilibrium Probabilities</text>
</a>
</g>
</g>
<!-- Node3&#45;&gt;Node1 -->
<g id="edge2" class="edge">
<title>Node3&#45;&gt;Node1</title>
<path fill="none" stroke="black" d="M166.5,-25.96C178.63,-27.59 190.95,-29.23 202.57,-30.79"/>
<polygon fill="black" stroke="black" points="167.32,-22.54 156.94,-24.69 166.39,-29.48 167.32,-22.54"/>
</g>
</g>
</svg>
