<?xml version="1.0" encoding="UTF-8" standalone="no"?>
<!DOCTYPE svg PUBLIC "-//W3C//DTD SVG 1.1//EN"
 "http://www.w3.org/Graphics/SVG/1.1/DTD/svg11.dtd">
<!-- Generated by graphviz version 7.1.0 (0)
 -->
<!-- Title: Ligands Binding to RNA Structures Pages: 1 -->
<svg width="277pt" height="108pt"
 viewBox="0.00 0.00 277.00 108.00" xmlns="http://www.w3.org/2000/svg" xmlns:xlink="http://www.w3.org/1999/xlink">
<g id="graph0" class="graph" transform="scale(1 1) rotate(0) translate(4 104)">
<title>Ligands Binding to RNA Structures</title>
<!-- Node3 -->
<g id="node1" class="node">
<title>Node3</title>
<g id="a_node1"><a xlink:href="group__constraints__ligand.html" target="_top" xlink:title="Ligand binding to specific hairpin/interior loop like motifs using the Soft Constraints feature.">
<polygon fill="white" stroke="#666666" points="269,-100 133,-100 133,-48 269,-48 269,-100"/>
<text text-anchor="start" x="141" y="-88" font-family="Helvetica,sans-Serif" font-size="10.00">Incorporating Ligands</text>
<text text-anchor="start" x="141" y="-77" font-family="Helvetica,sans-Serif" font-size="10.00"> Binding to Specific</text>
<text text-anchor="start" x="141" y="-66" font-family="Helvetica,sans-Serif" font-size="10.00"> Sequence/Structure Motifs</text>
<text text-anchor="middle" x="201" y="-55" font-family="Helvetica,sans-Serif" font-size="10.00"> using Soft Constraints</text>
</a>
</g>
</g>
<!-- Node1 -->
<g id="node2" class="node">
<title>Node1</title>
<g id="a_node2"><a xlink:title="Simple Extensions to Model Ligand Binding to RNA Structures.">
<polygon fill="#999999" stroke="#666666" points="97,-59 0,-59 0,-29 97,-29 97,-59"/>
<text text-anchor="start" x="8" y="-47" font-family="Helvetica,sans-Serif" font-size="10.00">Ligands Binding to</text>
<text text-anchor="middle" x="48.5" y="-36" font-family="Helvetica,sans-Serif" font-size="10.00"> RNA Structures</text>
</a>
</g>
</g>
<!-- Node1&#45;&gt;Node3 -->
<g id="edge2" class="edge">
<title>Node1&#45;&gt;Node3</title>
<path fill="none" stroke="black" d="M108.22,-55.7C116.22,-57.3 124.48,-58.95 132.62,-60.57"/>
<polygon fill="black" stroke="black" points="109.09,-52.31 98.6,-53.79 107.73,-59.18 109.09,-52.31"/>
</g>
<!-- Node2 -->
<g id="node3" class="node">
<title>Node2</title>
<g id="a_node3"><a xlink:href="group__ligands__up.html" target="_top" xlink:title="Add ligand binding to loop regions using the Unstructured Domains feature.">
<polygon fill="white" stroke="#666666" points="260,-30 142,-30 142,0 260,0 260,-30"/>
<text text-anchor="start" x="150" y="-18" font-family="Helvetica,sans-Serif" font-size="10.00">Ligands Binding to</text>
<text text-anchor="middle" x="201" y="-7" font-family="Helvetica,sans-Serif" font-size="10.00"> Unstructured Domains</text>
</a>
</g>
</g>
<!-- Node1&#45;&gt;Node2 -->
<g id="edge1" class="edge">
<title>Node1&#45;&gt;Node2</title>
<path fill="none" stroke="black" d="M108.3,-32.67C119.24,-30.56 130.67,-28.36 141.6,-26.25"/>
<polygon fill="black" stroke="black" points="107.76,-29.21 98.61,-34.54 109.09,-36.08 107.76,-29.21"/>
</g>
</g>
</svg>
