<?xml version="1.0" encoding="UTF-8" standalone="no"?>
<!DOCTYPE svg PUBLIC "-//W3C//DTD SVG 1.1//EN"
 "http://www.w3.org/Graphics/SVG/1.1/DTD/svg11.dtd">
<!-- Generated by graphviz version 7.1.0 (0)
 -->
<!-- Title: Multiple Sequence Alignments Pages: 1 -->
<svg width="349pt" height="75pt"
 viewBox="0.00 0.00 349.00 75.00" xmlns="http://www.w3.org/2000/svg" xmlns:xlink="http://www.w3.org/1999/xlink">
<g id="graph0" class="graph" transform="scale(1 1) rotate(0) translate(4 71)">
<title>Multiple Sequence Alignments</title>
<!-- Node1 -->
<g id="node1" class="node">
<title>Node1</title>
<g id="a_node1"><a xlink:title="Functions to read/write multiple sequence alignments (MSA) in various file formats.">
<polygon fill="#999999" stroke="#666666" points="148,-45 0,-45 0,-26 148,-26 148,-45"/>
<text text-anchor="middle" x="74" y="-33" font-family="Helvetica,sans-Serif" font-size="10.00">Multiple Sequence Alignments</text>
</a>
</g>
</g>
<!-- Node2 -->
<g id="node2" class="node">
<title>Node2</title>
<g id="a_node2"><a xlink:href="group__file__utils.html" target="_top" xlink:title="Functions to parse, write, and convert various file formats and to deal with file system related issu...">
<polygon fill="white" stroke="#666666" points="341,-67 268,-67 268,-48 341,-48 341,-67"/>
<text text-anchor="middle" x="304.5" y="-55" font-family="Helvetica,sans-Serif" font-size="10.00">Files and I/O</text>
</a>
</g>
</g>
<!-- Node1&#45;&gt;Node2 -->
<g id="edge3" class="edge">
<title>Node1&#45;&gt;Node2</title>
<path fill="none" stroke="darkgreen" stroke-dasharray="5,2" d="M148.48,-44.64C154.4,-45.3 160.3,-45.93 166,-46.5 200.43,-49.96 239.8,-53.02 267.56,-55.02"/>
<text text-anchor="middle" x="208" y="-56.5" font-family="Helvetica,sans-Serif" font-size="10.00">file_formats_msa.h</text>
</g>
<!-- Node3 -->
<g id="node3" class="node">
<title>Node3</title>
<g id="a_node3"><a xlink:href="group__utils.html" target="_top" xlink:title=" ">
<polygon fill="white" stroke="#666666" points="329.5,-19 279.5,-19 279.5,0 329.5,0 329.5,-19"/>
<text text-anchor="middle" x="304.5" y="-7" font-family="Helvetica,sans-Serif" font-size="10.00">Utilities</text>
</a>
</g>
</g>
<!-- Node1&#45;&gt;Node3 -->
<g id="edge2" class="edge">
<title>Node1&#45;&gt;Node3</title>
<path fill="none" stroke="darkgreen" stroke-dasharray="5,2" d="M148.24,-27.17C193.28,-22.04 248.11,-15.8 279.1,-12.28"/>
<text text-anchor="middle" x="208" y="-27.5" font-family="Helvetica,sans-Serif" font-size="10.00">file_formats_msa.h</text>
</g>
<!-- Node2&#45;&gt;Node1 -->
<g id="edge1" class="edge">
<title>Node2&#45;&gt;Node1</title>
<path fill="none" stroke="black" d="M256.24,-50.25C254.13,-49.99 252.05,-49.73 250,-49.5 216.69,-45.68 179.7,-42.56 148.33,-40.24"/>
<polygon fill="black" stroke="black" points="255.69,-53.71 266.07,-51.58 256.63,-46.77 255.69,-53.71"/>
</g>
</g>
</svg>
