<?xml version="1.0" encoding="UTF-8" standalone="no"?>
<!DOCTYPE svg PUBLIC "-//W3C//DTD SVG 1.1//EN"
 "http://www.w3.org/Graphics/SVG/1.1/DTD/svg11.dtd">
<!-- Generated by graphviz version 7.1.0 (0)
 -->
<!-- Title: The RNA Folding Grammar Pages: 1 -->
<svg width="305pt" height="183pt"
 viewBox="0.00 0.00 305.00 183.00" xmlns="http://www.w3.org/2000/svg" xmlns:xlink="http://www.w3.org/1999/xlink">
<g id="graph0" class="graph" transform="scale(1 1) rotate(0) translate(4 179)">
<title>The RNA Folding Grammar</title>
<!-- Node5 -->
<g id="node1" class="node">
<title>Node5</title>
<g id="a_node1"><a xlink:href="group__constraints.html" target="_top" xlink:title="This module provides general functions that allow for an easy control of constrained secondary struct...">
<polygon fill="white" stroke="#666666" points="290.5,-175 177.5,-175 177.5,-145 290.5,-145 290.5,-175"/>
<text text-anchor="start" x="185.5" y="-163" font-family="Helvetica,sans-Serif" font-size="10.00">Constraining the RNA</text>
<text text-anchor="middle" x="234" y="-152" font-family="Helvetica,sans-Serif" font-size="10.00"> Folding Grammar</text>
</a>
</g>
</g>
<!-- Node4 -->
<g id="node2" class="node">
<title>Node4</title>
<g id="a_node2"><a xlink:href="group__domains.html" target="_top" xlink:title="This module covers simple and straight&#45;forward extensions to the RNA folding grammar.">
<polygon fill="white" stroke="#666666" points="297,-126.5 171,-126.5 171,-85.5 297,-85.5 297,-126.5"/>
<text text-anchor="start" x="179" y="-114.5" font-family="Helvetica,sans-Serif" font-size="10.00">Extending the Folding</text>
<text text-anchor="start" x="179" y="-103.5" font-family="Helvetica,sans-Serif" font-size="10.00"> Grammar with Additional</text>
<text text-anchor="middle" x="234" y="-92.5" font-family="Helvetica,sans-Serif" font-size="10.00"> Domains</text>
</a>
</g>
</g>
<!-- Node3 -->
<g id="node3" class="node">
<title>Node3</title>
<g id="a_node3"><a xlink:href="group__energy__parameters.html" target="_top" xlink:title="All relevant functions to retrieve and copy pre&#45;calculated energy parameter sets as well as reading/w...">
<polygon fill="white" stroke="#666666" points="284.5,-67.5 183.5,-67.5 183.5,-48.5 284.5,-48.5 284.5,-67.5"/>
<text text-anchor="middle" x="234" y="-55.5" font-family="Helvetica,sans-Serif" font-size="10.00">Energy Parameters</text>
</a>
</g>
</g>
<!-- Node1 -->
<g id="node4" class="node">
<title>Node1</title>
<g id="a_node4"><a xlink:title="The RNA folding grammar as implemented in RNAlib.">
<polygon fill="#999999" stroke="#666666" points="135,-91.5 0,-91.5 0,-72.5 135,-72.5 135,-91.5"/>
<text text-anchor="middle" x="67.5" y="-79.5" font-family="Helvetica,sans-Serif" font-size="10.00">The RNA Folding Grammar</text>
</a>
</g>
</g>
<!-- Node1&#45;&gt;Node5 -->
<g id="edge4" class="edge">
<title>Node1&#45;&gt;Node5</title>
<path fill="none" stroke="black" d="M95.82,-97.5C116.23,-108.8 144.97,-124.15 171,-136 177.41,-138.92 184.28,-141.81 191.04,-144.52"/>
<polygon fill="black" stroke="black" points="97.73,-94.55 87.29,-92.73 94.31,-100.67 97.73,-94.55"/>
</g>
<!-- Node1&#45;&gt;Node4 -->
<g id="edge3" class="edge">
<title>Node1&#45;&gt;Node4</title>
<path fill="none" stroke="black" d="M146.7,-93.41C154.74,-94.58 162.83,-95.76 170.66,-96.91"/>
<polygon fill="black" stroke="black" points="147.31,-89.96 136.91,-91.98 146.3,-96.89 147.31,-89.96"/>
</g>
<!-- Node1&#45;&gt;Node3 -->
<g id="edge2" class="edge">
<title>Node1&#45;&gt;Node3</title>
<path fill="none" stroke="black" d="M146.7,-70.59C159.07,-68.79 171.57,-66.96 183.06,-65.29"/>
<polygon fill="black" stroke="black" points="146.3,-67.11 136.91,-72.02 147.31,-74.04 146.3,-67.11"/>
</g>
<!-- Node2 -->
<g id="node5" class="node">
<title>Node2</title>
<g id="a_node5"><a xlink:href="group__model__details.html" target="_top" xlink:title="Functions and data structures to fine&#45;tune the implemented secondary structure evaluation model.">
<polygon fill="white" stroke="#666666" points="289,-30 179,-30 179,0 289,0 289,-30"/>
<text text-anchor="start" x="187" y="-18" font-family="Helvetica,sans-Serif" font-size="10.00">Fine&#45;tuning of the</text>
<text text-anchor="middle" x="234" y="-7" font-family="Helvetica,sans-Serif" font-size="10.00"> Implemented Models</text>
</a>
</g>
</g>
<!-- Node1&#45;&gt;Node2 -->
<g id="edge1" class="edge">
<title>Node1&#45;&gt;Node2</title>
<path fill="none" stroke="black" d="M102.92,-67.84C122.81,-59.67 148.3,-49.23 171,-40 178.63,-36.9 186.8,-33.59 194.62,-30.44"/>
<polygon fill="black" stroke="black" points="101.83,-64.5 93.91,-71.54 104.49,-70.98 101.83,-64.5"/>
</g>
</g>
</svg>
