<?xml version="1.0" encoding="UTF-8" standalone="no"?>
<!DOCTYPE svg PUBLIC "-//W3C//DTD SVG 1.1//EN"
 "http://www.w3.org/Graphics/SVG/1.1/DTD/svg11.dtd">
<!-- Generated by graphviz version 7.1.0 (0)
 -->
<!-- Title: ViennaRNA/loops/hairpin.h Pages: 1 -->
<svg width="292pt" height="137pt"
 viewBox="0.00 0.00 291.50 137.00" xmlns="http://www.w3.org/2000/svg" xmlns:xlink="http://www.w3.org/1999/xlink">
<g id="graph0" class="graph" transform="scale(1 1) rotate(0) translate(4 133)">
<title>ViennaRNA/loops/hairpin.h</title>
<!-- Node1 -->
<g id="node1" class="node">
<title>Node1</title>
<g id="a_node1"><a xlink:title="Energy evaluation of hairpin loops for MFE and partition function calculations.">
<polygon fill="#999999" stroke="#666666" points="207.5,-129 73.5,-129 73.5,-110 207.5,-110 207.5,-129"/>
<text text-anchor="middle" x="140.5" y="-117" font-family="Helvetica,sans-Serif" font-size="10.00">ViennaRNA/loops/hairpin.h</text>
</a>
</g>
</g>
<!-- Node2 -->
<g id="node2" class="node">
<title>Node2</title>
<g id="a_node2"><a xlink:href="hairpin__loops_8h.html" target="_top" xlink:title="Use ViennaRNA/loops/hairpin.h instead.">
<polygon fill="white" stroke="#666666" points="137,-74 0,-74 0,-55 137,-55 137,-74"/>
<text text-anchor="middle" x="68.5" y="-62" font-family="Helvetica,sans-Serif" font-size="10.00">ViennaRNA/hairpin_loops.h</text>
</a>
</g>
</g>
<!-- Node1&#45;&gt;Node2 -->
<g id="edge1" class="edge">
<title>Node1&#45;&gt;Node2</title>
<path fill="none" stroke="#63b8ff" d="M119.33,-102.92C106.69,-93.61 91.09,-82.13 80.53,-74.36"/>
<polygon fill="#63b8ff" stroke="#63b8ff" points="116.94,-105.5 127.07,-108.61 121.09,-99.87 116.94,-105.5"/>
</g>
<!-- Node3 -->
<g id="node3" class="node">
<title>Node3</title>
<g id="a_node3"><a xlink:href="all_8h.html" target="_top" xlink:title="Energy evaluation for MFE and partition function calculations.">
<polygon fill="white" stroke="#666666" points="271.5,-74 155.5,-74 155.5,-55 271.5,-55 271.5,-74"/>
<text text-anchor="middle" x="213.5" y="-62" font-family="Helvetica,sans-Serif" font-size="10.00">ViennaRNA/loops/all.h</text>
</a>
</g>
</g>
<!-- Node1&#45;&gt;Node3 -->
<g id="edge2" class="edge">
<title>Node1&#45;&gt;Node3</title>
<path fill="none" stroke="#63b8ff" d="M161.97,-102.92C174.78,-93.61 190.6,-82.13 201.3,-74.36"/>
<polygon fill="#63b8ff" stroke="#63b8ff" points="160.14,-99.91 154.11,-108.62 164.26,-105.58 160.14,-99.91"/>
</g>
<!-- Node4 -->
<g id="node4" class="node">
<title>Node4</title>
<g id="a_node4"><a xlink:href="loop__energies_8h.html" target="_top" xlink:title="Use ViennaRNA/loops/all.h instead.">
<polygon fill="white" stroke="#666666" points="283.5,-19 143.5,-19 143.5,0 283.5,0 283.5,-19"/>
<text text-anchor="middle" x="213.5" y="-7" font-family="Helvetica,sans-Serif" font-size="10.00">ViennaRNA/loop_energies.h</text>
</a>
</g>
</g>
<!-- Node3&#45;&gt;Node4 -->
<g id="edge3" class="edge">
<title>Node3&#45;&gt;Node4</title>
<path fill="none" stroke="#63b8ff" d="M213.5,-43.35C213.5,-35.1 213.5,-25.97 213.5,-19.44"/>
<polygon fill="#63b8ff" stroke="#63b8ff" points="210,-43.23 213.5,-53.23 217,-43.23 210,-43.23"/>
</g>
</g>
</svg>
