<?xml version="1.0" encoding="UTF-8" standalone="no"?>
<!DOCTYPE svg PUBLIC "-//W3C//DTD SVG 1.1//EN"
 "http://www.w3.org/Graphics/SVG/1.1/DTD/svg11.dtd">
<!-- Generated by graphviz version 7.1.0 (0)
 -->
<!-- Title: ViennaRNA/loops/hairpin.h Pages: 1 -->
<svg width="1614pt" height="445pt"
 viewBox="0.00 0.00 1614.00 445.00" xmlns="http://www.w3.org/2000/svg" xmlns:xlink="http://www.w3.org/1999/xlink">
<g id="graph0" class="graph" transform="scale(1 1) rotate(0) translate(4 441)">
<title>ViennaRNA/loops/hairpin.h</title>
<!-- Node1 -->
<g id="node1" class="node">
<title>Node1</title>
<g id="a_node1"><a xlink:title="Energy evaluation of hairpin loops for MFE and partition function calculations.">
<polygon fill="#999999" stroke="#666666" points="817,-437 683,-437 683,-418 817,-418 817,-437"/>
<text text-anchor="middle" x="750" y="-425" font-family="Helvetica,sans-Serif" font-size="10.00">ViennaRNA/loops/hairpin.h</text>
</a>
</g>
</g>
<!-- Node2 -->
<g id="node2" class="node">
<title>Node2</title>
<g id="a_node2"><a xlink:title=" ">
<polygon fill="#e0e0e0" stroke="#999999" points="547.5,-327 500.5,-327 500.5,-308 547.5,-308 547.5,-327"/>
<text text-anchor="middle" x="524" y="-315" font-family="Helvetica,sans-Serif" font-size="10.00">math.h</text>
</a>
</g>
</g>
<!-- Node1&#45;&gt;Node2 -->
<g id="edge1" class="edge">
<title>Node1&#45;&gt;Node2</title>
<path fill="none" stroke="#63b8ff" d="M682.55,-419.45C630.16,-412.65 563.15,-400.62 543,-382 531.09,-371 526.54,-352.88 524.85,-338.8"/>
<polygon fill="#63b8ff" stroke="#63b8ff" points="528.34,-338.55 524.09,-328.84 521.36,-339.08 528.34,-338.55"/>
</g>
<!-- Node3 -->
<g id="node3" class="node">
<title>Node3</title>
<g id="a_node3"><a xlink:href="string_8h_source.html" target="_top" xlink:title=" ">
<polygon fill="white" stroke="#666666" points="1527.5,-382 1478.5,-382 1478.5,-363 1527.5,-363 1527.5,-382"/>
<text text-anchor="middle" x="1503" y="-370" font-family="Helvetica,sans-Serif" font-size="10.00">string.h</text>
</a>
</g>
</g>
<!-- Node1&#45;&gt;Node3 -->
<g id="edge2" class="edge">
<title>Node1&#45;&gt;Node3</title>
<path fill="none" stroke="#63b8ff" d="M817.17,-425.59C943.97,-423.16 1227.07,-414.25 1463,-382 1464.38,-381.81 1465.79,-381.6 1467.21,-381.37"/>
<polygon fill="#63b8ff" stroke="#63b8ff" points="1467.44,-384.89 1476.65,-379.65 1466.18,-378 1467.44,-384.89"/>
</g>
<!-- Node5 -->
<g id="node5" class="node">
<title>Node5</title>
<g id="a_node5"><a xlink:href="utils_2basic_8h.html" target="_top" xlink:title="General utility&#45; and helper&#45;functions used throughout the ViennaRNA Package.">
<polygon fill="white" stroke="#666666" points="690,-327 566,-327 566,-308 690,-308 690,-327"/>
<text text-anchor="middle" x="628" y="-315" font-family="Helvetica,sans-Serif" font-size="10.00">ViennaRNA/utils/basic.h</text>
</a>
</g>
</g>
<!-- Node1&#45;&gt;Node5 -->
<g id="edge5" class="edge">
<title>Node1&#45;&gt;Node5</title>
<path fill="none" stroke="#63b8ff" d="M743.05,-417.71C732.68,-404.9 712.22,-380.7 692,-363 679.67,-352.21 664.68,-341.67 652.31,-333.56"/>
<polygon fill="#63b8ff" stroke="#63b8ff" points="654.24,-330.63 643.93,-328.18 650.46,-336.52 654.24,-330.63"/>
</g>
<!-- Node8 -->
<g id="node8" class="node">
<title>Node8</title>
<g id="a_node8"><a xlink:href="datastructures_2basic_8h.html" target="_top" xlink:title="Various data structures and pre&#45;processor macros.">
<polygon fill="white" stroke="#666666" points="698,-272 564,-272 564,-242 698,-242 698,-272"/>
<text text-anchor="start" x="572" y="-260" font-family="Helvetica,sans-Serif" font-size="10.00">ViennaRNA/datastructures</text>
<text text-anchor="middle" x="631" y="-249" font-family="Helvetica,sans-Serif" font-size="10.00">/basic.h</text>
</a>
</g>
</g>
<!-- Node1&#45;&gt;Node8 -->
<g id="edge50" class="edge">
<title>Node1&#45;&gt;Node8</title>
<path fill="none" stroke="#63b8ff" d="M747.91,-417.63C742.63,-396.72 727.15,-343.42 699,-308 690.02,-296.71 677.9,-286.71 666.37,-278.67"/>
<polygon fill="#63b8ff" stroke="#63b8ff" points="668.44,-275.85 658.17,-273.24 664.57,-281.68 668.44,-275.85"/>
</g>
<!-- Node11 -->
<g id="node11" class="node">
<title>Node11</title>
<g id="a_node11"><a xlink:href="fold__compound_8h.html" target="_top" xlink:title="The Basic Fold Compound API.">
<polygon fill="white" stroke="#666666" points="861,-206 715,-206 715,-187 861,-187 861,-206"/>
<text text-anchor="middle" x="788" y="-194" font-family="Helvetica,sans-Serif" font-size="10.00">ViennaRNA/fold_compound.h</text>
</a>
</g>
</g>
<!-- Node1&#45;&gt;Node11 -->
<g id="edge51" class="edge">
<title>Node1&#45;&gt;Node11</title>
<path fill="none" stroke="#63b8ff" d="M751.49,-417.52C757.07,-383.89 776.82,-264.86 784.71,-217.32"/>
<polygon fill="#63b8ff" stroke="#63b8ff" points="788.13,-218.1 786.31,-207.66 781.22,-216.95 788.13,-218.1"/>
</g>
<!-- Node13 -->
<g id="node13" class="node">
<title>Node13</title>
<g id="a_node13"><a xlink:href="params_2basic_8h.html" target="_top" xlink:title="Functions to deal with sets of energy parameters.">
<polygon fill="white" stroke="#666666" points="1521,-145.5 1383,-145.5 1383,-126.5 1521,-126.5 1521,-145.5"/>
<text text-anchor="middle" x="1452" y="-133.5" font-family="Helvetica,sans-Serif" font-size="10.00">ViennaRNA/params/basic.h</text>
</a>
</g>
</g>
<!-- Node1&#45;&gt;Node13 -->
<g id="edge52" class="edge">
<title>Node1&#45;&gt;Node13</title>
<path fill="none" stroke="#63b8ff" d="M817.34,-423.11C992.53,-413.4 1449,-382.01 1449,-318.5 1449,-318.5 1449,-318.5 1449,-256 1449,-221.3 1450.29,-180.93 1451.18,-157.25"/>
<polygon fill="#63b8ff" stroke="#63b8ff" points="1454.67,-157.6 1451.56,-147.47 1447.67,-157.32 1454.67,-157.6"/>
</g>
<!-- Node24 -->
<g id="node24" class="node">
<title>Node24</title>
<g id="a_node24"><a xlink:href="salt_8h.html" target="_top" xlink:title="Functions to compute salt correction.">
<polygon fill="white" stroke="#666666" points="683.5,-382 552.5,-382 552.5,-363 683.5,-363 683.5,-382"/>
<text text-anchor="middle" x="618" y="-370" font-family="Helvetica,sans-Serif" font-size="10.00">ViennaRNA/params/salt.h</text>
</a>
</g>
</g>
<!-- Node1&#45;&gt;Node24 -->
<g id="edge53" class="edge">
<title>Node1&#45;&gt;Node24</title>
<path fill="none" stroke="#63b8ff" d="M727.61,-417.51C706.43,-409.01 674.41,-396.15 650.44,-386.53"/>
<polygon fill="#63b8ff" stroke="#63b8ff" points="652.05,-383.4 641.47,-382.92 649.44,-389.9 652.05,-383.4"/>
</g>
<!-- Node3&#45;&gt;Node3 -->
<g id="edge4" class="edge">
<title>Node3&#45;&gt;Node3</title>
<path fill="none" stroke="#63b8ff" d="M1524.43,-382.45C1535.51,-383.98 1545.5,-380.66 1545.5,-372.5 1545.5,-367.27 1541.4,-364.03 1535.54,-362.78"/>
<polygon fill="#63b8ff" stroke="#63b8ff" points="1536.01,-359.29 1525.94,-362.58 1535.87,-366.29 1536.01,-359.29"/>
</g>
<!-- Node4 -->
<g id="node4" class="node">
<title>Node4</title>
<g id="a_node4"><a xlink:title=" ">
<polygon fill="#e0e0e0" stroke="#999999" points="1529,-327 1477,-327 1477,-308 1529,-308 1529,-327"/>
<text text-anchor="middle" x="1503" y="-315" font-family="Helvetica,sans-Serif" font-size="10.00">stddef.h</text>
</a>
</g>
</g>
<!-- Node3&#45;&gt;Node4 -->
<g id="edge3" class="edge">
<title>Node3&#45;&gt;Node4</title>
<path fill="none" stroke="#63b8ff" d="M1503,-362.75C1503,-356.27 1503,-347.16 1503,-338.9"/>
<polygon fill="#63b8ff" stroke="#63b8ff" points="1506.5,-338.96 1503,-328.96 1499.5,-338.96 1506.5,-338.96"/>
</g>
<!-- Node6 -->
<g id="node6" class="node">
<title>Node6</title>
<g id="a_node6"><a xlink:title=" ">
<polygon fill="#e0e0e0" stroke="#999999" points="153,-19 107,-19 107,0 153,0 153,-19"/>
<text text-anchor="middle" x="130" y="-7" font-family="Helvetica,sans-Serif" font-size="10.00">stdio.h</text>
</a>
</g>
</g>
<!-- Node5&#45;&gt;Node6 -->
<g id="edge6" class="edge">
<title>Node5&#45;&gt;Node6</title>
<path fill="none" stroke="#63b8ff" d="M573.45,-307.52C434.84,-284.35 80,-222.57 80,-197.5 80,-197.5 80,-197.5 80,-135 80,-98.46 84.07,-88.36 99,-55 103.22,-45.57 109.51,-36.06 115.33,-28.25"/>
<polygon fill="#63b8ff" stroke="#63b8ff" points="117.9,-30.65 121.32,-20.62 112.39,-26.33 117.9,-30.65"/>
</g>
<!-- Node7 -->
<g id="node7" class="node">
<title>Node7</title>
<g id="a_node7"><a xlink:title=" ">
<polygon fill="#e0e0e0" stroke="#999999" points="52,-266.5 0,-266.5 0,-247.5 52,-247.5 52,-266.5"/>
<text text-anchor="middle" x="26" y="-254.5" font-family="Helvetica,sans-Serif" font-size="10.00">stdarg.h</text>
</a>
</g>
</g>
<!-- Node5&#45;&gt;Node7 -->
<g id="edge7" class="edge">
<title>Node5&#45;&gt;Node7</title>
<path fill="none" stroke="#63b8ff" d="M565.58,-308.96C562.34,-308.62 559.13,-308.3 556,-308 338.63,-287.19 279.79,-316.45 66,-272 63.69,-271.52 61.34,-270.94 58.98,-270.3"/>
<polygon fill="#63b8ff" stroke="#63b8ff" points="60.16,-267 49.58,-267.36 58.08,-273.68 60.16,-267"/>
</g>
<!-- Node5&#45;&gt;Node8 -->
<g id="edge8" class="edge">
<title>Node5&#45;&gt;Node8</title>
<path fill="none" stroke="#63b8ff" d="M628.44,-307.87C628.77,-301.4 629.25,-292.2 629.69,-283.45"/>
<polygon fill="#63b8ff" stroke="#63b8ff" points="633.18,-283.79 630.2,-273.63 626.19,-283.43 633.18,-283.79"/>
</g>
<!-- Node9 -->
<g id="node9" class="node">
<title>Node9</title>
<g id="a_node9"><a xlink:href="constants_8h.html" target="_top" xlink:title="Energy parameter constants.">
<polygon fill="white" stroke="#666666" points="1606,-79.5 1448,-79.5 1448,-60.5 1606,-60.5 1606,-79.5"/>
<text text-anchor="middle" x="1527" y="-67.5" font-family="Helvetica,sans-Serif" font-size="10.00">ViennaRNA/params/constants.h</text>
</a>
</g>
</g>
<!-- Node8&#45;&gt;Node9 -->
<g id="edge9" class="edge">
<title>Node8&#45;&gt;Node9</title>
<path fill="none" stroke="#63b8ff" d="M698.4,-254.72C861.45,-251.13 1273.57,-238.99 1407,-206 1465.13,-191.63 1497.43,-201.25 1530,-151 1541.56,-133.17 1538.24,-108.1 1533.69,-90.8"/>
<polygon fill="#63b8ff" stroke="#63b8ff" points="1537.05,-89.8 1530.8,-81.24 1530.35,-91.83 1537.05,-89.8"/>
</g>
<!-- Node8&#45;&gt;Node11 -->
<g id="edge11" class="edge">
<title>Node8&#45;&gt;Node11</title>
<path fill="none" stroke="#63b8ff" d="M669.81,-241.54C695.48,-231.97 728.84,-219.55 753.56,-210.33"/>
<polygon fill="#63b8ff" stroke="#63b8ff" points="754.69,-213.65 762.84,-206.87 752.25,-207.09 754.69,-213.65"/>
</g>
<!-- Node12 -->
<g id="node12" class="node">
<title>Node12</title>
<g id="a_node12"><a xlink:href="model_8h.html" target="_top" xlink:title="The model details data structure and its corresponding modifiers.">
<polygon fill="white" stroke="#666666" points="1408,-79.5 1302,-79.5 1302,-60.5 1408,-60.5 1408,-79.5"/>
<text text-anchor="middle" x="1355" y="-67.5" font-family="Helvetica,sans-Serif" font-size="10.00">ViennaRNA/model.h</text>
</a>
</g>
</g>
<!-- Node8&#45;&gt;Node12 -->
<g id="edge41" class="edge">
<title>Node8&#45;&gt;Node12</title>
<path fill="none" stroke="#63b8ff" d="M698.42,-255.28C856.35,-252.16 1243.81,-235.85 1336,-151 1352.39,-135.91 1355.86,-109.49 1356.07,-91.16"/>
<polygon fill="#63b8ff" stroke="#63b8ff" points="1359.57,-91.19 1355.83,-81.27 1352.57,-91.35 1359.57,-91.19"/>
</g>
<!-- Node8&#45;&gt;Node13 -->
<g id="edge42" class="edge">
<title>Node8&#45;&gt;Node13</title>
<path fill="none" stroke="#63b8ff" d="M698.49,-256.71C855.48,-257.41 1240.47,-253.82 1360,-206 1388.15,-194.74 1413.87,-170.15 1431.26,-153.58"/>
<polygon fill="#63b8ff" stroke="#63b8ff" points="1433.58,-156.2 1438.46,-146.79 1428.78,-151.1 1433.58,-156.2"/>
</g>
<!-- Node15 -->
<g id="node15" class="node">
<title>Node15</title>
<g id="a_node15"><a xlink:href="dp__matrices_8h.html" target="_top" xlink:title="Functions to deal with standard dynamic programming (DP) matrices.">
<polygon fill="white" stroke="#666666" points="577.5,-145.5 444.5,-145.5 444.5,-126.5 577.5,-126.5 577.5,-145.5"/>
<text text-anchor="middle" x="511" y="-133.5" font-family="Helvetica,sans-Serif" font-size="10.00">ViennaRNA/dp_matrices.h</text>
</a>
</g>
</g>
<!-- Node8&#45;&gt;Node15 -->
<g id="edge43" class="edge">
<title>Node8&#45;&gt;Node15</title>
<path fill="none" stroke="#63b8ff" d="M611.94,-241.65C587.16,-219.8 545.16,-178.27 523.82,-154.63"/>
<polygon fill="#63b8ff" stroke="#63b8ff" points="526.47,-152.35 517.27,-147.12 521.2,-156.95 526.47,-152.35"/>
</g>
<!-- Node16 -->
<g id="node16" class="node">
<title>Node16</title>
<g id="a_node16"><a xlink:href="hard_8h.html" target="_top" xlink:title="Functions and data structures for handling of secondary structure hard constraints.">
<polygon fill="white" stroke="#666666" points="847.5,-151 728.5,-151 728.5,-121 847.5,-121 847.5,-151"/>
<text text-anchor="start" x="736.5" y="-139" font-family="Helvetica,sans-Serif" font-size="10.00">ViennaRNA/constraints</text>
<text text-anchor="middle" x="788" y="-128" font-family="Helvetica,sans-Serif" font-size="10.00">/hard.h</text>
</a>
</g>
</g>
<!-- Node8&#45;&gt;Node16 -->
<g id="edge44" class="edge">
<title>Node8&#45;&gt;Node16</title>
<path fill="none" stroke="#63b8ff" d="M644.92,-241.63C659.45,-227.01 683.25,-204.14 706,-187 720.39,-176.16 737.24,-165.56 751.92,-156.93"/>
<polygon fill="#63b8ff" stroke="#63b8ff" points="753.45,-160.09 760.36,-152.05 749.95,-154.03 753.45,-160.09"/>
</g>
<!-- Node18 -->
<g id="node18" class="node">
<title>Node18</title>
<g id="a_node18"><a xlink:href="soft_8h.html" target="_top" xlink:title="Functions and data structures for secondary structure soft constraints.">
<polygon fill="white" stroke="#666666" points="426.5,-151 307.5,-151 307.5,-121 426.5,-121 426.5,-151"/>
<text text-anchor="start" x="315.5" y="-139" font-family="Helvetica,sans-Serif" font-size="10.00">ViennaRNA/constraints</text>
<text text-anchor="middle" x="367" y="-128" font-family="Helvetica,sans-Serif" font-size="10.00">/soft.h</text>
</a>
</g>
</g>
<!-- Node8&#45;&gt;Node18 -->
<g id="edge45" class="edge">
<title>Node8&#45;&gt;Node18</title>
<path fill="none" stroke="#63b8ff" d="M594.29,-241.53C544.14,-220.13 455,-180.03 404.47,-156.2"/>
<polygon fill="#63b8ff" stroke="#63b8ff" points="406.2,-153.15 395.67,-152.02 403.2,-159.47 406.2,-153.15"/>
</g>
<!-- Node19 -->
<g id="node19" class="node">
<title>Node19</title>
<g id="a_node19"><a xlink:href="grammar_8h.html" target="_top" xlink:title="Implementations for the RNA folding grammar.">
<polygon fill="white" stroke="#666666" points="1326.5,-145.5 1209.5,-145.5 1209.5,-126.5 1326.5,-126.5 1326.5,-145.5"/>
<text text-anchor="middle" x="1268" y="-133.5" font-family="Helvetica,sans-Serif" font-size="10.00">ViennaRNA/grammar.h</text>
</a>
</g>
</g>
<!-- Node8&#45;&gt;Node19 -->
<g id="edge46" class="edge">
<title>Node8&#45;&gt;Node19</title>
<path fill="none" stroke="#63b8ff" d="M698.09,-244.08C804.59,-225.06 1018.84,-186.36 1200,-151 1204.59,-150.1 1209.35,-149.16 1214.13,-148.2"/>
<polygon fill="#63b8ff" stroke="#63b8ff" points="1214.64,-151.67 1223.74,-146.25 1213.24,-144.81 1214.64,-151.67"/>
</g>
<!-- Node20 -->
<g id="node20" class="node">
<title>Node20</title>
<g id="a_node20"><a xlink:href="structured__domains_8h.html" target="_top" xlink:title="This module provides interfaces that deal with additional structured domains in the folding grammar.">
<polygon fill="white" stroke="#666666" points="710.5,-151 595.5,-151 595.5,-121 710.5,-121 710.5,-151"/>
<text text-anchor="start" x="603.5" y="-139" font-family="Helvetica,sans-Serif" font-size="10.00">ViennaRNA/structured</text>
<text text-anchor="middle" x="653" y="-128" font-family="Helvetica,sans-Serif" font-size="10.00">_domains.h</text>
</a>
</g>
</g>
<!-- Node8&#45;&gt;Node20 -->
<g id="edge47" class="edge">
<title>Node8&#45;&gt;Node20</title>
<path fill="none" stroke="#63b8ff" d="M633.61,-241.88C637.21,-222.39 643.77,-186.92 648.25,-162.67"/>
<polygon fill="#63b8ff" stroke="#63b8ff" points="651.67,-163.43 650.05,-152.96 644.79,-162.16 651.67,-163.43"/>
</g>
<!-- Node21 -->
<g id="node21" class="node">
<title>Node21</title>
<g id="a_node21"><a xlink:href="unstructured__domains_8h.html" target="_top" xlink:title="Functions to modify unstructured domains, e.g. to incorporate ligands binding to unpaired stretches.">
<polygon fill="white" stroke="#666666" points="289.5,-151 164.5,-151 164.5,-121 289.5,-121 289.5,-151"/>
<text text-anchor="start" x="172.5" y="-139" font-family="Helvetica,sans-Serif" font-size="10.00">ViennaRNA/unstructured</text>
<text text-anchor="middle" x="227" y="-128" font-family="Helvetica,sans-Serif" font-size="10.00">_domains.h</text>
</a>
</g>
</g>
<!-- Node8&#45;&gt;Node21 -->
<g id="edge48" class="edge">
<title>Node8&#45;&gt;Node21</title>
<path fill="none" stroke="#63b8ff" d="M577.27,-241.53C500.47,-219.71 360.27,-178.45 282.51,-154.82"/>
<polygon fill="#63b8ff" stroke="#63b8ff" points="283.54,-151.47 272.96,-151.91 281.5,-158.17 283.54,-151.47"/>
</g>
<!-- Node22 -->
<g id="node22" class="node">
<title>Node22</title>
<g id="a_node22"><a xlink:href="utils_2structures_8h.html" target="_top" xlink:title="Various utility&#45; and helper&#45;functions for secondary structure parsing, converting,...">
<polygon fill="white" stroke="#666666" points="252,-79.5 108,-79.5 108,-60.5 252,-60.5 252,-79.5"/>
<text text-anchor="middle" x="180" y="-67.5" font-family="Helvetica,sans-Serif" font-size="10.00">ViennaRNA/utils/structures.h</text>
</a>
</g>
</g>
<!-- Node8&#45;&gt;Node22 -->
<g id="edge49" class="edge">
<title>Node8&#45;&gt;Node22</title>
<path fill="none" stroke="#63b8ff" d="M563.78,-251.71C442.95,-242.19 197.19,-214.9 146,-151 131.28,-132.63 145.15,-105.52 159.63,-88.06"/>
<polygon fill="#63b8ff" stroke="#63b8ff" points="161.9,-90.76 166.08,-81.02 156.74,-86.03 161.9,-90.76"/>
</g>
<!-- Node10 -->
<g id="node10" class="node">
<title>Node10</title>
<g id="a_node10"><a xlink:title=" ">
<polygon fill="#e0e0e0" stroke="#999999" points="1551,-19 1503,-19 1503,0 1551,0 1551,-19"/>
<text text-anchor="middle" x="1527" y="-7" font-family="Helvetica,sans-Serif" font-size="10.00">limits.h</text>
</a>
</g>
</g>
<!-- Node9&#45;&gt;Node10 -->
<g id="edge10" class="edge">
<title>Node9&#45;&gt;Node10</title>
<path fill="none" stroke="#63b8ff" d="M1527,-60.37C1527,-52.5 1527,-40.6 1527,-30.39"/>
<polygon fill="#63b8ff" stroke="#63b8ff" points="1530.5,-30.68 1527,-20.68 1523.5,-30.68 1530.5,-30.68"/>
</g>
<!-- Node11&#45;&gt;Node12 -->
<g id="edge12" class="edge">
<title>Node11&#45;&gt;Node12</title>
<path fill="none" stroke="#63b8ff" d="M805.08,-186.52C841.96,-167.15 926.25,-123.06 933,-121 1055.65,-83.56 1206.3,-73.91 1290.38,-71.57"/>
<polygon fill="#63b8ff" stroke="#63b8ff" points="1290.37,-75.08 1300.28,-71.33 1290.2,-68.08 1290.37,-75.08"/>
</g>
<!-- Node11&#45;&gt;Node13 -->
<g id="edge13" class="edge">
<title>Node11&#45;&gt;Node13</title>
<path fill="none" stroke="#63b8ff" d="M861.38,-190.02C965.19,-182.45 1160.57,-167.79 1327,-151 1341.31,-149.56 1356.6,-147.84 1371.41,-146.11"/>
<polygon fill="#63b8ff" stroke="#63b8ff" points="1371.6,-149.61 1381.12,-144.96 1370.78,-142.66 1371.6,-149.61"/>
</g>
<!-- Node14 -->
<g id="node14" class="node">
<title>Node14</title>
<g id="a_node14"><a xlink:href="sequence_8h.html" target="_top" xlink:title="Functions and data structures related to sequence representations ,.">
<polygon fill="white" stroke="#666666" points="1064,-145.5 942,-145.5 942,-126.5 1064,-126.5 1064,-145.5"/>
<text text-anchor="middle" x="1003" y="-133.5" font-family="Helvetica,sans-Serif" font-size="10.00">ViennaRNA/sequence.h</text>
</a>
</g>
</g>
<!-- Node11&#45;&gt;Node14 -->
<g id="edge18" class="edge">
<title>Node11&#45;&gt;Node14</title>
<path fill="none" stroke="#63b8ff" d="M815.64,-186.62C850.61,-176.52 911.14,-160.01 953.98,-148.83"/>
<polygon fill="#63b8ff" stroke="#63b8ff" points="954.75,-152.25 963.55,-146.35 952.99,-145.47 954.75,-152.25"/>
</g>
<!-- Node11&#45;&gt;Node15 -->
<g id="edge20" class="edge">
<title>Node11&#45;&gt;Node15</title>
<path fill="none" stroke="#63b8ff" d="M740.61,-186.55C690,-176.32 610.38,-159.53 559.4,-148.38"/>
<polygon fill="#63b8ff" stroke="#63b8ff" points="560.34,-145 549.82,-146.27 558.84,-151.84 560.34,-145"/>
</g>
<!-- Node11&#45;&gt;Node16 -->
<g id="edge23" class="edge">
<title>Node11&#45;&gt;Node16</title>
<path fill="none" stroke="#63b8ff" d="M783.04,-186.87C781.65,-180.4 781.07,-171.2 781.3,-162.45"/>
<polygon fill="#63b8ff" stroke="#63b8ff" points="784.78,-162.85 782.02,-152.62 777.8,-162.34 784.78,-162.85"/>
</g>
<!-- Node11&#45;&gt;Node18 -->
<g id="edge27" class="edge">
<title>Node11&#45;&gt;Node18</title>
<path fill="none" stroke="#63b8ff" d="M714.74,-188.67C644.21,-181.31 534.52,-168.53 437.97,-152.96"/>
<polygon fill="#63b8ff" stroke="#63b8ff" points="438.8,-149.55 428.37,-151.39 437.67,-156.45 438.8,-149.55"/>
</g>
<!-- Node11&#45;&gt;Node19 -->
<g id="edge31" class="edge">
<title>Node11&#45;&gt;Node19</title>
<path fill="none" stroke="#63b8ff" d="M861.31,-189.13C942.28,-181.98 1076.21,-168.97 1191,-151 1196.51,-150.14 1202.26,-149.13 1208.02,-148.05"/>
<polygon fill="#63b8ff" stroke="#63b8ff" points="1208.43,-151.54 1217.59,-146.21 1207.11,-144.66 1208.43,-151.54"/>
</g>
<!-- Node11&#45;&gt;Node20 -->
<g id="edge33" class="edge">
<title>Node11&#45;&gt;Node20</title>
<path fill="none" stroke="#63b8ff" d="M767.5,-186.62C748.82,-178.52 720.61,-166.3 696.87,-156.01"/>
<polygon fill="#63b8ff" stroke="#63b8ff" points="698.28,-152.81 687.71,-152.04 695.49,-159.23 698.28,-152.81"/>
</g>
<!-- Node11&#45;&gt;Node21 -->
<g id="edge34" class="edge">
<title>Node11&#45;&gt;Node21</title>
<path fill="none" stroke="#63b8ff" d="M714.78,-191.62C619.68,-185.8 448.6,-173.26 300.92,-152.69"/>
<polygon fill="#63b8ff" stroke="#63b8ff" points="301.77,-149.27 291.38,-151.34 300.79,-156.2 301.77,-149.27"/>
</g>
<!-- Node23 -->
<g id="node23" class="node">
<title>Node23</title>
<g id="a_node23"><a xlink:href="zscore_8h_source.html" target="_top" xlink:title=" ">
<polygon fill="white" stroke="#666666" points="1191.5,-145.5 1082.5,-145.5 1082.5,-126.5 1191.5,-126.5 1191.5,-145.5"/>
<text text-anchor="middle" x="1137" y="-133.5" font-family="Helvetica,sans-Serif" font-size="10.00">ViennaRNA/zscore.h</text>
</a>
</g>
</g>
<!-- Node11&#45;&gt;Node23 -->
<g id="edge40" class="edge">
<title>Node11&#45;&gt;Node23</title>
<path fill="none" stroke="#63b8ff" d="M852.71,-186.53C910.6,-178.24 997.69,-165.1 1073,-151 1077.53,-150.15 1082.22,-149.22 1086.92,-148.26"/>
<polygon fill="#63b8ff" stroke="#63b8ff" points="1087.27,-151.76 1096.33,-146.28 1085.83,-144.91 1087.27,-151.76"/>
</g>
<!-- Node13&#45;&gt;Node8 -->
<g id="edge15" class="edge">
<title>Node13&#45;&gt;Node8</title>
<path fill="none" stroke="#63b8ff" d="M1450.21,-145.76C1440.76,-161.17 1411.06,-192.77 1378,-206 1258.9,-253.65 876.22,-257.38 709.62,-256.72"/>
<polygon fill="#63b8ff" stroke="#63b8ff" points="710.02,-253.22 700,-256.67 709.99,-260.22 710.02,-253.22"/>
</g>
<!-- Node13&#45;&gt;Node9 -->
<g id="edge14" class="edge">
<title>Node13&#45;&gt;Node9</title>
<path fill="none" stroke="#63b8ff" d="M1462.43,-126.1C1474.18,-116.07 1493.54,-99.56 1507.99,-87.22"/>
<polygon fill="#63b8ff" stroke="#63b8ff" points="1510.17,-89.96 1515.51,-80.81 1505.63,-84.63 1510.17,-89.96"/>
</g>
<!-- Node13&#45;&gt;Node11 -->
<g id="edge16" class="edge">
<title>Node13&#45;&gt;Node11</title>
<path fill="none" stroke="#63b8ff" d="M1389.99,-145.99C1375.28,-147.76 1359.63,-149.52 1345,-151 1178.06,-167.85 982.01,-182.54 872.62,-190.09"/>
<polygon fill="#63b8ff" stroke="#63b8ff" points="872.58,-186.59 862.84,-190.76 873.06,-193.57 872.58,-186.59"/>
</g>
<!-- Node13&#45;&gt;Node12 -->
<g id="edge17" class="edge">
<title>Node13&#45;&gt;Node12</title>
<path fill="none" stroke="#63b8ff" d="M1438.51,-126.1C1422.8,-115.74 1396.6,-98.45 1377.73,-86"/>
<polygon fill="#63b8ff" stroke="#63b8ff" points="1379.91,-83.24 1369.64,-80.66 1376.06,-89.09 1379.91,-83.24"/>
</g>
<!-- Node14&#45;&gt;Node11 -->
<g id="edge19" class="edge">
<title>Node14&#45;&gt;Node11</title>
<path fill="none" stroke="#63b8ff" d="M975.07,-145.97C939.95,-156.1 879.41,-172.62 836.67,-183.76"/>
<polygon fill="#63b8ff" stroke="#63b8ff" points="835.93,-180.34 827.13,-186.24 837.69,-187.11 835.93,-180.34"/>
</g>
<!-- Node15&#45;&gt;Node8 -->
<g id="edge21" class="edge">
<title>Node15&#45;&gt;Node8</title>
<path fill="none" stroke="#63b8ff" d="M523.52,-145.71C545.33,-164.02 589.21,-206.98 613.78,-233.56"/>
<polygon fill="#63b8ff" stroke="#63b8ff" points="611,-235.69 620.3,-240.76 616.19,-231 611,-235.69"/>
</g>
<!-- Node15&#45;&gt;Node11 -->
<g id="edge22" class="edge">
<title>Node15&#45;&gt;Node11</title>
<path fill="none" stroke="#63b8ff" d="M558.39,-145.95C609,-156.18 688.61,-172.97 739.6,-184.12"/>
<polygon fill="#63b8ff" stroke="#63b8ff" points="738.65,-187.5 749.17,-186.23 740.16,-180.66 738.65,-187.5"/>
</g>
<!-- Node16&#45;&gt;Node11 -->
<g id="edge24" class="edge">
<title>Node16&#45;&gt;Node11</title>
<path fill="none" stroke="#63b8ff" d="M793.87,-151.11C794.81,-158.43 794.99,-167.49 794.44,-175.51"/>
<polygon fill="#63b8ff" stroke="#63b8ff" points="790.98,-175 793.15,-185.37 797.92,-175.91 790.98,-175"/>
</g>
<!-- Node17 -->
<g id="node17" class="node">
<title>Node17</title>
<g id="a_node17"><a xlink:href="constraints_2basic_8h.html" target="_top" xlink:title="Functions and data structures for constraining secondary structure predictions and evaluation.">
<polygon fill="white" stroke="#666666" points="847.5,-85 728.5,-85 728.5,-55 847.5,-55 847.5,-85"/>
<text text-anchor="start" x="736.5" y="-73" font-family="Helvetica,sans-Serif" font-size="10.00">ViennaRNA/constraints</text>
<text text-anchor="middle" x="788" y="-62" font-family="Helvetica,sans-Serif" font-size="10.00">/basic.h</text>
</a>
</g>
</g>
<!-- Node16&#45;&gt;Node17 -->
<g id="edge25" class="edge">
<title>Node16&#45;&gt;Node17</title>
<path fill="none" stroke="#63b8ff" d="M788,-120.8C788,-113.67 788,-104.82 788,-96.56"/>
<polygon fill="#63b8ff" stroke="#63b8ff" points="791.5,-96.68 788,-86.68 784.5,-96.68 791.5,-96.68"/>
</g>
<!-- Node17&#45;&gt;Node11 -->
<g id="edge26" class="edge">
<title>Node17&#45;&gt;Node11</title>
<path fill="none" stroke="#63b8ff" d="M819.17,-85.47C833.14,-93.74 848.19,-105.57 856,-121 862.02,-132.9 862.34,-139.27 856,-151 848.75,-164.42 835.49,-174.44 822.6,-181.54"/>
<polygon fill="#63b8ff" stroke="#63b8ff" points="821.19,-178.33 813.81,-185.94 824.32,-184.59 821.19,-178.33"/>
</g>
<!-- Node18&#45;&gt;Node8 -->
<g id="edge28" class="edge">
<title>Node18&#45;&gt;Node8</title>
<path fill="none" stroke="#63b8ff" d="M403.55,-151.41C453.68,-172.79 542.98,-212.96 593.56,-236.82"/>
<polygon fill="#63b8ff" stroke="#63b8ff" points="591.84,-239.87 602.37,-241 594.84,-233.55 591.84,-239.87"/>
</g>
<!-- Node18&#45;&gt;Node11 -->
<g id="edge29" class="edge">
<title>Node18&#45;&gt;Node11</title>
<path fill="none" stroke="#63b8ff" d="M426.73,-147.91C432.58,-149.02 438.41,-150.07 444,-151 532.18,-165.61 633.45,-177.92 703.22,-185.87"/>
<polygon fill="#63b8ff" stroke="#63b8ff" points="702.73,-189.33 713.06,-186.98 703.52,-182.38 702.73,-189.33"/>
</g>
<!-- Node18&#45;&gt;Node17 -->
<g id="edge30" class="edge">
<title>Node18&#45;&gt;Node17</title>
<path fill="none" stroke="#63b8ff" d="M426.66,-122.5C429.48,-121.98 432.27,-121.47 435,-121 532.4,-104.09 645.65,-88.82 717.08,-79.72"/>
<polygon fill="#63b8ff" stroke="#63b8ff" points="717.19,-83.24 726.67,-78.51 716.31,-76.29 717.19,-83.24"/>
</g>
<!-- Node19&#45;&gt;Node11 -->
<g id="edge32" class="edge">
<title>Node19&#45;&gt;Node11</title>
<path fill="none" stroke="#63b8ff" d="M1236.61,-145.93C1227.72,-147.77 1218.05,-149.58 1209,-151 1093.31,-169.12 958.18,-182.18 872.78,-189.3"/>
<polygon fill="#63b8ff" stroke="#63b8ff" points="872.52,-185.81 862.84,-190.12 873.09,-192.79 872.52,-185.81"/>
</g>
<!-- Node21&#45;&gt;Node8 -->
<g id="edge35" class="edge">
<title>Node21&#45;&gt;Node8</title>
<path fill="none" stroke="#63b8ff" d="M280.71,-151.46C357.48,-173.27 497.69,-214.53 575.46,-238.17"/>
<polygon fill="#63b8ff" stroke="#63b8ff" points="574.43,-241.52 585.02,-241.09 576.47,-234.82 574.43,-241.52"/>
</g>
<!-- Node21&#45;&gt;Node11 -->
<g id="edge36" class="edge">
<title>Node21&#45;&gt;Node11</title>
<path fill="none" stroke="#63b8ff" d="M289.74,-148.22C295.58,-149.24 301.4,-150.2 307,-151 445.33,-170.86 606.97,-183.51 703.29,-190.06"/>
<polygon fill="#63b8ff" stroke="#63b8ff" points="702.98,-193.54 713.19,-190.72 703.45,-186.56 702.98,-193.54"/>
</g>
<!-- Node21&#45;&gt;Node22 -->
<g id="edge37" class="edge">
<title>Node21&#45;&gt;Node22</title>
<path fill="none" stroke="#63b8ff" d="M216.57,-120.8C209.67,-111.41 200.57,-99.02 193.18,-88.95"/>
<polygon fill="#63b8ff" stroke="#63b8ff" points="196.13,-87.05 187.39,-81.06 190.49,-91.2 196.13,-87.05"/>
</g>
<!-- Node22&#45;&gt;Node6 -->
<g id="edge38" class="edge">
<title>Node22&#45;&gt;Node6</title>
<path fill="none" stroke="#63b8ff" d="M172.62,-60.37C165.31,-51.81 153.91,-38.47 144.74,-27.74"/>
<polygon fill="#63b8ff" stroke="#63b8ff" points="147.55,-25.65 138.39,-20.32 142.23,-30.19 147.55,-25.65"/>
</g>
<!-- Node22&#45;&gt;Node8 -->
<g id="edge39" class="edge">
<title>Node22&#45;&gt;Node8</title>
<path fill="none" stroke="#63b8ff" d="M177.75,-79.91C168.86,-95.81 146.71,-129.42 164,-151 212.12,-211.06 432.14,-238.78 552.28,-249.8"/>
<polygon fill="#63b8ff" stroke="#63b8ff" points="551.8,-253.27 562.08,-250.68 552.43,-246.3 551.8,-253.27"/>
</g>
<!-- Node24&#45;&gt;Node2 -->
<g id="edge54" class="edge">
<title>Node24&#45;&gt;Node2</title>
<path fill="none" stroke="#63b8ff" d="M602.05,-362.51C587.65,-354.39 566.21,-342.3 549.44,-332.85"/>
<polygon fill="#63b8ff" stroke="#63b8ff" points="551.46,-329.96 541.03,-328.1 548.02,-336.06 551.46,-329.96"/>
</g>
<!-- Node24&#45;&gt;Node5 -->
<g id="edge55" class="edge">
<title>Node24&#45;&gt;Node5</title>
<path fill="none" stroke="#63b8ff" d="M619.65,-362.75C620.89,-356.19 622.63,-346.95 624.21,-338.6"/>
<polygon fill="#63b8ff" stroke="#63b8ff" points="627.62,-339.4 626.03,-328.93 620.74,-338.11 627.62,-339.4"/>
</g>
</g>
</svg>
