<?xml version="1.0" encoding="UTF-8" standalone="no"?>
<!DOCTYPE svg PUBLIC "-//W3C//DTD SVG 1.1//EN"
 "http://www.w3.org/Graphics/SVG/1.1/DTD/svg11.dtd">
<!-- Generated by graphviz version 7.1.0 (0)
 -->
<!-- Title: ViennaRNA/constraints/hard.h Pages: 1 -->
<!--zoomable 401 -->
<svg id="main" version="1.1" xmlns="http://www.w3.org/2000/svg" xmlns:xlink="http://www.w3.org/1999/xlink" xml:space="preserve" onload="init(evt)">
<style type="text/css"><![CDATA[
.edge:hover path { stroke: red; }
.edge:hover polygon { stroke: red; fill: red; }
]]></style>
<script type="text/javascript"><![CDATA[
var edges = document.getElementsByTagName('g');
if (edges && edges.length) {
  for (var i=0;i<edges.length;i++) {
    if (edges[i].id.substr(0,4)=='edge') {
      edges[i].setAttribute('class','edge');
    }
  }
}
]]></script>
        <defs>
                <circle id="rim" cx="0" cy="0" r="7"/>
                <circle id="rim2" cx="0" cy="0" r="3.5"/>
                <g id="zoomPlus">
                        <use xlink:href="#rim" fill="#404040">
                                <set attributeName="fill" to="#808080" begin="zoomplus.mouseover" end="zoomplus.mouseout"/>
                        </use>
                        <path d="M-4,0h8M0,-4v8" fill="none" stroke="white" stroke-width="1.5" pointer-events="none"/>
                </g>
                <g id="zoomMin">
                        <use xlink:href="#rim" fill="#404040">
                                <set attributeName="fill" to="#808080" begin="zoomminus.mouseover" end="zoomminus.mouseout"/>
                        </use>
                        <path d="M-4,0h8" fill="none" stroke="white" stroke-width="1.5" pointer-events="none"/>
                </g>
                <g id="dirArrow">
                        <path fill="none" stroke="white" stroke-width="1.5" d="M0,-3.0v7 M-2.5,-0.5L0,-3.0L2.5,-0.5"/>
                </g>
               <g id="resetDef">
                       <use xlink:href="#rim2" fill="#404040">
                               <set attributeName="fill" to="#808080" begin="reset.mouseover" end="reset.mouseout"/>
                       </use>
               </g>
        </defs>

<script type="text/javascript">
var viewWidth = 1134;
var viewHeight = 401;
var sectionId = 'dynsection-0';
</script>
<script xlink:href="svgpan.js"/>
<svg id="graph" class="graph">
<g id="viewport">
<title>ViennaRNA/constraints/hard.h</title>
<!-- Node1 -->
<g id="node1" class="node">
<title>Node1</title>
<g id="a_node1"><a xlink:title="Functions and data structures for handling of secondary structure hard constraints.">
<polygon fill="#999999" stroke="#666666" points="953,-393 834,-393 834,-363 953,-363 953,-393"/>
<text text-anchor="start" x="842" y="-381" font-family="Helvetica,sans-Serif" font-size="10.00">ViennaRNA/constraints</text>
<text text-anchor="middle" x="893.5" y="-370" font-family="Helvetica,sans-Serif" font-size="10.00">/hard.h</text>
</a>
</g>
</g>
<!-- Node2 -->
<g id="node2" class="node">
<title>Node2</title>
<g id="a_node2"><a xlink:href="fold__compound_8h.html" target="_top" xlink:title="The Basic Fold Compound API.">
<polygon fill="white" stroke="#666666" points="820.5,-327 674.5,-327 674.5,-308 820.5,-308 820.5,-327"/>
<text text-anchor="middle" x="747.5" y="-315" font-family="Helvetica,sans-Serif" font-size="10.00">ViennaRNA/fold_compound.h</text>
</a>
</g>
</g>
<!-- Node1&#45;&gt;Node2 -->
<g id="edge1" class="edge">
<title>Node1&#45;&gt;Node2</title>
<path fill="none" stroke="#63b8ff" d="M851.49,-362.54C826.89,-353.15 796.61,-340.99 775.01,-331.83"/>
<polygon fill="#63b8ff" stroke="#63b8ff" points="776.54,-328.68 765.97,-327.94 773.77,-335.11 776.54,-328.68"/>
</g>
<!-- Node10 -->
<g id="node10" class="node">
<title>Node10</title>
<g id="a_node10"><a xlink:href="constraints_2basic_8h.html" target="_top" xlink:title="Functions and data structures for constraining secondary structure predictions and evaluation.">
<polygon fill="white" stroke="#666666" points="1126,-85 1007,-85 1007,-55 1126,-55 1126,-85"/>
<text text-anchor="start" x="1015" y="-73" font-family="Helvetica,sans-Serif" font-size="10.00">ViennaRNA/constraints</text>
<text text-anchor="middle" x="1066.5" y="-62" font-family="Helvetica,sans-Serif" font-size="10.00">/basic.h</text>
</a>
</g>
</g>
<!-- Node1&#45;&gt;Node10 -->
<g id="edge41" class="edge">
<title>Node1&#45;&gt;Node10</title>
<path fill="none" stroke="#63b8ff" d="M953.4,-370.38C1015.78,-359.77 1104.5,-332.55 1104.5,-263.5 1104.5,-263.5 1104.5,-263.5 1104.5,-201 1104.5,-163.11 1089.44,-121.41 1078.28,-95.71"/>
<polygon fill="#63b8ff" stroke="#63b8ff" points="1081.57,-94.47 1074.27,-86.79 1075.18,-97.35 1081.57,-94.47"/>
</g>
<!-- Node2&#45;&gt;Node1 -->
<g id="edge35" class="edge">
<title>Node2&#45;&gt;Node1</title>
<path fill="none" stroke="#63b8ff" d="M774.58,-327.35C796.67,-335.51 828.01,-347.89 853.04,-358.24"/>
<polygon fill="#63b8ff" stroke="#63b8ff" points="851.35,-361.33 861.93,-361.96 854.05,-354.87 851.35,-361.33"/>
</g>
<!-- Node3 -->
<g id="node3" class="node">
<title>Node3</title>
<g id="a_node3"><a xlink:href="model_8h.html" target="_top" xlink:title="The model details data structure and its corresponding modifiers.">
<polygon fill="white" stroke="#666666" points="374.5,-145.5 268.5,-145.5 268.5,-126.5 374.5,-126.5 374.5,-145.5"/>
<text text-anchor="middle" x="321.5" y="-133.5" font-family="Helvetica,sans-Serif" font-size="10.00">ViennaRNA/model.h</text>
</a>
</g>
</g>
<!-- Node2&#45;&gt;Node3 -->
<g id="edge2" class="edge">
<title>Node2&#45;&gt;Node3</title>
<path fill="none" stroke="#63b8ff" d="M674.16,-312.91C565.76,-306.92 372.98,-293.39 349.5,-272 317.44,-242.79 316.73,-187.3 319.06,-157.37"/>
<polygon fill="#63b8ff" stroke="#63b8ff" points="322.54,-157.73 320.05,-147.43 315.58,-157.03 322.54,-157.73"/>
</g>
<!-- Node4 -->
<g id="node4" class="node">
<title>Node4</title>
<g id="a_node4"><a xlink:href="params_2basic_8h.html" target="_top" xlink:title="Functions to deal with sets of energy parameters.">
<polygon fill="white" stroke="#666666" points="496.5,-272 358.5,-272 358.5,-253 496.5,-253 496.5,-272"/>
<text text-anchor="middle" x="427.5" y="-260" font-family="Helvetica,sans-Serif" font-size="10.00">ViennaRNA/params/basic.h</text>
</a>
</g>
</g>
<!-- Node2&#45;&gt;Node4 -->
<g id="edge3" class="edge">
<title>Node2&#45;&gt;Node4</title>
<path fill="none" stroke="#63b8ff" d="M688,-307.51C630.83,-298.36 545.02,-284.17 487.64,-274.39"/>
<polygon fill="#63b8ff" stroke="#63b8ff" points="488.5,-270.98 478.06,-272.75 487.32,-277.88 488.5,-270.98"/>
</g>
<!-- Node8 -->
<g id="node8" class="node">
<title>Node8</title>
<g id="a_node8"><a xlink:href="dp__matrices_8h.html" target="_top" xlink:title="Functions to deal with standard dynamic programming (DP) matrices.">
<polygon fill="white" stroke="#666666" points="901,-145.5 768,-145.5 768,-126.5 901,-126.5 901,-145.5"/>
<text text-anchor="middle" x="834.5" y="-133.5" font-family="Helvetica,sans-Serif" font-size="10.00">ViennaRNA/dp_matrices.h</text>
</a>
</g>
</g>
<!-- Node2&#45;&gt;Node8 -->
<g id="edge34" class="edge">
<title>Node2&#45;&gt;Node8</title>
<path fill="none" stroke="#63b8ff" d="M776.72,-307.63C794.39,-301.09 815.38,-290.08 826.5,-272 848.43,-236.33 839.27,-184.71 834.79,-156.76"/>
<polygon fill="#63b8ff" stroke="#63b8ff" points="838.3,-156.62 833.4,-147.23 831.37,-157.63 838.3,-156.62"/>
</g>
<!-- Node9 -->
<g id="node9" class="node">
<title>Node9</title>
<g id="a_node9"><a xlink:href="soft_8h.html" target="_top" xlink:title="Functions and data structures for secondary structure soft constraints.">
<polygon fill="white" stroke="#666666" points="1038,-151 919,-151 919,-121 1038,-121 1038,-151"/>
<text text-anchor="start" x="927" y="-139" font-family="Helvetica,sans-Serif" font-size="10.00">ViennaRNA/constraints</text>
<text text-anchor="middle" x="978.5" y="-128" font-family="Helvetica,sans-Serif" font-size="10.00">/soft.h</text>
</a>
</g>
</g>
<!-- Node2&#45;&gt;Node9 -->
<g id="edge36" class="edge">
<title>Node2&#45;&gt;Node9</title>
<path fill="none" stroke="#63b8ff" d="M775.8,-307.56C798.3,-300.48 829.55,-288.92 853.5,-272 897.45,-240.95 935.29,-189.67 957.82,-160.05"/>
<polygon fill="#63b8ff" stroke="#63b8ff" points="960.35,-162.51 963.67,-152.45 954.8,-158.25 960.35,-162.51"/>
</g>
<!-- Node11 -->
<g id="node11" class="node">
<title>Node11</title>
<g id="a_node11"><a xlink:href="grammar_8h.html" target="_top" xlink:title="Implementations for the RNA folding grammar.">
<polygon fill="white" stroke="#666666" points="117,-145.5 0,-145.5 0,-126.5 117,-126.5 117,-145.5"/>
<text text-anchor="middle" x="58.5" y="-133.5" font-family="Helvetica,sans-Serif" font-size="10.00">ViennaRNA/grammar.h</text>
</a>
</g>
</g>
<!-- Node2&#45;&gt;Node11 -->
<g id="edge37" class="edge">
<title>Node2&#45;&gt;Node11</title>
<path fill="none" stroke="#63b8ff" d="M674.27,-313.3C562.77,-307.61 356.29,-294.2 286.5,-272 200.29,-244.58 110.77,-182.9 74.62,-153.37"/>
<polygon fill="#63b8ff" stroke="#63b8ff" points="76.93,-150.74 67.05,-146.93 72.4,-156.07 76.93,-150.74"/>
</g>
<!-- Node12 -->
<g id="node12" class="node">
<title>Node12</title>
<g id="a_node12"><a xlink:href="structured__domains_8h.html" target="_top" xlink:title="This module provides interfaces that deal with additional structured domains in the folding grammar.">
<polygon fill="white" stroke="#666666" points="250,-151 135,-151 135,-121 250,-121 250,-151"/>
<text text-anchor="start" x="143" y="-139" font-family="Helvetica,sans-Serif" font-size="10.00">ViennaRNA/structured</text>
<text text-anchor="middle" x="192.5" y="-128" font-family="Helvetica,sans-Serif" font-size="10.00">_domains.h</text>
</a>
</g>
</g>
<!-- Node2&#45;&gt;Node12 -->
<g id="edge38" class="edge">
<title>Node2&#45;&gt;Node12</title>
<path fill="none" stroke="#63b8ff" d="M674.07,-314.37C571.29,-310.43 390.52,-299.69 331.5,-272 277.64,-246.73 231.86,-191.94 208.7,-160.48"/>
<polygon fill="#63b8ff" stroke="#63b8ff" points="211.55,-158.46 202.87,-152.38 205.87,-162.55 211.55,-158.46"/>
</g>
<!-- Node13 -->
<g id="node13" class="node">
<title>Node13</title>
<g id="a_node13"><a xlink:href="unstructured__domains_8h.html" target="_top" xlink:title="Functions to modify unstructured domains, e.g. to incorporate ligands binding to unpaired stretches.">
<polygon fill="white" stroke="#666666" points="750,-151 625,-151 625,-121 750,-121 750,-151"/>
<text text-anchor="start" x="633" y="-139" font-family="Helvetica,sans-Serif" font-size="10.00">ViennaRNA/unstructured</text>
<text text-anchor="middle" x="687.5" y="-128" font-family="Helvetica,sans-Serif" font-size="10.00">_domains.h</text>
</a>
</g>
</g>
<!-- Node2&#45;&gt;Node13 -->
<g id="edge39" class="edge">
<title>Node2&#45;&gt;Node13</title>
<path fill="none" stroke="#63b8ff" d="M762.6,-307.51C782.5,-296.7 812.9,-276.98 802.5,-253 784.45,-211.39 743.3,-177.9 715.3,-157.79"/>
<polygon fill="#63b8ff" stroke="#63b8ff" points="717.43,-155.01 707.24,-152.12 713.4,-160.74 717.43,-155.01"/>
</g>
<!-- Node16 -->
<g id="node16" class="node">
<title>Node16</title>
<g id="a_node16"><a xlink:href="sequence_8h.html" target="_top" xlink:title="Functions and data structures related to sequence representations ,.">
<polygon fill="white" stroke="#666666" points="674.5,-272 552.5,-272 552.5,-253 674.5,-253 674.5,-272"/>
<text text-anchor="middle" x="613.5" y="-260" font-family="Helvetica,sans-Serif" font-size="10.00">ViennaRNA/sequence.h</text>
</a>
</g>
</g>
<!-- Node2&#45;&gt;Node16 -->
<g id="edge32" class="edge">
<title>Node2&#45;&gt;Node16</title>
<path fill="none" stroke="#63b8ff" d="M719.55,-307.51C696.48,-299.08 664.13,-286.38 641.15,-276.79"/>
<polygon fill="#63b8ff" stroke="#63b8ff" points="642.67,-273.63 632.1,-272.95 639.94,-280.07 642.67,-273.63"/>
</g>
<!-- Node17 -->
<g id="node17" class="node">
<title>Node17</title>
<g id="a_node17"><a xlink:href="zscore_8h_source.html" target="_top" xlink:title=" ">
<polygon fill="white" stroke="#666666" points="802,-272 693,-272 693,-253 802,-253 802,-272"/>
<text text-anchor="middle" x="747.5" y="-260" font-family="Helvetica,sans-Serif" font-size="10.00">ViennaRNA/zscore.h</text>
</a>
</g>
</g>
<!-- Node2&#45;&gt;Node17 -->
<g id="edge40" class="edge">
<title>Node2&#45;&gt;Node17</title>
<path fill="none" stroke="#63b8ff" d="M747.5,-307.75C747.5,-301.27 747.5,-292.16 747.5,-283.9"/>
<polygon fill="#63b8ff" stroke="#63b8ff" points="751,-283.96 747.5,-273.96 744,-283.96 751,-283.96"/>
</g>
<!-- Node4&#45;&gt;Node2 -->
<g id="edge30" class="edge">
<title>Node4&#45;&gt;Node2</title>
<path fill="none" stroke="#63b8ff" d="M487,-272.49C544.16,-281.64 629.98,-295.83 687.35,-305.61"/>
<polygon fill="#63b8ff" stroke="#63b8ff" points="686.49,-309.02 696.94,-307.25 687.67,-302.12 686.49,-309.02"/>
</g>
<!-- Node4&#45;&gt;Node3 -->
<g id="edge31" class="edge">
<title>Node4&#45;&gt;Node3</title>
<path fill="none" stroke="#63b8ff" d="M419.88,-252.55C402.38,-232 359.1,-181.16 336.22,-154.29"/>
<polygon fill="#63b8ff" stroke="#63b8ff" points="339.18,-152.37 330.04,-147.03 333.85,-156.91 339.18,-152.37"/>
</g>
<!-- Node5 -->
<g id="node5" class="node">
<title>Node5</title>
<g id="a_node5"><a xlink:href="constants_8h.html" target="_top" xlink:title="Energy parameter constants.">
<polygon fill="white" stroke="#666666" points="550.5,-145.5 392.5,-145.5 392.5,-126.5 550.5,-126.5 550.5,-145.5"/>
<text text-anchor="middle" x="471.5" y="-133.5" font-family="Helvetica,sans-Serif" font-size="10.00">ViennaRNA/params/constants.h</text>
</a>
</g>
</g>
<!-- Node4&#45;&gt;Node5 -->
<g id="edge4" class="edge">
<title>Node4&#45;&gt;Node5</title>
<path fill="none" stroke="#63b8ff" d="M430.66,-252.55C437.74,-232.54 454.96,-183.81 464.63,-156.45"/>
<polygon fill="#63b8ff" stroke="#63b8ff" points="467.83,-157.89 467.86,-147.3 461.23,-155.56 467.83,-157.89"/>
</g>
<!-- Node7 -->
<g id="node7" class="node">
<title>Node7</title>
<g id="a_node7"><a xlink:href="datastructures_2basic_8h.html" target="_top" xlink:title="Various data structures and pre&#45;processor macros.">
<polygon fill="white" stroke="#666666" points="654.5,-217 520.5,-217 520.5,-187 654.5,-187 654.5,-217"/>
<text text-anchor="start" x="528.5" y="-205" font-family="Helvetica,sans-Serif" font-size="10.00">ViennaRNA/datastructures</text>
<text text-anchor="middle" x="587.5" y="-194" font-family="Helvetica,sans-Serif" font-size="10.00">/basic.h</text>
</a>
</g>
</g>
<!-- Node4&#45;&gt;Node7 -->
<g id="edge6" class="edge">
<title>Node4&#45;&gt;Node7</title>
<path fill="none" stroke="#63b8ff" d="M446.79,-252.62C467.78,-244.3 501.99,-231.63 531.48,-221.18"/>
<polygon fill="#63b8ff" stroke="#63b8ff" points="532.4,-224.57 540.67,-217.94 530.07,-217.96 532.4,-224.57"/>
</g>
<!-- Node6 -->
<g id="node6" class="node">
<title>Node6</title>
<g id="a_node6"><a xlink:title=" ">
<polygon fill="#e0e0e0" stroke="#999999" points="495.5,-79.5 447.5,-79.5 447.5,-60.5 495.5,-60.5 495.5,-79.5"/>
<text text-anchor="middle" x="471.5" y="-67.5" font-family="Helvetica,sans-Serif" font-size="10.00">limits.h</text>
</a>
</g>
</g>
<!-- Node5&#45;&gt;Node6 -->
<g id="edge5" class="edge">
<title>Node5&#45;&gt;Node6</title>
<path fill="none" stroke="#63b8ff" d="M471.5,-126.1C471.5,-117.12 471.5,-102.95 471.5,-91.22"/>
<polygon fill="#63b8ff" stroke="#63b8ff" points="475,-91.34 471.5,-81.34 468,-91.34 475,-91.34"/>
</g>
<!-- Node7&#45;&gt;Node1 -->
<g id="edge14" class="edge">
<title>Node7&#45;&gt;Node1</title>
<path fill="none" stroke="#63b8ff" d="M654.99,-204.96C702.42,-209.29 765.39,-221.25 811.5,-253 847.53,-277.81 871.8,-324.13 884.08,-352.59"/>
<polygon fill="#63b8ff" stroke="#63b8ff" points="880.71,-353.59 887.76,-361.5 887.18,-350.92 880.71,-353.59"/>
</g>
<!-- Node7&#45;&gt;Node2 -->
<g id="edge8" class="edge">
<title>Node7&#45;&gt;Node2</title>
<path fill="none" stroke="#63b8ff" d="M567.56,-217.36C549.99,-231.77 529.24,-254.3 543.5,-272 558.71,-290.89 613.77,-302.19 662.85,-308.68"/>
<polygon fill="#63b8ff" stroke="#63b8ff" points="662.33,-312.14 672.69,-309.92 663.21,-305.19 662.33,-312.14"/>
</g>
<!-- Node7&#45;&gt;Node3 -->
<g id="edge9" class="edge">
<title>Node7&#45;&gt;Node3</title>
<path fill="none" stroke="#63b8ff" d="M527.47,-186.56C479.83,-175.09 414.09,-159.28 369.8,-148.62"/>
<polygon fill="#63b8ff" stroke="#63b8ff" points="370.76,-145.25 360.22,-146.32 369.13,-152.06 370.76,-145.25"/>
</g>
<!-- Node7&#45;&gt;Node4 -->
<g id="edge10" class="edge">
<title>Node7&#45;&gt;Node4</title>
<path fill="none" stroke="#63b8ff" d="M553.92,-217.44C528.75,-227.08 494.33,-239.64 467.7,-248.88"/>
<polygon fill="#63b8ff" stroke="#63b8ff" points="466.56,-245.56 458.24,-252.12 468.84,-252.18 466.56,-245.56"/>
</g>
<!-- Node7&#45;&gt;Node5 -->
<g id="edge7" class="edge">
<title>Node7&#45;&gt;Node5</title>
<path fill="none" stroke="#63b8ff" d="M561.47,-186.64C542.42,-176.13 516.68,-161.92 497.61,-151.4"/>
<polygon fill="#63b8ff" stroke="#63b8ff" points="499.56,-148.48 489.11,-146.72 496.18,-154.61 499.56,-148.48"/>
</g>
<!-- Node7&#45;&gt;Node8 -->
<g id="edge11" class="edge">
<title>Node7&#45;&gt;Node8</title>
<path fill="none" stroke="#63b8ff" d="M637.49,-186.56C680.18,-175.12 741.19,-159.34 784.03,-148.69"/>
<polygon fill="#63b8ff" stroke="#63b8ff" points="784.71,-152.13 793.58,-146.33 783.03,-145.33 784.71,-152.13"/>
</g>
<!-- Node7&#45;&gt;Node9 -->
<g id="edge15" class="edge">
<title>Node7&#45;&gt;Node9</title>
<path fill="none" stroke="#63b8ff" d="M654.97,-190.52C718.66,-181.06 816.62,-166.3 901.5,-151 903.5,-150.64 905.54,-150.26 907.6,-149.88"/>
<polygon fill="#63b8ff" stroke="#63b8ff" points="908.09,-153.35 917.25,-148.03 906.77,-146.47 908.09,-153.35"/>
</g>
<!-- Node7&#45;&gt;Node11 -->
<g id="edge20" class="edge">
<title>Node7&#45;&gt;Node11</title>
<path fill="none" stroke="#63b8ff" d="M520.28,-195.81C430.11,-188.37 265.15,-173.09 125.5,-151 120.2,-150.16 114.69,-149.18 109.21,-148.14"/>
<polygon fill="#63b8ff" stroke="#63b8ff" points="110.03,-144.74 99.55,-146.23 108.68,-151.61 110.03,-144.74"/>
</g>
<!-- Node7&#45;&gt;Node12 -->
<g id="edge22" class="edge">
<title>Node7&#45;&gt;Node12</title>
<path fill="none" stroke="#63b8ff" d="M520.11,-191.83C456.14,-182.87 357.04,-168.35 261.26,-151.25"/>
<polygon fill="#63b8ff" stroke="#63b8ff" points="262.16,-147.86 251.69,-149.53 260.92,-154.75 262.16,-147.86"/>
</g>
<!-- Node7&#45;&gt;Node13 -->
<g id="edge23" class="edge">
<title>Node7&#45;&gt;Node13</title>
<path fill="none" stroke="#63b8ff" d="M603.97,-186.8C616.47,-178.07 633.94,-166.77 649.73,-157.13"/>
<polygon fill="#63b8ff" stroke="#63b8ff" points="651.22,-160.32 657.98,-152.17 647.61,-154.32 651.22,-160.32"/>
</g>
<!-- Node14 -->
<g id="node14" class="node">
<title>Node14</title>
<g id="a_node14"><a xlink:href="utils_2structures_8h.html" target="_top" xlink:title="Various utility&#45; and helper&#45;functions for secondary structure parsing, converting,...">
<polygon fill="white" stroke="#666666" points="659.5,-79.5 515.5,-79.5 515.5,-60.5 659.5,-60.5 659.5,-79.5"/>
<text text-anchor="middle" x="587.5" y="-67.5" font-family="Helvetica,sans-Serif" font-size="10.00">ViennaRNA/utils/structures.h</text>
</a>
</g>
</g>
<!-- Node7&#45;&gt;Node14 -->
<g id="edge29" class="edge">
<title>Node7&#45;&gt;Node14</title>
<path fill="none" stroke="#63b8ff" d="M583.07,-186.59C580.19,-163.3 579.99,-117.32 582.47,-90.91"/>
<polygon fill="#63b8ff" stroke="#63b8ff" points="585.92,-91.57 583.72,-81.21 578.98,-90.68 585.92,-91.57"/>
</g>
<!-- Node8&#45;&gt;Node2 -->
<g id="edge13" class="edge">
<title>Node8&#45;&gt;Node2</title>
<path fill="none" stroke="#63b8ff" d="M841.8,-145.73C853.73,-168.52 869.79,-230.87 844.5,-272 835.38,-286.83 819.61,-296.91 803.36,-303.66"/>
<polygon fill="#63b8ff" stroke="#63b8ff" points="802.24,-300.34 794.09,-307.1 804.68,-306.9 802.24,-300.34"/>
</g>
<!-- Node8&#45;&gt;Node7 -->
<g id="edge12" class="edge">
<title>Node8&#45;&gt;Node7</title>
<path fill="none" stroke="#63b8ff" d="M804.77,-145.96C769.09,-155.73 708.29,-171.59 660.02,-183.78"/>
<polygon fill="#63b8ff" stroke="#63b8ff" points="659.3,-180.35 650.46,-186.19 661.01,-187.14 659.3,-180.35"/>
</g>
<!-- Node9&#45;&gt;Node2 -->
<g id="edge17" class="edge">
<title>Node9&#45;&gt;Node2</title>
<path fill="none" stroke="#63b8ff" d="M974.88,-151.25C961.41,-178.33 920.21,-237.59 871.5,-272 850.91,-286.54 824.94,-297.12 802.01,-304.31"/>
<polygon fill="#63b8ff" stroke="#63b8ff" points="801.08,-300.93 792.49,-307.13 803.07,-307.64 801.08,-300.93"/>
</g>
<!-- Node9&#45;&gt;Node7 -->
<g id="edge16" class="edge">
<title>Node9&#45;&gt;Node7</title>
<path fill="none" stroke="#63b8ff" d="M918.7,-151.14C832.69,-166.63 733.42,-181.54 666.09,-190.96"/>
<polygon fill="#63b8ff" stroke="#63b8ff" points="665.66,-187.48 656.24,-192.33 666.62,-194.42 665.66,-187.48"/>
</g>
<!-- Node9&#45;&gt;Node10 -->
<g id="edge18" class="edge">
<title>Node9&#45;&gt;Node10</title>
<path fill="none" stroke="#63b8ff" d="M998.03,-120.8C1009.68,-112.32 1024.69,-101.4 1037.69,-91.95"/>
<polygon fill="#63b8ff" stroke="#63b8ff" points="1039.47,-94.99 1045.5,-86.28 1035.35,-89.33 1039.47,-94.99"/>
</g>
<!-- Node10&#45;&gt;Node2 -->
<g id="edge19" class="edge">
<title>Node10&#45;&gt;Node2</title>
<path fill="none" stroke="#63b8ff" d="M1065.89,-85.38C1064.57,-102.29 1060.43,-130.63 1047.5,-151 1001.21,-223.89 972,-231.96 895.5,-272 866.85,-286.99 832.38,-297.73 803.92,-304.9"/>
<polygon fill="#63b8ff" stroke="#63b8ff" points="803.29,-301.45 794.4,-307.21 804.94,-308.25 803.29,-301.45"/>
</g>
<!-- Node11&#45;&gt;Node2 -->
<g id="edge21" class="edge">
<title>Node11&#45;&gt;Node2</title>
<path fill="none" stroke="#63b8ff" d="M74.1,-145.95C111.9,-171 210.19,-242 304.5,-272 369.54,-292.69 553.33,-305.75 662.72,-312.03"/>
<polygon fill="#63b8ff" stroke="#63b8ff" points="662.36,-315.52 672.54,-312.59 662.75,-308.53 662.36,-315.52"/>
</g>
<!-- Node13&#45;&gt;Node2 -->
<g id="edge25" class="edge">
<title>Node13&#45;&gt;Node2</title>
<path fill="none" stroke="#63b8ff" d="M718.83,-151.41C751.57,-170.32 800.38,-206.62 820.5,-253 829.48,-273.7 808.05,-291.22 786,-302.58"/>
<polygon fill="#63b8ff" stroke="#63b8ff" points="784.51,-299.42 776.97,-306.86 787.51,-305.75 784.51,-299.42"/>
</g>
<!-- Node13&#45;&gt;Node7 -->
<g id="edge24" class="edge">
<title>Node13&#45;&gt;Node7</title>
<path fill="none" stroke="#63b8ff" d="M670.87,-151.31C658.36,-160.03 640.94,-171.31 625.2,-180.91"/>
<polygon fill="#63b8ff" stroke="#63b8ff" points="623.75,-177.7 616.98,-185.86 627.35,-183.7 623.75,-177.7"/>
</g>
<!-- Node13&#45;&gt;Node14 -->
<g id="edge26" class="edge">
<title>Node13&#45;&gt;Node14</title>
<path fill="none" stroke="#63b8ff" d="M665.31,-120.8C649.11,-110.43 627.19,-96.4 610.75,-85.88"/>
<polygon fill="#63b8ff" stroke="#63b8ff" points="612.9,-83.1 602.59,-80.66 609.13,-89 612.9,-83.1"/>
</g>
<!-- Node14&#45;&gt;Node7 -->
<g id="edge28" class="edge">
<title>Node14&#45;&gt;Node7</title>
<path fill="none" stroke="#63b8ff" d="M591.09,-79.71C594.53,-99.01 595.16,-146.01 592.99,-175.51"/>
<polygon fill="#63b8ff" stroke="#63b8ff" points="589.54,-174.8 592.08,-185.08 596.51,-175.46 589.54,-174.8"/>
</g>
<!-- Node15 -->
<g id="node15" class="node">
<title>Node15</title>
<g id="a_node15"><a xlink:title=" ">
<polygon fill="#e0e0e0" stroke="#999999" points="610.5,-19 564.5,-19 564.5,0 610.5,0 610.5,-19"/>
<text text-anchor="middle" x="587.5" y="-7" font-family="Helvetica,sans-Serif" font-size="10.00">stdio.h</text>
</a>
</g>
</g>
<!-- Node14&#45;&gt;Node15 -->
<g id="edge27" class="edge">
<title>Node14&#45;&gt;Node15</title>
<path fill="none" stroke="#63b8ff" d="M587.5,-60.37C587.5,-52.5 587.5,-40.6 587.5,-30.39"/>
<polygon fill="#63b8ff" stroke="#63b8ff" points="591,-30.68 587.5,-20.68 584,-30.68 591,-30.68"/>
</g>
<!-- Node16&#45;&gt;Node2 -->
<g id="edge33" class="edge">
<title>Node16&#45;&gt;Node2</title>
<path fill="none" stroke="#63b8ff" d="M641.08,-272.36C664.05,-280.74 696.41,-293.43 719.48,-303.06"/>
<polygon fill="#63b8ff" stroke="#63b8ff" points="718.02,-306.24 728.59,-306.92 720.75,-299.8 718.02,-306.24"/>
</g>
</g>
</svg>
        <g id="navigator" transform="translate(0 0)" fill="#404254">
                <rect fill="#f2f5e9" fill-opacity="0.5" stroke="#606060" stroke-width=".5" x="0" y="0" width="60" height="60"/>
                <use id="zoomplus" xlink:href="#zoomPlus" x="17" y="9" onmousedown="handleZoom(evt,'in')"/>
                <use id="zoomminus" xlink:href="#zoomMin" x="42" y="9" onmousedown="handleZoom(evt,'out')"/>
                <use id="reset" xlink:href="#resetDef" x="30" y="36" onmousedown="handleReset()"/>
                <g id="arrowUp" xlink:href="#dirArrow" transform="translate(30 24)" onmousedown="handlePan(0,-1)">
                  <use xlink:href="#rim" fill="#404040">
                        <set attributeName="fill" to="#808080" begin="arrowUp.mouseover" end="arrowUp.mouseout"/>
                  </use>
                  <path fill="none" stroke="white" stroke-width="1.5" d="M0,-3.0v7 M-2.5,-0.5L0,-3.0L2.5,-0.5"/>
                </g>
                <g id="arrowRight" xlink:href="#dirArrow" transform="rotate(90) translate(36 -43)" onmousedown="handlePan(1,0)">
                  <use xlink:href="#rim" fill="#404040">
                        <set attributeName="fill" to="#808080" begin="arrowRight.mouseover" end="arrowRight.mouseout"/>
                  </use>
                  <path fill="none" stroke="white" stroke-width="1.5" d="M0,-3.0v7 M-2.5,-0.5L0,-3.0L2.5,-0.5"/>
                </g>
                <g id="arrowDown" xlink:href="#dirArrow" transform="rotate(180) translate(-30 -48)" onmousedown="handlePan(0,1)">
                  <use xlink:href="#rim" fill="#404040">
                        <set attributeName="fill" to="#808080" begin="arrowDown.mouseover" end="arrowDown.mouseout"/>
                  </use>
                  <path fill="none" stroke="white" stroke-width="1.5" d="M0,-3.0v7 M-2.5,-0.5L0,-3.0L2.5,-0.5"/>
                </g>
                <g id="arrowLeft" xlink:href="#dirArrow" transform="rotate(270) translate(-36 17)" onmousedown="handlePan(-1,0)">
                  <use xlink:href="#rim" fill="#404040">
                        <set attributeName="fill" to="#808080" begin="arrowLeft.mouseover" end="arrowLeft.mouseout"/>
                  </use>
                  <path fill="none" stroke="white" stroke-width="1.5" d="M0,-3.0v7 M-2.5,-0.5L0,-3.0L2.5,-0.5"/>
                </g>
        </g>
        <svg viewBox="0 0 15 15" width="100%" height="30px" preserveAspectRatio="xMaxYMin meet">
         <g id="arrow_out" transform="scale(0.3 0.3)">
          <a xlink:href="hard_8h__incl_org.svg" target="_base">
           <rect id="button" ry="5" rx="5" y="6" x="6" height="38" width="38"
                fill="#f2f5e9" fill-opacity="0.5" stroke="#606060" stroke-width="1.0"/>
           <path id="arrow"
             d="M 11.500037,31.436501 C 11.940474,20.09759 22.043105,11.32322 32.158766,21.979434 L 37.068811,17.246167 C 37.068811,17.246167 37.088388,32 37.088388,32 L 22.160133,31.978069 C 22.160133,31.978069 26.997745,27.140456 26.997745,27.140456 C 18.528582,18.264221 13.291696,25.230495 11.500037,31.436501 z"
             style="fill:#404040;"/>
          </a>
         </g>
        </svg>
</svg>
