<?xml version="1.0" encoding="UTF-8" standalone="no"?>
<!DOCTYPE svg PUBLIC "-//W3C//DTD SVG 1.1//EN"
 "http://www.w3.org/Graphics/SVG/1.1/DTD/svg11.dtd">
<!-- Generated by graphviz version 7.1.0 (0)
 -->
<!-- Title: ViennaRNA/heat_capacity.h Pages: 1 -->
<!--zoomable 335 -->
<svg id="main" version="1.1" xmlns="http://www.w3.org/2000/svg" xmlns:xlink="http://www.w3.org/1999/xlink" xml:space="preserve" onload="init(evt)">
<style type="text/css"><![CDATA[
.edge:hover path { stroke: red; }
.edge:hover polygon { stroke: red; fill: red; }
]]></style>
<script type="text/javascript"><![CDATA[
var edges = document.getElementsByTagName('g');
if (edges && edges.length) {
  for (var i=0;i<edges.length;i++) {
    if (edges[i].id.substr(0,4)=='edge') {
      edges[i].setAttribute('class','edge');
    }
  }
}
]]></script>
        <defs>
                <circle id="rim" cx="0" cy="0" r="7"/>
                <circle id="rim2" cx="0" cy="0" r="3.5"/>
                <g id="zoomPlus">
                        <use xlink:href="#rim" fill="#404040">
                                <set attributeName="fill" to="#808080" begin="zoomplus.mouseover" end="zoomplus.mouseout"/>
                        </use>
                        <path d="M-4,0h8M0,-4v8" fill="none" stroke="white" stroke-width="1.5" pointer-events="none"/>
                </g>
                <g id="zoomMin">
                        <use xlink:href="#rim" fill="#404040">
                                <set attributeName="fill" to="#808080" begin="zoomminus.mouseover" end="zoomminus.mouseout"/>
                        </use>
                        <path d="M-4,0h8" fill="none" stroke="white" stroke-width="1.5" pointer-events="none"/>
                </g>
                <g id="dirArrow">
                        <path fill="none" stroke="white" stroke-width="1.5" d="M0,-3.0v7 M-2.5,-0.5L0,-3.0L2.5,-0.5"/>
                </g>
               <g id="resetDef">
                       <use xlink:href="#rim2" fill="#404040">
                               <set attributeName="fill" to="#808080" begin="reset.mouseover" end="reset.mouseout"/>
                       </use>
               </g>
        </defs>

<script type="text/javascript">
var viewWidth = 1493;
var viewHeight = 335;
var sectionId = 'dynsection-0';
</script>
<script xlink:href="svgpan.js"/>
<svg id="graph" class="graph">
<g id="viewport">
<title>ViennaRNA/heat_capacity.h</title>
<!-- Node1 -->
<g id="node1" class="node">
<title>Node1</title>
<g id="a_node1"><a xlink:title="Compute heat capacity for an RNA.">
<polygon fill="#999999" stroke="#666666" points="1257.5,-327 1118.5,-327 1118.5,-308 1257.5,-308 1257.5,-327"/>
<text text-anchor="middle" x="1188" y="-315" font-family="Helvetica,sans-Serif" font-size="10.00">ViennaRNA/heat_capacity.h</text>
</a>
</g>
</g>
<!-- Node2 -->
<g id="node2" class="node">
<title>Node2</title>
<g id="a_node2"><a xlink:title=" ">
<polygon fill="#e0e0e0" stroke="#999999" points="1485,-19 1439,-19 1439,0 1485,0 1485,-19"/>
<text text-anchor="middle" x="1462" y="-7" font-family="Helvetica,sans-Serif" font-size="10.00">stdio.h</text>
</a>
</g>
</g>
<!-- Node1&#45;&gt;Node2 -->
<g id="edge1" class="edge">
<title>Node1&#45;&gt;Node2</title>
<path fill="none" stroke="#63b8ff" d="M1235.72,-307.51C1319.22,-290.42 1483,-250.17 1483,-197.5 1483,-197.5 1483,-197.5 1483,-135 1483,-97.67 1473.71,-54.9 1467.48,-30.46"/>
<polygon fill="#63b8ff" stroke="#63b8ff" points="1470.9,-29.71 1464.96,-20.94 1464.14,-31.5 1470.9,-29.71"/>
</g>
<!-- Node3 -->
<g id="node3" class="node">
<title>Node3</title>
<g id="a_node3"><a xlink:href="datastructures_2basic_8h.html" target="_top" xlink:title="Various data structures and pre&#45;processor macros.">
<polygon fill="white" stroke="#666666" points="961,-272 827,-272 827,-242 961,-242 961,-272"/>
<text text-anchor="start" x="835" y="-260" font-family="Helvetica,sans-Serif" font-size="10.00">ViennaRNA/datastructures</text>
<text text-anchor="middle" x="894" y="-249" font-family="Helvetica,sans-Serif" font-size="10.00">/basic.h</text>
</a>
</g>
</g>
<!-- Node1&#45;&gt;Node3 -->
<g id="edge2" class="edge">
<title>Node1&#45;&gt;Node3</title>
<path fill="none" stroke="#63b8ff" d="M1143.03,-307.55C1097.73,-298.54 1026.93,-284.45 972.38,-273.6"/>
<polygon fill="#63b8ff" stroke="#63b8ff" points="973.33,-270.22 962.84,-271.7 971.96,-277.08 973.33,-270.22"/>
</g>
<!-- Node4 -->
<g id="node4" class="node">
<title>Node4</title>
<g id="a_node4"><a xlink:href="constants_8h.html" target="_top" xlink:title="Energy parameter constants.">
<polygon fill="white" stroke="#666666" points="1455,-79.5 1297,-79.5 1297,-60.5 1455,-60.5 1455,-79.5"/>
<text text-anchor="middle" x="1376" y="-67.5" font-family="Helvetica,sans-Serif" font-size="10.00">ViennaRNA/params/constants.h</text>
</a>
</g>
</g>
<!-- Node3&#45;&gt;Node4 -->
<g id="edge3" class="edge">
<title>Node3&#45;&gt;Node4</title>
<path fill="none" stroke="#63b8ff" d="M961.33,-251.71C1063.84,-244.56 1253.9,-228.72 1318,-206 1361.12,-190.72 1382.93,-191.07 1405,-151 1416.2,-130.66 1402.72,-105.15 1390.64,-88.47"/>
<polygon fill="#63b8ff" stroke="#63b8ff" points="1393.72,-86.73 1384.82,-80.98 1388.19,-91.02 1393.72,-86.73"/>
</g>
<!-- Node6 -->
<g id="node6" class="node">
<title>Node6</title>
<g id="a_node6"><a xlink:href="fold__compound_8h.html" target="_top" xlink:title="The Basic Fold Compound API.">
<polygon fill="white" stroke="#666666" points="791,-206 645,-206 645,-187 791,-187 791,-206"/>
<text text-anchor="middle" x="718" y="-194" font-family="Helvetica,sans-Serif" font-size="10.00">ViennaRNA/fold_compound.h</text>
</a>
</g>
</g>
<!-- Node3&#45;&gt;Node6 -->
<g id="edge5" class="edge">
<title>Node3&#45;&gt;Node6</title>
<path fill="none" stroke="#63b8ff" d="M850.49,-241.54C821.42,-231.87 783.55,-219.29 755.74,-210.04"/>
<polygon fill="#63b8ff" stroke="#63b8ff" points="756.9,-206.74 746.31,-206.91 754.69,-213.39 756.9,-206.74"/>
</g>
<!-- Node7 -->
<g id="node7" class="node">
<title>Node7</title>
<g id="a_node7"><a xlink:href="model_8h.html" target="_top" xlink:title="The model details data structure and its corresponding modifiers.">
<polygon fill="white" stroke="#666666" points="1279,-79.5 1173,-79.5 1173,-60.5 1279,-60.5 1279,-79.5"/>
<text text-anchor="middle" x="1226" y="-67.5" font-family="Helvetica,sans-Serif" font-size="10.00">ViennaRNA/model.h</text>
</a>
</g>
</g>
<!-- Node3&#45;&gt;Node7 -->
<g id="edge35" class="edge">
<title>Node3&#45;&gt;Node7</title>
<path fill="none" stroke="#63b8ff" d="M961.26,-251.86C1083.64,-242.77 1335.03,-216.41 1388,-151 1396.39,-140.64 1395.92,-131.73 1388,-121 1380.99,-111.5 1319.16,-94.28 1273.96,-82.74"/>
<polygon fill="#63b8ff" stroke="#63b8ff" points="1274.9,-79.36 1264.34,-80.3 1273.18,-86.15 1274.9,-79.36"/>
</g>
<!-- Node8 -->
<g id="node8" class="node">
<title>Node8</title>
<g id="a_node8"><a xlink:href="params_2basic_8h.html" target="_top" xlink:title="Functions to deal with sets of energy parameters.">
<polygon fill="white" stroke="#666666" points="1379,-145.5 1241,-145.5 1241,-126.5 1379,-126.5 1379,-145.5"/>
<text text-anchor="middle" x="1310" y="-133.5" font-family="Helvetica,sans-Serif" font-size="10.00">ViennaRNA/params/basic.h</text>
</a>
</g>
</g>
<!-- Node3&#45;&gt;Node8 -->
<g id="edge36" class="edge">
<title>Node3&#45;&gt;Node8</title>
<path fill="none" stroke="#63b8ff" d="M939.99,-241.53C1020.15,-217.75 1184.2,-170.85 1264.21,-148.88"/>
<polygon fill="#63b8ff" stroke="#63b8ff" points="1264.74,-152.37 1273.47,-146.35 1262.9,-145.61 1264.74,-152.37"/>
</g>
<!-- Node10 -->
<g id="node10" class="node">
<title>Node10</title>
<g id="a_node10"><a xlink:href="dp__matrices_8h.html" target="_top" xlink:title="Functions to deal with standard dynamic programming (DP) matrices.">
<polygon fill="white" stroke="#666666" points="335.5,-145.5 202.5,-145.5 202.5,-126.5 335.5,-126.5 335.5,-145.5"/>
<text text-anchor="middle" x="269" y="-133.5" font-family="Helvetica,sans-Serif" font-size="10.00">ViennaRNA/dp_matrices.h</text>
</a>
</g>
</g>
<!-- Node3&#45;&gt;Node10 -->
<g id="edge37" class="edge">
<title>Node3&#45;&gt;Node10</title>
<path fill="none" stroke="#63b8ff" d="M826.61,-248.27C757.84,-239.47 648.46,-223.98 555,-206 466.27,-188.93 363.79,-163.7 308.69,-148.95"/>
<polygon fill="#63b8ff" stroke="#63b8ff" points="309.7,-145.59 299.13,-146.36 307.87,-152.35 309.7,-145.59"/>
</g>
<!-- Node11 -->
<g id="node11" class="node">
<title>Node11</title>
<g id="a_node11"><a xlink:href="hard_8h.html" target="_top" xlink:title="Functions and data structures for handling of secondary structure hard constraints.">
<polygon fill="white" stroke="#666666" points="472.5,-151 353.5,-151 353.5,-121 472.5,-121 472.5,-151"/>
<text text-anchor="start" x="361.5" y="-139" font-family="Helvetica,sans-Serif" font-size="10.00">ViennaRNA/constraints</text>
<text text-anchor="middle" x="413" y="-128" font-family="Helvetica,sans-Serif" font-size="10.00">/hard.h</text>
</a>
</g>
</g>
<!-- Node3&#45;&gt;Node11 -->
<g id="edge38" class="edge">
<title>Node3&#45;&gt;Node11</title>
<path fill="none" stroke="#63b8ff" d="M826.74,-245.03C774.42,-236 700.17,-222.09 636,-206 576.99,-191.2 510.5,-170.03 465.6,-155.05"/>
<polygon fill="#63b8ff" stroke="#63b8ff" points="466.98,-151.82 456.38,-151.96 464.75,-158.46 466.98,-151.82"/>
</g>
<!-- Node13 -->
<g id="node13" class="node">
<title>Node13</title>
<g id="a_node13"><a xlink:href="soft_8h.html" target="_top" xlink:title="Functions and data structures for secondary structure soft constraints.">
<polygon fill="white" stroke="#666666" points="1089.5,-151 970.5,-151 970.5,-121 1089.5,-121 1089.5,-151"/>
<text text-anchor="start" x="978.5" y="-139" font-family="Helvetica,sans-Serif" font-size="10.00">ViennaRNA/constraints</text>
<text text-anchor="middle" x="1030" y="-128" font-family="Helvetica,sans-Serif" font-size="10.00">/soft.h</text>
</a>
</g>
</g>
<!-- Node3&#45;&gt;Node13 -->
<g id="edge39" class="edge">
<title>Node3&#45;&gt;Node13</title>
<path fill="none" stroke="#63b8ff" d="M905.58,-241.88C926.53,-221.24 970.38,-182.65 1000.12,-158.47"/>
<polygon fill="#63b8ff" stroke="#63b8ff" points="1002.07,-161.4 1007.68,-152.42 997.69,-155.94 1002.07,-161.4"/>
</g>
<!-- Node14 -->
<g id="node14" class="node">
<title>Node14</title>
<g id="a_node14"><a xlink:href="grammar_8h.html" target="_top" xlink:title="Implementations for the RNA folding grammar.">
<polygon fill="white" stroke="#666666" points="952.5,-145.5 835.5,-145.5 835.5,-126.5 952.5,-126.5 952.5,-145.5"/>
<text text-anchor="middle" x="894" y="-133.5" font-family="Helvetica,sans-Serif" font-size="10.00">ViennaRNA/grammar.h</text>
</a>
</g>
</g>
<!-- Node3&#45;&gt;Node14 -->
<g id="edge40" class="edge">
<title>Node3&#45;&gt;Node14</title>
<path fill="none" stroke="#63b8ff" d="M894,-241.88C894,-220.8 894,-181 894,-156.95"/>
<polygon fill="#63b8ff" stroke="#63b8ff" points="897.5,-157.22 894,-147.22 890.5,-157.22 897.5,-157.22"/>
</g>
<!-- Node15 -->
<g id="node15" class="node">
<title>Node15</title>
<g id="a_node15"><a xlink:href="structured__domains_8h.html" target="_top" xlink:title="This module provides interfaces that deal with additional structured domains in the folding grammar.">
<polygon fill="white" stroke="#666666" points="1222.5,-151 1107.5,-151 1107.5,-121 1222.5,-121 1222.5,-151"/>
<text text-anchor="start" x="1115.5" y="-139" font-family="Helvetica,sans-Serif" font-size="10.00">ViennaRNA/structured</text>
<text text-anchor="middle" x="1165" y="-128" font-family="Helvetica,sans-Serif" font-size="10.00">_domains.h</text>
</a>
</g>
</g>
<!-- Node3&#45;&gt;Node15 -->
<g id="edge41" class="edge">
<title>Node3&#45;&gt;Node15</title>
<path fill="none" stroke="#63b8ff" d="M926.96,-241.53C975.89,-220.04 1067.78,-179.69 1121.96,-155.9"/>
<polygon fill="#63b8ff" stroke="#63b8ff" points="1123.14,-159.21 1130.88,-151.98 1120.32,-152.8 1123.14,-159.21"/>
</g>
<!-- Node16 -->
<g id="node16" class="node">
<title>Node16</title>
<g id="a_node16"><a xlink:href="unstructured__domains_8h.html" target="_top" xlink:title="Functions to modify unstructured domains, e.g. to incorporate ligands binding to unpaired stretches.">
<polygon fill="white" stroke="#666666" points="184.5,-151 59.5,-151 59.5,-121 184.5,-121 184.5,-151"/>
<text text-anchor="start" x="67.5" y="-139" font-family="Helvetica,sans-Serif" font-size="10.00">ViennaRNA/unstructured</text>
<text text-anchor="middle" x="122" y="-128" font-family="Helvetica,sans-Serif" font-size="10.00">_domains.h</text>
</a>
</g>
</g>
<!-- Node3&#45;&gt;Node16 -->
<g id="edge42" class="edge">
<title>Node3&#45;&gt;Node16</title>
<path fill="none" stroke="#63b8ff" d="M826.75,-250.27C741.42,-242.21 590.2,-226.22 462,-206 367.8,-191.14 260.27,-169.11 191.74,-153.96"/>
<polygon fill="#63b8ff" stroke="#63b8ff" points="192.66,-150.58 182.14,-151.82 191.14,-157.41 192.66,-150.58"/>
</g>
<!-- Node17 -->
<g id="node17" class="node">
<title>Node17</title>
<g id="a_node17"><a xlink:href="utils_2structures_8h.html" target="_top" xlink:title="Various utility&#45; and helper&#45;functions for secondary structure parsing, converting,...">
<polygon fill="white" stroke="#666666" points="144,-79.5 0,-79.5 0,-60.5 144,-60.5 144,-79.5"/>
<text text-anchor="middle" x="72" y="-67.5" font-family="Helvetica,sans-Serif" font-size="10.00">ViennaRNA/utils/structures.h</text>
</a>
</g>
</g>
<!-- Node3&#45;&gt;Node17 -->
<g id="edge43" class="edge">
<title>Node3&#45;&gt;Node17</title>
<path fill="none" stroke="#63b8ff" d="M826.64,-252.99C633.89,-243.42 91.16,-210.77 41,-151 26.08,-133.22 38.66,-106.12 52.28,-88.48"/>
<polygon fill="#63b8ff" stroke="#63b8ff" points="54.92,-90.78 58.79,-80.92 49.61,-86.21 54.92,-90.78"/>
</g>
<!-- Node5 -->
<g id="node5" class="node">
<title>Node5</title>
<g id="a_node5"><a xlink:title=" ">
<polygon fill="#e0e0e0" stroke="#999999" points="1400,-19 1352,-19 1352,0 1400,0 1400,-19"/>
<text text-anchor="middle" x="1376" y="-7" font-family="Helvetica,sans-Serif" font-size="10.00">limits.h</text>
</a>
</g>
</g>
<!-- Node4&#45;&gt;Node5 -->
<g id="edge4" class="edge">
<title>Node4&#45;&gt;Node5</title>
<path fill="none" stroke="#63b8ff" d="M1376,-60.37C1376,-52.5 1376,-40.6 1376,-30.39"/>
<polygon fill="#63b8ff" stroke="#63b8ff" points="1379.5,-30.68 1376,-20.68 1372.5,-30.68 1379.5,-30.68"/>
</g>
<!-- Node6&#45;&gt;Node7 -->
<g id="edge6" class="edge">
<title>Node6&#45;&gt;Node7</title>
<path fill="none" stroke="#63b8ff" d="M733.04,-186.55C747.41,-177.86 769.56,-164.09 788,-151 805.55,-138.55 806.15,-129.31 826,-121 885.01,-96.3 1063.74,-81.38 1161.09,-74.87"/>
<polygon fill="#63b8ff" stroke="#63b8ff" points="1161.29,-78.36 1171.04,-74.21 1160.83,-71.38 1161.29,-78.36"/>
</g>
<!-- Node6&#45;&gt;Node8 -->
<g id="edge7" class="edge">
<title>Node6&#45;&gt;Node8</title>
<path fill="none" stroke="#63b8ff" d="M791.25,-190.87C889.71,-184.47 1069.84,-171.33 1223,-151 1229.8,-150.1 1236.91,-149.01 1244.02,-147.86"/>
<polygon fill="#63b8ff" stroke="#63b8ff" points="1244.37,-151.35 1253.66,-146.24 1243.22,-144.44 1244.37,-151.35"/>
</g>
<!-- Node9 -->
<g id="node9" class="node">
<title>Node9</title>
<g id="a_node9"><a xlink:href="sequence_8h.html" target="_top" xlink:title="Functions and data structures related to sequence representations ,.">
<polygon fill="white" stroke="#666666" points="779,-145.5 657,-145.5 657,-126.5 779,-126.5 779,-145.5"/>
<text text-anchor="middle" x="718" y="-133.5" font-family="Helvetica,sans-Serif" font-size="10.00">ViennaRNA/sequence.h</text>
</a>
</g>
</g>
<!-- Node6&#45;&gt;Node9 -->
<g id="edge12" class="edge">
<title>Node6&#45;&gt;Node9</title>
<path fill="none" stroke="#63b8ff" d="M713.04,-186.87C711.35,-179 710.85,-167.1 711.57,-156.89"/>
<polygon fill="#63b8ff" stroke="#63b8ff" points="715.01,-157.54 712.84,-147.17 708.07,-156.63 715.01,-157.54"/>
</g>
<!-- Node6&#45;&gt;Node10 -->
<g id="edge14" class="edge">
<title>Node6&#45;&gt;Node10</title>
<path fill="none" stroke="#63b8ff" d="M644.72,-188.91C567.33,-181.19 442.14,-167.36 335,-151 329.03,-150.09 322.8,-149.06 316.65,-147.98"/>
<polygon fill="#63b8ff" stroke="#63b8ff" points="317.69,-144.61 307.23,-146.27 316.44,-151.5 317.69,-144.61"/>
</g>
<!-- Node6&#45;&gt;Node11 -->
<g id="edge17" class="edge">
<title>Node6&#45;&gt;Node11</title>
<path fill="none" stroke="#63b8ff" d="M666.32,-186.55C616.23,-177.31 539.96,-162.75 484.16,-151.79"/>
<polygon fill="#63b8ff" stroke="#63b8ff" points="484.91,-148.37 474.42,-149.87 483.55,-155.24 484.91,-148.37"/>
</g>
<!-- Node6&#45;&gt;Node13 -->
<g id="edge21" class="edge">
<title>Node6&#45;&gt;Node13</title>
<path fill="none" stroke="#63b8ff" d="M762.1,-186.55C809.41,-177.79 886.42,-163.92 953,-151 955,-150.61 957.03,-150.21 959.08,-149.81"/>
<polygon fill="#63b8ff" stroke="#63b8ff" points="959.6,-153.28 968.73,-147.89 958.24,-146.41 959.6,-153.28"/>
</g>
<!-- Node6&#45;&gt;Node14 -->
<g id="edge25" class="edge">
<title>Node6&#45;&gt;Node14</title>
<path fill="none" stroke="#63b8ff" d="M739.72,-186.62C767.48,-176.69 815.79,-160.57 851.05,-149.4"/>
<polygon fill="#63b8ff" stroke="#63b8ff" points="852.05,-152.76 860.55,-146.42 849.96,-146.08 852.05,-152.76"/>
</g>
<!-- Node6&#45;&gt;Node15 -->
<g id="edge27" class="edge">
<title>Node6&#45;&gt;Node15</title>
<path fill="none" stroke="#63b8ff" d="M791.32,-188.97C865.77,-181.89 984.58,-169.31 1096,-151.4"/>
<polygon fill="#63b8ff" stroke="#63b8ff" points="1096.31,-154.9 1105.62,-149.84 1095.18,-147.99 1096.31,-154.9"/>
</g>
<!-- Node6&#45;&gt;Node16 -->
<g id="edge28" class="edge">
<title>Node6&#45;&gt;Node16</title>
<path fill="none" stroke="#63b8ff" d="M644.76,-192.17C543.95,-186.81 356.9,-174.59 196.01,-152.66"/>
<polygon fill="#63b8ff" stroke="#63b8ff" points="196.84,-149.24 186.46,-151.34 195.88,-156.18 196.84,-149.24"/>
</g>
<!-- Node18 -->
<g id="node18" class="node">
<title>Node18</title>
<g id="a_node18"><a xlink:href="zscore_8h_source.html" target="_top" xlink:title=" ">
<polygon fill="white" stroke="#666666" points="638.5,-145.5 529.5,-145.5 529.5,-126.5 638.5,-126.5 638.5,-145.5"/>
<text text-anchor="middle" x="584" y="-133.5" font-family="Helvetica,sans-Serif" font-size="10.00">ViennaRNA/zscore.h</text>
</a>
</g>
</g>
<!-- Node6&#45;&gt;Node18 -->
<g id="edge34" class="edge">
<title>Node6&#45;&gt;Node18</title>
<path fill="none" stroke="#63b8ff" d="M697.65,-186.62C675.61,-176.99 640.21,-161.54 614.77,-150.43"/>
<polygon fill="#63b8ff" stroke="#63b8ff" points="616.5,-147.37 605.93,-146.57 613.69,-153.78 616.5,-147.37"/>
</g>
<!-- Node8&#45;&gt;Node3 -->
<g id="edge9" class="edge">
<title>Node8&#45;&gt;Node3</title>
<path fill="none" stroke="#63b8ff" d="M1282.48,-145.95C1217.35,-165.59 1052.89,-212.75 960.14,-238.5"/>
<polygon fill="#63b8ff" stroke="#63b8ff" points="959.36,-235.08 950.65,-241.12 961.22,-241.83 959.36,-235.08"/>
</g>
<!-- Node8&#45;&gt;Node4 -->
<g id="edge8" class="edge">
<title>Node8&#45;&gt;Node4</title>
<path fill="none" stroke="#63b8ff" d="M1319.18,-126.1C1329.42,-116.17 1346.23,-99.87 1358.91,-87.57"/>
<polygon fill="#63b8ff" stroke="#63b8ff" points="1361.07,-90.35 1365.81,-80.88 1356.2,-85.33 1361.07,-90.35"/>
</g>
<!-- Node8&#45;&gt;Node6 -->
<g id="edge10" class="edge">
<title>Node8&#45;&gt;Node6</title>
<path fill="none" stroke="#63b8ff" d="M1272.68,-145.99C1262.45,-147.83 1251.37,-149.62 1241,-151 1087.38,-171.39 906.63,-184.55 802.81,-190.93"/>
<polygon fill="#63b8ff" stroke="#63b8ff" points="802.75,-187.43 792.98,-191.53 803.17,-194.42 802.75,-187.43"/>
</g>
<!-- Node8&#45;&gt;Node7 -->
<g id="edge11" class="edge">
<title>Node8&#45;&gt;Node7</title>
<path fill="none" stroke="#63b8ff" d="M1298.32,-126.1C1284.9,-115.88 1262.65,-98.93 1246.37,-86.52"/>
<polygon fill="#63b8ff" stroke="#63b8ff" points="1248.86,-84.02 1238.78,-80.74 1244.62,-89.59 1248.86,-84.02"/>
</g>
<!-- Node9&#45;&gt;Node6 -->
<g id="edge13" class="edge">
<title>Node9&#45;&gt;Node6</title>
<path fill="none" stroke="#63b8ff" d="M722.96,-145.67C724.66,-153.54 725.15,-165.45 724.43,-175.66"/>
<polygon fill="#63b8ff" stroke="#63b8ff" points="720.99,-175 723.15,-185.37 727.93,-175.91 720.99,-175"/>
</g>
<!-- Node10&#45;&gt;Node3 -->
<g id="edge15" class="edge">
<title>Node10&#45;&gt;Node3</title>
<path fill="none" stroke="#63b8ff" d="M308.98,-145.96C367.14,-160.07 477.96,-187.72 573,-206 655.57,-221.89 750.56,-235.83 815.72,-244.92"/>
<polygon fill="#63b8ff" stroke="#63b8ff" points="814.84,-248.33 825.22,-246.25 815.8,-241.4 814.84,-248.33"/>
</g>
<!-- Node10&#45;&gt;Node6 -->
<g id="edge16" class="edge">
<title>Node10&#45;&gt;Node6</title>
<path fill="none" stroke="#63b8ff" d="M323.32,-146C333.24,-147.78 343.44,-149.54 353,-151 448.91,-165.64 559.29,-178.26 633.39,-186.28"/>
<polygon fill="#63b8ff" stroke="#63b8ff" points="632.68,-189.73 643,-187.32 633.43,-182.77 632.68,-189.73"/>
</g>
<!-- Node11&#45;&gt;Node6 -->
<g id="edge18" class="edge">
<title>Node11&#45;&gt;Node6</title>
<path fill="none" stroke="#63b8ff" d="M472.96,-147.48C529.04,-157.88 611.83,-173.75 665.4,-184.37"/>
<polygon fill="#63b8ff" stroke="#63b8ff" points="664.39,-187.74 674.88,-186.26 665.76,-180.87 664.39,-187.74"/>
</g>
<!-- Node12 -->
<g id="node12" class="node">
<title>Node12</title>
<g id="a_node12"><a xlink:href="constraints_2basic_8h.html" target="_top" xlink:title="Functions and data structures for constraining secondary structure predictions and evaluation.">
<polygon fill="white" stroke="#666666" points="560.5,-85 441.5,-85 441.5,-55 560.5,-55 560.5,-85"/>
<text text-anchor="start" x="449.5" y="-73" font-family="Helvetica,sans-Serif" font-size="10.00">ViennaRNA/constraints</text>
<text text-anchor="middle" x="501" y="-62" font-family="Helvetica,sans-Serif" font-size="10.00">/basic.h</text>
</a>
</g>
</g>
<!-- Node11&#45;&gt;Node12 -->
<g id="edge19" class="edge">
<title>Node11&#45;&gt;Node12</title>
<path fill="none" stroke="#63b8ff" d="M432.53,-120.8C444.18,-112.32 459.19,-101.4 472.19,-91.95"/>
<polygon fill="#63b8ff" stroke="#63b8ff" points="473.97,-94.99 480,-86.28 469.85,-89.33 473.97,-94.99"/>
</g>
<!-- Node12&#45;&gt;Node6 -->
<g id="edge20" class="edge">
<title>Node12&#45;&gt;Node6</title>
<path fill="none" stroke="#63b8ff" d="M500.16,-85.3C499.93,-103.21 502.43,-133.64 520,-151 536.32,-167.13 587.3,-178.36 633.44,-185.51"/>
<polygon fill="#63b8ff" stroke="#63b8ff" points="632.82,-188.96 643.23,-186.97 633.86,-182.04 632.82,-188.96"/>
</g>
<!-- Node13&#45;&gt;Node3 -->
<g id="edge22" class="edge">
<title>Node13&#45;&gt;Node3</title>
<path fill="none" stroke="#63b8ff" d="M1018.13,-151.41C997.02,-172.16 953.3,-210.63 923.69,-234.68"/>
<polygon fill="#63b8ff" stroke="#63b8ff" points="921.79,-231.72 916.17,-240.7 926.16,-237.18 921.79,-231.72"/>
</g>
<!-- Node13&#45;&gt;Node6 -->
<g id="edge23" class="edge">
<title>Node13&#45;&gt;Node6</title>
<path fill="none" stroke="#63b8ff" d="M970.22,-151.15C908.49,-163.13 837.93,-175.89 787.09,-184.63"/>
<polygon fill="#63b8ff" stroke="#63b8ff" points="786.66,-181.15 777.4,-186.29 787.84,-188.05 786.66,-181.15"/>
</g>
<!-- Node13&#45;&gt;Node12 -->
<g id="edge24" class="edge">
<title>Node13&#45;&gt;Node12</title>
<path fill="none" stroke="#63b8ff" d="M970.35,-122.39C967.53,-121.89 964.74,-121.43 962,-121 824.71,-99.47 662.97,-84.24 572.17,-76.61"/>
<polygon fill="#63b8ff" stroke="#63b8ff" points="572.68,-73.14 562.42,-75.79 572.1,-80.11 572.68,-73.14"/>
</g>
<!-- Node14&#45;&gt;Node6 -->
<g id="edge26" class="edge">
<title>Node14&#45;&gt;Node6</title>
<path fill="none" stroke="#63b8ff" d="M872.04,-145.97C844.17,-155.92 795.84,-172.06 760.66,-183.19"/>
<polygon fill="#63b8ff" stroke="#63b8ff" points="759.68,-179.83 751.18,-186.16 761.77,-186.51 759.68,-179.83"/>
</g>
<!-- Node16&#45;&gt;Node3 -->
<g id="edge29" class="edge">
<title>Node16&#45;&gt;Node3</title>
<path fill="none" stroke="#63b8ff" d="M184.95,-149.59C256.41,-164.58 376.28,-189.64 480,-206 596.33,-224.35 731.63,-239.22 815.11,-247.84"/>
<polygon fill="#63b8ff" stroke="#63b8ff" points="814.72,-251.31 825.03,-248.86 815.44,-244.35 814.72,-251.31"/>
</g>
<!-- Node16&#45;&gt;Node6 -->
<g id="edge30" class="edge">
<title>Node16&#45;&gt;Node6</title>
<path fill="none" stroke="#63b8ff" d="M184.73,-148.25C190.58,-149.27 196.4,-150.21 202,-151 353.48,-172.29 531.09,-184.75 633.54,-190.84"/>
<polygon fill="#63b8ff" stroke="#63b8ff" points="633.04,-194.31 643.22,-191.41 633.45,-187.33 633.04,-194.31"/>
</g>
<!-- Node16&#45;&gt;Node17 -->
<g id="edge31" class="edge">
<title>Node16&#45;&gt;Node17</title>
<path fill="none" stroke="#63b8ff" d="M110.9,-120.8C103.49,-111.31 93.69,-98.76 85.77,-88.63"/>
<polygon fill="#63b8ff" stroke="#63b8ff" points="88.76,-86.76 79.84,-81.04 83.24,-91.07 88.76,-86.76"/>
</g>
<!-- Node17&#45;&gt;Node2 -->
<g id="edge32" class="edge">
<title>Node17&#45;&gt;Node2</title>
<path fill="none" stroke="#63b8ff" d="M144.4,-66.14C217.09,-63.28 332.31,-58.78 432,-55 866.21,-38.56 976.56,-61.48 1409,-19 1414.93,-18.42 1421.21,-17.59 1427.29,-16.69"/>
<polygon fill="#63b8ff" stroke="#63b8ff" points="1427.78,-20.16 1437.1,-15.12 1426.68,-13.24 1427.78,-20.16"/>
</g>
<!-- Node17&#45;&gt;Node3 -->
<g id="edge33" class="edge">
<title>Node17&#45;&gt;Node3</title>
<path fill="none" stroke="#63b8ff" d="M70.31,-79.78C62.27,-95.77 41.31,-129.92 59,-151 107.5,-208.8 616.64,-241.24 815.3,-251.97"/>
<polygon fill="#63b8ff" stroke="#63b8ff" points="814.83,-255.45 825.01,-252.49 815.21,-248.46 814.83,-255.45"/>
</g>
</g>
</svg>
        <g id="navigator" transform="translate(0 0)" fill="#404254">
                <rect fill="#f2f5e9" fill-opacity="0.5" stroke="#606060" stroke-width=".5" x="0" y="0" width="60" height="60"/>
                <use id="zoomplus" xlink:href="#zoomPlus" x="17" y="9" onmousedown="handleZoom(evt,'in')"/>
                <use id="zoomminus" xlink:href="#zoomMin" x="42" y="9" onmousedown="handleZoom(evt,'out')"/>
                <use id="reset" xlink:href="#resetDef" x="30" y="36" onmousedown="handleReset()"/>
                <g id="arrowUp" xlink:href="#dirArrow" transform="translate(30 24)" onmousedown="handlePan(0,-1)">
                  <use xlink:href="#rim" fill="#404040">
                        <set attributeName="fill" to="#808080" begin="arrowUp.mouseover" end="arrowUp.mouseout"/>
                  </use>
                  <path fill="none" stroke="white" stroke-width="1.5" d="M0,-3.0v7 M-2.5,-0.5L0,-3.0L2.5,-0.5"/>
                </g>
                <g id="arrowRight" xlink:href="#dirArrow" transform="rotate(90) translate(36 -43)" onmousedown="handlePan(1,0)">
                  <use xlink:href="#rim" fill="#404040">
                        <set attributeName="fill" to="#808080" begin="arrowRight.mouseover" end="arrowRight.mouseout"/>
                  </use>
                  <path fill="none" stroke="white" stroke-width="1.5" d="M0,-3.0v7 M-2.5,-0.5L0,-3.0L2.5,-0.5"/>
                </g>
                <g id="arrowDown" xlink:href="#dirArrow" transform="rotate(180) translate(-30 -48)" onmousedown="handlePan(0,1)">
                  <use xlink:href="#rim" fill="#404040">
                        <set attributeName="fill" to="#808080" begin="arrowDown.mouseover" end="arrowDown.mouseout"/>
                  </use>
                  <path fill="none" stroke="white" stroke-width="1.5" d="M0,-3.0v7 M-2.5,-0.5L0,-3.0L2.5,-0.5"/>
                </g>
                <g id="arrowLeft" xlink:href="#dirArrow" transform="rotate(270) translate(-36 17)" onmousedown="handlePan(-1,0)">
                  <use xlink:href="#rim" fill="#404040">
                        <set attributeName="fill" to="#808080" begin="arrowLeft.mouseover" end="arrowLeft.mouseout"/>
                  </use>
                  <path fill="none" stroke="white" stroke-width="1.5" d="M0,-3.0v7 M-2.5,-0.5L0,-3.0L2.5,-0.5"/>
                </g>
        </g>
        <svg viewBox="0 0 15 15" width="100%" height="30px" preserveAspectRatio="xMaxYMin meet">
         <g id="arrow_out" transform="scale(0.3 0.3)">
          <a xlink:href="heat__capacity_8h__incl_org.svg" target="_base">
           <rect id="button" ry="5" rx="5" y="6" x="6" height="38" width="38"
                fill="#f2f5e9" fill-opacity="0.5" stroke="#606060" stroke-width="1.0"/>
           <path id="arrow"
             d="M 11.500037,31.436501 C 11.940474,20.09759 22.043105,11.32322 32.158766,21.979434 L 37.068811,17.246167 C 37.068811,17.246167 37.088388,32 37.088388,32 L 22.160133,31.978069 C 22.160133,31.978069 26.997745,27.140456 26.997745,27.140456 C 18.528582,18.264221 13.291696,25.230495 11.500037,31.436501 z"
             style="fill:#404040;"/>
          </a>
         </g>
        </svg>
</svg>
