<?xml version="1.0" encoding="UTF-8" standalone="no"?>
<!DOCTYPE svg PUBLIC "-//W3C//DTD SVG 1.1//EN"
 "http://www.w3.org/Graphics/SVG/1.1/DTD/svg11.dtd">
<!-- Generated by graphviz version 7.1.0 (0)
 -->
<!-- Title: ViennaRNA/interior_loops.h Pages: 1 -->
<!--zoomable 511 -->
<svg id="main" version="1.1" xmlns="http://www.w3.org/2000/svg" xmlns:xlink="http://www.w3.org/1999/xlink" xml:space="preserve" onload="init(evt)">
<style type="text/css"><![CDATA[
.edge:hover path { stroke: red; }
.edge:hover polygon { stroke: red; fill: red; }
]]></style>
<script type="text/javascript"><![CDATA[
var edges = document.getElementsByTagName('g');
if (edges && edges.length) {
  for (var i=0;i<edges.length;i++) {
    if (edges[i].id.substr(0,4)=='edge') {
      edges[i].setAttribute('class','edge');
    }
  }
}
]]></script>
        <defs>
                <circle id="rim" cx="0" cy="0" r="7"/>
                <circle id="rim2" cx="0" cy="0" r="3.5"/>
                <g id="zoomPlus">
                        <use xlink:href="#rim" fill="#404040">
                                <set attributeName="fill" to="#808080" begin="zoomplus.mouseover" end="zoomplus.mouseout"/>
                        </use>
                        <path d="M-4,0h8M0,-4v8" fill="none" stroke="white" stroke-width="1.5" pointer-events="none"/>
                </g>
                <g id="zoomMin">
                        <use xlink:href="#rim" fill="#404040">
                                <set attributeName="fill" to="#808080" begin="zoomminus.mouseover" end="zoomminus.mouseout"/>
                        </use>
                        <path d="M-4,0h8" fill="none" stroke="white" stroke-width="1.5" pointer-events="none"/>
                </g>
                <g id="dirArrow">
                        <path fill="none" stroke="white" stroke-width="1.5" d="M0,-3.0v7 M-2.5,-0.5L0,-3.0L2.5,-0.5"/>
                </g>
               <g id="resetDef">
                       <use xlink:href="#rim2" fill="#404040">
                               <set attributeName="fill" to="#808080" begin="reset.mouseover" end="reset.mouseout"/>
                       </use>
               </g>
        </defs>

<script type="text/javascript">
var viewWidth = 1591;
var viewHeight = 511;
var sectionId = 'dynsection-0';
</script>
<script xlink:href="svgpan.js"/>
<svg id="graph" class="graph">
<g id="viewport">
<title>ViennaRNA/interior_loops.h</title>
<!-- Node1 -->
<g id="node1" class="node">
<title>Node1</title>
<g id="a_node1"><a xlink:title="Use ViennaRNA/loops/internal.h instead.">
<polygon fill="#999999" stroke="#666666" points="893.5,-503 792.5,-503 792.5,-473 893.5,-473 893.5,-503"/>
<text text-anchor="start" x="800.5" y="-491" font-family="Helvetica,sans-Serif" font-size="10.00">ViennaRNA/interior</text>
<text text-anchor="middle" x="843" y="-480" font-family="Helvetica,sans-Serif" font-size="10.00">_loops.h</text>
</a>
</g>
</g>
<!-- Node2 -->
<g id="node2" class="node">
<title>Node2</title>
<g id="a_node2"><a xlink:href="internal_8h.html" target="_top" xlink:title="Energy evaluation of interior loops for MFE and partition function calculations.">
<polygon fill="white" stroke="#666666" points="911.5,-437 774.5,-437 774.5,-418 911.5,-418 911.5,-437"/>
<text text-anchor="middle" x="843" y="-425" font-family="Helvetica,sans-Serif" font-size="10.00">ViennaRNA/loops/internal.h</text>
</a>
</g>
</g>
<!-- Node1&#45;&gt;Node2 -->
<g id="edge1" class="edge">
<title>Node1&#45;&gt;Node2</title>
<path fill="none" stroke="#63b8ff" d="M843,-472.54C843,-465.34 843,-456.53 843,-448.68"/>
<polygon fill="#63b8ff" stroke="#63b8ff" points="846.5,-448.69 843,-438.69 839.5,-448.69 846.5,-448.69"/>
</g>
<!-- Node3 -->
<g id="node3" class="node">
<title>Node3</title>
<g id="a_node3"><a xlink:title=" ">
<polygon fill="#e0e0e0" stroke="#999999" points="592.5,-327 545.5,-327 545.5,-308 592.5,-308 592.5,-327"/>
<text text-anchor="middle" x="569" y="-315" font-family="Helvetica,sans-Serif" font-size="10.00">math.h</text>
</a>
</g>
</g>
<!-- Node2&#45;&gt;Node3 -->
<g id="edge2" class="edge">
<title>Node2&#45;&gt;Node3</title>
<path fill="none" stroke="#63b8ff" d="M774.03,-421.09C711.42,-414.93 624.87,-402.9 598,-382 584.39,-371.41 576.95,-352.97 573.02,-338.68"/>
<polygon fill="#63b8ff" stroke="#63b8ff" points="576.44,-337.91 570.76,-328.97 569.62,-339.5 576.44,-337.91"/>
</g>
<!-- Node4 -->
<g id="node4" class="node">
<title>Node4</title>
<g id="a_node4"><a xlink:href="utils_2basic_8h.html" target="_top" xlink:title="General utility&#45; and helper&#45;functions used throughout the ViennaRNA Package.">
<polygon fill="white" stroke="#666666" points="735,-327 611,-327 611,-308 735,-308 735,-327"/>
<text text-anchor="middle" x="673" y="-315" font-family="Helvetica,sans-Serif" font-size="10.00">ViennaRNA/utils/basic.h</text>
</a>
</g>
</g>
<!-- Node2&#45;&gt;Node4 -->
<g id="edge3" class="edge">
<title>Node2&#45;&gt;Node4</title>
<path fill="none" stroke="#63b8ff" d="M830.07,-417.69C811.74,-405.27 777.08,-381.98 747,-363 730.78,-352.76 712.29,-341.64 697.85,-333.08"/>
<polygon fill="#63b8ff" stroke="#63b8ff" points="699.83,-330.19 689.44,-328.12 696.27,-336.22 699.83,-330.19"/>
</g>
<!-- Node7 -->
<g id="node7" class="node">
<title>Node7</title>
<g id="a_node7"><a xlink:href="datastructures_2basic_8h.html" target="_top" xlink:title="Various data structures and pre&#45;processor macros.">
<polygon fill="white" stroke="#666666" points="740,-272 606,-272 606,-242 740,-242 740,-272"/>
<text text-anchor="start" x="614" y="-260" font-family="Helvetica,sans-Serif" font-size="10.00">ViennaRNA/datastructures</text>
<text text-anchor="middle" x="673" y="-249" font-family="Helvetica,sans-Serif" font-size="10.00">/basic.h</text>
</a>
</g>
</g>
<!-- Node2&#45;&gt;Node7 -->
<g id="edge50" class="edge">
<title>Node2&#45;&gt;Node7</title>
<path fill="none" stroke="#63b8ff" d="M836.96,-417.8C822.45,-397.26 783.84,-344.68 744,-308 732.45,-297.36 718.54,-287.11 706.11,-278.68"/>
<polygon fill="#63b8ff" stroke="#63b8ff" points="708.07,-275.77 697.79,-273.18 704.2,-281.61 708.07,-275.77"/>
</g>
<!-- Node10 -->
<g id="node10" class="node">
<title>Node10</title>
<g id="a_node10"><a xlink:href="fold__compound_8h.html" target="_top" xlink:title="The Basic Fold Compound API.">
<polygon fill="white" stroke="#666666" points="916,-206 770,-206 770,-187 916,-187 916,-206"/>
<text text-anchor="middle" x="843" y="-194" font-family="Helvetica,sans-Serif" font-size="10.00">ViennaRNA/fold_compound.h</text>
</a>
</g>
</g>
<!-- Node2&#45;&gt;Node10 -->
<g id="edge51" class="edge">
<title>Node2&#45;&gt;Node10</title>
<path fill="none" stroke="#63b8ff" d="M843,-417.52C843,-383.96 843,-265.36 843,-217.63"/>
<polygon fill="#63b8ff" stroke="#63b8ff" points="846.5,-217.68 843,-207.68 839.5,-217.68 846.5,-217.68"/>
</g>
<!-- Node12 -->
<g id="node12" class="node">
<title>Node12</title>
<g id="a_node12"><a xlink:href="params_2basic_8h.html" target="_top" xlink:title="Functions to deal with sets of energy parameters.">
<polygon fill="white" stroke="#666666" points="1232,-145.5 1094,-145.5 1094,-126.5 1232,-126.5 1232,-145.5"/>
<text text-anchor="middle" x="1163" y="-133.5" font-family="Helvetica,sans-Serif" font-size="10.00">ViennaRNA/params/basic.h</text>
</a>
</g>
</g>
<!-- Node2&#45;&gt;Node12 -->
<g id="edge52" class="edge">
<title>Node2&#45;&gt;Node12</title>
<path fill="none" stroke="#63b8ff" d="M894.17,-417.53C974.72,-401.93 1122,-366.8 1122,-318.5 1122,-318.5 1122,-318.5 1122,-256 1122,-218.99 1139.95,-178.86 1152.1,-155.94"/>
<polygon fill="#63b8ff" stroke="#63b8ff" points="1155.14,-157.67 1156.91,-147.22 1149.01,-154.28 1155.14,-157.67"/>
</g>
<!-- Node15 -->
<g id="node15" class="node">
<title>Node15</title>
<g id="a_node15"><a xlink:href="hard_8h.html" target="_top" xlink:title="Functions and data structures for handling of secondary structure hard constraints.">
<polygon fill="white" stroke="#666666" points="1369.5,-151 1250.5,-151 1250.5,-121 1369.5,-121 1369.5,-151"/>
<text text-anchor="start" x="1258.5" y="-139" font-family="Helvetica,sans-Serif" font-size="10.00">ViennaRNA/constraints</text>
<text text-anchor="middle" x="1310" y="-128" font-family="Helvetica,sans-Serif" font-size="10.00">/hard.h</text>
</a>
</g>
</g>
<!-- Node2&#45;&gt;Node15 -->
<g id="edge53" class="edge">
<title>Node2&#45;&gt;Node15</title>
<path fill="none" stroke="#63b8ff" d="M911.87,-424.52C1040.19,-418.96 1303,-397.87 1303,-318.5 1303,-318.5 1303,-318.5 1303,-256 1303,-223.75 1305.59,-186.67 1307.62,-162.59"/>
<polygon fill="#63b8ff" stroke="#63b8ff" points="1311.1,-163.05 1308.48,-152.78 1304.12,-162.44 1311.1,-163.05"/>
</g>
<!-- Node17 -->
<g id="node17" class="node">
<title>Node17</title>
<g id="a_node17"><a xlink:href="soft_8h.html" target="_top" xlink:title="Functions and data structures for secondary structure soft constraints.">
<polygon fill="white" stroke="#666666" points="1506.5,-151 1387.5,-151 1387.5,-121 1506.5,-121 1506.5,-151"/>
<text text-anchor="start" x="1395.5" y="-139" font-family="Helvetica,sans-Serif" font-size="10.00">ViennaRNA/constraints</text>
<text text-anchor="middle" x="1447" y="-128" font-family="Helvetica,sans-Serif" font-size="10.00">/soft.h</text>
</a>
</g>
</g>
<!-- Node2&#45;&gt;Node17 -->
<g id="edge54" class="edge">
<title>Node2&#45;&gt;Node17</title>
<path fill="none" stroke="#63b8ff" d="M911.75,-427.1C1058.26,-426.51 1388,-414.54 1388,-318.5 1388,-318.5 1388,-318.5 1388,-256 1388,-219.68 1410.33,-183.01 1427.52,-160.16"/>
<polygon fill="#63b8ff" stroke="#63b8ff" points="1430.15,-162.49 1433.55,-152.45 1424.63,-158.17 1430.15,-162.49"/>
</g>
<!-- Node23 -->
<g id="node23" class="node">
<title>Node23</title>
<g id="a_node23"><a xlink:href="default_8h_source.html" target="_top" xlink:title=" ">
<polygon fill="white" stroke="#666666" points="1583,-206 1439,-206 1439,-187 1583,-187 1583,-206"/>
<text text-anchor="middle" x="1511" y="-194" font-family="Helvetica,sans-Serif" font-size="10.00">ViennaRNA/params/default.h</text>
</a>
</g>
</g>
<!-- Node2&#45;&gt;Node23 -->
<g id="edge48" class="edge">
<title>Node2&#45;&gt;Node23</title>
<path fill="none" stroke="#63b8ff" d="M911.91,-424.55C1052.23,-420.06 1361.33,-407.4 1402,-382 1463.5,-343.59 1494.54,-256.72 1505.85,-217.44"/>
<polygon fill="#63b8ff" stroke="#63b8ff" points="1509.18,-218.52 1508.44,-207.95 1502.43,-216.67 1509.18,-218.52"/>
</g>
<!-- Node24 -->
<g id="node24" class="node">
<title>Node24</title>
<g id="a_node24"><a xlink:href="salt_8h.html" target="_top" xlink:title="Functions to compute salt correction.">
<polygon fill="white" stroke="#666666" points="738.5,-382 607.5,-382 607.5,-363 738.5,-363 738.5,-382"/>
<text text-anchor="middle" x="673" y="-370" font-family="Helvetica,sans-Serif" font-size="10.00">ViennaRNA/params/salt.h</text>
</a>
</g>
</g>
<!-- Node2&#45;&gt;Node24 -->
<g id="edge55" class="edge">
<title>Node2&#45;&gt;Node24</title>
<path fill="none" stroke="#63b8ff" d="M814.16,-417.51C786.24,-408.8 743.67,-395.53 712.58,-385.84"/>
<polygon fill="#63b8ff" stroke="#63b8ff" points="713.73,-382.53 703.14,-382.9 711.65,-389.21 713.73,-382.53"/>
</g>
<!-- Node5 -->
<g id="node5" class="node">
<title>Node5</title>
<g id="a_node5"><a xlink:title=" ">
<polygon fill="#e0e0e0" stroke="#999999" points="73,-19 27,-19 27,0 73,0 73,-19"/>
<text text-anchor="middle" x="50" y="-7" font-family="Helvetica,sans-Serif" font-size="10.00">stdio.h</text>
</a>
</g>
</g>
<!-- Node4&#45;&gt;Node5 -->
<g id="edge4" class="edge">
<title>Node4&#45;&gt;Node5</title>
<path fill="none" stroke="#63b8ff" d="M610.59,-308.73C443.75,-287.56 0,-228.33 0,-197.5 0,-197.5 0,-197.5 0,-135 0,-98.46 4.07,-88.36 19,-55 23.22,-45.57 29.51,-36.06 35.33,-28.25"/>
<polygon fill="#63b8ff" stroke="#63b8ff" points="37.9,-30.65 41.32,-20.62 32.39,-26.33 37.9,-30.65"/>
</g>
<!-- Node6 -->
<g id="node6" class="node">
<title>Node6</title>
<g id="a_node6"><a xlink:title=" ">
<polygon fill="#e0e0e0" stroke="#999999" points="588,-266.5 536,-266.5 536,-247.5 588,-247.5 588,-266.5"/>
<text text-anchor="middle" x="562" y="-254.5" font-family="Helvetica,sans-Serif" font-size="10.00">stdarg.h</text>
</a>
</g>
</g>
<!-- Node4&#45;&gt;Node6 -->
<g id="edge5" class="edge">
<title>Node4&#45;&gt;Node6</title>
<path fill="none" stroke="#63b8ff" d="M656.14,-307.62C638.38,-298.25 610.12,-283.36 589.2,-272.33"/>
<polygon fill="#63b8ff" stroke="#63b8ff" points="590.83,-269.24 580.36,-267.67 587.57,-275.43 590.83,-269.24"/>
</g>
<!-- Node4&#45;&gt;Node7 -->
<g id="edge6" class="edge">
<title>Node4&#45;&gt;Node7</title>
<path fill="none" stroke="#63b8ff" d="M673,-307.87C673,-301.4 673,-292.2 673,-283.45"/>
<polygon fill="#63b8ff" stroke="#63b8ff" points="676.5,-283.63 673,-273.63 669.5,-283.63 676.5,-283.63"/>
</g>
<!-- Node8 -->
<g id="node8" class="node">
<title>Node8</title>
<g id="a_node8"><a xlink:href="constants_8h.html" target="_top" xlink:title="Energy parameter constants.">
<polygon fill="white" stroke="#666666" points="1237,-79.5 1079,-79.5 1079,-60.5 1237,-60.5 1237,-79.5"/>
<text text-anchor="middle" x="1158" y="-67.5" font-family="Helvetica,sans-Serif" font-size="10.00">ViennaRNA/params/constants.h</text>
</a>
</g>
</g>
<!-- Node7&#45;&gt;Node8 -->
<g id="edge7" class="edge">
<title>Node7&#45;&gt;Node8</title>
<path fill="none" stroke="#63b8ff" d="M606.51,-241.54C524.02,-220.76 400.42,-178.52 454,-121 464.33,-109.91 879.64,-86.07 1067.43,-75.83"/>
<polygon fill="#63b8ff" stroke="#63b8ff" points="1067.34,-79.34 1077.14,-75.31 1066.96,-72.36 1067.34,-79.34"/>
</g>
<!-- Node7&#45;&gt;Node10 -->
<g id="edge9" class="edge">
<title>Node7&#45;&gt;Node10</title>
<path fill="none" stroke="#63b8ff" d="M715.02,-241.54C742.98,-231.92 779.36,-219.4 806.19,-210.17"/>
<polygon fill="#63b8ff" stroke="#63b8ff" points="807.3,-213.49 815.61,-206.92 805.02,-206.87 807.3,-213.49"/>
</g>
<!-- Node11 -->
<g id="node11" class="node">
<title>Node11</title>
<g id="a_node11"><a xlink:href="model_8h.html" target="_top" xlink:title="The model details data structure and its corresponding modifiers.">
<polygon fill="white" stroke="#666666" points="813,-79.5 707,-79.5 707,-60.5 813,-60.5 813,-79.5"/>
<text text-anchor="middle" x="760" y="-67.5" font-family="Helvetica,sans-Serif" font-size="10.00">ViennaRNA/model.h</text>
</a>
</g>
</g>
<!-- Node7&#45;&gt;Node11 -->
<g id="edge39" class="edge">
<title>Node7&#45;&gt;Node11</title>
<path fill="none" stroke="#63b8ff" d="M605.89,-243.46C602.89,-242.96 599.91,-242.47 597,-242 389.1,-208.75 -3.78,-275.73 139,-121 176.17,-80.71 543.88,-72.88 695.33,-71.36"/>
<polygon fill="#63b8ff" stroke="#63b8ff" points="695.23,-74.86 705.2,-71.27 695.17,-67.86 695.23,-74.86"/>
</g>
<!-- Node7&#45;&gt;Node12 -->
<g id="edge40" class="edge">
<title>Node7&#45;&gt;Node12</title>
<path fill="none" stroke="#63b8ff" d="M740.43,-242.86C789.38,-233.62 856.96,-220.39 916,-206 987.16,-188.66 1068.92,-163.87 1118.37,-149.2"/>
<polygon fill="#63b8ff" stroke="#63b8ff" points="1119.27,-152.59 1127.86,-146.4 1117.28,-145.88 1119.27,-152.59"/>
</g>
<!-- Node14 -->
<g id="node14" class="node">
<title>Node14</title>
<g id="a_node14"><a xlink:href="dp__matrices_8h.html" target="_top" xlink:title="Functions to deal with standard dynamic programming (DP) matrices.">
<polygon fill="white" stroke="#666666" points="596.5,-145.5 463.5,-145.5 463.5,-126.5 596.5,-126.5 596.5,-145.5"/>
<text text-anchor="middle" x="530" y="-133.5" font-family="Helvetica,sans-Serif" font-size="10.00">ViennaRNA/dp_matrices.h</text>
</a>
</g>
</g>
<!-- Node7&#45;&gt;Node14 -->
<g id="edge41" class="edge">
<title>Node7&#45;&gt;Node14</title>
<path fill="none" stroke="#63b8ff" d="M651.17,-241.65C621.78,-219.51 570.79,-177.16 545.2,-153.69"/>
<polygon fill="#63b8ff" stroke="#63b8ff" points="547.79,-151.32 538.11,-147.01 542.99,-156.42 547.79,-151.32"/>
</g>
<!-- Node7&#45;&gt;Node15 -->
<g id="edge42" class="edge">
<title>Node7&#45;&gt;Node15</title>
<path fill="none" stroke="#63b8ff" d="M740.22,-245.94C802.52,-236.4 897.71,-221.3 980,-206 1069.62,-189.34 1172.33,-167.41 1239.04,-152.79"/>
<polygon fill="#63b8ff" stroke="#63b8ff" points="1239.75,-156.22 1248.76,-150.66 1238.25,-149.39 1239.75,-156.22"/>
</g>
<!-- Node7&#45;&gt;Node17 -->
<g id="edge43" class="edge">
<title>Node7&#45;&gt;Node17</title>
<path fill="none" stroke="#63b8ff" d="M740.05,-246.89C864.62,-230.38 1139.65,-193.32 1370,-151 1372,-150.63 1374.04,-150.25 1376.09,-149.86"/>
<polygon fill="#63b8ff" stroke="#63b8ff" points="1376.59,-153.33 1385.75,-148 1375.26,-146.46 1376.59,-153.33"/>
</g>
<!-- Node18 -->
<g id="node18" class="node">
<title>Node18</title>
<g id="a_node18"><a xlink:href="grammar_8h.html" target="_top" xlink:title="Implementations for the RNA folding grammar.">
<polygon fill="white" stroke="#666666" points="731.5,-145.5 614.5,-145.5 614.5,-126.5 731.5,-126.5 731.5,-145.5"/>
<text text-anchor="middle" x="673" y="-133.5" font-family="Helvetica,sans-Serif" font-size="10.00">ViennaRNA/grammar.h</text>
</a>
</g>
</g>
<!-- Node7&#45;&gt;Node18 -->
<g id="edge44" class="edge">
<title>Node7&#45;&gt;Node18</title>
<path fill="none" stroke="#63b8ff" d="M673,-241.88C673,-220.8 673,-181 673,-156.95"/>
<polygon fill="#63b8ff" stroke="#63b8ff" points="676.5,-157.22 673,-147.22 669.5,-157.22 676.5,-157.22"/>
</g>
<!-- Node19 -->
<g id="node19" class="node">
<title>Node19</title>
<g id="a_node19"><a xlink:href="structured__domains_8h.html" target="_top" xlink:title="This module provides interfaces that deal with additional structured domains in the folding grammar.">
<polygon fill="white" stroke="#666666" points="406.5,-151 291.5,-151 291.5,-121 406.5,-121 406.5,-151"/>
<text text-anchor="start" x="299.5" y="-139" font-family="Helvetica,sans-Serif" font-size="10.00">ViennaRNA/structured</text>
<text text-anchor="middle" x="349" y="-128" font-family="Helvetica,sans-Serif" font-size="10.00">_domains.h</text>
</a>
</g>
</g>
<!-- Node7&#45;&gt;Node19 -->
<g id="edge45" class="edge">
<title>Node7&#45;&gt;Node19</title>
<path fill="none" stroke="#63b8ff" d="M605.8,-243.63C533.98,-230.27 429.26,-210.3 421,-206 399.56,-194.84 380.09,-175.33 366.82,-159.9"/>
<polygon fill="#63b8ff" stroke="#63b8ff" points="369.8,-158.01 360.72,-152.54 364.41,-162.48 369.8,-158.01"/>
</g>
<!-- Node20 -->
<g id="node20" class="node">
<title>Node20</title>
<g id="a_node20"><a xlink:href="unstructured__domains_8h.html" target="_top" xlink:title="Functions to modify unstructured domains, e.g. to incorporate ligands binding to unpaired stretches.">
<polygon fill="white" stroke="#666666" points="273.5,-151 148.5,-151 148.5,-121 273.5,-121 273.5,-151"/>
<text text-anchor="start" x="156.5" y="-139" font-family="Helvetica,sans-Serif" font-size="10.00">ViennaRNA/unstructured</text>
<text text-anchor="middle" x="211" y="-128" font-family="Helvetica,sans-Serif" font-size="10.00">_domains.h</text>
</a>
</g>
</g>
<!-- Node7&#45;&gt;Node20 -->
<g id="edge46" class="edge">
<title>Node7&#45;&gt;Node20</title>
<path fill="none" stroke="#63b8ff" d="M605.55,-245.17C599.59,-244.09 593.68,-243.02 588,-242 496.52,-225.58 471.59,-230.75 382,-206 333.97,-192.73 280.92,-171.56 246.71,-156.16"/>
<polygon fill="#63b8ff" stroke="#63b8ff" points="248.22,-153 237.67,-152.01 245.3,-159.37 248.22,-153"/>
</g>
<!-- Node21 -->
<g id="node21" class="node">
<title>Node21</title>
<g id="a_node21"><a xlink:href="utils_2structures_8h.html" target="_top" xlink:title="Various utility&#45; and helper&#45;functions for secondary structure parsing, converting,...">
<polygon fill="white" stroke="#666666" points="172,-79.5 28,-79.5 28,-60.5 172,-60.5 172,-79.5"/>
<text text-anchor="middle" x="100" y="-67.5" font-family="Helvetica,sans-Serif" font-size="10.00">ViennaRNA/utils/structures.h</text>
</a>
</g>
</g>
<!-- Node7&#45;&gt;Node21 -->
<g id="edge47" class="edge">
<title>Node7&#45;&gt;Node21</title>
<path fill="none" stroke="#63b8ff" d="M605.64,-244.58C599.67,-243.62 593.72,-242.74 588,-242 533.96,-235.05 137.25,-244.8 99,-206 68.87,-175.43 77.69,-119.68 88.48,-90.3"/>
<polygon fill="#63b8ff" stroke="#63b8ff" points="91.66,-91.76 92.36,-81.18 85.22,-89.01 91.66,-91.76"/>
</g>
<!-- Node9 -->
<g id="node9" class="node">
<title>Node9</title>
<g id="a_node9"><a xlink:title=" ">
<polygon fill="#e0e0e0" stroke="#999999" points="1182,-19 1134,-19 1134,0 1182,0 1182,-19"/>
<text text-anchor="middle" x="1158" y="-7" font-family="Helvetica,sans-Serif" font-size="10.00">limits.h</text>
</a>
</g>
</g>
<!-- Node8&#45;&gt;Node9 -->
<g id="edge8" class="edge">
<title>Node8&#45;&gt;Node9</title>
<path fill="none" stroke="#63b8ff" d="M1158,-60.37C1158,-52.5 1158,-40.6 1158,-30.39"/>
<polygon fill="#63b8ff" stroke="#63b8ff" points="1161.5,-30.68 1158,-20.68 1154.5,-30.68 1161.5,-30.68"/>
</g>
<!-- Node10&#45;&gt;Node11 -->
<g id="edge10" class="edge">
<title>Node10&#45;&gt;Node11</title>
<path fill="none" stroke="#63b8ff" d="M823.63,-186.54C809.47,-179 790.89,-166.91 780,-151 767.75,-133.12 763,-108.4 761.15,-91.19"/>
<polygon fill="#63b8ff" stroke="#63b8ff" points="764.65,-90.93 760.36,-81.24 757.67,-91.49 764.65,-90.93"/>
</g>
<!-- Node10&#45;&gt;Node12 -->
<g id="edge11" class="edge">
<title>Node10&#45;&gt;Node12</title>
<path fill="none" stroke="#63b8ff" d="M886.93,-186.55C941.49,-176.18 1034.86,-159.09 1097.77,-147.94"/>
<polygon fill="#63b8ff" stroke="#63b8ff" points="1098.03,-151.45 1107.27,-146.26 1096.81,-144.55 1098.03,-151.45"/>
</g>
<!-- Node13 -->
<g id="node13" class="node">
<title>Node13</title>
<g id="a_node13"><a xlink:href="sequence_8h.html" target="_top" xlink:title="Functions and data structures related to sequence representations ,.">
<polygon fill="white" stroke="#666666" points="1038,-145.5 916,-145.5 916,-126.5 1038,-126.5 1038,-145.5"/>
<text text-anchor="middle" x="977" y="-133.5" font-family="Helvetica,sans-Serif" font-size="10.00">ViennaRNA/sequence.h</text>
</a>
</g>
</g>
<!-- Node10&#45;&gt;Node13 -->
<g id="edge16" class="edge">
<title>Node10&#45;&gt;Node13</title>
<path fill="none" stroke="#63b8ff" d="M858.34,-186.62C878.44,-176.95 913.82,-161.4 940.81,-150.28"/>
<polygon fill="#63b8ff" stroke="#63b8ff" points="942.08,-153.55 950.03,-146.54 939.45,-147.06 942.08,-153.55"/>
</g>
<!-- Node10&#45;&gt;Node14 -->
<g id="edge18" class="edge">
<title>Node10&#45;&gt;Node14</title>
<path fill="none" stroke="#63b8ff" d="M790.1,-186.55C732.71,-176.23 641.73,-159.25 583.95,-148.1"/>
<polygon fill="#63b8ff" stroke="#63b8ff" points="584.82,-144.7 574.34,-146.24 583.49,-151.57 584.82,-144.7"/>
</g>
<!-- Node10&#45;&gt;Node15 -->
<g id="edge21" class="edge">
<title>Node10&#45;&gt;Node15</title>
<path fill="none" stroke="#63b8ff" d="M916.5,-188.63C994.91,-181.24 1122.45,-168.2 1232,-151 1234.31,-150.64 1236.66,-150.25 1239.04,-149.84"/>
<polygon fill="#63b8ff" stroke="#63b8ff" points="1239.57,-153.31 1248.79,-148.1 1238.34,-146.42 1239.57,-153.31"/>
</g>
<!-- Node10&#45;&gt;Node17 -->
<g id="edge25" class="edge">
<title>Node10&#45;&gt;Node17</title>
<path fill="none" stroke="#63b8ff" d="M916.2,-191.9C1018.27,-186.46 1208.72,-174.21 1370,-151 1372.02,-150.71 1374.06,-150.4 1376.13,-150.07"/>
<polygon fill="#63b8ff" stroke="#63b8ff" points="1376.55,-153.54 1385.81,-148.4 1375.36,-146.65 1376.55,-153.54"/>
</g>
<!-- Node10&#45;&gt;Node18 -->
<g id="edge29" class="edge">
<title>Node10&#45;&gt;Node18</title>
<path fill="none" stroke="#63b8ff" d="M812.17,-186.62C781.65,-176.82 735.39,-160.98 704.62,-149.84"/>
<polygon fill="#63b8ff" stroke="#63b8ff" points="706.05,-146.64 695.46,-146.49 703.64,-153.21 706.05,-146.64"/>
</g>
<!-- Node10&#45;&gt;Node19 -->
<g id="edge31" class="edge">
<title>Node10&#45;&gt;Node19</title>
<path fill="none" stroke="#63b8ff" d="M769.82,-187.54C691.6,-178.94 563.96,-164.62 454,-151 442.38,-149.56 430.05,-147.97 418.08,-146.4"/>
<polygon fill="#63b8ff" stroke="#63b8ff" points="418.62,-142.94 408.24,-145.09 417.7,-149.88 418.62,-142.94"/>
</g>
<!-- Node10&#45;&gt;Node20 -->
<g id="edge32" class="edge">
<title>Node10&#45;&gt;Node20</title>
<path fill="none" stroke="#63b8ff" d="M769.66,-192.66C663.13,-187.77 459.52,-175.95 284.97,-152.62"/>
<polygon fill="#63b8ff" stroke="#63b8ff" points="285.66,-149.19 275.28,-151.31 284.72,-156.12 285.66,-149.19"/>
</g>
<!-- Node22 -->
<g id="node22" class="node">
<title>Node22</title>
<g id="a_node22"><a xlink:href="zscore_8h_source.html" target="_top" xlink:title=" ">
<polygon fill="white" stroke="#666666" points="897.5,-145.5 788.5,-145.5 788.5,-126.5 897.5,-126.5 897.5,-145.5"/>
<text text-anchor="middle" x="843" y="-133.5" font-family="Helvetica,sans-Serif" font-size="10.00">ViennaRNA/zscore.h</text>
</a>
</g>
</g>
<!-- Node10&#45;&gt;Node22 -->
<g id="edge38" class="edge">
<title>Node10&#45;&gt;Node22</title>
<path fill="none" stroke="#63b8ff" d="M843,-186.87C843,-179 843,-167.1 843,-156.89"/>
<polygon fill="#63b8ff" stroke="#63b8ff" points="846.5,-157.18 843,-147.18 839.5,-157.18 846.5,-157.18"/>
</g>
<!-- Node12&#45;&gt;Node7 -->
<g id="edge13" class="edge">
<title>Node12&#45;&gt;Node7</title>
<path fill="none" stroke="#63b8ff" d="M1140.69,-145.97C1099.73,-159.96 1010.7,-187.31 934,-206 873.34,-220.78 803.67,-234.35 751.51,-243.61"/>
<polygon fill="#63b8ff" stroke="#63b8ff" points="751.06,-240.13 741.82,-245.31 752.27,-247.03 751.06,-240.13"/>
</g>
<!-- Node12&#45;&gt;Node8 -->
<g id="edge12" class="edge">
<title>Node12&#45;&gt;Node8</title>
<path fill="none" stroke="#63b8ff" d="M1162.3,-126.1C1161.6,-117.12 1160.5,-102.95 1159.58,-91.22"/>
<polygon fill="#63b8ff" stroke="#63b8ff" points="1163.08,-91.03 1158.81,-81.33 1156.1,-91.57 1163.08,-91.03"/>
</g>
<!-- Node12&#45;&gt;Node10 -->
<g id="edge14" class="edge">
<title>Node12&#45;&gt;Node10</title>
<path fill="none" stroke="#63b8ff" d="M1118.83,-146C1064.14,-156.39 970.77,-173.48 907.94,-184.61"/>
<polygon fill="#63b8ff" stroke="#63b8ff" points="907.7,-181.1 898.46,-186.29 908.92,-187.99 907.7,-181.1"/>
</g>
<!-- Node12&#45;&gt;Node11 -->
<g id="edge15" class="edge">
<title>Node12&#45;&gt;Node11</title>
<path fill="none" stroke="#63b8ff" d="M1106.54,-126.03C1032.31,-114.25 902.23,-93.59 824.3,-81.21"/>
<polygon fill="#63b8ff" stroke="#63b8ff" points="825.11,-77.8 814.68,-79.68 824.01,-84.71 825.11,-77.8"/>
</g>
<!-- Node13&#45;&gt;Node10 -->
<g id="edge17" class="edge">
<title>Node13&#45;&gt;Node10</title>
<path fill="none" stroke="#63b8ff" d="M961.48,-145.97C941.29,-155.67 905.9,-171.22 878.96,-182.31"/>
<polygon fill="#63b8ff" stroke="#63b8ff" points="877.71,-179.04 869.76,-186.05 880.35,-185.53 877.71,-179.04"/>
</g>
<!-- Node14&#45;&gt;Node7 -->
<g id="edge19" class="edge">
<title>Node14&#45;&gt;Node7</title>
<path fill="none" stroke="#63b8ff" d="M544.56,-145.97C570.2,-164.54 622.5,-207.62 651.98,-234.03"/>
<polygon fill="#63b8ff" stroke="#63b8ff" points="649.47,-236.48 659.22,-240.63 654.18,-231.3 649.47,-236.48"/>
</g>
<!-- Node14&#45;&gt;Node10 -->
<g id="edge20" class="edge">
<title>Node14&#45;&gt;Node10</title>
<path fill="none" stroke="#63b8ff" d="M583.16,-146C640.57,-156.32 731.36,-173.27 789.06,-184.41"/>
<polygon fill="#63b8ff" stroke="#63b8ff" points="788.17,-187.8 798.66,-186.26 789.51,-180.93 788.17,-187.8"/>
</g>
<!-- Node15&#45;&gt;Node10 -->
<g id="edge22" class="edge">
<title>Node15&#45;&gt;Node10</title>
<path fill="none" stroke="#63b8ff" d="M1249.66,-151.05C1139.03,-168.41 1010.14,-181.53 927.55,-188.86"/>
<polygon fill="#63b8ff" stroke="#63b8ff" points="927.37,-185.36 917.72,-189.73 927.99,-192.34 927.37,-185.36"/>
</g>
<!-- Node16 -->
<g id="node16" class="node">
<title>Node16</title>
<g id="a_node16"><a xlink:href="constraints_2basic_8h.html" target="_top" xlink:title="Functions and data structures for constraining secondary structure predictions and evaluation.">
<polygon fill="white" stroke="#666666" points="1374.5,-85 1255.5,-85 1255.5,-55 1374.5,-55 1374.5,-85"/>
<text text-anchor="start" x="1263.5" y="-73" font-family="Helvetica,sans-Serif" font-size="10.00">ViennaRNA/constraints</text>
<text text-anchor="middle" x="1315" y="-62" font-family="Helvetica,sans-Serif" font-size="10.00">/basic.h</text>
</a>
</g>
</g>
<!-- Node15&#45;&gt;Node16 -->
<g id="edge23" class="edge">
<title>Node15&#45;&gt;Node16</title>
<path fill="none" stroke="#63b8ff" d="M1311.11,-120.8C1311.67,-113.67 1312.36,-104.82 1313,-96.56"/>
<polygon fill="#63b8ff" stroke="#63b8ff" points="1316.49,-96.92 1313.78,-86.67 1309.51,-96.37 1316.49,-96.92"/>
</g>
<!-- Node16&#45;&gt;Node10 -->
<g id="edge24" class="edge">
<title>Node16&#45;&gt;Node10</title>
<path fill="none" stroke="#63b8ff" d="M1255.19,-83.3C1189.68,-96.89 1092.77,-117.33 1085,-121 1065.54,-130.19 1066.45,-141.8 1047,-151 1009.71,-168.62 965.28,-179.37 927.41,-185.87"/>
<polygon fill="#63b8ff" stroke="#63b8ff" points="927.2,-182.36 917.9,-187.43 928.33,-189.27 927.2,-182.36"/>
</g>
<!-- Node17&#45;&gt;Node7 -->
<g id="edge26" class="edge">
<title>Node17&#45;&gt;Node7</title>
<path fill="none" stroke="#63b8ff" d="M1387.31,-151.13C1157.4,-193.34 883.2,-230.31 751.32,-246.82"/>
<polygon fill="#63b8ff" stroke="#63b8ff" points="751.15,-243.31 741.66,-248.03 752.02,-250.26 751.15,-243.31"/>
</g>
<!-- Node17&#45;&gt;Node10 -->
<g id="edge27" class="edge">
<title>Node17&#45;&gt;Node10</title>
<path fill="none" stroke="#63b8ff" d="M1387.02,-151.14C1225.59,-174.31 1035.2,-186.52 927.77,-191.94"/>
<polygon fill="#63b8ff" stroke="#63b8ff" points="927.69,-188.43 917.88,-192.43 928.04,-195.43 927.69,-188.43"/>
</g>
<!-- Node17&#45;&gt;Node16 -->
<g id="edge28" class="edge">
<title>Node17&#45;&gt;Node16</title>
<path fill="none" stroke="#63b8ff" d="M1417.38,-120.64C1398.86,-111.66 1374.8,-99.99 1354.65,-90.23"/>
<polygon fill="#63b8ff" stroke="#63b8ff" points="1356.41,-87.19 1345.89,-85.98 1353.36,-93.49 1356.41,-87.19"/>
</g>
<!-- Node18&#45;&gt;Node10 -->
<g id="edge30" class="edge">
<title>Node18&#45;&gt;Node10</title>
<path fill="none" stroke="#63b8ff" d="M704.09,-145.97C734.7,-155.8 780.96,-171.64 811.65,-182.75"/>
<polygon fill="#63b8ff" stroke="#63b8ff" points="810.18,-185.94 820.77,-186.09 812.58,-179.37 810.18,-185.94"/>
</g>
<!-- Node20&#45;&gt;Node7 -->
<g id="edge33" class="edge">
<title>Node20&#45;&gt;Node7</title>
<path fill="none" stroke="#63b8ff" d="M249.48,-151.38C287.38,-166.88 346.77,-191.3 400,-206 485.74,-229.69 512.26,-225.97 594.58,-240"/>
<polygon fill="#63b8ff" stroke="#63b8ff" points="593.79,-243.42 604.24,-241.69 594.99,-236.52 593.79,-243.42"/>
</g>
<!-- Node20&#45;&gt;Node10 -->
<g id="edge34" class="edge">
<title>Node20&#45;&gt;Node10</title>
<path fill="none" stroke="#63b8ff" d="M273.73,-148.28C279.57,-149.3 285.4,-150.23 291,-151 455.99,-173.73 650,-185.92 758.57,-191.53"/>
<polygon fill="#63b8ff" stroke="#63b8ff" points="758.09,-195.01 768.26,-192.02 758.45,-188.02 758.09,-195.01"/>
</g>
<!-- Node20&#45;&gt;Node21 -->
<g id="edge35" class="edge">
<title>Node20&#45;&gt;Node21</title>
<path fill="none" stroke="#63b8ff" d="M186.09,-120.64C168.03,-110.22 143.68,-96.19 125.49,-85.7"/>
<polygon fill="#63b8ff" stroke="#63b8ff" points="127.31,-82.7 116.9,-80.74 123.81,-88.77 127.31,-82.7"/>
</g>
<!-- Node21&#45;&gt;Node5 -->
<g id="edge36" class="edge">
<title>Node21&#45;&gt;Node5</title>
<path fill="none" stroke="#63b8ff" d="M92.62,-60.37C85.31,-51.81 73.91,-38.47 64.74,-27.74"/>
<polygon fill="#63b8ff" stroke="#63b8ff" points="67.55,-25.65 58.39,-20.32 62.23,-30.19 67.55,-25.65"/>
</g>
<!-- Node21&#45;&gt;Node7 -->
<g id="edge37" class="edge">
<title>Node21&#45;&gt;Node7</title>
<path fill="none" stroke="#63b8ff" d="M101.29,-79.79C98.86,-103.84 82.72,-171.22 117,-206 153.2,-242.72 510.46,-235.96 594.46,-241.02"/>
<polygon fill="#63b8ff" stroke="#63b8ff" points="593.91,-244.48 604.17,-241.83 594.5,-237.51 593.91,-244.48"/>
</g>
<!-- Node23&#45;&gt;Node8 -->
<g id="edge49" class="edge">
<title>Node23&#45;&gt;Node8</title>
<path fill="none" stroke="#63b8ff" d="M1515.06,-186.89C1521.61,-171.59 1532.22,-139.54 1516,-121 1476.28,-75.61 1306.68,-93.69 1247,-85 1239.81,-83.95 1232.29,-82.82 1224.8,-81.68"/>
<polygon fill="#63b8ff" stroke="#63b8ff" points="1225.43,-78.23 1215.01,-80.17 1224.36,-85.15 1225.43,-78.23"/>
</g>
<!-- Node24&#45;&gt;Node3 -->
<g id="edge56" class="edge">
<title>Node24&#45;&gt;Node3</title>
<path fill="none" stroke="#63b8ff" d="M655.36,-362.51C639.27,-354.31 615.25,-342.07 596.63,-332.58"/>
<polygon fill="#63b8ff" stroke="#63b8ff" points="598.23,-329.47 587.73,-328.05 595.05,-335.7 598.23,-329.47"/>
</g>
<!-- Node24&#45;&gt;Node4 -->
<g id="edge57" class="edge">
<title>Node24&#45;&gt;Node4</title>
<path fill="none" stroke="#63b8ff" d="M673,-362.75C673,-356.27 673,-347.16 673,-338.9"/>
<polygon fill="#63b8ff" stroke="#63b8ff" points="676.5,-338.96 673,-328.96 669.5,-338.96 676.5,-338.96"/>
</g>
</g>
</svg>
        <g id="navigator" transform="translate(0 0)" fill="#404254">
                <rect fill="#f2f5e9" fill-opacity="0.5" stroke="#606060" stroke-width=".5" x="0" y="0" width="60" height="60"/>
                <use id="zoomplus" xlink:href="#zoomPlus" x="17" y="9" onmousedown="handleZoom(evt,'in')"/>
                <use id="zoomminus" xlink:href="#zoomMin" x="42" y="9" onmousedown="handleZoom(evt,'out')"/>
                <use id="reset" xlink:href="#resetDef" x="30" y="36" onmousedown="handleReset()"/>
                <g id="arrowUp" xlink:href="#dirArrow" transform="translate(30 24)" onmousedown="handlePan(0,-1)">
                  <use xlink:href="#rim" fill="#404040">
                        <set attributeName="fill" to="#808080" begin="arrowUp.mouseover" end="arrowUp.mouseout"/>
                  </use>
                  <path fill="none" stroke="white" stroke-width="1.5" d="M0,-3.0v7 M-2.5,-0.5L0,-3.0L2.5,-0.5"/>
                </g>
                <g id="arrowRight" xlink:href="#dirArrow" transform="rotate(90) translate(36 -43)" onmousedown="handlePan(1,0)">
                  <use xlink:href="#rim" fill="#404040">
                        <set attributeName="fill" to="#808080" begin="arrowRight.mouseover" end="arrowRight.mouseout"/>
                  </use>
                  <path fill="none" stroke="white" stroke-width="1.5" d="M0,-3.0v7 M-2.5,-0.5L0,-3.0L2.5,-0.5"/>
                </g>
                <g id="arrowDown" xlink:href="#dirArrow" transform="rotate(180) translate(-30 -48)" onmousedown="handlePan(0,1)">
                  <use xlink:href="#rim" fill="#404040">
                        <set attributeName="fill" to="#808080" begin="arrowDown.mouseover" end="arrowDown.mouseout"/>
                  </use>
                  <path fill="none" stroke="white" stroke-width="1.5" d="M0,-3.0v7 M-2.5,-0.5L0,-3.0L2.5,-0.5"/>
                </g>
                <g id="arrowLeft" xlink:href="#dirArrow" transform="rotate(270) translate(-36 17)" onmousedown="handlePan(-1,0)">
                  <use xlink:href="#rim" fill="#404040">
                        <set attributeName="fill" to="#808080" begin="arrowLeft.mouseover" end="arrowLeft.mouseout"/>
                  </use>
                  <path fill="none" stroke="white" stroke-width="1.5" d="M0,-3.0v7 M-2.5,-0.5L0,-3.0L2.5,-0.5"/>
                </g>
        </g>
        <svg viewBox="0 0 15 15" width="100%" height="30px" preserveAspectRatio="xMaxYMin meet">
         <g id="arrow_out" transform="scale(0.3 0.3)">
          <a xlink:href="interior__loops_8h__incl_org.svg" target="_base">
           <rect id="button" ry="5" rx="5" y="6" x="6" height="38" width="38"
                fill="#f2f5e9" fill-opacity="0.5" stroke="#606060" stroke-width="1.0"/>
           <path id="arrow"
             d="M 11.500037,31.436501 C 11.940474,20.09759 22.043105,11.32322 32.158766,21.979434 L 37.068811,17.246167 C 37.068811,17.246167 37.088388,32 37.088388,32 L 22.160133,31.978069 C 22.160133,31.978069 26.997745,27.140456 26.997745,27.140456 C 18.528582,18.264221 13.291696,25.230495 11.500037,31.436501 z"
             style="fill:#404040;"/>
          </a>
         </g>
        </svg>
</svg>
