<?xml version="1.0" encoding="UTF-8" standalone="no"?>
<!DOCTYPE svg PUBLIC "-//W3C//DTD SVG 1.1//EN"
 "http://www.w3.org/Graphics/SVG/1.1/DTD/svg11.dtd">
<!-- Generated by graphviz version 7.1.0 (0)
 -->
<!-- Title: ViennaRNA/loops/internal.h Pages: 1 -->
<svg width="256pt" height="148pt"
 viewBox="0.00 0.00 255.50 148.00" xmlns="http://www.w3.org/2000/svg" xmlns:xlink="http://www.w3.org/1999/xlink">
<g id="graph0" class="graph" transform="scale(1 1) rotate(0) translate(4 144)">
<title>ViennaRNA/loops/internal.h</title>
<!-- Node1 -->
<g id="node1" class="node">
<title>Node1</title>
<g id="a_node1"><a xlink:title="Energy evaluation of interior loops for MFE and partition function calculations.">
<polygon fill="#999999" stroke="#666666" points="182,-140 45,-140 45,-121 182,-121 182,-140"/>
<text text-anchor="middle" x="113.5" y="-128" font-family="Helvetica,sans-Serif" font-size="10.00">ViennaRNA/loops/internal.h</text>
</a>
</g>
</g>
<!-- Node2 -->
<g id="node2" class="node">
<title>Node2</title>
<g id="a_node2"><a xlink:href="interior__loops_8h.html" target="_top" xlink:title="Use ViennaRNA/loops/internal.h instead.">
<polygon fill="white" stroke="#666666" points="101,-85 0,-85 0,-55 101,-55 101,-85"/>
<text text-anchor="start" x="8" y="-73" font-family="Helvetica,sans-Serif" font-size="10.00">ViennaRNA/interior</text>
<text text-anchor="middle" x="50.5" y="-62" font-family="Helvetica,sans-Serif" font-size="10.00">_loops.h</text>
</a>
</g>
</g>
<!-- Node1&#45;&gt;Node2 -->
<g id="edge1" class="edge">
<title>Node1&#45;&gt;Node2</title>
<path fill="none" stroke="#63b8ff" d="M95.73,-113C86.39,-104.32 75.04,-93.79 66.05,-85.44"/>
<polygon fill="#63b8ff" stroke="#63b8ff" points="93.11,-115.35 102.82,-119.59 97.88,-110.22 93.11,-115.35"/>
</g>
<!-- Node3 -->
<g id="node3" class="node">
<title>Node3</title>
<g id="a_node3"><a xlink:href="all_8h.html" target="_top" xlink:title="Energy evaluation for MFE and partition function calculations.">
<polygon fill="white" stroke="#666666" points="235.5,-79.5 119.5,-79.5 119.5,-60.5 235.5,-60.5 235.5,-79.5"/>
<text text-anchor="middle" x="177.5" y="-67.5" font-family="Helvetica,sans-Serif" font-size="10.00">ViennaRNA/loops/all.h</text>
</a>
</g>
</g>
<!-- Node1&#45;&gt;Node3 -->
<g id="edge2" class="edge">
<title>Node1&#45;&gt;Node3</title>
<path fill="none" stroke="#63b8ff" d="M131.44,-113.1C143.18,-102.37 158.07,-88.76 167.69,-79.97"/>
<polygon fill="#63b8ff" stroke="#63b8ff" points="129.36,-110.26 124.34,-119.59 134.08,-115.43 129.36,-110.26"/>
</g>
<!-- Node4 -->
<g id="node4" class="node">
<title>Node4</title>
<g id="a_node4"><a xlink:href="loop__energies_8h.html" target="_top" xlink:title="Use ViennaRNA/loops/all.h instead.">
<polygon fill="white" stroke="#666666" points="247.5,-19 107.5,-19 107.5,0 247.5,0 247.5,-19"/>
<text text-anchor="middle" x="177.5" y="-7" font-family="Helvetica,sans-Serif" font-size="10.00">ViennaRNA/loop_energies.h</text>
</a>
</g>
</g>
<!-- Node3&#45;&gt;Node4 -->
<g id="edge3" class="edge">
<title>Node3&#45;&gt;Node4</title>
<path fill="none" stroke="#63b8ff" d="M177.5,-49.16C177.5,-38.95 177.5,-27.04 177.5,-19.17"/>
<polygon fill="#63b8ff" stroke="#63b8ff" points="174,-48.85 177.5,-58.85 181,-48.85 174,-48.85"/>
</g>
</g>
</svg>
