<?xml version="1.0" encoding="UTF-8" standalone="no"?>
<!DOCTYPE svg PUBLIC "-//W3C//DTD SVG 1.1//EN"
 "http://www.w3.org/Graphics/SVG/1.1/DTD/svg11.dtd">
<!-- Generated by graphviz version 7.1.0 (0)
 -->
<!-- Title: ViennaRNA/io/utils.h Pages: 1 -->
<svg width="240pt" height="82pt"
 viewBox="0.00 0.00 240.00 82.00" xmlns="http://www.w3.org/2000/svg" xmlns:xlink="http://www.w3.org/1999/xlink">
<g id="graph0" class="graph" transform="scale(1 1) rotate(0) translate(4 78)">
<title>ViennaRNA/io/utils.h</title>
<!-- Node1 -->
<g id="node1" class="node">
<title>Node1</title>
<g id="a_node1"><a xlink:title="Several utilities for file handling.">
<polygon fill="#999999" stroke="#666666" points="174,-74 66,-74 66,-55 174,-55 174,-74"/>
<text text-anchor="middle" x="120" y="-62" font-family="Helvetica,sans-Serif" font-size="10.00">ViennaRNA/io/utils.h</text>
</a>
</g>
</g>
<!-- Node2 -->
<g id="node2" class="node">
<title>Node2</title>
<g id="a_node2"><a xlink:href="file__utils_8h.html" target="_top" xlink:title="Use ViennaRNA/io/utils.h instead.">
<polygon fill="white" stroke="#666666" points="116,-19 0,-19 0,0 116,0 116,-19"/>
<text text-anchor="middle" x="58" y="-7" font-family="Helvetica,sans-Serif" font-size="10.00">ViennaRNA/file_utils.h</text>
</a>
</g>
</g>
<!-- Node1&#45;&gt;Node2 -->
<g id="edge1" class="edge">
<title>Node1&#45;&gt;Node2</title>
<path fill="none" stroke="#63b8ff" d="M100.8,-47.09C90.1,-37.94 77.19,-26.9 68.36,-19.36"/>
<polygon fill="#63b8ff" stroke="#63b8ff" points="98.46,-49.69 108.33,-53.53 103.01,-44.37 98.46,-49.69"/>
</g>
<!-- Node3 -->
<g id="node3" class="node">
<title>Node3</title>
<g id="a_node3"><a xlink:href="utils_8h.html" target="_top" xlink:title="Use ViennaRNA/utils/basic.h instead.">
<polygon fill="white" stroke="#666666" points="232,-19 134,-19 134,0 232,0 232,-19"/>
<text text-anchor="middle" x="183" y="-7" font-family="Helvetica,sans-Serif" font-size="10.00">ViennaRNA/utils.h</text>
</a>
</g>
</g>
<!-- Node1&#45;&gt;Node3 -->
<g id="edge2" class="edge">
<title>Node1&#45;&gt;Node3</title>
<path fill="none" stroke="#63b8ff" d="M139.18,-47.37C150.12,-38.16 163.41,-26.98 172.47,-19.36"/>
<polygon fill="#63b8ff" stroke="#63b8ff" points="137.24,-44.42 131.85,-53.53 141.75,-49.78 137.24,-44.42"/>
</g>
</g>
</svg>
