<?xml version="1.0" encoding="UTF-8" standalone="no"?>
<!DOCTYPE svg PUBLIC "-//W3C//DTD SVG 1.1//EN"
 "http://www.w3.org/Graphics/SVG/1.1/DTD/svg11.dtd">
<!-- Generated by graphviz version 7.1.0 (0)
 -->
<!-- Title: ViennaRNA/io/file_formats_msa.h Pages: 1 -->
<svg width="280pt" height="104pt"
 viewBox="0.00 0.00 279.50 104.00" xmlns="http://www.w3.org/2000/svg" xmlns:xlink="http://www.w3.org/1999/xlink">
<g id="graph0" class="graph" transform="scale(1 1) rotate(0) translate(4 100)">
<title>ViennaRNA/io/file_formats_msa.h</title>
<!-- Node1 -->
<g id="node1" class="node">
<title>Node1</title>
<g id="a_node1"><a xlink:title="Functions dealing with file formats for Multiple Sequence Alignments (MSA)">
<polygon fill="#999999" stroke="#666666" points="204,-96 71,-96 71,-66 204,-66 204,-96"/>
<text text-anchor="start" x="79" y="-84" font-family="Helvetica,sans-Serif" font-size="10.00">ViennaRNA/io/file_formats</text>
<text text-anchor="middle" x="137.5" y="-73" font-family="Helvetica,sans-Serif" font-size="10.00">_msa.h</text>
</a>
</g>
</g>
<!-- Node2 -->
<g id="node2" class="node">
<title>Node2</title>
<g id="a_node2"><a xlink:href="file__formats_8h.html" target="_top" xlink:title="Use ViennaRNA/io/file_formats.h instead.">
<polygon fill="white" stroke="#666666" points="131,-24.5 0,-24.5 0,-5.5 131,-5.5 131,-24.5"/>
<text text-anchor="middle" x="65.5" y="-12.5" font-family="Helvetica,sans-Serif" font-size="10.00">ViennaRNA/file_formats.h</text>
</a>
</g>
</g>
<!-- Node1&#45;&gt;Node2 -->
<g id="edge1" class="edge">
<title>Node1&#45;&gt;Node2</title>
<path fill="none" stroke="#63b8ff" d="M113.06,-58.27C100.19,-46.84 85.12,-33.44 75.45,-24.84"/>
<polygon fill="#63b8ff" stroke="#63b8ff" points="110.59,-60.76 120.39,-64.79 115.24,-55.53 110.59,-60.76"/>
</g>
<!-- Node3 -->
<g id="node3" class="node">
<title>Node3</title>
<g id="a_node3"><a xlink:href="file__formats__msa_8h.html" target="_top" xlink:title="Use ViennaRNA/io/file_formats_msa.h instead.">
<polygon fill="white" stroke="#666666" points="271.5,-30 149.5,-30 149.5,0 271.5,0 271.5,-30"/>
<text text-anchor="start" x="157.5" y="-18" font-family="Helvetica,sans-Serif" font-size="10.00">ViennaRNA/file_formats</text>
<text text-anchor="middle" x="210.5" y="-7" font-family="Helvetica,sans-Serif" font-size="10.00">_msa.h</text>
</a>
</g>
</g>
<!-- Node1&#45;&gt;Node3 -->
<g id="edge2" class="edge">
<title>Node1&#45;&gt;Node3</title>
<path fill="none" stroke="#63b8ff" d="M162.11,-58.42C172.65,-49.18 184.67,-38.65 194.09,-30.39"/>
<polygon fill="#63b8ff" stroke="#63b8ff" points="160.05,-55.57 154.84,-64.8 164.67,-60.84 160.05,-55.57"/>
</g>
</g>
</svg>
