<?xml version="1.0" encoding="UTF-8" standalone="no"?>
<!DOCTYPE svg PUBLIC "-//W3C//DTD SVG 1.1//EN"
 "http://www.w3.org/Graphics/SVG/1.1/DTD/svg11.dtd">
<!-- Generated by graphviz version 7.1.0 (0)
 -->
<!-- Title: ViennaRNA/landscape/walk.h Pages: 1 -->
<svg width="1368pt" height="412pt"
 viewBox="0.00 0.00 1367.50 412.00" xmlns="http://www.w3.org/2000/svg" xmlns:xlink="http://www.w3.org/1999/xlink">
<g id="graph0" class="graph" transform="scale(1 1) rotate(0) translate(4 408)">
<title>ViennaRNA/landscape/walk.h</title>
<!-- Node1 -->
<g id="node1" class="node">
<title>Node1</title>
<g id="a_node1"><a xlink:title="Methods to generate particular paths such as gradient or random walks through the energy landscape of...">
<polygon fill="#999999" stroke="#666666" points="903,-404 787,-404 787,-374 903,-374 903,-404"/>
<text text-anchor="start" x="795" y="-392" font-family="Helvetica,sans-Serif" font-size="10.00">ViennaRNA/landscape</text>
<text text-anchor="middle" x="845" y="-381" font-family="Helvetica,sans-Serif" font-size="10.00">/walk.h</text>
</a>
</g>
</g>
<!-- Node2 -->
<g id="node2" class="node">
<title>Node2</title>
<g id="a_node2"><a xlink:href="fold__compound_8h.html" target="_top" xlink:title="The Basic Fold Compound API.">
<polygon fill="white" stroke="#666666" points="844,-332.5 698,-332.5 698,-313.5 844,-313.5 844,-332.5"/>
<text text-anchor="middle" x="771" y="-320.5" font-family="Helvetica,sans-Serif" font-size="10.00">ViennaRNA/fold_compound.h</text>
</a>
</g>
</g>
<!-- Node1&#45;&gt;Node2 -->
<g id="edge1" class="edge">
<title>Node1&#45;&gt;Node2</title>
<path fill="none" stroke="#63b8ff" d="M828.58,-373.8C817.04,-363.82 801.59,-350.46 789.6,-340.09"/>
<polygon fill="#63b8ff" stroke="#63b8ff" points="792.22,-337.73 782.37,-333.83 787.65,-343.02 792.22,-337.73"/>
</g>
<!-- Node19 -->
<g id="node19" class="node">
<title>Node19</title>
<g id="a_node19"><a xlink:href="move_8h.html" target="_top" xlink:title="Methods to operate with structural neighbors of RNA secondary structures.">
<polygon fill="white" stroke="#666666" points="978,-338 862,-338 862,-308 978,-308 978,-338"/>
<text text-anchor="start" x="870" y="-326" font-family="Helvetica,sans-Serif" font-size="10.00">ViennaRNA/landscape</text>
<text text-anchor="middle" x="920" y="-315" font-family="Helvetica,sans-Serif" font-size="10.00">/move.h</text>
</a>
</g>
</g>
<!-- Node1&#45;&gt;Node19 -->
<g id="edge43" class="edge">
<title>Node1&#45;&gt;Node19</title>
<path fill="none" stroke="#63b8ff" d="M861.64,-373.8C871.29,-365.57 883.63,-355.04 894.47,-345.78"/>
<polygon fill="#63b8ff" stroke="#63b8ff" points="896.66,-348.52 901.99,-339.37 892.11,-343.2 896.66,-348.52"/>
</g>
<!-- Node3 -->
<g id="node3" class="node">
<title>Node3</title>
<g id="a_node3"><a xlink:href="model_8h.html" target="_top" xlink:title="The model details data structure and its corresponding modifiers.">
<polygon fill="white" stroke="#666666" points="106,-145.5 0,-145.5 0,-126.5 106,-126.5 106,-145.5"/>
<text text-anchor="middle" x="53" y="-133.5" font-family="Helvetica,sans-Serif" font-size="10.00">ViennaRNA/model.h</text>
</a>
</g>
</g>
<!-- Node2&#45;&gt;Node3 -->
<g id="edge2" class="edge">
<title>Node2&#45;&gt;Node3</title>
<path fill="none" stroke="#63b8ff" d="M697.79,-315.2C629.18,-307.87 524.14,-294.17 435,-272 301.11,-238.71 148.13,-177.18 83.92,-150.23"/>
<polygon fill="#63b8ff" stroke="#63b8ff" points="85.65,-147.16 75.08,-146.5 82.93,-153.61 85.65,-147.16"/>
</g>
<!-- Node4 -->
<g id="node4" class="node">
<title>Node4</title>
<g id="a_node4"><a xlink:href="params_2basic_8h.html" target="_top" xlink:title="Functions to deal with sets of energy parameters.">
<polygon fill="white" stroke="#666666" points="640,-272 502,-272 502,-253 640,-253 640,-272"/>
<text text-anchor="middle" x="571" y="-260" font-family="Helvetica,sans-Serif" font-size="10.00">ViennaRNA/params/basic.h</text>
</a>
</g>
</g>
<!-- Node2&#45;&gt;Node4 -->
<g id="edge3" class="edge">
<title>Node2&#45;&gt;Node4</title>
<path fill="none" stroke="#63b8ff" d="M735.61,-313.12C699.45,-303.15 643.78,-286.93 607.3,-275.76"/>
<polygon fill="#63b8ff" stroke="#63b8ff" points="608.67,-272.52 598.08,-272.91 606.6,-279.21 608.67,-272.52"/>
</g>
<!-- Node8 -->
<g id="node8" class="node">
<title>Node8</title>
<g id="a_node8"><a xlink:href="dp__matrices_8h.html" target="_top" xlink:title="Functions to deal with standard dynamic programming (DP) matrices.">
<polygon fill="white" stroke="#666666" points="257.5,-145.5 124.5,-145.5 124.5,-126.5 257.5,-126.5 257.5,-145.5"/>
<text text-anchor="middle" x="191" y="-133.5" font-family="Helvetica,sans-Serif" font-size="10.00">ViennaRNA/dp_matrices.h</text>
</a>
</g>
</g>
<!-- Node2&#45;&gt;Node8 -->
<g id="edge36" class="edge">
<title>Node2&#45;&gt;Node8</title>
<path fill="none" stroke="#63b8ff" d="M697.62,-314.68C638.76,-307.3 554.76,-293.82 484,-272 378.35,-239.42 260.82,-179.5 212.85,-151.78"/>
<polygon fill="#63b8ff" stroke="#63b8ff" points="214.63,-148.77 204.24,-146.69 211.07,-154.79 214.63,-148.77"/>
</g>
<!-- Node9 -->
<g id="node9" class="node">
<title>Node9</title>
<g id="a_node9"><a xlink:href="hard_8h.html" target="_top" xlink:title="Functions and data structures for handling of secondary structure hard constraints.">
<polygon fill="white" stroke="#666666" points="1214.5,-151 1095.5,-151 1095.5,-121 1214.5,-121 1214.5,-151"/>
<text text-anchor="start" x="1103.5" y="-139" font-family="Helvetica,sans-Serif" font-size="10.00">ViennaRNA/constraints</text>
<text text-anchor="middle" x="1155" y="-128" font-family="Helvetica,sans-Serif" font-size="10.00">/hard.h</text>
</a>
</g>
</g>
<!-- Node2&#45;&gt;Node9 -->
<g id="edge37" class="edge">
<title>Node2&#45;&gt;Node9</title>
<path fill="none" stroke="#63b8ff" d="M816.09,-313.01C889.37,-299.37 1026.27,-274.74 1031,-272 1077.89,-244.87 1114.65,-191.26 1135.98,-160.38"/>
<polygon fill="#63b8ff" stroke="#63b8ff" points="1138.65,-162.67 1141.49,-152.46 1132.9,-158.67 1138.65,-162.67"/>
</g>
<!-- Node11 -->
<g id="node11" class="node">
<title>Node11</title>
<g id="a_node11"><a xlink:href="soft_8h.html" target="_top" xlink:title="Functions and data structures for secondary structure soft constraints.">
<polygon fill="white" stroke="#666666" points="770.5,-151 651.5,-151 651.5,-121 770.5,-121 770.5,-151"/>
<text text-anchor="start" x="659.5" y="-139" font-family="Helvetica,sans-Serif" font-size="10.00">ViennaRNA/constraints</text>
<text text-anchor="middle" x="711" y="-128" font-family="Helvetica,sans-Serif" font-size="10.00">/soft.h</text>
</a>
</g>
</g>
<!-- Node2&#45;&gt;Node11 -->
<g id="edge38" class="edge">
<title>Node2&#45;&gt;Node11</title>
<path fill="none" stroke="#63b8ff" d="M765.21,-313.24C757.14,-291.39 746.68,-232.93 729,-187 725.72,-178.49 721.29,-169.61 717.39,-161.73"/>
<polygon fill="#63b8ff" stroke="#63b8ff" points="720.57,-160.25 713.07,-152.77 714.26,-163.3 720.57,-160.25"/>
</g>
<!-- Node12 -->
<g id="node12" class="node">
<title>Node12</title>
<g id="a_node12"><a xlink:href="grammar_8h.html" target="_top" xlink:title="Implementations for the RNA folding grammar.">
<polygon fill="white" stroke="#666666" points="905.5,-145.5 788.5,-145.5 788.5,-126.5 905.5,-126.5 905.5,-145.5"/>
<text text-anchor="middle" x="847" y="-133.5" font-family="Helvetica,sans-Serif" font-size="10.00">ViennaRNA/grammar.h</text>
</a>
</g>
</g>
<!-- Node2&#45;&gt;Node12 -->
<g id="edge39" class="edge">
<title>Node2&#45;&gt;Node12</title>
<path fill="none" stroke="#63b8ff" d="M771.56,-313.08C778.85,-284.57 815.15,-195.24 834.94,-155.91"/>
<polygon fill="#63b8ff" stroke="#63b8ff" points="837.98,-157.65 839.57,-147.17 831.8,-154.37 837.98,-157.65"/>
</g>
<!-- Node13 -->
<g id="node13" class="node">
<title>Node13</title>
<g id="a_node13"><a xlink:href="structured__domains_8h.html" target="_top" xlink:title="This module provides interfaces that deal with additional structured domains in the folding grammar.">
<polygon fill="white" stroke="#666666" points="1038.5,-151 923.5,-151 923.5,-121 1038.5,-121 1038.5,-151"/>
<text text-anchor="start" x="931.5" y="-139" font-family="Helvetica,sans-Serif" font-size="10.00">ViennaRNA/structured</text>
<text text-anchor="middle" x="981" y="-128" font-family="Helvetica,sans-Serif" font-size="10.00">_domains.h</text>
</a>
</g>
</g>
<!-- Node2&#45;&gt;Node13 -->
<g id="edge40" class="edge">
<title>Node2&#45;&gt;Node13</title>
<path fill="none" stroke="#63b8ff" d="M781.13,-313.08C812.7,-285.27 909.95,-199.59 956.14,-158.9"/>
<polygon fill="#63b8ff" stroke="#63b8ff" points="958.34,-161.63 963.53,-152.39 953.71,-156.37 958.34,-161.63"/>
</g>
<!-- Node14 -->
<g id="node14" class="node">
<title>Node14</title>
<g id="a_node14"><a xlink:href="unstructured__domains_8h.html" target="_top" xlink:title="Functions to modify unstructured domains, e.g. to incorporate ligands binding to unpaired stretches.">
<polygon fill="white" stroke="#666666" points="633.5,-151 508.5,-151 508.5,-121 633.5,-121 633.5,-151"/>
<text text-anchor="start" x="516.5" y="-139" font-family="Helvetica,sans-Serif" font-size="10.00">ViennaRNA/unstructured</text>
<text text-anchor="middle" x="571" y="-128" font-family="Helvetica,sans-Serif" font-size="10.00">_domains.h</text>
</a>
</g>
</g>
<!-- Node2&#45;&gt;Node14 -->
<g id="edge41" class="edge">
<title>Node2&#45;&gt;Node14</title>
<path fill="none" stroke="#63b8ff" d="M759.73,-313.09C737.31,-290.41 687.69,-229.27 638,-187 625.47,-176.34 610.56,-166.08 597.88,-157.65"/>
<polygon fill="#63b8ff" stroke="#63b8ff" points="599.81,-154.74 589.54,-152.15 595.96,-160.58 599.81,-154.74"/>
</g>
<!-- Node17 -->
<g id="node17" class="node">
<title>Node17</title>
<g id="a_node17"><a xlink:href="sequence_8h.html" target="_top" xlink:title="Functions and data structures related to sequence representations ,.">
<polygon fill="white" stroke="#666666" points="1232,-272 1110,-272 1110,-253 1232,-253 1232,-272"/>
<text text-anchor="middle" x="1171" y="-260" font-family="Helvetica,sans-Serif" font-size="10.00">ViennaRNA/sequence.h</text>
</a>
</g>
</g>
<!-- Node2&#45;&gt;Node17 -->
<g id="edge34" class="edge">
<title>Node2&#45;&gt;Node17</title>
<path fill="none" stroke="#63b8ff" d="M813.32,-313.02C823.35,-311.3 834.01,-309.55 844,-308 931.09,-294.47 1031.9,-280.68 1098.39,-272.11"/>
<polygon fill="#63b8ff" stroke="#63b8ff" points="1098.6,-275.61 1108.07,-270.87 1097.7,-268.67 1098.6,-275.61"/>
</g>
<!-- Node18 -->
<g id="node18" class="node">
<title>Node18</title>
<g id="a_node18"><a xlink:href="zscore_8h_source.html" target="_top" xlink:title=" ">
<polygon fill="white" stroke="#666666" points="1359.5,-272 1250.5,-272 1250.5,-253 1359.5,-253 1359.5,-272"/>
<text text-anchor="middle" x="1305" y="-260" font-family="Helvetica,sans-Serif" font-size="10.00">ViennaRNA/zscore.h</text>
</a>
</g>
</g>
<!-- Node2&#45;&gt;Node18 -->
<g id="edge42" class="edge">
<title>Node2&#45;&gt;Node18</title>
<path fill="none" stroke="#63b8ff" d="M819.9,-313.02C830.78,-311.2 842.26,-309.41 853,-308 1021.1,-285.88 1066.99,-291.17 1238.96,-272.18"/>
<polygon fill="#63b8ff" stroke="#63b8ff" points="1239.15,-275.68 1248.7,-271.09 1238.37,-268.72 1239.15,-275.68"/>
</g>
<!-- Node4&#45;&gt;Node2 -->
<g id="edge32" class="edge">
<title>Node4&#45;&gt;Node2</title>
<path fill="none" stroke="#63b8ff" d="M606.69,-272.47C642.96,-282.47 698.63,-298.7 735.01,-309.83"/>
<polygon fill="#63b8ff" stroke="#63b8ff" points="733.6,-313.06 744.19,-312.67 735.67,-306.37 733.6,-313.06"/>
</g>
<!-- Node4&#45;&gt;Node3 -->
<g id="edge33" class="edge">
<title>Node4&#45;&gt;Node3</title>
<path fill="none" stroke="#63b8ff" d="M533.75,-252.55C441.74,-230.43 203.78,-173.24 101.21,-148.59"/>
<polygon fill="#63b8ff" stroke="#63b8ff" points="102.28,-145.24 91.73,-146.31 100.64,-152.05 102.28,-145.24"/>
</g>
<!-- Node5 -->
<g id="node5" class="node">
<title>Node5</title>
<g id="a_node5"><a xlink:href="constants_8h.html" target="_top" xlink:title="Energy parameter constants.">
<polygon fill="white" stroke="#666666" points="434,-145.5 276,-145.5 276,-126.5 434,-126.5 434,-145.5"/>
<text text-anchor="middle" x="355" y="-133.5" font-family="Helvetica,sans-Serif" font-size="10.00">ViennaRNA/params/constants.h</text>
</a>
</g>
</g>
<!-- Node4&#45;&gt;Node5 -->
<g id="edge4" class="edge">
<title>Node4&#45;&gt;Node5</title>
<path fill="none" stroke="#63b8ff" d="M555.47,-252.55C518.57,-231.28 425.39,-177.57 380.27,-151.56"/>
<polygon fill="#63b8ff" stroke="#63b8ff" points="382.12,-148.59 371.7,-146.63 378.62,-154.65 382.12,-148.59"/>
</g>
<!-- Node7 -->
<g id="node7" class="node">
<title>Node7</title>
<g id="a_node7"><a xlink:href="datastructures_2basic_8h.html" target="_top" xlink:title="Various data structures and pre&#45;processor macros.">
<polygon fill="white" stroke="#666666" points="638,-217 504,-217 504,-187 638,-187 638,-217"/>
<text text-anchor="start" x="512" y="-205" font-family="Helvetica,sans-Serif" font-size="10.00">ViennaRNA/datastructures</text>
<text text-anchor="middle" x="571" y="-194" font-family="Helvetica,sans-Serif" font-size="10.00">/basic.h</text>
</a>
</g>
</g>
<!-- Node4&#45;&gt;Node7 -->
<g id="edge6" class="edge">
<title>Node4&#45;&gt;Node7</title>
<path fill="none" stroke="#63b8ff" d="M566.04,-252.87C564.65,-246.4 564.07,-237.2 564.3,-228.45"/>
<polygon fill="#63b8ff" stroke="#63b8ff" points="567.78,-228.85 565.02,-218.62 560.8,-228.34 567.78,-228.85"/>
</g>
<!-- Node6 -->
<g id="node6" class="node">
<title>Node6</title>
<g id="a_node6"><a xlink:title=" ">
<polygon fill="#e0e0e0" stroke="#999999" points="379,-79.5 331,-79.5 331,-60.5 379,-60.5 379,-79.5"/>
<text text-anchor="middle" x="355" y="-67.5" font-family="Helvetica,sans-Serif" font-size="10.00">limits.h</text>
</a>
</g>
</g>
<!-- Node5&#45;&gt;Node6 -->
<g id="edge5" class="edge">
<title>Node5&#45;&gt;Node6</title>
<path fill="none" stroke="#63b8ff" d="M355,-126.1C355,-117.12 355,-102.95 355,-91.22"/>
<polygon fill="#63b8ff" stroke="#63b8ff" points="358.5,-91.34 355,-81.34 351.5,-91.34 358.5,-91.34"/>
</g>
<!-- Node7&#45;&gt;Node2 -->
<g id="edge8" class="edge">
<title>Node7&#45;&gt;Node2</title>
<path fill="none" stroke="#63b8ff" d="M595.32,-217.47C633.74,-240.33 708.06,-284.55 746.56,-307.46"/>
<polygon fill="#63b8ff" stroke="#63b8ff" points="744.28,-310.18 754.67,-312.28 747.86,-304.16 744.28,-310.18"/>
</g>
<!-- Node7&#45;&gt;Node3 -->
<g id="edge9" class="edge">
<title>Node7&#45;&gt;Node3</title>
<path fill="none" stroke="#63b8ff" d="M503.84,-196.02C414.61,-188.87 252.27,-173.95 115,-151 110.35,-150.22 105.52,-149.31 100.7,-148.34"/>
<polygon fill="#63b8ff" stroke="#63b8ff" points="101.57,-144.95 91.06,-146.29 100.12,-151.79 101.57,-144.95"/>
</g>
<!-- Node7&#45;&gt;Node4 -->
<g id="edge10" class="edge">
<title>Node7&#45;&gt;Node4</title>
<path fill="none" stroke="#63b8ff" d="M576.87,-217.11C577.81,-224.43 577.99,-233.49 577.44,-241.51"/>
<polygon fill="#63b8ff" stroke="#63b8ff" points="573.98,-241 576.15,-251.37 580.92,-241.91 573.98,-241"/>
</g>
<!-- Node7&#45;&gt;Node5 -->
<g id="edge7" class="edge">
<title>Node7&#45;&gt;Node5</title>
<path fill="none" stroke="#63b8ff" d="M522.26,-186.56C484.14,-175.26 431.77,-159.75 395.84,-149.1"/>
<polygon fill="#63b8ff" stroke="#63b8ff" points="397.28,-145.88 386.7,-146.39 395.29,-152.59 397.28,-145.88"/>
</g>
<!-- Node7&#45;&gt;Node8 -->
<g id="edge11" class="edge">
<title>Node7&#45;&gt;Node8</title>
<path fill="none" stroke="#63b8ff" d="M503.58,-191.38C439.98,-181.55 342.31,-165.7 258,-151 252.44,-150.03 246.66,-149 240.92,-147.96"/>
<polygon fill="#63b8ff" stroke="#63b8ff" points="241.95,-144.59 231.48,-146.23 240.68,-151.48 241.95,-144.59"/>
</g>
<!-- Node7&#45;&gt;Node9 -->
<g id="edge14" class="edge">
<title>Node7&#45;&gt;Node9</title>
<path fill="none" stroke="#63b8ff" d="M638.21,-194.5C730.61,-185.45 902.04,-168.2 1048,-151 1059.56,-149.64 1071.82,-148.11 1083.74,-146.58"/>
<polygon fill="#63b8ff" stroke="#63b8ff" points="1084.08,-150.07 1093.55,-145.31 1083.18,-143.13 1084.08,-150.07"/>
</g>
<!-- Node7&#45;&gt;Node11 -->
<g id="edge18" class="edge">
<title>Node7&#45;&gt;Node11</title>
<path fill="none" stroke="#63b8ff" d="M596.68,-186.64C615.35,-177.57 641.04,-165.75 663.38,-155.93"/>
<polygon fill="#63b8ff" stroke="#63b8ff" points="664.54,-159.24 672.31,-152.03 661.74,-152.82 664.54,-159.24"/>
</g>
<!-- Node7&#45;&gt;Node12 -->
<g id="edge22" class="edge">
<title>Node7&#45;&gt;Node12</title>
<path fill="none" stroke="#63b8ff" d="M633.28,-186.56C682.82,-175.07 751.22,-159.21 797.17,-148.55"/>
<polygon fill="#63b8ff" stroke="#63b8ff" points="797.92,-151.97 806.87,-146.3 796.34,-145.15 797.92,-151.97"/>
</g>
<!-- Node7&#45;&gt;Node13 -->
<g id="edge24" class="edge">
<title>Node7&#45;&gt;Node13</title>
<path fill="none" stroke="#63b8ff" d="M638.44,-192.51C705.44,-183.78 811.35,-169.18 911.82,-151.51"/>
<polygon fill="#63b8ff" stroke="#63b8ff" points="912.37,-154.96 921.6,-149.77 911.15,-148.07 912.37,-154.96"/>
</g>
<!-- Node7&#45;&gt;Node14 -->
<g id="edge25" class="edge">
<title>Node7&#45;&gt;Node14</title>
<path fill="none" stroke="#63b8ff" d="M565.28,-186.8C564.36,-179.67 564.05,-170.82 564.37,-162.56"/>
<polygon fill="#63b8ff" stroke="#63b8ff" points="567.86,-162.92 565.16,-152.67 560.88,-162.36 567.86,-162.92"/>
</g>
<!-- Node15 -->
<g id="node15" class="node">
<title>Node15</title>
<g id="a_node15"><a xlink:href="utils_2structures_8h.html" target="_top" xlink:title="Various utility&#45; and helper&#45;functions for secondary structure parsing, converting,...">
<polygon fill="white" stroke="#666666" points="543,-79.5 399,-79.5 399,-60.5 543,-60.5 543,-79.5"/>
<text text-anchor="middle" x="471" y="-67.5" font-family="Helvetica,sans-Serif" font-size="10.00">ViennaRNA/utils/structures.h</text>
</a>
</g>
</g>
<!-- Node7&#45;&gt;Node15 -->
<g id="edge31" class="edge">
<title>Node7&#45;&gt;Node15</title>
<path fill="none" stroke="#63b8ff" d="M534.07,-186.6C518.4,-178.02 501.33,-165.9 490,-151 476.51,-133.27 469.18,-108.53 467.31,-91.27"/>
<polygon fill="#63b8ff" stroke="#63b8ff" points="470.81,-91.16 466.98,-81.29 463.81,-91.4 470.81,-91.16"/>
</g>
<!-- Node8&#45;&gt;Node2 -->
<g id="edge13" class="edge">
<title>Node8&#45;&gt;Node2</title>
<path fill="none" stroke="#63b8ff" d="M211.36,-145.92C260.44,-170 388.12,-236.88 502,-272 563.36,-290.92 634.67,-303.57 688.51,-311.41"/>
<polygon fill="#63b8ff" stroke="#63b8ff" points="687.83,-314.85 698.22,-312.8 688.82,-307.92 687.83,-314.85"/>
</g>
<!-- Node8&#45;&gt;Node7 -->
<g id="edge12" class="edge">
<title>Node8&#45;&gt;Node7</title>
<path fill="none" stroke="#63b8ff" d="M247.64,-145.95C257.16,-147.66 266.88,-149.41 276,-151 349.39,-163.79 432.9,-177.47 492.35,-187.27"/>
<polygon fill="#63b8ff" stroke="#63b8ff" points="491.61,-190.7 502.04,-188.87 492.75,-183.79 491.61,-190.7"/>
</g>
<!-- Node9&#45;&gt;Node2 -->
<g id="edge15" class="edge">
<title>Node9&#45;&gt;Node2</title>
<path fill="none" stroke="#63b8ff" d="M1152.4,-151.22C1140.49,-179.34 1100.97,-241.93 1049,-272 1044.48,-274.61 919.41,-297.2 838.51,-311.11"/>
<polygon fill="#63b8ff" stroke="#63b8ff" points="838.16,-307.62 828.89,-312.75 839.34,-314.51 838.16,-307.62"/>
</g>
<!-- Node10 -->
<g id="node10" class="node">
<title>Node10</title>
<g id="a_node10"><a xlink:href="constraints_2basic_8h.html" target="_top" xlink:title="Functions and data structures for constraining secondary structure predictions and evaluation.">
<polygon fill="white" stroke="#666666" points="1126.5,-85 1007.5,-85 1007.5,-55 1126.5,-55 1126.5,-85"/>
<text text-anchor="start" x="1015.5" y="-73" font-family="Helvetica,sans-Serif" font-size="10.00">ViennaRNA/constraints</text>
<text text-anchor="middle" x="1067" y="-62" font-family="Helvetica,sans-Serif" font-size="10.00">/basic.h</text>
</a>
</g>
</g>
<!-- Node9&#45;&gt;Node10 -->
<g id="edge16" class="edge">
<title>Node9&#45;&gt;Node10</title>
<path fill="none" stroke="#63b8ff" d="M1135.47,-120.8C1123.82,-112.32 1108.81,-101.4 1095.81,-91.95"/>
<polygon fill="#63b8ff" stroke="#63b8ff" points="1098.15,-89.33 1088,-86.28 1094.03,-94.99 1098.15,-89.33"/>
</g>
<!-- Node10&#45;&gt;Node2 -->
<g id="edge17" class="edge">
<title>Node10&#45;&gt;Node2</title>
<path fill="none" stroke="#63b8ff" d="M1066.82,-85.36C1065.92,-102.5 1062.21,-131.33 1048,-151 986.95,-235.54 870,-287.05 809.45,-309.22"/>
<polygon fill="#63b8ff" stroke="#63b8ff" points="808.49,-305.85 800.25,-312.51 810.85,-312.44 808.49,-305.85"/>
</g>
<!-- Node11&#45;&gt;Node2 -->
<g id="edge20" class="edge">
<title>Node11&#45;&gt;Node2</title>
<path fill="none" stroke="#63b8ff" d="M727.71,-151.41C734.86,-161.15 742.18,-174.48 747,-187 762.19,-226.48 772.05,-275.2 773.87,-301.99"/>
<polygon fill="#63b8ff" stroke="#63b8ff" points="770.37,-301.8 774.07,-311.73 777.36,-301.65 770.37,-301.8"/>
</g>
<!-- Node11&#45;&gt;Node7 -->
<g id="edge19" class="edge">
<title>Node11&#45;&gt;Node7</title>
<path fill="none" stroke="#63b8ff" d="M685.42,-151.31C666.7,-160.4 640.91,-172.27 618.51,-182.12"/>
<polygon fill="#63b8ff" stroke="#63b8ff" points="617.31,-178.83 609.55,-186.03 620.11,-185.24 617.31,-178.83"/>
</g>
<!-- Node11&#45;&gt;Node10 -->
<g id="edge21" class="edge">
<title>Node11&#45;&gt;Node10</title>
<path fill="none" stroke="#63b8ff" d="M770.82,-122.76C773.92,-122.16 777,-121.57 780,-121 853.5,-107.14 937.86,-92.61 996.01,-82.81"/>
<polygon fill="#63b8ff" stroke="#63b8ff" points="996.5,-86.27 1005.78,-81.16 995.34,-79.37 996.5,-86.27"/>
</g>
<!-- Node12&#45;&gt;Node2 -->
<g id="edge23" class="edge">
<title>Node12&#45;&gt;Node2</title>
<path fill="none" stroke="#63b8ff" d="M846.47,-145.83C839.24,-174.22 802.95,-263.53 783.12,-302.96"/>
<polygon fill="#63b8ff" stroke="#63b8ff" points="780.06,-301.26 778.48,-311.74 786.25,-304.53 780.06,-301.26"/>
</g>
<!-- Node14&#45;&gt;Node2 -->
<g id="edge27" class="edge">
<title>Node14&#45;&gt;Node2</title>
<path fill="none" stroke="#63b8ff" d="M603.81,-151.32C620.41,-160.62 640.12,-173.49 656,-187 699.87,-224.32 743.68,-276.34 762.42,-303.63"/>
<polygon fill="#63b8ff" stroke="#63b8ff" points="759.33,-305.29 767.67,-311.82 765.22,-301.51 759.33,-305.29"/>
</g>
<!-- Node14&#45;&gt;Node7 -->
<g id="edge26" class="edge">
<title>Node14&#45;&gt;Node7</title>
<path fill="none" stroke="#63b8ff" d="M576.71,-151.16C577.64,-158.28 577.95,-167.13 577.63,-175.39"/>
<polygon fill="#63b8ff" stroke="#63b8ff" points="574.15,-175.04 576.84,-185.29 581.12,-175.6 574.15,-175.04"/>
</g>
<!-- Node14&#45;&gt;Node15 -->
<g id="edge28" class="edge">
<title>Node14&#45;&gt;Node15</title>
<path fill="none" stroke="#63b8ff" d="M548.81,-120.8C532.61,-110.43 510.69,-96.4 494.25,-85.88"/>
<polygon fill="#63b8ff" stroke="#63b8ff" points="496.4,-83.1 486.09,-80.66 492.63,-89 496.4,-83.1"/>
</g>
<!-- Node15&#45;&gt;Node7 -->
<g id="edge30" class="edge">
<title>Node15&#45;&gt;Node7</title>
<path fill="none" stroke="#63b8ff" d="M477.57,-79.77C483.85,-95.46 491.07,-128.75 508,-151 516.85,-162.64 529.2,-172.59 540.7,-180.47"/>
<polygon fill="#63b8ff" stroke="#63b8ff" points="538.52,-183.22 548.8,-185.77 542.35,-177.37 538.52,-183.22"/>
</g>
<!-- Node16 -->
<g id="node16" class="node">
<title>Node16</title>
<g id="a_node16"><a xlink:title=" ">
<polygon fill="#e0e0e0" stroke="#999999" points="494,-19 448,-19 448,0 494,0 494,-19"/>
<text text-anchor="middle" x="471" y="-7" font-family="Helvetica,sans-Serif" font-size="10.00">stdio.h</text>
</a>
</g>
</g>
<!-- Node15&#45;&gt;Node16 -->
<g id="edge29" class="edge">
<title>Node15&#45;&gt;Node16</title>
<path fill="none" stroke="#63b8ff" d="M471,-60.37C471,-52.5 471,-40.6 471,-30.39"/>
<polygon fill="#63b8ff" stroke="#63b8ff" points="474.5,-30.68 471,-20.68 467.5,-30.68 474.5,-30.68"/>
</g>
<!-- Node17&#45;&gt;Node2 -->
<g id="edge35" class="edge">
<title>Node17&#45;&gt;Node2</title>
<path fill="none" stroke="#63b8ff" d="M1109.64,-272.46C1047.22,-281.05 947.93,-294.65 862,-308 855.6,-308.99 848.93,-310.07 842.22,-311.17"/>
<polygon fill="#63b8ff" stroke="#63b8ff" points="841.75,-307.7 832.45,-312.78 842.89,-314.6 841.75,-307.7"/>
</g>
</g>
</svg>
