<?xml version="1.0" encoding="UTF-8" standalone="no"?>
<!DOCTYPE svg PUBLIC "-//W3C//DTD SVG 1.1//EN"
 "http://www.w3.org/Graphics/SVG/1.1/DTD/svg11.dtd">
<!-- Generated by graphviz version 7.1.0 (0)
 -->
<!-- Title: ViennaRNA/landscape/neighbor.h Pages: 1 -->
<svg width="242pt" height="93pt"
 viewBox="0.00 0.00 242.00 93.00" xmlns="http://www.w3.org/2000/svg" xmlns:xlink="http://www.w3.org/1999/xlink">
<g id="graph0" class="graph" transform="scale(1 1) rotate(0) translate(4 89)">
<title>ViennaRNA/landscape/neighbor.h</title>
<!-- Node1 -->
<g id="node1" class="node">
<title>Node1</title>
<g id="a_node1"><a xlink:title="Methods to compute the neighbors of an RNA secondary structure.">
<polygon fill="#999999" stroke="#666666" points="179,-85 63,-85 63,-55 179,-55 179,-85"/>
<text text-anchor="start" x="71" y="-73" font-family="Helvetica,sans-Serif" font-size="10.00">ViennaRNA/landscape</text>
<text text-anchor="middle" x="121" y="-62" font-family="Helvetica,sans-Serif" font-size="10.00">/neighbor.h</text>
</a>
</g>
</g>
<!-- Node2 -->
<g id="node2" class="node">
<title>Node2</title>
<g id="a_node2"><a xlink:href="neighbor_8h.html" target="_top" xlink:title="Use ViennaRNA/landscape/neighbor.h instead.">
<polygon fill="white" stroke="#666666" points="116,-19 0,-19 0,0 116,0 116,-19"/>
<text text-anchor="middle" x="58" y="-7" font-family="Helvetica,sans-Serif" font-size="10.00">ViennaRNA/neighbor.h</text>
</a>
</g>
</g>
<!-- Node1&#45;&gt;Node2 -->
<g id="edge1" class="edge">
<title>Node1&#45;&gt;Node2</title>
<path fill="none" stroke="#63b8ff" d="M97.09,-46.8C86.72,-37.17 75.18,-26.45 67.34,-19.18"/>
<polygon fill="#63b8ff" stroke="#63b8ff" points="94.61,-49.27 104.32,-53.51 99.37,-44.14 94.61,-49.27"/>
</g>
<!-- Node3 -->
<g id="node3" class="node">
<title>Node3</title>
<g id="a_node3"><a xlink:href="walk_8h.html" target="_top" xlink:title="Use ViennaRNA/landscape/walk.h instead.">
<polygon fill="white" stroke="#666666" points="234,-19 134,-19 134,0 234,0 234,-19"/>
<text text-anchor="middle" x="184" y="-7" font-family="Helvetica,sans-Serif" font-size="10.00">ViennaRNA/walk.h</text>
</a>
</g>
</g>
<!-- Node1&#45;&gt;Node3 -->
<g id="edge2" class="edge">
<title>Node1&#45;&gt;Node3</title>
<path fill="none" stroke="#63b8ff" d="M144.91,-46.8C155.28,-37.17 166.82,-26.45 174.66,-19.18"/>
<polygon fill="#63b8ff" stroke="#63b8ff" points="142.63,-44.14 137.68,-53.51 147.39,-49.27 142.63,-44.14"/>
</g>
</g>
</svg>
