<?xml version="1.0" encoding="UTF-8" standalone="no"?>
<!DOCTYPE svg PUBLIC "-//W3C//DTD SVG 1.1//EN"
 "http://www.w3.org/Graphics/SVG/1.1/DTD/svg11.dtd">
<!-- Generated by graphviz version 7.1.0 (0)
 -->
<!-- Title: ViennaRNA/constraints/ligand.h Pages: 1 -->
<svg width="274pt" height="104pt"
 viewBox="0.00 0.00 273.50 104.00" xmlns="http://www.w3.org/2000/svg" xmlns:xlink="http://www.w3.org/1999/xlink">
<g id="graph0" class="graph" transform="scale(1 1) rotate(0) translate(4 100)">
<title>ViennaRNA/constraints/ligand.h</title>
<!-- Node1 -->
<g id="node1" class="node">
<title>Node1</title>
<g id="a_node1"><a xlink:title="Functions for incorporation of ligands binding to hairpin and interior loop motifs using the soft con...">
<polygon fill="#999999" stroke="#666666" points="194.5,-96 75.5,-96 75.5,-66 194.5,-66 194.5,-96"/>
<text text-anchor="start" x="83.5" y="-84" font-family="Helvetica,sans-Serif" font-size="10.00">ViennaRNA/constraints</text>
<text text-anchor="middle" x="135" y="-73" font-family="Helvetica,sans-Serif" font-size="10.00">/ligand.h</text>
</a>
</g>
</g>
<!-- Node2 -->
<g id="node2" class="node">
<title>Node2</title>
<g id="a_node2"><a xlink:href="constraints_8h.html" target="_top" xlink:title="Use ViennaRNA/constraints/basic.h instead.">
<polygon fill="white" stroke="#666666" points="128,-24.5 0,-24.5 0,-5.5 128,-5.5 128,-24.5"/>
<text text-anchor="middle" x="64" y="-12.5" font-family="Helvetica,sans-Serif" font-size="10.00">ViennaRNA/constraints.h</text>
</a>
</g>
</g>
<!-- Node1&#45;&gt;Node2 -->
<g id="edge1" class="edge">
<title>Node1&#45;&gt;Node2</title>
<path fill="none" stroke="#63b8ff" d="M110.9,-58.27C98.21,-46.84 83.35,-33.44 73.81,-24.84"/>
<polygon fill="#63b8ff" stroke="#63b8ff" points="108.35,-60.69 118.12,-64.78 113.03,-55.49 108.35,-60.69"/>
</g>
<!-- Node3 -->
<g id="node3" class="node">
<title>Node3</title>
<g id="a_node3"><a xlink:href="constraints__ligand_8h.html" target="_top" xlink:title="Use ViennaRNA/constraints/ligand.h instead.">
<polygon fill="white" stroke="#666666" points="265.5,-30 146.5,-30 146.5,0 265.5,0 265.5,-30"/>
<text text-anchor="start" x="154.5" y="-18" font-family="Helvetica,sans-Serif" font-size="10.00">ViennaRNA/constraints</text>
<text text-anchor="middle" x="206" y="-7" font-family="Helvetica,sans-Serif" font-size="10.00">_ligand.h</text>
</a>
</g>
</g>
<!-- Node1&#45;&gt;Node3 -->
<g id="edge2" class="edge">
<title>Node1&#45;&gt;Node3</title>
<path fill="none" stroke="#63b8ff" d="M159.31,-58.09C169.56,-48.85 181.19,-38.36 190.29,-30.16"/>
<polygon fill="#63b8ff" stroke="#63b8ff" points="156.97,-55.49 151.88,-64.78 161.65,-60.69 156.97,-55.49"/>
</g>
</g>
</svg>
