<?xml version="1.0" encoding="UTF-8" standalone="no"?>
<!DOCTYPE svg PUBLIC "-//W3C//DTD SVG 1.1//EN"
 "http://www.w3.org/Graphics/SVG/1.1/DTD/svg11.dtd">
<!-- Generated by graphviz version 7.1.0 (0)
 -->
<!-- Title: ViennaRNA/constraints/ligand.h Pages: 1 -->
<!--zoomable 346 -->
<svg id="main" version="1.1" xmlns="http://www.w3.org/2000/svg" xmlns:xlink="http://www.w3.org/1999/xlink" xml:space="preserve" onload="init(evt)">
<style type="text/css"><![CDATA[
.edge:hover path { stroke: red; }
.edge:hover polygon { stroke: red; fill: red; }
]]></style>
<script type="text/javascript"><![CDATA[
var edges = document.getElementsByTagName('g');
if (edges && edges.length) {
  for (var i=0;i<edges.length;i++) {
    if (edges[i].id.substr(0,4)=='edge') {
      edges[i].setAttribute('class','edge');
    }
  }
}
]]></script>
        <defs>
                <circle id="rim" cx="0" cy="0" r="7"/>
                <circle id="rim2" cx="0" cy="0" r="3.5"/>
                <g id="zoomPlus">
                        <use xlink:href="#rim" fill="#404040">
                                <set attributeName="fill" to="#808080" begin="zoomplus.mouseover" end="zoomplus.mouseout"/>
                        </use>
                        <path d="M-4,0h8M0,-4v8" fill="none" stroke="white" stroke-width="1.5" pointer-events="none"/>
                </g>
                <g id="zoomMin">
                        <use xlink:href="#rim" fill="#404040">
                                <set attributeName="fill" to="#808080" begin="zoomminus.mouseover" end="zoomminus.mouseout"/>
                        </use>
                        <path d="M-4,0h8" fill="none" stroke="white" stroke-width="1.5" pointer-events="none"/>
                </g>
                <g id="dirArrow">
                        <path fill="none" stroke="white" stroke-width="1.5" d="M0,-3.0v7 M-2.5,-0.5L0,-3.0L2.5,-0.5"/>
                </g>
               <g id="resetDef">
                       <use xlink:href="#rim2" fill="#404040">
                               <set attributeName="fill" to="#808080" begin="reset.mouseover" end="reset.mouseout"/>
                       </use>
               </g>
        </defs>

<script type="text/javascript">
var viewWidth = 1534;
var viewHeight = 346;
var sectionId = 'dynsection-0';
</script>
<script xlink:href="svgpan.js"/>
<svg id="graph" class="graph">
<g id="viewport">
<title>ViennaRNA/constraints/ligand.h</title>
<!-- Node1 -->
<g id="node1" class="node">
<title>Node1</title>
<g id="a_node1"><a xlink:title="Functions for incorporation of ligands binding to hairpin and interior loop motifs using the soft con...">
<polygon fill="#999999" stroke="#666666" points="912.5,-338 793.5,-338 793.5,-308 912.5,-308 912.5,-338"/>
<text text-anchor="start" x="801.5" y="-326" font-family="Helvetica,sans-Serif" font-size="10.00">ViennaRNA/constraints</text>
<text text-anchor="middle" x="853" y="-315" font-family="Helvetica,sans-Serif" font-size="10.00">/ligand.h</text>
</a>
</g>
</g>
<!-- Node2 -->
<g id="node2" class="node">
<title>Node2</title>
<g id="a_node2"><a xlink:href="datastructures_2basic_8h.html" target="_top" xlink:title="Various data structures and pre&#45;processor macros.">
<polygon fill="white" stroke="#666666" points="975,-272 841,-272 841,-242 975,-242 975,-272"/>
<text text-anchor="start" x="849" y="-260" font-family="Helvetica,sans-Serif" font-size="10.00">ViennaRNA/datastructures</text>
<text text-anchor="middle" x="908" y="-249" font-family="Helvetica,sans-Serif" font-size="10.00">/basic.h</text>
</a>
</g>
</g>
<!-- Node1&#45;&gt;Node2 -->
<g id="edge1" class="edge">
<title>Node1&#45;&gt;Node2</title>
<path fill="none" stroke="#63b8ff" d="M865.21,-307.8C872.04,-299.84 880.73,-289.74 888.48,-280.71"/>
<polygon fill="#63b8ff" stroke="#63b8ff" points="890.98,-283.18 894.84,-273.31 885.67,-278.61 890.98,-283.18"/>
</g>
<!-- Node5 -->
<g id="node5" class="node">
<title>Node5</title>
<g id="a_node5"><a xlink:href="fold__compound_8h.html" target="_top" xlink:title="The Basic Fold Compound API.">
<polygon fill="white" stroke="#666666" points="841,-206 695,-206 695,-187 841,-187 841,-206"/>
<text text-anchor="middle" x="768" y="-194" font-family="Helvetica,sans-Serif" font-size="10.00">ViennaRNA/fold_compound.h</text>
</a>
</g>
</g>
<!-- Node1&#45;&gt;Node5 -->
<g id="edge43" class="edge">
<title>Node1&#45;&gt;Node5</title>
<path fill="none" stroke="#63b8ff" d="M843.25,-307.72C827.76,-285.03 797.54,-240.76 780.48,-215.79"/>
<polygon fill="#63b8ff" stroke="#63b8ff" points="783.45,-213.92 774.92,-207.63 777.67,-217.86 783.45,-213.92"/>
</g>
<!-- Node3 -->
<g id="node3" class="node">
<title>Node3</title>
<g id="a_node3"><a xlink:href="constants_8h.html" target="_top" xlink:title="Energy parameter constants.">
<polygon fill="white" stroke="#666666" points="158,-79.5 0,-79.5 0,-60.5 158,-60.5 158,-79.5"/>
<text text-anchor="middle" x="79" y="-67.5" font-family="Helvetica,sans-Serif" font-size="10.00">ViennaRNA/params/constants.h</text>
</a>
</g>
</g>
<!-- Node2&#45;&gt;Node3 -->
<g id="edge2" class="edge">
<title>Node2&#45;&gt;Node3</title>
<path fill="none" stroke="#63b8ff" d="M840.77,-252.9C647.42,-243.3 100.39,-211.02 49,-151 33.53,-132.94 49.2,-106.12 63.08,-88.6"/>
<polygon fill="#63b8ff" stroke="#63b8ff" points="65.64,-91 69.41,-81.1 60.29,-86.48 65.64,-91"/>
</g>
<!-- Node2&#45;&gt;Node5 -->
<g id="edge4" class="edge">
<title>Node2&#45;&gt;Node5</title>
<path fill="none" stroke="#63b8ff" d="M873.39,-241.54C850.81,-232.1 821.56,-219.88 799.61,-210.71"/>
<polygon fill="#63b8ff" stroke="#63b8ff" points="801.14,-207.56 790.57,-206.93 798.44,-214.01 801.14,-207.56"/>
</g>
<!-- Node6 -->
<g id="node6" class="node">
<title>Node6</title>
<g id="a_node6"><a xlink:href="model_8h.html" target="_top" xlink:title="The model details data structure and its corresponding modifiers.">
<polygon fill="white" stroke="#666666" points="429,-79.5 323,-79.5 323,-60.5 429,-60.5 429,-79.5"/>
<text text-anchor="middle" x="376" y="-67.5" font-family="Helvetica,sans-Serif" font-size="10.00">ViennaRNA/model.h</text>
</a>
</g>
</g>
<!-- Node2&#45;&gt;Node6 -->
<g id="edge34" class="edge">
<title>Node2&#45;&gt;Node6</title>
<path fill="none" stroke="#63b8ff" d="M975.43,-248.45C1121.14,-230.83 1447.68,-183.7 1388,-121 1379.8,-112.38 662.48,-82.61 440.63,-73.6"/>
<polygon fill="#63b8ff" stroke="#63b8ff" points="440.85,-70.11 430.72,-73.2 440.57,-77.1 440.85,-70.11"/>
</g>
<!-- Node7 -->
<g id="node7" class="node">
<title>Node7</title>
<g id="a_node7"><a xlink:href="params_2basic_8h.html" target="_top" xlink:title="Functions to deal with sets of energy parameters.">
<polygon fill="white" stroke="#666666" points="196,-145.5 58,-145.5 58,-126.5 196,-126.5 196,-145.5"/>
<text text-anchor="middle" x="127" y="-133.5" font-family="Helvetica,sans-Serif" font-size="10.00">ViennaRNA/params/basic.h</text>
</a>
</g>
</g>
<!-- Node2&#45;&gt;Node7 -->
<g id="edge35" class="edge">
<title>Node2&#45;&gt;Node7</title>
<path fill="none" stroke="#63b8ff" d="M840.75,-248.94C761.87,-239.92 627.58,-223.38 513,-206 372.06,-184.62 337.41,-175.66 197,-151 191.4,-150.02 185.57,-148.99 179.78,-147.96"/>
<polygon fill="#63b8ff" stroke="#63b8ff" points="180.68,-144.57 170.22,-146.25 179.45,-151.46 180.68,-144.57"/>
</g>
<!-- Node9 -->
<g id="node9" class="node">
<title>Node9</title>
<g id="a_node9"><a xlink:href="dp__matrices_8h.html" target="_top" xlink:title="Functions to deal with standard dynamic programming (DP) matrices.">
<polygon fill="white" stroke="#666666" points="347.5,-145.5 214.5,-145.5 214.5,-126.5 347.5,-126.5 347.5,-145.5"/>
<text text-anchor="middle" x="281" y="-133.5" font-family="Helvetica,sans-Serif" font-size="10.00">ViennaRNA/dp_matrices.h</text>
</a>
</g>
</g>
<!-- Node2&#45;&gt;Node9 -->
<g id="edge36" class="edge">
<title>Node2&#45;&gt;Node9</title>
<path fill="none" stroke="#63b8ff" d="M840.59,-246.02C780.17,-236.27 689.42,-220.78 611,-206 509.94,-186.95 392.42,-162.51 328.36,-148.42"/>
<polygon fill="#63b8ff" stroke="#63b8ff" points="329.41,-145.07 318.89,-146.33 327.9,-151.9 329.41,-145.07"/>
</g>
<!-- Node10 -->
<g id="node10" class="node">
<title>Node10</title>
<g id="a_node10"><a xlink:href="hard_8h.html" target="_top" xlink:title="Functions and data structures for handling of secondary structure hard constraints.">
<polygon fill="white" stroke="#666666" points="523.5,-151 404.5,-151 404.5,-121 523.5,-121 523.5,-151"/>
<text text-anchor="start" x="412.5" y="-139" font-family="Helvetica,sans-Serif" font-size="10.00">ViennaRNA/constraints</text>
<text text-anchor="middle" x="464" y="-128" font-family="Helvetica,sans-Serif" font-size="10.00">/hard.h</text>
</a>
</g>
</g>
<!-- Node2&#45;&gt;Node10 -->
<g id="edge37" class="edge">
<title>Node2&#45;&gt;Node10</title>
<path fill="none" stroke="#63b8ff" d="M840.63,-242.29C796.44,-232.94 737.52,-219.79 686,-206 627.95,-190.47 562.34,-169.66 517.59,-154.97"/>
<polygon fill="#63b8ff" stroke="#63b8ff" points="518.71,-151.66 508.12,-151.85 516.52,-158.31 518.71,-151.66"/>
</g>
<!-- Node12 -->
<g id="node12" class="node">
<title>Node12</title>
<g id="a_node12"><a xlink:href="soft_8h.html" target="_top" xlink:title="Functions and data structures for secondary structure soft constraints.">
<polygon fill="white" stroke="#666666" points="967.5,-151 848.5,-151 848.5,-121 967.5,-121 967.5,-151"/>
<text text-anchor="start" x="856.5" y="-139" font-family="Helvetica,sans-Serif" font-size="10.00">ViennaRNA/constraints</text>
<text text-anchor="middle" x="908" y="-128" font-family="Helvetica,sans-Serif" font-size="10.00">/soft.h</text>
</a>
</g>
</g>
<!-- Node2&#45;&gt;Node12 -->
<g id="edge38" class="edge">
<title>Node2&#45;&gt;Node12</title>
<path fill="none" stroke="#63b8ff" d="M903.45,-241.88C900.95,-222.39 900.58,-186.92 902.33,-162.67"/>
<polygon fill="#63b8ff" stroke="#63b8ff" points="905.79,-163.26 903.26,-152.98 898.82,-162.6 905.79,-163.26"/>
</g>
<!-- Node13 -->
<g id="node13" class="node">
<title>Node13</title>
<g id="a_node13"><a xlink:href="grammar_8h.html" target="_top" xlink:title="Implementations for the RNA folding grammar.">
<polygon fill="white" stroke="#666666" points="1102.5,-145.5 985.5,-145.5 985.5,-126.5 1102.5,-126.5 1102.5,-145.5"/>
<text text-anchor="middle" x="1044" y="-133.5" font-family="Helvetica,sans-Serif" font-size="10.00">ViennaRNA/grammar.h</text>
</a>
</g>
</g>
<!-- Node2&#45;&gt;Node13 -->
<g id="edge39" class="edge">
<title>Node2&#45;&gt;Node13</title>
<path fill="none" stroke="#63b8ff" d="M924.4,-241.65C949.81,-219.42 998.52,-176.79 1025.27,-153.39"/>
<polygon fill="#63b8ff" stroke="#63b8ff" points="1027.38,-156.19 1032.6,-146.97 1022.77,-150.92 1027.38,-156.19"/>
</g>
<!-- Node14 -->
<g id="node14" class="node">
<title>Node14</title>
<g id="a_node14"><a xlink:href="structured__domains_8h.html" target="_top" xlink:title="This module provides interfaces that deal with additional structured domains in the folding grammar.">
<polygon fill="white" stroke="#666666" points="1235.5,-151 1120.5,-151 1120.5,-121 1235.5,-121 1235.5,-151"/>
<text text-anchor="start" x="1128.5" y="-139" font-family="Helvetica,sans-Serif" font-size="10.00">ViennaRNA/structured</text>
<text text-anchor="middle" x="1178" y="-128" font-family="Helvetica,sans-Serif" font-size="10.00">_domains.h</text>
</a>
</g>
</g>
<!-- Node2&#45;&gt;Node14 -->
<g id="edge40" class="edge">
<title>Node2&#45;&gt;Node14</title>
<path fill="none" stroke="#63b8ff" d="M940.84,-241.53C989.59,-220.04 1081.14,-179.69 1135.12,-155.9"/>
<polygon fill="#63b8ff" stroke="#63b8ff" points="1136.27,-159.22 1144.01,-151.98 1133.44,-152.81 1136.27,-159.22"/>
</g>
<!-- Node15 -->
<g id="node15" class="node">
<title>Node15</title>
<g id="a_node15"><a xlink:href="unstructured__domains_8h.html" target="_top" xlink:title="Functions to modify unstructured domains, e.g. to incorporate ligands binding to unpaired stretches.">
<polygon fill="white" stroke="#666666" points="1378.5,-151 1253.5,-151 1253.5,-121 1378.5,-121 1378.5,-151"/>
<text text-anchor="start" x="1261.5" y="-139" font-family="Helvetica,sans-Serif" font-size="10.00">ViennaRNA/unstructured</text>
<text text-anchor="middle" x="1316" y="-128" font-family="Helvetica,sans-Serif" font-size="10.00">_domains.h</text>
</a>
</g>
</g>
<!-- Node2&#45;&gt;Node15 -->
<g id="edge41" class="edge">
<title>Node2&#45;&gt;Node15</title>
<path fill="none" stroke="#63b8ff" d="M953.02,-241.53C1025.38,-219.62 1167.58,-178.11 1250.95,-154.53"/>
<polygon fill="#63b8ff" stroke="#63b8ff" points="1251.68,-157.96 1260.35,-151.88 1249.78,-151.22 1251.68,-157.96"/>
</g>
<!-- Node16 -->
<g id="node16" class="node">
<title>Node16</title>
<g id="a_node16"><a xlink:href="utils_2structures_8h.html" target="_top" xlink:title="Various utility&#45; and helper&#45;functions for secondary structure parsing, converting,...">
<polygon fill="white" stroke="#666666" points="1526,-79.5 1382,-79.5 1382,-60.5 1526,-60.5 1526,-79.5"/>
<text text-anchor="middle" x="1454" y="-67.5" font-family="Helvetica,sans-Serif" font-size="10.00">ViennaRNA/utils/structures.h</text>
</a>
</g>
</g>
<!-- Node2&#45;&gt;Node16 -->
<g id="edge42" class="edge">
<title>Node2&#45;&gt;Node16</title>
<path fill="none" stroke="#63b8ff" d="M975.38,-253.11C1050.91,-248.5 1176.17,-236.6 1280,-206 1334.73,-189.87 1353.56,-189.13 1396,-151 1415.16,-133.78 1429.35,-107.3 1439.52,-89.58"/>
<polygon fill="#63b8ff" stroke="#63b8ff" points="1442.44,-91.51 1444.56,-81.13 1436.43,-87.92 1442.44,-91.51"/>
</g>
<!-- Node4 -->
<g id="node4" class="node">
<title>Node4</title>
<g id="a_node4"><a xlink:title=" ">
<polygon fill="#e0e0e0" stroke="#999999" points="103,-19 55,-19 55,0 103,0 103,-19"/>
<text text-anchor="middle" x="79" y="-7" font-family="Helvetica,sans-Serif" font-size="10.00">limits.h</text>
</a>
</g>
</g>
<!-- Node3&#45;&gt;Node4 -->
<g id="edge3" class="edge">
<title>Node3&#45;&gt;Node4</title>
<path fill="none" stroke="#63b8ff" d="M79,-60.37C79,-52.5 79,-40.6 79,-30.39"/>
<polygon fill="#63b8ff" stroke="#63b8ff" points="82.5,-30.68 79,-20.68 75.5,-30.68 82.5,-30.68"/>
</g>
<!-- Node5&#45;&gt;Node6 -->
<g id="edge5" class="edge">
<title>Node5&#45;&gt;Node6</title>
<path fill="none" stroke="#63b8ff" d="M694.71,-196.27C599.12,-195.71 439,-188.9 396,-151 379.24,-136.23 375.48,-109.74 375.1,-91.3"/>
<polygon fill="#63b8ff" stroke="#63b8ff" points="378.6,-91.4 375.25,-81.34 371.6,-91.29 378.6,-91.4"/>
</g>
<!-- Node5&#45;&gt;Node7 -->
<g id="edge6" class="edge">
<title>Node5&#45;&gt;Node7</title>
<path fill="none" stroke="#63b8ff" d="M694.59,-192.25C585.51,-186.7 374.66,-173.72 197,-151 190.1,-150.12 182.89,-149.05 175.81,-147.89"/>
<polygon fill="#63b8ff" stroke="#63b8ff" points="176.44,-144.45 165.99,-146.22 175.26,-151.35 176.44,-144.45"/>
</g>
<!-- Node8 -->
<g id="node8" class="node">
<title>Node8</title>
<g id="a_node8"><a xlink:href="sequence_8h.html" target="_top" xlink:title="Functions and data structures related to sequence representations ,.">
<polygon fill="white" stroke="#666666" points="664,-145.5 542,-145.5 542,-126.5 664,-126.5 664,-145.5"/>
<text text-anchor="middle" x="603" y="-133.5" font-family="Helvetica,sans-Serif" font-size="10.00">ViennaRNA/sequence.h</text>
</a>
</g>
</g>
<!-- Node5&#45;&gt;Node8 -->
<g id="edge11" class="edge">
<title>Node5&#45;&gt;Node8</title>
<path fill="none" stroke="#63b8ff" d="M737.93,-186.62C708.38,-176.87 663.74,-161.12 633.91,-149.99"/>
<polygon fill="#63b8ff" stroke="#63b8ff" points="635.28,-146.76 624.68,-146.5 632.8,-153.31 635.28,-146.76"/>
</g>
<!-- Node5&#45;&gt;Node9 -->
<g id="edge13" class="edge">
<title>Node5&#45;&gt;Node9</title>
<path fill="none" stroke="#63b8ff" d="M694.64,-189.44C611.41,-181.86 472.01,-167.79 353,-151 346.22,-150.04 339.13,-148.95 332.16,-147.81"/>
<polygon fill="#63b8ff" stroke="#63b8ff" points="332.9,-144.39 322.46,-146.18 331.74,-151.29 332.9,-144.39"/>
</g>
<!-- Node5&#45;&gt;Node10 -->
<g id="edge16" class="edge">
<title>Node5&#45;&gt;Node10</title>
<path fill="none" stroke="#63b8ff" d="M712.94,-186.56C666.18,-178.22 597.24,-165.29 535.43,-153.24"/>
<polygon fill="#63b8ff" stroke="#63b8ff" points="536.35,-149.85 525.86,-151.36 535.01,-156.72 536.35,-149.85"/>
</g>
<!-- Node5&#45;&gt;Node12 -->
<g id="edge20" class="edge">
<title>Node5&#45;&gt;Node12</title>
<path fill="none" stroke="#63b8ff" d="M784.25,-186.62C802.16,-178.41 831.5,-165.97 857.17,-155.59"/>
<polygon fill="#63b8ff" stroke="#63b8ff" points="858.15,-158.97 866.13,-152 855.54,-152.47 858.15,-158.97"/>
</g>
<!-- Node5&#45;&gt;Node13 -->
<g id="edge24" class="edge">
<title>Node5&#45;&gt;Node13</title>
<path fill="none" stroke="#63b8ff" d="M805.2,-186.55C851.54,-176.27 931.04,-159.39 985.53,-148.24"/>
<polygon fill="#63b8ff" stroke="#63b8ff" points="986.18,-151.68 995.28,-146.25 984.78,-144.82 986.18,-151.68"/>
</g>
<!-- Node5&#45;&gt;Node14 -->
<g id="edge26" class="edge">
<title>Node5&#45;&gt;Node14</title>
<path fill="none" stroke="#63b8ff" d="M841.4,-187.74C908.63,-180.23 1011.14,-167.8 1108.83,-151.46"/>
<polygon fill="#63b8ff" stroke="#63b8ff" points="1109.33,-154.93 1118.61,-149.81 1108.17,-148.03 1109.33,-154.93"/>
</g>
<!-- Node5&#45;&gt;Node15 -->
<g id="edge27" class="edge">
<title>Node5&#45;&gt;Node15</title>
<path fill="none" stroke="#63b8ff" d="M841.22,-190.56C933.57,-184.09 1096.89,-171.15 1236,-151 1238.01,-150.71 1240.05,-150.4 1242.11,-150.07"/>
<polygon fill="#63b8ff" stroke="#63b8ff" points="1242.49,-153.56 1251.77,-148.45 1241.33,-146.65 1242.49,-153.56"/>
</g>
<!-- Node18 -->
<g id="node18" class="node">
<title>Node18</title>
<g id="a_node18"><a xlink:href="zscore_8h_source.html" target="_top" xlink:title=" ">
<polygon fill="white" stroke="#666666" points="791.5,-145.5 682.5,-145.5 682.5,-126.5 791.5,-126.5 791.5,-145.5"/>
<text text-anchor="middle" x="737" y="-133.5" font-family="Helvetica,sans-Serif" font-size="10.00">ViennaRNA/zscore.h</text>
</a>
</g>
</g>
<!-- Node5&#45;&gt;Node18 -->
<g id="edge33" class="edge">
<title>Node5&#45;&gt;Node18</title>
<path fill="none" stroke="#63b8ff" d="M763.43,-186.87C759.08,-178.66 752.39,-166.04 746.83,-155.55"/>
<polygon fill="#63b8ff" stroke="#63b8ff" points="750.08,-154.2 742.3,-147 743.89,-157.48 750.08,-154.2"/>
</g>
<!-- Node7&#45;&gt;Node2 -->
<g id="edge8" class="edge">
<title>Node7&#45;&gt;Node2</title>
<path fill="none" stroke="#63b8ff" d="M186.41,-145.99C196.02,-147.66 205.81,-149.39 215,-151 355.41,-175.66 390.06,-184.62 531,-206 633.95,-221.62 752.81,-236.55 829.17,-245.96"/>
<polygon fill="#63b8ff" stroke="#63b8ff" points="828.73,-249.44 839.08,-247.18 829.59,-242.49 828.73,-249.44"/>
</g>
<!-- Node7&#45;&gt;Node3 -->
<g id="edge7" class="edge">
<title>Node7&#45;&gt;Node3</title>
<path fill="none" stroke="#63b8ff" d="M120.33,-126.1C113.16,-116.55 101.59,-101.11 92.51,-89.01"/>
<polygon fill="#63b8ff" stroke="#63b8ff" points="95.33,-86.93 86.53,-81.03 89.73,-91.13 95.33,-86.93"/>
</g>
<!-- Node7&#45;&gt;Node5 -->
<g id="edge9" class="edge">
<title>Node7&#45;&gt;Node5</title>
<path fill="none" stroke="#63b8ff" d="M182.01,-145.97C192.98,-147.83 204.36,-149.64 215,-151 380.5,-172.17 574.78,-184.88 683.48,-191.01"/>
<polygon fill="#63b8ff" stroke="#63b8ff" points="683,-194.48 693.18,-191.55 683.39,-187.49 683,-194.48"/>
</g>
<!-- Node7&#45;&gt;Node6 -->
<g id="edge10" class="edge">
<title>Node7&#45;&gt;Node6</title>
<path fill="none" stroke="#63b8ff" d="M161.88,-126.03C205.87,-114.73 281.61,-95.26 330.22,-82.77"/>
<polygon fill="#63b8ff" stroke="#63b8ff" points="331.07,-86.16 339.89,-80.28 329.33,-79.38 331.07,-86.16"/>
</g>
<!-- Node8&#45;&gt;Node5 -->
<g id="edge12" class="edge">
<title>Node8&#45;&gt;Node5</title>
<path fill="none" stroke="#63b8ff" d="M633.32,-145.97C662.96,-155.75 707.6,-171.5 737.34,-182.61"/>
<polygon fill="#63b8ff" stroke="#63b8ff" points="735.94,-185.82 746.53,-186.08 738.42,-179.27 735.94,-185.82"/>
</g>
<!-- Node9&#45;&gt;Node2 -->
<g id="edge14" class="edge">
<title>Node9&#45;&gt;Node2</title>
<path fill="none" stroke="#63b8ff" d="M329,-146C396.25,-159.56 521.88,-185.8 629,-206 696.65,-218.75 773.47,-232.03 829.41,-241.7"/>
<polygon fill="#63b8ff" stroke="#63b8ff" points="828.73,-245.13 839.18,-243.38 829.92,-238.23 828.73,-245.13"/>
</g>
<!-- Node9&#45;&gt;Node5 -->
<g id="edge15" class="edge">
<title>Node9&#45;&gt;Node5</title>
<path fill="none" stroke="#63b8ff" d="M338.54,-145.93C349.36,-147.73 360.54,-149.52 371,-151 478.8,-166.21 603.32,-179.18 683.8,-187.13"/>
<polygon fill="#63b8ff" stroke="#63b8ff" points="683.05,-190.57 693.35,-188.07 683.74,-183.61 683.05,-190.57"/>
</g>
<!-- Node10&#45;&gt;Node5 -->
<g id="edge17" class="edge">
<title>Node10&#45;&gt;Node5</title>
<path fill="none" stroke="#63b8ff" d="M523.79,-147.4C529.97,-148.62 536.12,-149.85 542,-151 601.54,-162.68 669.67,-175.52 715.51,-184.4"/>
<polygon fill="#63b8ff" stroke="#63b8ff" points="714.7,-187.8 725.19,-186.28 716.04,-180.93 714.7,-187.8"/>
</g>
<!-- Node11 -->
<g id="node11" class="node">
<title>Node11</title>
<g id="a_node11"><a xlink:href="constraints_2basic_8h.html" target="_top" xlink:title="Functions and data structures for constraining secondary structure predictions and evaluation.">
<polygon fill="white" stroke="#666666" points="879.5,-85 760.5,-85 760.5,-55 879.5,-55 879.5,-85"/>
<text text-anchor="start" x="768.5" y="-73" font-family="Helvetica,sans-Serif" font-size="10.00">ViennaRNA/constraints</text>
<text text-anchor="middle" x="820" y="-62" font-family="Helvetica,sans-Serif" font-size="10.00">/basic.h</text>
</a>
</g>
</g>
<!-- Node10&#45;&gt;Node11 -->
<g id="edge18" class="edge">
<title>Node10&#45;&gt;Node11</title>
<path fill="none" stroke="#63b8ff" d="M523.82,-122.76C526.92,-122.16 530,-121.57 533,-121 606.5,-107.14 690.86,-92.61 749.01,-82.81"/>
<polygon fill="#63b8ff" stroke="#63b8ff" points="749.5,-86.27 758.78,-81.16 748.34,-79.37 749.5,-86.27"/>
</g>
<!-- Node11&#45;&gt;Node5 -->
<g id="edge19" class="edge">
<title>Node11&#45;&gt;Node5</title>
<path fill="none" stroke="#63b8ff" d="M818.36,-85.45C816.08,-101.93 811.06,-129.39 801,-151 796.55,-160.56 789.85,-170.1 783.65,-177.88"/>
<polygon fill="#63b8ff" stroke="#63b8ff" points="781,-175.6 777.25,-185.5 786.36,-180.1 781,-175.6"/>
</g>
<!-- Node12&#45;&gt;Node2 -->
<g id="edge21" class="edge">
<title>Node12&#45;&gt;Node2</title>
<path fill="none" stroke="#63b8ff" d="M912.6,-151.47C915.05,-171.06 915.41,-206.33 913.66,-230.44"/>
<polygon fill="#63b8ff" stroke="#63b8ff" points="910.18,-230.09 912.7,-240.38 917.15,-230.76 910.18,-230.09"/>
</g>
<!-- Node12&#45;&gt;Node5 -->
<g id="edge22" class="edge">
<title>Node12&#45;&gt;Node5</title>
<path fill="none" stroke="#63b8ff" d="M879.36,-151.44C857.77,-160.95 828.16,-173.3 804.83,-182.5"/>
<polygon fill="#63b8ff" stroke="#63b8ff" points="803.73,-179.17 795.68,-186.07 806.27,-185.7 803.73,-179.17"/>
</g>
<!-- Node12&#45;&gt;Node11 -->
<g id="edge23" class="edge">
<title>Node12&#45;&gt;Node11</title>
<path fill="none" stroke="#63b8ff" d="M888.47,-120.8C876.82,-112.32 861.81,-101.4 848.81,-91.95"/>
<polygon fill="#63b8ff" stroke="#63b8ff" points="851.15,-89.33 841,-86.28 847.03,-94.99 851.15,-89.33"/>
</g>
<!-- Node13&#45;&gt;Node5 -->
<g id="edge25" class="edge">
<title>Node13&#45;&gt;Node5</title>
<path fill="none" stroke="#63b8ff" d="M1006.81,-145.95C960.46,-156.23 880.97,-173.11 826.47,-184.26"/>
<polygon fill="#63b8ff" stroke="#63b8ff" points="825.82,-180.82 816.72,-186.25 827.22,-187.68 825.82,-180.82"/>
</g>
<!-- Node15&#45;&gt;Node2 -->
<g id="edge28" class="edge">
<title>Node15&#45;&gt;Node2</title>
<path fill="none" stroke="#63b8ff" d="M1271,-151.46C1198.67,-173.36 1056.47,-214.87 973.08,-238.46"/>
<polygon fill="#63b8ff" stroke="#63b8ff" points="972.35,-235.03 963.68,-241.12 974.25,-241.77 972.35,-235.03"/>
</g>
<!-- Node15&#45;&gt;Node5 -->
<g id="edge29" class="edge">
<title>Node15&#45;&gt;Node5</title>
<path fill="none" stroke="#63b8ff" d="M1253.15,-151.12C1113.57,-171.3 949.84,-184.22 852.67,-190.65"/>
<polygon fill="#63b8ff" stroke="#63b8ff" points="852.71,-187.14 842.96,-191.28 853.17,-194.12 852.71,-187.14"/>
</g>
<!-- Node15&#45;&gt;Node16 -->
<g id="edge30" class="edge">
<title>Node15&#45;&gt;Node16</title>
<path fill="none" stroke="#63b8ff" d="M1346.97,-120.64C1370.05,-109.93 1401.39,-95.4 1424.19,-84.82"/>
<polygon fill="#63b8ff" stroke="#63b8ff" points="1425.65,-88.01 1433.25,-80.62 1422.71,-81.65 1425.65,-88.01"/>
</g>
<!-- Node16&#45;&gt;Node2 -->
<g id="edge32" class="edge">
<title>Node16&#45;&gt;Node2</title>
<path fill="none" stroke="#63b8ff" d="M1455.86,-79.83C1453.03,-95.91 1437.14,-130.21 1414,-151 1371.56,-189.13 1352.73,-189.87 1298,-206 1193.25,-236.87 1066.67,-248.71 986.66,-253.23"/>
<polygon fill="#63b8ff" stroke="#63b8ff" points="986.52,-249.73 976.72,-253.76 986.89,-256.72 986.52,-249.73"/>
</g>
<!-- Node17 -->
<g id="node17" class="node">
<title>Node17</title>
<g id="a_node17"><a xlink:title=" ">
<polygon fill="#e0e0e0" stroke="#999999" points="1477,-19 1431,-19 1431,0 1477,0 1477,-19"/>
<text text-anchor="middle" x="1454" y="-7" font-family="Helvetica,sans-Serif" font-size="10.00">stdio.h</text>
</a>
</g>
</g>
<!-- Node16&#45;&gt;Node17 -->
<g id="edge31" class="edge">
<title>Node16&#45;&gt;Node17</title>
<path fill="none" stroke="#63b8ff" d="M1454,-60.37C1454,-52.5 1454,-40.6 1454,-30.39"/>
<polygon fill="#63b8ff" stroke="#63b8ff" points="1457.5,-30.68 1454,-20.68 1450.5,-30.68 1457.5,-30.68"/>
</g>
</g>
</svg>
        <g id="navigator" transform="translate(0 0)" fill="#404254">
                <rect fill="#f2f5e9" fill-opacity="0.5" stroke="#606060" stroke-width=".5" x="0" y="0" width="60" height="60"/>
                <use id="zoomplus" xlink:href="#zoomPlus" x="17" y="9" onmousedown="handleZoom(evt,'in')"/>
                <use id="zoomminus" xlink:href="#zoomMin" x="42" y="9" onmousedown="handleZoom(evt,'out')"/>
                <use id="reset" xlink:href="#resetDef" x="30" y="36" onmousedown="handleReset()"/>
                <g id="arrowUp" xlink:href="#dirArrow" transform="translate(30 24)" onmousedown="handlePan(0,-1)">
                  <use xlink:href="#rim" fill="#404040">
                        <set attributeName="fill" to="#808080" begin="arrowUp.mouseover" end="arrowUp.mouseout"/>
                  </use>
                  <path fill="none" stroke="white" stroke-width="1.5" d="M0,-3.0v7 M-2.5,-0.5L0,-3.0L2.5,-0.5"/>
                </g>
                <g id="arrowRight" xlink:href="#dirArrow" transform="rotate(90) translate(36 -43)" onmousedown="handlePan(1,0)">
                  <use xlink:href="#rim" fill="#404040">
                        <set attributeName="fill" to="#808080" begin="arrowRight.mouseover" end="arrowRight.mouseout"/>
                  </use>
                  <path fill="none" stroke="white" stroke-width="1.5" d="M0,-3.0v7 M-2.5,-0.5L0,-3.0L2.5,-0.5"/>
                </g>
                <g id="arrowDown" xlink:href="#dirArrow" transform="rotate(180) translate(-30 -48)" onmousedown="handlePan(0,1)">
                  <use xlink:href="#rim" fill="#404040">
                        <set attributeName="fill" to="#808080" begin="arrowDown.mouseover" end="arrowDown.mouseout"/>
                  </use>
                  <path fill="none" stroke="white" stroke-width="1.5" d="M0,-3.0v7 M-2.5,-0.5L0,-3.0L2.5,-0.5"/>
                </g>
                <g id="arrowLeft" xlink:href="#dirArrow" transform="rotate(270) translate(-36 17)" onmousedown="handlePan(-1,0)">
                  <use xlink:href="#rim" fill="#404040">
                        <set attributeName="fill" to="#808080" begin="arrowLeft.mouseover" end="arrowLeft.mouseout"/>
                  </use>
                  <path fill="none" stroke="white" stroke-width="1.5" d="M0,-3.0v7 M-2.5,-0.5L0,-3.0L2.5,-0.5"/>
                </g>
        </g>
        <svg viewBox="0 0 15 15" width="100%" height="30px" preserveAspectRatio="xMaxYMin meet">
         <g id="arrow_out" transform="scale(0.3 0.3)">
          <a xlink:href="ligand_8h__incl_org.svg" target="_base">
           <rect id="button" ry="5" rx="5" y="6" x="6" height="38" width="38"
                fill="#f2f5e9" fill-opacity="0.5" stroke="#606060" stroke-width="1.0"/>
           <path id="arrow"
             d="M 11.500037,31.436501 C 11.940474,20.09759 22.043105,11.32322 32.158766,21.979434 L 37.068811,17.246167 C 37.068811,17.246167 37.088388,32 37.088388,32 L 22.160133,31.978069 C 22.160133,31.978069 26.997745,27.140456 26.997745,27.140456 C 18.528582,18.264221 13.291696,25.230495 11.500037,31.436501 z"
             style="fill:#404040;"/>
          </a>
         </g>
        </svg>
</svg>
