<?xml version="1.0" encoding="UTF-8" standalone="no"?>
<!DOCTYPE svg PUBLIC "-//W3C//DTD SVG 1.1//EN"
 "http://www.w3.org/Graphics/SVG/1.1/DTD/svg11.dtd">
<!-- Generated by graphviz version 7.1.0 (0)
 -->
<!-- Title: ViennaRNA/loop_energies.h Pages: 1 -->
<svg width="1649pt" height="555pt"
 viewBox="0.00 0.00 1649.39 555.00" xmlns="http://www.w3.org/2000/svg" xmlns:xlink="http://www.w3.org/1999/xlink">
<g id="graph0" class="graph" transform="scale(1 1) rotate(0) translate(4 551)">
<title>ViennaRNA/loop_energies.h</title>
<!-- Node1 -->
<g id="node1" class="node">
<title>Node1</title>
<g id="a_node1"><a xlink:title="Use ViennaRNA/loops/all.h instead.">
<polygon fill="#999999" stroke="#666666" points="908.5,-547 768.5,-547 768.5,-528 908.5,-528 908.5,-547"/>
<text text-anchor="middle" x="838.5" y="-535" font-family="Helvetica,sans-Serif" font-size="10.00">ViennaRNA/loop_energies.h</text>
</a>
</g>
</g>
<!-- Node2 -->
<g id="node2" class="node">
<title>Node2</title>
<g id="a_node2"><a xlink:href="all_8h.html" target="_top" xlink:title="Energy evaluation for MFE and partition function calculations.">
<polygon fill="white" stroke="#666666" points="896.5,-492 780.5,-492 780.5,-473 896.5,-473 896.5,-492"/>
<text text-anchor="middle" x="838.5" y="-480" font-family="Helvetica,sans-Serif" font-size="10.00">ViennaRNA/loops/all.h</text>
</a>
</g>
</g>
<!-- Node1&#45;&gt;Node2 -->
<g id="edge1" class="edge">
<title>Node1&#45;&gt;Node2</title>
<path fill="none" stroke="#63b8ff" d="M838.5,-527.75C838.5,-521.27 838.5,-512.16 838.5,-503.9"/>
<polygon fill="#63b8ff" stroke="#63b8ff" points="842,-503.96 838.5,-493.96 835,-503.96 842,-503.96"/>
</g>
<!-- Node3 -->
<g id="node3" class="node">
<title>Node3</title>
<g id="a_node3"><a xlink:href="external_8h.html" target="_top" xlink:title="Energy evaluation of exterior loops for MFE and partition function calculations.">
<polygon fill="white" stroke="#666666" points="877.5,-327 737.5,-327 737.5,-308 877.5,-308 877.5,-327"/>
<text text-anchor="middle" x="807.5" y="-315" font-family="Helvetica,sans-Serif" font-size="10.00">ViennaRNA/loops/external.h</text>
</a>
</g>
</g>
<!-- Node2&#45;&gt;Node3 -->
<g id="edge2" class="edge">
<title>Node2&#45;&gt;Node3</title>
<path fill="none" stroke="#63b8ff" d="M783.13,-472.55C744.37,-465.02 697.46,-452.93 685.5,-437 675.68,-423.92 671.82,-388.54 691.5,-363 703.39,-347.58 721.32,-337.5 739.55,-330.91"/>
<polygon fill="#63b8ff" stroke="#63b8ff" points="740.41,-334.31 748.84,-327.89 738.24,-327.65 740.41,-334.31"/>
</g>
<!-- Node21 -->
<g id="node21" class="node">
<title>Node21</title>
<g id="a_node21"><a xlink:href="hairpin_8h.html" target="_top" xlink:title="Energy evaluation of hairpin loops for MFE and partition function calculations.">
<polygon fill="white" stroke="#666666" points="828.5,-437 694.5,-437 694.5,-418 828.5,-418 828.5,-437"/>
<text text-anchor="middle" x="761.5" y="-425" font-family="Helvetica,sans-Serif" font-size="10.00">ViennaRNA/loops/hairpin.h</text>
</a>
</g>
</g>
<!-- Node2&#45;&gt;Node21 -->
<g id="edge47" class="edge">
<title>Node2&#45;&gt;Node21</title>
<path fill="none" stroke="#63b8ff" d="M825.44,-472.51C813.98,-464.62 797.07,-452.98 783.52,-443.65"/>
<polygon fill="#63b8ff" stroke="#63b8ff" points="785.84,-441 775.62,-438.22 781.87,-446.77 785.84,-441"/>
</g>
<!-- Node28 -->
<g id="node28" class="node">
<title>Node28</title>
<g id="a_node28"><a xlink:href="internal_8h.html" target="_top" xlink:title="Energy evaluation of interior loops for MFE and partition function calculations.">
<polygon fill="white" stroke="#666666" points="1020,-437 883,-437 883,-418 1020,-418 1020,-437"/>
<text text-anchor="middle" x="951.5" y="-425" font-family="Helvetica,sans-Serif" font-size="10.00">ViennaRNA/loops/internal.h</text>
</a>
</g>
</g>
<!-- Node2&#45;&gt;Node28 -->
<g id="edge62" class="edge">
<title>Node2&#45;&gt;Node28</title>
<path fill="none" stroke="#63b8ff" d="M857.67,-472.51C875.39,-464.2 901.98,-451.73 922.33,-442.18"/>
<polygon fill="#63b8ff" stroke="#63b8ff" points="923.68,-445.42 931.24,-438 920.7,-439.08 923.68,-445.42"/>
</g>
<!-- Node30 -->
<g id="node30" class="node">
<title>Node30</title>
<g id="a_node30"><a xlink:href="multibranch_8h.html" target="_top" xlink:title="Energy evaluation of multibranch loops for MFE and partition function calculations.">
<polygon fill="white" stroke="#666666" points="1267.5,-382 1111.5,-382 1111.5,-363 1267.5,-363 1267.5,-382"/>
<text text-anchor="middle" x="1189.5" y="-370" font-family="Helvetica,sans-Serif" font-size="10.00">ViennaRNA/loops/multibranch.h</text>
</a>
</g>
</g>
<!-- Node2&#45;&gt;Node30 -->
<g id="edge73" class="edge">
<title>Node2&#45;&gt;Node30</title>
<path fill="none" stroke="#63b8ff" d="M885.73,-472.54C924.71,-464.66 981.25,-452.1 1029.5,-437 1075.68,-422.55 1127.45,-400.97 1159.26,-387.07"/>
<polygon fill="#63b8ff" stroke="#63b8ff" points="1160.52,-390.34 1168.26,-383.11 1157.69,-383.94 1160.52,-390.34"/>
</g>
<!-- Node4 -->
<g id="node4" class="node">
<title>Node4</title>
<g id="a_node4"><a xlink:href="datastructures_2basic_8h.html" target="_top" xlink:title="Various data structures and pre&#45;processor macros.">
<polygon fill="white" stroke="#666666" points="1158.5,-272 1024.5,-272 1024.5,-242 1158.5,-242 1158.5,-272"/>
<text text-anchor="start" x="1032.5" y="-260" font-family="Helvetica,sans-Serif" font-size="10.00">ViennaRNA/datastructures</text>
<text text-anchor="middle" x="1091.5" y="-249" font-family="Helvetica,sans-Serif" font-size="10.00">/basic.h</text>
</a>
</g>
</g>
<!-- Node3&#45;&gt;Node4 -->
<g id="edge3" class="edge">
<title>Node3&#45;&gt;Node4</title>
<path fill="none" stroke="#63b8ff" d="M850.94,-307.55C893.86,-298.71 960.49,-284.99 1012.75,-274.22"/>
<polygon fill="#63b8ff" stroke="#63b8ff" points="1013.44,-277.65 1022.53,-272.21 1012.03,-270.8 1013.44,-277.65"/>
</g>
<!-- Node7 -->
<g id="node7" class="node">
<title>Node7</title>
<g id="a_node7"><a xlink:href="fold__compound_8h.html" target="_top" xlink:title="The Basic Fold Compound API.">
<polygon fill="white" stroke="#666666" points="879.5,-206 733.5,-206 733.5,-187 879.5,-187 879.5,-206"/>
<text text-anchor="middle" x="806.5" y="-194" font-family="Helvetica,sans-Serif" font-size="10.00">ViennaRNA/fold_compound.h</text>
</a>
</g>
</g>
<!-- Node3&#45;&gt;Node7 -->
<g id="edge45" class="edge">
<title>Node3&#45;&gt;Node7</title>
<path fill="none" stroke="#63b8ff" d="M807.42,-307.56C807.27,-288.6 806.89,-243.97 806.67,-217.73"/>
<polygon fill="#63b8ff" stroke="#63b8ff" points="810.17,-217.71 806.59,-207.74 803.17,-217.77 810.17,-217.71"/>
</g>
<!-- Node9 -->
<g id="node9" class="node">
<title>Node9</title>
<g id="a_node9"><a xlink:href="params_2basic_8h.html" target="_top" xlink:title="Functions to deal with sets of energy parameters.">
<polygon fill="white" stroke="#666666" points="1412.5,-145.5 1274.5,-145.5 1274.5,-126.5 1412.5,-126.5 1412.5,-145.5"/>
<text text-anchor="middle" x="1343.5" y="-133.5" font-family="Helvetica,sans-Serif" font-size="10.00">ViennaRNA/params/basic.h</text>
</a>
</g>
</g>
<!-- Node3&#45;&gt;Node9 -->
<g id="edge46" class="edge">
<title>Node3&#45;&gt;Node9</title>
<path fill="none" stroke="#63b8ff" d="M877.72,-309.82C974.88,-300.28 1141.35,-282.71 1167.5,-272 1235,-244.36 1298.96,-183.72 1327.67,-154.04"/>
<polygon fill="#63b8ff" stroke="#63b8ff" points="1330.02,-156.65 1334.37,-146.99 1324.94,-151.83 1330.02,-156.65"/>
</g>
<!-- Node5 -->
<g id="node5" class="node">
<title>Node5</title>
<g id="a_node5"><a xlink:href="constants_8h.html" target="_top" xlink:title="Energy parameter constants.">
<polygon fill="white" stroke="#666666" points="1545.5,-79.5 1387.5,-79.5 1387.5,-60.5 1545.5,-60.5 1545.5,-79.5"/>
<text text-anchor="middle" x="1466.5" y="-67.5" font-family="Helvetica,sans-Serif" font-size="10.00">ViennaRNA/params/constants.h</text>
</a>
</g>
</g>
<!-- Node4&#45;&gt;Node5 -->
<g id="edge4" class="edge">
<title>Node4&#45;&gt;Node5</title>
<path fill="none" stroke="#63b8ff" d="M1158.79,-249.25C1230.79,-238.95 1344.96,-213.4 1421.5,-151 1440.86,-135.22 1453.38,-108.77 1460.18,-90.63"/>
<polygon fill="#63b8ff" stroke="#63b8ff" points="1463.45,-91.9 1463.42,-81.31 1456.83,-89.61 1463.45,-91.9"/>
</g>
<!-- Node4&#45;&gt;Node7 -->
<g id="edge6" class="edge">
<title>Node4&#45;&gt;Node7</title>
<path fill="none" stroke="#63b8ff" d="M1024.32,-242.21C974.61,-232.01 907.73,-218.28 861.25,-208.74"/>
<polygon fill="#63b8ff" stroke="#63b8ff" points="862.17,-205.35 851.67,-206.77 860.76,-212.21 862.17,-205.35"/>
</g>
<!-- Node8 -->
<g id="node8" class="node">
<title>Node8</title>
<g id="a_node8"><a xlink:href="model_8h.html" target="_top" xlink:title="The model details data structure and its corresponding modifiers.">
<polygon fill="white" stroke="#666666" points="1369.5,-79.5 1263.5,-79.5 1263.5,-60.5 1369.5,-60.5 1369.5,-79.5"/>
<text text-anchor="middle" x="1316.5" y="-67.5" font-family="Helvetica,sans-Serif" font-size="10.00">ViennaRNA/model.h</text>
</a>
</g>
</g>
<!-- Node4&#45;&gt;Node8 -->
<g id="edge36" class="edge">
<title>Node4&#45;&gt;Node8</title>
<path fill="none" stroke="#63b8ff" d="M1116.48,-241.51C1132.16,-232.04 1152.55,-219.06 1169.5,-206 1195.97,-185.61 1265.99,-119.32 1298.92,-87.86"/>
<polygon fill="#63b8ff" stroke="#63b8ff" points="1301.26,-90.47 1306.06,-81.03 1296.42,-85.41 1301.26,-90.47"/>
</g>
<!-- Node4&#45;&gt;Node9 -->
<g id="edge37" class="edge">
<title>Node4&#45;&gt;Node9</title>
<path fill="none" stroke="#63b8ff" d="M1119.43,-241.53C1141.44,-231.87 1172.5,-218.65 1199.5,-206 1238.13,-187.9 1281.97,-165.06 1311.21,-150.73"/>
<polygon fill="#63b8ff" stroke="#63b8ff" points="1312.44,-154.03 1319.93,-146.53 1309.4,-147.72 1312.44,-154.03"/>
</g>
<!-- Node11 -->
<g id="node11" class="node">
<title>Node11</title>
<g id="a_node11"><a xlink:href="dp__matrices_8h.html" target="_top" xlink:title="Functions to deal with standard dynamic programming (DP) matrices.">
<polygon fill="white" stroke="#666666" points="1162,-145.5 1029,-145.5 1029,-126.5 1162,-126.5 1162,-145.5"/>
<text text-anchor="middle" x="1095.5" y="-133.5" font-family="Helvetica,sans-Serif" font-size="10.00">ViennaRNA/dp_matrices.h</text>
</a>
</g>
</g>
<!-- Node4&#45;&gt;Node11 -->
<g id="edge38" class="edge">
<title>Node4&#45;&gt;Node11</title>
<path fill="none" stroke="#63b8ff" d="M1087.42,-241.88C1085.43,-220.8 1086.56,-181 1089.63,-156.95"/>
<polygon fill="#63b8ff" stroke="#63b8ff" points="1093.07,-157.64 1091.23,-147.2 1086.16,-156.51 1093.07,-157.64"/>
</g>
<!-- Node12 -->
<g id="node12" class="node">
<title>Node12</title>
<g id="a_node12"><a xlink:href="hard_8h.html" target="_top" xlink:title="Functions and data structures for handling of secondary structure hard constraints.">
<polygon fill="white" stroke="#666666" points="256,-151 137,-151 137,-121 256,-121 256,-151"/>
<text text-anchor="start" x="145" y="-139" font-family="Helvetica,sans-Serif" font-size="10.00">ViennaRNA/constraints</text>
<text text-anchor="middle" x="196.5" y="-128" font-family="Helvetica,sans-Serif" font-size="10.00">/hard.h</text>
</a>
</g>
</g>
<!-- Node4&#45;&gt;Node12 -->
<g id="edge39" class="edge">
<title>Node4&#45;&gt;Node12</title>
<path fill="none" stroke="#63b8ff" d="M1024.05,-252.49C949.54,-247.31 826.59,-234.89 724.5,-206 704.4,-200.31 701.74,-192.19 681.5,-187 504.92,-141.71 450.74,-176.35 267.53,-151.3"/>
<polygon fill="#63b8ff" stroke="#63b8ff" points="268.02,-147.84 257.63,-149.9 267.04,-154.77 268.02,-147.84"/>
</g>
<!-- Node14 -->
<g id="node14" class="node">
<title>Node14</title>
<g id="a_node14"><a xlink:href="soft_8h.html" target="_top" xlink:title="Functions and data structures for secondary structure soft constraints.">
<polygon fill="white" stroke="#666666" points="119,-151 0,-151 0,-121 119,-121 119,-151"/>
<text text-anchor="start" x="8" y="-139" font-family="Helvetica,sans-Serif" font-size="10.00">ViennaRNA/constraints</text>
<text text-anchor="middle" x="59.5" y="-128" font-family="Helvetica,sans-Serif" font-size="10.00">/soft.h</text>
</a>
</g>
</g>
<!-- Node4&#45;&gt;Node14 -->
<g id="edge40" class="edge">
<title>Node4&#45;&gt;Node14</title>
<path fill="none" stroke="#63b8ff" d="M1024.08,-250.3C940.22,-242.37 793.14,-226.64 668.5,-206 628.17,-199.32 618.96,-192.83 578.5,-187 379.68,-158.36 323.82,-178.85 130.79,-152.7"/>
<polygon fill="#63b8ff" stroke="#63b8ff" points="131.28,-149.24 120.89,-151.33 130.32,-156.17 131.28,-149.24"/>
</g>
<!-- Node15 -->
<g id="node15" class="node">
<title>Node15</title>
<g id="a_node15"><a xlink:href="grammar_8h.html" target="_top" xlink:title="Implementations for the RNA folding grammar.">
<polygon fill="white" stroke="#666666" points="735,-145.5 618,-145.5 618,-126.5 735,-126.5 735,-145.5"/>
<text text-anchor="middle" x="676.5" y="-133.5" font-family="Helvetica,sans-Serif" font-size="10.00">ViennaRNA/grammar.h</text>
</a>
</g>
</g>
<!-- Node4&#45;&gt;Node15 -->
<g id="edge41" class="edge">
<title>Node4&#45;&gt;Node15</title>
<path fill="none" stroke="#63b8ff" d="M1040.92,-241.55C1009.45,-232.2 968.3,-219.32 932.5,-206 912.54,-198.57 908.72,-193.69 888.5,-187 859.4,-177.37 782.15,-159.89 729.39,-148.36"/>
<polygon fill="#63b8ff" stroke="#63b8ff" points="730.2,-144.95 719.68,-146.24 728.71,-151.79 730.2,-144.95"/>
</g>
<!-- Node16 -->
<g id="node16" class="node">
<title>Node16</title>
<g id="a_node16"><a xlink:href="structured__domains_8h.html" target="_top" xlink:title="This module provides interfaces that deal with additional structured domains in the folding grammar.">
<polygon fill="white" stroke="#666666" points="1011,-151 896,-151 896,-121 1011,-121 1011,-151"/>
<text text-anchor="start" x="904" y="-139" font-family="Helvetica,sans-Serif" font-size="10.00">ViennaRNA/structured</text>
<text text-anchor="middle" x="953.5" y="-128" font-family="Helvetica,sans-Serif" font-size="10.00">_domains.h</text>
</a>
</g>
</g>
<!-- Node4&#45;&gt;Node16 -->
<g id="edge42" class="edge">
<title>Node4&#45;&gt;Node16</title>
<path fill="none" stroke="#63b8ff" d="M1074.85,-241.65C1050.92,-221.01 1006.6,-182.79 978.66,-158.69"/>
<polygon fill="#63b8ff" stroke="#63b8ff" points="981.21,-156.27 971.35,-152.39 976.64,-161.57 981.21,-156.27"/>
</g>
<!-- Node17 -->
<g id="node17" class="node">
<title>Node17</title>
<g id="a_node17"><a xlink:href="unstructured__domains_8h.html" target="_top" xlink:title="Functions to modify unstructured domains, e.g. to incorporate ligands binding to unpaired stretches.">
<polygon fill="white" stroke="#666666" points="878,-151 753,-151 753,-121 878,-121 878,-151"/>
<text text-anchor="start" x="761" y="-139" font-family="Helvetica,sans-Serif" font-size="10.00">ViennaRNA/unstructured</text>
<text text-anchor="middle" x="815.5" y="-128" font-family="Helvetica,sans-Serif" font-size="10.00">_domains.h</text>
</a>
</g>
</g>
<!-- Node4&#45;&gt;Node17 -->
<g id="edge43" class="edge">
<title>Node4&#45;&gt;Node17</title>
<path fill="none" stroke="#63b8ff" d="M1051.43,-241.54C1017.18,-227.54 967.03,-205.75 923.5,-187 899.66,-176.73 873.05,-165.36 852.11,-156.05"/>
<polygon fill="#63b8ff" stroke="#63b8ff" points="853.66,-152.91 843.1,-152.01 850.8,-159.3 853.66,-152.91"/>
</g>
<!-- Node18 -->
<g id="node18" class="node">
<title>Node18</title>
<g id="a_node18"><a xlink:href="utils_2structures_8h.html" target="_top" xlink:title="Various utility&#45; and helper&#45;functions for secondary structure parsing, converting,...">
<polygon fill="white" stroke="#666666" points="1245.5,-79.5 1101.5,-79.5 1101.5,-60.5 1245.5,-60.5 1245.5,-79.5"/>
<text text-anchor="middle" x="1173.5" y="-67.5" font-family="Helvetica,sans-Serif" font-size="10.00">ViennaRNA/utils/structures.h</text>
</a>
</g>
</g>
<!-- Node4&#45;&gt;Node18 -->
<g id="edge44" class="edge">
<title>Node4&#45;&gt;Node18</title>
<path fill="none" stroke="#63b8ff" d="M1101.19,-241.52C1117.81,-222.8 1149.43,-188.19 1162.5,-151 1169.4,-131.36 1168.91,-107.31 1169.12,-90.74"/>
<polygon fill="#63b8ff" stroke="#63b8ff" points="1172.6,-91.36 1169.49,-81.23 1165.6,-91.09 1172.6,-91.36"/>
</g>
<!-- Node6 -->
<g id="node6" class="node">
<title>Node6</title>
<g id="a_node6"><a xlink:title=" ">
<polygon fill="#e0e0e0" stroke="#999999" points="1490.5,-19 1442.5,-19 1442.5,0 1490.5,0 1490.5,-19"/>
<text text-anchor="middle" x="1466.5" y="-7" font-family="Helvetica,sans-Serif" font-size="10.00">limits.h</text>
</a>
</g>
</g>
<!-- Node5&#45;&gt;Node6 -->
<g id="edge5" class="edge">
<title>Node5&#45;&gt;Node6</title>
<path fill="none" stroke="#63b8ff" d="M1466.5,-60.37C1466.5,-52.5 1466.5,-40.6 1466.5,-30.39"/>
<polygon fill="#63b8ff" stroke="#63b8ff" points="1470,-30.68 1466.5,-20.68 1463,-30.68 1470,-30.68"/>
</g>
<!-- Node7&#45;&gt;Node8 -->
<g id="edge7" class="edge">
<title>Node7&#45;&gt;Node8</title>
<path fill="none" stroke="#63b8ff" d="M733.24,-188.54C683.55,-182.13 624.16,-170.57 608.5,-151 600.17,-140.59 599.34,-130.69 608.5,-121 657.9,-68.77 1183.3,-94.95 1254.5,-85 1259.76,-84.27 1265.23,-83.31 1270.64,-82.25"/>
<polygon fill="#63b8ff" stroke="#63b8ff" points="1271.05,-85.74 1280.12,-80.26 1269.62,-78.89 1271.05,-85.74"/>
</g>
<!-- Node7&#45;&gt;Node9 -->
<g id="edge8" class="edge">
<title>Node7&#45;&gt;Node9</title>
<path fill="none" stroke="#63b8ff" d="M879.94,-186.96C980.19,-175.77 1159.12,-156.28 1262.95,-145.24"/>
<polygon fill="#63b8ff" stroke="#63b8ff" points="1263.22,-148.74 1272.8,-144.2 1262.48,-141.77 1263.22,-148.74"/>
</g>
<!-- Node10 -->
<g id="node10" class="node">
<title>Node10</title>
<g id="a_node10"><a xlink:href="sequence_8h.html" target="_top" xlink:title="Functions and data structures related to sequence representations ,.">
<polygon fill="white" stroke="#666666" points="523.5,-145.5 401.5,-145.5 401.5,-126.5 523.5,-126.5 523.5,-145.5"/>
<text text-anchor="middle" x="462.5" y="-133.5" font-family="Helvetica,sans-Serif" font-size="10.00">ViennaRNA/sequence.h</text>
</a>
</g>
</g>
<!-- Node7&#45;&gt;Node10 -->
<g id="edge13" class="edge">
<title>Node7&#45;&gt;Node10</title>
<path fill="none" stroke="#63b8ff" d="M743.11,-186.5C686.55,-177.75 601.81,-163.9 528.5,-151 523.16,-150.06 517.6,-149.06 512.08,-148.05"/>
<polygon fill="#63b8ff" stroke="#63b8ff" points="512.82,-144.63 502.35,-146.24 511.54,-151.51 512.82,-144.63"/>
</g>
<!-- Node7&#45;&gt;Node11 -->
<g id="edge15" class="edge">
<title>Node7&#45;&gt;Node11</title>
<path fill="none" stroke="#63b8ff" d="M845.68,-186.55C894.52,-176.23 978.26,-159.25 1035.25,-148.1"/>
<polygon fill="#63b8ff" stroke="#63b8ff" points="1035.64,-151.59 1044.79,-146.24 1034.3,-144.72 1035.64,-151.59"/>
</g>
<!-- Node7&#45;&gt;Node12 -->
<g id="edge18" class="edge">
<title>Node7&#45;&gt;Node12</title>
<path fill="none" stroke="#63b8ff" d="M733.43,-189.1C725.67,-188.37 717.91,-187.65 710.5,-187 512.57,-169.5 458.54,-179.09 267.66,-152.7"/>
<polygon fill="#63b8ff" stroke="#63b8ff" points="268.27,-149.26 257.88,-151.33 267.3,-156.19 268.27,-149.26"/>
</g>
<!-- Node7&#45;&gt;Node14 -->
<g id="edge22" class="edge">
<title>Node7&#45;&gt;Node14</title>
<path fill="none" stroke="#63b8ff" d="M733.15,-191.53C576.8,-182.68 218.17,-161.4 130.5,-152.38"/>
<polygon fill="#63b8ff" stroke="#63b8ff" points="131.05,-148.92 120.71,-151.27 130.25,-155.88 131.05,-148.92"/>
</g>
<!-- Node7&#45;&gt;Node15 -->
<g id="edge26" class="edge">
<title>Node7&#45;&gt;Node15</title>
<path fill="none" stroke="#63b8ff" d="M781.75,-186.62C758.65,-177.12 724.66,-161.95 701.5,-150.88"/>
<polygon fill="#63b8ff" stroke="#63b8ff" points="703.29,-147.86 692.76,-146.63 700.23,-154.15 703.29,-147.86"/>
</g>
<!-- Node7&#45;&gt;Node16 -->
<g id="edge28" class="edge">
<title>Node7&#45;&gt;Node16</title>
<path fill="none" stroke="#63b8ff" d="M828.83,-186.62C849.44,-178.41 880.71,-165.97 906.78,-155.59"/>
<polygon fill="#63b8ff" stroke="#63b8ff" points="907.81,-158.95 915.81,-152 905.22,-152.44 907.81,-158.95"/>
</g>
<!-- Node7&#45;&gt;Node17 -->
<g id="edge29" class="edge">
<title>Node7&#45;&gt;Node17</title>
<path fill="none" stroke="#63b8ff" d="M802.87,-186.87C802.47,-180.33 803.32,-170.99 804.94,-162.15"/>
<polygon fill="#63b8ff" stroke="#63b8ff" points="808.31,-163.12 807.12,-152.59 801.48,-161.56 808.31,-163.12"/>
</g>
<!-- Node20 -->
<g id="node20" class="node">
<title>Node20</title>
<g id="a_node20"><a xlink:href="zscore_8h_source.html" target="_top" xlink:title=" ">
<polygon fill="white" stroke="#666666" points="383,-145.5 274,-145.5 274,-126.5 383,-126.5 383,-145.5"/>
<text text-anchor="middle" x="328.5" y="-133.5" font-family="Helvetica,sans-Serif" font-size="10.00">ViennaRNA/zscore.h</text>
</a>
</g>
</g>
<!-- Node7&#45;&gt;Node20 -->
<g id="edge35" class="edge">
<title>Node7&#45;&gt;Node20</title>
<path fill="none" stroke="#63b8ff" d="M733.12,-188.05C623.21,-176.82 425.19,-156.32 392.5,-151 387.57,-150.2 382.44,-149.26 377.34,-148.25"/>
<polygon fill="#63b8ff" stroke="#63b8ff" points="378.26,-144.87 367.76,-146.28 376.84,-151.72 378.26,-144.87"/>
</g>
<!-- Node9&#45;&gt;Node4 -->
<g id="edge10" class="edge">
<title>Node9&#45;&gt;Node4</title>
<path fill="none" stroke="#63b8ff" d="M1332.82,-145.87C1310.81,-159.37 1260.88,-185.67 1217.5,-206 1194.19,-216.92 1167.85,-228.26 1145.23,-237.38"/>
<polygon fill="#63b8ff" stroke="#63b8ff" points="1144.19,-234.02 1136.19,-240.97 1146.78,-240.53 1144.19,-234.02"/>
</g>
<!-- Node9&#45;&gt;Node5 -->
<g id="edge9" class="edge">
<title>Node9&#45;&gt;Node5</title>
<path fill="none" stroke="#63b8ff" d="M1360.6,-126.1C1381.07,-115.45 1415.59,-97.49 1439.64,-84.98"/>
<polygon fill="#63b8ff" stroke="#63b8ff" points="1440.94,-88.24 1448.2,-80.52 1437.71,-82.03 1440.94,-88.24"/>
</g>
<!-- Node9&#45;&gt;Node7 -->
<g id="edge11" class="edge">
<title>Node9&#45;&gt;Node7</title>
<path fill="none" stroke="#63b8ff" d="M1274.16,-145.08C1175.99,-156.05 996.83,-175.57 891.01,-186.83"/>
<polygon fill="#63b8ff" stroke="#63b8ff" points="890.82,-183.33 881.25,-187.87 891.56,-190.3 890.82,-183.33"/>
</g>
<!-- Node9&#45;&gt;Node8 -->
<g id="edge12" class="edge">
<title>Node9&#45;&gt;Node8</title>
<path fill="none" stroke="#63b8ff" d="M1339.75,-126.1C1335.84,-116.84 1329.59,-102.04 1324.56,-90.11"/>
<polygon fill="#63b8ff" stroke="#63b8ff" points="1327.92,-89.07 1320.81,-81.22 1321.47,-91.79 1327.92,-89.07"/>
</g>
<!-- Node10&#45;&gt;Node7 -->
<g id="edge14" class="edge">
<title>Node10&#45;&gt;Node7</title>
<path fill="none" stroke="#63b8ff" d="M518.51,-145.96C527.9,-147.67 537.5,-149.42 546.5,-151 614.91,-163.04 693.27,-175.9 746.01,-184.68"/>
<polygon fill="#63b8ff" stroke="#63b8ff" points="745.26,-188.1 755.7,-186.3 746.41,-181.2 745.26,-188.1"/>
</g>
<!-- Node11&#45;&gt;Node4 -->
<g id="edge16" class="edge">
<title>Node11&#45;&gt;Node4</title>
<path fill="none" stroke="#63b8ff" d="M1098.94,-145.71C1101.58,-163.38 1100.85,-204.02 1097.99,-230.73"/>
<polygon fill="#63b8ff" stroke="#63b8ff" points="1094.55,-230.01 1096.73,-240.38 1101.49,-230.92 1094.55,-230.01"/>
</g>
<!-- Node11&#45;&gt;Node7 -->
<g id="edge17" class="edge">
<title>Node11&#45;&gt;Node7</title>
<path fill="none" stroke="#63b8ff" d="M1056.32,-145.95C1007.49,-156.27 923.75,-173.25 866.75,-184.4"/>
<polygon fill="#63b8ff" stroke="#63b8ff" points="866.36,-180.91 857.22,-186.26 867.7,-187.78 866.36,-180.91"/>
</g>
<!-- Node12&#45;&gt;Node7 -->
<g id="edge19" class="edge">
<title>Node12&#45;&gt;Node7</title>
<path fill="none" stroke="#63b8ff" d="M256.19,-148.17C262.05,-149.23 267.89,-150.2 273.5,-151 470.61,-178.98 524.45,-169.51 721.73,-186.42"/>
<polygon fill="#63b8ff" stroke="#63b8ff" points="721.3,-189.9 731.57,-187.28 721.91,-182.92 721.3,-189.9"/>
</g>
<!-- Node13 -->
<g id="node13" class="node">
<title>Node13</title>
<g id="a_node13"><a xlink:href="constraints_2basic_8h.html" target="_top" xlink:title="Functions and data structures for constraining secondary structure predictions and evaluation.">
<polygon fill="white" stroke="#666666" points="256,-85 137,-85 137,-55 256,-55 256,-85"/>
<text text-anchor="start" x="145" y="-73" font-family="Helvetica,sans-Serif" font-size="10.00">ViennaRNA/constraints</text>
<text text-anchor="middle" x="196.5" y="-62" font-family="Helvetica,sans-Serif" font-size="10.00">/basic.h</text>
</a>
</g>
</g>
<!-- Node12&#45;&gt;Node13 -->
<g id="edge20" class="edge">
<title>Node12&#45;&gt;Node13</title>
<path fill="none" stroke="#63b8ff" d="M196.5,-120.8C196.5,-113.67 196.5,-104.82 196.5,-96.56"/>
<polygon fill="#63b8ff" stroke="#63b8ff" points="200,-96.68 196.5,-86.68 193,-96.68 200,-96.68"/>
</g>
<!-- Node13&#45;&gt;Node7 -->
<g id="edge21" class="edge">
<title>Node13&#45;&gt;Node7</title>
<path fill="none" stroke="#63b8ff" d="M256.46,-74.86C324.52,-80.4 438.33,-93.19 532.5,-121 563.4,-130.13 567.9,-140.9 598.5,-151 643.7,-165.91 696.11,-177.09 737.01,-184.51"/>
<polygon fill="#63b8ff" stroke="#63b8ff" points="736.28,-187.94 746.73,-186.24 737.5,-181.04 736.28,-187.94"/>
</g>
<!-- Node14&#45;&gt;Node4 -->
<g id="edge23" class="edge">
<title>Node14&#45;&gt;Node4</title>
<path fill="none" stroke="#63b8ff" d="M119.19,-148.17C125.05,-149.23 130.89,-150.21 136.5,-151 339.55,-179.73 393.53,-157.76 596.5,-187 636.96,-192.83 646.17,-199.32 686.5,-206 799.57,-224.73 931.11,-239.41 1012.91,-247.89"/>
<polygon fill="#63b8ff" stroke="#63b8ff" points="1012.3,-251.35 1022.61,-248.89 1013.02,-244.39 1012.3,-251.35"/>
</g>
<!-- Node14&#45;&gt;Node7 -->
<g id="edge24" class="edge">
<title>Node14&#45;&gt;Node7</title>
<path fill="none" stroke="#63b8ff" d="M119.18,-148.24C125.04,-149.29 130.89,-150.24 136.5,-151 193.3,-158.67 554.19,-180.28 721.56,-190.29"/>
<polygon fill="#63b8ff" stroke="#63b8ff" points="721.32,-193.79 731.51,-190.89 721.74,-186.8 721.32,-193.79"/>
</g>
<!-- Node14&#45;&gt;Node13 -->
<g id="edge25" class="edge">
<title>Node14&#45;&gt;Node13</title>
<path fill="none" stroke="#63b8ff" d="M90.25,-120.64C109.55,-111.62 134.67,-99.89 155.63,-90.09"/>
<polygon fill="#63b8ff" stroke="#63b8ff" points="156.91,-93.36 164.49,-85.96 153.94,-87.02 156.91,-93.36"/>
</g>
<!-- Node15&#45;&gt;Node7 -->
<g id="edge27" class="edge">
<title>Node15&#45;&gt;Node7</title>
<path fill="none" stroke="#63b8ff" d="M701.46,-145.97C724.61,-155.49 758.61,-170.67 781.7,-181.72"/>
<polygon fill="#63b8ff" stroke="#63b8ff" points="779.88,-184.72 790.4,-185.95 782.94,-178.43 779.88,-184.72"/>
</g>
<!-- Node17&#45;&gt;Node4 -->
<g id="edge30" class="edge">
<title>Node17&#45;&gt;Node4</title>
<path fill="none" stroke="#63b8ff" d="M857.17,-151.5C881.92,-161.45 913.6,-174.99 941.5,-187 980.44,-203.77 1024.68,-222.98 1055.09,-236.86"/>
<polygon fill="#63b8ff" stroke="#63b8ff" points="1053.31,-239.9 1063.86,-240.91 1056.24,-233.54 1053.31,-239.9"/>
</g>
<!-- Node17&#45;&gt;Node7 -->
<g id="edge31" class="edge">
<title>Node17&#45;&gt;Node7</title>
<path fill="none" stroke="#63b8ff" d="M819.2,-151.11C819.01,-158.52 817.77,-167.71 815.95,-175.8"/>
<polygon fill="#63b8ff" stroke="#63b8ff" points="812.59,-174.84 813.2,-185.41 819.32,-176.76 812.59,-174.84"/>
</g>
<!-- Node17&#45;&gt;Node18 -->
<g id="edge32" class="edge">
<title>Node17&#45;&gt;Node18</title>
<path fill="none" stroke="#63b8ff" d="M878.21,-122.56C881.01,-122.03 883.78,-121.5 886.5,-121 962.61,-106.87 1050.29,-91.76 1108.51,-81.9"/>
<polygon fill="#63b8ff" stroke="#63b8ff" points="1108.98,-85.37 1118.25,-80.25 1107.81,-78.47 1108.98,-85.37"/>
</g>
<!-- Node18&#45;&gt;Node4 -->
<g id="edge34" class="edge">
<title>Node18&#45;&gt;Node4</title>
<path fill="none" stroke="#63b8ff" d="M1180.42,-79.72C1186.18,-94.76 1189.16,-126.36 1180.5,-151 1169.01,-183.68 1143.19,-214.38 1122.12,-234.04"/>
<polygon fill="#63b8ff" stroke="#63b8ff" points="1120,-231.24 1114.87,-240.51 1124.66,-236.47 1120,-231.24"/>
</g>
<!-- Node19 -->
<g id="node19" class="node">
<title>Node19</title>
<g id="a_node19"><a xlink:title=" ">
<polygon fill="#e0e0e0" stroke="#999999" points="1621.5,-19 1575.5,-19 1575.5,0 1621.5,0 1621.5,-19"/>
<text text-anchor="middle" x="1598.5" y="-7" font-family="Helvetica,sans-Serif" font-size="10.00">stdio.h</text>
</a>
</g>
</g>
<!-- Node18&#45;&gt;Node19 -->
<g id="edge33" class="edge">
<title>Node18&#45;&gt;Node19</title>
<path fill="none" stroke="#63b8ff" d="M1223.57,-60C1233.79,-58.26 1244.48,-56.51 1254.5,-55 1367.5,-37.93 1502,-21.72 1564.03,-14.47"/>
<polygon fill="#63b8ff" stroke="#63b8ff" points="1564.06,-17.99 1573.59,-13.35 1563.25,-11.03 1564.06,-17.99"/>
</g>
<!-- Node21&#45;&gt;Node4 -->
<g id="edge56" class="edge">
<title>Node21&#45;&gt;Node4</title>
<path fill="none" stroke="#63b8ff" d="M761.68,-417.87C762.42,-404.38 765.81,-378.24 780.5,-363 815.03,-327.18 840.59,-346.17 886.5,-327 903.92,-319.72 906.95,-314.96 924.5,-308 956.45,-295.34 992.91,-284.07 1023.6,-275.45"/>
<polygon fill="#63b8ff" stroke="#63b8ff" points="1024.46,-278.85 1033.17,-272.81 1022.6,-272.1 1024.46,-278.85"/>
</g>
<!-- Node21&#45;&gt;Node7 -->
<g id="edge57" class="edge">
<title>Node21&#45;&gt;Node7</title>
<path fill="none" stroke="#63b8ff" d="M694.16,-422.37C650.68,-416.12 604.16,-400.72 615.5,-363 634.06,-301.26 645.53,-282.74 695.5,-242 713.57,-227.27 737.15,-216.89 757.93,-209.89"/>
<polygon fill="#63b8ff" stroke="#63b8ff" points="758.9,-213.26 767.37,-206.9 756.78,-206.59 758.9,-213.26"/>
</g>
<!-- Node21&#45;&gt;Node9 -->
<g id="edge58" class="edge">
<title>Node21&#45;&gt;Node9</title>
<path fill="none" stroke="#63b8ff" d="M828.78,-421.15C965.99,-410.19 1266.13,-385.85 1276.5,-382 1321.71,-365.21 1364.5,-366.73 1364.5,-318.5 1364.5,-318.5 1364.5,-318.5 1364.5,-256 1364.5,-220.61 1355.38,-180.19 1349.16,-156.74"/>
<polygon fill="#63b8ff" stroke="#63b8ff" points="1352.6,-156.03 1346.56,-147.32 1345.85,-157.89 1352.6,-156.03"/>
</g>
<!-- Node22 -->
<g id="node22" class="node">
<title>Node22</title>
<g id="a_node22"><a xlink:title=" ">
<polygon fill="#e0e0e0" stroke="#999999" points="981,-327 934,-327 934,-308 981,-308 981,-327"/>
<text text-anchor="middle" x="957.5" y="-315" font-family="Helvetica,sans-Serif" font-size="10.00">math.h</text>
</a>
</g>
</g>
<!-- Node21&#45;&gt;Node22 -->
<g id="edge48" class="edge">
<title>Node21&#45;&gt;Node22</title>
<path fill="none" stroke="#63b8ff" d="M764.52,-417.67C769.68,-403.89 781.52,-377.37 800.5,-363 810.33,-355.56 879.36,-337.67 922.55,-326.97"/>
<polygon fill="#63b8ff" stroke="#63b8ff" points="923.37,-330.38 932.24,-324.59 921.7,-323.58 923.37,-330.38"/>
</g>
<!-- Node23 -->
<g id="node23" class="node">
<title>Node23</title>
<g id="a_node23"><a xlink:href="string_8h_source.html" target="_top" xlink:title=" ">
<polygon fill="white" stroke="#666666" points="507,-382 458,-382 458,-363 507,-363 507,-382"/>
<text text-anchor="middle" x="482.5" y="-370" font-family="Helvetica,sans-Serif" font-size="10.00">string.h</text>
</a>
</g>
</g>
<!-- Node21&#45;&gt;Node23 -->
<g id="edge49" class="edge">
<title>Node21&#45;&gt;Node23</title>
<path fill="none" stroke="#63b8ff" d="M714.17,-417.51C658.76,-406.98 568.22,-389.78 518.32,-380.3"/>
<polygon fill="#63b8ff" stroke="#63b8ff" points="519.11,-376.89 508.63,-378.46 517.8,-383.77 519.11,-376.89"/>
</g>
<!-- Node25 -->
<g id="node25" class="node">
<title>Node25</title>
<g id="a_node25"><a xlink:href="utils_2basic_8h.html" target="_top" xlink:title="General utility&#45; and helper&#45;functions used throughout the ViennaRNA Package.">
<polygon fill="white" stroke="#666666" points="1161.5,-327 1037.5,-327 1037.5,-308 1161.5,-308 1161.5,-327"/>
<text text-anchor="middle" x="1099.5" y="-315" font-family="Helvetica,sans-Serif" font-size="10.00">ViennaRNA/utils/basic.h</text>
</a>
</g>
</g>
<!-- Node21&#45;&gt;Node25 -->
<g id="edge52" class="edge">
<title>Node21&#45;&gt;Node25</title>
<path fill="none" stroke="#63b8ff" d="M809.24,-417.51C847.61,-409.74 902.64,-397.34 949.5,-382 993.06,-367.74 1041.6,-346.08 1071.34,-332.11"/>
<polygon fill="#63b8ff" stroke="#63b8ff" points="1072.5,-335.43 1080.04,-327.98 1069.5,-329.1 1072.5,-335.43"/>
</g>
<!-- Node27 -->
<g id="node27" class="node">
<title>Node27</title>
<g id="a_node27"><a xlink:href="salt_8h.html" target="_top" xlink:title="Functions to compute salt correction.">
<polygon fill="white" stroke="#666666" points="941,-382 810,-382 810,-363 941,-363 941,-382"/>
<text text-anchor="middle" x="875.5" y="-370" font-family="Helvetica,sans-Serif" font-size="10.00">ViennaRNA/params/salt.h</text>
</a>
</g>
</g>
<!-- Node21&#45;&gt;Node27 -->
<g id="edge59" class="edge">
<title>Node21&#45;&gt;Node27</title>
<path fill="none" stroke="#63b8ff" d="M780.84,-417.51C798.72,-409.2 825.54,-396.73 846.07,-387.18"/>
<polygon fill="#63b8ff" stroke="#63b8ff" points="847.48,-390.39 855.07,-383 844.53,-384.04 847.48,-390.39"/>
</g>
<!-- Node23&#45;&gt;Node23 -->
<g id="edge51" class="edge">
<title>Node23&#45;&gt;Node23</title>
<path fill="none" stroke="#63b8ff" d="M503.93,-382.45C515.01,-383.98 525,-380.66 525,-372.5 525,-367.27 520.9,-364.03 515.04,-362.78"/>
<polygon fill="#63b8ff" stroke="#63b8ff" points="515.51,-359.29 505.44,-362.58 515.37,-366.29 515.51,-359.29"/>
</g>
<!-- Node24 -->
<g id="node24" class="node">
<title>Node24</title>
<g id="a_node24"><a xlink:title=" ">
<polygon fill="#e0e0e0" stroke="#999999" points="508.5,-327 456.5,-327 456.5,-308 508.5,-308 508.5,-327"/>
<text text-anchor="middle" x="482.5" y="-315" font-family="Helvetica,sans-Serif" font-size="10.00">stddef.h</text>
</a>
</g>
</g>
<!-- Node23&#45;&gt;Node24 -->
<g id="edge50" class="edge">
<title>Node23&#45;&gt;Node24</title>
<path fill="none" stroke="#63b8ff" d="M482.5,-362.75C482.5,-356.27 482.5,-347.16 482.5,-338.9"/>
<polygon fill="#63b8ff" stroke="#63b8ff" points="486,-338.96 482.5,-328.96 479,-338.96 486,-338.96"/>
</g>
<!-- Node25&#45;&gt;Node4 -->
<g id="edge55" class="edge">
<title>Node25&#45;&gt;Node4</title>
<path fill="none" stroke="#63b8ff" d="M1098.32,-307.87C1097.44,-301.4 1096.18,-292.2 1094.98,-283.45"/>
<polygon fill="#63b8ff" stroke="#63b8ff" points="1098.46,-283.05 1093.64,-273.61 1091.52,-284 1098.46,-283.05"/>
</g>
<!-- Node25&#45;&gt;Node19 -->
<g id="edge53" class="edge">
<title>Node25&#45;&gt;Node19</title>
<path fill="none" stroke="#63b8ff" d="M1161.7,-312.83C1287.31,-303.97 1564.19,-276.71 1621.5,-206 1663.62,-154.03 1627.88,-67.23 1608.72,-29.25"/>
<polygon fill="#63b8ff" stroke="#63b8ff" points="1611.86,-27.7 1604.12,-20.47 1605.66,-30.95 1611.86,-27.7"/>
</g>
<!-- Node26 -->
<g id="node26" class="node">
<title>Node26</title>
<g id="a_node26"><a xlink:title=" ">
<polygon fill="#e0e0e0" stroke="#999999" points="1298.5,-266.5 1246.5,-266.5 1246.5,-247.5 1298.5,-247.5 1298.5,-266.5"/>
<text text-anchor="middle" x="1272.5" y="-254.5" font-family="Helvetica,sans-Serif" font-size="10.00">stdarg.h</text>
</a>
</g>
</g>
<!-- Node25&#45;&gt;Node26 -->
<g id="edge54" class="edge">
<title>Node25&#45;&gt;Node26</title>
<path fill="none" stroke="#63b8ff" d="M1126.54,-307.57C1153.44,-298.67 1195.87,-284.54 1232.5,-272 1233.83,-271.54 1235.19,-271.08 1236.56,-270.61"/>
<polygon fill="#63b8ff" stroke="#63b8ff" points="1237.4,-274.02 1245.7,-267.44 1235.1,-267.41 1237.4,-274.02"/>
</g>
<!-- Node27&#45;&gt;Node22 -->
<g id="edge60" class="edge">
<title>Node27&#45;&gt;Node22</title>
<path fill="none" stroke="#63b8ff" d="M889.41,-362.51C901.74,-354.54 919.97,-342.75 934.47,-333.38"/>
<polygon fill="#63b8ff" stroke="#63b8ff" points="936.03,-336.55 942.52,-328.18 932.23,-330.67 936.03,-336.55"/>
</g>
<!-- Node27&#45;&gt;Node25 -->
<g id="edge61" class="edge">
<title>Node27&#45;&gt;Node25</title>
<path fill="none" stroke="#63b8ff" d="M913.5,-362.51C951.26,-353.57 1009.35,-339.83 1050.55,-330.08"/>
<polygon fill="#63b8ff" stroke="#63b8ff" points="1051.29,-333.5 1060.22,-327.79 1049.68,-326.69 1051.29,-333.5"/>
</g>
<!-- Node28&#45;&gt;Node4 -->
<g id="edge67" class="edge">
<title>Node28&#45;&gt;Node4</title>
<path fill="none" stroke="#63b8ff" d="M955.88,-417.8C966.49,-397.25 995.15,-344.66 1028.5,-308 1038.02,-297.53 1049.87,-287.52 1060.72,-279.24"/>
<polygon fill="#63b8ff" stroke="#63b8ff" points="1062.74,-282.1 1068.69,-273.34 1058.57,-276.48 1062.74,-282.1"/>
</g>
<!-- Node28&#45;&gt;Node7 -->
<g id="edge68" class="edge">
<title>Node28&#45;&gt;Node7</title>
<path fill="none" stroke="#63b8ff" d="M882.69,-418.72C828.16,-408.28 756.64,-383.91 728.5,-327 707.4,-284.33 755.35,-237.12 785.1,-213.22"/>
<polygon fill="#63b8ff" stroke="#63b8ff" points="787.05,-216.14 792.81,-207.24 782.76,-210.6 787.05,-216.14"/>
</g>
<!-- Node28&#45;&gt;Node9 -->
<g id="edge69" class="edge">
<title>Node28&#45;&gt;Node9</title>
<path fill="none" stroke="#63b8ff" d="M1020.46,-424.27C1135.17,-419.86 1355.02,-408.06 1378.5,-382 1436.52,-317.62 1404.56,-269.66 1378.5,-187 1374.76,-175.13 1367.08,-163.62 1359.86,-154.64"/>
<polygon fill="#63b8ff" stroke="#63b8ff" points="1362.59,-152.44 1353.41,-147.15 1357.28,-157.01 1362.59,-152.44"/>
</g>
<!-- Node28&#45;&gt;Node12 -->
<g id="edge70" class="edge">
<title>Node28&#45;&gt;Node12</title>
<path fill="none" stroke="#63b8ff" d="M882.88,-418.44C843.42,-412.05 793.67,-400.92 752.5,-382 709.65,-362.31 667.5,-365.66 667.5,-318.5 667.5,-318.5 667.5,-318.5 667.5,-256 667.5,-99.63 459.94,-177.54 267.34,-151.26"/>
<polygon fill="#63b8ff" stroke="#63b8ff" points="268.05,-147.82 257.64,-149.82 267.03,-154.75 268.05,-147.82"/>
</g>
<!-- Node28&#45;&gt;Node14 -->
<g id="edge71" class="edge">
<title>Node28&#45;&gt;Node14</title>
<path fill="none" stroke="#63b8ff" d="M882.66,-418.65C830.81,-411.74 758.33,-399.94 696.5,-382 613.82,-358.01 597.61,-339.5 517.5,-308 370.32,-250.12 194.75,-185.91 110.1,-155.24"/>
<polygon fill="#63b8ff" stroke="#63b8ff" points="111.52,-152.03 100.92,-151.92 109.13,-158.61 111.52,-152.03"/>
</g>
<!-- Node28&#45;&gt;Node22 -->
<g id="edge63" class="edge">
<title>Node28&#45;&gt;Node22</title>
<path fill="none" stroke="#63b8ff" d="M951.99,-417.66C952.94,-400.57 955.05,-362.61 956.37,-338.92"/>
<polygon fill="#63b8ff" stroke="#63b8ff" points="959.86,-339.15 956.92,-328.97 952.87,-338.76 959.86,-339.15"/>
</g>
<!-- Node28&#45;&gt;Node25 -->
<g id="edge64" class="edge">
<title>Node28&#45;&gt;Node25</title>
<path fill="none" stroke="#63b8ff" d="M988.3,-417.51C1010.74,-410.62 1038.94,-399.31 1059.5,-382 1073.83,-369.94 1084.68,-351.4 1091.44,-337.46"/>
<polygon fill="#63b8ff" stroke="#63b8ff" points="1094.58,-339.01 1095.52,-328.46 1088.2,-336.12 1094.58,-339.01"/>
</g>
<!-- Node28&#45;&gt;Node27 -->
<g id="edge72" class="edge">
<title>Node28&#45;&gt;Node27</title>
<path fill="none" stroke="#63b8ff" d="M938.61,-417.51C927.4,-409.7 910.93,-398.21 897.62,-388.93"/>
<polygon fill="#63b8ff" stroke="#63b8ff" points="899.65,-386.07 889.44,-383.22 895.64,-391.81 899.65,-386.07"/>
</g>
<!-- Node29 -->
<g id="node29" class="node">
<title>Node29</title>
<g id="a_node29"><a xlink:href="default_8h_source.html" target="_top" xlink:title=" ">
<polygon fill="white" stroke="#666666" points="1612.5,-206 1468.5,-206 1468.5,-187 1612.5,-187 1612.5,-206"/>
<text text-anchor="middle" x="1540.5" y="-194" font-family="Helvetica,sans-Serif" font-size="10.00">ViennaRNA/params/default.h</text>
</a>
</g>
</g>
<!-- Node28&#45;&gt;Node29 -->
<g id="edge65" class="edge">
<title>Node28&#45;&gt;Node29</title>
<path fill="none" stroke="#63b8ff" d="M1020.34,-424.2C1149.82,-419.33 1419.75,-406.36 1454.5,-382 1510.66,-342.63 1531.09,-256.93 1537.7,-217.76"/>
<polygon fill="#63b8ff" stroke="#63b8ff" points="1541.15,-218.31 1539.21,-207.89 1534.23,-217.25 1541.15,-218.31"/>
</g>
<!-- Node29&#45;&gt;Node5 -->
<g id="edge66" class="edge">
<title>Node29&#45;&gt;Node5</title>
<path fill="none" stroke="#63b8ff" d="M1535.18,-186.55C1523.18,-166.36 1493.8,-116.93 1477.63,-89.72"/>
<polygon fill="#63b8ff" stroke="#63b8ff" points="1480.67,-87.98 1472.55,-81.17 1474.65,-91.56 1480.67,-87.98"/>
</g>
<!-- Node30&#45;&gt;Node4 -->
<g id="edge75" class="edge">
<title>Node30&#45;&gt;Node4</title>
<path fill="none" stroke="#63b8ff" d="M1195.39,-362.54C1203.14,-349.52 1214.56,-325.05 1203.5,-308 1194.6,-294.28 1180.97,-284.3 1166.24,-277.04"/>
<polygon fill="#63b8ff" stroke="#63b8ff" points="1167.85,-273.92 1157.29,-273.05 1165,-280.32 1167.85,-273.92"/>
</g>
<!-- Node30&#45;&gt;Node7 -->
<g id="edge76" class="edge">
<title>Node30&#45;&gt;Node7</title>
<path fill="none" stroke="#63b8ff" d="M1189.5,-362.7C1189,-348.96 1185.93,-322.5 1170.5,-308 1118.95,-259.58 1083.36,-291.91 1015.5,-272 952.32,-253.47 880.33,-226.47 839.47,-210.57"/>
<polygon fill="#63b8ff" stroke="#63b8ff" points="840.8,-207.34 830.21,-206.95 838.25,-213.85 840.8,-207.34"/>
</g>
<!-- Node30&#45;&gt;Node9 -->
<g id="edge77" class="edge">
<title>Node30&#45;&gt;Node9</title>
<path fill="none" stroke="#63b8ff" d="M1205.15,-362.69C1230.6,-347.54 1280.8,-314.09 1307.5,-272 1330.5,-235.75 1338.9,-185.11 1341.9,-157.29"/>
<polygon fill="#63b8ff" stroke="#63b8ff" points="1345.38,-157.73 1342.82,-147.45 1338.41,-157.08 1345.38,-157.73"/>
</g>
<!-- Node30&#45;&gt;Node25 -->
<g id="edge74" class="edge">
<title>Node30&#45;&gt;Node25</title>
<path fill="none" stroke="#63b8ff" d="M1174.23,-362.51C1160.57,-354.47 1140.3,-342.53 1124.32,-333.11"/>
<polygon fill="#63b8ff" stroke="#63b8ff" points="1126.24,-330.18 1115.85,-328.13 1122.69,-336.22 1126.24,-330.18"/>
</g>
</g>
</svg>
