<?xml version="1.0" encoding="UTF-8" standalone="no"?>
<!DOCTYPE svg PUBLIC "-//W3C//DTD SVG 1.1//EN"
 "http://www.w3.org/Graphics/SVG/1.1/DTD/svg11.dtd">
<!-- Generated by graphviz version 7.1.0 (0)
 -->
<!-- Title: ViennaRNA/LPfold.h Pages: 1 -->
<!--zoomable 401 -->
<svg id="main" version="1.1" xmlns="http://www.w3.org/2000/svg" xmlns:xlink="http://www.w3.org/1999/xlink" xml:space="preserve" onload="init(evt)">
<style type="text/css"><![CDATA[
.edge:hover path { stroke: red; }
.edge:hover polygon { stroke: red; fill: red; }
]]></style>
<script type="text/javascript"><![CDATA[
var edges = document.getElementsByTagName('g');
if (edges && edges.length) {
  for (var i=0;i<edges.length;i++) {
    if (edges[i].id.substr(0,4)=='edge') {
      edges[i].setAttribute('class','edge');
    }
  }
}
]]></script>
        <defs>
                <circle id="rim" cx="0" cy="0" r="7"/>
                <circle id="rim2" cx="0" cy="0" r="3.5"/>
                <g id="zoomPlus">
                        <use xlink:href="#rim" fill="#404040">
                                <set attributeName="fill" to="#808080" begin="zoomplus.mouseover" end="zoomplus.mouseout"/>
                        </use>
                        <path d="M-4,0h8M0,-4v8" fill="none" stroke="white" stroke-width="1.5" pointer-events="none"/>
                </g>
                <g id="zoomMin">
                        <use xlink:href="#rim" fill="#404040">
                                <set attributeName="fill" to="#808080" begin="zoomminus.mouseover" end="zoomminus.mouseout"/>
                        </use>
                        <path d="M-4,0h8" fill="none" stroke="white" stroke-width="1.5" pointer-events="none"/>
                </g>
                <g id="dirArrow">
                        <path fill="none" stroke="white" stroke-width="1.5" d="M0,-3.0v7 M-2.5,-0.5L0,-3.0L2.5,-0.5"/>
                </g>
               <g id="resetDef">
                       <use xlink:href="#rim2" fill="#404040">
                               <set attributeName="fill" to="#808080" begin="reset.mouseover" end="reset.mouseout"/>
                       </use>
               </g>
        </defs>

<script type="text/javascript">
var viewWidth = 1588;
var viewHeight = 401;
var sectionId = 'dynsection-0';
</script>
<script xlink:href="svgpan.js"/>
<svg id="graph" class="graph">
<g id="viewport">
<title>ViennaRNA/LPfold.h</title>
<!-- Node1 -->
<g id="node1" class="node">
<title>Node1</title>
<g id="a_node1"><a xlink:title="Partition function and equilibrium probability implementation for the sliding window algorithm.">
<polygon fill="#999999" stroke="#666666" points="901.5,-393 794.5,-393 794.5,-374 901.5,-374 901.5,-393"/>
<text text-anchor="middle" x="848" y="-381" font-family="Helvetica,sans-Serif" font-size="10.00">ViennaRNA/LPfold.h</text>
</a>
</g>
</g>
<!-- Node2 -->
<g id="node2" class="node">
<title>Node2</title>
<g id="a_node2"><a xlink:title=" ">
<polygon fill="#e0e0e0" stroke="#999999" points="73,-19 27,-19 27,0 73,0 73,-19"/>
<text text-anchor="middle" x="50" y="-7" font-family="Helvetica,sans-Serif" font-size="10.00">stdio.h</text>
</a>
</g>
</g>
<!-- Node1&#45;&gt;Node2 -->
<g id="edge1" class="edge">
<title>Node1&#45;&gt;Node2</title>
<path fill="none" stroke="#63b8ff" d="M794.31,-380.3C607.9,-371.97 0,-338.63 0,-258 0,-258 0,-258 0,-135 0,-98.46 4.07,-88.36 19,-55 23.22,-45.57 29.51,-36.06 35.33,-28.25"/>
<polygon fill="#63b8ff" stroke="#63b8ff" points="37.9,-30.65 41.32,-20.62 32.39,-26.33 37.9,-30.65"/>
</g>
<!-- Node3 -->
<g id="node3" class="node">
<title>Node3</title>
<g id="a_node3"><a xlink:href="datastructures_2basic_8h.html" target="_top" xlink:title="Various data structures and pre&#45;processor macros.">
<polygon fill="white" stroke="#666666" points="963,-272 829,-272 829,-242 963,-242 963,-272"/>
<text text-anchor="start" x="837" y="-260" font-family="Helvetica,sans-Serif" font-size="10.00">ViennaRNA/datastructures</text>
<text text-anchor="middle" x="896" y="-249" font-family="Helvetica,sans-Serif" font-size="10.00">/basic.h</text>
</a>
</g>
</g>
<!-- Node1&#45;&gt;Node3 -->
<g id="edge2" class="edge">
<title>Node1&#45;&gt;Node3</title>
<path fill="none" stroke="#63b8ff" d="M851.65,-373.66C855.34,-364.7 861.16,-350.42 866,-338 873.15,-319.65 880.95,-298.81 886.81,-283.01"/>
<polygon fill="#63b8ff" stroke="#63b8ff" points="889.99,-284.51 890.17,-273.91 883.42,-282.08 889.99,-284.51"/>
</g>
<!-- Node8 -->
<g id="node8" class="node">
<title>Node8</title>
<g id="a_node8"><a xlink:href="params_2basic_8h.html" target="_top" xlink:title="Functions to deal with sets of energy parameters.">
<polygon fill="white" stroke="#666666" points="1495,-145.5 1357,-145.5 1357,-126.5 1495,-126.5 1495,-145.5"/>
<text text-anchor="middle" x="1426" y="-133.5" font-family="Helvetica,sans-Serif" font-size="10.00">ViennaRNA/params/basic.h</text>
</a>
</g>
</g>
<!-- Node1&#45;&gt;Node8 -->
<g id="edge44" class="edge">
<title>Node1&#45;&gt;Node8</title>
<path fill="none" stroke="#63b8ff" d="M901.87,-376.55C1004.7,-362.82 1231.96,-320.8 1381,-206 1397.97,-192.93 1410.49,-171.52 1417.96,-156.02"/>
<polygon fill="#63b8ff" stroke="#63b8ff" points="1421.14,-157.48 1422.05,-146.93 1414.75,-154.61 1421.14,-157.48"/>
</g>
<!-- Node19 -->
<g id="node19" class="node">
<title>Node19</title>
<g id="a_node19"><a xlink:href="part__func__window_8h.html" target="_top" xlink:title="Partition function and equilibrium probability implementation for the sliding window algorithm.">
<polygon fill="white" stroke="#666666" points="857,-338 745,-338 745,-308 857,-308 857,-338"/>
<text text-anchor="start" x="753" y="-326" font-family="Helvetica,sans-Serif" font-size="10.00">ViennaRNA/part_func</text>
<text text-anchor="middle" x="801" y="-315" font-family="Helvetica,sans-Serif" font-size="10.00">_window.h</text>
</a>
</g>
</g>
<!-- Node1&#45;&gt;Node19 -->
<g id="edge45" class="edge">
<title>Node1&#45;&gt;Node19</title>
<path fill="none" stroke="#63b8ff" d="M841.06,-373.87C835.4,-366.81 827.11,-356.5 819.54,-347.08"/>
<polygon fill="#63b8ff" stroke="#63b8ff" points="822.28,-344.9 813.29,-339.29 816.82,-349.28 822.28,-344.9"/>
</g>
<!-- Node4 -->
<g id="node4" class="node">
<title>Node4</title>
<g id="a_node4"><a xlink:href="constants_8h.html" target="_top" xlink:title="Energy parameter constants.">
<polygon fill="white" stroke="#666666" points="1580,-79.5 1422,-79.5 1422,-60.5 1580,-60.5 1580,-79.5"/>
<text text-anchor="middle" x="1501" y="-67.5" font-family="Helvetica,sans-Serif" font-size="10.00">ViennaRNA/params/constants.h</text>
</a>
</g>
</g>
<!-- Node3&#45;&gt;Node4 -->
<g id="edge3" class="edge">
<title>Node3&#45;&gt;Node4</title>
<path fill="none" stroke="#63b8ff" d="M963.1,-255.76C1057.83,-253.92 1235.45,-244.97 1381,-206 1438.85,-190.51 1471.43,-201.25 1504,-151 1515.56,-133.17 1512.24,-108.1 1507.69,-90.8"/>
<polygon fill="#63b8ff" stroke="#63b8ff" points="1511.05,-89.8 1504.8,-81.24 1504.35,-91.83 1511.05,-89.8"/>
</g>
<!-- Node6 -->
<g id="node6" class="node">
<title>Node6</title>
<g id="a_node6"><a xlink:href="fold__compound_8h.html" target="_top" xlink:title="The Basic Fold Compound API.">
<polygon fill="white" stroke="#666666" points="870,-206 724,-206 724,-187 870,-187 870,-206"/>
<text text-anchor="middle" x="797" y="-194" font-family="Helvetica,sans-Serif" font-size="10.00">ViennaRNA/fold_compound.h</text>
</a>
</g>
</g>
<!-- Node3&#45;&gt;Node6 -->
<g id="edge5" class="edge">
<title>Node3&#45;&gt;Node6</title>
<path fill="none" stroke="#63b8ff" d="M871.53,-241.54C856.36,-232.58 836.94,-221.1 821.73,-212.11"/>
<polygon fill="#63b8ff" stroke="#63b8ff" points="823.66,-209.19 813.27,-207.12 820.1,-215.22 823.66,-209.19"/>
</g>
<!-- Node7 -->
<g id="node7" class="node">
<title>Node7</title>
<g id="a_node7"><a xlink:href="model_8h.html" target="_top" xlink:title="The model details data structure and its corresponding modifiers.">
<polygon fill="white" stroke="#666666" points="1382,-79.5 1276,-79.5 1276,-60.5 1382,-60.5 1382,-79.5"/>
<text text-anchor="middle" x="1329" y="-67.5" font-family="Helvetica,sans-Serif" font-size="10.00">ViennaRNA/model.h</text>
</a>
</g>
</g>
<!-- Node3&#45;&gt;Node7 -->
<g id="edge35" class="edge">
<title>Node3&#45;&gt;Node7</title>
<path fill="none" stroke="#63b8ff" d="M963.38,-247.32C1067.58,-232.55 1260.84,-199.36 1309,-151 1324.68,-135.25 1328.7,-109.18 1329.43,-91.1"/>
<polygon fill="#63b8ff" stroke="#63b8ff" points="1332.93,-91.39 1329.5,-81.36 1325.93,-91.34 1332.93,-91.39"/>
</g>
<!-- Node3&#45;&gt;Node8 -->
<g id="edge36" class="edge">
<title>Node3&#45;&gt;Node8</title>
<path fill="none" stroke="#63b8ff" d="M963.43,-252.9C1069.18,-247.44 1268.44,-233.91 1334,-206 1361.75,-194.19 1387.41,-169.95 1404.88,-153.59"/>
<polygon fill="#63b8ff" stroke="#63b8ff" points="1407.17,-156.24 1412.13,-146.88 1402.41,-151.11 1407.17,-156.24"/>
</g>
<!-- Node10 -->
<g id="node10" class="node">
<title>Node10</title>
<g id="a_node10"><a xlink:href="dp__matrices_8h.html" target="_top" xlink:title="Functions to deal with standard dynamic programming (DP) matrices.">
<polygon fill="white" stroke="#666666" points="413.5,-145.5 280.5,-145.5 280.5,-126.5 413.5,-126.5 413.5,-145.5"/>
<text text-anchor="middle" x="347" y="-133.5" font-family="Helvetica,sans-Serif" font-size="10.00">ViennaRNA/dp_matrices.h</text>
</a>
</g>
</g>
<!-- Node3&#45;&gt;Node10 -->
<g id="edge37" class="edge">
<title>Node3&#45;&gt;Node10</title>
<path fill="none" stroke="#63b8ff" d="M828.53,-242.35C716.24,-218.68 493.88,-170.46 395.58,-148.44"/>
<polygon fill="#63b8ff" stroke="#63b8ff" points="396.5,-145.06 385.97,-146.28 394.96,-151.89 396.5,-145.06"/>
</g>
<!-- Node11 -->
<g id="node11" class="node">
<title>Node11</title>
<g id="a_node11"><a xlink:href="hard_8h.html" target="_top" xlink:title="Functions and data structures for handling of secondary structure hard constraints.">
<polygon fill="white" stroke="#666666" points="856.5,-151 737.5,-151 737.5,-121 856.5,-121 856.5,-151"/>
<text text-anchor="start" x="745.5" y="-139" font-family="Helvetica,sans-Serif" font-size="10.00">ViennaRNA/constraints</text>
<text text-anchor="middle" x="797" y="-128" font-family="Helvetica,sans-Serif" font-size="10.00">/hard.h</text>
</a>
</g>
</g>
<!-- Node3&#45;&gt;Node11 -->
<g id="edge38" class="edge">
<title>Node3&#45;&gt;Node11</title>
<path fill="none" stroke="#63b8ff" d="M895.61,-241.72C894.53,-226.76 890.89,-203.22 879,-187 869.81,-174.46 856.44,-164.42 843.15,-156.73"/>
<polygon fill="#63b8ff" stroke="#63b8ff" points="844.87,-153.68 834.41,-152.02 841.55,-159.84 844.87,-153.68"/>
</g>
<!-- Node13 -->
<g id="node13" class="node">
<title>Node13</title>
<g id="a_node13"><a xlink:href="soft_8h.html" target="_top" xlink:title="Functions and data structures for secondary structure soft constraints.">
<polygon fill="white" stroke="#666666" points="1300.5,-151 1181.5,-151 1181.5,-121 1300.5,-121 1300.5,-151"/>
<text text-anchor="start" x="1189.5" y="-139" font-family="Helvetica,sans-Serif" font-size="10.00">ViennaRNA/constraints</text>
<text text-anchor="middle" x="1241" y="-128" font-family="Helvetica,sans-Serif" font-size="10.00">/soft.h</text>
</a>
</g>
</g>
<!-- Node3&#45;&gt;Node13 -->
<g id="edge39" class="edge">
<title>Node3&#45;&gt;Node13</title>
<path fill="none" stroke="#63b8ff" d="M933.36,-241.53C993.75,-219.76 1112.87,-178.62 1183.92,-154.97"/>
<polygon fill="#63b8ff" stroke="#63b8ff" points="1184.64,-158.41 1193.03,-151.94 1182.44,-151.77 1184.64,-158.41"/>
</g>
<!-- Node14 -->
<g id="node14" class="node">
<title>Node14</title>
<g id="a_node14"><a xlink:href="grammar_8h.html" target="_top" xlink:title="Implementations for the RNA folding grammar.">
<polygon fill="white" stroke="#666666" points="1030.5,-145.5 913.5,-145.5 913.5,-126.5 1030.5,-126.5 1030.5,-145.5"/>
<text text-anchor="middle" x="972" y="-133.5" font-family="Helvetica,sans-Serif" font-size="10.00">ViennaRNA/grammar.h</text>
</a>
</g>
</g>
<!-- Node3&#45;&gt;Node14 -->
<g id="edge40" class="edge">
<title>Node3&#45;&gt;Node14</title>
<path fill="none" stroke="#63b8ff" d="M905.02,-241.88C918.79,-220.31 945.08,-179.15 960.3,-155.31"/>
<polygon fill="#63b8ff" stroke="#63b8ff" points="963.19,-157.3 965.62,-146.99 957.29,-153.53 963.19,-157.3"/>
</g>
<!-- Node15 -->
<g id="node15" class="node">
<title>Node15</title>
<g id="a_node15"><a xlink:href="structured__domains_8h.html" target="_top" xlink:title="This module provides interfaces that deal with additional structured domains in the folding grammar.">
<polygon fill="white" stroke="#666666" points="1163.5,-151 1048.5,-151 1048.5,-121 1163.5,-121 1163.5,-151"/>
<text text-anchor="start" x="1056.5" y="-139" font-family="Helvetica,sans-Serif" font-size="10.00">ViennaRNA/structured</text>
<text text-anchor="middle" x="1106" y="-128" font-family="Helvetica,sans-Serif" font-size="10.00">_domains.h</text>
</a>
</g>
</g>
<!-- Node3&#45;&gt;Node15 -->
<g id="edge41" class="edge">
<title>Node3&#45;&gt;Node15</title>
<path fill="none" stroke="#63b8ff" d="M921.33,-241.65C958.62,-220.52 1028.43,-180.96 1070.71,-157"/>
<polygon fill="#63b8ff" stroke="#63b8ff" points="1072.29,-160.13 1079.26,-152.15 1068.84,-154.04 1072.29,-160.13"/>
</g>
<!-- Node16 -->
<g id="node16" class="node">
<title>Node16</title>
<g id="a_node16"><a xlink:href="unstructured__domains_8h.html" target="_top" xlink:title="Functions to modify unstructured domains, e.g. to incorporate ligands binding to unpaired stretches.">
<polygon fill="white" stroke="#666666" points="262.5,-151 137.5,-151 137.5,-121 262.5,-121 262.5,-151"/>
<text text-anchor="start" x="145.5" y="-139" font-family="Helvetica,sans-Serif" font-size="10.00">ViennaRNA/unstructured</text>
<text text-anchor="middle" x="200" y="-128" font-family="Helvetica,sans-Serif" font-size="10.00">_domains.h</text>
</a>
</g>
</g>
<!-- Node3&#45;&gt;Node16 -->
<g id="edge42" class="edge">
<title>Node3&#45;&gt;Node16</title>
<path fill="none" stroke="#63b8ff" d="M828.72,-246.52C763.76,-236.65 662.96,-220.61 576,-206 440.36,-183.22 403.42,-177.27 273.96,-153.22"/>
<polygon fill="#63b8ff" stroke="#63b8ff" points="274.77,-149.82 264.3,-151.43 273.49,-156.7 274.77,-149.82"/>
</g>
<!-- Node17 -->
<g id="node17" class="node">
<title>Node17</title>
<g id="a_node17"><a xlink:href="utils_2structures_8h.html" target="_top" xlink:title="Various utility&#45; and helper&#45;functions for secondary structure parsing, converting,...">
<polygon fill="white" stroke="#666666" points="172,-79.5 28,-79.5 28,-60.5 172,-60.5 172,-79.5"/>
<text text-anchor="middle" x="100" y="-67.5" font-family="Helvetica,sans-Serif" font-size="10.00">ViennaRNA/utils/structures.h</text>
</a>
</g>
</g>
<!-- Node3&#45;&gt;Node17 -->
<g id="edge43" class="edge">
<title>Node3&#45;&gt;Node17</title>
<path fill="none" stroke="#63b8ff" d="M828.65,-255.73C659.95,-253.78 225.62,-240.1 119,-151 101.38,-136.27 94.84,-109.77 94.45,-91.33"/>
<polygon fill="#63b8ff" stroke="#63b8ff" points="97.95,-91.55 95.06,-81.35 90.96,-91.12 97.95,-91.55"/>
</g>
<!-- Node5 -->
<g id="node5" class="node">
<title>Node5</title>
<g id="a_node5"><a xlink:title=" ">
<polygon fill="#e0e0e0" stroke="#999999" points="1525,-19 1477,-19 1477,0 1525,0 1525,-19"/>
<text text-anchor="middle" x="1501" y="-7" font-family="Helvetica,sans-Serif" font-size="10.00">limits.h</text>
</a>
</g>
</g>
<!-- Node4&#45;&gt;Node5 -->
<g id="edge4" class="edge">
<title>Node4&#45;&gt;Node5</title>
<path fill="none" stroke="#63b8ff" d="M1501,-60.37C1501,-52.5 1501,-40.6 1501,-30.39"/>
<polygon fill="#63b8ff" stroke="#63b8ff" points="1504.5,-30.68 1501,-20.68 1497.5,-30.68 1504.5,-30.68"/>
</g>
<!-- Node6&#45;&gt;Node7 -->
<g id="edge6" class="edge">
<title>Node6&#45;&gt;Node7</title>
<path fill="none" stroke="#63b8ff" d="M811.28,-186.6C825.18,-177.83 846.83,-163.91 865,-151 882.83,-138.34 883.74,-129.24 904,-121 967.78,-95.05 1162,-80.47 1264.34,-74.39"/>
<polygon fill="#63b8ff" stroke="#63b8ff" points="1264.46,-77.89 1274.24,-73.82 1264.05,-70.9 1264.46,-77.89"/>
</g>
<!-- Node6&#45;&gt;Node8 -->
<g id="edge7" class="edge">
<title>Node6&#45;&gt;Node8</title>
<path fill="none" stroke="#63b8ff" d="M870.19,-189.4C968.18,-181.48 1147.12,-166.79 1300,-151 1314.59,-149.49 1330.19,-147.73 1345.29,-145.98"/>
<polygon fill="#63b8ff" stroke="#63b8ff" points="1345.68,-149.45 1355.2,-144.82 1344.87,-142.5 1345.68,-149.45"/>
</g>
<!-- Node9 -->
<g id="node9" class="node">
<title>Node9</title>
<g id="a_node9"><a xlink:href="sequence_8h.html" target="_top" xlink:title="Functions and data structures related to sequence representations ,.">
<polygon fill="white" stroke="#666666" points="681,-145.5 559,-145.5 559,-126.5 681,-126.5 681,-145.5"/>
<text text-anchor="middle" x="620" y="-133.5" font-family="Helvetica,sans-Serif" font-size="10.00">ViennaRNA/sequence.h</text>
</a>
</g>
</g>
<!-- Node6&#45;&gt;Node9 -->
<g id="edge12" class="edge">
<title>Node6&#45;&gt;Node9</title>
<path fill="none" stroke="#63b8ff" d="M765.11,-186.62C733.28,-176.78 684.84,-160.84 652.73,-149.69"/>
<polygon fill="#63b8ff" stroke="#63b8ff" points="654.13,-146.48 643.54,-146.47 651.81,-153.08 654.13,-146.48"/>
</g>
<!-- Node6&#45;&gt;Node10 -->
<g id="edge14" class="edge">
<title>Node6&#45;&gt;Node10</title>
<path fill="none" stroke="#63b8ff" d="M723.54,-188.92C645.95,-181.21 520.43,-167.38 413,-151 407.03,-150.09 400.8,-149.06 394.65,-147.98"/>
<polygon fill="#63b8ff" stroke="#63b8ff" points="395.69,-144.61 385.23,-146.27 394.44,-151.5 395.69,-144.61"/>
</g>
<!-- Node6&#45;&gt;Node11 -->
<g id="edge17" class="edge">
<title>Node6&#45;&gt;Node11</title>
<path fill="none" stroke="#63b8ff" d="M792.04,-186.87C790.65,-180.4 790.07,-171.2 790.3,-162.45"/>
<polygon fill="#63b8ff" stroke="#63b8ff" points="793.78,-162.85 791.02,-152.62 786.8,-162.34 793.78,-162.85"/>
</g>
<!-- Node6&#45;&gt;Node13 -->
<g id="edge21" class="edge">
<title>Node6&#45;&gt;Node13</title>
<path fill="none" stroke="#63b8ff" d="M870.41,-187.89C944.48,-180.23 1061.86,-167.23 1163,-151 1165.31,-150.63 1167.66,-150.24 1170.04,-149.82"/>
<polygon fill="#63b8ff" stroke="#63b8ff" points="1170.57,-153.28 1179.79,-148.06 1169.33,-146.4 1170.57,-153.28"/>
</g>
<!-- Node6&#45;&gt;Node14 -->
<g id="edge25" class="edge">
<title>Node6&#45;&gt;Node14</title>
<path fill="none" stroke="#63b8ff" d="M818.57,-186.62C846.16,-176.69 894.2,-160.57 929.26,-149.4"/>
<polygon fill="#63b8ff" stroke="#63b8ff" points="930.22,-152.77 938.7,-146.42 928.11,-146.1 930.22,-152.77"/>
</g>
<!-- Node6&#45;&gt;Node15 -->
<g id="edge27" class="edge">
<title>Node6&#45;&gt;Node15</title>
<path fill="none" stroke="#63b8ff" d="M847.59,-186.56C894.2,-178.25 965.59,-165.31 1037.24,-151.32"/>
<polygon fill="#63b8ff" stroke="#63b8ff" points="1037.65,-154.8 1046.79,-149.45 1036.3,-147.93 1037.65,-154.8"/>
</g>
<!-- Node6&#45;&gt;Node16 -->
<g id="edge28" class="edge">
<title>Node6&#45;&gt;Node16</title>
<path fill="none" stroke="#63b8ff" d="M723.63,-192.18C622.64,-186.83 435.23,-174.62 274.03,-152.66"/>
<polygon fill="#63b8ff" stroke="#63b8ff" points="274.84,-149.24 264.46,-151.34 273.89,-156.18 274.84,-149.24"/>
</g>
<!-- Node18 -->
<g id="node18" class="node">
<title>Node18</title>
<g id="a_node18"><a xlink:href="zscore_8h_source.html" target="_top" xlink:title=" ">
<polygon fill="white" stroke="#666666" points="540.5,-145.5 431.5,-145.5 431.5,-126.5 540.5,-126.5 540.5,-145.5"/>
<text text-anchor="middle" x="486" y="-133.5" font-family="Helvetica,sans-Serif" font-size="10.00">ViennaRNA/zscore.h</text>
</a>
</g>
</g>
<!-- Node6&#45;&gt;Node18 -->
<g id="edge34" class="edge">
<title>Node6&#45;&gt;Node18</title>
<path fill="none" stroke="#63b8ff" d="M743.89,-186.52C693.8,-177.91 616.66,-164.29 550,-151 545.73,-150.15 541.31,-149.24 536.87,-148.31"/>
<polygon fill="#63b8ff" stroke="#63b8ff" points="537.89,-144.95 527.38,-146.28 536.43,-151.79 537.89,-144.95"/>
</g>
<!-- Node8&#45;&gt;Node3 -->
<g id="edge9" class="edge">
<title>Node8&#45;&gt;Node3</title>
<path fill="none" stroke="#63b8ff" d="M1424.15,-145.61C1414.61,-160.8 1384.76,-192.05 1352,-206 1286.36,-233.94 1086.69,-247.47 974.49,-252.92"/>
<polygon fill="#63b8ff" stroke="#63b8ff" points="974.59,-249.42 964.77,-253.39 974.92,-256.41 974.59,-249.42"/>
</g>
<!-- Node8&#45;&gt;Node4 -->
<g id="edge8" class="edge">
<title>Node8&#45;&gt;Node4</title>
<path fill="none" stroke="#63b8ff" d="M1436.43,-126.1C1448.18,-116.07 1467.54,-99.56 1481.99,-87.22"/>
<polygon fill="#63b8ff" stroke="#63b8ff" points="1484.17,-89.96 1489.51,-80.81 1479.63,-84.63 1484.17,-89.96"/>
</g>
<!-- Node8&#45;&gt;Node6 -->
<g id="edge10" class="edge">
<title>Node8&#45;&gt;Node6</title>
<path fill="none" stroke="#63b8ff" d="M1362.76,-145.99C1348.1,-147.74 1332.55,-149.5 1318,-151 1164.66,-166.83 985.09,-181.56 881.77,-189.47"/>
<polygon fill="#63b8ff" stroke="#63b8ff" points="881.69,-185.96 871.99,-190.21 882.22,-192.94 881.69,-185.96"/>
</g>
<!-- Node8&#45;&gt;Node7 -->
<g id="edge11" class="edge">
<title>Node8&#45;&gt;Node7</title>
<path fill="none" stroke="#63b8ff" d="M1412.51,-126.1C1396.8,-115.74 1370.6,-98.45 1351.73,-86"/>
<polygon fill="#63b8ff" stroke="#63b8ff" points="1353.91,-83.24 1343.64,-80.66 1350.06,-89.09 1353.91,-83.24"/>
</g>
<!-- Node9&#45;&gt;Node6 -->
<g id="edge13" class="edge">
<title>Node9&#45;&gt;Node6</title>
<path fill="none" stroke="#63b8ff" d="M652.16,-145.97C684.09,-155.84 732.52,-171.78 764.54,-182.9"/>
<polygon fill="#63b8ff" stroke="#63b8ff" points="763.1,-186.1 773.7,-186.11 765.42,-179.5 763.1,-186.1"/>
</g>
<!-- Node10&#45;&gt;Node3 -->
<g id="edge15" class="edge">
<title>Node10&#45;&gt;Node3</title>
<path fill="none" stroke="#63b8ff" d="M392.08,-145.95C486.88,-165.73 707.26,-213.42 822.66,-239.04"/>
<polygon fill="#63b8ff" stroke="#63b8ff" points="821.83,-242.44 832.35,-241.2 823.35,-235.61 821.83,-242.44"/>
</g>
<!-- Node10&#45;&gt;Node6 -->
<g id="edge16" class="edge">
<title>Node10&#45;&gt;Node6</title>
<path fill="none" stroke="#63b8ff" d="M401.32,-146C411.24,-147.78 421.44,-149.54 431,-151 527.32,-165.69 638.2,-178.32 712.5,-186.33"/>
<polygon fill="#63b8ff" stroke="#63b8ff" points="711.82,-189.78 722.14,-187.37 712.57,-182.82 711.82,-189.78"/>
</g>
<!-- Node11&#45;&gt;Node6 -->
<g id="edge18" class="edge">
<title>Node11&#45;&gt;Node6</title>
<path fill="none" stroke="#63b8ff" d="M802.87,-151.11C803.81,-158.43 803.99,-167.49 803.44,-175.51"/>
<polygon fill="#63b8ff" stroke="#63b8ff" points="799.98,-175 802.15,-185.37 806.92,-175.91 799.98,-175"/>
</g>
<!-- Node12 -->
<g id="node12" class="node">
<title>Node12</title>
<g id="a_node12"><a xlink:href="constraints_2basic_8h.html" target="_top" xlink:title="Functions and data structures for constraining secondary structure predictions and evaluation.">
<polygon fill="white" stroke="#666666" points="856.5,-85 737.5,-85 737.5,-55 856.5,-55 856.5,-85"/>
<text text-anchor="start" x="745.5" y="-73" font-family="Helvetica,sans-Serif" font-size="10.00">ViennaRNA/constraints</text>
<text text-anchor="middle" x="797" y="-62" font-family="Helvetica,sans-Serif" font-size="10.00">/basic.h</text>
</a>
</g>
</g>
<!-- Node11&#45;&gt;Node12 -->
<g id="edge19" class="edge">
<title>Node11&#45;&gt;Node12</title>
<path fill="none" stroke="#63b8ff" d="M797,-120.8C797,-113.67 797,-104.82 797,-96.56"/>
<polygon fill="#63b8ff" stroke="#63b8ff" points="800.5,-96.68 797,-86.68 793.5,-96.68 800.5,-96.68"/>
</g>
<!-- Node12&#45;&gt;Node6 -->
<g id="edge20" class="edge">
<title>Node12&#45;&gt;Node6</title>
<path fill="none" stroke="#63b8ff" d="M765.38,-85.37C751.21,-93.61 735.93,-105.45 728,-121 721.94,-132.88 721.62,-139.29 728,-151 735.32,-164.43 748.63,-174.42 761.62,-181.5"/>
<polygon fill="#63b8ff" stroke="#63b8ff" points="759.97,-184.59 770.49,-185.88 763.08,-178.31 759.97,-184.59"/>
</g>
<!-- Node13&#45;&gt;Node3 -->
<g id="edge22" class="edge">
<title>Node13&#45;&gt;Node3</title>
<path fill="none" stroke="#63b8ff" d="M1203.66,-151.46C1143.29,-173.23 1024.16,-214.37 953.11,-238.03"/>
<polygon fill="#63b8ff" stroke="#63b8ff" points="952.38,-234.58 943.99,-241.05 954.59,-241.22 952.38,-234.58"/>
</g>
<!-- Node13&#45;&gt;Node6 -->
<g id="edge23" class="edge">
<title>Node13&#45;&gt;Node6</title>
<path fill="none" stroke="#63b8ff" d="M1180.69,-151.05C1078.33,-167.47 959.43,-180.56 881.37,-188.18"/>
<polygon fill="#63b8ff" stroke="#63b8ff" points="881.28,-184.67 871.67,-189.12 881.96,-191.64 881.28,-184.67"/>
</g>
<!-- Node13&#45;&gt;Node12 -->
<g id="edge24" class="edge">
<title>Node13&#45;&gt;Node12</title>
<path fill="none" stroke="#63b8ff" d="M1181.21,-122.61C1178.1,-122.05 1175.01,-121.51 1172,-121 1066.65,-103.31 943.79,-87.91 868.2,-79.04"/>
<polygon fill="#63b8ff" stroke="#63b8ff" points="868.78,-75.58 858.44,-77.9 867.97,-82.54 868.78,-75.58"/>
</g>
<!-- Node14&#45;&gt;Node6 -->
<g id="edge26" class="edge">
<title>Node14&#45;&gt;Node6</title>
<path fill="none" stroke="#63b8ff" d="M950.2,-145.97C922.49,-155.92 874.44,-172.06 839.45,-183.19"/>
<polygon fill="#63b8ff" stroke="#63b8ff" points="838.52,-179.81 830.03,-186.16 840.62,-186.49 838.52,-179.81"/>
</g>
<!-- Node16&#45;&gt;Node3 -->
<g id="edge29" class="edge">
<title>Node16&#45;&gt;Node3</title>
<path fill="none" stroke="#63b8ff" d="M262.81,-147.75C268.64,-148.86 274.44,-149.97 280,-151 419.29,-176.93 454.28,-182.53 594,-206 670.03,-218.77 756.63,-232.64 817.61,-242.52"/>
<polygon fill="#63b8ff" stroke="#63b8ff" points="816.76,-245.93 827.19,-244.08 817.88,-239.02 816.76,-245.93"/>
</g>
<!-- Node16&#45;&gt;Node6 -->
<g id="edge30" class="edge">
<title>Node16&#45;&gt;Node6</title>
<path fill="none" stroke="#63b8ff" d="M262.73,-148.25C268.58,-149.27 274.4,-150.21 280,-151 431.77,-172.32 609.71,-184.77 712.36,-190.85"/>
<polygon fill="#63b8ff" stroke="#63b8ff" points="711.88,-194.33 722.07,-191.42 712.29,-187.34 711.88,-194.33"/>
</g>
<!-- Node16&#45;&gt;Node17 -->
<g id="edge31" class="edge">
<title>Node16&#45;&gt;Node17</title>
<path fill="none" stroke="#63b8ff" d="M177.81,-120.8C161.61,-110.43 139.69,-96.4 123.25,-85.88"/>
<polygon fill="#63b8ff" stroke="#63b8ff" points="125.4,-83.1 115.09,-80.66 121.63,-89 125.4,-83.1"/>
</g>
<!-- Node17&#45;&gt;Node2 -->
<g id="edge32" class="edge">
<title>Node17&#45;&gt;Node2</title>
<path fill="none" stroke="#63b8ff" d="M92.62,-60.37C85.31,-51.81 73.91,-38.47 64.74,-27.74"/>
<polygon fill="#63b8ff" stroke="#63b8ff" points="67.55,-25.65 58.39,-20.32 62.23,-30.19 67.55,-25.65"/>
</g>
<!-- Node17&#45;&gt;Node3 -->
<g id="edge33" class="edge">
<title>Node17&#45;&gt;Node3</title>
<path fill="none" stroke="#63b8ff" d="M105.44,-79.84C110.36,-96.57 115.21,-132.79 137,-151 239.45,-236.61 644.45,-252.59 817.27,-255.45"/>
<polygon fill="#63b8ff" stroke="#63b8ff" points="816.99,-258.94 827.05,-255.6 817.1,-251.94 816.99,-258.94"/>
</g>
<!-- Node19&#45;&gt;Node3 -->
<g id="edge46" class="edge">
<title>Node19&#45;&gt;Node3</title>
<path fill="none" stroke="#63b8ff" d="M822.08,-307.8C834.79,-299.24 851.18,-288.19 865.31,-278.68"/>
<polygon fill="#63b8ff" stroke="#63b8ff" points="867.05,-281.72 873.39,-273.23 863.14,-275.92 867.05,-281.72"/>
</g>
<!-- Node19&#45;&gt;Node6 -->
<g id="edge47" class="edge">
<title>Node19&#45;&gt;Node6</title>
<path fill="none" stroke="#63b8ff" d="M800.54,-307.72C799.83,-285.64 798.47,-243.12 797.65,-217.83"/>
<polygon fill="#63b8ff" stroke="#63b8ff" points="801.15,-217.78 797.33,-207.89 794.16,-218 801.15,-217.78"/>
</g>
<!-- Node19&#45;&gt;Node17 -->
<g id="edge48" class="edge">
<title>Node19&#45;&gt;Node17</title>
<path fill="none" stroke="#63b8ff" d="M744.8,-317.66C636.07,-307.88 390.66,-278.97 198,-206 153.09,-188.99 130.08,-191.95 105,-151 93.94,-132.94 94.26,-108.09 96.34,-90.9"/>
<polygon fill="#63b8ff" stroke="#63b8ff" points="99.77,-91.63 97.84,-81.21 92.85,-90.56 99.77,-91.63"/>
</g>
</g>
</svg>
        <g id="navigator" transform="translate(0 0)" fill="#404254">
                <rect fill="#f2f5e9" fill-opacity="0.5" stroke="#606060" stroke-width=".5" x="0" y="0" width="60" height="60"/>
                <use id="zoomplus" xlink:href="#zoomPlus" x="17" y="9" onmousedown="handleZoom(evt,'in')"/>
                <use id="zoomminus" xlink:href="#zoomMin" x="42" y="9" onmousedown="handleZoom(evt,'out')"/>
                <use id="reset" xlink:href="#resetDef" x="30" y="36" onmousedown="handleReset()"/>
                <g id="arrowUp" xlink:href="#dirArrow" transform="translate(30 24)" onmousedown="handlePan(0,-1)">
                  <use xlink:href="#rim" fill="#404040">
                        <set attributeName="fill" to="#808080" begin="arrowUp.mouseover" end="arrowUp.mouseout"/>
                  </use>
                  <path fill="none" stroke="white" stroke-width="1.5" d="M0,-3.0v7 M-2.5,-0.5L0,-3.0L2.5,-0.5"/>
                </g>
                <g id="arrowRight" xlink:href="#dirArrow" transform="rotate(90) translate(36 -43)" onmousedown="handlePan(1,0)">
                  <use xlink:href="#rim" fill="#404040">
                        <set attributeName="fill" to="#808080" begin="arrowRight.mouseover" end="arrowRight.mouseout"/>
                  </use>
                  <path fill="none" stroke="white" stroke-width="1.5" d="M0,-3.0v7 M-2.5,-0.5L0,-3.0L2.5,-0.5"/>
                </g>
                <g id="arrowDown" xlink:href="#dirArrow" transform="rotate(180) translate(-30 -48)" onmousedown="handlePan(0,1)">
                  <use xlink:href="#rim" fill="#404040">
                        <set attributeName="fill" to="#808080" begin="arrowDown.mouseover" end="arrowDown.mouseout"/>
                  </use>
                  <path fill="none" stroke="white" stroke-width="1.5" d="M0,-3.0v7 M-2.5,-0.5L0,-3.0L2.5,-0.5"/>
                </g>
                <g id="arrowLeft" xlink:href="#dirArrow" transform="rotate(270) translate(-36 17)" onmousedown="handlePan(-1,0)">
                  <use xlink:href="#rim" fill="#404040">
                        <set attributeName="fill" to="#808080" begin="arrowLeft.mouseover" end="arrowLeft.mouseout"/>
                  </use>
                  <path fill="none" stroke="white" stroke-width="1.5" d="M0,-3.0v7 M-2.5,-0.5L0,-3.0L2.5,-0.5"/>
                </g>
        </g>
        <svg viewBox="0 0 15 15" width="100%" height="30px" preserveAspectRatio="xMaxYMin meet">
         <g id="arrow_out" transform="scale(0.3 0.3)">
          <a xlink:href="LPfold_8h__incl_org.svg" target="_base">
           <rect id="button" ry="5" rx="5" y="6" x="6" height="38" width="38"
                fill="#f2f5e9" fill-opacity="0.5" stroke="#606060" stroke-width="1.0"/>
           <path id="arrow"
             d="M 11.500037,31.436501 C 11.940474,20.09759 22.043105,11.32322 32.158766,21.979434 L 37.068811,17.246167 C 37.068811,17.246167 37.088388,32 37.088388,32 L 22.160133,31.978069 C 22.160133,31.978069 26.997745,27.140456 26.997745,27.140456 C 18.528582,18.264221 13.291696,25.230495 11.500037,31.436501 z"
             style="fill:#404040;"/>
          </a>
         </g>
        </svg>
</svg>
