<?xml version="1.0" encoding="UTF-8" standalone="no"?>
<!DOCTYPE svg PUBLIC "-//W3C//DTD SVG 1.1//EN"
 "http://www.w3.org/Graphics/SVG/1.1/DTD/svg11.dtd">
<!-- Generated by graphviz version 7.1.0 (0)
 -->
<!-- Title: ViennaRNA/MEA.h Pages: 1 -->
<!--zoomable 335 -->
<svg id="main" version="1.1" xmlns="http://www.w3.org/2000/svg" xmlns:xlink="http://www.w3.org/1999/xlink" xml:space="preserve" onload="init(evt)">
<style type="text/css"><![CDATA[
.edge:hover path { stroke: red; }
.edge:hover polygon { stroke: red; fill: red; }
]]></style>
<script type="text/javascript"><![CDATA[
var edges = document.getElementsByTagName('g');
if (edges && edges.length) {
  for (var i=0;i<edges.length;i++) {
    if (edges[i].id.substr(0,4)=='edge') {
      edges[i].setAttribute('class','edge');
    }
  }
}
]]></script>
        <defs>
                <circle id="rim" cx="0" cy="0" r="7"/>
                <circle id="rim2" cx="0" cy="0" r="3.5"/>
                <g id="zoomPlus">
                        <use xlink:href="#rim" fill="#404040">
                                <set attributeName="fill" to="#808080" begin="zoomplus.mouseover" end="zoomplus.mouseout"/>
                        </use>
                        <path d="M-4,0h8M0,-4v8" fill="none" stroke="white" stroke-width="1.5" pointer-events="none"/>
                </g>
                <g id="zoomMin">
                        <use xlink:href="#rim" fill="#404040">
                                <set attributeName="fill" to="#808080" begin="zoomminus.mouseover" end="zoomminus.mouseout"/>
                        </use>
                        <path d="M-4,0h8" fill="none" stroke="white" stroke-width="1.5" pointer-events="none"/>
                </g>
                <g id="dirArrow">
                        <path fill="none" stroke="white" stroke-width="1.5" d="M0,-3.0v7 M-2.5,-0.5L0,-3.0L2.5,-0.5"/>
                </g>
               <g id="resetDef">
                       <use xlink:href="#rim2" fill="#404040">
                               <set attributeName="fill" to="#808080" begin="reset.mouseover" end="reset.mouseout"/>
                       </use>
               </g>
        </defs>

<script type="text/javascript">
var viewWidth = 1508;
var viewHeight = 335;
var sectionId = 'dynsection-0';
</script>
<script xlink:href="svgpan.js"/>
<svg id="graph" class="graph">
<g id="viewport">
<title>ViennaRNA/MEA.h</title>
<!-- Node1 -->
<g id="node1" class="node">
<title>Node1</title>
<g id="a_node1"><a xlink:title="Computes a MEA (maximum expected accuracy) structure.">
<polygon fill="#999999" stroke="#666666" points="462.5,-327 361.5,-327 361.5,-308 462.5,-308 462.5,-327"/>
<text text-anchor="middle" x="412" y="-315" font-family="Helvetica,sans-Serif" font-size="10.00">ViennaRNA/MEA.h</text>
</a>
</g>
</g>
<!-- Node2 -->
<g id="node2" class="node">
<title>Node2</title>
<g id="a_node2"><a xlink:href="datastructures_2basic_8h.html" target="_top" xlink:title="Various data structures and pre&#45;processor macros.">
<polygon fill="white" stroke="#666666" points="779,-272 645,-272 645,-242 779,-242 779,-272"/>
<text text-anchor="start" x="653" y="-260" font-family="Helvetica,sans-Serif" font-size="10.00">ViennaRNA/datastructures</text>
<text text-anchor="middle" x="712" y="-249" font-family="Helvetica,sans-Serif" font-size="10.00">/basic.h</text>
</a>
</g>
</g>
<!-- Node1&#45;&gt;Node2 -->
<g id="edge1" class="edge">
<title>Node1&#45;&gt;Node2</title>
<path fill="none" stroke="#63b8ff" d="M457.89,-307.55C504.5,-298.46 577.56,-284.22 633.4,-273.33"/>
<polygon fill="#63b8ff" stroke="#63b8ff" points="634.05,-276.77 643.2,-271.42 632.71,-269.89 634.05,-276.77"/>
</g>
<!-- Node7 -->
<g id="node7" class="node">
<title>Node7</title>
<g id="a_node7"><a xlink:href="params_2basic_8h.html" target="_top" xlink:title="Functions to deal with sets of energy parameters.">
<polygon fill="white" stroke="#666666" points="223,-145.5 85,-145.5 85,-126.5 223,-126.5 223,-145.5"/>
<text text-anchor="middle" x="154" y="-133.5" font-family="Helvetica,sans-Serif" font-size="10.00">ViennaRNA/params/basic.h</text>
</a>
</g>
</g>
<!-- Node1&#45;&gt;Node7 -->
<g id="edge43" class="edge">
<title>Node1&#45;&gt;Node7</title>
<path fill="none" stroke="#63b8ff" d="M386.36,-307.61C344.26,-292.08 259.42,-256.74 202,-206 185.63,-191.54 172,-170.4 163.49,-155.34"/>
<polygon fill="#63b8ff" stroke="#63b8ff" points="166.8,-154.09 158.96,-146.96 160.64,-157.42 166.8,-154.09"/>
</g>
<!-- Node3 -->
<g id="node3" class="node">
<title>Node3</title>
<g id="a_node3"><a xlink:href="constants_8h.html" target="_top" xlink:title="Energy parameter constants.">
<polygon fill="white" stroke="#666666" points="158,-79.5 0,-79.5 0,-60.5 158,-60.5 158,-79.5"/>
<text text-anchor="middle" x="79" y="-67.5" font-family="Helvetica,sans-Serif" font-size="10.00">ViennaRNA/params/constants.h</text>
</a>
</g>
</g>
<!-- Node2&#45;&gt;Node3 -->
<g id="edge2" class="edge">
<title>Node2&#45;&gt;Node3</title>
<path fill="none" stroke="#63b8ff" d="M644.82,-256.06C546.15,-254.67 356.97,-246.34 202,-206 142.87,-190.61 109.47,-202.12 76,-151 64.31,-133.13 67.73,-107.9 72.33,-90.58"/>
<polygon fill="#63b8ff" stroke="#63b8ff" points="75.61,-91.84 75.18,-81.25 68.91,-89.8 75.61,-91.84"/>
</g>
<!-- Node5 -->
<g id="node5" class="node">
<title>Node5</title>
<g id="a_node5"><a xlink:href="fold__compound_8h.html" target="_top" xlink:title="The Basic Fold Compound API.">
<polygon fill="white" stroke="#666666" points="785,-206 639,-206 639,-187 785,-187 785,-206"/>
<text text-anchor="middle" x="712" y="-194" font-family="Helvetica,sans-Serif" font-size="10.00">ViennaRNA/fold_compound.h</text>
</a>
</g>
</g>
<!-- Node2&#45;&gt;Node5 -->
<g id="edge4" class="edge">
<title>Node2&#45;&gt;Node5</title>
<path fill="none" stroke="#63b8ff" d="M712,-241.54C712,-234.34 712,-225.53 712,-217.68"/>
<polygon fill="#63b8ff" stroke="#63b8ff" points="715.5,-217.69 712,-207.69 708.5,-217.69 715.5,-217.69"/>
</g>
<!-- Node6 -->
<g id="node6" class="node">
<title>Node6</title>
<g id="a_node6"><a xlink:href="model_8h.html" target="_top" xlink:title="The model details data structure and its corresponding modifiers.">
<polygon fill="white" stroke="#666666" points="304,-79.5 198,-79.5 198,-60.5 304,-60.5 304,-79.5"/>
<text text-anchor="middle" x="251" y="-67.5" font-family="Helvetica,sans-Serif" font-size="10.00">ViennaRNA/model.h</text>
</a>
</g>
</g>
<!-- Node2&#45;&gt;Node6 -->
<g id="edge34" class="edge">
<title>Node2&#45;&gt;Node6</title>
<path fill="none" stroke="#63b8ff" d="M644.56,-248.5C534.52,-234.92 323.33,-202.74 271,-151 255.2,-135.37 251.2,-109.28 250.51,-91.16"/>
<polygon fill="#63b8ff" stroke="#63b8ff" points="254.01,-91.37 250.47,-81.39 247.01,-91.41 254.01,-91.37"/>
</g>
<!-- Node2&#45;&gt;Node7 -->
<g id="edge35" class="edge">
<title>Node2&#45;&gt;Node7</title>
<path fill="none" stroke="#63b8ff" d="M644.53,-253.92C529.46,-249.46 300.96,-236.78 228,-206 200.83,-194.54 175.71,-171.1 162.47,-154.74"/>
<polygon fill="#63b8ff" stroke="#63b8ff" points="165.45,-152.89 156.73,-146.86 159.79,-157 165.45,-152.89"/>
</g>
<!-- Node9 -->
<g id="node9" class="node">
<title>Node9</title>
<g id="a_node9"><a xlink:href="dp__matrices_8h.html" target="_top" xlink:title="Functions to deal with standard dynamic programming (DP) matrices.">
<polygon fill="white" stroke="#666666" points="412.5,-145.5 279.5,-145.5 279.5,-126.5 412.5,-126.5 412.5,-145.5"/>
<text text-anchor="middle" x="346" y="-133.5" font-family="Helvetica,sans-Serif" font-size="10.00">ViennaRNA/dp_matrices.h</text>
</a>
</g>
</g>
<!-- Node2&#45;&gt;Node9 -->
<g id="edge36" class="edge">
<title>Node2&#45;&gt;Node9</title>
<path fill="none" stroke="#63b8ff" d="M662.89,-241.53C587.54,-217.99 445.59,-171.81 380.3,-149.56"/>
<polygon fill="#63b8ff" stroke="#63b8ff" points="381.79,-146.38 371.19,-146.44 379.52,-153 381.79,-146.38"/>
</g>
<!-- Node10 -->
<g id="node10" class="node">
<title>Node10</title>
<g id="a_node10"><a xlink:href="hard_8h.html" target="_top" xlink:title="Functions and data structures for handling of secondary structure hard constraints.">
<polygon fill="white" stroke="#666666" points="588.5,-151 469.5,-151 469.5,-121 588.5,-121 588.5,-151"/>
<text text-anchor="start" x="477.5" y="-139" font-family="Helvetica,sans-Serif" font-size="10.00">ViennaRNA/constraints</text>
<text text-anchor="middle" x="529" y="-128" font-family="Helvetica,sans-Serif" font-size="10.00">/hard.h</text>
</a>
</g>
</g>
<!-- Node2&#45;&gt;Node10 -->
<g id="edge37" class="edge">
<title>Node2&#45;&gt;Node10</title>
<path fill="none" stroke="#63b8ff" d="M687.76,-241.67C671.32,-231.84 649.19,-218.39 630,-206 605.62,-190.26 578.5,-171.66 558.5,-157.75"/>
<polygon fill="#63b8ff" stroke="#63b8ff" points="560.74,-155.04 550.54,-152.19 556.73,-160.78 560.74,-155.04"/>
</g>
<!-- Node12 -->
<g id="node12" class="node">
<title>Node12</title>
<g id="a_node12"><a xlink:href="soft_8h.html" target="_top" xlink:title="Functions and data structures for secondary structure soft constraints.">
<polygon fill="white" stroke="#666666" points="1031.5,-151 912.5,-151 912.5,-121 1031.5,-121 1031.5,-151"/>
<text text-anchor="start" x="920.5" y="-139" font-family="Helvetica,sans-Serif" font-size="10.00">ViennaRNA/constraints</text>
<text text-anchor="middle" x="972" y="-128" font-family="Helvetica,sans-Serif" font-size="10.00">/soft.h</text>
</a>
</g>
</g>
<!-- Node2&#45;&gt;Node12 -->
<g id="edge38" class="edge">
<title>Node2&#45;&gt;Node12</title>
<path fill="none" stroke="#63b8ff" d="M738.78,-241.65C782.92,-220.2 871.06,-179.78 925.52,-155.94"/>
<polygon fill="#63b8ff" stroke="#63b8ff" points="926.78,-159.21 934.55,-152.01 923.98,-152.79 926.78,-159.21"/>
</g>
<!-- Node13 -->
<g id="node13" class="node">
<title>Node13</title>
<g id="a_node13"><a xlink:href="grammar_8h.html" target="_top" xlink:title="Implementations for the RNA folding grammar.">
<polygon fill="white" stroke="#666666" points="1166.5,-145.5 1049.5,-145.5 1049.5,-126.5 1166.5,-126.5 1166.5,-145.5"/>
<text text-anchor="middle" x="1108" y="-133.5" font-family="Helvetica,sans-Serif" font-size="10.00">ViennaRNA/grammar.h</text>
</a>
</g>
</g>
<!-- Node2&#45;&gt;Node13 -->
<g id="edge39" class="edge">
<title>Node2&#45;&gt;Node13</title>
<path fill="none" stroke="#63b8ff" d="M760.16,-241.53C838.98,-217.84 994.07,-171.24 1067.56,-149.15"/>
<polygon fill="#63b8ff" stroke="#63b8ff" points="1068.19,-152.62 1076.76,-146.39 1066.17,-145.91 1068.19,-152.62"/>
</g>
<!-- Node14 -->
<g id="node14" class="node">
<title>Node14</title>
<g id="a_node14"><a xlink:href="structured__domains_8h.html" target="_top" xlink:title="This module provides interfaces that deal with additional structured domains in the folding grammar.">
<polygon fill="white" stroke="#666666" points="1299.5,-151 1184.5,-151 1184.5,-121 1299.5,-121 1299.5,-151"/>
<text text-anchor="start" x="1192.5" y="-139" font-family="Helvetica,sans-Serif" font-size="10.00">ViennaRNA/structured</text>
<text text-anchor="middle" x="1242" y="-128" font-family="Helvetica,sans-Serif" font-size="10.00">_domains.h</text>
</a>
</g>
</g>
<!-- Node2&#45;&gt;Node14 -->
<g id="edge40" class="edge">
<title>Node2&#45;&gt;Node14</title>
<path fill="none" stroke="#63b8ff" d="M776.46,-241.53C876.84,-218.99 1069.66,-175.69 1172.84,-152.53"/>
<polygon fill="#63b8ff" stroke="#63b8ff" points="1173.59,-155.95 1182.58,-150.34 1172.06,-149.12 1173.59,-155.95"/>
</g>
<!-- Node15 -->
<g id="node15" class="node">
<title>Node15</title>
<g id="a_node15"><a xlink:href="unstructured__domains_8h.html" target="_top" xlink:title="Functions to modify unstructured domains, e.g. to incorporate ligands binding to unpaired stretches.">
<polygon fill="white" stroke="#666666" points="1499.5,-151 1374.5,-151 1374.5,-121 1499.5,-121 1499.5,-151"/>
<text text-anchor="start" x="1382.5" y="-139" font-family="Helvetica,sans-Serif" font-size="10.00">ViennaRNA/unstructured</text>
<text text-anchor="middle" x="1437" y="-128" font-family="Helvetica,sans-Serif" font-size="10.00">_domains.h</text>
</a>
</g>
</g>
<!-- Node2&#45;&gt;Node15 -->
<g id="edge41" class="edge">
<title>Node2&#45;&gt;Node15</title>
<path fill="none" stroke="#63b8ff" d="M779.29,-256.21C921.83,-255.71 1249.06,-249.56 1351,-206 1374.75,-195.85 1396.14,-175.31 1411.9,-159.26"/>
<polygon fill="#63b8ff" stroke="#63b8ff" points="1414.08,-162.04 1418.56,-152.44 1409.07,-157.15 1414.08,-162.04"/>
</g>
<!-- Node16 -->
<g id="node16" class="node">
<title>Node16</title>
<g id="a_node16"><a xlink:href="utils_2structures_8h.html" target="_top" xlink:title="Various utility&#45; and helper&#45;functions for secondary structure parsing, converting,...">
<polygon fill="white" stroke="#666666" points="1409,-79.5 1265,-79.5 1265,-60.5 1409,-60.5 1409,-79.5"/>
<text text-anchor="middle" x="1337" y="-67.5" font-family="Helvetica,sans-Serif" font-size="10.00">ViennaRNA/utils/structures.h</text>
</a>
</g>
</g>
<!-- Node2&#45;&gt;Node16 -->
<g id="edge42" class="edge">
<title>Node2&#45;&gt;Node16</title>
<path fill="none" stroke="#63b8ff" d="M779.46,-252.25C916.73,-243.54 1221.85,-217.38 1300,-151 1317.67,-135.99 1324.2,-109.15 1328.7,-90.73"/>
<polygon fill="#63b8ff" stroke="#63b8ff" points="1332.03,-91.83 1331.16,-81.27 1325.26,-90.07 1332.03,-91.83"/>
</g>
<!-- Node4 -->
<g id="node4" class="node">
<title>Node4</title>
<g id="a_node4"><a xlink:title=" ">
<polygon fill="#e0e0e0" stroke="#999999" points="103,-19 55,-19 55,0 103,0 103,-19"/>
<text text-anchor="middle" x="79" y="-7" font-family="Helvetica,sans-Serif" font-size="10.00">limits.h</text>
</a>
</g>
</g>
<!-- Node3&#45;&gt;Node4 -->
<g id="edge3" class="edge">
<title>Node3&#45;&gt;Node4</title>
<path fill="none" stroke="#63b8ff" d="M79,-60.37C79,-52.5 79,-40.6 79,-30.39"/>
<polygon fill="#63b8ff" stroke="#63b8ff" points="82.5,-30.68 79,-20.68 75.5,-30.68 82.5,-30.68"/>
</g>
<!-- Node5&#45;&gt;Node6 -->
<g id="edge5" class="edge">
<title>Node5&#45;&gt;Node6</title>
<path fill="none" stroke="#63b8ff" d="M638.74,-191.75C587.19,-186.94 517.58,-175.97 461,-151 440.99,-142.17 441.5,-130.91 422,-121 386.7,-103.06 343.94,-90.56 310.01,-82.54"/>
<polygon fill="#63b8ff" stroke="#63b8ff" points="310.87,-79.15 300.34,-80.33 309.31,-85.98 310.87,-79.15"/>
</g>
<!-- Node5&#45;&gt;Node7 -->
<g id="edge6" class="edge">
<title>Node5&#45;&gt;Node7</title>
<path fill="none" stroke="#63b8ff" d="M638.88,-189.14C549.65,-180.83 394.51,-165.61 262,-151 251.51,-149.84 240.5,-148.58 229.67,-147.31"/>
<polygon fill="#63b8ff" stroke="#63b8ff" points="230.34,-143.87 219.99,-146.16 229.51,-150.82 230.34,-143.87"/>
</g>
<!-- Node8 -->
<g id="node8" class="node">
<title>Node8</title>
<g id="a_node8"><a xlink:href="sequence_8h.html" target="_top" xlink:title="Functions and data structures related to sequence representations ,.">
<polygon fill="white" stroke="#666666" points="729,-145.5 607,-145.5 607,-126.5 729,-126.5 729,-145.5"/>
<text text-anchor="middle" x="668" y="-133.5" font-family="Helvetica,sans-Serif" font-size="10.00">ViennaRNA/sequence.h</text>
</a>
</g>
</g>
<!-- Node5&#45;&gt;Node8 -->
<g id="edge11" class="edge">
<title>Node5&#45;&gt;Node8</title>
<path fill="none" stroke="#63b8ff" d="M700.55,-186.87C692.52,-178.57 682.45,-165.78 675.4,-155.22"/>
<polygon fill="#63b8ff" stroke="#63b8ff" points="678.55,-153.66 670.35,-146.96 672.58,-157.32 678.55,-153.66"/>
</g>
<!-- Node5&#45;&gt;Node9 -->
<g id="edge13" class="edge">
<title>Node5&#45;&gt;Node9</title>
<path fill="none" stroke="#63b8ff" d="M645.84,-186.53C586.05,-177.74 495.95,-163.82 418,-151 411.93,-150 405.6,-148.94 399.32,-147.87"/>
<polygon fill="#63b8ff" stroke="#63b8ff" points="400.08,-144.45 389.63,-146.2 398.89,-151.35 400.08,-144.45"/>
</g>
<!-- Node5&#45;&gt;Node10 -->
<g id="edge16" class="edge">
<title>Node5&#45;&gt;Node10</title>
<path fill="none" stroke="#63b8ff" d="M679.2,-186.62C651.32,-178.27 611.03,-165.52 579.15,-155.04"/>
<polygon fill="#63b8ff" stroke="#63b8ff" points="580.29,-151.73 569.69,-151.91 578.09,-158.38 580.29,-151.73"/>
</g>
<!-- Node5&#45;&gt;Node12 -->
<g id="edge20" class="edge">
<title>Node5&#45;&gt;Node12</title>
<path fill="none" stroke="#63b8ff" d="M746.75,-186.55C786.07,-177.27 850.96,-162.6 901.06,-151.63"/>
<polygon fill="#63b8ff" stroke="#63b8ff" points="901.65,-155.08 910.67,-149.53 900.16,-148.24 901.65,-155.08"/>
</g>
<!-- Node5&#45;&gt;Node13 -->
<g id="edge24" class="edge">
<title>Node5&#45;&gt;Node13</title>
<path fill="none" stroke="#63b8ff" d="M783.17,-186.5C848.16,-178.45 946.65,-165.67 1032,-151 1037.08,-150.13 1042.35,-149.15 1047.66,-148.13"/>
<polygon fill="#63b8ff" stroke="#63b8ff" points="1047.93,-151.64 1057.07,-146.27 1046.58,-144.77 1047.93,-151.64"/>
</g>
<!-- Node5&#45;&gt;Node14 -->
<g id="edge26" class="edge">
<title>Node5&#45;&gt;Node14</title>
<path fill="none" stroke="#63b8ff" d="M785.45,-191.04C874.87,-185.03 1030.66,-172.7 1173.02,-151.35"/>
<polygon fill="#63b8ff" stroke="#63b8ff" points="1173.26,-154.86 1182.62,-149.89 1172.21,-147.94 1173.26,-154.86"/>
</g>
<!-- Node5&#45;&gt;Node15 -->
<g id="edge27" class="edge">
<title>Node5&#45;&gt;Node15</title>
<path fill="none" stroke="#63b8ff" d="M785.34,-190.47C896.68,-183 1114.74,-168.03 1300,-151 1320.38,-149.13 1342.55,-146.8 1363.04,-144.59"/>
<polygon fill="#63b8ff" stroke="#63b8ff" points="1363.16,-148.1 1372.72,-143.54 1362.4,-141.14 1363.16,-148.1"/>
</g>
<!-- Node18 -->
<g id="node18" class="node">
<title>Node18</title>
<g id="a_node18"><a xlink:href="zscore_8h_source.html" target="_top" xlink:title=" ">
<polygon fill="white" stroke="#666666" points="894.5,-145.5 785.5,-145.5 785.5,-126.5 894.5,-126.5 894.5,-145.5"/>
<text text-anchor="middle" x="840" y="-133.5" font-family="Helvetica,sans-Serif" font-size="10.00">ViennaRNA/zscore.h</text>
</a>
</g>
</g>
<!-- Node5&#45;&gt;Node18 -->
<g id="edge33" class="edge">
<title>Node5&#45;&gt;Node18</title>
<path fill="none" stroke="#63b8ff" d="M731.44,-186.62C752.3,-177.08 785.71,-161.81 809.96,-150.73"/>
<polygon fill="#63b8ff" stroke="#63b8ff" points="811.36,-153.94 819,-146.6 808.45,-147.57 811.36,-153.94"/>
</g>
<!-- Node7&#45;&gt;Node2 -->
<g id="edge8" class="edge">
<title>Node7&#45;&gt;Node2</title>
<path fill="none" stroke="#63b8ff" d="M166.75,-145.88C183.68,-161.19 213.37,-192.23 246,-206 314.32,-234.82 519.04,-247.78 633.14,-252.97"/>
<polygon fill="#63b8ff" stroke="#63b8ff" points="632.91,-256.46 643.06,-253.41 633.22,-249.47 632.91,-256.46"/>
</g>
<!-- Node7&#45;&gt;Node3 -->
<g id="edge7" class="edge">
<title>Node7&#45;&gt;Node3</title>
<path fill="none" stroke="#63b8ff" d="M143.57,-126.1C131.82,-116.07 112.46,-99.56 98.01,-87.22"/>
<polygon fill="#63b8ff" stroke="#63b8ff" points="100.37,-84.63 90.49,-80.81 95.83,-89.96 100.37,-84.63"/>
</g>
<!-- Node7&#45;&gt;Node5 -->
<g id="edge9" class="edge">
<title>Node7&#45;&gt;Node5</title>
<path fill="none" stroke="#63b8ff" d="M223.31,-144.48C241.81,-146.65 261.7,-148.98 280,-151 400.78,-164.32 540.35,-178.14 627.47,-186.77"/>
<polygon fill="#63b8ff" stroke="#63b8ff" points="627.07,-190.25 637.37,-187.75 627.76,-183.29 627.07,-190.25"/>
</g>
<!-- Node7&#45;&gt;Node6 -->
<g id="edge10" class="edge">
<title>Node7&#45;&gt;Node6</title>
<path fill="none" stroke="#63b8ff" d="M167.49,-126.1C183.2,-115.74 209.4,-98.45 228.27,-86"/>
<polygon fill="#63b8ff" stroke="#63b8ff" points="229.94,-89.09 236.36,-80.66 226.09,-83.24 229.94,-89.09"/>
</g>
<!-- Node8&#45;&gt;Node5 -->
<g id="edge12" class="edge">
<title>Node8&#45;&gt;Node5</title>
<path fill="none" stroke="#63b8ff" d="M679.48,-145.67C687.52,-153.98 697.59,-166.78 704.63,-177.32"/>
<polygon fill="#63b8ff" stroke="#63b8ff" points="701.47,-178.87 709.67,-185.58 707.44,-175.22 701.47,-178.87"/>
</g>
<!-- Node9&#45;&gt;Node2 -->
<g id="edge14" class="edge">
<title>Node9&#45;&gt;Node2</title>
<path fill="none" stroke="#63b8ff" d="M377.31,-145.95C440.72,-165.43 584.31,-211.98 661.24,-237.86"/>
<polygon fill="#63b8ff" stroke="#63b8ff" points="660.06,-241.16 670.65,-241.04 662.3,-234.53 660.06,-241.16"/>
</g>
<!-- Node9&#45;&gt;Node5 -->
<g id="edge15" class="edge">
<title>Node9&#45;&gt;Node5</title>
<path fill="none" stroke="#63b8ff" d="M405.79,-145.94C415.92,-147.65 426.28,-149.4 436,-151 508.93,-163 592.49,-175.95 648.46,-184.77"/>
<polygon fill="#63b8ff" stroke="#63b8ff" points="647.71,-188.19 658.13,-186.3 648.8,-181.28 647.71,-188.19"/>
</g>
<!-- Node10&#45;&gt;Node5 -->
<g id="edge17" class="edge">
<title>Node10&#45;&gt;Node5</title>
<path fill="none" stroke="#63b8ff" d="M580.08,-151.44C611.57,-161.12 650.98,-173.75 678.55,-183"/>
<polygon fill="#63b8ff" stroke="#63b8ff" points="677.19,-186.23 687.78,-186.13 679.43,-179.61 677.19,-186.23"/>
</g>
<!-- Node11 -->
<g id="node11" class="node">
<title>Node11</title>
<g id="a_node11"><a xlink:href="constraints_2basic_8h.html" target="_top" xlink:title="Functions and data structures for constraining secondary structure predictions and evaluation.">
<polygon fill="white" stroke="#666666" points="816.5,-85 697.5,-85 697.5,-55 816.5,-55 816.5,-85"/>
<text text-anchor="start" x="705.5" y="-73" font-family="Helvetica,sans-Serif" font-size="10.00">ViennaRNA/constraints</text>
<text text-anchor="middle" x="757" y="-62" font-family="Helvetica,sans-Serif" font-size="10.00">/basic.h</text>
</a>
</g>
</g>
<!-- Node10&#45;&gt;Node11 -->
<g id="edge18" class="edge">
<title>Node10&#45;&gt;Node11</title>
<path fill="none" stroke="#63b8ff" d="M580.45,-120.56C614.37,-111.04 659,-98.51 694.9,-88.43"/>
<polygon fill="#63b8ff" stroke="#63b8ff" points="695.6,-91.87 704.28,-85.8 693.7,-85.13 695.6,-91.87"/>
</g>
<!-- Node11&#45;&gt;Node5 -->
<g id="edge19" class="edge">
<title>Node11&#45;&gt;Node5</title>
<path fill="none" stroke="#63b8ff" d="M754.92,-85.26C752.25,-101.57 746.86,-128.87 738,-151 734.39,-160.02 729.16,-169.4 724.34,-177.21"/>
<polygon fill="#63b8ff" stroke="#63b8ff" points="721.51,-175.13 719.02,-185.43 727.39,-178.93 721.51,-175.13"/>
</g>
<!-- Node12&#45;&gt;Node2 -->
<g id="edge21" class="edge">
<title>Node12&#45;&gt;Node2</title>
<path fill="none" stroke="#63b8ff" d="M945.19,-151.37C901.07,-172.8 813.09,-213.15 758.64,-236.99"/>
<polygon fill="#63b8ff" stroke="#63b8ff" points="757.38,-233.72 749.61,-240.92 760.17,-240.14 757.38,-233.72"/>
</g>
<!-- Node12&#45;&gt;Node5 -->
<g id="edge22" class="edge">
<title>Node12&#45;&gt;Node5</title>
<path fill="none" stroke="#63b8ff" d="M913.88,-151.41C870.27,-161.5 811,-174.8 767.93,-184.15"/>
<polygon fill="#63b8ff" stroke="#63b8ff" points="767.31,-180.7 758.27,-186.23 768.79,-187.54 767.31,-180.7"/>
</g>
<!-- Node12&#45;&gt;Node11 -->
<g id="edge23" class="edge">
<title>Node12&#45;&gt;Node11</title>
<path fill="none" stroke="#63b8ff" d="M923.48,-120.56C891.63,-111.08 849.78,-98.62 816,-88.56"/>
<polygon fill="#63b8ff" stroke="#63b8ff" points="817.38,-85.32 806.79,-85.82 815.38,-92.03 817.38,-85.32"/>
</g>
<!-- Node13&#45;&gt;Node5 -->
<g id="edge25" class="edge">
<title>Node13&#45;&gt;Node5</title>
<path fill="none" stroke="#63b8ff" d="M1076.13,-145.98C1067.67,-147.76 1058.55,-149.53 1050,-151 964.17,-165.75 865.06,-178.59 796.38,-186.64"/>
<polygon fill="#63b8ff" stroke="#63b8ff" points="796.24,-183.13 786.71,-187.76 797.04,-190.08 796.24,-183.13"/>
</g>
<!-- Node15&#45;&gt;Node2 -->
<g id="edge28" class="edge">
<title>Node15&#45;&gt;Node2</title>
<path fill="none" stroke="#63b8ff" d="M1432.44,-151.36C1421.52,-167.83 1396.9,-194.08 1369,-206 1267.43,-249.4 942.24,-255.66 790.83,-256.21"/>
<polygon fill="#63b8ff" stroke="#63b8ff" points="790.86,-252.71 780.87,-256.23 790.88,-259.71 790.86,-252.71"/>
</g>
<!-- Node15&#45;&gt;Node5 -->
<g id="edge29" class="edge">
<title>Node15&#45;&gt;Node5</title>
<path fill="none" stroke="#63b8ff" d="M1374.32,-145.25C1356.19,-147.26 1336.37,-149.31 1318,-151 1132.45,-168.06 914,-183.05 796.63,-190.5"/>
<polygon fill="#63b8ff" stroke="#63b8ff" points="796.52,-187 786.76,-191.13 796.96,-193.99 796.52,-187"/>
</g>
<!-- Node15&#45;&gt;Node16 -->
<g id="edge30" class="edge">
<title>Node15&#45;&gt;Node16</title>
<path fill="none" stroke="#63b8ff" d="M1414.81,-120.8C1398.61,-110.43 1376.69,-96.4 1360.25,-85.88"/>
<polygon fill="#63b8ff" stroke="#63b8ff" points="1362.4,-83.1 1352.09,-80.66 1358.63,-89 1362.4,-83.1"/>
</g>
<!-- Node16&#45;&gt;Node2 -->
<g id="edge32" class="edge">
<title>Node16&#45;&gt;Node2</title>
<path fill="none" stroke="#63b8ff" d="M1341.82,-79.81C1344.57,-96.48 1339.65,-132.62 1318,-151 1240.1,-217.16 936.72,-243.37 790.94,-252.17"/>
<polygon fill="#63b8ff" stroke="#63b8ff" points="790.74,-248.67 780.96,-252.76 791.15,-255.66 790.74,-248.67"/>
</g>
<!-- Node17 -->
<g id="node17" class="node">
<title>Node17</title>
<g id="a_node17"><a xlink:title=" ">
<polygon fill="#e0e0e0" stroke="#999999" points="1360,-19 1314,-19 1314,0 1360,0 1360,-19"/>
<text text-anchor="middle" x="1337" y="-7" font-family="Helvetica,sans-Serif" font-size="10.00">stdio.h</text>
</a>
</g>
</g>
<!-- Node16&#45;&gt;Node17 -->
<g id="edge31" class="edge">
<title>Node16&#45;&gt;Node17</title>
<path fill="none" stroke="#63b8ff" d="M1337,-60.37C1337,-52.5 1337,-40.6 1337,-30.39"/>
<polygon fill="#63b8ff" stroke="#63b8ff" points="1340.5,-30.68 1337,-20.68 1333.5,-30.68 1340.5,-30.68"/>
</g>
</g>
</svg>
        <g id="navigator" transform="translate(0 0)" fill="#404254">
                <rect fill="#f2f5e9" fill-opacity="0.5" stroke="#606060" stroke-width=".5" x="0" y="0" width="60" height="60"/>
                <use id="zoomplus" xlink:href="#zoomPlus" x="17" y="9" onmousedown="handleZoom(evt,'in')"/>
                <use id="zoomminus" xlink:href="#zoomMin" x="42" y="9" onmousedown="handleZoom(evt,'out')"/>
                <use id="reset" xlink:href="#resetDef" x="30" y="36" onmousedown="handleReset()"/>
                <g id="arrowUp" xlink:href="#dirArrow" transform="translate(30 24)" onmousedown="handlePan(0,-1)">
                  <use xlink:href="#rim" fill="#404040">
                        <set attributeName="fill" to="#808080" begin="arrowUp.mouseover" end="arrowUp.mouseout"/>
                  </use>
                  <path fill="none" stroke="white" stroke-width="1.5" d="M0,-3.0v7 M-2.5,-0.5L0,-3.0L2.5,-0.5"/>
                </g>
                <g id="arrowRight" xlink:href="#dirArrow" transform="rotate(90) translate(36 -43)" onmousedown="handlePan(1,0)">
                  <use xlink:href="#rim" fill="#404040">
                        <set attributeName="fill" to="#808080" begin="arrowRight.mouseover" end="arrowRight.mouseout"/>
                  </use>
                  <path fill="none" stroke="white" stroke-width="1.5" d="M0,-3.0v7 M-2.5,-0.5L0,-3.0L2.5,-0.5"/>
                </g>
                <g id="arrowDown" xlink:href="#dirArrow" transform="rotate(180) translate(-30 -48)" onmousedown="handlePan(0,1)">
                  <use xlink:href="#rim" fill="#404040">
                        <set attributeName="fill" to="#808080" begin="arrowDown.mouseover" end="arrowDown.mouseout"/>
                  </use>
                  <path fill="none" stroke="white" stroke-width="1.5" d="M0,-3.0v7 M-2.5,-0.5L0,-3.0L2.5,-0.5"/>
                </g>
                <g id="arrowLeft" xlink:href="#dirArrow" transform="rotate(270) translate(-36 17)" onmousedown="handlePan(-1,0)">
                  <use xlink:href="#rim" fill="#404040">
                        <set attributeName="fill" to="#808080" begin="arrowLeft.mouseover" end="arrowLeft.mouseout"/>
                  </use>
                  <path fill="none" stroke="white" stroke-width="1.5" d="M0,-3.0v7 M-2.5,-0.5L0,-3.0L2.5,-0.5"/>
                </g>
        </g>
        <svg viewBox="0 0 15 15" width="100%" height="30px" preserveAspectRatio="xMaxYMin meet">
         <g id="arrow_out" transform="scale(0.3 0.3)">
          <a xlink:href="MEA_8h__incl_org.svg" target="_base">
           <rect id="button" ry="5" rx="5" y="6" x="6" height="38" width="38"
                fill="#f2f5e9" fill-opacity="0.5" stroke="#606060" stroke-width="1.0"/>
           <path id="arrow"
             d="M 11.500037,31.436501 C 11.940474,20.09759 22.043105,11.32322 32.158766,21.979434 L 37.068811,17.246167 C 37.068811,17.246167 37.088388,32 37.088388,32 L 22.160133,31.978069 C 22.160133,31.978069 26.997745,27.140456 26.997745,27.140456 C 18.528582,18.264221 13.291696,25.230495 11.500037,31.436501 z"
             style="fill:#404040;"/>
          </a>
         </g>
        </svg>
</svg>
