<?xml version="1.0" encoding="UTF-8" standalone="no"?>
<!DOCTYPE svg PUBLIC "-//W3C//DTD SVG 1.1//EN"
 "http://www.w3.org/Graphics/SVG/1.1/DTD/svg11.dtd">
<!-- Generated by graphviz version 7.1.0 (0)
 -->
<!-- Title: ViennaRNA/mfe.h Pages: 1 -->
<svg width="351pt" height="82pt"
 viewBox="0.00 0.00 351.00 82.00" xmlns="http://www.w3.org/2000/svg" xmlns:xlink="http://www.w3.org/1999/xlink">
<g id="graph0" class="graph" transform="scale(1 1) rotate(0) translate(4 78)">
<title>ViennaRNA/mfe.h</title>
<!-- Node1 -->
<g id="node1" class="node">
<title>Node1</title>
<g id="a_node1"><a xlink:title="Compute Minimum Free energy (MFE) and backtrace corresponding secondary structures from RNA sequence ...">
<polygon fill="#999999" stroke="#666666" points="224.5,-74 128.5,-74 128.5,-55 224.5,-55 224.5,-74"/>
<text text-anchor="middle" x="176.5" y="-62" font-family="Helvetica,sans-Serif" font-size="10.00">ViennaRNA/mfe.h</text>
</a>
</g>
</g>
<!-- Node2 -->
<g id="node2" class="node">
<title>Node2</title>
<g id="a_node2"><a xlink:href="alifold_8h.html" target="_top" xlink:title="Functions for comparative structure prediction using RNA sequence alignments.">
<polygon fill="white" stroke="#666666" points="105,-19 0,-19 0,0 105,0 105,-19"/>
<text text-anchor="middle" x="52.5" y="-7" font-family="Helvetica,sans-Serif" font-size="10.00">ViennaRNA/alifold.h</text>
</a>
</g>
</g>
<!-- Node1&#45;&gt;Node2 -->
<g id="edge1" class="edge">
<title>Node1&#45;&gt;Node2</title>
<path fill="none" stroke="#63b8ff" d="M145.06,-50.06C122.53,-40.43 92.83,-27.74 73.22,-19.36"/>
<polygon fill="#63b8ff" stroke="#63b8ff" points="143.5,-53.2 154.07,-53.91 146.25,-46.77 143.5,-53.2"/>
</g>
<!-- Node3 -->
<g id="node3" class="node">
<title>Node3</title>
<g id="a_node3"><a xlink:href="cofold_8h.html" target="_top" xlink:title="MFE implementations for RNA&#45;RNA interaction.">
<polygon fill="white" stroke="#666666" points="229.5,-19 123.5,-19 123.5,0 229.5,0 229.5,-19"/>
<text text-anchor="middle" x="176.5" y="-7" font-family="Helvetica,sans-Serif" font-size="10.00">ViennaRNA/cofold.h</text>
</a>
</g>
</g>
<!-- Node1&#45;&gt;Node3 -->
<g id="edge2" class="edge">
<title>Node1&#45;&gt;Node3</title>
<path fill="none" stroke="#63b8ff" d="M176.5,-43.35C176.5,-35.1 176.5,-25.97 176.5,-19.44"/>
<polygon fill="#63b8ff" stroke="#63b8ff" points="173,-43.23 176.5,-53.23 180,-43.23 173,-43.23"/>
</g>
<!-- Node4 -->
<g id="node4" class="node">
<title>Node4</title>
<g id="a_node4"><a xlink:href="fold_8h.html" target="_top" xlink:title="MFE calculations for single RNA sequences.">
<polygon fill="white" stroke="#666666" points="343,-19 248,-19 248,0 343,0 343,-19"/>
<text text-anchor="middle" x="295.5" y="-7" font-family="Helvetica,sans-Serif" font-size="10.00">ViennaRNA/fold.h</text>
</a>
</g>
</g>
<!-- Node1&#45;&gt;Node4 -->
<g id="edge3" class="edge">
<title>Node1&#45;&gt;Node4</title>
<path fill="none" stroke="#63b8ff" d="M206.97,-49.93C228.55,-40.32 256.88,-27.7 275.61,-19.36"/>
<polygon fill="#63b8ff" stroke="#63b8ff" points="205.78,-46.63 198.07,-53.89 208.63,-53.02 205.78,-46.63"/>
</g>
</g>
</svg>
