<?xml version="1.0" encoding="UTF-8" standalone="no"?>
<!DOCTYPE svg PUBLIC "-//W3C//DTD SVG 1.1//EN"
 "http://www.w3.org/Graphics/SVG/1.1/DTD/svg11.dtd">
<!-- Generated by graphviz version 7.1.0 (0)
 -->
<!-- Title: ViennaRNA/mfe_window.h Pages: 1 -->
<!--zoomable 390 -->
<svg id="main" version="1.1" xmlns="http://www.w3.org/2000/svg" xmlns:xlink="http://www.w3.org/1999/xlink" xml:space="preserve" onload="init(evt)">
<style type="text/css"><![CDATA[
.edge:hover path { stroke: red; }
.edge:hover polygon { stroke: red; fill: red; }
]]></style>
<script type="text/javascript"><![CDATA[
var edges = document.getElementsByTagName('g');
if (edges && edges.length) {
  for (var i=0;i<edges.length;i++) {
    if (edges[i].id.substr(0,4)=='edge') {
      edges[i].setAttribute('class','edge');
    }
  }
}
]]></script>
        <defs>
                <circle id="rim" cx="0" cy="0" r="7"/>
                <circle id="rim2" cx="0" cy="0" r="3.5"/>
                <g id="zoomPlus">
                        <use xlink:href="#rim" fill="#404040">
                                <set attributeName="fill" to="#808080" begin="zoomplus.mouseover" end="zoomplus.mouseout"/>
                        </use>
                        <path d="M-4,0h8M0,-4v8" fill="none" stroke="white" stroke-width="1.5" pointer-events="none"/>
                </g>
                <g id="zoomMin">
                        <use xlink:href="#rim" fill="#404040">
                                <set attributeName="fill" to="#808080" begin="zoomminus.mouseover" end="zoomminus.mouseout"/>
                        </use>
                        <path d="M-4,0h8" fill="none" stroke="white" stroke-width="1.5" pointer-events="none"/>
                </g>
                <g id="dirArrow">
                        <path fill="none" stroke="white" stroke-width="1.5" d="M0,-3.0v7 M-2.5,-0.5L0,-3.0L2.5,-0.5"/>
                </g>
               <g id="resetDef">
                       <use xlink:href="#rim2" fill="#404040">
                               <set attributeName="fill" to="#808080" begin="reset.mouseover" end="reset.mouseout"/>
                       </use>
               </g>
        </defs>

<script type="text/javascript">
var viewWidth = 1250;
var viewHeight = 390;
var sectionId = 'dynsection-0';
</script>
<script xlink:href="svgpan.js"/>
<svg id="graph" class="graph">
<g id="viewport">
<title>ViennaRNA/mfe_window.h</title>
<!-- Node1 -->
<g id="node1" class="node">
<title>Node1</title>
<g id="a_node1"><a xlink:title="Compute local Minimum Free Energy (MFE) using a sliding window approach and backtrace corresponding s...">
<polygon fill="#999999" stroke="#666666" points="598.5,-382 465.5,-382 465.5,-363 598.5,-363 598.5,-382"/>
<text text-anchor="middle" x="532" y="-370" font-family="Helvetica,sans-Serif" font-size="10.00">ViennaRNA/mfe_window.h</text>
</a>
</g>
</g>
<!-- Node2 -->
<g id="node2" class="node">
<title>Node2</title>
<g id="a_node2"><a xlink:title=" ">
<polygon fill="#e0e0e0" stroke="#999999" points="291,-19 245,-19 245,0 291,0 291,-19"/>
<text text-anchor="middle" x="268" y="-7" font-family="Helvetica,sans-Serif" font-size="10.00">stdio.h</text>
</a>
</g>
</g>
<!-- Node1&#45;&gt;Node2 -->
<g id="edge1" class="edge">
<title>Node1&#45;&gt;Node2</title>
<path fill="none" stroke="#63b8ff" d="M465.16,-371.77C322.28,-370.55 0,-357.39 0,-263.5 0,-263.5 0,-263.5 0,-135 0,-33.19 161.05,-14.41 233.46,-11.11"/>
<polygon fill="#63b8ff" stroke="#63b8ff" points="233.31,-14.62 243.17,-10.75 233.05,-7.62 233.31,-14.62"/>
</g>
<!-- Node3 -->
<g id="node3" class="node">
<title>Node3</title>
<g id="a_node3"><a xlink:href="fold__compound_8h.html" target="_top" xlink:title="The Basic Fold Compound API.">
<polygon fill="white" stroke="#666666" points="605,-327 459,-327 459,-308 605,-308 605,-327"/>
<text text-anchor="middle" x="532" y="-315" font-family="Helvetica,sans-Serif" font-size="10.00">ViennaRNA/fold_compound.h</text>
</a>
</g>
</g>
<!-- Node1&#45;&gt;Node3 -->
<g id="edge2" class="edge">
<title>Node1&#45;&gt;Node3</title>
<path fill="none" stroke="#63b8ff" d="M532,-362.75C532,-356.27 532,-347.16 532,-338.9"/>
<polygon fill="#63b8ff" stroke="#63b8ff" points="535.5,-338.96 532,-328.96 528.5,-338.96 535.5,-338.96"/>
</g>
<!-- Node18 -->
<g id="node18" class="node">
<title>Node18</title>
<g id="a_node18"><a xlink:href="zscore_8h_source.html" target="_top" xlink:title=" ">
<polygon fill="white" stroke="#666666" points="1056.5,-272 947.5,-272 947.5,-253 1056.5,-253 1056.5,-272"/>
<text text-anchor="middle" x="1002" y="-260" font-family="Helvetica,sans-Serif" font-size="10.00">ViennaRNA/zscore.h</text>
</a>
</g>
</g>
<!-- Node1&#45;&gt;Node18 -->
<g id="edge44" class="edge">
<title>Node1&#45;&gt;Node18</title>
<path fill="none" stroke="#63b8ff" d="M570.86,-362.57C655.74,-343.07 857.59,-296.68 951.87,-275.02"/>
<polygon fill="#63b8ff" stroke="#63b8ff" points="952.66,-278.43 961.62,-272.78 951.09,-271.61 952.66,-278.43"/>
</g>
<!-- Node4 -->
<g id="node4" class="node">
<title>Node4</title>
<g id="a_node4"><a xlink:href="model_8h.html" target="_top" xlink:title="The model details data structure and its corresponding modifiers.">
<polygon fill="white" stroke="#666666" points="955,-145.5 849,-145.5 849,-126.5 955,-126.5 955,-145.5"/>
<text text-anchor="middle" x="902" y="-133.5" font-family="Helvetica,sans-Serif" font-size="10.00">ViennaRNA/model.h</text>
</a>
</g>
</g>
<!-- Node3&#45;&gt;Node4 -->
<g id="edge3" class="edge">
<title>Node3&#45;&gt;Node4</title>
<path fill="none" stroke="#63b8ff" d="M605.27,-313.4C650.61,-308.77 708.62,-297.76 754,-272 798.33,-246.84 792.82,-220.77 831,-187 845.63,-174.06 863.64,-161.41 877.85,-152.07"/>
<polygon fill="#63b8ff" stroke="#63b8ff" points="879.65,-155.08 886.16,-146.72 875.86,-149.19 879.65,-155.08"/>
</g>
<!-- Node5 -->
<g id="node5" class="node">
<title>Node5</title>
<g id="a_node5"><a xlink:href="params_2basic_8h.html" target="_top" xlink:title="Functions to deal with sets of energy parameters.">
<polygon fill="white" stroke="#666666" points="745,-272 607,-272 607,-253 745,-253 745,-272"/>
<text text-anchor="middle" x="676" y="-260" font-family="Helvetica,sans-Serif" font-size="10.00">ViennaRNA/params/basic.h</text>
</a>
</g>
</g>
<!-- Node3&#45;&gt;Node5 -->
<g id="edge4" class="edge">
<title>Node3&#45;&gt;Node5</title>
<path fill="none" stroke="#63b8ff" d="M551.21,-307.51C572.85,-298.88 608.27,-285.76 635.93,-276.1"/>
<polygon fill="#63b8ff" stroke="#63b8ff" points="636.75,-279.52 645.06,-272.94 634.46,-272.9 636.75,-279.52"/>
</g>
<!-- Node9 -->
<g id="node9" class="node">
<title>Node9</title>
<g id="a_node9"><a xlink:href="dp__matrices_8h.html" target="_top" xlink:title="Functions to deal with standard dynamic programming (DP) matrices.">
<polygon fill="white" stroke="#666666" points="1106.5,-145.5 973.5,-145.5 973.5,-126.5 1106.5,-126.5 1106.5,-145.5"/>
<text text-anchor="middle" x="1040" y="-133.5" font-family="Helvetica,sans-Serif" font-size="10.00">ViennaRNA/dp_matrices.h</text>
</a>
</g>
</g>
<!-- Node3&#45;&gt;Node9 -->
<g id="edge37" class="edge">
<title>Node3&#45;&gt;Node9</title>
<path fill="none" stroke="#63b8ff" d="M605.39,-312.03C654.09,-306.87 718.38,-295.78 771,-272 826.35,-246.99 824.51,-215.78 878,-187 910.25,-169.65 949.58,-156.96 981.49,-148.71"/>
<polygon fill="#63b8ff" stroke="#63b8ff" points="982.12,-152.16 990.98,-146.34 980.43,-145.36 982.12,-152.16"/>
</g>
<!-- Node10 -->
<g id="node10" class="node">
<title>Node10</title>
<g id="a_node10"><a xlink:href="hard_8h.html" target="_top" xlink:title="Functions and data structures for handling of secondary structure hard constraints.">
<polygon fill="white" stroke="#666666" points="318.5,-151 199.5,-151 199.5,-121 318.5,-121 318.5,-151"/>
<text text-anchor="start" x="207.5" y="-139" font-family="Helvetica,sans-Serif" font-size="10.00">ViennaRNA/constraints</text>
<text text-anchor="middle" x="259" y="-128" font-family="Helvetica,sans-Serif" font-size="10.00">/hard.h</text>
</a>
</g>
</g>
<!-- Node3&#45;&gt;Node10 -->
<g id="edge38" class="edge">
<title>Node3&#45;&gt;Node10</title>
<path fill="none" stroke="#63b8ff" d="M515.31,-307.6C469.52,-280.3 342.76,-197.27 286.41,-158"/>
<polygon fill="#63b8ff" stroke="#63b8ff" points="288.48,-155.18 278.29,-152.29 284.46,-160.91 288.48,-155.18"/>
</g>
<!-- Node12 -->
<g id="node12" class="node">
<title>Node12</title>
<g id="a_node12"><a xlink:href="soft_8h.html" target="_top" xlink:title="Functions and data structures for secondary structure soft constraints.">
<polygon fill="white" stroke="#666666" points="455.5,-151 336.5,-151 336.5,-121 455.5,-121 455.5,-151"/>
<text text-anchor="start" x="344.5" y="-139" font-family="Helvetica,sans-Serif" font-size="10.00">ViennaRNA/constraints</text>
<text text-anchor="middle" x="396" y="-128" font-family="Helvetica,sans-Serif" font-size="10.00">/soft.h</text>
</a>
</g>
</g>
<!-- Node3&#45;&gt;Node12 -->
<g id="edge39" class="edge">
<title>Node3&#45;&gt;Node12</title>
<path fill="none" stroke="#63b8ff" d="M522.09,-307.69C504.35,-286.28 468.75,-230.12 434,-187 426.53,-177.74 417.74,-168.09 410.32,-159.77"/>
<polygon fill="#63b8ff" stroke="#63b8ff" points="413.16,-157.7 403.94,-152.48 407.9,-162.31 413.16,-157.7"/>
</g>
<!-- Node13 -->
<g id="node13" class="node">
<title>Node13</title>
<g id="a_node13"><a xlink:href="grammar_8h.html" target="_top" xlink:title="Implementations for the RNA folding grammar.">
<polygon fill="white" stroke="#666666" points="1241.5,-145.5 1124.5,-145.5 1124.5,-126.5 1241.5,-126.5 1241.5,-145.5"/>
<text text-anchor="middle" x="1183" y="-133.5" font-family="Helvetica,sans-Serif" font-size="10.00">ViennaRNA/grammar.h</text>
</a>
</g>
</g>
<!-- Node3&#45;&gt;Node13 -->
<g id="edge40" class="edge">
<title>Node3&#45;&gt;Node13</title>
<path fill="none" stroke="#63b8ff" d="M605.48,-308.27C661.76,-301.35 740.91,-289.7 809,-272 937.26,-238.66 1083.26,-177.15 1148.56,-150.22"/>
<polygon fill="#63b8ff" stroke="#63b8ff" points="1149.74,-153.52 1157.66,-146.48 1147.08,-147.04 1149.74,-153.52"/>
</g>
<!-- Node14 -->
<g id="node14" class="node">
<title>Node14</title>
<g id="a_node14"><a xlink:href="structured__domains_8h.html" target="_top" xlink:title="This module provides interfaces that deal with additional structured domains in the folding grammar.">
<polygon fill="white" stroke="#666666" points="181.5,-151 66.5,-151 66.5,-121 181.5,-121 181.5,-151"/>
<text text-anchor="start" x="74.5" y="-139" font-family="Helvetica,sans-Serif" font-size="10.00">ViennaRNA/structured</text>
<text text-anchor="middle" x="124" y="-128" font-family="Helvetica,sans-Serif" font-size="10.00">_domains.h</text>
</a>
</g>
</g>
<!-- Node3&#45;&gt;Node14 -->
<g id="edge41" class="edge">
<title>Node3&#45;&gt;Node14</title>
<path fill="none" stroke="#63b8ff" d="M458.77,-310.23C388.13,-303.23 286.95,-290.41 252,-272 201.72,-245.51 160.09,-191.66 138.97,-160.57"/>
<polygon fill="#63b8ff" stroke="#63b8ff" points="142.13,-159 133.68,-152.6 136.29,-162.87 142.13,-159"/>
</g>
<!-- Node15 -->
<g id="node15" class="node">
<title>Node15</title>
<g id="a_node15"><a xlink:href="unstructured__domains_8h.html" target="_top" xlink:title="Functions to modify unstructured domains, e.g. to incorporate ligands binding to unpaired stretches.">
<polygon fill="white" stroke="#666666" points="598.5,-151 473.5,-151 473.5,-121 598.5,-121 598.5,-151"/>
<text text-anchor="start" x="481.5" y="-139" font-family="Helvetica,sans-Serif" font-size="10.00">ViennaRNA/unstructured</text>
<text text-anchor="middle" x="536" y="-128" font-family="Helvetica,sans-Serif" font-size="10.00">_domains.h</text>
</a>
</g>
</g>
<!-- Node3&#45;&gt;Node15 -->
<g id="edge42" class="edge">
<title>Node3&#45;&gt;Node15</title>
<path fill="none" stroke="#63b8ff" d="M529.08,-307.84C525.5,-281.83 526.65,-203.64 530.53,-162.67"/>
<polygon fill="#63b8ff" stroke="#63b8ff" points="533.98,-163.32 531.62,-152.99 527.02,-162.53 533.98,-163.32"/>
</g>
<!-- Node17 -->
<g id="node17" class="node">
<title>Node17</title>
<g id="a_node17"><a xlink:href="sequence_8h.html" target="_top" xlink:title="Functions and data structures related to sequence representations ,.">
<polygon fill="white" stroke="#666666" points="383,-272 261,-272 261,-253 383,-253 383,-272"/>
<text text-anchor="middle" x="322" y="-260" font-family="Helvetica,sans-Serif" font-size="10.00">ViennaRNA/sequence.h</text>
</a>
</g>
</g>
<!-- Node3&#45;&gt;Node17 -->
<g id="edge35" class="edge">
<title>Node3&#45;&gt;Node17</title>
<path fill="none" stroke="#63b8ff" d="M491.16,-307.51C454.2,-298.65 400.2,-285.07 363.16,-275.33"/>
<polygon fill="#63b8ff" stroke="#63b8ff" points="364.27,-272.01 353.7,-272.83 362.48,-278.77 364.27,-272.01"/>
</g>
<!-- Node3&#45;&gt;Node18 -->
<g id="edge43" class="edge">
<title>Node3&#45;&gt;Node18</title>
<path fill="none" stroke="#63b8ff" d="M605.2,-308.64C685.62,-299.95 818.56,-285.4 933,-272 934,-271.88 935,-271.77 936.01,-271.65"/>
<polygon fill="#63b8ff" stroke="#63b8ff" points="936,-275.17 945.52,-270.51 935.17,-268.22 936,-275.17"/>
</g>
<!-- Node5&#45;&gt;Node3 -->
<g id="edge33" class="edge">
<title>Node5&#45;&gt;Node3</title>
<path fill="none" stroke="#63b8ff" d="M657.12,-272.36C635.56,-280.97 600.02,-294.13 572.24,-303.84"/>
<polygon fill="#63b8ff" stroke="#63b8ff" points="571.38,-300.44 563.08,-307.01 573.67,-307.05 571.38,-300.44"/>
</g>
<!-- Node5&#45;&gt;Node4 -->
<g id="edge34" class="edge">
<title>Node5&#45;&gt;Node4</title>
<path fill="none" stroke="#63b8ff" d="M688.64,-252.64C709.72,-238.04 753.66,-208.42 793,-187 818.18,-173.29 847.82,-159.86 869.83,-150.38"/>
<polygon fill="#63b8ff" stroke="#63b8ff" points="871.05,-153.66 878.88,-146.52 868.31,-147.22 871.05,-153.66"/>
</g>
<!-- Node6 -->
<g id="node6" class="node">
<title>Node6</title>
<g id="a_node6"><a xlink:href="constants_8h.html" target="_top" xlink:title="Energy parameter constants.">
<polygon fill="white" stroke="#666666" points="831,-145.5 673,-145.5 673,-126.5 831,-126.5 831,-145.5"/>
<text text-anchor="middle" x="752" y="-133.5" font-family="Helvetica,sans-Serif" font-size="10.00">ViennaRNA/params/constants.h</text>
</a>
</g>
</g>
<!-- Node5&#45;&gt;Node6 -->
<g id="edge5" class="edge">
<title>Node5&#45;&gt;Node6</title>
<path fill="none" stroke="#63b8ff" d="M684.05,-252.73C691.78,-244.06 703.5,-230.2 712,-217 724.71,-197.25 736.37,-172.9 743.78,-156.29"/>
<polygon fill="#63b8ff" stroke="#63b8ff" points="746.99,-157.69 747.77,-147.13 740.57,-154.9 746.99,-157.69"/>
</g>
<!-- Node8 -->
<g id="node8" class="node">
<title>Node8</title>
<g id="a_node8"><a xlink:href="datastructures_2basic_8h.html" target="_top" xlink:title="Various data structures and pre&#45;processor macros.">
<polygon fill="white" stroke="#666666" points="703,-217 569,-217 569,-187 703,-187 703,-217"/>
<text text-anchor="start" x="577" y="-205" font-family="Helvetica,sans-Serif" font-size="10.00">ViennaRNA/datastructures</text>
<text text-anchor="middle" x="636" y="-194" font-family="Helvetica,sans-Serif" font-size="10.00">/basic.h</text>
</a>
</g>
</g>
<!-- Node5&#45;&gt;Node8 -->
<g id="edge7" class="edge">
<title>Node5&#45;&gt;Node8</title>
<path fill="none" stroke="#63b8ff" d="M665.14,-252.87C658.99,-246.03 651.66,-236.14 645.74,-226.97"/>
<polygon fill="#63b8ff" stroke="#63b8ff" points="648.73,-225.16 640.56,-218.41 642.74,-228.78 648.73,-225.16"/>
</g>
<!-- Node7 -->
<g id="node7" class="node">
<title>Node7</title>
<g id="a_node7"><a xlink:title=" ">
<polygon fill="#e0e0e0" stroke="#999999" points="776,-79.5 728,-79.5 728,-60.5 776,-60.5 776,-79.5"/>
<text text-anchor="middle" x="752" y="-67.5" font-family="Helvetica,sans-Serif" font-size="10.00">limits.h</text>
</a>
</g>
</g>
<!-- Node6&#45;&gt;Node7 -->
<g id="edge6" class="edge">
<title>Node6&#45;&gt;Node7</title>
<path fill="none" stroke="#63b8ff" d="M752,-126.1C752,-117.12 752,-102.95 752,-91.22"/>
<polygon fill="#63b8ff" stroke="#63b8ff" points="755.5,-91.34 752,-81.34 748.5,-91.34 755.5,-91.34"/>
</g>
<!-- Node8&#45;&gt;Node3 -->
<g id="edge9" class="edge">
<title>Node8&#45;&gt;Node3</title>
<path fill="none" stroke="#63b8ff" d="M622.77,-217.44C603.59,-238.37 568.15,-277.05 547.68,-299.38"/>
<polygon fill="#63b8ff" stroke="#63b8ff" points="545.36,-296.74 541.18,-306.48 550.52,-301.47 545.36,-296.74"/>
</g>
<!-- Node8&#45;&gt;Node4 -->
<g id="edge10" class="edge">
<title>Node8&#45;&gt;Node4</title>
<path fill="none" stroke="#63b8ff" d="M696.03,-186.56C743.67,-175.09 809.41,-159.28 853.7,-148.62"/>
<polygon fill="#63b8ff" stroke="#63b8ff" points="854.37,-152.06 863.28,-146.32 852.74,-145.25 854.37,-152.06"/>
</g>
<!-- Node8&#45;&gt;Node5 -->
<g id="edge11" class="edge">
<title>Node8&#45;&gt;Node5</title>
<path fill="none" stroke="#63b8ff" d="M651.52,-217.11C657.81,-224.87 664.6,-234.58 669.64,-242.93"/>
<polygon fill="#63b8ff" stroke="#63b8ff" points="666.47,-244.43 674.33,-251.54 672.62,-241.08 666.47,-244.43"/>
</g>
<!-- Node8&#45;&gt;Node6 -->
<g id="edge8" class="edge">
<title>Node8&#45;&gt;Node6</title>
<path fill="none" stroke="#63b8ff" d="M662.03,-186.64C681.08,-176.13 706.82,-161.92 725.89,-151.4"/>
<polygon fill="#63b8ff" stroke="#63b8ff" points="727.32,-154.61 734.39,-146.72 723.94,-148.48 727.32,-154.61"/>
</g>
<!-- Node8&#45;&gt;Node9 -->
<g id="edge12" class="edge">
<title>Node8&#45;&gt;Node9</title>
<path fill="none" stroke="#63b8ff" d="M703.28,-190.33C767.91,-180.63 868.09,-165.63 955,-151 960.79,-150.03 966.82,-148.98 972.88,-147.9"/>
<polygon fill="#63b8ff" stroke="#63b8ff" points="973.07,-151.43 982.3,-146.23 971.84,-144.53 973.07,-151.43"/>
</g>
<!-- Node8&#45;&gt;Node10 -->
<g id="edge15" class="edge">
<title>Node8&#45;&gt;Node10</title>
<path fill="none" stroke="#63b8ff" d="M568.65,-190.95C508.53,-181.78 417.8,-167.48 329.93,-151.5"/>
<polygon fill="#63b8ff" stroke="#63b8ff" points="330.63,-148.07 320.16,-149.71 329.37,-154.95 330.63,-148.07"/>
</g>
<!-- Node8&#45;&gt;Node12 -->
<g id="edge19" class="edge">
<title>Node8&#45;&gt;Node12</title>
<path fill="none" stroke="#63b8ff" d="M576.09,-186.56C539.17,-177.04 492.09,-164.51 455.29,-154.43"/>
<polygon fill="#63b8ff" stroke="#63b8ff" points="456.25,-151.07 445.68,-151.79 454.39,-157.82 456.25,-151.07"/>
</g>
<!-- Node8&#45;&gt;Node13 -->
<g id="edge23" class="edge">
<title>Node8&#45;&gt;Node13</title>
<path fill="none" stroke="#63b8ff" d="M703.45,-196.16C796.6,-188.98 969.68,-173.85 1116,-151 1121.3,-150.17 1126.81,-149.2 1132.3,-148.16"/>
<polygon fill="#63b8ff" stroke="#63b8ff" points="1132.83,-151.63 1141.96,-146.26 1131.47,-144.76 1132.83,-151.63"/>
</g>
<!-- Node8&#45;&gt;Node14 -->
<g id="edge25" class="edge">
<title>Node8&#45;&gt;Node14</title>
<path fill="none" stroke="#63b8ff" d="M568.85,-195.53C483.63,-188.12 331.91,-173.41 193.13,-151.42"/>
<polygon fill="#63b8ff" stroke="#63b8ff" points="193.81,-147.98 183.38,-149.85 192.7,-154.89 193.81,-147.98"/>
</g>
<!-- Node8&#45;&gt;Node15 -->
<g id="edge26" class="edge">
<title>Node8&#45;&gt;Node15</title>
<path fill="none" stroke="#63b8ff" d="M607.82,-186.64C593.34,-178.07 575.93,-167.06 561.81,-157.58"/>
<polygon fill="#63b8ff" stroke="#63b8ff" points="564.11,-154.92 553.88,-152.17 560.17,-160.7 564.11,-154.92"/>
</g>
<!-- Node16 -->
<g id="node16" class="node">
<title>Node16</title>
<g id="a_node16"><a xlink:href="utils_2structures_8h.html" target="_top" xlink:title="Various utility&#45; and helper&#45;functions for secondary structure parsing, converting,...">
<polygon fill="white" stroke="#666666" points="658,-79.5 514,-79.5 514,-60.5 658,-60.5 658,-79.5"/>
<text text-anchor="middle" x="586" y="-67.5" font-family="Helvetica,sans-Serif" font-size="10.00">ViennaRNA/utils/structures.h</text>
</a>
</g>
</g>
<!-- Node8&#45;&gt;Node16 -->
<g id="edge32" class="edge">
<title>Node8&#45;&gt;Node16</title>
<path fill="none" stroke="#63b8ff" d="M624.83,-186.72C617.07,-170.62 607.96,-143.72 599,-121 595.03,-110.93 590.23,-99.9 586.92,-90.77"/>
<polygon fill="#63b8ff" stroke="#63b8ff" points="590.27,-89.75 584,-81.21 583.57,-91.8 590.27,-89.75"/>
</g>
<!-- Node9&#45;&gt;Node3 -->
<g id="edge14" class="edge">
<title>Node9&#45;&gt;Node3</title>
<path fill="none" stroke="#63b8ff" d="M1007.07,-145.97C976.95,-154.03 932.05,-167.6 896,-187 842.51,-215.78 844.35,-246.99 789,-272 734.87,-296.46 668.39,-307.49 616.55,-312.46"/>
<polygon fill="#63b8ff" stroke="#63b8ff" points="616.54,-308.95 606.89,-313.32 617.16,-315.92 616.54,-308.95"/>
</g>
<!-- Node9&#45;&gt;Node8 -->
<g id="edge13" class="edge">
<title>Node9&#45;&gt;Node8</title>
<path fill="none" stroke="#63b8ff" d="M1001.42,-145.96C992.14,-147.69 982.26,-149.44 973,-151 884.89,-165.83 783.13,-181.04 714.62,-190.73"/>
<polygon fill="#63b8ff" stroke="#63b8ff" points="714.4,-187.23 704.99,-192.09 715.38,-194.16 714.4,-187.23"/>
</g>
<!-- Node10&#45;&gt;Node3 -->
<g id="edge16" class="edge">
<title>Node10&#45;&gt;Node3</title>
<path fill="none" stroke="#63b8ff" d="M284.82,-151.42C339.25,-184.73 464.04,-266.75 512.48,-301.04"/>
<polygon fill="#63b8ff" stroke="#63b8ff" points="510.22,-303.72 520.38,-306.72 514.3,-298.04 510.22,-303.72"/>
</g>
<!-- Node11 -->
<g id="node11" class="node">
<title>Node11</title>
<g id="a_node11"><a xlink:href="constraints_2basic_8h.html" target="_top" xlink:title="Functions and data structures for constraining secondary structure predictions and evaluation.">
<polygon fill="white" stroke="#666666" points="318.5,-85 199.5,-85 199.5,-55 318.5,-55 318.5,-85"/>
<text text-anchor="start" x="207.5" y="-73" font-family="Helvetica,sans-Serif" font-size="10.00">ViennaRNA/constraints</text>
<text text-anchor="middle" x="259" y="-62" font-family="Helvetica,sans-Serif" font-size="10.00">/basic.h</text>
</a>
</g>
</g>
<!-- Node10&#45;&gt;Node11 -->
<g id="edge17" class="edge">
<title>Node10&#45;&gt;Node11</title>
<path fill="none" stroke="#63b8ff" d="M259,-120.8C259,-113.67 259,-104.82 259,-96.56"/>
<polygon fill="#63b8ff" stroke="#63b8ff" points="262.5,-96.68 259,-86.68 255.5,-96.68 262.5,-96.68"/>
</g>
<!-- Node11&#45;&gt;Node3 -->
<g id="edge18" class="edge">
<title>Node11&#45;&gt;Node3</title>
<path fill="none" stroke="#63b8ff" d="M199.19,-72.44C129.59,-76.79 27.67,-92.92 57,-151 97.83,-231.86 137.18,-237.66 221,-272 293.73,-301.8 383.12,-312.15 447.37,-315.51"/>
<polygon fill="#63b8ff" stroke="#63b8ff" points="447,-318.99 457.15,-315.97 447.32,-312 447,-318.99"/>
</g>
<!-- Node12&#45;&gt;Node3 -->
<g id="edge21" class="edge">
<title>Node12&#45;&gt;Node3</title>
<path fill="none" stroke="#63b8ff" d="M418.25,-151.34C429.2,-161.06 441.83,-174.38 452,-187 482.13,-224.39 512.91,-271.6 526.27,-297.43"/>
<polygon fill="#63b8ff" stroke="#63b8ff" points="523.03,-298.78 530.47,-306.32 529.36,-295.79 523.03,-298.78"/>
</g>
<!-- Node12&#45;&gt;Node8 -->
<g id="edge20" class="edge">
<title>Node12&#45;&gt;Node8</title>
<path fill="none" stroke="#63b8ff" d="M455.71,-151.39C492.59,-160.9 539.67,-173.43 576.51,-183.51"/>
<polygon fill="#63b8ff" stroke="#63b8ff" points="575.56,-186.88 586.13,-186.16 577.42,-180.13 575.56,-186.88"/>
</g>
<!-- Node12&#45;&gt;Node11 -->
<g id="edge22" class="edge">
<title>Node12&#45;&gt;Node11</title>
<path fill="none" stroke="#63b8ff" d="M365.25,-120.64C345.95,-111.62 320.83,-99.89 299.87,-90.09"/>
<polygon fill="#63b8ff" stroke="#63b8ff" points="301.56,-87.02 291.01,-85.96 298.59,-93.36 301.56,-87.02"/>
</g>
<!-- Node13&#45;&gt;Node3 -->
<g id="edge24" class="edge">
<title>Node13&#45;&gt;Node3</title>
<path fill="none" stroke="#63b8ff" d="M1167.48,-145.9C1118.21,-169.94 962.69,-236.73 827,-272 757.44,-290.08 676.33,-301.85 616.72,-308.71"/>
<polygon fill="#63b8ff" stroke="#63b8ff" points="616.52,-305.21 606.97,-309.81 617.3,-312.17 616.52,-305.21"/>
</g>
<!-- Node15&#45;&gt;Node3 -->
<g id="edge28" class="edge">
<title>Node15&#45;&gt;Node3</title>
<path fill="none" stroke="#63b8ff" d="M539.57,-151.48C542.48,-183.52 540.94,-260.44 536.85,-296.81"/>
<polygon fill="#63b8ff" stroke="#63b8ff" points="533.44,-295.95 535.51,-306.34 540.37,-296.93 533.44,-295.95"/>
</g>
<!-- Node15&#45;&gt;Node8 -->
<g id="edge27" class="edge">
<title>Node15&#45;&gt;Node8</title>
<path fill="none" stroke="#63b8ff" d="M564.22,-151.39C578.74,-159.98 596.21,-171.03 610.35,-180.52"/>
<polygon fill="#63b8ff" stroke="#63b8ff" points="608.05,-183.19 618.28,-185.94 612,-177.41 608.05,-183.19"/>
</g>
<!-- Node15&#45;&gt;Node16 -->
<g id="edge29" class="edge">
<title>Node15&#45;&gt;Node16</title>
<path fill="none" stroke="#63b8ff" d="M547.1,-120.8C554.51,-111.31 564.31,-98.76 572.23,-88.63"/>
<polygon fill="#63b8ff" stroke="#63b8ff" points="574.76,-91.07 578.16,-81.04 569.24,-86.76 574.76,-91.07"/>
</g>
<!-- Node16&#45;&gt;Node2 -->
<g id="edge30" class="edge">
<title>Node16&#45;&gt;Node2</title>
<path fill="none" stroke="#63b8ff" d="M537.36,-60.05C472.55,-48.13 359.46,-27.33 302.66,-16.88"/>
<polygon fill="#63b8ff" stroke="#63b8ff" points="303.38,-13.45 292.91,-15.08 302.12,-20.33 303.38,-13.45"/>
</g>
<!-- Node16&#45;&gt;Node8 -->
<g id="edge31" class="edge">
<title>Node16&#45;&gt;Node8</title>
<path fill="none" stroke="#63b8ff" d="M596.65,-79.76C603.69,-89.68 611.23,-106.35 617,-121 624.14,-139.11 631.38,-159.86 635.46,-175.69"/>
<polygon fill="#63b8ff" stroke="#63b8ff" points="632,-176.24 637.59,-185.24 638.83,-174.72 632,-176.24"/>
</g>
<!-- Node17&#45;&gt;Node3 -->
<g id="edge36" class="edge">
<title>Node17&#45;&gt;Node3</title>
<path fill="none" stroke="#63b8ff" d="M362.65,-272.45C399.56,-281.29 453.55,-294.87 490.66,-304.62"/>
<polygon fill="#63b8ff" stroke="#63b8ff" points="489.57,-307.95 500.13,-307.12 491.36,-301.18 489.57,-307.95"/>
</g>
</g>
</svg>
        <g id="navigator" transform="translate(0 0)" fill="#404254">
                <rect fill="#f2f5e9" fill-opacity="0.5" stroke="#606060" stroke-width=".5" x="0" y="0" width="60" height="60"/>
                <use id="zoomplus" xlink:href="#zoomPlus" x="17" y="9" onmousedown="handleZoom(evt,'in')"/>
                <use id="zoomminus" xlink:href="#zoomMin" x="42" y="9" onmousedown="handleZoom(evt,'out')"/>
                <use id="reset" xlink:href="#resetDef" x="30" y="36" onmousedown="handleReset()"/>
                <g id="arrowUp" xlink:href="#dirArrow" transform="translate(30 24)" onmousedown="handlePan(0,-1)">
                  <use xlink:href="#rim" fill="#404040">
                        <set attributeName="fill" to="#808080" begin="arrowUp.mouseover" end="arrowUp.mouseout"/>
                  </use>
                  <path fill="none" stroke="white" stroke-width="1.5" d="M0,-3.0v7 M-2.5,-0.5L0,-3.0L2.5,-0.5"/>
                </g>
                <g id="arrowRight" xlink:href="#dirArrow" transform="rotate(90) translate(36 -43)" onmousedown="handlePan(1,0)">
                  <use xlink:href="#rim" fill="#404040">
                        <set attributeName="fill" to="#808080" begin="arrowRight.mouseover" end="arrowRight.mouseout"/>
                  </use>
                  <path fill="none" stroke="white" stroke-width="1.5" d="M0,-3.0v7 M-2.5,-0.5L0,-3.0L2.5,-0.5"/>
                </g>
                <g id="arrowDown" xlink:href="#dirArrow" transform="rotate(180) translate(-30 -48)" onmousedown="handlePan(0,1)">
                  <use xlink:href="#rim" fill="#404040">
                        <set attributeName="fill" to="#808080" begin="arrowDown.mouseover" end="arrowDown.mouseout"/>
                  </use>
                  <path fill="none" stroke="white" stroke-width="1.5" d="M0,-3.0v7 M-2.5,-0.5L0,-3.0L2.5,-0.5"/>
                </g>
                <g id="arrowLeft" xlink:href="#dirArrow" transform="rotate(270) translate(-36 17)" onmousedown="handlePan(-1,0)">
                  <use xlink:href="#rim" fill="#404040">
                        <set attributeName="fill" to="#808080" begin="arrowLeft.mouseover" end="arrowLeft.mouseout"/>
                  </use>
                  <path fill="none" stroke="white" stroke-width="1.5" d="M0,-3.0v7 M-2.5,-0.5L0,-3.0L2.5,-0.5"/>
                </g>
        </g>
        <svg viewBox="0 0 15 15" width="100%" height="30px" preserveAspectRatio="xMaxYMin meet">
         <g id="arrow_out" transform="scale(0.3 0.3)">
          <a xlink:href="mfe__window_8h__incl_org.svg" target="_base">
           <rect id="button" ry="5" rx="5" y="6" x="6" height="38" width="38"
                fill="#f2f5e9" fill-opacity="0.5" stroke="#606060" stroke-width="1.0"/>
           <path id="arrow"
             d="M 11.500037,31.436501 C 11.940474,20.09759 22.043105,11.32322 32.158766,21.979434 L 37.068811,17.246167 C 37.068811,17.246167 37.088388,32 37.088388,32 L 22.160133,31.978069 C 22.160133,31.978069 26.997745,27.140456 26.997745,27.140456 C 18.528582,18.264221 13.291696,25.230495 11.500037,31.436501 z"
             style="fill:#404040;"/>
          </a>
         </g>
        </svg>
</svg>
