<?xml version="1.0" encoding="UTF-8" standalone="no"?>
<!DOCTYPE svg PUBLIC "-//W3C//DTD SVG 1.1//EN"
 "http://www.w3.org/Graphics/SVG/1.1/DTD/svg11.dtd">
<!-- Generated by graphviz version 7.1.0 (0)
 -->
<!-- Title: ViennaRNA/mfe.h Pages: 1 -->
<svg width="1530pt" height="335pt"
 viewBox="0.00 0.00 1529.50 335.00" xmlns="http://www.w3.org/2000/svg" xmlns:xlink="http://www.w3.org/1999/xlink">
<g id="graph0" class="graph" transform="scale(1 1) rotate(0) translate(4 331)">
<title>ViennaRNA/mfe.h</title>
<!-- Node1 -->
<g id="node1" class="node">
<title>Node1</title>
<g id="a_node1"><a xlink:title="Compute Minimum Free energy (MFE) and backtrace corresponding secondary structures from RNA sequence ...">
<polygon fill="#999999" stroke="#666666" points="1087.5,-327 991.5,-327 991.5,-308 1087.5,-308 1087.5,-327"/>
<text text-anchor="middle" x="1039.5" y="-315" font-family="Helvetica,sans-Serif" font-size="10.00">ViennaRNA/mfe.h</text>
</a>
</g>
</g>
<!-- Node2 -->
<g id="node2" class="node">
<title>Node2</title>
<g id="a_node2"><a xlink:title=" ">
<polygon fill="#e0e0e0" stroke="#999999" points="1494.5,-19 1448.5,-19 1448.5,0 1494.5,0 1494.5,-19"/>
<text text-anchor="middle" x="1471.5" y="-7" font-family="Helvetica,sans-Serif" font-size="10.00">stdio.h</text>
</a>
</g>
</g>
<!-- Node1&#45;&gt;Node2 -->
<g id="edge1" class="edge">
<title>Node1&#45;&gt;Node2</title>
<path fill="none" stroke="#63b8ff" d="M1087.92,-314.79C1210.15,-309.18 1521.5,-286.17 1521.5,-197.5 1521.5,-197.5 1521.5,-197.5 1521.5,-135 1521.5,-98.46 1517.43,-88.36 1502.5,-55 1498.28,-45.57 1491.99,-36.06 1486.17,-28.25"/>
<polygon fill="#63b8ff" stroke="#63b8ff" points="1489.11,-26.33 1480.18,-20.62 1483.6,-30.65 1489.11,-26.33"/>
</g>
<!-- Node3 -->
<g id="node3" class="node">
<title>Node3</title>
<g id="a_node3"><a xlink:href="datastructures_2basic_8h.html" target="_top" xlink:title="Various data structures and pre&#45;processor macros.">
<polygon fill="white" stroke="#666666" points="1106.5,-272 972.5,-272 972.5,-242 1106.5,-242 1106.5,-272"/>
<text text-anchor="start" x="980.5" y="-260" font-family="Helvetica,sans-Serif" font-size="10.00">ViennaRNA/datastructures</text>
<text text-anchor="middle" x="1039.5" y="-249" font-family="Helvetica,sans-Serif" font-size="10.00">/basic.h</text>
</a>
</g>
</g>
<!-- Node1&#45;&gt;Node3 -->
<g id="edge2" class="edge">
<title>Node1&#45;&gt;Node3</title>
<path fill="none" stroke="#63b8ff" d="M1039.5,-307.87C1039.5,-301.4 1039.5,-292.2 1039.5,-283.45"/>
<polygon fill="#63b8ff" stroke="#63b8ff" points="1043,-283.63 1039.5,-273.63 1036,-283.63 1043,-283.63"/>
</g>
<!-- Node6 -->
<g id="node6" class="node">
<title>Node6</title>
<g id="a_node6"><a xlink:href="fold__compound_8h.html" target="_top" xlink:title="The Basic Fold Compound API.">
<polygon fill="white" stroke="#666666" points="853.5,-206 707.5,-206 707.5,-187 853.5,-187 853.5,-206"/>
<text text-anchor="middle" x="780.5" y="-194" font-family="Helvetica,sans-Serif" font-size="10.00">ViennaRNA/fold_compound.h</text>
</a>
</g>
</g>
<!-- Node1&#45;&gt;Node6 -->
<g id="edge44" class="edge">
<title>Node1&#45;&gt;Node6</title>
<path fill="none" stroke="#63b8ff" d="M1020.03,-307.56C975.02,-286.87 863.5,-235.64 810.03,-211.07"/>
<polygon fill="#63b8ff" stroke="#63b8ff" points="811.76,-208.01 801.22,-207.02 808.84,-214.37 811.76,-208.01"/>
</g>
<!-- Node4 -->
<g id="node4" class="node">
<title>Node4</title>
<g id="a_node4"><a xlink:href="constants_8h.html" target="_top" xlink:title="Energy parameter constants.">
<polygon fill="white" stroke="#666666" points="1320.5,-79.5 1162.5,-79.5 1162.5,-60.5 1320.5,-60.5 1320.5,-79.5"/>
<text text-anchor="middle" x="1241.5" y="-67.5" font-family="Helvetica,sans-Serif" font-size="10.00">ViennaRNA/params/constants.h</text>
</a>
</g>
</g>
<!-- Node3&#45;&gt;Node4 -->
<g id="edge3" class="edge">
<title>Node3&#45;&gt;Node4</title>
<path fill="none" stroke="#63b8ff" d="M1090.58,-241.52C1113.2,-233.47 1139.21,-221.83 1159.5,-206 1199.03,-175.16 1223.92,-119.53 1234.92,-90.23"/>
<polygon fill="#63b8ff" stroke="#63b8ff" points="1238.08,-91.78 1238.16,-81.18 1231.49,-89.41 1238.08,-91.78"/>
</g>
<!-- Node3&#45;&gt;Node6 -->
<g id="edge5" class="edge">
<title>Node3&#45;&gt;Node6</title>
<path fill="none" stroke="#63b8ff" d="M975.48,-241.54C930.98,-231.49 872.48,-218.27 831.2,-208.95"/>
<polygon fill="#63b8ff" stroke="#63b8ff" points="832.05,-205.55 821.52,-206.77 830.51,-212.38 832.05,-205.55"/>
</g>
<!-- Node7 -->
<g id="node7" class="node">
<title>Node7</title>
<g id="a_node7"><a xlink:href="model_8h.html" target="_top" xlink:title="The model details data structure and its corresponding modifiers.">
<polygon fill="white" stroke="#666666" points="1144.5,-79.5 1038.5,-79.5 1038.5,-60.5 1144.5,-60.5 1144.5,-79.5"/>
<text text-anchor="middle" x="1091.5" y="-67.5" font-family="Helvetica,sans-Serif" font-size="10.00">ViennaRNA/model.h</text>
</a>
</g>
</g>
<!-- Node3&#45;&gt;Node7 -->
<g id="edge35" class="edge">
<title>Node3&#45;&gt;Node7</title>
<path fill="none" stroke="#63b8ff" d="M1075.51,-241.61C1110.58,-225.42 1161.82,-195.43 1184.5,-151 1190.56,-139.12 1191.34,-132.44 1184.5,-121 1173.96,-103.37 1154.84,-91.6 1136.67,-83.93"/>
<polygon fill="#63b8ff" stroke="#63b8ff" points="1138.15,-80.75 1127.56,-80.42 1135.63,-87.28 1138.15,-80.75"/>
</g>
<!-- Node8 -->
<g id="node8" class="node">
<title>Node8</title>
<g id="a_node8"><a xlink:href="params_2basic_8h.html" target="_top" xlink:title="Functions to deal with sets of energy parameters.">
<polygon fill="white" stroke="#666666" points="1175.5,-145.5 1037.5,-145.5 1037.5,-126.5 1175.5,-126.5 1175.5,-145.5"/>
<text text-anchor="middle" x="1106.5" y="-133.5" font-family="Helvetica,sans-Serif" font-size="10.00">ViennaRNA/params/basic.h</text>
</a>
</g>
</g>
<!-- Node3&#45;&gt;Node8 -->
<g id="edge36" class="edge">
<title>Node3&#45;&gt;Node8</title>
<path fill="none" stroke="#63b8ff" d="M1042.89,-241.88C1052.32,-220.22 1075.5,-178.78 1091.37,-154.99"/>
<polygon fill="#63b8ff" stroke="#63b8ff" points="1094.13,-157.15 1097,-146.95 1088.4,-153.14 1094.13,-157.15"/>
</g>
<!-- Node10 -->
<g id="node10" class="node">
<title>Node10</title>
<g id="a_node10"><a xlink:href="dp__matrices_8h.html" target="_top" xlink:title="Functions to deal with standard dynamic programming (DP) matrices.">
<polygon fill="white" stroke="#666666" points="133,-145.5 0,-145.5 0,-126.5 133,-126.5 133,-145.5"/>
<text text-anchor="middle" x="66.5" y="-133.5" font-family="Helvetica,sans-Serif" font-size="10.00">ViennaRNA/dp_matrices.h</text>
</a>
</g>
</g>
<!-- Node3&#45;&gt;Node10 -->
<g id="edge37" class="edge">
<title>Node3&#45;&gt;Node10</title>
<path fill="none" stroke="#63b8ff" d="M972.37,-252.26C863.68,-245.5 642.97,-229.75 457.5,-206 312.19,-187.4 276.73,-176.66 132.5,-151 127.16,-150.05 121.6,-149.04 116.08,-148.03"/>
<polygon fill="#63b8ff" stroke="#63b8ff" points="116.82,-144.61 106.35,-146.21 115.54,-151.49 116.82,-144.61"/>
</g>
<!-- Node11 -->
<g id="node11" class="node">
<title>Node11</title>
<g id="a_node11"><a xlink:href="hard_8h.html" target="_top" xlink:title="Functions and data structures for handling of secondary structure hard constraints.">
<polygon fill="white" stroke="#666666" points="403,-151 284,-151 284,-121 403,-121 403,-151"/>
<text text-anchor="start" x="292" y="-139" font-family="Helvetica,sans-Serif" font-size="10.00">ViennaRNA/constraints</text>
<text text-anchor="middle" x="343.5" y="-128" font-family="Helvetica,sans-Serif" font-size="10.00">/hard.h</text>
</a>
</g>
</g>
<!-- Node3&#45;&gt;Node11 -->
<g id="edge38" class="edge">
<title>Node3&#45;&gt;Node11</title>
<path fill="none" stroke="#63b8ff" d="M972.07,-247C903.19,-237.6 793.19,-222.01 698.5,-206 574.07,-184.96 540.75,-176.78 414.48,-151.59"/>
<polygon fill="#63b8ff" stroke="#63b8ff" points="415.17,-148.16 404.68,-149.63 413.8,-155.02 415.17,-148.16"/>
</g>
<!-- Node13 -->
<g id="node13" class="node">
<title>Node13</title>
<g id="a_node13"><a xlink:href="soft_8h.html" target="_top" xlink:title="Functions and data structures for secondary structure soft constraints.">
<polygon fill="white" stroke="#666666" points="1019,-151 900,-151 900,-121 1019,-121 1019,-151"/>
<text text-anchor="start" x="908" y="-139" font-family="Helvetica,sans-Serif" font-size="10.00">ViennaRNA/constraints</text>
<text text-anchor="middle" x="959.5" y="-128" font-family="Helvetica,sans-Serif" font-size="10.00">/soft.h</text>
</a>
</g>
</g>
<!-- Node3&#45;&gt;Node13 -->
<g id="edge39" class="edge">
<title>Node3&#45;&gt;Node13</title>
<path fill="none" stroke="#63b8ff" d="M1025.45,-241.88C1009.58,-222.04 984.75,-185.62 970.3,-161.35"/>
<polygon fill="#63b8ff" stroke="#63b8ff" points="973.4,-159.71 965.38,-152.78 967.33,-163.2 973.4,-159.71"/>
</g>
<!-- Node14 -->
<g id="node14" class="node">
<title>Node14</title>
<g id="a_node14"><a xlink:href="grammar_8h.html" target="_top" xlink:title="Implementations for the RNA folding grammar.">
<polygon fill="white" stroke="#666666" points="882,-145.5 765,-145.5 765,-126.5 882,-126.5 882,-145.5"/>
<text text-anchor="middle" x="823.5" y="-133.5" font-family="Helvetica,sans-Serif" font-size="10.00">ViennaRNA/grammar.h</text>
</a>
</g>
</g>
<!-- Node3&#45;&gt;Node14 -->
<g id="edge40" class="edge">
<title>Node3&#45;&gt;Node14</title>
<path fill="none" stroke="#63b8ff" d="M1013.45,-241.65C971.95,-218.79 891.3,-174.36 849.71,-151.44"/>
<polygon fill="#63b8ff" stroke="#63b8ff" points="851.56,-148.46 841.11,-146.7 848.18,-154.6 851.56,-148.46"/>
</g>
<!-- Node15 -->
<g id="node15" class="node">
<title>Node15</title>
<g id="a_node15"><a xlink:href="structured__domains_8h.html" target="_top" xlink:title="This module provides interfaces that deal with additional structured domains in the folding grammar.">
<polygon fill="white" stroke="#666666" points="266,-151 151,-151 151,-121 266,-121 266,-151"/>
<text text-anchor="start" x="159" y="-139" font-family="Helvetica,sans-Serif" font-size="10.00">ViennaRNA/structured</text>
<text text-anchor="middle" x="208.5" y="-128" font-family="Helvetica,sans-Serif" font-size="10.00">_domains.h</text>
</a>
</g>
</g>
<!-- Node3&#45;&gt;Node15 -->
<g id="edge41" class="edge">
<title>Node3&#45;&gt;Node15</title>
<path fill="none" stroke="#63b8ff" d="M972.02,-249.79C884.02,-241.39 725.41,-225.23 590.5,-206 452.95,-186.39 416.31,-178.42 277.49,-151.55"/>
<polygon fill="#63b8ff" stroke="#63b8ff" points="278.39,-148.16 267.91,-149.7 277.06,-155.03 278.39,-148.16"/>
</g>
<!-- Node16 -->
<g id="node16" class="node">
<title>Node16</title>
<g id="a_node16"><a xlink:href="unstructured__domains_8h.html" target="_top" xlink:title="Functions to modify unstructured domains, e.g. to incorporate ligands binding to unpaired stretches.">
<polygon fill="white" stroke="#666666" points="1395,-151 1270,-151 1270,-121 1395,-121 1395,-151"/>
<text text-anchor="start" x="1278" y="-139" font-family="Helvetica,sans-Serif" font-size="10.00">ViennaRNA/unstructured</text>
<text text-anchor="middle" x="1332.5" y="-128" font-family="Helvetica,sans-Serif" font-size="10.00">_domains.h</text>
</a>
</g>
</g>
<!-- Node3&#45;&gt;Node16 -->
<g id="edge42" class="edge">
<title>Node3&#45;&gt;Node16</title>
<path fill="none" stroke="#63b8ff" d="M1106.83,-248.03C1148.78,-241.21 1202.78,-228.71 1246.5,-206 1269.02,-194.3 1290.15,-174.49 1306.07,-159.08"/>
<polygon fill="#63b8ff" stroke="#63b8ff" points="1308.06,-162.02 1312.81,-152.55 1303.19,-156.99 1308.06,-162.02"/>
</g>
<!-- Node17 -->
<g id="node17" class="node">
<title>Node17</title>
<g id="a_node17"><a xlink:href="utils_2structures_8h.html" target="_top" xlink:title="Various utility&#45; and helper&#45;functions for secondary structure parsing, converting,...">
<polygon fill="white" stroke="#666666" points="1493.5,-79.5 1349.5,-79.5 1349.5,-60.5 1493.5,-60.5 1493.5,-79.5"/>
<text text-anchor="middle" x="1421.5" y="-67.5" font-family="Helvetica,sans-Serif" font-size="10.00">ViennaRNA/utils/structures.h</text>
</a>
</g>
</g>
<!-- Node3&#45;&gt;Node17 -->
<g id="edge43" class="edge">
<title>Node3&#45;&gt;Node17</title>
<path fill="none" stroke="#63b8ff" d="M1106.84,-245.19C1199.79,-229.42 1359.74,-196.9 1395.5,-151 1408.84,-133.87 1412.31,-108.67 1414.86,-91.15"/>
<polygon fill="#63b8ff" stroke="#63b8ff" points="1418.28,-91.89 1416.44,-81.46 1411.37,-90.77 1418.28,-91.89"/>
</g>
<!-- Node5 -->
<g id="node5" class="node">
<title>Node5</title>
<g id="a_node5"><a xlink:title=" ">
<polygon fill="#e0e0e0" stroke="#999999" points="1265.5,-19 1217.5,-19 1217.5,0 1265.5,0 1265.5,-19"/>
<text text-anchor="middle" x="1241.5" y="-7" font-family="Helvetica,sans-Serif" font-size="10.00">limits.h</text>
</a>
</g>
</g>
<!-- Node4&#45;&gt;Node5 -->
<g id="edge4" class="edge">
<title>Node4&#45;&gt;Node5</title>
<path fill="none" stroke="#63b8ff" d="M1241.5,-60.37C1241.5,-52.5 1241.5,-40.6 1241.5,-30.39"/>
<polygon fill="#63b8ff" stroke="#63b8ff" points="1245,-30.68 1241.5,-20.68 1238,-30.68 1245,-30.68"/>
</g>
<!-- Node6&#45;&gt;Node7 -->
<g id="edge6" class="edge">
<title>Node6&#45;&gt;Node7</title>
<path fill="none" stroke="#63b8ff" d="M772.79,-186.62C760.58,-171.46 739.82,-140.35 756.5,-121 790.67,-81.35 939.29,-72.67 1026.68,-71.06"/>
<polygon fill="#63b8ff" stroke="#63b8ff" points="1026.61,-74.56 1036.55,-70.9 1026.5,-67.56 1026.61,-74.56"/>
</g>
<!-- Node6&#45;&gt;Node8 -->
<g id="edge7" class="edge">
<title>Node6&#45;&gt;Node8</title>
<path fill="none" stroke="#63b8ff" d="M825.34,-186.55C880.97,-176.18 976.09,-159.09 1040.15,-147.94"/>
<polygon fill="#63b8ff" stroke="#63b8ff" points="1040.59,-151.41 1049.85,-146.25 1039.4,-144.52 1040.59,-151.41"/>
</g>
<!-- Node9 -->
<g id="node9" class="node">
<title>Node9</title>
<g id="a_node9"><a xlink:href="sequence_8h.html" target="_top" xlink:title="Functions and data structures related to sequence representations ,.">
<polygon fill="white" stroke="#666666" points="708.5,-145.5 586.5,-145.5 586.5,-126.5 708.5,-126.5 708.5,-145.5"/>
<text text-anchor="middle" x="647.5" y="-133.5" font-family="Helvetica,sans-Serif" font-size="10.00">ViennaRNA/sequence.h</text>
</a>
</g>
</g>
<!-- Node6&#45;&gt;Node9 -->
<g id="edge12" class="edge">
<title>Node6&#45;&gt;Node9</title>
<path fill="none" stroke="#63b8ff" d="M755.29,-186.62C731.71,-177.12 696.94,-161.95 673.22,-150.88"/>
<polygon fill="#63b8ff" stroke="#63b8ff" points="674.77,-147.74 664.23,-146.62 671.76,-154.07 674.77,-147.74"/>
</g>
<!-- Node6&#45;&gt;Node10 -->
<g id="edge14" class="edge">
<title>Node6&#45;&gt;Node10</title>
<path fill="none" stroke="#63b8ff" d="M707.18,-193.34C586.63,-189.04 339.61,-177.45 132.5,-151 125.93,-150.16 119.07,-149.12 112.35,-147.98"/>
<polygon fill="#63b8ff" stroke="#63b8ff" points="113.2,-144.57 102.74,-146.26 111.96,-151.46 113.2,-144.57"/>
</g>
<!-- Node6&#45;&gt;Node11 -->
<g id="edge17" class="edge">
<title>Node6&#45;&gt;Node11</title>
<path fill="none" stroke="#63b8ff" d="M707.01,-189.12C633.4,-181.94 516.85,-169.14 414.55,-152.94"/>
<polygon fill="#63b8ff" stroke="#63b8ff" points="415.35,-149.52 404.92,-151.39 414.24,-156.43 415.35,-149.52"/>
</g>
<!-- Node6&#45;&gt;Node13 -->
<g id="edge21" class="edge">
<title>Node6&#45;&gt;Node13</title>
<path fill="none" stroke="#63b8ff" d="M802.68,-186.62C826.57,-178.23 865.37,-165.41 898.44,-154.9"/>
<polygon fill="#63b8ff" stroke="#63b8ff" points="899.48,-158.25 907.96,-151.9 897.37,-151.57 899.48,-158.25"/>
</g>
<!-- Node6&#45;&gt;Node14 -->
<g id="edge25" class="edge">
<title>Node6&#45;&gt;Node14</title>
<path fill="none" stroke="#63b8ff" d="M781.89,-186.87C786.33,-178.31 795.71,-164.97 804.61,-154.24"/>
<polygon fill="#63b8ff" stroke="#63b8ff" points="807.18,-156.62 811.17,-146.8 801.93,-151.99 807.18,-156.62"/>
</g>
<!-- Node6&#45;&gt;Node15 -->
<g id="edge27" class="edge">
<title>Node6&#45;&gt;Node15</title>
<path fill="none" stroke="#63b8ff" d="M707.27,-191.85C610.88,-186.43 436.01,-174.46 277.74,-151.37"/>
<polygon fill="#63b8ff" stroke="#63b8ff" points="278.28,-147.91 267.87,-149.91 277.25,-154.84 278.28,-147.91"/>
</g>
<!-- Node6&#45;&gt;Node16 -->
<g id="edge28" class="edge">
<title>Node6&#45;&gt;Node16</title>
<path fill="none" stroke="#63b8ff" d="M853.83,-187.21C959.31,-175.76 1152.61,-155.28 1258.47,-144.35"/>
<polygon fill="#63b8ff" stroke="#63b8ff" points="1258.6,-147.86 1268.18,-143.35 1257.88,-140.89 1258.6,-147.86"/>
</g>
<!-- Node18 -->
<g id="node18" class="node">
<title>Node18</title>
<g id="a_node18"><a xlink:href="zscore_8h_source.html" target="_top" xlink:title=" ">
<polygon fill="white" stroke="#666666" points="530,-145.5 421,-145.5 421,-126.5 530,-126.5 530,-145.5"/>
<text text-anchor="middle" x="475.5" y="-133.5" font-family="Helvetica,sans-Serif" font-size="10.00">ViennaRNA/zscore.h</text>
</a>
</g>
</g>
<!-- Node6&#45;&gt;Node18 -->
<g id="edge34" class="edge">
<title>Node6&#45;&gt;Node18</title>
<path fill="none" stroke="#63b8ff" d="M732.1,-186.58C684.37,-177.73 609.35,-163.69 544.5,-151 539.91,-150.1 535.15,-149.16 530.38,-148.21"/>
<polygon fill="#63b8ff" stroke="#63b8ff" points="531.26,-144.81 520.77,-146.28 529.88,-151.68 531.26,-144.81"/>
</g>
<!-- Node8&#45;&gt;Node3 -->
<g id="edge9" class="edge">
<title>Node8&#45;&gt;Node3</title>
<path fill="none" stroke="#63b8ff" d="M1105.33,-145.71C1098.46,-163.78 1075.36,-205.86 1058.23,-232.51"/>
<polygon fill="#63b8ff" stroke="#63b8ff" points="1055.46,-230.35 1052.84,-240.62 1061.29,-234.23 1055.46,-230.35"/>
</g>
<!-- Node8&#45;&gt;Node4 -->
<g id="edge8" class="edge">
<title>Node8&#45;&gt;Node4</title>
<path fill="none" stroke="#63b8ff" d="M1125.27,-126.1C1147.94,-115.35 1186.31,-97.16 1212.72,-84.64"/>
<polygon fill="#63b8ff" stroke="#63b8ff" points="1213.98,-87.92 1221.52,-80.47 1210.99,-81.59 1213.98,-87.92"/>
</g>
<!-- Node8&#45;&gt;Node6 -->
<g id="edge10" class="edge">
<title>Node8&#45;&gt;Node6</title>
<path fill="none" stroke="#63b8ff" d="M1061.4,-146C1005.66,-156.39 910.52,-173.48 846.56,-184.61"/>
<polygon fill="#63b8ff" stroke="#63b8ff" points="846.14,-181.13 836.88,-186.29 847.33,-188.03 846.14,-181.13"/>
</g>
<!-- Node8&#45;&gt;Node7 -->
<g id="edge11" class="edge">
<title>Node8&#45;&gt;Node7</title>
<path fill="none" stroke="#63b8ff" d="M1104.41,-126.1C1102.29,-117.03 1098.92,-102.64 1096.15,-90.85"/>
<polygon fill="#63b8ff" stroke="#63b8ff" points="1099.6,-90.23 1093.91,-81.3 1092.79,-91.83 1099.6,-90.23"/>
</g>
<!-- Node9&#45;&gt;Node6 -->
<g id="edge13" class="edge">
<title>Node9&#45;&gt;Node6</title>
<path fill="none" stroke="#63b8ff" d="M672.92,-145.97C696.56,-155.49 731.33,-170.67 754.99,-181.72"/>
<polygon fill="#63b8ff" stroke="#63b8ff" points="753.41,-184.84 763.94,-185.97 756.41,-178.51 753.41,-184.84"/>
</g>
<!-- Node10&#45;&gt;Node3 -->
<g id="edge15" class="edge">
<title>Node10&#45;&gt;Node3</title>
<path fill="none" stroke="#63b8ff" d="M122.51,-145.93C131.91,-147.64 141.5,-149.4 150.5,-151 294.73,-176.66 330.19,-187.4 475.5,-206 648.41,-228.14 851.95,-243.33 961.09,-250.76"/>
<polygon fill="#63b8ff" stroke="#63b8ff" points="960.59,-254.24 970.81,-251.42 961.07,-247.25 960.59,-254.24"/>
</g>
<!-- Node10&#45;&gt;Node6 -->
<g id="edge16" class="edge">
<title>Node10&#45;&gt;Node6</title>
<path fill="none" stroke="#63b8ff" d="M118.74,-145.99C129.29,-147.88 140.25,-149.69 150.5,-151 344.99,-175.84 574.68,-187.57 695.89,-192.47"/>
<polygon fill="#63b8ff" stroke="#63b8ff" points="695.64,-195.96 705.77,-192.86 695.92,-188.97 695.64,-195.96"/>
</g>
<!-- Node11&#45;&gt;Node6 -->
<g id="edge18" class="edge">
<title>Node11&#45;&gt;Node6</title>
<path fill="none" stroke="#63b8ff" d="M403.23,-147.94C409.08,-149.04 414.91,-150.09 420.5,-151 514.5,-166.32 622.78,-178.77 695.89,-186.56"/>
<polygon fill="#63b8ff" stroke="#63b8ff" points="695.5,-190.04 705.81,-187.61 696.23,-183.08 695.5,-190.04"/>
</g>
<!-- Node12 -->
<g id="node12" class="node">
<title>Node12</title>
<g id="a_node12"><a xlink:href="constraints_2basic_8h.html" target="_top" xlink:title="Functions and data structures for constraining secondary structure predictions and evaluation.">
<polygon fill="white" stroke="#666666" points="618,-85 499,-85 499,-55 618,-55 618,-85"/>
<text text-anchor="start" x="507" y="-73" font-family="Helvetica,sans-Serif" font-size="10.00">ViennaRNA/constraints</text>
<text text-anchor="middle" x="558.5" y="-62" font-family="Helvetica,sans-Serif" font-size="10.00">/basic.h</text>
</a>
</g>
</g>
<!-- Node11&#45;&gt;Node12 -->
<g id="edge19" class="edge">
<title>Node11&#45;&gt;Node12</title>
<path fill="none" stroke="#63b8ff" d="M392.02,-120.56C423.87,-111.08 465.72,-98.62 499.5,-88.56"/>
<polygon fill="#63b8ff" stroke="#63b8ff" points="500.12,-92.03 508.71,-85.82 498.12,-85.32 500.12,-92.03"/>
</g>
<!-- Node12&#45;&gt;Node6 -->
<g id="edge20" class="edge">
<title>Node12&#45;&gt;Node6</title>
<path fill="none" stroke="#63b8ff" d="M557.64,-85.32C557.4,-103.24 559.89,-133.69 577.5,-151 594.5,-167.71 648.05,-179.03 695.88,-186.07"/>
<polygon fill="#63b8ff" stroke="#63b8ff" points="695.36,-189.53 705.75,-187.46 696.34,-182.6 695.36,-189.53"/>
</g>
<!-- Node13&#45;&gt;Node3 -->
<g id="edge22" class="edge">
<title>Node13&#45;&gt;Node3</title>
<path fill="none" stroke="#63b8ff" d="M973.83,-151.47C989.81,-171.51 1014.62,-207.96 1028.95,-232.08"/>
<polygon fill="#63b8ff" stroke="#63b8ff" points="1025.81,-233.63 1033.81,-240.57 1031.88,-230.15 1025.81,-233.63"/>
</g>
<!-- Node13&#45;&gt;Node6 -->
<g id="edge23" class="edge">
<title>Node13&#45;&gt;Node6</title>
<path fill="none" stroke="#63b8ff" d="M921.23,-151.44C892.55,-161.21 853.39,-173.97 823.61,-183.25"/>
<polygon fill="#63b8ff" stroke="#63b8ff" points="822.66,-179.87 814.14,-186.17 824.73,-186.56 822.66,-179.87"/>
</g>
<!-- Node13&#45;&gt;Node12 -->
<g id="edge24" class="edge">
<title>Node13&#45;&gt;Node12</title>
<path fill="none" stroke="#63b8ff" d="M899.83,-122.53C897.02,-122 894.23,-121.49 891.5,-121 801.45,-104.98 697.1,-89.87 629.55,-80.54"/>
<polygon fill="#63b8ff" stroke="#63b8ff" points="630.09,-77.08 619.71,-79.18 629.14,-84.01 630.09,-77.08"/>
</g>
<!-- Node14&#45;&gt;Node6 -->
<g id="edge26" class="edge">
<title>Node14&#45;&gt;Node6</title>
<path fill="none" stroke="#63b8ff" d="M822.09,-145.67C817.64,-154.23 808.25,-167.58 799.35,-178.3"/>
<polygon fill="#63b8ff" stroke="#63b8ff" points="796.79,-175.92 792.8,-185.73 802.04,-180.55 796.79,-175.92"/>
</g>
<!-- Node16&#45;&gt;Node3 -->
<g id="edge29" class="edge">
<title>Node16&#45;&gt;Node3</title>
<path fill="none" stroke="#63b8ff" d="M1326.99,-151.5C1315.47,-167.33 1290.94,-192.26 1264.5,-206 1219.31,-229.47 1163.15,-242.04 1118.17,-248.7"/>
<polygon fill="#63b8ff" stroke="#63b8ff" points="1117.91,-245.2 1108.49,-250.06 1118.88,-252.13 1117.91,-245.2"/>
</g>
<!-- Node16&#45;&gt;Node6 -->
<g id="edge30" class="edge">
<title>Node16&#45;&gt;Node6</title>
<path fill="none" stroke="#63b8ff" d="M1269.61,-144.15C1170.16,-154.98 976.66,-175.5 865.13,-187.05"/>
<polygon fill="#63b8ff" stroke="#63b8ff" points="865.03,-183.54 855.44,-188.05 865.75,-190.51 865.03,-183.54"/>
</g>
<!-- Node16&#45;&gt;Node17 -->
<g id="edge31" class="edge">
<title>Node16&#45;&gt;Node17</title>
<path fill="none" stroke="#63b8ff" d="M1352.25,-120.8C1366.4,-110.62 1385.44,-96.93 1399.97,-86.48"/>
<polygon fill="#63b8ff" stroke="#63b8ff" points="1401.9,-89.41 1407.97,-80.73 1397.81,-83.72 1401.9,-89.41"/>
</g>
<!-- Node17&#45;&gt;Node2 -->
<g id="edge32" class="edge">
<title>Node17&#45;&gt;Node2</title>
<path fill="none" stroke="#63b8ff" d="M1428.88,-60.37C1436.19,-51.81 1447.59,-38.47 1456.76,-27.74"/>
<polygon fill="#63b8ff" stroke="#63b8ff" points="1459.27,-30.19 1463.11,-20.32 1453.95,-25.65 1459.27,-30.19"/>
</g>
<!-- Node17&#45;&gt;Node3 -->
<g id="edge33" class="edge">
<title>Node17&#45;&gt;Node3</title>
<path fill="none" stroke="#63b8ff" d="M1427.32,-79.97C1431.41,-95.96 1430.08,-129.72 1413.5,-151 1377.6,-197.08 1216.57,-229.67 1117.82,-245.37"/>
<polygon fill="#63b8ff" stroke="#63b8ff" points="1117.52,-241.87 1108.18,-246.88 1118.6,-248.79 1117.52,-241.87"/>
</g>
</g>
</svg>
