<?xml version="1.0" encoding="UTF-8" standalone="no"?>
<!DOCTYPE svg PUBLIC "-//W3C//DTD SVG 1.1//EN"
 "http://www.w3.org/Graphics/SVG/1.1/DTD/svg11.dtd">
<!-- Generated by graphviz version 7.1.0 (0)
 -->
<!-- Title: ViennaRNA/landscape/move.h Pages: 1 -->
<!--zoomable 225 -->
<svg id="main" version="1.1" xmlns="http://www.w3.org/2000/svg" xmlns:xlink="http://www.w3.org/1999/xlink" xml:space="preserve" onload="init(evt)">
<style type="text/css"><![CDATA[
.edge:hover path { stroke: red; }
.edge:hover polygon { stroke: red; fill: red; }
]]></style>
<script type="text/javascript"><![CDATA[
var edges = document.getElementsByTagName('g');
if (edges && edges.length) {
  for (var i=0;i<edges.length;i++) {
    if (edges[i].id.substr(0,4)=='edge') {
      edges[i].setAttribute('class','edge');
    }
  }
}
]]></script>
        <defs>
                <circle id="rim" cx="0" cy="0" r="7"/>
                <circle id="rim2" cx="0" cy="0" r="3.5"/>
                <g id="zoomPlus">
                        <use xlink:href="#rim" fill="#404040">
                                <set attributeName="fill" to="#808080" begin="zoomplus.mouseover" end="zoomplus.mouseout"/>
                        </use>
                        <path d="M-4,0h8M0,-4v8" fill="none" stroke="white" stroke-width="1.5" pointer-events="none"/>
                </g>
                <g id="zoomMin">
                        <use xlink:href="#rim" fill="#404040">
                                <set attributeName="fill" to="#808080" begin="zoomminus.mouseover" end="zoomminus.mouseout"/>
                        </use>
                        <path d="M-4,0h8" fill="none" stroke="white" stroke-width="1.5" pointer-events="none"/>
                </g>
                <g id="dirArrow">
                        <path fill="none" stroke="white" stroke-width="1.5" d="M0,-3.0v7 M-2.5,-0.5L0,-3.0L2.5,-0.5"/>
                </g>
               <g id="resetDef">
                       <use xlink:href="#rim2" fill="#404040">
                               <set attributeName="fill" to="#808080" begin="reset.mouseover" end="reset.mouseout"/>
                       </use>
               </g>
        </defs>

<script type="text/javascript">
var viewWidth = 546;
var viewHeight = 225;
var sectionId = 'dynsection-0';
</script>
<script xlink:href="svgpan.js"/>
<svg id="graph" class="graph">
<g id="viewport">
<title>ViennaRNA/landscape/move.h</title>
<!-- Node1 -->
<g id="node1" class="node">
<title>Node1</title>
<g id="a_node1"><a xlink:title="Methods to operate with structural neighbors of RNA secondary structures.">
<polygon fill="#999999" stroke="#666666" points="270,-217 154,-217 154,-187 270,-187 270,-217"/>
<text text-anchor="start" x="162" y="-205" font-family="Helvetica,sans-Serif" font-size="10.00">ViennaRNA/landscape</text>
<text text-anchor="middle" x="212" y="-194" font-family="Helvetica,sans-Serif" font-size="10.00">/move.h</text>
</a>
</g>
</g>
<!-- Node2 -->
<g id="node2" class="node">
<title>Node2</title>
<g id="a_node2"><a xlink:href="eval_8h.html" target="_top" xlink:title="Functions and variables related to energy evaluation of sequence/structure pairs.">
<polygon fill="white" stroke="#666666" points="98,-145.5 0,-145.5 0,-126.5 98,-126.5 98,-145.5"/>
<text text-anchor="middle" x="49" y="-133.5" font-family="Helvetica,sans-Serif" font-size="10.00">ViennaRNA/eval.h</text>
</a>
</g>
</g>
<!-- Node1&#45;&gt;Node2 -->
<g id="edge1" class="edge">
<title>Node1&#45;&gt;Node2</title>
<path fill="none" stroke="#63b8ff" d="M164.98,-182.54C134.42,-170.54 95.93,-155.43 71.89,-145.99"/>
<polygon fill="#63b8ff" stroke="#63b8ff" points="163.42,-185.69 174.01,-186.08 165.98,-179.17 163.42,-185.69"/>
</g>
<!-- Node4 -->
<g id="node4" class="node">
<title>Node4</title>
<g id="a_node4"><a xlink:href="landscape_2neighbor_8h.html" target="_top" xlink:title="Methods to compute the neighbors of an RNA secondary structure.">
<polygon fill="white" stroke="#666666" points="270,-151 154,-151 154,-121 270,-121 270,-151"/>
<text text-anchor="start" x="162" y="-139" font-family="Helvetica,sans-Serif" font-size="10.00">ViennaRNA/landscape</text>
<text text-anchor="middle" x="212" y="-128" font-family="Helvetica,sans-Serif" font-size="10.00">/neighbor.h</text>
</a>
</g>
</g>
<!-- Node1&#45;&gt;Node4 -->
<g id="edge3" class="edge">
<title>Node1&#45;&gt;Node4</title>
<path fill="none" stroke="#63b8ff" d="M212,-175.39C212,-167.13 212,-158.28 212,-151.16"/>
<polygon fill="#63b8ff" stroke="#63b8ff" points="208.5,-175.28 212,-185.28 215.5,-175.28 208.5,-175.28"/>
</g>
<!-- Node5 -->
<g id="node5" class="node">
<title>Node5</title>
<g id="a_node5"><a xlink:href="neighbor_8h.html" target="_top" xlink:title="Use ViennaRNA/landscape/neighbor.h instead.">
<polygon fill="white" stroke="#666666" points="251,-79.5 135,-79.5 135,-60.5 251,-60.5 251,-79.5"/>
<text text-anchor="middle" x="193" y="-67.5" font-family="Helvetica,sans-Serif" font-size="10.00">ViennaRNA/neighbor.h</text>
</a>
</g>
</g>
<!-- Node1&#45;&gt;Node5 -->
<g id="edge11" class="edge">
<title>Node1&#45;&gt;Node5</title>
<path fill="none" stroke="#63b8ff" d="M172.12,-180.44C161.33,-172.76 150.99,-162.94 145,-151 139.02,-139.08 140.02,-133.37 145,-121 152.01,-103.58 168.3,-88.83 179.96,-79.96"/>
<polygon fill="#63b8ff" stroke="#63b8ff" points="170.07,-183.28 180.36,-185.81 173.89,-177.41 170.07,-183.28"/>
</g>
<!-- Node7 -->
<g id="node7" class="node">
<title>Node7</title>
<g id="a_node7"><a xlink:href="paths_8h.html" target="_top" xlink:title="API for computing (optimal) (re&#45;)folding paths between secondary structures.">
<polygon fill="white" stroke="#666666" points="538,-151 422,-151 422,-121 538,-121 538,-151"/>
<text text-anchor="start" x="430" y="-139" font-family="Helvetica,sans-Serif" font-size="10.00">ViennaRNA/landscape</text>
<text text-anchor="middle" x="480" y="-128" font-family="Helvetica,sans-Serif" font-size="10.00">/paths.h</text>
</a>
</g>
</g>
<!-- Node1&#45;&gt;Node7 -->
<g id="edge6" class="edge">
<title>Node1&#45;&gt;Node7</title>
<path fill="none" stroke="#63b8ff" d="M281.55,-184.39C325.05,-174 380.44,-160.78 421.64,-150.94"/>
<polygon fill="#63b8ff" stroke="#63b8ff" points="280.87,-180.96 271.95,-186.68 282.49,-187.76 280.87,-180.96"/>
</g>
<!-- Node10 -->
<g id="node10" class="node">
<title>Node10</title>
<g id="a_node10"><a xlink:href="landscape_2walk_8h.html" target="_top" xlink:title="Methods to generate particular paths such as gradient or random walks through the energy landscape of...">
<polygon fill="white" stroke="#666666" points="404,-151 288,-151 288,-121 404,-121 404,-151"/>
<text text-anchor="start" x="296" y="-139" font-family="Helvetica,sans-Serif" font-size="10.00">ViennaRNA/landscape</text>
<text text-anchor="middle" x="346" y="-128" font-family="Helvetica,sans-Serif" font-size="10.00">/walk.h</text>
</a>
</g>
</g>
<!-- Node1&#45;&gt;Node10 -->
<g id="edge9" class="edge">
<title>Node1&#45;&gt;Node10</title>
<path fill="none" stroke="#63b8ff" d="M252.36,-181.72C272.83,-171.95 297.26,-160.28 316.03,-151.31"/>
<polygon fill="#63b8ff" stroke="#63b8ff" points="250.95,-178.52 243.44,-185.98 253.97,-184.83 250.95,-178.52"/>
</g>
<!-- Node3 -->
<g id="node3" class="node">
<title>Node3</title>
<g id="a_node3"><a xlink:href="fold_8h.html" target="_top" xlink:title="MFE calculations for single RNA sequences.">
<polygon fill="white" stroke="#666666" points="96.5,-79.5 1.5,-79.5 1.5,-60.5 96.5,-60.5 96.5,-79.5"/>
<text text-anchor="middle" x="49" y="-67.5" font-family="Helvetica,sans-Serif" font-size="10.00">ViennaRNA/fold.h</text>
</a>
</g>
</g>
<!-- Node2&#45;&gt;Node3 -->
<g id="edge2" class="edge">
<title>Node2&#45;&gt;Node3</title>
<path fill="none" stroke="#63b8ff" d="M49,-114.68C49,-102.94 49,-88.77 49,-79.82"/>
<polygon fill="#63b8ff" stroke="#63b8ff" points="45.5,-114.59 49,-124.59 52.5,-114.59 45.5,-114.59"/>
</g>
<!-- Node4&#45;&gt;Node5 -->
<g id="edge4" class="edge">
<title>Node4&#45;&gt;Node5</title>
<path fill="none" stroke="#63b8ff" d="M204.56,-109.93C201.4,-99.31 197.93,-87.61 195.63,-79.84"/>
<polygon fill="#63b8ff" stroke="#63b8ff" points="201.15,-110.76 207.35,-119.35 207.86,-108.76 201.15,-110.76"/>
</g>
<!-- Node6 -->
<g id="node6" class="node">
<title>Node6</title>
<g id="a_node6"><a xlink:href="walk_8h.html" target="_top" xlink:title="Use ViennaRNA/landscape/walk.h instead.">
<polygon fill="white" stroke="#666666" points="383,-79.5 283,-79.5 283,-60.5 383,-60.5 383,-79.5"/>
<text text-anchor="middle" x="333" y="-67.5" font-family="Helvetica,sans-Serif" font-size="10.00">ViennaRNA/walk.h</text>
</a>
</g>
</g>
<!-- Node4&#45;&gt;Node6 -->
<g id="edge5" class="edge">
<title>Node4&#45;&gt;Node6</title>
<path fill="none" stroke="#63b8ff" d="M249.3,-115.27C271.58,-103.49 298.79,-89.1 316.01,-79.99"/>
<polygon fill="#63b8ff" stroke="#63b8ff" points="247.7,-112.16 240.49,-119.93 250.97,-118.35 247.7,-112.16"/>
</g>
<!-- Node8 -->
<g id="node8" class="node">
<title>Node8</title>
<g id="a_node8"><a xlink:href="landscape_2findpath_8h.html" target="_top" xlink:title="A breadth&#45;first search heuristic for optimal direct folding paths.">
<polygon fill="white" stroke="#666666" points="538,-85 422,-85 422,-55 538,-55 538,-85"/>
<text text-anchor="start" x="430" y="-73" font-family="Helvetica,sans-Serif" font-size="10.00">ViennaRNA/landscape</text>
<text text-anchor="middle" x="480" y="-62" font-family="Helvetica,sans-Serif" font-size="10.00">/findpath.h</text>
</a>
</g>
</g>
<!-- Node7&#45;&gt;Node8 -->
<g id="edge7" class="edge">
<title>Node7&#45;&gt;Node8</title>
<path fill="none" stroke="#63b8ff" d="M480,-109.39C480,-101.13 480,-92.28 480,-85.16"/>
<polygon fill="#63b8ff" stroke="#63b8ff" points="476.5,-109.28 480,-119.28 483.5,-109.28 476.5,-109.28"/>
</g>
<!-- Node9 -->
<g id="node9" class="node">
<title>Node9</title>
<g id="a_node9"><a xlink:href="findpath_8h.html" target="_top" xlink:title="Use ViennaRNA/landscape/findpath.h instead.">
<polygon fill="white" stroke="#666666" points="537,-19 423,-19 423,0 537,0 537,-19"/>
<text text-anchor="middle" x="480" y="-7" font-family="Helvetica,sans-Serif" font-size="10.00">ViennaRNA/findpath.h</text>
</a>
</g>
</g>
<!-- Node8&#45;&gt;Node9 -->
<g id="edge8" class="edge">
<title>Node8&#45;&gt;Node9</title>
<path fill="none" stroke="#63b8ff" d="M480,-43.3C480,-34.65 480,-25.58 480,-19.18"/>
<polygon fill="#63b8ff" stroke="#63b8ff" points="476.5,-43.03 480,-53.03 483.5,-43.03 476.5,-43.03"/>
</g>
<!-- Node10&#45;&gt;Node6 -->
<g id="edge10" class="edge">
<title>Node10&#45;&gt;Node6</title>
<path fill="none" stroke="#63b8ff" d="M340.84,-109.59C338.7,-99.06 336.36,-87.53 334.8,-79.84"/>
<polygon fill="#63b8ff" stroke="#63b8ff" points="337.39,-110.21 342.81,-119.31 344.25,-108.82 337.39,-110.21"/>
</g>
</g>
</svg>
        <g id="navigator" transform="translate(0 0)" fill="#404254">
                <rect fill="#f2f5e9" fill-opacity="0.5" stroke="#606060" stroke-width=".5" x="0" y="0" width="60" height="60"/>
                <use id="zoomplus" xlink:href="#zoomPlus" x="17" y="9" onmousedown="handleZoom(evt,'in')"/>
                <use id="zoomminus" xlink:href="#zoomMin" x="42" y="9" onmousedown="handleZoom(evt,'out')"/>
                <use id="reset" xlink:href="#resetDef" x="30" y="36" onmousedown="handleReset()"/>
                <g id="arrowUp" xlink:href="#dirArrow" transform="translate(30 24)" onmousedown="handlePan(0,-1)">
                  <use xlink:href="#rim" fill="#404040">
                        <set attributeName="fill" to="#808080" begin="arrowUp.mouseover" end="arrowUp.mouseout"/>
                  </use>
                  <path fill="none" stroke="white" stroke-width="1.5" d="M0,-3.0v7 M-2.5,-0.5L0,-3.0L2.5,-0.5"/>
                </g>
                <g id="arrowRight" xlink:href="#dirArrow" transform="rotate(90) translate(36 -43)" onmousedown="handlePan(1,0)">
                  <use xlink:href="#rim" fill="#404040">
                        <set attributeName="fill" to="#808080" begin="arrowRight.mouseover" end="arrowRight.mouseout"/>
                  </use>
                  <path fill="none" stroke="white" stroke-width="1.5" d="M0,-3.0v7 M-2.5,-0.5L0,-3.0L2.5,-0.5"/>
                </g>
                <g id="arrowDown" xlink:href="#dirArrow" transform="rotate(180) translate(-30 -48)" onmousedown="handlePan(0,1)">
                  <use xlink:href="#rim" fill="#404040">
                        <set attributeName="fill" to="#808080" begin="arrowDown.mouseover" end="arrowDown.mouseout"/>
                  </use>
                  <path fill="none" stroke="white" stroke-width="1.5" d="M0,-3.0v7 M-2.5,-0.5L0,-3.0L2.5,-0.5"/>
                </g>
                <g id="arrowLeft" xlink:href="#dirArrow" transform="rotate(270) translate(-36 17)" onmousedown="handlePan(-1,0)">
                  <use xlink:href="#rim" fill="#404040">
                        <set attributeName="fill" to="#808080" begin="arrowLeft.mouseover" end="arrowLeft.mouseout"/>
                  </use>
                  <path fill="none" stroke="white" stroke-width="1.5" d="M0,-3.0v7 M-2.5,-0.5L0,-3.0L2.5,-0.5"/>
                </g>
        </g>
        <svg viewBox="0 0 15 15" width="100%" height="30px" preserveAspectRatio="xMaxYMin meet">
         <g id="arrow_out" transform="scale(0.3 0.3)">
          <a xlink:href="move_8h__dep__incl_org.svg" target="_base">
           <rect id="button" ry="5" rx="5" y="6" x="6" height="38" width="38"
                fill="#f2f5e9" fill-opacity="0.5" stroke="#606060" stroke-width="1.0"/>
           <path id="arrow"
             d="M 11.500037,31.436501 C 11.940474,20.09759 22.043105,11.32322 32.158766,21.979434 L 37.068811,17.246167 C 37.068811,17.246167 37.088388,32 37.088388,32 L 22.160133,31.978069 C 22.160133,31.978069 26.997745,27.140456 26.997745,27.140456 C 18.528582,18.264221 13.291696,25.230495 11.500037,31.436501 z"
             style="fill:#404040;"/>
          </a>
         </g>
        </svg>
</svg>
