<?xml version="1.0" encoding="UTF-8" standalone="no"?>
<!DOCTYPE svg PUBLIC "-//W3C//DTD SVG 1.1//EN"
 "http://www.w3.org/Graphics/SVG/1.1/DTD/svg11.dtd">
<!-- Generated by graphviz version 7.1.0 (0)
 -->
<!-- Title: ViennaRNA/landscape/move.h Pages: 1 -->
<svg width="546pt" height="225pt"
 viewBox="0.00 0.00 546.00 225.00" xmlns="http://www.w3.org/2000/svg" xmlns:xlink="http://www.w3.org/1999/xlink">
<g id="graph0" class="graph" transform="scale(1 1) rotate(0) translate(4 221)">
<title>ViennaRNA/landscape/move.h</title>
<!-- Node1 -->
<g id="node1" class="node">
<title>Node1</title>
<g id="a_node1"><a xlink:title="Methods to operate with structural neighbors of RNA secondary structures.">
<polygon fill="#999999" stroke="#666666" points="270,-217 154,-217 154,-187 270,-187 270,-217"/>
<text text-anchor="start" x="162" y="-205" font-family="Helvetica,sans-Serif" font-size="10.00">ViennaRNA/landscape</text>
<text text-anchor="middle" x="212" y="-194" font-family="Helvetica,sans-Serif" font-size="10.00">/move.h</text>
</a>
</g>
</g>
<!-- Node2 -->
<g id="node2" class="node">
<title>Node2</title>
<g id="a_node2"><a xlink:href="eval_8h.html" target="_top" xlink:title="Functions and variables related to energy evaluation of sequence/structure pairs.">
<polygon fill="white" stroke="#666666" points="98,-145.5 0,-145.5 0,-126.5 98,-126.5 98,-145.5"/>
<text text-anchor="middle" x="49" y="-133.5" font-family="Helvetica,sans-Serif" font-size="10.00">ViennaRNA/eval.h</text>
</a>
</g>
</g>
<!-- Node1&#45;&gt;Node2 -->
<g id="edge1" class="edge">
<title>Node1&#45;&gt;Node2</title>
<path fill="none" stroke="#63b8ff" d="M164.98,-182.54C134.42,-170.54 95.93,-155.43 71.89,-145.99"/>
<polygon fill="#63b8ff" stroke="#63b8ff" points="163.42,-185.69 174.01,-186.08 165.98,-179.17 163.42,-185.69"/>
</g>
<!-- Node4 -->
<g id="node4" class="node">
<title>Node4</title>
<g id="a_node4"><a xlink:href="landscape_2neighbor_8h.html" target="_top" xlink:title="Methods to compute the neighbors of an RNA secondary structure.">
<polygon fill="white" stroke="#666666" points="270,-151 154,-151 154,-121 270,-121 270,-151"/>
<text text-anchor="start" x="162" y="-139" font-family="Helvetica,sans-Serif" font-size="10.00">ViennaRNA/landscape</text>
<text text-anchor="middle" x="212" y="-128" font-family="Helvetica,sans-Serif" font-size="10.00">/neighbor.h</text>
</a>
</g>
</g>
<!-- Node1&#45;&gt;Node4 -->
<g id="edge3" class="edge">
<title>Node1&#45;&gt;Node4</title>
<path fill="none" stroke="#63b8ff" d="M212,-175.39C212,-167.13 212,-158.28 212,-151.16"/>
<polygon fill="#63b8ff" stroke="#63b8ff" points="208.5,-175.28 212,-185.28 215.5,-175.28 208.5,-175.28"/>
</g>
<!-- Node5 -->
<g id="node5" class="node">
<title>Node5</title>
<g id="a_node5"><a xlink:href="neighbor_8h.html" target="_top" xlink:title="Use ViennaRNA/landscape/neighbor.h instead.">
<polygon fill="white" stroke="#666666" points="251,-79.5 135,-79.5 135,-60.5 251,-60.5 251,-79.5"/>
<text text-anchor="middle" x="193" y="-67.5" font-family="Helvetica,sans-Serif" font-size="10.00">ViennaRNA/neighbor.h</text>
</a>
</g>
</g>
<!-- Node1&#45;&gt;Node5 -->
<g id="edge11" class="edge">
<title>Node1&#45;&gt;Node5</title>
<path fill="none" stroke="#63b8ff" d="M172.12,-180.44C161.33,-172.76 150.99,-162.94 145,-151 139.02,-139.08 140.02,-133.37 145,-121 152.01,-103.58 168.3,-88.83 179.96,-79.96"/>
<polygon fill="#63b8ff" stroke="#63b8ff" points="170.07,-183.28 180.36,-185.81 173.89,-177.41 170.07,-183.28"/>
</g>
<!-- Node7 -->
<g id="node7" class="node">
<title>Node7</title>
<g id="a_node7"><a xlink:href="paths_8h.html" target="_top" xlink:title="API for computing (optimal) (re&#45;)folding paths between secondary structures.">
<polygon fill="white" stroke="#666666" points="538,-151 422,-151 422,-121 538,-121 538,-151"/>
<text text-anchor="start" x="430" y="-139" font-family="Helvetica,sans-Serif" font-size="10.00">ViennaRNA/landscape</text>
<text text-anchor="middle" x="480" y="-128" font-family="Helvetica,sans-Serif" font-size="10.00">/paths.h</text>
</a>
</g>
</g>
<!-- Node1&#45;&gt;Node7 -->
<g id="edge6" class="edge">
<title>Node1&#45;&gt;Node7</title>
<path fill="none" stroke="#63b8ff" d="M281.55,-184.39C325.05,-174 380.44,-160.78 421.64,-150.94"/>
<polygon fill="#63b8ff" stroke="#63b8ff" points="280.87,-180.96 271.95,-186.68 282.49,-187.76 280.87,-180.96"/>
</g>
<!-- Node10 -->
<g id="node10" class="node">
<title>Node10</title>
<g id="a_node10"><a xlink:href="landscape_2walk_8h.html" target="_top" xlink:title="Methods to generate particular paths such as gradient or random walks through the energy landscape of...">
<polygon fill="white" stroke="#666666" points="404,-151 288,-151 288,-121 404,-121 404,-151"/>
<text text-anchor="start" x="296" y="-139" font-family="Helvetica,sans-Serif" font-size="10.00">ViennaRNA/landscape</text>
<text text-anchor="middle" x="346" y="-128" font-family="Helvetica,sans-Serif" font-size="10.00">/walk.h</text>
</a>
</g>
</g>
<!-- Node1&#45;&gt;Node10 -->
<g id="edge9" class="edge">
<title>Node1&#45;&gt;Node10</title>
<path fill="none" stroke="#63b8ff" d="M252.36,-181.72C272.83,-171.95 297.26,-160.28 316.03,-151.31"/>
<polygon fill="#63b8ff" stroke="#63b8ff" points="250.95,-178.52 243.44,-185.98 253.97,-184.83 250.95,-178.52"/>
</g>
<!-- Node3 -->
<g id="node3" class="node">
<title>Node3</title>
<g id="a_node3"><a xlink:href="fold_8h.html" target="_top" xlink:title="MFE calculations for single RNA sequences.">
<polygon fill="white" stroke="#666666" points="96.5,-79.5 1.5,-79.5 1.5,-60.5 96.5,-60.5 96.5,-79.5"/>
<text text-anchor="middle" x="49" y="-67.5" font-family="Helvetica,sans-Serif" font-size="10.00">ViennaRNA/fold.h</text>
</a>
</g>
</g>
<!-- Node2&#45;&gt;Node3 -->
<g id="edge2" class="edge">
<title>Node2&#45;&gt;Node3</title>
<path fill="none" stroke="#63b8ff" d="M49,-114.68C49,-102.94 49,-88.77 49,-79.82"/>
<polygon fill="#63b8ff" stroke="#63b8ff" points="45.5,-114.59 49,-124.59 52.5,-114.59 45.5,-114.59"/>
</g>
<!-- Node4&#45;&gt;Node5 -->
<g id="edge4" class="edge">
<title>Node4&#45;&gt;Node5</title>
<path fill="none" stroke="#63b8ff" d="M204.56,-109.93C201.4,-99.31 197.93,-87.61 195.63,-79.84"/>
<polygon fill="#63b8ff" stroke="#63b8ff" points="201.15,-110.76 207.35,-119.35 207.86,-108.76 201.15,-110.76"/>
</g>
<!-- Node6 -->
<g id="node6" class="node">
<title>Node6</title>
<g id="a_node6"><a xlink:href="walk_8h.html" target="_top" xlink:title="Use ViennaRNA/landscape/walk.h instead.">
<polygon fill="white" stroke="#666666" points="383,-79.5 283,-79.5 283,-60.5 383,-60.5 383,-79.5"/>
<text text-anchor="middle" x="333" y="-67.5" font-family="Helvetica,sans-Serif" font-size="10.00">ViennaRNA/walk.h</text>
</a>
</g>
</g>
<!-- Node4&#45;&gt;Node6 -->
<g id="edge5" class="edge">
<title>Node4&#45;&gt;Node6</title>
<path fill="none" stroke="#63b8ff" d="M249.3,-115.27C271.58,-103.49 298.79,-89.1 316.01,-79.99"/>
<polygon fill="#63b8ff" stroke="#63b8ff" points="247.7,-112.16 240.49,-119.93 250.97,-118.35 247.7,-112.16"/>
</g>
<!-- Node8 -->
<g id="node8" class="node">
<title>Node8</title>
<g id="a_node8"><a xlink:href="landscape_2findpath_8h.html" target="_top" xlink:title="A breadth&#45;first search heuristic for optimal direct folding paths.">
<polygon fill="white" stroke="#666666" points="538,-85 422,-85 422,-55 538,-55 538,-85"/>
<text text-anchor="start" x="430" y="-73" font-family="Helvetica,sans-Serif" font-size="10.00">ViennaRNA/landscape</text>
<text text-anchor="middle" x="480" y="-62" font-family="Helvetica,sans-Serif" font-size="10.00">/findpath.h</text>
</a>
</g>
</g>
<!-- Node7&#45;&gt;Node8 -->
<g id="edge7" class="edge">
<title>Node7&#45;&gt;Node8</title>
<path fill="none" stroke="#63b8ff" d="M480,-109.39C480,-101.13 480,-92.28 480,-85.16"/>
<polygon fill="#63b8ff" stroke="#63b8ff" points="476.5,-109.28 480,-119.28 483.5,-109.28 476.5,-109.28"/>
</g>
<!-- Node9 -->
<g id="node9" class="node">
<title>Node9</title>
<g id="a_node9"><a xlink:href="findpath_8h.html" target="_top" xlink:title="Use ViennaRNA/landscape/findpath.h instead.">
<polygon fill="white" stroke="#666666" points="537,-19 423,-19 423,0 537,0 537,-19"/>
<text text-anchor="middle" x="480" y="-7" font-family="Helvetica,sans-Serif" font-size="10.00">ViennaRNA/findpath.h</text>
</a>
</g>
</g>
<!-- Node8&#45;&gt;Node9 -->
<g id="edge8" class="edge">
<title>Node8&#45;&gt;Node9</title>
<path fill="none" stroke="#63b8ff" d="M480,-43.3C480,-34.65 480,-25.58 480,-19.18"/>
<polygon fill="#63b8ff" stroke="#63b8ff" points="476.5,-43.03 480,-53.03 483.5,-43.03 476.5,-43.03"/>
</g>
<!-- Node10&#45;&gt;Node6 -->
<g id="edge10" class="edge">
<title>Node10&#45;&gt;Node6</title>
<path fill="none" stroke="#63b8ff" d="M340.84,-109.59C338.7,-99.06 336.36,-87.53 334.8,-79.84"/>
<polygon fill="#63b8ff" stroke="#63b8ff" points="337.39,-110.21 342.81,-119.31 344.25,-108.82 337.39,-110.21"/>
</g>
</g>
</svg>
