<?xml version="1.0" encoding="UTF-8" standalone="no"?>
<!DOCTYPE svg PUBLIC "-//W3C//DTD SVG 1.1//EN"
 "http://www.w3.org/Graphics/SVG/1.1/DTD/svg11.dtd">
<!-- Generated by graphviz version 7.1.0 (0)
 -->
<!-- Title: ViennaRNA/loops/multibranch.h Pages: 1 -->
<svg width="1614pt" height="390pt"
 viewBox="0.00 0.00 1614.00 390.00" xmlns="http://www.w3.org/2000/svg" xmlns:xlink="http://www.w3.org/1999/xlink">
<g id="graph0" class="graph" transform="scale(1 1) rotate(0) translate(4 386)">
<title>ViennaRNA/loops/multibranch.h</title>
<!-- Node1 -->
<g id="node1" class="node">
<title>Node1</title>
<g id="a_node1"><a xlink:title="Energy evaluation of multibranch loops for MFE and partition function calculations.">
<polygon fill="#999999" stroke="#666666" points="788,-382 632,-382 632,-363 788,-363 788,-382"/>
<text text-anchor="middle" x="710" y="-370" font-family="Helvetica,sans-Serif" font-size="10.00">ViennaRNA/loops/multibranch.h</text>
</a>
</g>
</g>
<!-- Node2 -->
<g id="node2" class="node">
<title>Node2</title>
<g id="a_node2"><a xlink:href="utils_2basic_8h.html" target="_top" xlink:title="General utility&#45; and helper&#45;functions used throughout the ViennaRNA Package.">
<polygon fill="white" stroke="#666666" points="374,-327 250,-327 250,-308 374,-308 374,-327"/>
<text text-anchor="middle" x="312" y="-315" font-family="Helvetica,sans-Serif" font-size="10.00">ViennaRNA/utils/basic.h</text>
</a>
</g>
</g>
<!-- Node1&#45;&gt;Node2 -->
<g id="edge1" class="edge">
<title>Node1&#45;&gt;Node2</title>
<path fill="none" stroke="#63b8ff" d="M642.48,-362.51C571.08,-353 458.79,-338.05 385.27,-328.26"/>
<polygon fill="#63b8ff" stroke="#63b8ff" points="386.14,-324.84 375.77,-326.99 385.22,-331.78 386.14,-324.84"/>
</g>
<!-- Node5 -->
<g id="node5" class="node">
<title>Node5</title>
<g id="a_node5"><a xlink:href="datastructures_2basic_8h.html" target="_top" xlink:title="Various data structures and pre&#45;processor macros.">
<polygon fill="white" stroke="#666666" points="604,-272 470,-272 470,-242 604,-242 604,-272"/>
<text text-anchor="start" x="478" y="-260" font-family="Helvetica,sans-Serif" font-size="10.00">ViennaRNA/datastructures</text>
<text text-anchor="middle" x="537" y="-249" font-family="Helvetica,sans-Serif" font-size="10.00">/basic.h</text>
</a>
</g>
</g>
<!-- Node1&#45;&gt;Node5 -->
<g id="edge46" class="edge">
<title>Node1&#45;&gt;Node5</title>
<path fill="none" stroke="#63b8ff" d="M696.42,-362.59C669.08,-344.65 606.72,-303.74 568.61,-278.74"/>
<polygon fill="#63b8ff" stroke="#63b8ff" points="570.56,-275.83 560.27,-273.27 566.72,-281.68 570.56,-275.83"/>
</g>
<!-- Node8 -->
<g id="node8" class="node">
<title>Node8</title>
<g id="a_node8"><a xlink:href="fold__compound_8h.html" target="_top" xlink:title="The Basic Fold Compound API.">
<polygon fill="white" stroke="#666666" points="861,-206 715,-206 715,-187 861,-187 861,-206"/>
<text text-anchor="middle" x="788" y="-194" font-family="Helvetica,sans-Serif" font-size="10.00">ViennaRNA/fold_compound.h</text>
</a>
</g>
</g>
<!-- Node1&#45;&gt;Node8 -->
<g id="edge47" class="edge">
<title>Node1&#45;&gt;Node8</title>
<path fill="none" stroke="#63b8ff" d="M713.98,-362.63C726.08,-335.64 762.66,-254.03 779.43,-216.61"/>
<polygon fill="#63b8ff" stroke="#63b8ff" points="782.61,-218.08 783.51,-207.52 776.22,-215.22 782.61,-218.08"/>
</g>
<!-- Node10 -->
<g id="node10" class="node">
<title>Node10</title>
<g id="a_node10"><a xlink:href="params_2basic_8h.html" target="_top" xlink:title="Functions to deal with sets of energy parameters.">
<polygon fill="white" stroke="#666666" points="1521,-145.5 1383,-145.5 1383,-126.5 1521,-126.5 1521,-145.5"/>
<text text-anchor="middle" x="1452" y="-133.5" font-family="Helvetica,sans-Serif" font-size="10.00">ViennaRNA/params/basic.h</text>
</a>
</g>
</g>
<!-- Node1&#45;&gt;Node10 -->
<g id="edge48" class="edge">
<title>Node1&#45;&gt;Node10</title>
<path fill="none" stroke="#63b8ff" d="M788.46,-371.22C926.08,-367.03 1214.61,-341.33 1407,-206 1424.7,-193.55 1437.19,-171.72 1444.45,-155.94"/>
<polygon fill="#63b8ff" stroke="#63b8ff" points="1447.51,-157.71 1448.22,-147.14 1441.07,-154.95 1447.51,-157.71"/>
</g>
<!-- Node3 -->
<g id="node3" class="node">
<title>Node3</title>
<g id="a_node3"><a xlink:title=" ">
<polygon fill="#e0e0e0" stroke="#999999" points="153,-19 107,-19 107,0 153,0 153,-19"/>
<text text-anchor="middle" x="130" y="-7" font-family="Helvetica,sans-Serif" font-size="10.00">stdio.h</text>
</a>
</g>
</g>
<!-- Node2&#45;&gt;Node3 -->
<g id="edge2" class="edge">
<title>Node2&#45;&gt;Node3</title>
<path fill="none" stroke="#63b8ff" d="M249.52,-311.07C180.81,-301.28 80,-273.89 80,-197.5 80,-197.5 80,-197.5 80,-135 80,-98.46 84.07,-88.36 99,-55 103.22,-45.57 109.51,-36.06 115.33,-28.25"/>
<polygon fill="#63b8ff" stroke="#63b8ff" points="117.9,-30.65 121.32,-20.62 112.39,-26.33 117.9,-30.65"/>
</g>
<!-- Node4 -->
<g id="node4" class="node">
<title>Node4</title>
<g id="a_node4"><a xlink:title=" ">
<polygon fill="#e0e0e0" stroke="#999999" points="52,-266.5 0,-266.5 0,-247.5 52,-247.5 52,-266.5"/>
<text text-anchor="middle" x="26" y="-254.5" font-family="Helvetica,sans-Serif" font-size="10.00">stdarg.h</text>
</a>
</g>
</g>
<!-- Node2&#45;&gt;Node4 -->
<g id="edge3" class="edge">
<title>Node2&#45;&gt;Node4</title>
<path fill="none" stroke="#63b8ff" d="M249.74,-308.01C199.65,-300.53 127.69,-288.27 66,-272 64.14,-271.51 62.25,-270.97 60.34,-270.41"/>
<polygon fill="#63b8ff" stroke="#63b8ff" points="61.53,-267.11 50.94,-267.38 59.38,-273.78 61.53,-267.11"/>
</g>
<!-- Node2&#45;&gt;Node5 -->
<g id="edge4" class="edge">
<title>Node2&#45;&gt;Node5</title>
<path fill="none" stroke="#63b8ff" d="M346.17,-307.62C379.06,-299.07 429.66,-285.91 470.5,-275.29"/>
<polygon fill="#63b8ff" stroke="#63b8ff" points="471.2,-278.72 480,-272.82 469.44,-271.95 471.2,-278.72"/>
</g>
<!-- Node6 -->
<g id="node6" class="node">
<title>Node6</title>
<g id="a_node6"><a xlink:href="constants_8h.html" target="_top" xlink:title="Energy parameter constants.">
<polygon fill="white" stroke="#666666" points="1606,-79.5 1448,-79.5 1448,-60.5 1606,-60.5 1606,-79.5"/>
<text text-anchor="middle" x="1527" y="-67.5" font-family="Helvetica,sans-Serif" font-size="10.00">ViennaRNA/params/constants.h</text>
</a>
</g>
</g>
<!-- Node5&#45;&gt;Node6 -->
<g id="edge5" class="edge">
<title>Node5&#45;&gt;Node6</title>
<path fill="none" stroke="#63b8ff" d="M604.34,-255.27C781.08,-252.85 1255.05,-243.02 1407,-206 1465.18,-191.83 1497.43,-201.25 1530,-151 1541.56,-133.17 1538.24,-108.1 1533.69,-90.8"/>
<polygon fill="#63b8ff" stroke="#63b8ff" points="1537.05,-89.8 1530.8,-81.24 1530.35,-91.83 1537.05,-89.8"/>
</g>
<!-- Node5&#45;&gt;Node8 -->
<g id="edge7" class="edge">
<title>Node5&#45;&gt;Node8</title>
<path fill="none" stroke="#63b8ff" d="M599.04,-241.54C642.08,-231.51 698.62,-218.33 738.61,-209.01"/>
<polygon fill="#63b8ff" stroke="#63b8ff" points="739.26,-212.45 748.2,-206.78 737.67,-205.64 739.26,-212.45"/>
</g>
<!-- Node9 -->
<g id="node9" class="node">
<title>Node9</title>
<g id="a_node9"><a xlink:href="model_8h.html" target="_top" xlink:title="The model details data structure and its corresponding modifiers.">
<polygon fill="white" stroke="#666666" points="1408,-79.5 1302,-79.5 1302,-60.5 1408,-60.5 1408,-79.5"/>
<text text-anchor="middle" x="1355" y="-67.5" font-family="Helvetica,sans-Serif" font-size="10.00">ViennaRNA/model.h</text>
</a>
</g>
</g>
<!-- Node5&#45;&gt;Node9 -->
<g id="edge37" class="edge">
<title>Node5&#45;&gt;Node9</title>
<path fill="none" stroke="#63b8ff" d="M604.35,-256.67C777.06,-256.94 1229.58,-248.16 1336,-151 1352.45,-135.98 1355.91,-109.54 1356.1,-91.19"/>
<polygon fill="#63b8ff" stroke="#63b8ff" points="1359.6,-91.2 1355.85,-81.29 1352.6,-91.37 1359.6,-91.2"/>
</g>
<!-- Node5&#45;&gt;Node10 -->
<g id="edge38" class="edge">
<title>Node5&#45;&gt;Node10</title>
<path fill="none" stroke="#63b8ff" d="M604.21,-254.25C788.15,-249.28 1290.28,-233.59 1360,-206 1388.19,-194.84 1413.9,-170.23 1431.28,-153.62"/>
<polygon fill="#63b8ff" stroke="#63b8ff" points="1433.61,-156.23 1438.48,-146.82 1428.8,-151.15 1433.61,-156.23"/>
</g>
<!-- Node12 -->
<g id="node12" class="node">
<title>Node12</title>
<g id="a_node12"><a xlink:href="dp__matrices_8h.html" target="_top" xlink:title="Functions to deal with standard dynamic programming (DP) matrices.">
<polygon fill="white" stroke="#666666" points="577.5,-145.5 444.5,-145.5 444.5,-126.5 577.5,-126.5 577.5,-145.5"/>
<text text-anchor="middle" x="511" y="-133.5" font-family="Helvetica,sans-Serif" font-size="10.00">ViennaRNA/dp_matrices.h</text>
</a>
</g>
</g>
<!-- Node5&#45;&gt;Node12 -->
<g id="edge39" class="edge">
<title>Node5&#45;&gt;Node12</title>
<path fill="none" stroke="#63b8ff" d="M529.36,-241.88C522.06,-220.8 513.15,-181 510.16,-156.95"/>
<polygon fill="#63b8ff" stroke="#63b8ff" points="513.67,-156.87 509.31,-147.22 506.7,-157.49 513.67,-156.87"/>
</g>
<!-- Node13 -->
<g id="node13" class="node">
<title>Node13</title>
<g id="a_node13"><a xlink:href="hard_8h.html" target="_top" xlink:title="Functions and data structures for handling of secondary structure hard constraints.">
<polygon fill="white" stroke="#666666" points="847.5,-151 728.5,-151 728.5,-121 847.5,-121 847.5,-151"/>
<text text-anchor="start" x="736.5" y="-139" font-family="Helvetica,sans-Serif" font-size="10.00">ViennaRNA/constraints</text>
<text text-anchor="middle" x="788" y="-128" font-family="Helvetica,sans-Serif" font-size="10.00">/hard.h</text>
</a>
</g>
</g>
<!-- Node5&#45;&gt;Node13 -->
<g id="edge40" class="edge">
<title>Node5&#45;&gt;Node13</title>
<path fill="none" stroke="#63b8ff" d="M567.28,-241.65C612.32,-220.29 697.05,-180.12 747.42,-156.24"/>
<polygon fill="#63b8ff" stroke="#63b8ff" points="748.71,-159.5 756.25,-152.05 745.71,-153.17 748.71,-159.5"/>
</g>
<!-- Node15 -->
<g id="node15" class="node">
<title>Node15</title>
<g id="a_node15"><a xlink:href="soft_8h.html" target="_top" xlink:title="Functions and data structures for secondary structure soft constraints.">
<polygon fill="white" stroke="#666666" points="426.5,-151 307.5,-151 307.5,-121 426.5,-121 426.5,-151"/>
<text text-anchor="start" x="315.5" y="-139" font-family="Helvetica,sans-Serif" font-size="10.00">ViennaRNA/constraints</text>
<text text-anchor="middle" x="367" y="-128" font-family="Helvetica,sans-Serif" font-size="10.00">/soft.h</text>
</a>
</g>
</g>
<!-- Node5&#45;&gt;Node15 -->
<g id="edge41" class="edge">
<title>Node5&#45;&gt;Node15</title>
<path fill="none" stroke="#63b8ff" d="M511.91,-241.65C479.54,-220.83 424.02,-182.12 391.8,-158.07"/>
<polygon fill="#63b8ff" stroke="#63b8ff" points="394.28,-155.56 384.2,-152.32 390.06,-161.14 394.28,-155.56"/>
</g>
<!-- Node16 -->
<g id="node16" class="node">
<title>Node16</title>
<g id="a_node16"><a xlink:href="grammar_8h.html" target="_top" xlink:title="Implementations for the RNA folding grammar.">
<polygon fill="white" stroke="#666666" points="1326.5,-145.5 1209.5,-145.5 1209.5,-126.5 1326.5,-126.5 1326.5,-145.5"/>
<text text-anchor="middle" x="1268" y="-133.5" font-family="Helvetica,sans-Serif" font-size="10.00">ViennaRNA/grammar.h</text>
</a>
</g>
</g>
<!-- Node5&#45;&gt;Node16 -->
<g id="edge42" class="edge">
<title>Node5&#45;&gt;Node16</title>
<path fill="none" stroke="#63b8ff" d="M604.13,-246.68C724.23,-229.71 983.62,-191.75 1201,-151 1205.66,-150.13 1210.5,-149.18 1215.35,-148.22"/>
<polygon fill="#63b8ff" stroke="#63b8ff" points="1216.01,-151.65 1225.11,-146.23 1214.61,-144.79 1216.01,-151.65"/>
</g>
<!-- Node17 -->
<g id="node17" class="node">
<title>Node17</title>
<g id="a_node17"><a xlink:href="structured__domains_8h.html" target="_top" xlink:title="This module provides interfaces that deal with additional structured domains in the folding grammar.">
<polygon fill="white" stroke="#666666" points="710.5,-151 595.5,-151 595.5,-121 710.5,-121 710.5,-151"/>
<text text-anchor="start" x="603.5" y="-139" font-family="Helvetica,sans-Serif" font-size="10.00">ViennaRNA/structured</text>
<text text-anchor="middle" x="653" y="-128" font-family="Helvetica,sans-Serif" font-size="10.00">_domains.h</text>
</a>
</g>
</g>
<!-- Node5&#45;&gt;Node17 -->
<g id="edge43" class="edge">
<title>Node5&#45;&gt;Node17</title>
<path fill="none" stroke="#63b8ff" d="M550.76,-241.88C570.63,-221.5 607.53,-183.64 631.15,-159.42"/>
<polygon fill="#63b8ff" stroke="#63b8ff" points="633.36,-162.16 637.84,-152.55 628.35,-157.27 633.36,-162.16"/>
</g>
<!-- Node18 -->
<g id="node18" class="node">
<title>Node18</title>
<g id="a_node18"><a xlink:href="unstructured__domains_8h.html" target="_top" xlink:title="Functions to modify unstructured domains, e.g. to incorporate ligands binding to unpaired stretches.">
<polygon fill="white" stroke="#666666" points="289.5,-151 164.5,-151 164.5,-121 289.5,-121 289.5,-151"/>
<text text-anchor="start" x="172.5" y="-139" font-family="Helvetica,sans-Serif" font-size="10.00">ViennaRNA/unstructured</text>
<text text-anchor="middle" x="227" y="-128" font-family="Helvetica,sans-Serif" font-size="10.00">_domains.h</text>
</a>
</g>
</g>
<!-- Node5&#45;&gt;Node18 -->
<g id="edge44" class="edge">
<title>Node5&#45;&gt;Node18</title>
<path fill="none" stroke="#63b8ff" d="M494.7,-241.53C435.79,-219.95 329.88,-179.35 270.4,-155.6"/>
<polygon fill="#63b8ff" stroke="#63b8ff" points="271.84,-152.41 261.26,-151.94 269.24,-158.91 271.84,-152.41"/>
</g>
<!-- Node19 -->
<g id="node19" class="node">
<title>Node19</title>
<g id="a_node19"><a xlink:href="utils_2structures_8h.html" target="_top" xlink:title="Various utility&#45; and helper&#45;functions for secondary structure parsing, converting,...">
<polygon fill="white" stroke="#666666" points="252,-79.5 108,-79.5 108,-60.5 252,-60.5 252,-79.5"/>
<text text-anchor="middle" x="180" y="-67.5" font-family="Helvetica,sans-Serif" font-size="10.00">ViennaRNA/utils/structures.h</text>
</a>
</g>
</g>
<!-- Node5&#45;&gt;Node19 -->
<g id="edge45" class="edge">
<title>Node5&#45;&gt;Node19</title>
<path fill="none" stroke="#63b8ff" d="M469.68,-248.1C368.37,-234.16 184.72,-201.8 146,-151 131.73,-132.28 145.48,-105.26 159.81,-87.92"/>
<polygon fill="#63b8ff" stroke="#63b8ff" points="162.02,-90.69 166.19,-80.94 156.86,-85.96 162.02,-90.69"/>
</g>
<!-- Node7 -->
<g id="node7" class="node">
<title>Node7</title>
<g id="a_node7"><a xlink:title=" ">
<polygon fill="#e0e0e0" stroke="#999999" points="1551,-19 1503,-19 1503,0 1551,0 1551,-19"/>
<text text-anchor="middle" x="1527" y="-7" font-family="Helvetica,sans-Serif" font-size="10.00">limits.h</text>
</a>
</g>
</g>
<!-- Node6&#45;&gt;Node7 -->
<g id="edge6" class="edge">
<title>Node6&#45;&gt;Node7</title>
<path fill="none" stroke="#63b8ff" d="M1527,-60.37C1527,-52.5 1527,-40.6 1527,-30.39"/>
<polygon fill="#63b8ff" stroke="#63b8ff" points="1530.5,-30.68 1527,-20.68 1523.5,-30.68 1530.5,-30.68"/>
</g>
<!-- Node8&#45;&gt;Node9 -->
<g id="edge8" class="edge">
<title>Node8&#45;&gt;Node9</title>
<path fill="none" stroke="#63b8ff" d="M805.08,-186.52C841.96,-167.15 926.25,-123.06 933,-121 1055.65,-83.56 1206.3,-73.91 1290.38,-71.57"/>
<polygon fill="#63b8ff" stroke="#63b8ff" points="1290.37,-75.08 1300.28,-71.33 1290.2,-68.08 1290.37,-75.08"/>
</g>
<!-- Node8&#45;&gt;Node10 -->
<g id="edge9" class="edge">
<title>Node8&#45;&gt;Node10</title>
<path fill="none" stroke="#63b8ff" d="M861.38,-190.02C965.19,-182.45 1160.57,-167.79 1327,-151 1341.31,-149.56 1356.6,-147.84 1371.41,-146.11"/>
<polygon fill="#63b8ff" stroke="#63b8ff" points="1371.6,-149.61 1381.12,-144.96 1370.78,-142.66 1371.6,-149.61"/>
</g>
<!-- Node11 -->
<g id="node11" class="node">
<title>Node11</title>
<g id="a_node11"><a xlink:href="sequence_8h.html" target="_top" xlink:title="Functions and data structures related to sequence representations ,.">
<polygon fill="white" stroke="#666666" points="1064,-145.5 942,-145.5 942,-126.5 1064,-126.5 1064,-145.5"/>
<text text-anchor="middle" x="1003" y="-133.5" font-family="Helvetica,sans-Serif" font-size="10.00">ViennaRNA/sequence.h</text>
</a>
</g>
</g>
<!-- Node8&#45;&gt;Node11 -->
<g id="edge14" class="edge">
<title>Node8&#45;&gt;Node11</title>
<path fill="none" stroke="#63b8ff" d="M815.64,-186.62C850.61,-176.52 911.14,-160.01 953.98,-148.83"/>
<polygon fill="#63b8ff" stroke="#63b8ff" points="954.75,-152.25 963.55,-146.35 952.99,-145.47 954.75,-152.25"/>
</g>
<!-- Node8&#45;&gt;Node12 -->
<g id="edge16" class="edge">
<title>Node8&#45;&gt;Node12</title>
<path fill="none" stroke="#63b8ff" d="M740.61,-186.55C690,-176.32 610.38,-159.53 559.4,-148.38"/>
<polygon fill="#63b8ff" stroke="#63b8ff" points="560.34,-145 549.82,-146.27 558.84,-151.84 560.34,-145"/>
</g>
<!-- Node8&#45;&gt;Node13 -->
<g id="edge19" class="edge">
<title>Node8&#45;&gt;Node13</title>
<path fill="none" stroke="#63b8ff" d="M783.04,-186.87C781.65,-180.4 781.07,-171.2 781.3,-162.45"/>
<polygon fill="#63b8ff" stroke="#63b8ff" points="784.78,-162.85 782.02,-152.62 777.8,-162.34 784.78,-162.85"/>
</g>
<!-- Node8&#45;&gt;Node15 -->
<g id="edge23" class="edge">
<title>Node8&#45;&gt;Node15</title>
<path fill="none" stroke="#63b8ff" d="M714.74,-188.67C644.21,-181.31 534.52,-168.53 437.97,-152.96"/>
<polygon fill="#63b8ff" stroke="#63b8ff" points="438.8,-149.55 428.37,-151.39 437.67,-156.45 438.8,-149.55"/>
</g>
<!-- Node8&#45;&gt;Node16 -->
<g id="edge27" class="edge">
<title>Node8&#45;&gt;Node16</title>
<path fill="none" stroke="#63b8ff" d="M861.14,-189.25C942.28,-182.17 1076.78,-169.2 1192,-151 1197.44,-150.14 1203.1,-149.14 1208.78,-148.06"/>
<polygon fill="#63b8ff" stroke="#63b8ff" points="1209.04,-151.58 1218.19,-146.23 1207.7,-144.71 1209.04,-151.58"/>
</g>
<!-- Node8&#45;&gt;Node17 -->
<g id="edge29" class="edge">
<title>Node8&#45;&gt;Node17</title>
<path fill="none" stroke="#63b8ff" d="M767.5,-186.62C748.82,-178.52 720.61,-166.3 696.87,-156.01"/>
<polygon fill="#63b8ff" stroke="#63b8ff" points="698.28,-152.81 687.71,-152.04 695.49,-159.23 698.28,-152.81"/>
</g>
<!-- Node8&#45;&gt;Node18 -->
<g id="edge30" class="edge">
<title>Node8&#45;&gt;Node18</title>
<path fill="none" stroke="#63b8ff" d="M714.78,-191.62C619.68,-185.8 448.6,-173.26 300.92,-152.69"/>
<polygon fill="#63b8ff" stroke="#63b8ff" points="301.77,-149.27 291.38,-151.34 300.79,-156.2 301.77,-149.27"/>
</g>
<!-- Node20 -->
<g id="node20" class="node">
<title>Node20</title>
<g id="a_node20"><a xlink:href="zscore_8h_source.html" target="_top" xlink:title=" ">
<polygon fill="white" stroke="#666666" points="1191.5,-145.5 1082.5,-145.5 1082.5,-126.5 1191.5,-126.5 1191.5,-145.5"/>
<text text-anchor="middle" x="1137" y="-133.5" font-family="Helvetica,sans-Serif" font-size="10.00">ViennaRNA/zscore.h</text>
</a>
</g>
</g>
<!-- Node8&#45;&gt;Node20 -->
<g id="edge36" class="edge">
<title>Node8&#45;&gt;Node20</title>
<path fill="none" stroke="#63b8ff" d="M852.71,-186.53C910.6,-178.24 997.69,-165.1 1073,-151 1077.53,-150.15 1082.22,-149.22 1086.92,-148.26"/>
<polygon fill="#63b8ff" stroke="#63b8ff" points="1087.27,-151.76 1096.33,-146.28 1085.83,-144.91 1087.27,-151.76"/>
</g>
<!-- Node10&#45;&gt;Node5 -->
<g id="edge11" class="edge">
<title>Node10&#45;&gt;Node5</title>
<path fill="none" stroke="#63b8ff" d="M1450.22,-145.78C1440.79,-161.24 1411.11,-192.9 1378,-206 1308.66,-233.44 811.5,-249.11 615.79,-254.17"/>
<polygon fill="#63b8ff" stroke="#63b8ff" points="615.88,-250.67 605.97,-254.42 616.06,-257.67 615.88,-250.67"/>
</g>
<!-- Node10&#45;&gt;Node6 -->
<g id="edge10" class="edge">
<title>Node10&#45;&gt;Node6</title>
<path fill="none" stroke="#63b8ff" d="M1462.43,-126.1C1474.18,-116.07 1493.54,-99.56 1507.99,-87.22"/>
<polygon fill="#63b8ff" stroke="#63b8ff" points="1510.17,-89.96 1515.51,-80.81 1505.63,-84.63 1510.17,-89.96"/>
</g>
<!-- Node10&#45;&gt;Node8 -->
<g id="edge12" class="edge">
<title>Node10&#45;&gt;Node8</title>
<path fill="none" stroke="#63b8ff" d="M1389.99,-145.99C1375.28,-147.76 1359.63,-149.52 1345,-151 1178.06,-167.85 982.01,-182.54 872.62,-190.09"/>
<polygon fill="#63b8ff" stroke="#63b8ff" points="872.58,-186.59 862.84,-190.76 873.06,-193.57 872.58,-186.59"/>
</g>
<!-- Node10&#45;&gt;Node9 -->
<g id="edge13" class="edge">
<title>Node10&#45;&gt;Node9</title>
<path fill="none" stroke="#63b8ff" d="M1438.51,-126.1C1422.8,-115.74 1396.6,-98.45 1377.73,-86"/>
<polygon fill="#63b8ff" stroke="#63b8ff" points="1379.91,-83.24 1369.64,-80.66 1376.06,-89.09 1379.91,-83.24"/>
</g>
<!-- Node11&#45;&gt;Node8 -->
<g id="edge15" class="edge">
<title>Node11&#45;&gt;Node8</title>
<path fill="none" stroke="#63b8ff" d="M975.07,-145.97C939.95,-156.1 879.41,-172.62 836.67,-183.76"/>
<polygon fill="#63b8ff" stroke="#63b8ff" points="835.93,-180.34 827.13,-186.24 837.69,-187.11 835.93,-180.34"/>
</g>
<!-- Node12&#45;&gt;Node5 -->
<g id="edge17" class="edge">
<title>Node12&#45;&gt;Node5</title>
<path fill="none" stroke="#63b8ff" d="M516.63,-145.71C523.73,-163.38 533.24,-204.02 537.12,-230.73"/>
<polygon fill="#63b8ff" stroke="#63b8ff" points="533.61,-230.87 538.29,-240.38 540.56,-230.03 533.61,-230.87"/>
</g>
<!-- Node12&#45;&gt;Node8 -->
<g id="edge18" class="edge">
<title>Node12&#45;&gt;Node8</title>
<path fill="none" stroke="#63b8ff" d="M558.39,-145.95C609,-156.18 688.61,-172.97 739.6,-184.12"/>
<polygon fill="#63b8ff" stroke="#63b8ff" points="738.65,-187.5 749.17,-186.23 740.16,-180.66 738.65,-187.5"/>
</g>
<!-- Node13&#45;&gt;Node8 -->
<g id="edge20" class="edge">
<title>Node13&#45;&gt;Node8</title>
<path fill="none" stroke="#63b8ff" d="M793.87,-151.11C794.81,-158.43 794.99,-167.49 794.44,-175.51"/>
<polygon fill="#63b8ff" stroke="#63b8ff" points="790.98,-175 793.15,-185.37 797.92,-175.91 790.98,-175"/>
</g>
<!-- Node14 -->
<g id="node14" class="node">
<title>Node14</title>
<g id="a_node14"><a xlink:href="constraints_2basic_8h.html" target="_top" xlink:title="Functions and data structures for constraining secondary structure predictions and evaluation.">
<polygon fill="white" stroke="#666666" points="847.5,-85 728.5,-85 728.5,-55 847.5,-55 847.5,-85"/>
<text text-anchor="start" x="736.5" y="-73" font-family="Helvetica,sans-Serif" font-size="10.00">ViennaRNA/constraints</text>
<text text-anchor="middle" x="788" y="-62" font-family="Helvetica,sans-Serif" font-size="10.00">/basic.h</text>
</a>
</g>
</g>
<!-- Node13&#45;&gt;Node14 -->
<g id="edge21" class="edge">
<title>Node13&#45;&gt;Node14</title>
<path fill="none" stroke="#63b8ff" d="M788,-120.8C788,-113.67 788,-104.82 788,-96.56"/>
<polygon fill="#63b8ff" stroke="#63b8ff" points="791.5,-96.68 788,-86.68 784.5,-96.68 791.5,-96.68"/>
</g>
<!-- Node14&#45;&gt;Node8 -->
<g id="edge22" class="edge">
<title>Node14&#45;&gt;Node8</title>
<path fill="none" stroke="#63b8ff" d="M819.17,-85.47C833.14,-93.74 848.19,-105.57 856,-121 862.02,-132.9 862.34,-139.27 856,-151 848.75,-164.42 835.49,-174.44 822.6,-181.54"/>
<polygon fill="#63b8ff" stroke="#63b8ff" points="821.19,-178.33 813.81,-185.94 824.32,-184.59 821.19,-178.33"/>
</g>
<!-- Node15&#45;&gt;Node5 -->
<g id="edge24" class="edge">
<title>Node15&#45;&gt;Node5</title>
<path fill="none" stroke="#63b8ff" d="M392.17,-151.41C424.57,-172.25 480.1,-210.96 512.28,-234.99"/>
<polygon fill="#63b8ff" stroke="#63b8ff" points="509.78,-237.49 519.87,-240.73 514.01,-231.91 509.78,-237.49"/>
</g>
<!-- Node15&#45;&gt;Node8 -->
<g id="edge25" class="edge">
<title>Node15&#45;&gt;Node8</title>
<path fill="none" stroke="#63b8ff" d="M426.73,-147.91C432.58,-149.02 438.41,-150.07 444,-151 532.18,-165.61 633.45,-177.92 703.22,-185.87"/>
<polygon fill="#63b8ff" stroke="#63b8ff" points="702.73,-189.33 713.06,-186.98 703.52,-182.38 702.73,-189.33"/>
</g>
<!-- Node15&#45;&gt;Node14 -->
<g id="edge26" class="edge">
<title>Node15&#45;&gt;Node14</title>
<path fill="none" stroke="#63b8ff" d="M426.66,-122.5C429.48,-121.98 432.27,-121.47 435,-121 532.4,-104.09 645.65,-88.82 717.08,-79.72"/>
<polygon fill="#63b8ff" stroke="#63b8ff" points="717.19,-83.24 726.67,-78.51 716.31,-76.29 717.19,-83.24"/>
</g>
<!-- Node16&#45;&gt;Node8 -->
<g id="edge28" class="edge">
<title>Node16&#45;&gt;Node8</title>
<path fill="none" stroke="#63b8ff" d="M1237.2,-145.94C1228.45,-147.78 1218.92,-149.59 1210,-151 1093.77,-169.36 957.91,-182.39 872.35,-189.43"/>
<polygon fill="#63b8ff" stroke="#63b8ff" points="872.32,-185.92 862.64,-190.22 872.89,-192.9 872.32,-185.92"/>
</g>
<!-- Node18&#45;&gt;Node5 -->
<g id="edge31" class="edge">
<title>Node18&#45;&gt;Node5</title>
<path fill="none" stroke="#63b8ff" d="M269.28,-151.46C328.1,-173.01 433.8,-213.52 493.34,-237.29"/>
<polygon fill="#63b8ff" stroke="#63b8ff" points="491.91,-240.49 502.49,-240.96 494.51,-233.99 491.91,-240.49"/>
</g>
<!-- Node18&#45;&gt;Node8 -->
<g id="edge32" class="edge">
<title>Node18&#45;&gt;Node8</title>
<path fill="none" stroke="#63b8ff" d="M289.74,-148.22C295.58,-149.24 301.4,-150.2 307,-151 445.33,-170.86 606.97,-183.51 703.29,-190.06"/>
<polygon fill="#63b8ff" stroke="#63b8ff" points="702.98,-193.54 713.19,-190.72 703.45,-186.56 702.98,-193.54"/>
</g>
<!-- Node18&#45;&gt;Node19 -->
<g id="edge33" class="edge">
<title>Node18&#45;&gt;Node19</title>
<path fill="none" stroke="#63b8ff" d="M216.57,-120.8C209.67,-111.41 200.57,-99.02 193.18,-88.95"/>
<polygon fill="#63b8ff" stroke="#63b8ff" points="196.13,-87.05 187.39,-81.06 190.49,-91.2 196.13,-87.05"/>
</g>
<!-- Node19&#45;&gt;Node3 -->
<g id="edge34" class="edge">
<title>Node19&#45;&gt;Node3</title>
<path fill="none" stroke="#63b8ff" d="M172.62,-60.37C165.31,-51.81 153.91,-38.47 144.74,-27.74"/>
<polygon fill="#63b8ff" stroke="#63b8ff" points="147.55,-25.65 138.39,-20.32 142.23,-30.19 147.55,-25.65"/>
</g>
<!-- Node19&#45;&gt;Node5 -->
<g id="edge35" class="edge">
<title>Node19&#45;&gt;Node5</title>
<path fill="none" stroke="#63b8ff" d="M177.85,-79.83C169.13,-95.59 147.24,-129.01 164,-151 199.88,-198.07 360.19,-229.31 458.66,-244.73"/>
<polygon fill="#63b8ff" stroke="#63b8ff" points="457.84,-248.15 468.26,-246.21 458.91,-241.23 457.84,-248.15"/>
</g>
</g>
</svg>
