<?xml version="1.0" encoding="UTF-8" standalone="no"?>
<!DOCTYPE svg PUBLIC "-//W3C//DTD SVG 1.1//EN"
 "http://www.w3.org/Graphics/SVG/1.1/DTD/svg11.dtd">
<!-- Generated by graphviz version 7.1.0 (0)
 -->
<!-- Title: ViennaRNA/part_func.h Pages: 1 -->
<!--zoomable 401 -->
<svg id="main" version="1.1" xmlns="http://www.w3.org/2000/svg" xmlns:xlink="http://www.w3.org/1999/xlink" xml:space="preserve" onload="init(evt)">
<style type="text/css"><![CDATA[
.edge:hover path { stroke: red; }
.edge:hover polygon { stroke: red; fill: red; }
]]></style>
<script type="text/javascript"><![CDATA[
var edges = document.getElementsByTagName('g');
if (edges && edges.length) {
  for (var i=0;i<edges.length;i++) {
    if (edges[i].id.substr(0,4)=='edge') {
      edges[i].setAttribute('class','edge');
    }
  }
}
]]></script>
        <defs>
                <circle id="rim" cx="0" cy="0" r="7"/>
                <circle id="rim2" cx="0" cy="0" r="3.5"/>
                <g id="zoomPlus">
                        <use xlink:href="#rim" fill="#404040">
                                <set attributeName="fill" to="#808080" begin="zoomplus.mouseover" end="zoomplus.mouseout"/>
                        </use>
                        <path d="M-4,0h8M0,-4v8" fill="none" stroke="white" stroke-width="1.5" pointer-events="none"/>
                </g>
                <g id="zoomMin">
                        <use xlink:href="#rim" fill="#404040">
                                <set attributeName="fill" to="#808080" begin="zoomminus.mouseover" end="zoomminus.mouseout"/>
                        </use>
                        <path d="M-4,0h8" fill="none" stroke="white" stroke-width="1.5" pointer-events="none"/>
                </g>
                <g id="dirArrow">
                        <path fill="none" stroke="white" stroke-width="1.5" d="M0,-3.0v7 M-2.5,-0.5L0,-3.0L2.5,-0.5"/>
                </g>
               <g id="resetDef">
                       <use xlink:href="#rim2" fill="#404040">
                               <set attributeName="fill" to="#808080" begin="reset.mouseover" end="reset.mouseout"/>
                       </use>
               </g>
        </defs>

<script type="text/javascript">
var viewWidth = 1611;
var viewHeight = 401;
var sectionId = 'dynsection-0';
</script>
<script xlink:href="svgpan.js"/>
<svg id="graph" class="graph">
<g id="viewport">
<title>ViennaRNA/part_func.h</title>
<!-- Node1 -->
<g id="node1" class="node">
<title>Node1</title>
<g id="a_node1"><a xlink:title="Partition function implementations.">
<polygon fill="#999999" stroke="#666666" points="838,-393 718,-393 718,-374 838,-374 838,-393"/>
<text text-anchor="middle" x="778" y="-381" font-family="Helvetica,sans-Serif" font-size="10.00">ViennaRNA/part_func.h</text>
</a>
</g>
</g>
<!-- Node2 -->
<g id="node2" class="node">
<title>Node2</title>
<g id="a_node2"><a xlink:href="datastructures_2basic_8h.html" target="_top" xlink:title="Various data structures and pre&#45;processor macros.">
<polygon fill="white" stroke="#666666" points="841,-272 707,-272 707,-242 841,-242 841,-272"/>
<text text-anchor="start" x="715" y="-260" font-family="Helvetica,sans-Serif" font-size="10.00">ViennaRNA/datastructures</text>
<text text-anchor="middle" x="774" y="-249" font-family="Helvetica,sans-Serif" font-size="10.00">/basic.h</text>
</a>
</g>
</g>
<!-- Node1&#45;&gt;Node2 -->
<g id="edge1" class="edge">
<title>Node1&#45;&gt;Node2</title>
<path fill="none" stroke="#63b8ff" d="M777.71,-373.55C777.12,-354.99 775.73,-311.75 774.83,-283.75"/>
<polygon fill="#63b8ff" stroke="#63b8ff" points="778.33,-283.84 774.51,-273.96 771.34,-284.07 778.33,-283.84"/>
</g>
<!-- Node5 -->
<g id="node5" class="node">
<title>Node5</title>
<g id="a_node5"><a xlink:href="fold__compound_8h.html" target="_top" xlink:title="The Basic Fold Compound API.">
<polygon fill="white" stroke="#666666" points="847,-206 701,-206 701,-187 847,-187 847,-206"/>
<text text-anchor="middle" x="774" y="-194" font-family="Helvetica,sans-Serif" font-size="10.00">ViennaRNA/fold_compound.h</text>
</a>
</g>
</g>
<!-- Node1&#45;&gt;Node5 -->
<g id="edge43" class="edge">
<title>Node1&#45;&gt;Node5</title>
<path fill="none" stroke="#63b8ff" d="M717.83,-381.21C685.41,-377.05 647.87,-365.91 627,-338 587.26,-284.86 685.13,-234.01 739.95,-210.73"/>
<polygon fill="#63b8ff" stroke="#63b8ff" points="740.99,-214.09 748.89,-207.03 738.31,-207.62 740.99,-214.09"/>
</g>
<!-- Node7 -->
<g id="node7" class="node">
<title>Node7</title>
<g id="a_node7"><a xlink:href="params_2basic_8h.html" target="_top" xlink:title="Functions to deal with sets of energy parameters.">
<polygon fill="white" stroke="#666666" points="1518,-145.5 1380,-145.5 1380,-126.5 1518,-126.5 1518,-145.5"/>
<text text-anchor="middle" x="1449" y="-133.5" font-family="Helvetica,sans-Serif" font-size="10.00">ViennaRNA/params/basic.h</text>
</a>
</g>
</g>
<!-- Node1&#45;&gt;Node7 -->
<g id="edge45" class="edge">
<title>Node1&#45;&gt;Node7</title>
<path fill="none" stroke="#63b8ff" d="M838.29,-381.13C983.98,-376.49 1349.14,-356.5 1430,-272 1459.65,-241.02 1456.85,-186.27 1452.68,-156.91"/>
<polygon fill="#63b8ff" stroke="#63b8ff" points="1456.16,-156.5 1451.08,-147.2 1449.25,-157.64 1456.16,-156.5"/>
</g>
<!-- Node16 -->
<g id="node16" class="node">
<title>Node16</title>
<g id="a_node16"><a xlink:href="utils_2structures_8h.html" target="_top" xlink:title="Various utility&#45; and helper&#45;functions for secondary structure parsing, converting,...">
<polygon fill="white" stroke="#666666" points="172,-79.5 28,-79.5 28,-60.5 172,-60.5 172,-79.5"/>
<text text-anchor="middle" x="100" y="-67.5" font-family="Helvetica,sans-Serif" font-size="10.00">ViennaRNA/utils/structures.h</text>
</a>
</g>
</g>
<!-- Node1&#45;&gt;Node16 -->
<g id="edge44" class="edge">
<title>Node1&#45;&gt;Node16</title>
<path fill="none" stroke="#63b8ff" d="M717.6,-379.19C534.8,-368.39 0,-330.58 0,-258 0,-258 0,-258 0,-195.5 0,-147.18 46.36,-106.94 75.94,-86.18"/>
<polygon fill="#63b8ff" stroke="#63b8ff" points="77.66,-89.25 83.99,-80.75 73.74,-83.45 77.66,-89.25"/>
</g>
<!-- Node19 -->
<g id="node19" class="node">
<title>Node19</title>
<g id="a_node19"><a xlink:href="centroid_8h.html" target="_top" xlink:title="Centroid structure computation.">
<polygon fill="white" stroke="#666666" points="750,-332.5 636,-332.5 636,-313.5 750,-313.5 750,-332.5"/>
<text text-anchor="middle" x="693" y="-320.5" font-family="Helvetica,sans-Serif" font-size="10.00">ViennaRNA/centroid.h</text>
</a>
</g>
</g>
<!-- Node1&#45;&gt;Node19 -->
<g id="edge46" class="edge">
<title>Node1&#45;&gt;Node19</title>
<path fill="none" stroke="#63b8ff" d="M765.09,-373.62C751.86,-364.51 731.03,-350.18 715.16,-339.25"/>
<polygon fill="#63b8ff" stroke="#63b8ff" points="717.5,-336.61 707.28,-333.83 713.53,-342.38 717.5,-336.61"/>
</g>
<!-- Node20 -->
<g id="node20" class="node">
<title>Node20</title>
<g id="a_node20"><a xlink:href="equilibrium__probs_8h.html" target="_top" xlink:title="Equilibrium Probability implementations.">
<polygon fill="white" stroke="#666666" points="924,-338 806,-338 806,-308 924,-308 924,-338"/>
<text text-anchor="start" x="814" y="-326" font-family="Helvetica,sans-Serif" font-size="10.00">ViennaRNA/equilibrium</text>
<text text-anchor="middle" x="865" y="-315" font-family="Helvetica,sans-Serif" font-size="10.00">_probs.h</text>
</a>
</g>
</g>
<!-- Node1&#45;&gt;Node20 -->
<g id="edge50" class="edge">
<title>Node1&#45;&gt;Node20</title>
<path fill="none" stroke="#63b8ff" d="M791.21,-373.62C802.6,-365.96 819.48,-354.61 834.23,-344.69"/>
<polygon fill="#63b8ff" stroke="#63b8ff" points="835.92,-347.77 842.27,-339.28 832.02,-341.96 835.92,-347.77"/>
</g>
<!-- Node21 -->
<g id="node21" class="node">
<title>Node21</title>
<g id="a_node21"><a xlink:href="boltzmann__sampling_8h.html" target="_top" xlink:title="Boltzmann Sampling of secondary structures from the ensemble.">
<polygon fill="white" stroke="#666666" points="1421,-272 1305,-272 1305,-242 1421,-242 1421,-272"/>
<text text-anchor="start" x="1313" y="-260" font-family="Helvetica,sans-Serif" font-size="10.00">ViennaRNA/boltzmann</text>
<text text-anchor="middle" x="1363" y="-249" font-family="Helvetica,sans-Serif" font-size="10.00">_sampling.h</text>
</a>
</g>
</g>
<!-- Node1&#45;&gt;Node21 -->
<g id="edge55" class="edge">
<title>Node1&#45;&gt;Node21</title>
<path fill="none" stroke="#63b8ff" d="M820.07,-373.55C919.79,-352.32 1171.29,-298.8 1293.8,-272.73"/>
<polygon fill="#63b8ff" stroke="#63b8ff" points="1294.35,-276.19 1303.4,-270.68 1292.89,-269.34 1294.35,-276.19"/>
</g>
<!-- Node3 -->
<g id="node3" class="node">
<title>Node3</title>
<g id="a_node3"><a xlink:href="constants_8h.html" target="_top" xlink:title="Energy parameter constants.">
<polygon fill="white" stroke="#666666" points="1603,-79.5 1445,-79.5 1445,-60.5 1603,-60.5 1603,-79.5"/>
<text text-anchor="middle" x="1524" y="-67.5" font-family="Helvetica,sans-Serif" font-size="10.00">ViennaRNA/params/constants.h</text>
</a>
</g>
</g>
<!-- Node2&#45;&gt;Node3 -->
<g id="edge2" class="edge">
<title>Node2&#45;&gt;Node3</title>
<path fill="none" stroke="#63b8ff" d="M841.39,-253.65C945.59,-249.16 1151.77,-236.92 1324,-206 1416,-189.48 1470.2,-225.24 1527,-151 1540.11,-133.87 1536.22,-108.11 1531.13,-90.48"/>
<polygon fill="#63b8ff" stroke="#63b8ff" points="1534.53,-89.62 1528.08,-81.21 1527.88,-91.81 1534.53,-89.62"/>
</g>
<!-- Node2&#45;&gt;Node5 -->
<g id="edge4" class="edge">
<title>Node2&#45;&gt;Node5</title>
<path fill="none" stroke="#63b8ff" d="M774,-241.54C774,-234.34 774,-225.53 774,-217.68"/>
<polygon fill="#63b8ff" stroke="#63b8ff" points="777.5,-217.69 774,-207.69 770.5,-217.69 777.5,-217.69"/>
</g>
<!-- Node6 -->
<g id="node6" class="node">
<title>Node6</title>
<g id="a_node6"><a xlink:href="model_8h.html" target="_top" xlink:title="The model details data structure and its corresponding modifiers.">
<polygon fill="white" stroke="#666666" points="1405,-79.5 1299,-79.5 1299,-60.5 1405,-60.5 1405,-79.5"/>
<text text-anchor="middle" x="1352" y="-67.5" font-family="Helvetica,sans-Serif" font-size="10.00">ViennaRNA/model.h</text>
</a>
</g>
</g>
<!-- Node2&#45;&gt;Node6 -->
<g id="edge34" class="edge">
<title>Node2&#45;&gt;Node6</title>
<path fill="none" stroke="#63b8ff" d="M841.46,-252.32C974.35,-243.69 1263.19,-217.57 1333,-151 1349.04,-135.71 1352.61,-109.54 1352.94,-91.31"/>
<polygon fill="#63b8ff" stroke="#63b8ff" points="1356.44,-91.41 1352.78,-81.47 1349.44,-91.52 1356.44,-91.41"/>
</g>
<!-- Node2&#45;&gt;Node7 -->
<g id="edge35" class="edge">
<title>Node2&#45;&gt;Node7</title>
<path fill="none" stroke="#63b8ff" d="M841.33,-254.77C936.36,-251.73 1114.41,-241.34 1262,-206 1317.15,-192.79 1378.1,-166.42 1415.14,-150.37"/>
<polygon fill="#63b8ff" stroke="#63b8ff" points="1416.2,-153.73 1424,-146.55 1413.43,-147.3 1416.2,-153.73"/>
</g>
<!-- Node9 -->
<g id="node9" class="node">
<title>Node9</title>
<g id="a_node9"><a xlink:href="dp__matrices_8h.html" target="_top" xlink:title="Functions to deal with standard dynamic programming (DP) matrices.">
<polygon fill="white" stroke="#666666" points="1323.5,-145.5 1190.5,-145.5 1190.5,-126.5 1323.5,-126.5 1323.5,-145.5"/>
<text text-anchor="middle" x="1257" y="-133.5" font-family="Helvetica,sans-Serif" font-size="10.00">ViennaRNA/dp_matrices.h</text>
</a>
</g>
</g>
<!-- Node2&#45;&gt;Node9 -->
<g id="edge36" class="edge">
<title>Node2&#45;&gt;Node9</title>
<path fill="none" stroke="#63b8ff" d="M828.14,-241.53C922.17,-217.62 1114.09,-170.37 1205.93,-148.55"/>
<polygon fill="#63b8ff" stroke="#63b8ff" points="1206.49,-152.01 1215.41,-146.3 1204.88,-145.2 1206.49,-152.01"/>
</g>
<!-- Node10 -->
<g id="node10" class="node">
<title>Node10</title>
<g id="a_node10"><a xlink:href="hard_8h.html" target="_top" xlink:title="Functions and data structures for handling of secondary structure hard constraints.">
<polygon fill="white" stroke="#666666" points="694.5,-151 575.5,-151 575.5,-121 694.5,-121 694.5,-151"/>
<text text-anchor="start" x="583.5" y="-139" font-family="Helvetica,sans-Serif" font-size="10.00">ViennaRNA/constraints</text>
<text text-anchor="middle" x="635" y="-128" font-family="Helvetica,sans-Serif" font-size="10.00">/hard.h</text>
</a>
</g>
</g>
<!-- Node2&#45;&gt;Node10 -->
<g id="edge37" class="edge">
<title>Node2&#45;&gt;Node10</title>
<path fill="none" stroke="#63b8ff" d="M745.48,-241.69C728.95,-232.67 708.26,-220.08 692,-206 676.54,-192.61 661.91,-174.75 651.34,-160.55"/>
<polygon fill="#63b8ff" stroke="#63b8ff" points="654.31,-158.68 645.61,-152.64 648.64,-162.79 654.31,-158.68"/>
</g>
<!-- Node12 -->
<g id="node12" class="node">
<title>Node12</title>
<g id="a_node12"><a xlink:href="soft_8h.html" target="_top" xlink:title="Functions and data structures for secondary structure soft constraints.">
<polygon fill="white" stroke="#666666" points="422.5,-151 303.5,-151 303.5,-121 422.5,-121 422.5,-151"/>
<text text-anchor="start" x="311.5" y="-139" font-family="Helvetica,sans-Serif" font-size="10.00">ViennaRNA/constraints</text>
<text text-anchor="middle" x="363" y="-128" font-family="Helvetica,sans-Serif" font-size="10.00">/soft.h</text>
</a>
</g>
</g>
<!-- Node2&#45;&gt;Node12 -->
<g id="edge38" class="edge">
<title>Node2&#45;&gt;Node12</title>
<path fill="none" stroke="#63b8ff" d="M719.41,-241.53C641.18,-219.67 498.12,-178.28 419.08,-154.67"/>
<polygon fill="#63b8ff" stroke="#63b8ff" points="420.39,-151.42 409.81,-151.9 418.39,-158.12 420.39,-151.42"/>
</g>
<!-- Node13 -->
<g id="node13" class="node">
<title>Node13</title>
<g id="a_node13"><a xlink:href="grammar_8h.html" target="_top" xlink:title="Implementations for the RNA folding grammar.">
<polygon fill="white" stroke="#666666" points="557.5,-145.5 440.5,-145.5 440.5,-126.5 557.5,-126.5 557.5,-145.5"/>
<text text-anchor="middle" x="499" y="-133.5" font-family="Helvetica,sans-Serif" font-size="10.00">ViennaRNA/grammar.h</text>
</a>
</g>
</g>
<!-- Node2&#45;&gt;Node13 -->
<g id="edge39" class="edge">
<title>Node2&#45;&gt;Node13</title>
<path fill="none" stroke="#63b8ff" d="M740.55,-241.53C686.83,-218.28 582.08,-172.95 529.97,-150.4"/>
<polygon fill="#63b8ff" stroke="#63b8ff" points="531.65,-147.31 521.08,-146.55 528.87,-153.74 531.65,-147.31"/>
</g>
<!-- Node14 -->
<g id="node14" class="node">
<title>Node14</title>
<g id="a_node14"><a xlink:href="structured__domains_8h.html" target="_top" xlink:title="This module provides interfaces that deal with additional structured domains in the folding grammar.">
<polygon fill="white" stroke="#666666" points="1172.5,-151 1057.5,-151 1057.5,-121 1172.5,-121 1172.5,-151"/>
<text text-anchor="start" x="1065.5" y="-139" font-family="Helvetica,sans-Serif" font-size="10.00">ViennaRNA/structured</text>
<text text-anchor="middle" x="1115" y="-128" font-family="Helvetica,sans-Serif" font-size="10.00">_domains.h</text>
</a>
</g>
</g>
<!-- Node2&#45;&gt;Node14 -->
<g id="edge40" class="edge">
<title>Node2&#45;&gt;Node14</title>
<path fill="none" stroke="#63b8ff" d="M815.47,-241.53C877.6,-219.85 994.76,-178.96 1062.68,-155.26"/>
<polygon fill="#63b8ff" stroke="#63b8ff" points="1063.83,-158.56 1072.12,-151.96 1061.53,-151.95 1063.83,-158.56"/>
</g>
<!-- Node15 -->
<g id="node15" class="node">
<title>Node15</title>
<g id="a_node15"><a xlink:href="unstructured__domains_8h.html" target="_top" xlink:title="Functions to modify unstructured domains, e.g. to incorporate ligands binding to unpaired stretches.">
<polygon fill="white" stroke="#666666" points="285.5,-151 160.5,-151 160.5,-121 285.5,-121 285.5,-151"/>
<text text-anchor="start" x="168.5" y="-139" font-family="Helvetica,sans-Serif" font-size="10.00">ViennaRNA/unstructured</text>
<text text-anchor="middle" x="223" y="-128" font-family="Helvetica,sans-Serif" font-size="10.00">_domains.h</text>
</a>
</g>
</g>
<!-- Node2&#45;&gt;Node15 -->
<g id="edge41" class="edge">
<title>Node2&#45;&gt;Node15</title>
<path fill="none" stroke="#63b8ff" d="M706.52,-243.22C657.6,-233.15 590.09,-218.74 531,-206 449.2,-188.36 355.57,-167.95 293.15,-153.93"/>
<polygon fill="#63b8ff" stroke="#63b8ff" points="294.26,-150.59 283.74,-151.81 292.72,-157.42 294.26,-150.59"/>
</g>
<!-- Node2&#45;&gt;Node16 -->
<g id="edge42" class="edge">
<title>Node2&#45;&gt;Node16</title>
<path fill="none" stroke="#63b8ff" d="M706.77,-251.98C563.28,-242.01 233.14,-212.4 142,-151 120.48,-136.5 106.13,-109.54 100.37,-90.96"/>
<polygon fill="#63b8ff" stroke="#63b8ff" points="103.83,-90.35 98.15,-81.4 97.01,-91.93 103.83,-90.35"/>
</g>
<!-- Node4 -->
<g id="node4" class="node">
<title>Node4</title>
<g id="a_node4"><a xlink:title=" ">
<polygon fill="#e0e0e0" stroke="#999999" points="1548,-19 1500,-19 1500,0 1548,0 1548,-19"/>
<text text-anchor="middle" x="1524" y="-7" font-family="Helvetica,sans-Serif" font-size="10.00">limits.h</text>
</a>
</g>
</g>
<!-- Node3&#45;&gt;Node4 -->
<g id="edge3" class="edge">
<title>Node3&#45;&gt;Node4</title>
<path fill="none" stroke="#63b8ff" d="M1524,-60.37C1524,-52.5 1524,-40.6 1524,-30.39"/>
<polygon fill="#63b8ff" stroke="#63b8ff" points="1527.5,-30.68 1524,-20.68 1520.5,-30.68 1527.5,-30.68"/>
</g>
<!-- Node5&#45;&gt;Node6 -->
<g id="edge5" class="edge">
<title>Node5&#45;&gt;Node6</title>
<path fill="none" stroke="#63b8ff" d="M840.98,-186.56C884.3,-179.6 941.46,-168.19 990,-151 1017.36,-141.31 1020.45,-130.13 1048,-121 1128.05,-94.45 1224.83,-81.64 1287.35,-75.71"/>
<polygon fill="#63b8ff" stroke="#63b8ff" points="1287.47,-79.22 1297.11,-74.82 1286.83,-72.25 1287.47,-79.22"/>
</g>
<!-- Node5&#45;&gt;Node7 -->
<g id="edge6" class="edge">
<title>Node5&#45;&gt;Node7</title>
<path fill="none" stroke="#63b8ff" d="M847.18,-190.21C952.66,-182.74 1153.26,-168.09 1324,-151 1338.31,-149.57 1353.6,-147.85 1368.41,-146.12"/>
<polygon fill="#63b8ff" stroke="#63b8ff" points="1368.6,-149.63 1378.12,-144.98 1367.78,-142.68 1368.6,-149.63"/>
</g>
<!-- Node8 -->
<g id="node8" class="node">
<title>Node8</title>
<g id="a_node8"><a xlink:href="sequence_8h.html" target="_top" xlink:title="Functions and data structures related to sequence representations ,.">
<polygon fill="white" stroke="#666666" points="835,-145.5 713,-145.5 713,-126.5 835,-126.5 835,-145.5"/>
<text text-anchor="middle" x="774" y="-133.5" font-family="Helvetica,sans-Serif" font-size="10.00">ViennaRNA/sequence.h</text>
</a>
</g>
</g>
<!-- Node5&#45;&gt;Node8 -->
<g id="edge11" class="edge">
<title>Node5&#45;&gt;Node8</title>
<path fill="none" stroke="#63b8ff" d="M769.04,-186.87C767.35,-179 766.85,-167.1 767.57,-156.89"/>
<polygon fill="#63b8ff" stroke="#63b8ff" points="771.01,-157.54 768.84,-147.17 764.07,-156.63 771.01,-157.54"/>
</g>
<!-- Node5&#45;&gt;Node9 -->
<g id="edge13" class="edge">
<title>Node5&#45;&gt;Node9</title>
<path fill="none" stroke="#63b8ff" d="M847.21,-188.59C927.4,-181.04 1059.51,-167.76 1173,-151 1179.21,-150.08 1185.7,-149.03 1192.19,-147.91"/>
<polygon fill="#63b8ff" stroke="#63b8ff" points="1192.36,-151.43 1201.61,-146.26 1191.15,-144.54 1192.36,-151.43"/>
</g>
<!-- Node5&#45;&gt;Node10 -->
<g id="edge16" class="edge">
<title>Node5&#45;&gt;Node10</title>
<path fill="none" stroke="#63b8ff" d="M747.88,-186.62C726.94,-178.52 697.45,-166.3 673.8,-156.01"/>
<polygon fill="#63b8ff" stroke="#63b8ff" points="675.35,-152.87 664.78,-152.05 672.53,-159.27 675.35,-152.87"/>
</g>
<!-- Node5&#45;&gt;Node12 -->
<g id="edge20" class="edge">
<title>Node5&#45;&gt;Node12</title>
<path fill="none" stroke="#63b8ff" d="M700.65,-188.34C632.12,-180.87 526.91,-168.15 434.1,-153"/>
<polygon fill="#63b8ff" stroke="#63b8ff" points="434.77,-149.56 424.33,-151.39 433.63,-156.47 434.77,-149.56"/>
</g>
<!-- Node5&#45;&gt;Node13 -->
<g id="edge24" class="edge">
<title>Node5&#45;&gt;Node13</title>
<path fill="none" stroke="#63b8ff" d="M726.91,-186.55C676.65,-176.32 597.61,-159.53 547.01,-148.38"/>
<polygon fill="#63b8ff" stroke="#63b8ff" points="548.04,-145.02 537.52,-146.27 546.52,-151.85 548.04,-145.02"/>
</g>
<!-- Node5&#45;&gt;Node14 -->
<g id="edge26" class="edge">
<title>Node5&#45;&gt;Node14</title>
<path fill="none" stroke="#63b8ff" d="M831.28,-186.5C885.79,-177.83 970.09,-164.12 1043,-151 1044.01,-150.82 1045.04,-150.63 1046.07,-150.45"/>
<polygon fill="#63b8ff" stroke="#63b8ff" points="1046.57,-153.91 1055.77,-148.65 1045.3,-147.03 1046.57,-153.91"/>
</g>
<!-- Node5&#45;&gt;Node15 -->
<g id="edge27" class="edge">
<title>Node5&#45;&gt;Node15</title>
<path fill="none" stroke="#63b8ff" d="M700.53,-191.43C607.08,-185.48 440.79,-172.88 297.05,-152.72"/>
<polygon fill="#63b8ff" stroke="#63b8ff" points="297.75,-149.28 287.36,-151.34 296.76,-156.21 297.75,-149.28"/>
</g>
<!-- Node18 -->
<g id="node18" class="node">
<title>Node18</title>
<g id="a_node18"><a xlink:href="zscore_8h_source.html" target="_top" xlink:title=" ">
<polygon fill="white" stroke="#666666" points="962.5,-145.5 853.5,-145.5 853.5,-126.5 962.5,-126.5 962.5,-145.5"/>
<text text-anchor="middle" x="908" y="-133.5" font-family="Helvetica,sans-Serif" font-size="10.00">ViennaRNA/zscore.h</text>
</a>
</g>
</g>
<!-- Node5&#45;&gt;Node18 -->
<g id="edge33" class="edge">
<title>Node5&#45;&gt;Node18</title>
<path fill="none" stroke="#63b8ff" d="M794.35,-186.62C816.39,-176.99 851.79,-161.54 877.23,-150.43"/>
<polygon fill="#63b8ff" stroke="#63b8ff" points="878.31,-153.78 886.07,-146.57 875.5,-147.37 878.31,-153.78"/>
</g>
<!-- Node7&#45;&gt;Node2 -->
<g id="edge8" class="edge">
<title>Node7&#45;&gt;Node2</title>
<path fill="none" stroke="#63b8ff" d="M1436.26,-145.95C1408.19,-161.08 1340.6,-191.49 1280,-206 1132,-241.44 953.37,-251.79 852.74,-254.79"/>
<polygon fill="#63b8ff" stroke="#63b8ff" points="852.87,-251.29 842.97,-255.06 853.07,-258.28 852.87,-251.29"/>
</g>
<!-- Node7&#45;&gt;Node3 -->
<g id="edge7" class="edge">
<title>Node7&#45;&gt;Node3</title>
<path fill="none" stroke="#63b8ff" d="M1459.43,-126.1C1471.18,-116.07 1490.54,-99.56 1504.99,-87.22"/>
<polygon fill="#63b8ff" stroke="#63b8ff" points="1507.17,-89.96 1512.51,-80.81 1502.63,-84.63 1507.17,-89.96"/>
</g>
<!-- Node7&#45;&gt;Node5 -->
<g id="edge9" class="edge">
<title>Node7&#45;&gt;Node5</title>
<path fill="none" stroke="#63b8ff" d="M1387.3,-145.97C1372.5,-147.75 1356.73,-149.52 1342,-151 1171.02,-168.12 970.08,-182.78 858.82,-190.24"/>
<polygon fill="#63b8ff" stroke="#63b8ff" points="858.61,-186.75 848.86,-190.91 859.07,-193.73 858.61,-186.75"/>
</g>
<!-- Node7&#45;&gt;Node6 -->
<g id="edge10" class="edge">
<title>Node7&#45;&gt;Node6</title>
<path fill="none" stroke="#63b8ff" d="M1435.51,-126.1C1419.8,-115.74 1393.6,-98.45 1374.73,-86"/>
<polygon fill="#63b8ff" stroke="#63b8ff" points="1376.91,-83.24 1366.64,-80.66 1373.06,-89.09 1376.91,-83.24"/>
</g>
<!-- Node8&#45;&gt;Node5 -->
<g id="edge12" class="edge">
<title>Node8&#45;&gt;Node5</title>
<path fill="none" stroke="#63b8ff" d="M778.96,-145.67C780.66,-153.54 781.15,-165.45 780.43,-175.66"/>
<polygon fill="#63b8ff" stroke="#63b8ff" points="776.99,-175 779.15,-185.37 783.93,-175.91 776.99,-175"/>
</g>
<!-- Node9&#45;&gt;Node2 -->
<g id="edge14" class="edge">
<title>Node9&#45;&gt;Node2</title>
<path fill="none" stroke="#63b8ff" d="M1224.44,-145.95C1147.87,-165.69 955.3,-213.23 848.36,-238.89"/>
<polygon fill="#63b8ff" stroke="#63b8ff" points="847.72,-235.44 838.81,-241.17 849.35,-242.25 847.72,-235.44"/>
</g>
<!-- Node9&#45;&gt;Node5 -->
<g id="edge15" class="edge">
<title>Node9&#45;&gt;Node5</title>
<path fill="none" stroke="#63b8ff" d="M1220.66,-146C1211.05,-147.79 1200.7,-149.57 1191,-151 1076.6,-167.89 943.28,-181.25 858.71,-188.77"/>
<polygon fill="#63b8ff" stroke="#63b8ff" points="858.52,-185.27 848.87,-189.63 859.14,-192.24 858.52,-185.27"/>
</g>
<!-- Node10&#45;&gt;Node5 -->
<g id="edge17" class="edge">
<title>Node10&#45;&gt;Node5</title>
<path fill="none" stroke="#63b8ff" d="M675.22,-151.44C698.46,-160.74 726.95,-172.74 747.43,-181.87"/>
<polygon fill="#63b8ff" stroke="#63b8ff" points="745.97,-185.05 756.52,-185.99 748.85,-178.68 745.97,-185.05"/>
</g>
<!-- Node11 -->
<g id="node11" class="node">
<title>Node11</title>
<g id="a_node11"><a xlink:href="constraints_2basic_8h.html" target="_top" xlink:title="Functions and data structures for constraining secondary structure predictions and evaluation.">
<polygon fill="white" stroke="#666666" points="694.5,-85 575.5,-85 575.5,-55 694.5,-55 694.5,-85"/>
<text text-anchor="start" x="583.5" y="-73" font-family="Helvetica,sans-Serif" font-size="10.00">ViennaRNA/constraints</text>
<text text-anchor="middle" x="635" y="-62" font-family="Helvetica,sans-Serif" font-size="10.00">/basic.h</text>
</a>
</g>
</g>
<!-- Node10&#45;&gt;Node11 -->
<g id="edge18" class="edge">
<title>Node10&#45;&gt;Node11</title>
<path fill="none" stroke="#63b8ff" d="M635,-120.8C635,-113.67 635,-104.82 635,-96.56"/>
<polygon fill="#63b8ff" stroke="#63b8ff" points="638.5,-96.68 635,-86.68 631.5,-96.68 638.5,-96.68"/>
</g>
<!-- Node11&#45;&gt;Node5 -->
<g id="edge19" class="edge">
<title>Node11&#45;&gt;Node5</title>
<path fill="none" stroke="#63b8ff" d="M694.93,-70.94C781.77,-72.27 936.05,-80.47 971,-121 1008.09,-164.02 927.62,-182.26 858.61,-189.96"/>
<polygon fill="#63b8ff" stroke="#63b8ff" points="858.3,-186.47 848.72,-190.99 859.03,-193.43 858.3,-186.47"/>
</g>
<!-- Node12&#45;&gt;Node2 -->
<g id="edge21" class="edge">
<title>Node12&#45;&gt;Node2</title>
<path fill="none" stroke="#63b8ff" d="M417.56,-151.46C495.78,-173.32 638.83,-214.7 717.9,-238.32"/>
<polygon fill="#63b8ff" stroke="#63b8ff" points="716.58,-241.58 727.16,-241.09 718.59,-234.87 716.58,-241.58"/>
</g>
<!-- Node12&#45;&gt;Node5 -->
<g id="edge22" class="edge">
<title>Node12&#45;&gt;Node5</title>
<path fill="none" stroke="#63b8ff" d="M422.74,-147.89C428.59,-149 434.41,-150.06 440,-151 524.71,-165.2 621.84,-177.42 689.49,-185.44"/>
<polygon fill="#63b8ff" stroke="#63b8ff" points="688.67,-188.87 699.01,-186.57 689.49,-181.92 688.67,-188.87"/>
</g>
<!-- Node12&#45;&gt;Node11 -->
<g id="edge23" class="edge">
<title>Node12&#45;&gt;Node11</title>
<path fill="none" stroke="#63b8ff" d="M422.69,-120.95C464.41,-111.14 520.29,-97.99 564.26,-87.65"/>
<polygon fill="#63b8ff" stroke="#63b8ff" points="565.04,-91.06 573.97,-85.36 563.44,-84.24 565.04,-91.06"/>
</g>
<!-- Node13&#45;&gt;Node5 -->
<g id="edge25" class="edge">
<title>Node13&#45;&gt;Node5</title>
<path fill="none" stroke="#63b8ff" d="M546.08,-145.95C596.34,-156.18 675.38,-172.97 725.99,-184.12"/>
<polygon fill="#63b8ff" stroke="#63b8ff" points="724.96,-187.48 735.48,-186.22 726.47,-180.64 724.96,-187.48"/>
</g>
<!-- Node15&#45;&gt;Node2 -->
<g id="edge28" class="edge">
<title>Node15&#45;&gt;Node2</title>
<path fill="none" stroke="#63b8ff" d="M285.95,-149.34C351.77,-163.2 457.74,-186.32 549,-206 600.37,-217.08 658.1,-229.42 702.28,-239.06"/>
<polygon fill="#63b8ff" stroke="#63b8ff" points="701.5,-242.48 712.02,-241.2 703,-235.64 701.5,-242.48"/>
</g>
<!-- Node15&#45;&gt;Node5 -->
<g id="edge29" class="edge">
<title>Node15&#45;&gt;Node5</title>
<path fill="none" stroke="#63b8ff" d="M285.74,-148.21C291.58,-149.23 297.4,-150.19 303,-151 437.71,-170.47 594.99,-183.16 689.49,-189.83"/>
<polygon fill="#63b8ff" stroke="#63b8ff" points="688.96,-193.3 699.18,-190.51 689.45,-186.32 688.96,-193.3"/>
</g>
<!-- Node15&#45;&gt;Node16 -->
<g id="edge30" class="edge">
<title>Node15&#45;&gt;Node16</title>
<path fill="none" stroke="#63b8ff" d="M195.4,-120.64C175.1,-110.08 147.65,-95.79 127.4,-85.26"/>
<polygon fill="#63b8ff" stroke="#63b8ff" points="129.1,-82.2 118.61,-80.68 125.87,-88.41 129.1,-82.2"/>
</g>
<!-- Node16&#45;&gt;Node2 -->
<g id="edge32" class="edge">
<title>Node16&#45;&gt;Node2</title>
<path fill="none" stroke="#63b8ff" d="M108.1,-79.92C118.04,-96.79 133.64,-133.24 160,-151 246.74,-209.44 549.99,-239.08 695.31,-250.4"/>
<polygon fill="#63b8ff" stroke="#63b8ff" points="695.01,-253.89 705.25,-251.16 695.55,-246.91 695.01,-253.89"/>
</g>
<!-- Node17 -->
<g id="node17" class="node">
<title>Node17</title>
<g id="a_node17"><a xlink:title=" ">
<polygon fill="#e0e0e0" stroke="#999999" points="123,-19 77,-19 77,0 123,0 123,-19"/>
<text text-anchor="middle" x="100" y="-7" font-family="Helvetica,sans-Serif" font-size="10.00">stdio.h</text>
</a>
</g>
</g>
<!-- Node16&#45;&gt;Node17 -->
<g id="edge31" class="edge">
<title>Node16&#45;&gt;Node17</title>
<path fill="none" stroke="#63b8ff" d="M100,-60.37C100,-52.5 100,-40.6 100,-30.39"/>
<polygon fill="#63b8ff" stroke="#63b8ff" points="103.5,-30.68 100,-20.68 96.5,-30.68 103.5,-30.68"/>
</g>
<!-- Node19&#45;&gt;Node2 -->
<g id="edge47" class="edge">
<title>Node19&#45;&gt;Node2</title>
<path fill="none" stroke="#63b8ff" d="M704.26,-313.1C715.28,-304.4 732.47,-290.81 747.03,-279.31"/>
<polygon fill="#63b8ff" stroke="#63b8ff" points="748.81,-282.36 754.49,-273.42 744.47,-276.87 748.81,-282.36"/>
</g>
<!-- Node19&#45;&gt;Node5 -->
<g id="edge48" class="edge">
<title>Node19&#45;&gt;Node5</title>
<path fill="none" stroke="#63b8ff" d="M691.06,-313.28C688.1,-297.68 684.14,-264.52 698,-242 706.58,-228.06 721.27,-218 735.46,-211.01"/>
<polygon fill="#63b8ff" stroke="#63b8ff" points="736.54,-214.36 744.23,-207.07 733.67,-207.98 736.54,-214.36"/>
</g>
<!-- Node19&#45;&gt;Node16 -->
<g id="edge49" class="edge">
<title>Node19&#45;&gt;Node16</title>
<path fill="none" stroke="#63b8ff" d="M635.67,-321.79C487.46,-320.65 100.5,-313.67 62,-272 16.46,-222.71 40.57,-184.6 62,-121 66.13,-108.73 74.61,-97.08 82.51,-88.12"/>
<polygon fill="#63b8ff" stroke="#63b8ff" points="84.97,-90.62 89.29,-80.95 79.88,-85.81 84.97,-90.62"/>
</g>
<!-- Node20&#45;&gt;Node2 -->
<g id="edge51" class="edge">
<title>Node20&#45;&gt;Node2</title>
<path fill="none" stroke="#63b8ff" d="M844.8,-307.8C832.75,-299.32 817.23,-288.4 803.79,-278.95"/>
<polygon fill="#63b8ff" stroke="#63b8ff" points="805.89,-276.15 795.69,-273.26 801.86,-281.87 805.89,-276.15"/>
</g>
<!-- Node20&#45;&gt;Node5 -->
<g id="edge52" class="edge">
<title>Node20&#45;&gt;Node5</title>
<path fill="none" stroke="#63b8ff" d="M865.74,-307.63C865.9,-290.48 863.83,-261.65 850,-242 840.37,-228.32 825.08,-218.2 810.74,-211.1"/>
<polygon fill="#63b8ff" stroke="#63b8ff" points="812.48,-208.05 801.93,-207.08 809.58,-214.42 812.48,-208.05"/>
</g>
<!-- Node20&#45;&gt;Node7 -->
<g id="edge54" class="edge">
<title>Node20&#45;&gt;Node7</title>
<path fill="none" stroke="#63b8ff" d="M924.47,-312.03C1013.47,-295.99 1185.62,-260.62 1324,-206 1361.52,-191.19 1401.86,-167.32 1426.26,-151.9"/>
<polygon fill="#63b8ff" stroke="#63b8ff" points="1427.89,-155.02 1434.42,-146.68 1424.11,-149.12 1427.89,-155.02"/>
</g>
<!-- Node20&#45;&gt;Node16 -->
<g id="edge53" class="edge">
<title>Node20&#45;&gt;Node16</title>
<path fill="none" stroke="#63b8ff" d="M805.71,-312.61C672.26,-291.18 351.77,-238.08 247,-206 188.18,-187.99 159.79,-197.9 120,-151 105.77,-134.22 101.41,-108.75 100.21,-91.08"/>
<polygon fill="#63b8ff" stroke="#63b8ff" points="103.72,-91.2 99.85,-81.33 96.72,-91.46 103.72,-91.2"/>
</g>
<!-- Node21&#45;&gt;Node5 -->
<g id="edge56" class="edge">
<title>Node21&#45;&gt;Node5</title>
<path fill="none" stroke="#63b8ff" d="M1304.64,-250.2C1199.92,-239.8 979.73,-217.93 858.5,-205.89"/>
<polygon fill="#63b8ff" stroke="#63b8ff" points="858.88,-202.41 848.59,-204.91 858.19,-209.38 858.88,-202.41"/>
</g>
</g>
</svg>
        <g id="navigator" transform="translate(0 0)" fill="#404254">
                <rect fill="#f2f5e9" fill-opacity="0.5" stroke="#606060" stroke-width=".5" x="0" y="0" width="60" height="60"/>
                <use id="zoomplus" xlink:href="#zoomPlus" x="17" y="9" onmousedown="handleZoom(evt,'in')"/>
                <use id="zoomminus" xlink:href="#zoomMin" x="42" y="9" onmousedown="handleZoom(evt,'out')"/>
                <use id="reset" xlink:href="#resetDef" x="30" y="36" onmousedown="handleReset()"/>
                <g id="arrowUp" xlink:href="#dirArrow" transform="translate(30 24)" onmousedown="handlePan(0,-1)">
                  <use xlink:href="#rim" fill="#404040">
                        <set attributeName="fill" to="#808080" begin="arrowUp.mouseover" end="arrowUp.mouseout"/>
                  </use>
                  <path fill="none" stroke="white" stroke-width="1.5" d="M0,-3.0v7 M-2.5,-0.5L0,-3.0L2.5,-0.5"/>
                </g>
                <g id="arrowRight" xlink:href="#dirArrow" transform="rotate(90) translate(36 -43)" onmousedown="handlePan(1,0)">
                  <use xlink:href="#rim" fill="#404040">
                        <set attributeName="fill" to="#808080" begin="arrowRight.mouseover" end="arrowRight.mouseout"/>
                  </use>
                  <path fill="none" stroke="white" stroke-width="1.5" d="M0,-3.0v7 M-2.5,-0.5L0,-3.0L2.5,-0.5"/>
                </g>
                <g id="arrowDown" xlink:href="#dirArrow" transform="rotate(180) translate(-30 -48)" onmousedown="handlePan(0,1)">
                  <use xlink:href="#rim" fill="#404040">
                        <set attributeName="fill" to="#808080" begin="arrowDown.mouseover" end="arrowDown.mouseout"/>
                  </use>
                  <path fill="none" stroke="white" stroke-width="1.5" d="M0,-3.0v7 M-2.5,-0.5L0,-3.0L2.5,-0.5"/>
                </g>
                <g id="arrowLeft" xlink:href="#dirArrow" transform="rotate(270) translate(-36 17)" onmousedown="handlePan(-1,0)">
                  <use xlink:href="#rim" fill="#404040">
                        <set attributeName="fill" to="#808080" begin="arrowLeft.mouseover" end="arrowLeft.mouseout"/>
                  </use>
                  <path fill="none" stroke="white" stroke-width="1.5" d="M0,-3.0v7 M-2.5,-0.5L0,-3.0L2.5,-0.5"/>
                </g>
        </g>
        <svg viewBox="0 0 15 15" width="100%" height="30px" preserveAspectRatio="xMaxYMin meet">
         <g id="arrow_out" transform="scale(0.3 0.3)">
          <a xlink:href="part__func_8h__incl_org.svg" target="_base">
           <rect id="button" ry="5" rx="5" y="6" x="6" height="38" width="38"
                fill="#f2f5e9" fill-opacity="0.5" stroke="#606060" stroke-width="1.0"/>
           <path id="arrow"
             d="M 11.500037,31.436501 C 11.940474,20.09759 22.043105,11.32322 32.158766,21.979434 L 37.068811,17.246167 C 37.068811,17.246167 37.088388,32 37.088388,32 L 22.160133,31.978069 C 22.160133,31.978069 26.997745,27.140456 26.997745,27.140456 C 18.528582,18.264221 13.291696,25.230495 11.500037,31.436501 z"
             style="fill:#404040;"/>
          </a>
         </g>
        </svg>
</svg>
