<?xml version="1.0" encoding="UTF-8" standalone="no"?>
<!DOCTYPE svg PUBLIC "-//W3C//DTD SVG 1.1//EN"
 "http://www.w3.org/Graphics/SVG/1.1/DTD/svg11.dtd">
<!-- Generated by graphviz version 7.1.0 (0)
 -->
<!-- Title: ViennaRNA/part_func_co.h Pages: 1 -->
<svg width="1649pt" height="456pt"
 viewBox="0.00 0.00 1649.00 456.00" xmlns="http://www.w3.org/2000/svg" xmlns:xlink="http://www.w3.org/1999/xlink">
<g id="graph0" class="graph" transform="scale(1 1) rotate(0) translate(4 452)">
<title>ViennaRNA/part_func_co.h</title>
<!-- Node1 -->
<g id="node1" class="node">
<title>Node1</title>
<g id="a_node1"><a xlink:title="Partition function for two RNA sequences.">
<polygon fill="#999999" stroke="#666666" points="708,-448 572,-448 572,-429 708,-429 708,-448"/>
<text text-anchor="middle" x="640" y="-436" font-family="Helvetica,sans-Serif" font-size="10.00">ViennaRNA/part_func_co.h</text>
</a>
</g>
</g>
<!-- Node2 -->
<g id="node2" class="node">
<title>Node2</title>
<g id="a_node2"><a xlink:href="datastructures_2basic_8h.html" target="_top" xlink:title="Various data structures and pre&#45;processor macros.">
<polygon fill="white" stroke="#666666" points="683,-272 549,-272 549,-242 683,-242 683,-272"/>
<text text-anchor="start" x="557" y="-260" font-family="Helvetica,sans-Serif" font-size="10.00">ViennaRNA/datastructures</text>
<text text-anchor="middle" x="616" y="-249" font-family="Helvetica,sans-Serif" font-size="10.00">/basic.h</text>
</a>
</g>
</g>
<!-- Node1&#45;&gt;Node2 -->
<g id="edge1" class="edge">
<title>Node1&#45;&gt;Node2</title>
<path fill="none" stroke="#63b8ff" d="M637.09,-428.58C631.63,-411.32 620.05,-372.06 616,-338 613.85,-319.93 613.9,-299.41 614.46,-283.68"/>
<polygon fill="#63b8ff" stroke="#63b8ff" points="617.96,-283.88 614.92,-273.73 610.96,-283.56 617.96,-283.88"/>
</g>
<!-- Node7 -->
<g id="node7" class="node">
<title>Node7</title>
<g id="a_node7"><a xlink:href="params_2basic_8h.html" target="_top" xlink:title="Functions to deal with sets of energy parameters.">
<polygon fill="white" stroke="#666666" points="223,-145.5 85,-145.5 85,-126.5 223,-126.5 223,-145.5"/>
<text text-anchor="middle" x="154" y="-133.5" font-family="Helvetica,sans-Serif" font-size="10.00">ViennaRNA/params/basic.h</text>
</a>
</g>
</g>
<!-- Node1&#45;&gt;Node7 -->
<g id="edge43" class="edge">
<title>Node1&#45;&gt;Node7</title>
<path fill="none" stroke="#63b8ff" d="M571.53,-437.44C425.15,-435.45 95,-420.29 95,-324 95,-324 95,-324 95,-256 95,-216.61 121.27,-176.8 138.76,-154.67"/>
<polygon fill="#63b8ff" stroke="#63b8ff" points="141.43,-156.93 145.08,-146.98 136.03,-152.48 141.43,-156.93"/>
</g>
<!-- Node16 -->
<g id="node16" class="node">
<title>Node16</title>
<g id="a_node16"><a xlink:href="utils_2structures_8h.html" target="_top" xlink:title="Various utility&#45; and helper&#45;functions for secondary structure parsing, converting,...">
<polygon fill="white" stroke="#666666" points="1599,-79.5 1455,-79.5 1455,-60.5 1599,-60.5 1599,-79.5"/>
<text text-anchor="middle" x="1527" y="-67.5" font-family="Helvetica,sans-Serif" font-size="10.00">ViennaRNA/utils/structures.h</text>
</a>
</g>
</g>
<!-- Node1&#45;&gt;Node16 -->
<g id="edge63" class="edge">
<title>Node1&#45;&gt;Node16</title>
<path fill="none" stroke="#63b8ff" d="M708.41,-436.94C934.14,-434.19 1641,-418.06 1641,-324 1641,-324 1641,-324 1641,-195.5 1641,-144.51 1588.33,-105.32 1554.6,-85.44"/>
<polygon fill="#63b8ff" stroke="#63b8ff" points="1556.56,-82.53 1546.13,-80.65 1553.11,-88.62 1556.56,-82.53"/>
</g>
<!-- Node19 -->
<g id="node19" class="node">
<title>Node19</title>
<g id="a_node19"><a xlink:href="part__func_8h.html" target="_top" xlink:title="Partition function implementations.">
<polygon fill="white" stroke="#666666" points="819,-393 699,-393 699,-374 819,-374 819,-393"/>
<text text-anchor="middle" x="759" y="-381" font-family="Helvetica,sans-Serif" font-size="10.00">ViennaRNA/part_func.h</text>
</a>
</g>
</g>
<!-- Node1&#45;&gt;Node19 -->
<g id="edge44" class="edge">
<title>Node1&#45;&gt;Node19</title>
<path fill="none" stroke="#63b8ff" d="M660.19,-428.51C679.02,-420.12 707.37,-407.5 728.87,-397.92"/>
<polygon fill="#63b8ff" stroke="#63b8ff" points="730.02,-401.24 737.73,-393.97 727.17,-394.85 730.02,-401.24"/>
</g>
<!-- Node21 -->
<g id="node21" class="node">
<title>Node21</title>
<g id="a_node21"><a xlink:href="equilibrium__probs_8h.html" target="_top" xlink:title="Equilibrium Probability implementations.">
<polygon fill="white" stroke="#666666" points="762,-338 644,-338 644,-308 762,-308 762,-338"/>
<text text-anchor="start" x="652" y="-326" font-family="Helvetica,sans-Serif" font-size="10.00">ViennaRNA/equilibrium</text>
<text text-anchor="middle" x="703" y="-315" font-family="Helvetica,sans-Serif" font-size="10.00">_probs.h</text>
</a>
</g>
</g>
<!-- Node1&#45;&gt;Node21 -->
<g id="edge60" class="edge">
<title>Node1&#45;&gt;Node21</title>
<path fill="none" stroke="#63b8ff" d="M644.94,-428.59C654.44,-411.49 675.51,-373.52 689.49,-348.35"/>
<polygon fill="#63b8ff" stroke="#63b8ff" points="692.46,-350.21 694.25,-339.76 686.34,-346.81 692.46,-350.21"/>
</g>
<!-- Node23 -->
<g id="node23" class="node">
<title>Node23</title>
<g id="a_node23"><a xlink:href="concentrations_8h.html" target="_top" xlink:title="Concentration computations for RNA&#45;RNA interactions.">
<polygon fill="white" stroke="#666666" points="266.5,-266.5 123.5,-266.5 123.5,-247.5 266.5,-247.5 266.5,-266.5"/>
<text text-anchor="middle" x="195" y="-254.5" font-family="Helvetica,sans-Serif" font-size="10.00">ViennaRNA/concentrations.h</text>
</a>
</g>
</g>
<!-- Node1&#45;&gt;Node23 -->
<g id="edge61" class="edge">
<title>Node1&#45;&gt;Node23</title>
<path fill="none" stroke="#63b8ff" d="M571.81,-428.52C496.73,-416.44 374.29,-390.16 281,-338 251.9,-321.73 224.89,-293.61 209.17,-275.41"/>
<polygon fill="#63b8ff" stroke="#63b8ff" points="212.12,-273.48 203,-268.08 206.76,-277.98 212.12,-273.48"/>
</g>
<!-- Node3 -->
<g id="node3" class="node">
<title>Node3</title>
<g id="a_node3"><a xlink:href="constants_8h.html" target="_top" xlink:title="Energy parameter constants.">
<polygon fill="white" stroke="#666666" points="158,-79.5 0,-79.5 0,-60.5 158,-60.5 158,-79.5"/>
<text text-anchor="middle" x="79" y="-67.5" font-family="Helvetica,sans-Serif" font-size="10.00">ViennaRNA/params/constants.h</text>
</a>
</g>
</g>
<!-- Node2&#45;&gt;Node3 -->
<g id="edge2" class="edge">
<title>Node2&#45;&gt;Node3</title>
<path fill="none" stroke="#63b8ff" d="M548.65,-253.25C417.35,-246.32 134.83,-223.18 76,-151 62.37,-134.28 66.37,-108.43 71.63,-90.67"/>
<polygon fill="#63b8ff" stroke="#63b8ff" points="74.91,-91.9 74.79,-81.31 68.28,-89.66 74.91,-91.9"/>
</g>
<!-- Node5 -->
<g id="node5" class="node">
<title>Node5</title>
<g id="a_node5"><a xlink:href="fold__compound_8h.html" target="_top" xlink:title="The Basic Fold Compound API.">
<polygon fill="white" stroke="#666666" points="863,-206 717,-206 717,-187 863,-187 863,-206"/>
<text text-anchor="middle" x="790" y="-194" font-family="Helvetica,sans-Serif" font-size="10.00">ViennaRNA/fold_compound.h</text>
</a>
</g>
</g>
<!-- Node2&#45;&gt;Node5 -->
<g id="edge4" class="edge">
<title>Node2&#45;&gt;Node5</title>
<path fill="none" stroke="#63b8ff" d="M659.01,-241.54C687.76,-231.87 725.2,-219.29 752.69,-210.04"/>
<polygon fill="#63b8ff" stroke="#63b8ff" points="753.63,-213.42 762,-206.91 751.4,-206.78 753.63,-213.42"/>
</g>
<!-- Node6 -->
<g id="node6" class="node">
<title>Node6</title>
<g id="a_node6"><a xlink:href="model_8h.html" target="_top" xlink:title="The model details data structure and its corresponding modifiers.">
<polygon fill="white" stroke="#666666" points="304,-79.5 198,-79.5 198,-60.5 304,-60.5 304,-79.5"/>
<text text-anchor="middle" x="251" y="-67.5" font-family="Helvetica,sans-Serif" font-size="10.00">ViennaRNA/model.h</text>
</a>
</g>
</g>
<!-- Node2&#45;&gt;Node6 -->
<g id="edge34" class="edge">
<title>Node2&#45;&gt;Node6</title>
<path fill="none" stroke="#63b8ff" d="M567.19,-241.52C535.16,-231.86 492.43,-218.64 455,-206 431.69,-198.13 426.45,-194.47 403,-187 345.06,-168.55 313.54,-194.45 271,-151 255.53,-135.19 251.45,-109.33 250.64,-91.3"/>
<polygon fill="#63b8ff" stroke="#63b8ff" points="254.14,-91.29 250.54,-81.33 247.14,-91.37 254.14,-91.29"/>
</g>
<!-- Node2&#45;&gt;Node7 -->
<g id="edge35" class="edge">
<title>Node2&#45;&gt;Node7</title>
<path fill="none" stroke="#63b8ff" d="M548.71,-241.95C506.8,-232.24 452.04,-218.83 404,-206 374.51,-198.13 367.44,-195.05 338,-187 288.38,-173.43 231.32,-158.77 193.95,-148.85"/>
<polygon fill="#63b8ff" stroke="#63b8ff" points="195.04,-145.52 184.48,-146.32 193.24,-152.28 195.04,-145.52"/>
</g>
<!-- Node9 -->
<g id="node9" class="node">
<title>Node9</title>
<g id="a_node9"><a xlink:href="dp__matrices_8h.html" target="_top" xlink:title="Functions to deal with standard dynamic programming (DP) matrices.">
<polygon fill="white" stroke="#666666" points="682.5,-145.5 549.5,-145.5 549.5,-126.5 682.5,-126.5 682.5,-145.5"/>
<text text-anchor="middle" x="616" y="-133.5" font-family="Helvetica,sans-Serif" font-size="10.00">ViennaRNA/dp_matrices.h</text>
</a>
</g>
</g>
<!-- Node2&#45;&gt;Node9 -->
<g id="edge36" class="edge">
<title>Node2&#45;&gt;Node9</title>
<path fill="none" stroke="#63b8ff" d="M611.45,-241.88C608.75,-220.8 608.54,-181 610.81,-156.95"/>
<polygon fill="#63b8ff" stroke="#63b8ff" points="614.25,-157.58 612.07,-147.21 607.31,-156.68 614.25,-157.58"/>
</g>
<!-- Node10 -->
<g id="node10" class="node">
<title>Node10</title>
<g id="a_node10"><a xlink:href="hard_8h.html" target="_top" xlink:title="Functions and data structures for handling of secondary structure hard constraints.">
<polygon fill="white" stroke="#666666" points="1299.5,-151 1180.5,-151 1180.5,-121 1299.5,-121 1299.5,-151"/>
<text text-anchor="start" x="1188.5" y="-139" font-family="Helvetica,sans-Serif" font-size="10.00">ViennaRNA/constraints</text>
<text text-anchor="middle" x="1240" y="-128" font-family="Helvetica,sans-Serif" font-size="10.00">/hard.h</text>
</a>
</g>
</g>
<!-- Node2&#45;&gt;Node10 -->
<g id="edge37" class="edge">
<title>Node2&#45;&gt;Node10</title>
<path fill="none" stroke="#63b8ff" d="M683.12,-243.6C785.44,-224.63 986.87,-187.02 1169.03,-151.37"/>
<polygon fill="#63b8ff" stroke="#63b8ff" points="1169.54,-154.84 1178.69,-149.48 1168.2,-147.97 1169.54,-154.84"/>
</g>
<!-- Node12 -->
<g id="node12" class="node">
<title>Node12</title>
<g id="a_node12"><a xlink:href="soft_8h.html" target="_top" xlink:title="Functions and data structures for secondary structure soft constraints.">
<polygon fill="white" stroke="#666666" points="531.5,-151 412.5,-151 412.5,-121 531.5,-121 531.5,-151"/>
<text text-anchor="start" x="420.5" y="-139" font-family="Helvetica,sans-Serif" font-size="10.00">ViennaRNA/constraints</text>
<text text-anchor="middle" x="472" y="-128" font-family="Helvetica,sans-Serif" font-size="10.00">/soft.h</text>
</a>
</g>
</g>
<!-- Node2&#45;&gt;Node12 -->
<g id="edge38" class="edge">
<title>Node2&#45;&gt;Node12</title>
<path fill="none" stroke="#63b8ff" d="M594.05,-241.65C566.59,-221.1 520.37,-183.12 493.25,-159.01"/>
<polygon fill="#63b8ff" stroke="#63b8ff" points="495.73,-156.53 485.96,-152.42 491.03,-161.72 495.73,-156.53"/>
</g>
<!-- Node13 -->
<g id="node13" class="node">
<title>Node13</title>
<g id="a_node13"><a xlink:href="grammar_8h.html" target="_top" xlink:title="Implementations for the RNA folding grammar.">
<polygon fill="white" stroke="#666666" points="817.5,-145.5 700.5,-145.5 700.5,-126.5 817.5,-126.5 817.5,-145.5"/>
<text text-anchor="middle" x="759" y="-133.5" font-family="Helvetica,sans-Serif" font-size="10.00">ViennaRNA/grammar.h</text>
</a>
</g>
</g>
<!-- Node2&#45;&gt;Node13 -->
<g id="edge39" class="edge">
<title>Node2&#45;&gt;Node13</title>
<path fill="none" stroke="#63b8ff" d="M633.25,-241.65C660.08,-219.32 711.63,-176.42 739.68,-153.08"/>
<polygon fill="#63b8ff" stroke="#63b8ff" points="741.6,-156.03 747.05,-146.94 737.13,-150.65 741.6,-156.03"/>
</g>
<!-- Node14 -->
<g id="node14" class="node">
<title>Node14</title>
<g id="a_node14"><a xlink:href="structured__domains_8h.html" target="_top" xlink:title="This module provides interfaces that deal with additional structured domains in the folding grammar.">
<polygon fill="white" stroke="#666666" points="394.5,-151 279.5,-151 279.5,-121 394.5,-121 394.5,-151"/>
<text text-anchor="start" x="287.5" y="-139" font-family="Helvetica,sans-Serif" font-size="10.00">ViennaRNA/structured</text>
<text text-anchor="middle" x="337" y="-128" font-family="Helvetica,sans-Serif" font-size="10.00">_domains.h</text>
</a>
</g>
</g>
<!-- Node2&#45;&gt;Node14 -->
<g id="edge40" class="edge">
<title>Node2&#45;&gt;Node14</title>
<path fill="none" stroke="#63b8ff" d="M582.07,-241.53C531.59,-220 436.7,-179.52 380.96,-155.75"/>
<polygon fill="#63b8ff" stroke="#63b8ff" points="382.66,-152.67 372.09,-151.97 379.91,-159.11 382.66,-152.67"/>
</g>
<!-- Node15 -->
<g id="node15" class="node">
<title>Node15</title>
<g id="a_node15"><a xlink:href="unstructured__domains_8h.html" target="_top" xlink:title="Functions to modify unstructured domains, e.g. to incorporate ligands binding to unpaired stretches.">
<polygon fill="white" stroke="#666666" points="1442.5,-151 1317.5,-151 1317.5,-121 1442.5,-121 1442.5,-151"/>
<text text-anchor="start" x="1325.5" y="-139" font-family="Helvetica,sans-Serif" font-size="10.00">ViennaRNA/unstructured</text>
<text text-anchor="middle" x="1380" y="-128" font-family="Helvetica,sans-Serif" font-size="10.00">_domains.h</text>
</a>
</g>
</g>
<!-- Node2&#45;&gt;Node15 -->
<g id="edge41" class="edge">
<title>Node2&#45;&gt;Node15</title>
<path fill="none" stroke="#63b8ff" d="M683.09,-246.12C805.83,-228.67 1074.35,-190.47 1300,-151 1302,-150.65 1304.03,-150.29 1306.09,-149.92"/>
<polygon fill="#63b8ff" stroke="#63b8ff" points="1306.52,-153.4 1315.72,-148.14 1305.25,-146.51 1306.52,-153.4"/>
</g>
<!-- Node2&#45;&gt;Node16 -->
<g id="edge42" class="edge">
<title>Node2&#45;&gt;Node16</title>
<path fill="none" stroke="#63b8ff" d="M683.34,-253.29C856.05,-245.6 1310.08,-219.58 1443,-151 1470.95,-136.58 1494.06,-107.46 1509.36,-88.61"/>
<polygon fill="#63b8ff" stroke="#63b8ff" points="1511.98,-90.93 1515.66,-80.99 1506.59,-86.46 1511.98,-90.93"/>
</g>
<!-- Node4 -->
<g id="node4" class="node">
<title>Node4</title>
<g id="a_node4"><a xlink:title=" ">
<polygon fill="#e0e0e0" stroke="#999999" points="103,-19 55,-19 55,0 103,0 103,-19"/>
<text text-anchor="middle" x="79" y="-7" font-family="Helvetica,sans-Serif" font-size="10.00">limits.h</text>
</a>
</g>
</g>
<!-- Node3&#45;&gt;Node4 -->
<g id="edge3" class="edge">
<title>Node3&#45;&gt;Node4</title>
<path fill="none" stroke="#63b8ff" d="M79,-60.37C79,-52.5 79,-40.6 79,-30.39"/>
<polygon fill="#63b8ff" stroke="#63b8ff" points="82.5,-30.68 79,-20.68 75.5,-30.68 82.5,-30.68"/>
</g>
<!-- Node5&#45;&gt;Node6 -->
<g id="edge5" class="edge">
<title>Node5&#45;&gt;Node6</title>
<path fill="none" stroke="#63b8ff" d="M800.59,-186.52C817.1,-171.48 845.25,-140.9 827,-121 792.98,-83.9 458.71,-74.24 315.54,-71.8"/>
<polygon fill="#63b8ff" stroke="#63b8ff" points="315.91,-68.31 305.85,-71.64 315.79,-75.3 315.91,-68.31"/>
</g>
<!-- Node5&#45;&gt;Node7 -->
<g id="edge6" class="edge">
<title>Node5&#45;&gt;Node7</title>
<path fill="none" stroke="#63b8ff" d="M716.88,-190.46C614.73,-182.87 423.93,-167.63 262,-151 251.01,-149.87 239.45,-148.6 228.14,-147.29"/>
<polygon fill="#63b8ff" stroke="#63b8ff" points="228.78,-143.84 218.44,-146.15 227.96,-150.79 228.78,-143.84"/>
</g>
<!-- Node8 -->
<g id="node8" class="node">
<title>Node8</title>
<g id="a_node8"><a xlink:href="sequence_8h.html" target="_top" xlink:title="Functions and data structures related to sequence representations ,.">
<polygon fill="white" stroke="#666666" points="1162,-145.5 1040,-145.5 1040,-126.5 1162,-126.5 1162,-145.5"/>
<text text-anchor="middle" x="1101" y="-133.5" font-family="Helvetica,sans-Serif" font-size="10.00">ViennaRNA/sequence.h</text>
</a>
</g>
</g>
<!-- Node5&#45;&gt;Node8 -->
<g id="edge11" class="edge">
<title>Node5&#45;&gt;Node8</title>
<path fill="none" stroke="#63b8ff" d="M833.01,-186.51C879.66,-177.67 955.98,-163.7 1022,-151 1026.78,-150.08 1031.75,-149.11 1036.76,-148.13"/>
<polygon fill="#63b8ff" stroke="#63b8ff" points="1037.12,-151.63 1046.27,-146.28 1035.78,-144.76 1037.12,-151.63"/>
</g>
<!-- Node5&#45;&gt;Node9 -->
<g id="edge13" class="edge">
<title>Node5&#45;&gt;Node9</title>
<path fill="none" stroke="#63b8ff" d="M758.56,-186.62C727.24,-176.78 679.62,-160.84 648.08,-149.69"/>
<polygon fill="#63b8ff" stroke="#63b8ff" points="649.67,-146.55 639.07,-146.48 647.31,-153.14 649.67,-146.55"/>
</g>
<!-- Node5&#45;&gt;Node10 -->
<g id="edge16" class="edge">
<title>Node5&#45;&gt;Node10</title>
<path fill="none" stroke="#63b8ff" d="M863.26,-188.11C938.46,-180.52 1058.59,-167.5 1162,-151 1164.31,-150.63 1166.66,-150.24 1169.04,-149.83"/>
<polygon fill="#63b8ff" stroke="#63b8ff" points="1169.57,-153.29 1178.79,-148.07 1168.33,-146.4 1169.57,-153.29"/>
</g>
<!-- Node5&#45;&gt;Node12 -->
<g id="edge20" class="edge">
<title>Node5&#45;&gt;Node12</title>
<path fill="none" stroke="#63b8ff" d="M730.8,-186.52C681.25,-178.27 608.62,-165.49 543.6,-153.2"/>
<polygon fill="#63b8ff" stroke="#63b8ff" points="544.36,-149.78 533.88,-151.36 543.06,-156.66 544.36,-149.78"/>
</g>
<!-- Node5&#45;&gt;Node13 -->
<g id="edge24" class="edge">
<title>Node5&#45;&gt;Node13</title>
<path fill="none" stroke="#63b8ff" d="M780.47,-186.87C774.48,-178.83 767.5,-166.57 762.8,-156.22"/>
<polygon fill="#63b8ff" stroke="#63b8ff" points="766.12,-155.09 759.19,-147.07 759.61,-157.66 766.12,-155.09"/>
</g>
<!-- Node5&#45;&gt;Node14 -->
<g id="edge26" class="edge">
<title>Node5&#45;&gt;Node14</title>
<path fill="none" stroke="#63b8ff" d="M716.8,-189.07C641.4,-181.99 520.24,-169.35 405.74,-151.18"/>
<polygon fill="#63b8ff" stroke="#63b8ff" points="406.6,-147.77 396.18,-149.64 405.49,-154.68 406.6,-147.77"/>
</g>
<!-- Node5&#45;&gt;Node15 -->
<g id="edge27" class="edge">
<title>Node5&#45;&gt;Node15</title>
<path fill="none" stroke="#63b8ff" d="M863.22,-191.39C962.53,-185.49 1145.08,-172.85 1300,-151 1302.01,-150.72 1304.05,-150.41 1306.11,-150.09"/>
<polygon fill="#63b8ff" stroke="#63b8ff" points="1306.48,-153.58 1315.78,-148.49 1305.34,-146.67 1306.48,-153.58"/>
</g>
<!-- Node18 -->
<g id="node18" class="node">
<title>Node18</title>
<g id="a_node18"><a xlink:href="zscore_8h_source.html" target="_top" xlink:title=" ">
<polygon fill="white" stroke="#666666" points="1021.5,-145.5 912.5,-145.5 912.5,-126.5 1021.5,-126.5 1021.5,-145.5"/>
<text text-anchor="middle" x="967" y="-133.5" font-family="Helvetica,sans-Serif" font-size="10.00">ViennaRNA/zscore.h</text>
</a>
</g>
</g>
<!-- Node5&#45;&gt;Node18 -->
<g id="edge33" class="edge">
<title>Node5&#45;&gt;Node18</title>
<path fill="none" stroke="#63b8ff" d="M816.88,-186.62C846.77,-176.74 895.28,-160.71 929.03,-149.55"/>
<polygon fill="#63b8ff" stroke="#63b8ff" points="930.03,-152.9 938.43,-146.44 927.83,-146.26 930.03,-152.9"/>
</g>
<!-- Node7&#45;&gt;Node2 -->
<g id="edge8" class="edge">
<title>Node7&#45;&gt;Node2</title>
<path fill="none" stroke="#63b8ff" d="M196.28,-145.93C237.44,-155.72 301.24,-172.03 356,-187 385.44,-195.05 392.51,-198.13 422,-206 465.09,-217.5 513.58,-229.48 551.37,-238.83"/>
<polygon fill="#63b8ff" stroke="#63b8ff" points="550.21,-242.15 560.76,-241.16 551.89,-235.36 550.21,-242.15"/>
</g>
<!-- Node7&#45;&gt;Node3 -->
<g id="edge7" class="edge">
<title>Node7&#45;&gt;Node3</title>
<path fill="none" stroke="#63b8ff" d="M143.57,-126.1C131.82,-116.07 112.46,-99.56 98.01,-87.22"/>
<polygon fill="#63b8ff" stroke="#63b8ff" points="100.37,-84.63 90.49,-80.81 95.83,-89.96 100.37,-84.63"/>
</g>
<!-- Node7&#45;&gt;Node5 -->
<g id="edge9" class="edge">
<title>Node7&#45;&gt;Node5</title>
<path fill="none" stroke="#63b8ff" d="M223.29,-144.65C241.79,-146.83 261.68,-149.12 280,-151 429.64,-166.36 603.94,-180.55 705.2,-188.6"/>
<polygon fill="#63b8ff" stroke="#63b8ff" points="704.83,-192.08 715.07,-189.39 705.38,-185.1 704.83,-192.08"/>
</g>
<!-- Node7&#45;&gt;Node6 -->
<g id="edge10" class="edge">
<title>Node7&#45;&gt;Node6</title>
<path fill="none" stroke="#63b8ff" d="M167.49,-126.1C183.2,-115.74 209.4,-98.45 228.27,-86"/>
<polygon fill="#63b8ff" stroke="#63b8ff" points="229.94,-89.09 236.36,-80.66 226.09,-83.24 229.94,-89.09"/>
</g>
<!-- Node8&#45;&gt;Node5 -->
<g id="edge12" class="edge">
<title>Node8&#45;&gt;Node5</title>
<path fill="none" stroke="#63b8ff" d="M1065.41,-145.99C1057.09,-147.67 1048.28,-149.41 1040,-151 978.63,-162.8 908.34,-175.71 857.87,-184.57"/>
<polygon fill="#63b8ff" stroke="#63b8ff" points="857.51,-181.08 848.26,-186.25 858.72,-187.98 857.51,-181.08"/>
</g>
<!-- Node9&#45;&gt;Node2 -->
<g id="edge14" class="edge">
<title>Node9&#45;&gt;Node2</title>
<path fill="none" stroke="#63b8ff" d="M619.73,-145.71C622.96,-163.38 623.6,-204.02 621.64,-230.73"/>
<polygon fill="#63b8ff" stroke="#63b8ff" points="618.18,-230.08 620.7,-240.38 625.15,-230.76 618.18,-230.08"/>
</g>
<!-- Node9&#45;&gt;Node5 -->
<g id="edge15" class="edge">
<title>Node9&#45;&gt;Node5</title>
<path fill="none" stroke="#63b8ff" d="M647.7,-145.97C678.98,-155.8 726.32,-171.64 757.77,-182.75"/>
<polygon fill="#63b8ff" stroke="#63b8ff" points="756.56,-186.04 767.16,-186.11 758.92,-179.45 756.56,-186.04"/>
</g>
<!-- Node10&#45;&gt;Node5 -->
<g id="edge17" class="edge">
<title>Node10&#45;&gt;Node5</title>
<path fill="none" stroke="#63b8ff" d="M1179.68,-151.05C1075.23,-167.7 953.8,-180.81 874.54,-188.35"/>
<polygon fill="#63b8ff" stroke="#63b8ff" points="874.3,-184.86 864.67,-189.28 874.95,-191.83 874.3,-184.86"/>
</g>
<!-- Node11 -->
<g id="node11" class="node">
<title>Node11</title>
<g id="a_node11"><a xlink:href="constraints_2basic_8h.html" target="_top" xlink:title="Functions and data structures for constraining secondary structure predictions and evaluation.">
<polygon fill="white" stroke="#666666" points="943.5,-85 824.5,-85 824.5,-55 943.5,-55 943.5,-85"/>
<text text-anchor="start" x="832.5" y="-73" font-family="Helvetica,sans-Serif" font-size="10.00">ViennaRNA/constraints</text>
<text text-anchor="middle" x="884" y="-62" font-family="Helvetica,sans-Serif" font-size="10.00">/basic.h</text>
</a>
</g>
</g>
<!-- Node10&#45;&gt;Node11 -->
<g id="edge18" class="edge">
<title>Node10&#45;&gt;Node11</title>
<path fill="none" stroke="#63b8ff" d="M1180.18,-122.76C1177.08,-122.16 1174,-121.57 1171,-121 1097.5,-107.14 1013.14,-92.61 954.99,-82.81"/>
<polygon fill="#63b8ff" stroke="#63b8ff" points="955.66,-79.37 945.22,-81.16 954.5,-86.27 955.66,-79.37"/>
</g>
<!-- Node11&#45;&gt;Node5 -->
<g id="edge19" class="edge">
<title>Node11&#45;&gt;Node5</title>
<path fill="none" stroke="#63b8ff" d="M882.73,-85.36C880.58,-102.52 874.88,-131.35 860,-151 850.16,-163.99 835.35,-174.19 821.87,-181.53"/>
<polygon fill="#63b8ff" stroke="#63b8ff" points="820.61,-178.25 813.29,-185.9 823.79,-184.49 820.61,-178.25"/>
</g>
<!-- Node12&#45;&gt;Node2 -->
<g id="edge21" class="edge">
<title>Node12&#45;&gt;Node2</title>
<path fill="none" stroke="#63b8ff" d="M494.02,-151.41C521.51,-171.98 567.73,-209.96 594.82,-234.05"/>
<polygon fill="#63b8ff" stroke="#63b8ff" points="592.33,-236.52 602.09,-240.63 597.02,-231.33 592.33,-236.52"/>
</g>
<!-- Node12&#45;&gt;Node5 -->
<g id="edge22" class="edge">
<title>Node12&#45;&gt;Node5</title>
<path fill="none" stroke="#63b8ff" d="M531.78,-147.46C537.96,-148.67 544.12,-149.88 550,-151 612.9,-163 684.92,-175.77 733.61,-184.53"/>
<polygon fill="#63b8ff" stroke="#63b8ff" points="732.9,-187.96 743.37,-186.29 734.15,-181.07 732.9,-187.96"/>
</g>
<!-- Node12&#45;&gt;Node11 -->
<g id="edge23" class="edge">
<title>Node12&#45;&gt;Node11</title>
<path fill="none" stroke="#63b8ff" d="M531.8,-122.66C534.91,-122.08 537.99,-121.52 541,-121 634.64,-104.69 743.31,-89.47 812.81,-80.21"/>
<polygon fill="#63b8ff" stroke="#63b8ff" points="813.09,-83.7 822.55,-78.91 812.17,-76.76 813.09,-83.7"/>
</g>
<!-- Node13&#45;&gt;Node5 -->
<g id="edge25" class="edge">
<title>Node13&#45;&gt;Node5</title>
<path fill="none" stroke="#63b8ff" d="M768.56,-145.67C774.55,-153.72 781.53,-165.98 786.22,-176.33"/>
<polygon fill="#63b8ff" stroke="#63b8ff" points="782.9,-177.44 789.83,-185.46 789.41,-174.87 782.9,-177.44"/>
</g>
<!-- Node15&#45;&gt;Node2 -->
<g id="edge28" class="edge">
<title>Node15&#45;&gt;Node2</title>
<path fill="none" stroke="#63b8ff" d="M1317.32,-151.12C1092.31,-190.46 824.88,-228.52 694.79,-246.01"/>
<polygon fill="#63b8ff" stroke="#63b8ff" points="694.34,-242.54 684.89,-247.33 695.26,-249.47 694.34,-242.54"/>
</g>
<!-- Node15&#45;&gt;Node5 -->
<g id="edge29" class="edge">
<title>Node15&#45;&gt;Node5</title>
<path fill="none" stroke="#63b8ff" d="M1317.06,-151.13C1161.88,-172.96 979.24,-185.58 874.74,-191.44"/>
<polygon fill="#63b8ff" stroke="#63b8ff" points="874.62,-187.94 864.83,-191.99 875.01,-194.93 874.62,-187.94"/>
</g>
<!-- Node15&#45;&gt;Node16 -->
<g id="edge30" class="edge">
<title>Node15&#45;&gt;Node16</title>
<path fill="none" stroke="#63b8ff" d="M1412.99,-120.64C1437.8,-109.83 1471.57,-95.13 1495.91,-84.54"/>
<polygon fill="#63b8ff" stroke="#63b8ff" points="1497.2,-87.79 1504.97,-80.59 1494.41,-81.37 1497.2,-87.79"/>
</g>
<!-- Node16&#45;&gt;Node2 -->
<g id="edge32" class="edge">
<title>Node16&#45;&gt;Node2</title>
<path fill="none" stroke="#63b8ff" d="M1526.79,-79.82C1519.97,-96.86 1493.82,-134.07 1461,-151 1328.72,-219.25 878.43,-245.34 694.82,-253.17"/>
<polygon fill="#63b8ff" stroke="#63b8ff" points="694.74,-249.68 684.89,-253.59 695.03,-256.67 694.74,-249.68"/>
</g>
<!-- Node17 -->
<g id="node17" class="node">
<title>Node17</title>
<g id="a_node17"><a xlink:title=" ">
<polygon fill="#e0e0e0" stroke="#999999" points="1550,-19 1504,-19 1504,0 1550,0 1550,-19"/>
<text text-anchor="middle" x="1527" y="-7" font-family="Helvetica,sans-Serif" font-size="10.00">stdio.h</text>
</a>
</g>
</g>
<!-- Node16&#45;&gt;Node17 -->
<g id="edge31" class="edge">
<title>Node16&#45;&gt;Node17</title>
<path fill="none" stroke="#63b8ff" d="M1527,-60.37C1527,-52.5 1527,-40.6 1527,-30.39"/>
<polygon fill="#63b8ff" stroke="#63b8ff" points="1530.5,-30.68 1527,-20.68 1523.5,-30.68 1530.5,-30.68"/>
</g>
<!-- Node19&#45;&gt;Node2 -->
<g id="edge45" class="edge">
<title>Node19&#45;&gt;Node2</title>
<path fill="none" stroke="#63b8ff" d="M699.1,-373.54C676.11,-367.21 651.47,-356.41 635,-338 621.76,-323.2 617.3,-300.87 615.99,-283.56"/>
<polygon fill="#63b8ff" stroke="#63b8ff" points="619.49,-283.63 615.57,-273.79 612.5,-283.93 619.49,-283.63"/>
</g>
<!-- Node19&#45;&gt;Node5 -->
<g id="edge46" class="edge">
<title>Node19&#45;&gt;Node5</title>
<path fill="none" stroke="#63b8ff" d="M761.73,-373.71C764.42,-364.8 768.47,-350.55 771,-338 779.57,-295.51 785.34,-244.99 788.11,-217.59"/>
<polygon fill="#63b8ff" stroke="#63b8ff" points="791.56,-218.24 789.05,-207.95 784.59,-217.56 791.56,-218.24"/>
</g>
<!-- Node19&#45;&gt;Node7 -->
<g id="edge48" class="edge">
<title>Node19&#45;&gt;Node7</title>
<path fill="none" stroke="#63b8ff" d="M728.43,-373.54C699.36,-364.89 654.49,-351.19 616,-338 536.97,-310.91 516.95,-304.52 440,-272 343.65,-231.27 232.3,-176.39 181.65,-150.98"/>
<polygon fill="#63b8ff" stroke="#63b8ff" points="183.37,-147.93 172.86,-146.56 180.22,-154.19 183.37,-147.93"/>
</g>
<!-- Node19&#45;&gt;Node16 -->
<g id="edge47" class="edge">
<title>Node19&#45;&gt;Node16</title>
<path fill="none" stroke="#63b8ff" d="M819.36,-379.96C1012.53,-371.04 1603,-337.29 1603,-258 1603,-258 1603,-258 1603,-195.5 1603,-151.46 1567.92,-109.8 1545.43,-87.61"/>
<polygon fill="#63b8ff" stroke="#63b8ff" points="1548.01,-85.23 1538.35,-80.88 1543.19,-90.31 1548.01,-85.23"/>
</g>
<!-- Node20 -->
<g id="node20" class="node">
<title>Node20</title>
<g id="a_node20"><a xlink:href="centroid_8h.html" target="_top" xlink:title="Centroid structure computation.">
<polygon fill="white" stroke="#666666" points="932,-332.5 818,-332.5 818,-313.5 932,-313.5 932,-332.5"/>
<text text-anchor="middle" x="875" y="-320.5" font-family="Helvetica,sans-Serif" font-size="10.00">ViennaRNA/centroid.h</text>
</a>
</g>
</g>
<!-- Node19&#45;&gt;Node20 -->
<g id="edge49" class="edge">
<title>Node19&#45;&gt;Node20</title>
<path fill="none" stroke="#63b8ff" d="M776.62,-373.62C795.35,-364.17 825.25,-349.09 847.18,-338.03"/>
<polygon fill="#63b8ff" stroke="#63b8ff" points="848.51,-341.28 855.86,-333.65 845.36,-335.03 848.51,-341.28"/>
</g>
<!-- Node19&#45;&gt;Node21 -->
<g id="edge53" class="edge">
<title>Node19&#45;&gt;Node21</title>
<path fill="none" stroke="#63b8ff" d="M750.74,-373.87C743.77,-366.59 733.49,-355.85 724.25,-346.2"/>
<polygon fill="#63b8ff" stroke="#63b8ff" points="727,-344.01 717.56,-339.21 721.94,-348.85 727,-344.01"/>
</g>
<!-- Node22 -->
<g id="node22" class="node">
<title>Node22</title>
<g id="a_node22"><a xlink:href="boltzmann__sampling_8h.html" target="_top" xlink:title="Boltzmann Sampling of secondary structures from the ensemble.">
<polygon fill="white" stroke="#666666" points="1537,-272 1421,-272 1421,-242 1537,-242 1537,-272"/>
<text text-anchor="start" x="1429" y="-260" font-family="Helvetica,sans-Serif" font-size="10.00">ViennaRNA/boltzmann</text>
<text text-anchor="middle" x="1479" y="-249" font-family="Helvetica,sans-Serif" font-size="10.00">_sampling.h</text>
</a>
</g>
</g>
<!-- Node19&#45;&gt;Node22 -->
<g id="edge58" class="edge">
<title>Node19&#45;&gt;Node22</title>
<path fill="none" stroke="#63b8ff" d="M814.12,-373.54C926.02,-355.26 1187.79,-312 1407,-272 1407.85,-271.85 1408.7,-271.69 1409.55,-271.53"/>
<polygon fill="#63b8ff" stroke="#63b8ff" points="1410.19,-274.97 1419.37,-269.7 1408.9,-268.09 1410.19,-274.97"/>
</g>
<!-- Node20&#45;&gt;Node2 -->
<g id="edge50" class="edge">
<title>Node20&#45;&gt;Node2</title>
<path fill="none" stroke="#63b8ff" d="M838.71,-313.03C799.11,-303.25 734.76,-287.35 685.39,-275.15"/>
<polygon fill="#63b8ff" stroke="#63b8ff" points="686.48,-271.81 675.93,-272.81 684.8,-278.61 686.48,-271.81"/>
</g>
<!-- Node20&#45;&gt;Node5 -->
<g id="edge51" class="edge">
<title>Node20&#45;&gt;Node5</title>
<path fill="none" stroke="#63b8ff" d="M868.89,-313.05C855.04,-292.77 821.06,-242.99 802.53,-215.86"/>
<polygon fill="#63b8ff" stroke="#63b8ff" points="805.44,-213.91 796.91,-207.62 799.66,-217.85 805.44,-213.91"/>
</g>
<!-- Node20&#45;&gt;Node16 -->
<g id="edge52" class="edge">
<title>Node20&#45;&gt;Node16</title>
<path fill="none" stroke="#63b8ff" d="M932.29,-322.08C1087.04,-321.71 1504.65,-316.55 1546,-272 1593.1,-221.26 1556.21,-129.18 1536.9,-89.74"/>
<polygon fill="#63b8ff" stroke="#63b8ff" points="1540.13,-88.37 1532.48,-81.04 1533.89,-91.54 1540.13,-88.37"/>
</g>
<!-- Node21&#45;&gt;Node2 -->
<g id="edge54" class="edge">
<title>Node21&#45;&gt;Node2</title>
<path fill="none" stroke="#63b8ff" d="M683.69,-307.8C672.17,-299.32 657.33,-288.4 644.48,-278.95"/>
<polygon fill="#63b8ff" stroke="#63b8ff" points="646.9,-276.39 636.77,-273.28 642.76,-282.03 646.9,-276.39"/>
</g>
<!-- Node21&#45;&gt;Node5 -->
<g id="edge55" class="edge">
<title>Node21&#45;&gt;Node5</title>
<path fill="none" stroke="#63b8ff" d="M712.98,-307.72C728.84,-285.03 759.77,-240.76 777.22,-215.79"/>
<polygon fill="#63b8ff" stroke="#63b8ff" points="780.07,-217.82 782.93,-207.62 774.33,-213.81 780.07,-217.82"/>
</g>
<!-- Node21&#45;&gt;Node7 -->
<g id="edge57" class="edge">
<title>Node21&#45;&gt;Node7</title>
<path fill="none" stroke="#63b8ff" d="M654.37,-307.53C621.9,-297.75 578.29,-284.42 540,-272 453.77,-244.04 430.62,-241.02 347,-206 329.58,-198.71 326.48,-194.14 309,-187 272.17,-171.95 228.99,-158.34 197.58,-149.13"/>
<polygon fill="#63b8ff" stroke="#63b8ff" points="198.6,-145.78 188.02,-146.36 196.66,-152.51 198.6,-145.78"/>
</g>
<!-- Node21&#45;&gt;Node16 -->
<g id="edge56" class="edge">
<title>Node21&#45;&gt;Node16</title>
<path fill="none" stroke="#63b8ff" d="M762.25,-312.65C871.07,-295.04 1109.81,-254.33 1308,-206 1391.34,-185.68 1429.02,-208.14 1493,-151 1510.56,-135.32 1519.34,-109.04 1523.53,-90.91"/>
<polygon fill="#63b8ff" stroke="#63b8ff" points="1526.91,-91.86 1525.44,-81.37 1520.04,-90.48 1526.91,-91.86"/>
</g>
<!-- Node22&#45;&gt;Node5 -->
<g id="edge59" class="edge">
<title>Node22&#45;&gt;Node5</title>
<path fill="none" stroke="#63b8ff" d="M1420.55,-251.04C1298.52,-240.68 1016.22,-216.71 874.45,-204.67"/>
<polygon fill="#63b8ff" stroke="#63b8ff" points="875.02,-201.21 864.76,-203.85 874.42,-208.18 875.02,-201.21"/>
</g>
<!-- Node23&#45;&gt;Node7 -->
<g id="edge62" class="edge">
<title>Node23&#45;&gt;Node7</title>
<path fill="none" stroke="#63b8ff" d="M191.92,-247.06C185.33,-227.92 169.73,-182.65 160.72,-156.52"/>
<polygon fill="#63b8ff" stroke="#63b8ff" points="164.07,-155.47 157.5,-147.16 157.45,-157.75 164.07,-155.47"/>
</g>
</g>
</svg>
