<?xml version="1.0" encoding="UTF-8" standalone="no"?>
<!DOCTYPE svg PUBLIC "-//W3C//DTD SVG 1.1//EN"
 "http://www.w3.org/Graphics/SVG/1.1/DTD/svg11.dtd">
<!-- Generated by graphviz version 7.1.0 (0)
 -->
<!-- Title: ViennaRNA/part_func_window.h Pages: 1 -->
<!--zoomable 346 -->
<svg id="main" version="1.1" xmlns="http://www.w3.org/2000/svg" xmlns:xlink="http://www.w3.org/1999/xlink" xml:space="preserve" onload="init(evt)">
<style type="text/css"><![CDATA[
.edge:hover path { stroke: red; }
.edge:hover polygon { stroke: red; fill: red; }
]]></style>
<script type="text/javascript"><![CDATA[
var edges = document.getElementsByTagName('g');
if (edges && edges.length) {
  for (var i=0;i<edges.length;i++) {
    if (edges[i].id.substr(0,4)=='edge') {
      edges[i].setAttribute('class','edge');
    }
  }
}
]]></script>
        <defs>
                <circle id="rim" cx="0" cy="0" r="7"/>
                <circle id="rim2" cx="0" cy="0" r="3.5"/>
                <g id="zoomPlus">
                        <use xlink:href="#rim" fill="#404040">
                                <set attributeName="fill" to="#808080" begin="zoomplus.mouseover" end="zoomplus.mouseout"/>
                        </use>
                        <path d="M-4,0h8M0,-4v8" fill="none" stroke="white" stroke-width="1.5" pointer-events="none"/>
                </g>
                <g id="zoomMin">
                        <use xlink:href="#rim" fill="#404040">
                                <set attributeName="fill" to="#808080" begin="zoomminus.mouseover" end="zoomminus.mouseout"/>
                        </use>
                        <path d="M-4,0h8" fill="none" stroke="white" stroke-width="1.5" pointer-events="none"/>
                </g>
                <g id="dirArrow">
                        <path fill="none" stroke="white" stroke-width="1.5" d="M0,-3.0v7 M-2.5,-0.5L0,-3.0L2.5,-0.5"/>
                </g>
               <g id="resetDef">
                       <use xlink:href="#rim2" fill="#404040">
                               <set attributeName="fill" to="#808080" begin="reset.mouseover" end="reset.mouseout"/>
                       </use>
               </g>
        </defs>

<script type="text/javascript">
var viewWidth = 1514;
var viewHeight = 346;
var sectionId = 'dynsection-0';
</script>
<script xlink:href="svgpan.js"/>
<svg id="graph" class="graph">
<g id="viewport">
<title>ViennaRNA/part_func_window.h</title>
<!-- Node1 -->
<g id="node1" class="node">
<title>Node1</title>
<g id="a_node1"><a xlink:title="Partition function and equilibrium probability implementation for the sliding window algorithm.">
<polygon fill="#999999" stroke="#666666" points="1092.5,-338 980.5,-338 980.5,-308 1092.5,-308 1092.5,-338"/>
<text text-anchor="start" x="988.5" y="-326" font-family="Helvetica,sans-Serif" font-size="10.00">ViennaRNA/part_func</text>
<text text-anchor="middle" x="1036.5" y="-315" font-family="Helvetica,sans-Serif" font-size="10.00">_window.h</text>
</a>
</g>
</g>
<!-- Node2 -->
<g id="node2" class="node">
<title>Node2</title>
<g id="a_node2"><a xlink:href="datastructures_2basic_8h.html" target="_top" xlink:title="Various data structures and pre&#45;processor macros.">
<polygon fill="white" stroke="#666666" points="1103.5,-272 969.5,-272 969.5,-242 1103.5,-242 1103.5,-272"/>
<text text-anchor="start" x="977.5" y="-260" font-family="Helvetica,sans-Serif" font-size="10.00">ViennaRNA/datastructures</text>
<text text-anchor="middle" x="1036.5" y="-249" font-family="Helvetica,sans-Serif" font-size="10.00">/basic.h</text>
</a>
</g>
</g>
<!-- Node1&#45;&gt;Node2 -->
<g id="edge1" class="edge">
<title>Node1&#45;&gt;Node2</title>
<path fill="none" stroke="#63b8ff" d="M1036.5,-307.8C1036.5,-300.67 1036.5,-291.82 1036.5,-283.56"/>
<polygon fill="#63b8ff" stroke="#63b8ff" points="1040,-283.68 1036.5,-273.68 1033,-283.68 1040,-283.68"/>
</g>
<!-- Node5 -->
<g id="node5" class="node">
<title>Node5</title>
<g id="a_node5"><a xlink:href="fold__compound_8h.html" target="_top" xlink:title="The Basic Fold Compound API.">
<polygon fill="white" stroke="#666666" points="840.5,-206 694.5,-206 694.5,-187 840.5,-187 840.5,-206"/>
<text text-anchor="middle" x="767.5" y="-194" font-family="Helvetica,sans-Serif" font-size="10.00">ViennaRNA/fold_compound.h</text>
</a>
</g>
</g>
<!-- Node1&#45;&gt;Node5 -->
<g id="edge43" class="edge">
<title>Node1&#45;&gt;Node5</title>
<path fill="none" stroke="#63b8ff" d="M1005.38,-307.6C953.07,-283.39 848.22,-234.86 797.01,-211.16"/>
<polygon fill="#63b8ff" stroke="#63b8ff" points="798.56,-208.02 788.02,-207 795.62,-214.37 798.56,-208.02"/>
</g>
<!-- Node16 -->
<g id="node16" class="node">
<title>Node16</title>
<g id="a_node16"><a xlink:href="utils_2structures_8h.html" target="_top" xlink:title="Various utility&#45; and helper&#45;functions for secondary structure parsing, converting,...">
<polygon fill="white" stroke="#666666" points="1505.5,-79.5 1361.5,-79.5 1361.5,-60.5 1505.5,-60.5 1505.5,-79.5"/>
<text text-anchor="middle" x="1433.5" y="-67.5" font-family="Helvetica,sans-Serif" font-size="10.00">ViennaRNA/utils/structures.h</text>
</a>
</g>
</g>
<!-- Node1&#45;&gt;Node16 -->
<g id="edge44" class="edge">
<title>Node1&#45;&gt;Node16</title>
<path fill="none" stroke="#63b8ff" d="M1091.46,-307.54C1155.89,-289.28 1264.64,-254.31 1349.5,-206 1383.28,-186.77 1397.38,-184.26 1417.5,-151 1428.6,-132.65 1432.17,-108.02 1433.23,-90.96"/>
<polygon fill="#63b8ff" stroke="#63b8ff" points="1436.72,-91.25 1433.58,-81.13 1429.72,-91 1436.72,-91.25"/>
</g>
<!-- Node3 -->
<g id="node3" class="node">
<title>Node3</title>
<g id="a_node3"><a xlink:href="constants_8h.html" target="_top" xlink:title="Energy parameter constants.">
<polygon fill="white" stroke="#666666" points="1340.5,-79.5 1182.5,-79.5 1182.5,-60.5 1340.5,-60.5 1340.5,-79.5"/>
<text text-anchor="middle" x="1261.5" y="-67.5" font-family="Helvetica,sans-Serif" font-size="10.00">ViennaRNA/params/constants.h</text>
</a>
</g>
</g>
<!-- Node2&#45;&gt;Node3 -->
<g id="edge2" class="edge">
<title>Node2&#45;&gt;Node3</title>
<path fill="none" stroke="#63b8ff" d="M1103.88,-245.02C1192.17,-228.99 1339.17,-196.12 1367.5,-151 1374.59,-139.71 1374.64,-132.26 1367.5,-121 1355.96,-102.8 1335.83,-91.1 1316.2,-83.64"/>
<polygon fill="#63b8ff" stroke="#63b8ff" points="1317.42,-80.36 1306.82,-80.41 1315.14,-86.98 1317.42,-80.36"/>
</g>
<!-- Node2&#45;&gt;Node5 -->
<g id="edge4" class="edge">
<title>Node2&#45;&gt;Node5</title>
<path fill="none" stroke="#63b8ff" d="M970.01,-241.54C923.59,-231.44 862.51,-218.16 819.61,-208.83"/>
<polygon fill="#63b8ff" stroke="#63b8ff" points="820.57,-205.46 810.05,-206.75 819.08,-212.3 820.57,-205.46"/>
</g>
<!-- Node6 -->
<g id="node6" class="node">
<title>Node6</title>
<g id="a_node6"><a xlink:href="model_8h.html" target="_top" xlink:title="The model details data structure and its corresponding modifiers.">
<polygon fill="white" stroke="#666666" points="1160.5,-79.5 1054.5,-79.5 1054.5,-60.5 1160.5,-60.5 1160.5,-79.5"/>
<text text-anchor="middle" x="1107.5" y="-67.5" font-family="Helvetica,sans-Serif" font-size="10.00">ViennaRNA/model.h</text>
</a>
</g>
</g>
<!-- Node2&#45;&gt;Node6 -->
<g id="edge34" class="edge">
<title>Node2&#45;&gt;Node6</title>
<path fill="none" stroke="#63b8ff" d="M1074.15,-241.59C1110.14,-225.54 1162.26,-195.81 1185.5,-151 1191.64,-139.16 1191.9,-132.7 1185.5,-121 1176.51,-104.56 1159.55,-92.73 1143.74,-84.72"/>
<polygon fill="#63b8ff" stroke="#63b8ff" points="1145.52,-81.69 1134.98,-80.63 1142.56,-88.03 1145.52,-81.69"/>
</g>
<!-- Node7 -->
<g id="node7" class="node">
<title>Node7</title>
<g id="a_node7"><a xlink:href="params_2basic_8h.html" target="_top" xlink:title="Functions to deal with sets of energy parameters.">
<polygon fill="white" stroke="#666666" points="1176.5,-145.5 1038.5,-145.5 1038.5,-126.5 1176.5,-126.5 1176.5,-145.5"/>
<text text-anchor="middle" x="1107.5" y="-133.5" font-family="Helvetica,sans-Serif" font-size="10.00">ViennaRNA/params/basic.h</text>
</a>
</g>
</g>
<!-- Node2&#45;&gt;Node7 -->
<g id="edge35" class="edge">
<title>Node2&#45;&gt;Node7</title>
<path fill="none" stroke="#63b8ff" d="M1040.37,-241.88C1050.53,-220.22 1075.1,-178.78 1091.76,-154.99"/>
<polygon fill="#63b8ff" stroke="#63b8ff" points="1094.58,-157.07 1097.68,-146.93 1088.94,-152.93 1094.58,-157.07"/>
</g>
<!-- Node9 -->
<g id="node9" class="node">
<title>Node9</title>
<g id="a_node9"><a xlink:href="dp__matrices_8h.html" target="_top" xlink:title="Functions to deal with standard dynamic programming (DP) matrices.">
<polygon fill="white" stroke="#666666" points="1020,-145.5 887,-145.5 887,-126.5 1020,-126.5 1020,-145.5"/>
<text text-anchor="middle" x="953.5" y="-133.5" font-family="Helvetica,sans-Serif" font-size="10.00">ViennaRNA/dp_matrices.h</text>
</a>
</g>
</g>
<!-- Node2&#45;&gt;Node9 -->
<g id="edge36" class="edge">
<title>Node2&#45;&gt;Node9</title>
<path fill="none" stroke="#63b8ff" d="M1022.1,-241.88C1004.38,-220.41 975.69,-179.52 961.43,-155.64"/>
<polygon fill="#63b8ff" stroke="#63b8ff" points="964.54,-154.03 956.59,-147.03 958.44,-157.46 964.54,-154.03"/>
</g>
<!-- Node10 -->
<g id="node10" class="node">
<title>Node10</title>
<g id="a_node10"><a xlink:href="hard_8h.html" target="_top" xlink:title="Functions and data structures for handling of secondary structure hard constraints.">
<polygon fill="white" stroke="#666666" points="389,-151 270,-151 270,-121 389,-121 389,-151"/>
<text text-anchor="start" x="278" y="-139" font-family="Helvetica,sans-Serif" font-size="10.00">ViennaRNA/constraints</text>
<text text-anchor="middle" x="329.5" y="-128" font-family="Helvetica,sans-Serif" font-size="10.00">/hard.h</text>
</a>
</g>
</g>
<!-- Node2&#45;&gt;Node10 -->
<g id="edge37" class="edge">
<title>Node2&#45;&gt;Node10</title>
<path fill="none" stroke="#63b8ff" d="M969.06,-247.37C898.29,-238.08 783.85,-222.42 685.5,-206 560.9,-185.2 527.71,-176.61 400.3,-151.35"/>
<polygon fill="#63b8ff" stroke="#63b8ff" points="401.31,-147.98 390.82,-149.47 399.95,-154.85 401.31,-147.98"/>
</g>
<!-- Node12 -->
<g id="node12" class="node">
<title>Node12</title>
<g id="a_node12"><a xlink:href="soft_8h.html" target="_top" xlink:title="Functions and data structures for secondary structure soft constraints.">
<polygon fill="white" stroke="#666666" points="119,-151 0,-151 0,-121 119,-121 119,-151"/>
<text text-anchor="start" x="8" y="-139" font-family="Helvetica,sans-Serif" font-size="10.00">ViennaRNA/constraints</text>
<text text-anchor="middle" x="59.5" y="-128" font-family="Helvetica,sans-Serif" font-size="10.00">/soft.h</text>
</a>
</g>
</g>
<!-- Node2&#45;&gt;Node12 -->
<g id="edge38" class="edge">
<title>Node2&#45;&gt;Node12</title>
<path fill="none" stroke="#63b8ff" d="M969.07,-252.37C858.67,-245.75 633.03,-230.11 443.5,-206 302.28,-188.04 264.59,-178.54 130.46,-153.25"/>
<polygon fill="#63b8ff" stroke="#63b8ff" points="131.3,-149.85 120.83,-151.44 130.01,-156.73 131.3,-149.85"/>
</g>
<!-- Node13 -->
<g id="node13" class="node">
<title>Node13</title>
<g id="a_node13"><a xlink:href="grammar_8h.html" target="_top" xlink:title="Implementations for the RNA folding grammar.">
<polygon fill="white" stroke="#666666" points="869,-145.5 752,-145.5 752,-126.5 869,-126.5 869,-145.5"/>
<text text-anchor="middle" x="810.5" y="-133.5" font-family="Helvetica,sans-Serif" font-size="10.00">ViennaRNA/grammar.h</text>
</a>
</g>
</g>
<!-- Node2&#45;&gt;Node13 -->
<g id="edge39" class="edge">
<title>Node2&#45;&gt;Node13</title>
<path fill="none" stroke="#63b8ff" d="M1009.24,-241.65C965.73,-218.74 881.09,-174.17 837.65,-151.29"/>
<polygon fill="#63b8ff" stroke="#63b8ff" points="839.36,-148.24 828.88,-146.68 836.1,-154.44 839.36,-148.24"/>
</g>
<!-- Node14 -->
<g id="node14" class="node">
<title>Node14</title>
<g id="a_node14"><a xlink:href="structured__domains_8h.html" target="_top" xlink:title="This module provides interfaces that deal with additional structured domains in the folding grammar.">
<polygon fill="white" stroke="#666666" points="252,-151 137,-151 137,-121 252,-121 252,-151"/>
<text text-anchor="start" x="145" y="-139" font-family="Helvetica,sans-Serif" font-size="10.00">ViennaRNA/structured</text>
<text text-anchor="middle" x="194.5" y="-128" font-family="Helvetica,sans-Serif" font-size="10.00">_domains.h</text>
</a>
</g>
</g>
<!-- Node2&#45;&gt;Node14 -->
<g id="edge40" class="edge">
<title>Node2&#45;&gt;Node14</title>
<path fill="none" stroke="#63b8ff" d="M969.06,-250C879.42,-241.72 716.2,-225.57 577.5,-206 439.5,-186.53 402.76,-178.47 263.52,-151.56"/>
<polygon fill="#63b8ff" stroke="#63b8ff" points="264.39,-148.16 253.91,-149.7 263.06,-155.03 264.39,-148.16"/>
</g>
<!-- Node15 -->
<g id="node15" class="node">
<title>Node15</title>
<g id="a_node15"><a xlink:href="unstructured__domains_8h.html" target="_top" xlink:title="Functions to modify unstructured domains, e.g. to incorporate ligands binding to unpaired stretches.">
<polygon fill="white" stroke="#666666" points="1358,-151 1233,-151 1233,-121 1358,-121 1358,-151"/>
<text text-anchor="start" x="1241" y="-139" font-family="Helvetica,sans-Serif" font-size="10.00">ViennaRNA/unstructured</text>
<text text-anchor="middle" x="1295.5" y="-128" font-family="Helvetica,sans-Serif" font-size="10.00">_domains.h</text>
</a>
</g>
</g>
<!-- Node2&#45;&gt;Node15 -->
<g id="edge41" class="edge">
<title>Node2&#45;&gt;Node15</title>
<path fill="none" stroke="#63b8ff" d="M1103.9,-243.43C1137.03,-235.76 1176.71,-223.89 1209.5,-206 1231.57,-193.96 1252.54,-174.44 1268.48,-159.23"/>
<polygon fill="#63b8ff" stroke="#63b8ff" points="1270.88,-161.78 1275.7,-152.34 1266.05,-156.71 1270.88,-161.78"/>
</g>
<!-- Node2&#45;&gt;Node16 -->
<g id="edge42" class="edge">
<title>Node2&#45;&gt;Node16</title>
<path fill="none" stroke="#63b8ff" d="M1103.85,-251.33C1158.43,-245.7 1236.24,-233.29 1299.5,-206 1337.45,-189.63 1346.37,-181.29 1374.5,-151 1392.03,-132.11 1406.9,-106.22 1417.85,-89.07"/>
<polygon fill="#63b8ff" stroke="#63b8ff" points="1420.65,-91.18 1423.3,-80.92 1414.83,-87.28 1420.65,-91.18"/>
</g>
<!-- Node4 -->
<g id="node4" class="node">
<title>Node4</title>
<g id="a_node4"><a xlink:title=" ">
<polygon fill="#e0e0e0" stroke="#999999" points="1285.5,-19 1237.5,-19 1237.5,0 1285.5,0 1285.5,-19"/>
<text text-anchor="middle" x="1261.5" y="-7" font-family="Helvetica,sans-Serif" font-size="10.00">limits.h</text>
</a>
</g>
</g>
<!-- Node3&#45;&gt;Node4 -->
<g id="edge3" class="edge">
<title>Node3&#45;&gt;Node4</title>
<path fill="none" stroke="#63b8ff" d="M1261.5,-60.37C1261.5,-52.5 1261.5,-40.6 1261.5,-30.39"/>
<polygon fill="#63b8ff" stroke="#63b8ff" points="1265,-30.68 1261.5,-20.68 1258,-30.68 1265,-30.68"/>
</g>
<!-- Node5&#45;&gt;Node6 -->
<g id="edge5" class="edge">
<title>Node5&#45;&gt;Node6</title>
<path fill="none" stroke="#63b8ff" d="M759.77,-186.6C747.52,-171.41 726.71,-140.25 743.5,-121 781.58,-77.33 948.93,-70.46 1042.9,-70.15"/>
<polygon fill="#63b8ff" stroke="#63b8ff" points="1042.74,-73.65 1052.74,-70.15 1042.74,-66.65 1042.74,-73.65"/>
</g>
<!-- Node5&#45;&gt;Node7 -->
<g id="edge6" class="edge">
<title>Node5&#45;&gt;Node7</title>
<path fill="none" stroke="#63b8ff" d="M814.35,-186.53C865.19,-177.64 948.46,-163.58 1020.5,-151 1026.12,-150.02 1031.96,-148.99 1037.84,-147.95"/>
<polygon fill="#63b8ff" stroke="#63b8ff" points="1038.43,-151.4 1047.68,-146.22 1037.22,-144.51 1038.43,-151.4"/>
</g>
<!-- Node8 -->
<g id="node8" class="node">
<title>Node8</title>
<g id="a_node8"><a xlink:href="sequence_8h.html" target="_top" xlink:title="Functions and data structures related to sequence representations ,.">
<polygon fill="white" stroke="#666666" points="529.5,-145.5 407.5,-145.5 407.5,-126.5 529.5,-126.5 529.5,-145.5"/>
<text text-anchor="middle" x="468.5" y="-133.5" font-family="Helvetica,sans-Serif" font-size="10.00">ViennaRNA/sequence.h</text>
</a>
</g>
</g>
<!-- Node5&#45;&gt;Node8 -->
<g id="edge11" class="edge">
<title>Node5&#45;&gt;Node8</title>
<path fill="none" stroke="#63b8ff" d="M716.74,-186.55C662.05,-176.27 575.63,-159.39 520.48,-148.24"/>
<polygon fill="#63b8ff" stroke="#63b8ff" points="521.19,-144.81 510.69,-146.25 519.8,-151.67 521.19,-144.81"/>
</g>
<!-- Node5&#45;&gt;Node9 -->
<g id="edge13" class="edge">
<title>Node5&#45;&gt;Node9</title>
<path fill="none" stroke="#63b8ff" d="M790.74,-186.62C820.45,-176.61 872.15,-160.29 909.39,-149.12"/>
<polygon fill="#63b8ff" stroke="#63b8ff" points="909.92,-152.61 918.51,-146.4 907.92,-145.9 909.92,-152.61"/>
</g>
<!-- Node5&#45;&gt;Node10 -->
<g id="edge16" class="edge">
<title>Node5&#45;&gt;Node10</title>
<path fill="none" stroke="#63b8ff" d="M694.02,-189.06C620.28,-181.82 503.42,-168.95 400.95,-152.82"/>
<polygon fill="#63b8ff" stroke="#63b8ff" points="401.73,-149.4 391.3,-151.29 400.63,-156.32 401.73,-149.4"/>
</g>
<!-- Node5&#45;&gt;Node12 -->
<g id="edge20" class="edge">
<title>Node5&#45;&gt;Node12</title>
<path fill="none" stroke="#63b8ff" d="M694.01,-193.75C575.56,-190.15 335.29,-179.81 130.67,-152.64"/>
<polygon fill="#63b8ff" stroke="#63b8ff" points="131.29,-149.19 120.91,-151.33 130.35,-156.13 131.29,-149.19"/>
</g>
<!-- Node5&#45;&gt;Node13 -->
<g id="edge24" class="edge">
<title>Node5&#45;&gt;Node13</title>
<path fill="none" stroke="#63b8ff" d="M768.89,-186.87C773.33,-178.31 782.71,-164.97 791.61,-154.24"/>
<polygon fill="#63b8ff" stroke="#63b8ff" points="794.18,-156.62 798.17,-146.8 788.93,-151.99 794.18,-156.62"/>
</g>
<!-- Node5&#45;&gt;Node14 -->
<g id="edge26" class="edge">
<title>Node5&#45;&gt;Node14</title>
<path fill="none" stroke="#63b8ff" d="M694.13,-191.86C597.55,-186.45 422.32,-174.49 263.76,-151.38"/>
<polygon fill="#63b8ff" stroke="#63b8ff" points="264.28,-147.91 253.87,-149.91 263.25,-154.84 264.28,-147.91"/>
</g>
<!-- Node5&#45;&gt;Node15 -->
<g id="edge27" class="edge">
<title>Node5&#45;&gt;Node15</title>
<path fill="none" stroke="#63b8ff" d="M840.97,-187.46C922.88,-178.9 1059.07,-164.72 1176.5,-151 1190.98,-149.31 1206.51,-147.39 1221.44,-145.53"/>
<polygon fill="#63b8ff" stroke="#63b8ff" points="1221.72,-149.03 1231.21,-144.32 1220.86,-142.08 1221.72,-149.03"/>
</g>
<!-- Node18 -->
<g id="node18" class="node">
<title>Node18</title>
<g id="a_node18"><a xlink:href="zscore_8h_source.html" target="_top" xlink:title=" ">
<polygon fill="white" stroke="#666666" points="695,-145.5 586,-145.5 586,-126.5 695,-126.5 695,-145.5"/>
<text text-anchor="middle" x="640.5" y="-133.5" font-family="Helvetica,sans-Serif" font-size="10.00">ViennaRNA/zscore.h</text>
</a>
</g>
</g>
<!-- Node5&#45;&gt;Node18 -->
<g id="edge33" class="edge">
<title>Node5&#45;&gt;Node18</title>
<path fill="none" stroke="#63b8ff" d="M748.21,-186.62C727.51,-177.08 694.37,-161.81 670.31,-150.73"/>
<polygon fill="#63b8ff" stroke="#63b8ff" points="671.89,-147.61 661.34,-146.6 668.96,-153.96 671.89,-147.61"/>
</g>
<!-- Node7&#45;&gt;Node2 -->
<g id="edge8" class="edge">
<title>Node7&#45;&gt;Node2</title>
<path fill="none" stroke="#63b8ff" d="M1106.03,-145.71C1098.56,-163.78 1074.04,-205.86 1056.02,-232.51"/>
<polygon fill="#63b8ff" stroke="#63b8ff" points="1053.2,-230.44 1050.34,-240.64 1058.94,-234.44 1053.2,-230.44"/>
</g>
<!-- Node7&#45;&gt;Node3 -->
<g id="edge7" class="edge">
<title>Node7&#45;&gt;Node3</title>
<path fill="none" stroke="#63b8ff" d="M1128.91,-126.1C1155.12,-115.21 1199.71,-96.68 1229.87,-84.14"/>
<polygon fill="#63b8ff" stroke="#63b8ff" points="1230.98,-87.47 1238.87,-80.4 1228.29,-81.01 1230.98,-87.47"/>
</g>
<!-- Node7&#45;&gt;Node5 -->
<g id="edge9" class="edge">
<title>Node7&#45;&gt;Node5</title>
<path fill="none" stroke="#63b8ff" d="M1066.83,-145.96C1057.54,-147.65 1047.72,-149.39 1038.5,-151 971.25,-162.75 894.2,-175.78 839.42,-184.69"/>
<polygon fill="#63b8ff" stroke="#63b8ff" points="838.89,-181.23 829.57,-186.29 840,-188.14 838.89,-181.23"/>
</g>
<!-- Node7&#45;&gt;Node6 -->
<g id="edge10" class="edge">
<title>Node7&#45;&gt;Node6</title>
<path fill="none" stroke="#63b8ff" d="M1107.5,-126.1C1107.5,-117.12 1107.5,-102.95 1107.5,-91.22"/>
<polygon fill="#63b8ff" stroke="#63b8ff" points="1111,-91.34 1107.5,-81.34 1104,-91.34 1111,-91.34"/>
</g>
<!-- Node8&#45;&gt;Node5 -->
<g id="edge12" class="edge">
<title>Node8&#45;&gt;Node5</title>
<path fill="none" stroke="#63b8ff" d="M519.51,-146C574.22,-156.28 660.46,-173.13 715.53,-184.27"/>
<polygon fill="#63b8ff" stroke="#63b8ff" points="714.81,-187.69 725.3,-186.25 716.2,-180.83 714.81,-187.69"/>
</g>
<!-- Node9&#45;&gt;Node2 -->
<g id="edge14" class="edge">
<title>Node9&#45;&gt;Node2</title>
<path fill="none" stroke="#63b8ff" d="M963.31,-145.71C979.15,-163.7 1008.9,-205.49 1025.4,-232.16"/>
<polygon fill="#63b8ff" stroke="#63b8ff" points="1022.3,-233.79 1030.43,-240.58 1028.31,-230.2 1022.3,-233.79"/>
</g>
<!-- Node9&#45;&gt;Node5 -->
<g id="edge15" class="edge">
<title>Node9&#45;&gt;Node5</title>
<path fill="none" stroke="#63b8ff" d="M930.01,-145.97C900.31,-155.97 848.9,-172.2 811.78,-183.33"/>
<polygon fill="#63b8ff" stroke="#63b8ff" points="810.8,-179.98 802.21,-186.18 812.79,-186.68 810.8,-179.98"/>
</g>
<!-- Node10&#45;&gt;Node5 -->
<g id="edge17" class="edge">
<title>Node10&#45;&gt;Node5</title>
<path fill="none" stroke="#63b8ff" d="M389.22,-147.78C395.41,-148.94 401.59,-150.05 407.5,-151 501.53,-166.18 609.8,-178.65 682.9,-186.49"/>
<polygon fill="#63b8ff" stroke="#63b8ff" points="682.51,-189.97 692.82,-187.55 683.25,-183 682.51,-189.97"/>
</g>
<!-- Node11 -->
<g id="node11" class="node">
<title>Node11</title>
<g id="a_node11"><a xlink:href="constraints_2basic_8h.html" target="_top" xlink:title="Functions and data structures for constraining secondary structure predictions and evaluation.">
<polygon fill="white" stroke="#666666" points="389,-85 270,-85 270,-55 389,-55 389,-85"/>
<text text-anchor="start" x="278" y="-73" font-family="Helvetica,sans-Serif" font-size="10.00">ViennaRNA/constraints</text>
<text text-anchor="middle" x="329.5" y="-62" font-family="Helvetica,sans-Serif" font-size="10.00">/basic.h</text>
</a>
</g>
</g>
<!-- Node10&#45;&gt;Node11 -->
<g id="edge18" class="edge">
<title>Node10&#45;&gt;Node11</title>
<path fill="none" stroke="#63b8ff" d="M329.5,-120.8C329.5,-113.67 329.5,-104.82 329.5,-96.56"/>
<polygon fill="#63b8ff" stroke="#63b8ff" points="333,-96.68 329.5,-86.68 326,-96.68 333,-96.68"/>
</g>
<!-- Node11&#45;&gt;Node5 -->
<g id="edge19" class="edge">
<title>Node11&#45;&gt;Node5</title>
<path fill="none" stroke="#63b8ff" d="M389.48,-78.31C432.57,-85.21 491.17,-98.04 538.5,-121 557.86,-130.39 557.11,-141.67 576.5,-151 610.41,-167.32 650.65,-177.85 685.42,-184.53"/>
<polygon fill="#63b8ff" stroke="#63b8ff" points="684.55,-187.93 695.02,-186.3 685.82,-181.05 684.55,-187.93"/>
</g>
<!-- Node12&#45;&gt;Node2 -->
<g id="edge21" class="edge">
<title>Node12&#45;&gt;Node2</title>
<path fill="none" stroke="#63b8ff" d="M119.28,-147.67C125.12,-148.82 130.93,-149.96 136.5,-151 280.49,-178 316.17,-187.51 461.5,-206 638.46,-228.51 846.9,-243.64 957.85,-250.94"/>
<polygon fill="#63b8ff" stroke="#63b8ff" points="957.54,-254.42 967.74,-251.58 957.99,-247.44 957.54,-254.42"/>
</g>
<!-- Node12&#45;&gt;Node5 -->
<g id="edge22" class="edge">
<title>Node12&#45;&gt;Node5</title>
<path fill="none" stroke="#63b8ff" d="M119.19,-148.22C125.04,-149.27 130.89,-150.23 136.5,-151 331.06,-177.67 561.2,-188.71 682.68,-193"/>
<polygon fill="#63b8ff" stroke="#63b8ff" points="682.47,-196.5 692.58,-193.34 682.71,-189.5 682.47,-196.5"/>
</g>
<!-- Node12&#45;&gt;Node11 -->
<g id="edge23" class="edge">
<title>Node12&#45;&gt;Node11</title>
<path fill="none" stroke="#63b8ff" d="M119.42,-120.8C160.58,-111.04 215.4,-98.05 258.71,-87.78"/>
<polygon fill="#63b8ff" stroke="#63b8ff" points="259.35,-91.23 268.27,-85.51 257.74,-84.41 259.35,-91.23"/>
</g>
<!-- Node13&#45;&gt;Node5 -->
<g id="edge25" class="edge">
<title>Node13&#45;&gt;Node5</title>
<path fill="none" stroke="#63b8ff" d="M809.09,-145.67C804.64,-154.23 795.25,-167.58 786.35,-178.3"/>
<polygon fill="#63b8ff" stroke="#63b8ff" points="783.79,-175.92 779.8,-185.73 789.04,-180.55 783.79,-175.92"/>
</g>
<!-- Node15&#45;&gt;Node2 -->
<g id="edge28" class="edge">
<title>Node15&#45;&gt;Node2</title>
<path fill="none" stroke="#63b8ff" d="M1289.89,-151.3C1278.27,-166.95 1253.66,-191.73 1227.5,-206 1192.96,-224.84 1150.78,-237.01 1114.8,-244.62"/>
<polygon fill="#63b8ff" stroke="#63b8ff" points="1114.43,-241.12 1105.33,-246.53 1115.82,-247.98 1114.43,-241.12"/>
</g>
<!-- Node15&#45;&gt;Node5 -->
<g id="edge29" class="edge">
<title>Node15&#45;&gt;Node5</title>
<path fill="none" stroke="#63b8ff" d="M1232.78,-146.33C1220.14,-147.93 1206.93,-149.55 1194.5,-151 1076.05,-164.84 938.5,-179.14 852.16,-187.68"/>
<polygon fill="#63b8ff" stroke="#63b8ff" points="851.96,-184.18 842.35,-188.65 852.64,-191.15 851.96,-184.18"/>
</g>
<!-- Node15&#45;&gt;Node16 -->
<g id="edge30" class="edge">
<title>Node15&#45;&gt;Node16</title>
<path fill="none" stroke="#63b8ff" d="M1326.47,-120.64C1349.55,-109.93 1380.89,-95.4 1403.69,-84.82"/>
<polygon fill="#63b8ff" stroke="#63b8ff" points="1405.15,-88.01 1412.75,-80.62 1402.21,-81.65 1405.15,-88.01"/>
</g>
<!-- Node16&#45;&gt;Node2 -->
<g id="edge32" class="edge">
<title>Node16&#45;&gt;Node2</title>
<path fill="none" stroke="#63b8ff" d="M1434.79,-79.66C1430.96,-95.17 1413.67,-128.2 1392.5,-151 1364.37,-181.29 1355.45,-189.63 1317.5,-206 1252.92,-233.86 1173.19,-246.21 1115.1,-251.67"/>
<polygon fill="#63b8ff" stroke="#63b8ff" points="1114.94,-248.17 1105.29,-252.54 1115.56,-255.15 1114.94,-248.17"/>
</g>
<!-- Node17 -->
<g id="node17" class="node">
<title>Node17</title>
<g id="a_node17"><a xlink:title=" ">
<polygon fill="#e0e0e0" stroke="#999999" points="1456.5,-19 1410.5,-19 1410.5,0 1456.5,0 1456.5,-19"/>
<text text-anchor="middle" x="1433.5" y="-7" font-family="Helvetica,sans-Serif" font-size="10.00">stdio.h</text>
</a>
</g>
</g>
<!-- Node16&#45;&gt;Node17 -->
<g id="edge31" class="edge">
<title>Node16&#45;&gt;Node17</title>
<path fill="none" stroke="#63b8ff" d="M1433.5,-60.37C1433.5,-52.5 1433.5,-40.6 1433.5,-30.39"/>
<polygon fill="#63b8ff" stroke="#63b8ff" points="1437,-30.68 1433.5,-20.68 1430,-30.68 1437,-30.68"/>
</g>
</g>
</svg>
        <g id="navigator" transform="translate(0 0)" fill="#404254">
                <rect fill="#f2f5e9" fill-opacity="0.5" stroke="#606060" stroke-width=".5" x="0" y="0" width="60" height="60"/>
                <use id="zoomplus" xlink:href="#zoomPlus" x="17" y="9" onmousedown="handleZoom(evt,'in')"/>
                <use id="zoomminus" xlink:href="#zoomMin" x="42" y="9" onmousedown="handleZoom(evt,'out')"/>
                <use id="reset" xlink:href="#resetDef" x="30" y="36" onmousedown="handleReset()"/>
                <g id="arrowUp" xlink:href="#dirArrow" transform="translate(30 24)" onmousedown="handlePan(0,-1)">
                  <use xlink:href="#rim" fill="#404040">
                        <set attributeName="fill" to="#808080" begin="arrowUp.mouseover" end="arrowUp.mouseout"/>
                  </use>
                  <path fill="none" stroke="white" stroke-width="1.5" d="M0,-3.0v7 M-2.5,-0.5L0,-3.0L2.5,-0.5"/>
                </g>
                <g id="arrowRight" xlink:href="#dirArrow" transform="rotate(90) translate(36 -43)" onmousedown="handlePan(1,0)">
                  <use xlink:href="#rim" fill="#404040">
                        <set attributeName="fill" to="#808080" begin="arrowRight.mouseover" end="arrowRight.mouseout"/>
                  </use>
                  <path fill="none" stroke="white" stroke-width="1.5" d="M0,-3.0v7 M-2.5,-0.5L0,-3.0L2.5,-0.5"/>
                </g>
                <g id="arrowDown" xlink:href="#dirArrow" transform="rotate(180) translate(-30 -48)" onmousedown="handlePan(0,1)">
                  <use xlink:href="#rim" fill="#404040">
                        <set attributeName="fill" to="#808080" begin="arrowDown.mouseover" end="arrowDown.mouseout"/>
                  </use>
                  <path fill="none" stroke="white" stroke-width="1.5" d="M0,-3.0v7 M-2.5,-0.5L0,-3.0L2.5,-0.5"/>
                </g>
                <g id="arrowLeft" xlink:href="#dirArrow" transform="rotate(270) translate(-36 17)" onmousedown="handlePan(-1,0)">
                  <use xlink:href="#rim" fill="#404040">
                        <set attributeName="fill" to="#808080" begin="arrowLeft.mouseover" end="arrowLeft.mouseout"/>
                  </use>
                  <path fill="none" stroke="white" stroke-width="1.5" d="M0,-3.0v7 M-2.5,-0.5L0,-3.0L2.5,-0.5"/>
                </g>
        </g>
        <svg viewBox="0 0 15 15" width="100%" height="30px" preserveAspectRatio="xMaxYMin meet">
         <g id="arrow_out" transform="scale(0.3 0.3)">
          <a xlink:href="part__func__window_8h__incl_org.svg" target="_base">
           <rect id="button" ry="5" rx="5" y="6" x="6" height="38" width="38"
                fill="#f2f5e9" fill-opacity="0.5" stroke="#606060" stroke-width="1.0"/>
           <path id="arrow"
             d="M 11.500037,31.436501 C 11.940474,20.09759 22.043105,11.32322 32.158766,21.979434 L 37.068811,17.246167 C 37.068811,17.246167 37.088388,32 37.088388,32 L 22.160133,31.978069 C 22.160133,31.978069 26.997745,27.140456 26.997745,27.140456 C 18.528582,18.264221 13.291696,25.230495 11.500037,31.436501 z"
             style="fill:#404040;"/>
          </a>
         </g>
        </svg>
</svg>
