<?xml version="1.0" encoding="UTF-8" standalone="no"?>
<!DOCTYPE svg PUBLIC "-//W3C//DTD SVG 1.1//EN"
 "http://www.w3.org/Graphics/SVG/1.1/DTD/svg11.dtd">
<!-- Generated by graphviz version 7.1.0 (0)
 -->
<!-- Title: ViennaRNA/part_func.h Pages: 1 -->
<svg width="268pt" height="82pt"
 viewBox="0.00 0.00 267.50 82.00" xmlns="http://www.w3.org/2000/svg" xmlns:xlink="http://www.w3.org/1999/xlink">
<g id="graph0" class="graph" transform="scale(1 1) rotate(0) translate(4 78)">
<title>ViennaRNA/part_func.h</title>
<!-- Node1 -->
<g id="node1" class="node">
<title>Node1</title>
<g id="a_node1"><a xlink:title="Partition function implementations.">
<polygon fill="#999999" stroke="#666666" points="181.5,-74 61.5,-74 61.5,-55 181.5,-55 181.5,-74"/>
<text text-anchor="middle" x="121.5" y="-62" font-family="Helvetica,sans-Serif" font-size="10.00">ViennaRNA/part_func.h</text>
</a>
</g>
</g>
<!-- Node2 -->
<g id="node2" class="node">
<title>Node2</title>
<g id="a_node2"><a xlink:href="alifold_8h.html" target="_top" xlink:title="Functions for comparative structure prediction using RNA sequence alignments.">
<polygon fill="white" stroke="#666666" points="105,-19 0,-19 0,0 105,0 105,-19"/>
<text text-anchor="middle" x="52.5" y="-7" font-family="Helvetica,sans-Serif" font-size="10.00">ViennaRNA/alifold.h</text>
</a>
</g>
</g>
<!-- Node1&#45;&gt;Node2 -->
<g id="edge1" class="edge">
<title>Node1&#45;&gt;Node2</title>
<path fill="none" stroke="#63b8ff" d="M100.85,-47.64C88.8,-38.39 74.05,-27.05 64.03,-19.36"/>
<polygon fill="#63b8ff" stroke="#63b8ff" points="98.53,-50.27 108.59,-53.59 102.8,-44.72 98.53,-50.27"/>
</g>
<!-- Node3 -->
<g id="node3" class="node">
<title>Node3</title>
<g id="a_node3"><a xlink:href="part__func__co_8h.html" target="_top" xlink:title="Partition function for two RNA sequences.">
<polygon fill="white" stroke="#666666" points="259.5,-19 123.5,-19 123.5,0 259.5,0 259.5,-19"/>
<text text-anchor="middle" x="191.5" y="-7" font-family="Helvetica,sans-Serif" font-size="10.00">ViennaRNA/part_func_co.h</text>
</a>
</g>
</g>
<!-- Node1&#45;&gt;Node3 -->
<g id="edge2" class="edge">
<title>Node1&#45;&gt;Node3</title>
<path fill="none" stroke="#63b8ff" d="M142.45,-47.64C154.67,-38.39 169.64,-27.05 179.8,-19.36"/>
<polygon fill="#63b8ff" stroke="#63b8ff" points="140.44,-44.77 134.58,-53.6 144.67,-50.35 140.44,-44.77"/>
</g>
</g>
</svg>
