<?xml version="1.0" encoding="UTF-8" standalone="no"?>
<!DOCTYPE svg PUBLIC "-//W3C//DTD SVG 1.1//EN"
 "http://www.w3.org/Graphics/SVG/1.1/DTD/svg11.dtd">
<!-- Generated by graphviz version 7.1.0 (0)
 -->
<!-- Title: ViennaRNA/pk_plex.h Pages: 1 -->
<!--zoomable 390 -->
<svg id="main" version="1.1" xmlns="http://www.w3.org/2000/svg" xmlns:xlink="http://www.w3.org/1999/xlink" xml:space="preserve" onload="init(evt)">
<style type="text/css"><![CDATA[
.edge:hover path { stroke: red; }
.edge:hover polygon { stroke: red; fill: red; }
]]></style>
<script type="text/javascript"><![CDATA[
var edges = document.getElementsByTagName('g');
if (edges && edges.length) {
  for (var i=0;i<edges.length;i++) {
    if (edges[i].id.substr(0,4)=='edge') {
      edges[i].setAttribute('class','edge');
    }
  }
}
]]></script>
        <defs>
                <circle id="rim" cx="0" cy="0" r="7"/>
                <circle id="rim2" cx="0" cy="0" r="3.5"/>
                <g id="zoomPlus">
                        <use xlink:href="#rim" fill="#404040">
                                <set attributeName="fill" to="#808080" begin="zoomplus.mouseover" end="zoomplus.mouseout"/>
                        </use>
                        <path d="M-4,0h8M0,-4v8" fill="none" stroke="white" stroke-width="1.5" pointer-events="none"/>
                </g>
                <g id="zoomMin">
                        <use xlink:href="#rim" fill="#404040">
                                <set attributeName="fill" to="#808080" begin="zoomminus.mouseover" end="zoomminus.mouseout"/>
                        </use>
                        <path d="M-4,0h8" fill="none" stroke="white" stroke-width="1.5" pointer-events="none"/>
                </g>
                <g id="dirArrow">
                        <path fill="none" stroke="white" stroke-width="1.5" d="M0,-3.0v7 M-2.5,-0.5L0,-3.0L2.5,-0.5"/>
                </g>
               <g id="resetDef">
                       <use xlink:href="#rim2" fill="#404040">
                               <set attributeName="fill" to="#808080" begin="reset.mouseover" end="reset.mouseout"/>
                       </use>
               </g>
        </defs>

<script type="text/javascript">
var viewWidth = 1368;
var viewHeight = 390;
var sectionId = 'dynsection-0';
</script>
<script xlink:href="svgpan.js"/>
<svg id="graph" class="graph">
<g id="viewport">
<title>ViennaRNA/pk_plex.h</title>
<!-- Node1 -->
<g id="node1" class="node">
<title>Node1</title>
<g id="a_node1"><a xlink:title="Heuristics for two&#45;step pseudoknot forming interaction predictions.">
<polygon fill="#999999" stroke="#666666" points="827.5,-382 714.5,-382 714.5,-363 827.5,-363 827.5,-382"/>
<text text-anchor="middle" x="771" y="-370" font-family="Helvetica,sans-Serif" font-size="10.00">ViennaRNA/pk_plex.h</text>
</a>
</g>
</g>
<!-- Node2 -->
<g id="node2" class="node">
<title>Node2</title>
<g id="a_node2"><a xlink:href="fold__compound_8h.html" target="_top" xlink:title="The Basic Fold Compound API.">
<polygon fill="white" stroke="#666666" points="844,-327 698,-327 698,-308 844,-308 844,-327"/>
<text text-anchor="middle" x="771" y="-315" font-family="Helvetica,sans-Serif" font-size="10.00">ViennaRNA/fold_compound.h</text>
</a>
</g>
</g>
<!-- Node1&#45;&gt;Node2 -->
<g id="edge1" class="edge">
<title>Node1&#45;&gt;Node2</title>
<path fill="none" stroke="#63b8ff" d="M771,-362.75C771,-356.27 771,-347.16 771,-338.9"/>
<polygon fill="#63b8ff" stroke="#63b8ff" points="774.5,-338.96 771,-328.96 767.5,-338.96 774.5,-338.96"/>
</g>
<!-- Node3 -->
<g id="node3" class="node">
<title>Node3</title>
<g id="a_node3"><a xlink:href="model_8h.html" target="_top" xlink:title="The model details data structure and its corresponding modifiers.">
<polygon fill="white" stroke="#666666" points="106,-145.5 0,-145.5 0,-126.5 106,-126.5 106,-145.5"/>
<text text-anchor="middle" x="53" y="-133.5" font-family="Helvetica,sans-Serif" font-size="10.00">ViennaRNA/model.h</text>
</a>
</g>
</g>
<!-- Node2&#45;&gt;Node3 -->
<g id="edge2" class="edge">
<title>Node2&#45;&gt;Node3</title>
<path fill="none" stroke="#63b8ff" d="M697.77,-311.22C629.16,-305.23 524.11,-293.4 435,-272 300.8,-239.77 147.9,-177.64 83.81,-150.37"/>
<polygon fill="#63b8ff" stroke="#63b8ff" points="85.21,-147.17 74.64,-146.45 82.46,-153.6 85.21,-147.17"/>
</g>
<!-- Node4 -->
<g id="node4" class="node">
<title>Node4</title>
<g id="a_node4"><a xlink:href="params_2basic_8h.html" target="_top" xlink:title="Functions to deal with sets of energy parameters.">
<polygon fill="white" stroke="#666666" points="640,-272 502,-272 502,-253 640,-253 640,-272"/>
<text text-anchor="middle" x="571" y="-260" font-family="Helvetica,sans-Serif" font-size="10.00">ViennaRNA/params/basic.h</text>
</a>
</g>
</g>
<!-- Node2&#45;&gt;Node4 -->
<g id="edge3" class="edge">
<title>Node2&#45;&gt;Node4</title>
<path fill="none" stroke="#63b8ff" d="M731.86,-307.51C696.72,-298.69 645.58,-285.18 610.38,-275.46"/>
<polygon fill="#63b8ff" stroke="#63b8ff" points="611.58,-272.16 601.01,-272.85 609.71,-278.9 611.58,-272.16"/>
</g>
<!-- Node8 -->
<g id="node8" class="node">
<title>Node8</title>
<g id="a_node8"><a xlink:href="dp__matrices_8h.html" target="_top" xlink:title="Functions to deal with standard dynamic programming (DP) matrices.">
<polygon fill="white" stroke="#666666" points="257.5,-145.5 124.5,-145.5 124.5,-126.5 257.5,-126.5 257.5,-145.5"/>
<text text-anchor="middle" x="191" y="-133.5" font-family="Helvetica,sans-Serif" font-size="10.00">ViennaRNA/dp_matrices.h</text>
</a>
</g>
</g>
<!-- Node2&#45;&gt;Node8 -->
<g id="edge36" class="edge">
<title>Node2&#45;&gt;Node8</title>
<path fill="none" stroke="#63b8ff" d="M697.61,-310.82C638.74,-304.77 554.73,-293.07 484,-272 377.79,-240.36 260.11,-179.71 212.45,-151.77"/>
<polygon fill="#63b8ff" stroke="#63b8ff" points="214.29,-148.79 203.92,-146.64 210.69,-154.79 214.29,-148.79"/>
</g>
<!-- Node9 -->
<g id="node9" class="node">
<title>Node9</title>
<g id="a_node9"><a xlink:href="hard_8h.html" target="_top" xlink:title="Functions and data structures for handling of secondary structure hard constraints.">
<polygon fill="white" stroke="#666666" points="1214.5,-151 1095.5,-151 1095.5,-121 1214.5,-121 1214.5,-151"/>
<text text-anchor="start" x="1103.5" y="-139" font-family="Helvetica,sans-Serif" font-size="10.00">ViennaRNA/constraints</text>
<text text-anchor="middle" x="1155" y="-128" font-family="Helvetica,sans-Serif" font-size="10.00">/hard.h</text>
</a>
</g>
</g>
<!-- Node2&#45;&gt;Node9 -->
<g id="edge37" class="edge">
<title>Node2&#45;&gt;Node9</title>
<path fill="none" stroke="#63b8ff" d="M844.21,-309.34C909.55,-302.24 999.48,-289.82 1031,-272 1078.16,-245.34 1114.82,-191.55 1136.06,-160.52"/>
<polygon fill="#63b8ff" stroke="#63b8ff" points="1138.75,-162.78 1141.54,-152.56 1132.99,-158.8 1138.75,-162.78"/>
</g>
<!-- Node11 -->
<g id="node11" class="node">
<title>Node11</title>
<g id="a_node11"><a xlink:href="soft_8h.html" target="_top" xlink:title="Functions and data structures for secondary structure soft constraints.">
<polygon fill="white" stroke="#666666" points="770.5,-151 651.5,-151 651.5,-121 770.5,-121 770.5,-151"/>
<text text-anchor="start" x="659.5" y="-139" font-family="Helvetica,sans-Serif" font-size="10.00">ViennaRNA/constraints</text>
<text text-anchor="middle" x="711" y="-128" font-family="Helvetica,sans-Serif" font-size="10.00">/soft.h</text>
</a>
</g>
</g>
<!-- Node2&#45;&gt;Node11 -->
<g id="edge38" class="edge">
<title>Node2&#45;&gt;Node11</title>
<path fill="none" stroke="#63b8ff" d="M765.03,-307.79C756.84,-286.59 746.13,-230.87 729,-187 725.68,-178.51 721.24,-169.63 717.34,-161.75"/>
<polygon fill="#63b8ff" stroke="#63b8ff" points="720.52,-160.28 713.02,-152.78 714.21,-163.31 720.52,-160.28"/>
</g>
<!-- Node12 -->
<g id="node12" class="node">
<title>Node12</title>
<g id="a_node12"><a xlink:href="grammar_8h.html" target="_top" xlink:title="Implementations for the RNA folding grammar.">
<polygon fill="white" stroke="#666666" points="905.5,-145.5 788.5,-145.5 788.5,-126.5 905.5,-126.5 905.5,-145.5"/>
<text text-anchor="middle" x="847" y="-133.5" font-family="Helvetica,sans-Serif" font-size="10.00">ViennaRNA/grammar.h</text>
</a>
</g>
</g>
<!-- Node2&#45;&gt;Node12 -->
<g id="edge39" class="edge">
<title>Node2&#45;&gt;Node12</title>
<path fill="none" stroke="#63b8ff" d="M771.56,-307.84C778.81,-280.31 814.81,-194.31 834.67,-155.88"/>
<polygon fill="#63b8ff" stroke="#63b8ff" points="837.62,-157.78 839.31,-147.32 831.46,-154.45 837.62,-157.78"/>
</g>
<!-- Node13 -->
<g id="node13" class="node">
<title>Node13</title>
<g id="a_node13"><a xlink:href="structured__domains_8h.html" target="_top" xlink:title="This module provides interfaces that deal with additional structured domains in the folding grammar.">
<polygon fill="white" stroke="#666666" points="1038.5,-151 923.5,-151 923.5,-121 1038.5,-121 1038.5,-151"/>
<text text-anchor="start" x="931.5" y="-139" font-family="Helvetica,sans-Serif" font-size="10.00">ViennaRNA/structured</text>
<text text-anchor="middle" x="981" y="-128" font-family="Helvetica,sans-Serif" font-size="10.00">_domains.h</text>
</a>
</g>
</g>
<!-- Node2&#45;&gt;Node13 -->
<g id="edge40" class="edge">
<title>Node2&#45;&gt;Node13</title>
<path fill="none" stroke="#63b8ff" d="M781.41,-307.6C813.15,-280.47 909.29,-198.3 955.57,-158.74"/>
<polygon fill="#63b8ff" stroke="#63b8ff" points="957.65,-161.56 962.98,-152.41 953.1,-156.24 957.65,-161.56"/>
</g>
<!-- Node14 -->
<g id="node14" class="node">
<title>Node14</title>
<g id="a_node14"><a xlink:href="unstructured__domains_8h.html" target="_top" xlink:title="Functions to modify unstructured domains, e.g. to incorporate ligands binding to unpaired stretches.">
<polygon fill="white" stroke="#666666" points="633.5,-151 508.5,-151 508.5,-121 633.5,-121 633.5,-151"/>
<text text-anchor="start" x="516.5" y="-139" font-family="Helvetica,sans-Serif" font-size="10.00">ViennaRNA/unstructured</text>
<text text-anchor="middle" x="571" y="-128" font-family="Helvetica,sans-Serif" font-size="10.00">_domains.h</text>
</a>
</g>
</g>
<!-- Node2&#45;&gt;Node14 -->
<g id="edge41" class="edge">
<title>Node2&#45;&gt;Node14</title>
<path fill="none" stroke="#63b8ff" d="M759.32,-307.67C736.56,-285.74 686.79,-227.64 638,-187 625.36,-176.47 610.42,-166.23 597.76,-157.79"/>
<polygon fill="#63b8ff" stroke="#63b8ff" points="599.71,-154.88 589.44,-152.27 595.84,-160.72 599.71,-154.88"/>
</g>
<!-- Node17 -->
<g id="node17" class="node">
<title>Node17</title>
<g id="a_node17"><a xlink:href="sequence_8h.html" target="_top" xlink:title="Functions and data structures related to sequence representations ,.">
<polygon fill="white" stroke="#666666" points="1232,-272 1110,-272 1110,-253 1232,-253 1232,-272"/>
<text text-anchor="middle" x="1171" y="-260" font-family="Helvetica,sans-Serif" font-size="10.00">ViennaRNA/sequence.h</text>
</a>
</g>
</g>
<!-- Node2&#45;&gt;Node17 -->
<g id="edge34" class="edge">
<title>Node2&#45;&gt;Node17</title>
<path fill="none" stroke="#63b8ff" d="M833.64,-307.51C905.37,-297.73 1022.58,-282.2 1098.28,-272.45"/>
<polygon fill="#63b8ff" stroke="#63b8ff" points="1098.62,-275.93 1108.1,-271.18 1097.73,-268.99 1098.62,-275.93"/>
</g>
<!-- Node18 -->
<g id="node18" class="node">
<title>Node18</title>
<g id="a_node18"><a xlink:href="zscore_8h_source.html" target="_top" xlink:title=" ">
<polygon fill="white" stroke="#666666" points="1359.5,-272 1250.5,-272 1250.5,-253 1359.5,-253 1359.5,-272"/>
<text text-anchor="middle" x="1305" y="-260" font-family="Helvetica,sans-Serif" font-size="10.00">ViennaRNA/zscore.h</text>
</a>
</g>
</g>
<!-- Node2&#45;&gt;Node18 -->
<g id="edge42" class="edge">
<title>Node2&#45;&gt;Node18</title>
<path fill="none" stroke="#63b8ff" d="M844.36,-310.42C934.56,-302.74 1092.64,-288.66 1238.81,-272.21"/>
<polygon fill="#63b8ff" stroke="#63b8ff" points="1239.16,-275.69 1248.7,-271.09 1238.37,-268.73 1239.16,-275.69"/>
</g>
<!-- Node4&#45;&gt;Node2 -->
<g id="edge32" class="edge">
<title>Node4&#45;&gt;Node2</title>
<path fill="none" stroke="#63b8ff" d="M609.97,-272.45C645.05,-281.25 696.19,-294.76 731.44,-304.49"/>
<polygon fill="#63b8ff" stroke="#63b8ff" points="730.26,-307.8 740.83,-307.1 732.14,-301.05 730.26,-307.8"/>
</g>
<!-- Node4&#45;&gt;Node3 -->
<g id="edge33" class="edge">
<title>Node4&#45;&gt;Node3</title>
<path fill="none" stroke="#63b8ff" d="M533.75,-252.55C441.74,-230.43 203.78,-173.24 101.21,-148.59"/>
<polygon fill="#63b8ff" stroke="#63b8ff" points="102.28,-145.24 91.73,-146.31 100.64,-152.05 102.28,-145.24"/>
</g>
<!-- Node5 -->
<g id="node5" class="node">
<title>Node5</title>
<g id="a_node5"><a xlink:href="constants_8h.html" target="_top" xlink:title="Energy parameter constants.">
<polygon fill="white" stroke="#666666" points="434,-145.5 276,-145.5 276,-126.5 434,-126.5 434,-145.5"/>
<text text-anchor="middle" x="355" y="-133.5" font-family="Helvetica,sans-Serif" font-size="10.00">ViennaRNA/params/constants.h</text>
</a>
</g>
</g>
<!-- Node4&#45;&gt;Node5 -->
<g id="edge4" class="edge">
<title>Node4&#45;&gt;Node5</title>
<path fill="none" stroke="#63b8ff" d="M555.47,-252.55C518.57,-231.28 425.39,-177.57 380.27,-151.56"/>
<polygon fill="#63b8ff" stroke="#63b8ff" points="382.12,-148.59 371.7,-146.63 378.62,-154.65 382.12,-148.59"/>
</g>
<!-- Node7 -->
<g id="node7" class="node">
<title>Node7</title>
<g id="a_node7"><a xlink:href="datastructures_2basic_8h.html" target="_top" xlink:title="Various data structures and pre&#45;processor macros.">
<polygon fill="white" stroke="#666666" points="638,-217 504,-217 504,-187 638,-187 638,-217"/>
<text text-anchor="start" x="512" y="-205" font-family="Helvetica,sans-Serif" font-size="10.00">ViennaRNA/datastructures</text>
<text text-anchor="middle" x="571" y="-194" font-family="Helvetica,sans-Serif" font-size="10.00">/basic.h</text>
</a>
</g>
</g>
<!-- Node4&#45;&gt;Node7 -->
<g id="edge6" class="edge">
<title>Node4&#45;&gt;Node7</title>
<path fill="none" stroke="#63b8ff" d="M566.04,-252.87C564.65,-246.4 564.07,-237.2 564.3,-228.45"/>
<polygon fill="#63b8ff" stroke="#63b8ff" points="567.78,-228.85 565.02,-218.62 560.8,-228.34 567.78,-228.85"/>
</g>
<!-- Node6 -->
<g id="node6" class="node">
<title>Node6</title>
<g id="a_node6"><a xlink:title=" ">
<polygon fill="#e0e0e0" stroke="#999999" points="379,-79.5 331,-79.5 331,-60.5 379,-60.5 379,-79.5"/>
<text text-anchor="middle" x="355" y="-67.5" font-family="Helvetica,sans-Serif" font-size="10.00">limits.h</text>
</a>
</g>
</g>
<!-- Node5&#45;&gt;Node6 -->
<g id="edge5" class="edge">
<title>Node5&#45;&gt;Node6</title>
<path fill="none" stroke="#63b8ff" d="M355,-126.1C355,-117.12 355,-102.95 355,-91.22"/>
<polygon fill="#63b8ff" stroke="#63b8ff" points="358.5,-91.34 355,-81.34 351.5,-91.34 358.5,-91.34"/>
</g>
<!-- Node7&#45;&gt;Node2 -->
<g id="edge8" class="edge">
<title>Node7&#45;&gt;Node2</title>
<path fill="none" stroke="#63b8ff" d="M596.01,-217.31C620.46,-231.29 658.76,-253.16 692,-272 709.8,-282.09 729.9,-293.41 745.36,-302.1"/>
<polygon fill="#63b8ff" stroke="#63b8ff" points="743.5,-305.07 753.93,-306.92 746.93,-298.97 743.5,-305.07"/>
</g>
<!-- Node7&#45;&gt;Node3 -->
<g id="edge9" class="edge">
<title>Node7&#45;&gt;Node3</title>
<path fill="none" stroke="#63b8ff" d="M503.84,-196.02C414.61,-188.87 252.27,-173.95 115,-151 110.35,-150.22 105.52,-149.31 100.7,-148.34"/>
<polygon fill="#63b8ff" stroke="#63b8ff" points="101.57,-144.95 91.06,-146.29 100.12,-151.79 101.57,-144.95"/>
</g>
<!-- Node7&#45;&gt;Node4 -->
<g id="edge10" class="edge">
<title>Node7&#45;&gt;Node4</title>
<path fill="none" stroke="#63b8ff" d="M576.87,-217.11C577.81,-224.43 577.99,-233.49 577.44,-241.51"/>
<polygon fill="#63b8ff" stroke="#63b8ff" points="573.98,-241 576.15,-251.37 580.92,-241.91 573.98,-241"/>
</g>
<!-- Node7&#45;&gt;Node5 -->
<g id="edge7" class="edge">
<title>Node7&#45;&gt;Node5</title>
<path fill="none" stroke="#63b8ff" d="M522.26,-186.56C484.14,-175.26 431.77,-159.75 395.84,-149.1"/>
<polygon fill="#63b8ff" stroke="#63b8ff" points="397.28,-145.88 386.7,-146.39 395.29,-152.59 397.28,-145.88"/>
</g>
<!-- Node7&#45;&gt;Node8 -->
<g id="edge11" class="edge">
<title>Node7&#45;&gt;Node8</title>
<path fill="none" stroke="#63b8ff" d="M503.58,-191.38C439.98,-181.55 342.31,-165.7 258,-151 252.44,-150.03 246.66,-149 240.92,-147.96"/>
<polygon fill="#63b8ff" stroke="#63b8ff" points="241.95,-144.59 231.48,-146.23 240.68,-151.48 241.95,-144.59"/>
</g>
<!-- Node7&#45;&gt;Node9 -->
<g id="edge14" class="edge">
<title>Node7&#45;&gt;Node9</title>
<path fill="none" stroke="#63b8ff" d="M638.21,-194.5C730.61,-185.45 902.04,-168.2 1048,-151 1059.56,-149.64 1071.82,-148.11 1083.74,-146.58"/>
<polygon fill="#63b8ff" stroke="#63b8ff" points="1084.08,-150.07 1093.55,-145.31 1083.18,-143.13 1084.08,-150.07"/>
</g>
<!-- Node7&#45;&gt;Node11 -->
<g id="edge18" class="edge">
<title>Node7&#45;&gt;Node11</title>
<path fill="none" stroke="#63b8ff" d="M596.68,-186.64C615.35,-177.57 641.04,-165.75 663.38,-155.93"/>
<polygon fill="#63b8ff" stroke="#63b8ff" points="664.54,-159.24 672.31,-152.03 661.74,-152.82 664.54,-159.24"/>
</g>
<!-- Node7&#45;&gt;Node12 -->
<g id="edge22" class="edge">
<title>Node7&#45;&gt;Node12</title>
<path fill="none" stroke="#63b8ff" d="M633.28,-186.56C682.82,-175.07 751.22,-159.21 797.17,-148.55"/>
<polygon fill="#63b8ff" stroke="#63b8ff" points="797.92,-151.97 806.87,-146.3 796.34,-145.15 797.92,-151.97"/>
</g>
<!-- Node7&#45;&gt;Node13 -->
<g id="edge24" class="edge">
<title>Node7&#45;&gt;Node13</title>
<path fill="none" stroke="#63b8ff" d="M638.44,-192.51C705.44,-183.78 811.35,-169.18 911.82,-151.51"/>
<polygon fill="#63b8ff" stroke="#63b8ff" points="912.37,-154.96 921.6,-149.77 911.15,-148.07 912.37,-154.96"/>
</g>
<!-- Node7&#45;&gt;Node14 -->
<g id="edge25" class="edge">
<title>Node7&#45;&gt;Node14</title>
<path fill="none" stroke="#63b8ff" d="M565.28,-186.8C564.36,-179.67 564.05,-170.82 564.37,-162.56"/>
<polygon fill="#63b8ff" stroke="#63b8ff" points="567.86,-162.92 565.16,-152.67 560.88,-162.36 567.86,-162.92"/>
</g>
<!-- Node15 -->
<g id="node15" class="node">
<title>Node15</title>
<g id="a_node15"><a xlink:href="utils_2structures_8h.html" target="_top" xlink:title="Various utility&#45; and helper&#45;functions for secondary structure parsing, converting,...">
<polygon fill="white" stroke="#666666" points="543,-79.5 399,-79.5 399,-60.5 543,-60.5 543,-79.5"/>
<text text-anchor="middle" x="471" y="-67.5" font-family="Helvetica,sans-Serif" font-size="10.00">ViennaRNA/utils/structures.h</text>
</a>
</g>
</g>
<!-- Node7&#45;&gt;Node15 -->
<g id="edge31" class="edge">
<title>Node7&#45;&gt;Node15</title>
<path fill="none" stroke="#63b8ff" d="M534.07,-186.6C518.4,-178.02 501.33,-165.9 490,-151 476.51,-133.27 469.18,-108.53 467.31,-91.27"/>
<polygon fill="#63b8ff" stroke="#63b8ff" points="470.81,-91.16 466.98,-81.29 463.81,-91.4 470.81,-91.16"/>
</g>
<!-- Node8&#45;&gt;Node2 -->
<g id="edge13" class="edge">
<title>Node8&#45;&gt;Node2</title>
<path fill="none" stroke="#63b8ff" d="M210.97,-145.86C259.7,-170.09 387.52,-237.89 502,-272 562.57,-290.05 632.88,-301.21 686.47,-307.85"/>
<polygon fill="#63b8ff" stroke="#63b8ff" points="685.79,-311.29 696.14,-309.02 686.63,-304.34 685.79,-311.29"/>
</g>
<!-- Node8&#45;&gt;Node7 -->
<g id="edge12" class="edge">
<title>Node8&#45;&gt;Node7</title>
<path fill="none" stroke="#63b8ff" d="M247.64,-145.95C257.16,-147.66 266.88,-149.41 276,-151 349.39,-163.79 432.9,-177.47 492.35,-187.27"/>
<polygon fill="#63b8ff" stroke="#63b8ff" points="491.61,-190.7 502.04,-188.87 492.75,-183.79 491.61,-190.7"/>
</g>
<!-- Node9&#45;&gt;Node2 -->
<g id="edge15" class="edge">
<title>Node9&#45;&gt;Node2</title>
<path fill="none" stroke="#63b8ff" d="M1152.45,-151.31C1140.63,-179.59 1101.26,-242.45 1049,-272 1017.09,-290.04 925.33,-302.54 855.83,-309.6"/>
<polygon fill="#63b8ff" stroke="#63b8ff" points="855.55,-306.11 845.95,-310.58 856.24,-313.08 855.55,-306.11"/>
</g>
<!-- Node10 -->
<g id="node10" class="node">
<title>Node10</title>
<g id="a_node10"><a xlink:href="constraints_2basic_8h.html" target="_top" xlink:title="Functions and data structures for constraining secondary structure predictions and evaluation.">
<polygon fill="white" stroke="#666666" points="1126.5,-85 1007.5,-85 1007.5,-55 1126.5,-55 1126.5,-85"/>
<text text-anchor="start" x="1015.5" y="-73" font-family="Helvetica,sans-Serif" font-size="10.00">ViennaRNA/constraints</text>
<text text-anchor="middle" x="1067" y="-62" font-family="Helvetica,sans-Serif" font-size="10.00">/basic.h</text>
</a>
</g>
</g>
<!-- Node9&#45;&gt;Node10 -->
<g id="edge16" class="edge">
<title>Node9&#45;&gt;Node10</title>
<path fill="none" stroke="#63b8ff" d="M1135.47,-120.8C1123.82,-112.32 1108.81,-101.4 1095.81,-91.95"/>
<polygon fill="#63b8ff" stroke="#63b8ff" points="1098.15,-89.33 1088,-86.28 1094.03,-94.99 1098.15,-89.33"/>
</g>
<!-- Node10&#45;&gt;Node2 -->
<g id="edge17" class="edge">
<title>Node10&#45;&gt;Node2</title>
<path fill="none" stroke="#63b8ff" d="M1066.85,-85.38C1065.98,-102.55 1062.3,-131.39 1048,-151 987.73,-233.67 872.47,-282.62 811.36,-303.88"/>
<polygon fill="#63b8ff" stroke="#63b8ff" points="810.38,-300.52 802.04,-307.05 812.63,-307.15 810.38,-300.52"/>
</g>
<!-- Node11&#45;&gt;Node2 -->
<g id="edge20" class="edge">
<title>Node11&#45;&gt;Node2</title>
<path fill="none" stroke="#63b8ff" d="M727.67,-151.42C734.8,-161.17 742.12,-174.5 747,-187 761.66,-224.53 771.61,-270.73 773.69,-296.57"/>
<polygon fill="#63b8ff" stroke="#63b8ff" points="770.19,-296.39 774.01,-306.27 777.18,-296.17 770.19,-296.39"/>
</g>
<!-- Node11&#45;&gt;Node7 -->
<g id="edge19" class="edge">
<title>Node11&#45;&gt;Node7</title>
<path fill="none" stroke="#63b8ff" d="M685.42,-151.31C666.7,-160.4 640.91,-172.27 618.51,-182.12"/>
<polygon fill="#63b8ff" stroke="#63b8ff" points="617.31,-178.83 609.55,-186.03 620.11,-185.24 617.31,-178.83"/>
</g>
<!-- Node11&#45;&gt;Node10 -->
<g id="edge21" class="edge">
<title>Node11&#45;&gt;Node10</title>
<path fill="none" stroke="#63b8ff" d="M770.82,-122.76C773.92,-122.16 777,-121.57 780,-121 853.5,-107.14 937.86,-92.61 996.01,-82.81"/>
<polygon fill="#63b8ff" stroke="#63b8ff" points="996.5,-86.27 1005.78,-81.16 995.34,-79.37 996.5,-86.27"/>
</g>
<!-- Node12&#45;&gt;Node2 -->
<g id="edge23" class="edge">
<title>Node12&#45;&gt;Node2</title>
<path fill="none" stroke="#63b8ff" d="M846.35,-145.99C838.87,-174 802.82,-260.04 783.09,-298.08"/>
<polygon fill="#63b8ff" stroke="#63b8ff" points="780.21,-296.06 778.5,-306.51 786.36,-299.41 780.21,-296.06"/>
</g>
<!-- Node14&#45;&gt;Node2 -->
<g id="edge27" class="edge">
<title>Node14&#45;&gt;Node2</title>
<path fill="none" stroke="#63b8ff" d="M603.71,-151.44C620.28,-160.78 639.98,-173.66 656,-187 698.88,-222.72 742.52,-271.93 761.73,-298.21"/>
<polygon fill="#63b8ff" stroke="#63b8ff" points="758.82,-300.15 767.36,-306.42 764.6,-296.2 758.82,-300.15"/>
</g>
<!-- Node14&#45;&gt;Node7 -->
<g id="edge26" class="edge">
<title>Node14&#45;&gt;Node7</title>
<path fill="none" stroke="#63b8ff" d="M576.71,-151.16C577.64,-158.28 577.95,-167.13 577.63,-175.39"/>
<polygon fill="#63b8ff" stroke="#63b8ff" points="574.15,-175.04 576.84,-185.29 581.12,-175.6 574.15,-175.04"/>
</g>
<!-- Node14&#45;&gt;Node15 -->
<g id="edge28" class="edge">
<title>Node14&#45;&gt;Node15</title>
<path fill="none" stroke="#63b8ff" d="M548.81,-120.8C532.61,-110.43 510.69,-96.4 494.25,-85.88"/>
<polygon fill="#63b8ff" stroke="#63b8ff" points="496.4,-83.1 486.09,-80.66 492.63,-89 496.4,-83.1"/>
</g>
<!-- Node15&#45;&gt;Node7 -->
<g id="edge30" class="edge">
<title>Node15&#45;&gt;Node7</title>
<path fill="none" stroke="#63b8ff" d="M477.57,-79.77C483.85,-95.46 491.07,-128.75 508,-151 516.85,-162.64 529.2,-172.59 540.7,-180.47"/>
<polygon fill="#63b8ff" stroke="#63b8ff" points="538.52,-183.22 548.8,-185.77 542.35,-177.37 538.52,-183.22"/>
</g>
<!-- Node16 -->
<g id="node16" class="node">
<title>Node16</title>
<g id="a_node16"><a xlink:title=" ">
<polygon fill="#e0e0e0" stroke="#999999" points="494,-19 448,-19 448,0 494,0 494,-19"/>
<text text-anchor="middle" x="471" y="-7" font-family="Helvetica,sans-Serif" font-size="10.00">stdio.h</text>
</a>
</g>
</g>
<!-- Node15&#45;&gt;Node16 -->
<g id="edge29" class="edge">
<title>Node15&#45;&gt;Node16</title>
<path fill="none" stroke="#63b8ff" d="M471,-60.37C471,-52.5 471,-40.6 471,-30.39"/>
<polygon fill="#63b8ff" stroke="#63b8ff" points="474.5,-30.68 471,-20.68 467.5,-30.68 474.5,-30.68"/>
</g>
<!-- Node17&#45;&gt;Node2 -->
<g id="edge35" class="edge">
<title>Node17&#45;&gt;Node2</title>
<path fill="none" stroke="#63b8ff" d="M1109.66,-272.31C1041.51,-281.61 931.19,-296.24 855.05,-306.09"/>
<polygon fill="#63b8ff" stroke="#63b8ff" points="855.04,-302.56 845.57,-307.32 855.94,-309.51 855.04,-302.56"/>
</g>
</g>
</svg>
        <g id="navigator" transform="translate(0 0)" fill="#404254">
                <rect fill="#f2f5e9" fill-opacity="0.5" stroke="#606060" stroke-width=".5" x="0" y="0" width="60" height="60"/>
                <use id="zoomplus" xlink:href="#zoomPlus" x="17" y="9" onmousedown="handleZoom(evt,'in')"/>
                <use id="zoomminus" xlink:href="#zoomMin" x="42" y="9" onmousedown="handleZoom(evt,'out')"/>
                <use id="reset" xlink:href="#resetDef" x="30" y="36" onmousedown="handleReset()"/>
                <g id="arrowUp" xlink:href="#dirArrow" transform="translate(30 24)" onmousedown="handlePan(0,-1)">
                  <use xlink:href="#rim" fill="#404040">
                        <set attributeName="fill" to="#808080" begin="arrowUp.mouseover" end="arrowUp.mouseout"/>
                  </use>
                  <path fill="none" stroke="white" stroke-width="1.5" d="M0,-3.0v7 M-2.5,-0.5L0,-3.0L2.5,-0.5"/>
                </g>
                <g id="arrowRight" xlink:href="#dirArrow" transform="rotate(90) translate(36 -43)" onmousedown="handlePan(1,0)">
                  <use xlink:href="#rim" fill="#404040">
                        <set attributeName="fill" to="#808080" begin="arrowRight.mouseover" end="arrowRight.mouseout"/>
                  </use>
                  <path fill="none" stroke="white" stroke-width="1.5" d="M0,-3.0v7 M-2.5,-0.5L0,-3.0L2.5,-0.5"/>
                </g>
                <g id="arrowDown" xlink:href="#dirArrow" transform="rotate(180) translate(-30 -48)" onmousedown="handlePan(0,1)">
                  <use xlink:href="#rim" fill="#404040">
                        <set attributeName="fill" to="#808080" begin="arrowDown.mouseover" end="arrowDown.mouseout"/>
                  </use>
                  <path fill="none" stroke="white" stroke-width="1.5" d="M0,-3.0v7 M-2.5,-0.5L0,-3.0L2.5,-0.5"/>
                </g>
                <g id="arrowLeft" xlink:href="#dirArrow" transform="rotate(270) translate(-36 17)" onmousedown="handlePan(-1,0)">
                  <use xlink:href="#rim" fill="#404040">
                        <set attributeName="fill" to="#808080" begin="arrowLeft.mouseover" end="arrowLeft.mouseout"/>
                  </use>
                  <path fill="none" stroke="white" stroke-width="1.5" d="M0,-3.0v7 M-2.5,-0.5L0,-3.0L2.5,-0.5"/>
                </g>
        </g>
        <svg viewBox="0 0 15 15" width="100%" height="30px" preserveAspectRatio="xMaxYMin meet">
         <g id="arrow_out" transform="scale(0.3 0.3)">
          <a xlink:href="pk__plex_8h__incl_org.svg" target="_base">
           <rect id="button" ry="5" rx="5" y="6" x="6" height="38" width="38"
                fill="#f2f5e9" fill-opacity="0.5" stroke="#606060" stroke-width="1.0"/>
           <path id="arrow"
             d="M 11.500037,31.436501 C 11.940474,20.09759 22.043105,11.32322 32.158766,21.979434 L 37.068811,17.246167 C 37.068811,17.246167 37.088388,32 37.088388,32 L 22.160133,31.978069 C 22.160133,31.978069 26.997745,27.140456 26.997745,27.140456 C 18.528582,18.264221 13.291696,25.230495 11.500037,31.436501 z"
             style="fill:#404040;"/>
          </a>
         </g>
        </svg>
</svg>
