<?xml version="1.0" encoding="UTF-8" standalone="no"?>
<!DOCTYPE svg PUBLIC "-//W3C//DTD SVG 1.1//EN"
 "http://www.w3.org/Graphics/SVG/1.1/DTD/svg11.dtd">
<!-- Generated by graphviz version 7.1.0 (0)
 -->
<!-- Title: ViennaRNA/plotting/utils.h Pages: 1 -->
<svg width="1564pt" height="346pt"
 viewBox="0.00 0.00 1564.00 346.00" xmlns="http://www.w3.org/2000/svg" xmlns:xlink="http://www.w3.org/1999/xlink">
<g id="graph0" class="graph" transform="scale(1 1) rotate(0) translate(4 342)">
<title>ViennaRNA/plotting/utils.h</title>
<!-- Node1 -->
<g id="node1" class="node">
<title>Node1</title>
<g id="a_node1"><a xlink:title="Various utilities to assist in plotting secondary structures and consensus structures.">
<polygon fill="#999999" stroke="#666666" points="1065.5,-338 962.5,-338 962.5,-308 1065.5,-308 1065.5,-338"/>
<text text-anchor="start" x="970.5" y="-326" font-family="Helvetica,sans-Serif" font-size="10.00">ViennaRNA/plotting</text>
<text text-anchor="middle" x="1014" y="-315" font-family="Helvetica,sans-Serif" font-size="10.00">/utils.h</text>
</a>
</g>
</g>
<!-- Node2 -->
<g id="node2" class="node">
<title>Node2</title>
<g id="a_node2"><a xlink:href="datastructures_2basic_8h.html" target="_top" xlink:title="Various data structures and pre&#45;processor macros.">
<polygon fill="white" stroke="#666666" points="1081,-272 947,-272 947,-242 1081,-242 1081,-272"/>
<text text-anchor="start" x="955" y="-260" font-family="Helvetica,sans-Serif" font-size="10.00">ViennaRNA/datastructures</text>
<text text-anchor="middle" x="1014" y="-249" font-family="Helvetica,sans-Serif" font-size="10.00">/basic.h</text>
</a>
</g>
</g>
<!-- Node1&#45;&gt;Node2 -->
<g id="edge1" class="edge">
<title>Node1&#45;&gt;Node2</title>
<path fill="none" stroke="#63b8ff" d="M1014,-307.8C1014,-300.67 1014,-291.82 1014,-283.56"/>
<polygon fill="#63b8ff" stroke="#63b8ff" points="1017.5,-283.68 1014,-273.68 1010.5,-283.68 1017.5,-283.68"/>
</g>
<!-- Node6 -->
<g id="node6" class="node">
<title>Node6</title>
<g id="a_node6"><a xlink:href="model_8h.html" target="_top" xlink:title="The model details data structure and its corresponding modifiers.">
<polygon fill="white" stroke="#666666" points="106,-79.5 0,-79.5 0,-60.5 106,-60.5 106,-79.5"/>
<text text-anchor="middle" x="53" y="-67.5" font-family="Helvetica,sans-Serif" font-size="10.00">ViennaRNA/model.h</text>
</a>
</g>
</g>
<!-- Node1&#45;&gt;Node6 -->
<g id="edge43" class="edge">
<title>Node1&#45;&gt;Node6</title>
<path fill="none" stroke="#63b8ff" d="M962.2,-318.19C800.34,-305.8 306,-264.02 157,-206 117.13,-190.48 103.3,-185.5 78,-151 64.91,-133.15 58.55,-108.26 55.54,-91"/>
<polygon fill="#63b8ff" stroke="#63b8ff" points="59.03,-90.64 54.09,-81.26 52.1,-91.67 59.03,-90.64"/>
</g>
<!-- Node16 -->
<g id="node16" class="node">
<title>Node16</title>
<g id="a_node16"><a xlink:href="utils_2structures_8h.html" target="_top" xlink:title="Various utility&#45; and helper&#45;functions for secondary structure parsing, converting,...">
<polygon fill="white" stroke="#666666" points="1556,-79.5 1412,-79.5 1412,-60.5 1556,-60.5 1556,-79.5"/>
<text text-anchor="middle" x="1484" y="-67.5" font-family="Helvetica,sans-Serif" font-size="10.00">ViennaRNA/utils/structures.h</text>
</a>
</g>
</g>
<!-- Node1&#45;&gt;Node16 -->
<g id="edge44" class="edge">
<title>Node1&#45;&gt;Node16</title>
<path fill="none" stroke="#63b8ff" d="M1065.63,-322.11C1168.47,-319.12 1396.81,-295.69 1488,-151 1499.34,-133.01 1495.7,-107.98 1490.94,-90.73"/>
<polygon fill="#63b8ff" stroke="#63b8ff" points="1494.28,-89.67 1487.93,-81.2 1487.61,-91.79 1494.28,-89.67"/>
</g>
<!-- Node3 -->
<g id="node3" class="node">
<title>Node3</title>
<g id="a_node3"><a xlink:href="constants_8h.html" target="_top" xlink:title="Energy parameter constants.">
<polygon fill="white" stroke="#666666" points="282,-79.5 124,-79.5 124,-60.5 282,-60.5 282,-79.5"/>
<text text-anchor="middle" x="203" y="-67.5" font-family="Helvetica,sans-Serif" font-size="10.00">ViennaRNA/params/constants.h</text>
</a>
</g>
</g>
<!-- Node2&#45;&gt;Node3 -->
<g id="edge2" class="edge">
<title>Node2&#45;&gt;Node3</title>
<path fill="none" stroke="#63b8ff" d="M946.6,-253.32C747.15,-244.67 170.4,-214.36 117,-151 95.36,-125.32 137.15,-99.58 169.71,-84.48"/>
<polygon fill="#63b8ff" stroke="#63b8ff" points="170.77,-87.83 178.49,-80.57 167.93,-81.44 170.77,-87.83"/>
</g>
<!-- Node5 -->
<g id="node5" class="node">
<title>Node5</title>
<g id="a_node5"><a xlink:href="fold__compound_8h.html" target="_top" xlink:title="The Basic Fold Compound API.">
<polygon fill="white" stroke="#666666" points="862,-206 716,-206 716,-187 862,-187 862,-206"/>
<text text-anchor="middle" x="789" y="-194" font-family="Helvetica,sans-Serif" font-size="10.00">ViennaRNA/fold_compound.h</text>
</a>
</g>
</g>
<!-- Node2&#45;&gt;Node5 -->
<g id="edge4" class="edge">
<title>Node2&#45;&gt;Node5</title>
<path fill="none" stroke="#63b8ff" d="M958.38,-241.54C920.22,-231.62 870.2,-218.61 834.43,-209.31"/>
<polygon fill="#63b8ff" stroke="#63b8ff" points="835.38,-205.94 824.82,-206.81 833.62,-212.72 835.38,-205.94"/>
</g>
<!-- Node2&#45;&gt;Node6 -->
<g id="edge34" class="edge">
<title>Node2&#45;&gt;Node6</title>
<path fill="none" stroke="#63b8ff" d="M946.7,-255.18C780.75,-252.6 355.52,-242.52 219,-206 165.81,-191.77 149.6,-187.07 108,-151 88.05,-133.7 71.92,-107.61 62.4,-89.97"/>
<polygon fill="#63b8ff" stroke="#63b8ff" points="65.53,-88.4 57.83,-81.12 59.31,-91.61 65.53,-88.4"/>
</g>
<!-- Node7 -->
<g id="node7" class="node">
<title>Node7</title>
<g id="a_node7"><a xlink:href="params_2basic_8h.html" target="_top" xlink:title="Functions to deal with sets of energy parameters.">
<polygon fill="white" stroke="#666666" points="264,-145.5 126,-145.5 126,-126.5 264,-126.5 264,-145.5"/>
<text text-anchor="middle" x="195" y="-133.5" font-family="Helvetica,sans-Serif" font-size="10.00">ViennaRNA/params/basic.h</text>
</a>
</g>
</g>
<!-- Node2&#45;&gt;Node7 -->
<g id="edge35" class="edge">
<title>Node2&#45;&gt;Node7</title>
<path fill="none" stroke="#63b8ff" d="M946.82,-251.12C854.42,-243.62 683.41,-227.82 539,-206 431.24,-189.72 306.35,-163.57 240.62,-148.57"/>
<polygon fill="#63b8ff" stroke="#63b8ff" points="241.44,-145.17 230.91,-146.34 239.87,-151.99 241.44,-145.17"/>
</g>
<!-- Node9 -->
<g id="node9" class="node">
<title>Node9</title>
<g id="a_node9"><a xlink:href="dp__matrices_8h.html" target="_top" xlink:title="Functions to deal with standard dynamic programming (DP) matrices.">
<polygon fill="white" stroke="#666666" points="1303.5,-145.5 1170.5,-145.5 1170.5,-126.5 1303.5,-126.5 1303.5,-145.5"/>
<text text-anchor="middle" x="1237" y="-133.5" font-family="Helvetica,sans-Serif" font-size="10.00">ViennaRNA/dp_matrices.h</text>
</a>
</g>
</g>
<!-- Node2&#45;&gt;Node9 -->
<g id="edge36" class="edge">
<title>Node2&#45;&gt;Node9</title>
<path fill="none" stroke="#63b8ff" d="M1036.31,-241.65C1076.52,-218.64 1160.59,-173.79 1206.21,-151.01"/>
<polygon fill="#63b8ff" stroke="#63b8ff" points="1207.63,-154.21 1215.05,-146.64 1204.53,-147.93 1207.63,-154.21"/>
</g>
<!-- Node10 -->
<g id="node10" class="node">
<title>Node10</title>
<g id="a_node10"><a xlink:href="hard_8h.html" target="_top" xlink:title="Functions and data structures for handling of secondary structure hard constraints.">
<polygon fill="white" stroke="#666666" points="575.5,-151 456.5,-151 456.5,-121 575.5,-121 575.5,-151"/>
<text text-anchor="start" x="464.5" y="-139" font-family="Helvetica,sans-Serif" font-size="10.00">ViennaRNA/constraints</text>
<text text-anchor="middle" x="516" y="-128" font-family="Helvetica,sans-Serif" font-size="10.00">/hard.h</text>
</a>
</g>
</g>
<!-- Node2&#45;&gt;Node10 -->
<g id="edge37" class="edge">
<title>Node2&#45;&gt;Node10</title>
<path fill="none" stroke="#63b8ff" d="M946.78,-248.69C884.09,-241.02 788.28,-227.1 707,-206 655.53,-192.64 598.41,-171.07 560.17,-155.6"/>
<polygon fill="#63b8ff" stroke="#63b8ff" points="561.88,-152.52 551.3,-151.99 559.24,-159 561.88,-152.52"/>
</g>
<!-- Node12 -->
<g id="node12" class="node">
<title>Node12</title>
<g id="a_node12"><a xlink:href="soft_8h.html" target="_top" xlink:title="Functions and data structures for secondary structure soft constraints.">
<polygon fill="white" stroke="#666666" points="1152.5,-151 1033.5,-151 1033.5,-121 1152.5,-121 1152.5,-151"/>
<text text-anchor="start" x="1041.5" y="-139" font-family="Helvetica,sans-Serif" font-size="10.00">ViennaRNA/constraints</text>
<text text-anchor="middle" x="1093" y="-128" font-family="Helvetica,sans-Serif" font-size="10.00">/soft.h</text>
</a>
</g>
</g>
<!-- Node2&#45;&gt;Node12 -->
<g id="edge38" class="edge">
<title>Node2&#45;&gt;Node12</title>
<path fill="none" stroke="#63b8ff" d="M1018.82,-241.88C1029.6,-221.77 1053.94,-184.63 1071.99,-160.38"/>
<polygon fill="#63b8ff" stroke="#63b8ff" points="1074.58,-162.74 1077.88,-152.67 1069.02,-158.49 1074.58,-162.74"/>
</g>
<!-- Node13 -->
<g id="node13" class="node">
<title>Node13</title>
<g id="a_node13"><a xlink:href="grammar_8h.html" target="_top" xlink:title="Implementations for the RNA folding grammar.">
<polygon fill="white" stroke="#666666" points="399.5,-145.5 282.5,-145.5 282.5,-126.5 399.5,-126.5 399.5,-145.5"/>
<text text-anchor="middle" x="341" y="-133.5" font-family="Helvetica,sans-Serif" font-size="10.00">ViennaRNA/grammar.h</text>
</a>
</g>
</g>
<!-- Node2&#45;&gt;Node13 -->
<g id="edge39" class="edge">
<title>Node2&#45;&gt;Node13</title>
<path fill="none" stroke="#63b8ff" d="M946.54,-248.72C872.15,-240.27 749.08,-225.03 644,-206 551.98,-189.34 445.67,-163.61 386.6,-148.73"/>
<polygon fill="#63b8ff" stroke="#63b8ff" points="387.8,-145.42 377.25,-146.36 386.09,-152.21 387.8,-145.42"/>
</g>
<!-- Node14 -->
<g id="node14" class="node">
<title>Node14</title>
<g id="a_node14"><a xlink:href="structured__domains_8h.html" target="_top" xlink:title="This module provides interfaces that deal with additional structured domains in the folding grammar.">
<polygon fill="white" stroke="#666666" points="1015.5,-151 900.5,-151 900.5,-121 1015.5,-121 1015.5,-151"/>
<text text-anchor="start" x="908.5" y="-139" font-family="Helvetica,sans-Serif" font-size="10.00">ViennaRNA/structured</text>
<text text-anchor="middle" x="958" y="-128" font-family="Helvetica,sans-Serif" font-size="10.00">_domains.h</text>
</a>
</g>
</g>
<!-- Node2&#45;&gt;Node14 -->
<g id="edge40" class="edge">
<title>Node2&#45;&gt;Node14</title>
<path fill="none" stroke="#63b8ff" d="M1007.36,-241.88C998.06,-222.13 981.03,-185.94 969.61,-161.68"/>
<polygon fill="#63b8ff" stroke="#63b8ff" points="972.88,-160.4 965.45,-152.84 966.55,-163.38 972.88,-160.4"/>
</g>
<!-- Node15 -->
<g id="node15" class="node">
<title>Node15</title>
<g id="a_node15"><a xlink:href="unstructured__domains_8h.html" target="_top" xlink:title="Functions to modify unstructured domains, e.g. to incorporate ligands binding to unpaired stretches.">
<polygon fill="white" stroke="#666666" points="1446.5,-151 1321.5,-151 1321.5,-121 1446.5,-121 1446.5,-151"/>
<text text-anchor="start" x="1329.5" y="-139" font-family="Helvetica,sans-Serif" font-size="10.00">ViennaRNA/unstructured</text>
<text text-anchor="middle" x="1384" y="-128" font-family="Helvetica,sans-Serif" font-size="10.00">_domains.h</text>
</a>
</g>
</g>
<!-- Node2&#45;&gt;Node15 -->
<g id="edge41" class="edge">
<title>Node2&#45;&gt;Node15</title>
<path fill="none" stroke="#63b8ff" d="M1054.4,-241.53C1119.49,-219.71 1247.65,-178.45 1323.61,-154.82"/>
<polygon fill="#63b8ff" stroke="#63b8ff" points="1324.47,-158.22 1332.98,-151.91 1322.39,-151.53 1324.47,-158.22"/>
</g>
<!-- Node2&#45;&gt;Node16 -->
<g id="edge42" class="edge">
<title>Node2&#45;&gt;Node16</title>
<path fill="none" stroke="#63b8ff" d="M1081.21,-247.23C1188.9,-232.48 1393.18,-199.52 1447,-151 1464.05,-135.63 1470.72,-109.28 1475.36,-91.05"/>
<polygon fill="#63b8ff" stroke="#63b8ff" points="1478.74,-91.98 1477.96,-81.41 1471.98,-90.16 1478.74,-91.98"/>
</g>
<!-- Node4 -->
<g id="node4" class="node">
<title>Node4</title>
<g id="a_node4"><a xlink:title=" ">
<polygon fill="#e0e0e0" stroke="#999999" points="227,-19 179,-19 179,0 227,0 227,-19"/>
<text text-anchor="middle" x="203" y="-7" font-family="Helvetica,sans-Serif" font-size="10.00">limits.h</text>
</a>
</g>
</g>
<!-- Node3&#45;&gt;Node4 -->
<g id="edge3" class="edge">
<title>Node3&#45;&gt;Node4</title>
<path fill="none" stroke="#63b8ff" d="M203,-60.37C203,-52.5 203,-40.6 203,-30.39"/>
<polygon fill="#63b8ff" stroke="#63b8ff" points="206.5,-30.68 203,-20.68 199.5,-30.68 206.5,-30.68"/>
</g>
<!-- Node5&#45;&gt;Node6 -->
<g id="edge5" class="edge">
<title>Node5&#45;&gt;Node6</title>
<path fill="none" stroke="#63b8ff" d="M715.82,-190.46C630.21,-183.78 494.16,-170.53 447,-151 426.8,-142.63 428.23,-129.29 408,-121 286.6,-71.24 244.26,-107.48 115,-85 110.41,-84.2 105.65,-83.29 100.91,-82.32"/>
<polygon fill="#63b8ff" stroke="#63b8ff" points="101.92,-78.95 91.41,-80.29 100.46,-85.8 101.92,-78.95"/>
</g>
<!-- Node5&#45;&gt;Node7 -->
<g id="edge6" class="edge">
<title>Node5&#45;&gt;Node7</title>
<path fill="none" stroke="#63b8ff" d="M715.7,-191.66C613.84,-185.59 424.22,-172.24 264,-151 257.36,-150.12 250.42,-149.07 243.61,-147.94"/>
<polygon fill="#63b8ff" stroke="#63b8ff" points="244.26,-144.5 233.81,-146.25 243.07,-151.4 244.26,-144.5"/>
</g>
<!-- Node8 -->
<g id="node8" class="node">
<title>Node8</title>
<g id="a_node8"><a xlink:href="sequence_8h.html" target="_top" xlink:title="Functions and data structures related to sequence representations ,.">
<polygon fill="white" stroke="#666666" points="716,-145.5 594,-145.5 594,-126.5 716,-126.5 716,-145.5"/>
<text text-anchor="middle" x="655" y="-133.5" font-family="Helvetica,sans-Serif" font-size="10.00">ViennaRNA/sequence.h</text>
</a>
</g>
</g>
<!-- Node5&#45;&gt;Node8 -->
<g id="edge11" class="edge">
<title>Node5&#45;&gt;Node8</title>
<path fill="none" stroke="#63b8ff" d="M763.64,-186.62C739.79,-177.08 704.55,-161.81 680.63,-150.73"/>
<polygon fill="#63b8ff" stroke="#63b8ff" points="682.42,-147.71 671.89,-146.61 679.44,-154.04 682.42,-147.71"/>
</g>
<!-- Node5&#45;&gt;Node9 -->
<g id="edge13" class="edge">
<title>Node5&#45;&gt;Node9</title>
<path fill="none" stroke="#63b8ff" d="M862.28,-187.47C935.92,-179.53 1052.43,-166.37 1153,-151 1158.97,-150.09 1165.2,-149.05 1171.45,-147.97"/>
<polygon fill="#63b8ff" stroke="#63b8ff" points="1171.95,-151.44 1181.19,-146.26 1170.73,-144.55 1171.95,-151.44"/>
</g>
<!-- Node5&#45;&gt;Node10 -->
<g id="edge16" class="edge">
<title>Node5&#45;&gt;Node10</title>
<path fill="none" stroke="#63b8ff" d="M742.22,-186.55C699.51,-177.79 635.88,-164.24 586.94,-153.52"/>
<polygon fill="#63b8ff" stroke="#63b8ff" points="587.79,-150.12 577.27,-151.39 586.29,-156.96 587.79,-150.12"/>
</g>
<!-- Node5&#45;&gt;Node12 -->
<g id="edge20" class="edge">
<title>Node5&#45;&gt;Node12</title>
<path fill="none" stroke="#63b8ff" d="M830.98,-186.53C876.62,-177.71 951.37,-163.75 1016,-151 1018,-150.61 1020.03,-150.2 1022.08,-149.79"/>
<polygon fill="#63b8ff" stroke="#63b8ff" points="1022.6,-153.26 1031.72,-147.86 1021.23,-146.4 1022.6,-153.26"/>
</g>
<!-- Node5&#45;&gt;Node13 -->
<g id="edge24" class="edge">
<title>Node5&#45;&gt;Node13</title>
<path fill="none" stroke="#63b8ff" d="M715.52,-189.01C637.92,-181.39 512.38,-167.65 405,-151 399.25,-150.11 393.26,-149.1 387.34,-148.03"/>
<polygon fill="#63b8ff" stroke="#63b8ff" points="388.1,-144.61 377.62,-146.23 386.81,-151.5 388.1,-144.61"/>
</g>
<!-- Node5&#45;&gt;Node14 -->
<g id="edge26" class="edge">
<title>Node5&#45;&gt;Node14</title>
<path fill="none" stroke="#63b8ff" d="M814.67,-186.62C838.68,-178.3 875.28,-165.63 905.48,-155.18"/>
<polygon fill="#63b8ff" stroke="#63b8ff" points="906.55,-158.51 914.86,-151.93 904.26,-151.9 906.55,-158.51"/>
</g>
<!-- Node5&#45;&gt;Node15 -->
<g id="edge27" class="edge">
<title>Node5&#45;&gt;Node15</title>
<path fill="none" stroke="#63b8ff" d="M862.11,-191.49C962.21,-185.66 1147.14,-173.06 1304,-151 1306.01,-150.72 1308.05,-150.41 1310.11,-150.09"/>
<polygon fill="#63b8ff" stroke="#63b8ff" points="1310.48,-153.58 1319.78,-148.5 1309.34,-146.68 1310.48,-153.58"/>
</g>
<!-- Node18 -->
<g id="node18" class="node">
<title>Node18</title>
<g id="a_node18"><a xlink:href="zscore_8h_source.html" target="_top" xlink:title=" ">
<polygon fill="white" stroke="#666666" points="843.5,-145.5 734.5,-145.5 734.5,-126.5 843.5,-126.5 843.5,-145.5"/>
<text text-anchor="middle" x="789" y="-133.5" font-family="Helvetica,sans-Serif" font-size="10.00">ViennaRNA/zscore.h</text>
</a>
</g>
</g>
<!-- Node5&#45;&gt;Node18 -->
<g id="edge33" class="edge">
<title>Node5&#45;&gt;Node18</title>
<path fill="none" stroke="#63b8ff" d="M789,-186.87C789,-179 789,-167.1 789,-156.89"/>
<polygon fill="#63b8ff" stroke="#63b8ff" points="792.5,-157.18 789,-147.18 785.5,-157.18 792.5,-157.18"/>
</g>
<!-- Node7&#45;&gt;Node2 -->
<g id="edge8" class="edge">
<title>Node7&#45;&gt;Node2</title>
<path fill="none" stroke="#63b8ff" d="M240.64,-146C309.29,-160.39 442.77,-188.74 557,-206 689.32,-225.99 843.96,-240.93 935.24,-249.06"/>
<polygon fill="#63b8ff" stroke="#63b8ff" points="934.82,-252.54 945.09,-249.93 935.44,-245.57 934.82,-252.54"/>
</g>
<!-- Node7&#45;&gt;Node3 -->
<g id="edge7" class="edge">
<title>Node7&#45;&gt;Node3</title>
<path fill="none" stroke="#63b8ff" d="M196.11,-126.1C197.23,-117.12 199.01,-102.95 200.47,-91.22"/>
<polygon fill="#63b8ff" stroke="#63b8ff" points="203.94,-91.68 201.71,-81.33 197,-90.81 203.94,-91.68"/>
</g>
<!-- Node7&#45;&gt;Node5 -->
<g id="edge9" class="edge">
<title>Node7&#45;&gt;Node5</title>
<path fill="none" stroke="#63b8ff" d="M249.85,-145.99C260.55,-147.83 271.63,-149.63 282,-151 430.27,-170.66 603.71,-183.56 704.54,-190.18"/>
<polygon fill="#63b8ff" stroke="#63b8ff" points="704.16,-193.66 714.36,-190.82 704.61,-186.68 704.16,-193.66"/>
</g>
<!-- Node7&#45;&gt;Node6 -->
<g id="edge10" class="edge">
<title>Node7&#45;&gt;Node6</title>
<path fill="none" stroke="#63b8ff" d="M175.26,-126.1C151.31,-115.31 110.69,-97 82.9,-84.48"/>
<polygon fill="#63b8ff" stroke="#63b8ff" points="84.51,-81.36 73.96,-80.45 81.64,-87.75 84.51,-81.36"/>
</g>
<!-- Node8&#45;&gt;Node5 -->
<g id="edge12" class="edge">
<title>Node8&#45;&gt;Node5</title>
<path fill="none" stroke="#63b8ff" d="M680.57,-145.97C704.38,-155.49 739.41,-170.67 763.26,-181.72"/>
<polygon fill="#63b8ff" stroke="#63b8ff" points="761.75,-184.88 772.29,-185.97 764.73,-178.54 761.75,-184.88"/>
</g>
<!-- Node9&#45;&gt;Node2 -->
<g id="edge14" class="edge">
<title>Node9&#45;&gt;Node2</title>
<path fill="none" stroke="#63b8ff" d="M1223.96,-145.97C1191.49,-165.14 1107.07,-210.43 1055.62,-236.54"/>
<polygon fill="#63b8ff" stroke="#63b8ff" points="1054.19,-233.34 1046.84,-240.96 1057.34,-239.59 1054.19,-233.34"/>
</g>
<!-- Node9&#45;&gt;Node5 -->
<g id="edge15" class="edge">
<title>Node9&#45;&gt;Node5</title>
<path fill="none" stroke="#63b8ff" d="M1200.26,-145.99C1190.76,-147.77 1180.56,-149.54 1171,-151 1069.31,-166.54 951.32,-179.82 873.62,-187.73"/>
<polygon fill="#63b8ff" stroke="#63b8ff" points="873.56,-184.22 863.96,-188.71 874.26,-191.19 873.56,-184.22"/>
</g>
<!-- Node10&#45;&gt;Node5 -->
<g id="edge17" class="edge">
<title>Node10&#45;&gt;Node5</title>
<path fill="none" stroke="#63b8ff" d="M575.99,-148.67C625.64,-158.96 695.12,-173.85 741.1,-184.06"/>
<polygon fill="#63b8ff" stroke="#63b8ff" points="740.26,-187.46 750.79,-186.22 741.79,-180.63 740.26,-187.46"/>
</g>
<!-- Node11 -->
<g id="node11" class="node">
<title>Node11</title>
<g id="a_node11"><a xlink:href="constraints_2basic_8h.html" target="_top" xlink:title="Functions and data structures for constraining secondary structure predictions and evaluation.">
<polygon fill="white" stroke="#666666" points="931.5,-85 812.5,-85 812.5,-55 931.5,-55 931.5,-85"/>
<text text-anchor="start" x="820.5" y="-73" font-family="Helvetica,sans-Serif" font-size="10.00">ViennaRNA/constraints</text>
<text text-anchor="middle" x="872" y="-62" font-family="Helvetica,sans-Serif" font-size="10.00">/basic.h</text>
</a>
</g>
</g>
<!-- Node10&#45;&gt;Node11 -->
<g id="edge18" class="edge">
<title>Node10&#45;&gt;Node11</title>
<path fill="none" stroke="#63b8ff" d="M575.82,-122.76C578.92,-122.16 582,-121.57 585,-121 658.5,-107.14 742.86,-92.61 801.01,-82.81"/>
<polygon fill="#63b8ff" stroke="#63b8ff" points="801.5,-86.27 810.78,-81.16 800.34,-79.37 801.5,-86.27"/>
</g>
<!-- Node11&#45;&gt;Node5 -->
<g id="edge19" class="edge">
<title>Node11&#45;&gt;Node5</title>
<path fill="none" stroke="#63b8ff" d="M871.63,-85.23C870.56,-102.25 866.67,-130.95 853,-151 844.43,-163.58 831.03,-173.7 818.7,-181.09"/>
<polygon fill="#63b8ff" stroke="#63b8ff" points="817.08,-177.98 810.05,-185.91 820.49,-184.1 817.08,-177.98"/>
</g>
<!-- Node12&#45;&gt;Node2 -->
<g id="edge21" class="edge">
<title>Node12&#45;&gt;Node2</title>
<path fill="none" stroke="#63b8ff" d="M1087.99,-151.47C1077.06,-171.78 1052.67,-208.94 1034.7,-233.04"/>
<polygon fill="#63b8ff" stroke="#63b8ff" points="1032.15,-230.61 1028.85,-240.68 1037.71,-234.87 1032.15,-230.61"/>
</g>
<!-- Node12&#45;&gt;Node5 -->
<g id="edge22" class="edge">
<title>Node12&#45;&gt;Node5</title>
<path fill="none" stroke="#63b8ff" d="M1033.24,-151.15C973.44,-162.94 905.12,-175.74 855.89,-184.55"/>
<polygon fill="#63b8ff" stroke="#63b8ff" points="855.47,-181.07 846.23,-186.27 856.69,-187.96 855.47,-181.07"/>
</g>
<!-- Node12&#45;&gt;Node11 -->
<g id="edge23" class="edge">
<title>Node12&#45;&gt;Node11</title>
<path fill="none" stroke="#63b8ff" d="M1043.13,-120.56C1010.39,-111.08 967.36,-98.62 932.65,-88.56"/>
<polygon fill="#63b8ff" stroke="#63b8ff" points="933.72,-85.23 923.14,-85.81 931.78,-91.95 933.72,-85.23"/>
</g>
<!-- Node13&#45;&gt;Node5 -->
<g id="edge25" class="edge">
<title>Node13&#45;&gt;Node5</title>
<path fill="none" stroke="#63b8ff" d="M393.7,-145.95C403.48,-147.75 413.56,-149.54 423,-151 519.29,-165.93 630.16,-178.52 704.48,-186.46"/>
<polygon fill="#63b8ff" stroke="#63b8ff" points="703.81,-189.91 714.12,-187.48 704.55,-182.95 703.81,-189.91"/>
</g>
<!-- Node15&#45;&gt;Node2 -->
<g id="edge28" class="edge">
<title>Node15&#45;&gt;Node2</title>
<path fill="none" stroke="#63b8ff" d="M1343.62,-151.46C1278.55,-173.27 1150.39,-214.53 1074.42,-238.17"/>
<polygon fill="#63b8ff" stroke="#63b8ff" points="1073.56,-234.77 1065.04,-241.08 1075.63,-241.46 1073.56,-234.77"/>
</g>
<!-- Node15&#45;&gt;Node5 -->
<g id="edge29" class="edge">
<title>Node15&#45;&gt;Node5</title>
<path fill="none" stroke="#63b8ff" d="M1321.04,-151.13C1163.78,-173.19 978.58,-185.77 873.3,-191.55"/>
<polygon fill="#63b8ff" stroke="#63b8ff" points="873.42,-188.04 863.62,-192.08 873.8,-195.03 873.42,-188.04"/>
</g>
<!-- Node15&#45;&gt;Node16 -->
<g id="edge30" class="edge">
<title>Node15&#45;&gt;Node16</title>
<path fill="none" stroke="#63b8ff" d="M1406.19,-120.8C1422.39,-110.43 1444.31,-96.4 1460.75,-85.88"/>
<polygon fill="#63b8ff" stroke="#63b8ff" points="1462.37,-89 1468.91,-80.66 1458.6,-83.1 1462.37,-89"/>
</g>
<!-- Node16&#45;&gt;Node2 -->
<g id="edge32" class="edge">
<title>Node16&#45;&gt;Node2</title>
<path fill="none" stroke="#63b8ff" d="M1488.76,-79.95C1491.24,-96.54 1485.98,-132.08 1465,-151 1411.14,-199.56 1206.62,-232.53 1092.32,-247.26"/>
<polygon fill="#63b8ff" stroke="#63b8ff" points="1092.19,-243.74 1082.71,-248.48 1093.07,-250.69 1092.19,-243.74"/>
</g>
<!-- Node17 -->
<g id="node17" class="node">
<title>Node17</title>
<g id="a_node17"><a xlink:title=" ">
<polygon fill="#e0e0e0" stroke="#999999" points="1507,-19 1461,-19 1461,0 1507,0 1507,-19"/>
<text text-anchor="middle" x="1484" y="-7" font-family="Helvetica,sans-Serif" font-size="10.00">stdio.h</text>
</a>
</g>
</g>
<!-- Node16&#45;&gt;Node17 -->
<g id="edge31" class="edge">
<title>Node16&#45;&gt;Node17</title>
<path fill="none" stroke="#63b8ff" d="M1484,-60.37C1484,-52.5 1484,-40.6 1484,-30.39"/>
<polygon fill="#63b8ff" stroke="#63b8ff" points="1487.5,-30.68 1484,-20.68 1480.5,-30.68 1487.5,-30.68"/>
</g>
</g>
</svg>
