<?xml version="1.0" encoding="UTF-8" standalone="no"?>
<!DOCTYPE svg PUBLIC "-//W3C//DTD SVG 1.1//EN"
 "http://www.w3.org/Graphics/SVG/1.1/DTD/svg11.dtd">
<!-- Generated by graphviz version 7.1.0 (0)
 -->
<!-- Title: ViennaRNA/plotting/structures.h Pages: 1 -->
<svg width="278pt" height="93pt"
 viewBox="0.00 0.00 277.50 93.00" xmlns="http://www.w3.org/2000/svg" xmlns:xlink="http://www.w3.org/1999/xlink">
<g id="graph0" class="graph" transform="scale(1 1) rotate(0) translate(4 89)">
<title>ViennaRNA/plotting/structures.h</title>
<!-- Node1 -->
<g id="node1" class="node">
<title>Node1</title>
<g id="a_node1"><a xlink:title="Various functions for plotting RNA secondary structures.">
<polygon fill="#999999" stroke="#666666" points="179.5,-85 76.5,-85 76.5,-55 179.5,-55 179.5,-85"/>
<text text-anchor="start" x="84.5" y="-73" font-family="Helvetica,sans-Serif" font-size="10.00">ViennaRNA/plotting</text>
<text text-anchor="middle" x="128" y="-62" font-family="Helvetica,sans-Serif" font-size="10.00">/structures.h</text>
</a>
</g>
</g>
<!-- Node2 -->
<g id="node2" class="node">
<title>Node2</title>
<g id="a_node2"><a xlink:href="PS__dot_8h.html" target="_top" xlink:title="Use ViennaRNA/plotting/probabilities.h instead.">
<polygon fill="white" stroke="#666666" points="112,-19 0,-19 0,0 112,0 112,-19"/>
<text text-anchor="middle" x="56" y="-7" font-family="Helvetica,sans-Serif" font-size="10.00">ViennaRNA/PS_dot.h</text>
</a>
</g>
</g>
<!-- Node1&#45;&gt;Node2 -->
<g id="edge1" class="edge">
<title>Node1&#45;&gt;Node2</title>
<path fill="none" stroke="#63b8ff" d="M101.39,-47.38C89.35,-37.6 75.81,-26.6 66.68,-19.18"/>
<polygon fill="#63b8ff" stroke="#63b8ff" points="99.06,-50 109.03,-53.58 103.47,-44.56 99.06,-50"/>
</g>
<!-- Node3 -->
<g id="node3" class="node">
<title>Node3</title>
<g id="a_node3"><a xlink:href="plot__structure_8h.html" target="_top" xlink:title="Use ViennaRNA/plotting/structures.h instead.">
<polygon fill="white" stroke="#666666" points="269.5,-19 130.5,-19 130.5,0 269.5,0 269.5,-19"/>
<text text-anchor="middle" x="200" y="-7" font-family="Helvetica,sans-Serif" font-size="10.00">ViennaRNA/plot_structure.h</text>
</a>
</g>
</g>
<!-- Node1&#45;&gt;Node3 -->
<g id="edge2" class="edge">
<title>Node1&#45;&gt;Node3</title>
<path fill="none" stroke="#63b8ff" d="M154.61,-47.38C166.65,-37.6 180.19,-26.6 189.32,-19.18"/>
<polygon fill="#63b8ff" stroke="#63b8ff" points="152.53,-44.56 146.97,-53.58 156.94,-50 152.53,-44.56"/>
</g>
</g>
</svg>
