<?xml version="1.0" encoding="UTF-8" standalone="no"?>
<!DOCTYPE svg PUBLIC "-//W3C//DTD SVG 1.1//EN"
 "http://www.w3.org/Graphics/SVG/1.1/DTD/svg11.dtd">
<!-- Generated by graphviz version 7.1.0 (0)
 -->
<!-- Title: ViennaRNA/plot_structure.h Pages: 1 -->
<!--zoomable 467 -->
<svg id="main" version="1.1" xmlns="http://www.w3.org/2000/svg" xmlns:xlink="http://www.w3.org/1999/xlink" xml:space="preserve" onload="init(evt)">
<style type="text/css"><![CDATA[
.edge:hover path { stroke: red; }
.edge:hover polygon { stroke: red; fill: red; }
]]></style>
<script type="text/javascript"><![CDATA[
var edges = document.getElementsByTagName('g');
if (edges && edges.length) {
  for (var i=0;i<edges.length;i++) {
    if (edges[i].id.substr(0,4)=='edge') {
      edges[i].setAttribute('class','edge');
    }
  }
}
]]></script>
        <defs>
                <circle id="rim" cx="0" cy="0" r="7"/>
                <circle id="rim2" cx="0" cy="0" r="3.5"/>
                <g id="zoomPlus">
                        <use xlink:href="#rim" fill="#404040">
                                <set attributeName="fill" to="#808080" begin="zoomplus.mouseover" end="zoomplus.mouseout"/>
                        </use>
                        <path d="M-4,0h8M0,-4v8" fill="none" stroke="white" stroke-width="1.5" pointer-events="none"/>
                </g>
                <g id="zoomMin">
                        <use xlink:href="#rim" fill="#404040">
                                <set attributeName="fill" to="#808080" begin="zoomminus.mouseover" end="zoomminus.mouseout"/>
                        </use>
                        <path d="M-4,0h8" fill="none" stroke="white" stroke-width="1.5" pointer-events="none"/>
                </g>
                <g id="dirArrow">
                        <path fill="none" stroke="white" stroke-width="1.5" d="M0,-3.0v7 M-2.5,-0.5L0,-3.0L2.5,-0.5"/>
                </g>
               <g id="resetDef">
                       <use xlink:href="#rim2" fill="#404040">
                               <set attributeName="fill" to="#808080" begin="reset.mouseover" end="reset.mouseout"/>
                       </use>
               </g>
        </defs>

<script type="text/javascript">
var viewWidth = 1571;
var viewHeight = 467;
var sectionId = 'dynsection-0';
</script>
<script xlink:href="svgpan.js"/>
<svg id="graph" class="graph">
<g id="viewport">
<title>ViennaRNA/plot_structure.h</title>
<!-- Node1 -->
<g id="node1" class="node">
<title>Node1</title>
<g id="a_node1"><a xlink:title="Use ViennaRNA/plotting/structures.h instead.">
<polygon fill="#999999" stroke="#666666" points="1024.5,-459 885.5,-459 885.5,-440 1024.5,-440 1024.5,-459"/>
<text text-anchor="middle" x="955" y="-447" font-family="Helvetica,sans-Serif" font-size="10.00">ViennaRNA/plot_structure.h</text>
</a>
</g>
</g>
<!-- Node2 -->
<g id="node2" class="node">
<title>Node2</title>
<g id="a_node2"><a xlink:href="plotting_2structures_8h.html" target="_top" xlink:title="Various functions for plotting RNA secondary structures.">
<polygon fill="white" stroke="#666666" points="1006.5,-404 903.5,-404 903.5,-374 1006.5,-374 1006.5,-404"/>
<text text-anchor="start" x="911.5" y="-392" font-family="Helvetica,sans-Serif" font-size="10.00">ViennaRNA/plotting</text>
<text text-anchor="middle" x="955" y="-381" font-family="Helvetica,sans-Serif" font-size="10.00">/structures.h</text>
</a>
</g>
</g>
<!-- Node1&#45;&gt;Node2 -->
<g id="edge1" class="edge">
<title>Node1&#45;&gt;Node2</title>
<path fill="none" stroke="#63b8ff" d="M955,-439.87C955,-433.4 955,-424.2 955,-415.45"/>
<polygon fill="#63b8ff" stroke="#63b8ff" points="958.5,-415.63 955,-405.63 951.5,-415.63 958.5,-415.63"/>
</g>
<!-- Node3 -->
<g id="node3" class="node">
<title>Node3</title>
<g id="a_node3"><a xlink:href="model_8h.html" target="_top" xlink:title="The model details data structure and its corresponding modifiers.">
<polygon fill="white" stroke="#666666" points="293,-79.5 187,-79.5 187,-60.5 293,-60.5 293,-79.5"/>
<text text-anchor="middle" x="240" y="-67.5" font-family="Helvetica,sans-Serif" font-size="10.00">ViennaRNA/model.h</text>
</a>
</g>
</g>
<!-- Node2&#45;&gt;Node3 -->
<g id="edge2" class="edge">
<title>Node2&#45;&gt;Node3</title>
<path fill="none" stroke="#63b8ff" d="M903.29,-386.23C708.49,-378.88 30,-346.89 30,-258 30,-258 30,-258 30,-195.5 30,-153.81 52.99,-145.11 87,-121 113.48,-102.22 147.43,-90.19 176.62,-82.65"/>
<polygon fill="#63b8ff" stroke="#63b8ff" points="177.2,-86.11 186.08,-80.34 175.53,-79.31 177.2,-86.11"/>
</g>
<!-- Node4 -->
<g id="node4" class="node">
<title>Node4</title>
<g id="a_node4"><a xlink:href="layouts_8h.html" target="_top" xlink:title="Secondary structure plot layout algorithms.">
<polygon fill="white" stroke="#666666" points="1006.5,-338 903.5,-338 903.5,-308 1006.5,-308 1006.5,-338"/>
<text text-anchor="start" x="911.5" y="-326" font-family="Helvetica,sans-Serif" font-size="10.00">ViennaRNA/plotting</text>
<text text-anchor="middle" x="955" y="-315" font-family="Helvetica,sans-Serif" font-size="10.00">/layouts.h</text>
</a>
</g>
</g>
<!-- Node2&#45;&gt;Node4 -->
<g id="edge3" class="edge">
<title>Node2&#45;&gt;Node4</title>
<path fill="none" stroke="#63b8ff" d="M955,-373.8C955,-366.67 955,-357.82 955,-349.56"/>
<polygon fill="#63b8ff" stroke="#63b8ff" points="958.5,-349.68 955,-339.68 951.5,-349.68 958.5,-349.68"/>
</g>
<!-- Node22 -->
<g id="node22" class="node">
<title>Node22</title>
<g id="a_node22"><a xlink:href="RNApuzzler_8h.html" target="_top" xlink:title="Implementation of the RNApuzzler RNA secondary structure layout algorithm .">
<polygon fill="white" stroke="#666666" points="1174.5,-272 1037.5,-272 1037.5,-242 1174.5,-242 1174.5,-272"/>
<text text-anchor="start" x="1045.5" y="-260" font-family="Helvetica,sans-Serif" font-size="10.00">ViennaRNA/plotting</text>
<text text-anchor="middle" x="1106" y="-249" font-family="Helvetica,sans-Serif" font-size="10.00">/RNApuzzler/RNApuzzler.h</text>
</a>
</g>
</g>
<!-- Node2&#45;&gt;Node22 -->
<g id="edge48" class="edge">
<title>Node2&#45;&gt;Node22</title>
<path fill="none" stroke="#63b8ff" d="M973.04,-373.53C985.27,-363.64 1001.73,-350.18 1016,-338 1038.68,-318.64 1064.03,-296.01 1082.03,-279.77"/>
<polygon fill="#63b8ff" stroke="#63b8ff" points="1084.04,-282.67 1089.11,-273.37 1079.35,-277.48 1084.04,-282.67"/>
</g>
<!-- Node5 -->
<g id="node5" class="node">
<title>Node5</title>
<g id="a_node5"><a xlink:href="datastructures_2basic_8h.html" target="_top" xlink:title="Various data structures and pre&#45;processor macros.">
<polygon fill="white" stroke="#666666" points="873,-272 739,-272 739,-242 873,-242 873,-272"/>
<text text-anchor="start" x="747" y="-260" font-family="Helvetica,sans-Serif" font-size="10.00">ViennaRNA/datastructures</text>
<text text-anchor="middle" x="806" y="-249" font-family="Helvetica,sans-Serif" font-size="10.00">/basic.h</text>
</a>
</g>
</g>
<!-- Node4&#45;&gt;Node5 -->
<g id="edge4" class="edge">
<title>Node4&#45;&gt;Node5</title>
<path fill="none" stroke="#63b8ff" d="M921.56,-307.64C900.45,-298.57 872.94,-286.75 850.06,-276.93"/>
<polygon fill="#63b8ff" stroke="#63b8ff" points="851.54,-273.75 840.98,-273.02 848.78,-280.19 851.54,-273.75"/>
</g>
<!-- Node21 -->
<g id="node21" class="node">
<title>Node21</title>
<g id="a_node21"><a xlink:href="RNAturtle_8h.html" target="_top" xlink:title="Implementation of the RNAturtle RNA secondary structure layout algorithm .">
<polygon fill="white" stroke="#666666" points="1019,-272 891,-272 891,-242 1019,-242 1019,-272"/>
<text text-anchor="start" x="899" y="-260" font-family="Helvetica,sans-Serif" font-size="10.00">ViennaRNA/plotting</text>
<text text-anchor="middle" x="955" y="-249" font-family="Helvetica,sans-Serif" font-size="10.00">/RNApuzzler/RNAturtle.h</text>
</a>
</g>
</g>
<!-- Node4&#45;&gt;Node21 -->
<g id="edge46" class="edge">
<title>Node4&#45;&gt;Node21</title>
<path fill="none" stroke="#63b8ff" d="M955,-307.8C955,-300.67 955,-291.82 955,-283.56"/>
<polygon fill="#63b8ff" stroke="#63b8ff" points="958.5,-283.68 955,-273.68 951.5,-283.68 958.5,-283.68"/>
</g>
<!-- Node4&#45;&gt;Node22 -->
<g id="edge47" class="edge">
<title>Node4&#45;&gt;Node22</title>
<path fill="none" stroke="#63b8ff" d="M988.89,-307.64C1010.38,-298.53 1038.41,-286.65 1061.66,-276.79"/>
<polygon fill="#63b8ff" stroke="#63b8ff" points="1062.73,-280.14 1070.57,-273.02 1060,-273.7 1062.73,-280.14"/>
</g>
<!-- Node5&#45;&gt;Node3 -->
<g id="edge37" class="edge">
<title>Node5&#45;&gt;Node3</title>
<path fill="none" stroke="#63b8ff" d="M738.76,-249.85C613.89,-237.28 352.36,-205.15 281,-151 261.41,-136.14 250.4,-109.26 244.83,-90.79"/>
<polygon fill="#63b8ff" stroke="#63b8ff" points="248.26,-90.04 242.26,-81.3 241.5,-91.87 248.26,-90.04"/>
</g>
<!-- Node6 -->
<g id="node6" class="node">
<title>Node6</title>
<g id="a_node6"><a xlink:href="constants_8h.html" target="_top" xlink:title="Energy parameter constants.">
<polygon fill="white" stroke="#666666" points="158,-79.5 0,-79.5 0,-60.5 158,-60.5 158,-79.5"/>
<text text-anchor="middle" x="79" y="-67.5" font-family="Helvetica,sans-Serif" font-size="10.00">ViennaRNA/params/constants.h</text>
</a>
</g>
</g>
<!-- Node5&#45;&gt;Node6 -->
<g id="edge5" class="edge">
<title>Node5&#45;&gt;Node6</title>
<path fill="none" stroke="#63b8ff" d="M738.56,-253.05C605.09,-246.77 311.71,-230.58 214,-206 154.35,-190.99 123.28,-200.67 87,-151 74.47,-133.85 74.01,-108.83 75.7,-91.35"/>
<polygon fill="#63b8ff" stroke="#63b8ff" points="79.17,-91.81 77,-81.44 72.23,-90.9 79.17,-91.81"/>
</g>
<!-- Node8 -->
<g id="node8" class="node">
<title>Node8</title>
<g id="a_node8"><a xlink:href="fold__compound_8h.html" target="_top" xlink:title="The Basic Fold Compound API.">
<polygon fill="white" stroke="#666666" points="879,-206 733,-206 733,-187 879,-187 879,-206"/>
<text text-anchor="middle" x="806" y="-194" font-family="Helvetica,sans-Serif" font-size="10.00">ViennaRNA/fold_compound.h</text>
</a>
</g>
</g>
<!-- Node5&#45;&gt;Node8 -->
<g id="edge7" class="edge">
<title>Node5&#45;&gt;Node8</title>
<path fill="none" stroke="#63b8ff" d="M806,-241.54C806,-234.34 806,-225.53 806,-217.68"/>
<polygon fill="#63b8ff" stroke="#63b8ff" points="809.5,-217.69 806,-207.69 802.5,-217.69 809.5,-217.69"/>
</g>
<!-- Node9 -->
<g id="node9" class="node">
<title>Node9</title>
<g id="a_node9"><a xlink:href="params_2basic_8h.html" target="_top" xlink:title="Functions to deal with sets of energy parameters.">
<polygon fill="white" stroke="#666666" points="234,-145.5 96,-145.5 96,-126.5 234,-126.5 234,-145.5"/>
<text text-anchor="middle" x="165" y="-133.5" font-family="Helvetica,sans-Serif" font-size="10.00">ViennaRNA/params/basic.h</text>
</a>
</g>
</g>
<!-- Node5&#45;&gt;Node9 -->
<g id="edge38" class="edge">
<title>Node5&#45;&gt;Node9</title>
<path fill="none" stroke="#63b8ff" d="M738.97,-255.06C608.82,-252.41 327.33,-242.46 239,-206 211.75,-194.75 186.64,-171.26 173.43,-154.83"/>
<polygon fill="#63b8ff" stroke="#63b8ff" points="176.4,-152.97 167.71,-146.91 170.72,-157.07 176.4,-152.97"/>
</g>
<!-- Node11 -->
<g id="node11" class="node">
<title>Node11</title>
<g id="a_node11"><a xlink:href="dp__matrices_8h.html" target="_top" xlink:title="Functions to deal with standard dynamic programming (DP) matrices.">
<polygon fill="white" stroke="#666666" points="423.5,-145.5 290.5,-145.5 290.5,-126.5 423.5,-126.5 423.5,-145.5"/>
<text text-anchor="middle" x="357" y="-133.5" font-family="Helvetica,sans-Serif" font-size="10.00">ViennaRNA/dp_matrices.h</text>
</a>
</g>
</g>
<!-- Node5&#45;&gt;Node11 -->
<g id="edge39" class="edge">
<title>Node5&#45;&gt;Node11</title>
<path fill="none" stroke="#63b8ff" d="M746.79,-241.53C654.27,-217.79 477.99,-171.04 398.08,-149.02"/>
<polygon fill="#63b8ff" stroke="#63b8ff" points="399.04,-145.65 388.46,-146.36 397.17,-152.4 399.04,-145.65"/>
</g>
<!-- Node12 -->
<g id="node12" class="node">
<title>Node12</title>
<g id="a_node12"><a xlink:href="hard_8h.html" target="_top" xlink:title="Functions and data structures for handling of secondary structure hard constraints.">
<polygon fill="white" stroke="#666666" points="599.5,-151 480.5,-151 480.5,-121 599.5,-121 599.5,-151"/>
<text text-anchor="start" x="488.5" y="-139" font-family="Helvetica,sans-Serif" font-size="10.00">ViennaRNA/constraints</text>
<text text-anchor="middle" x="540" y="-128" font-family="Helvetica,sans-Serif" font-size="10.00">/hard.h</text>
</a>
</g>
</g>
<!-- Node5&#45;&gt;Node12 -->
<g id="edge40" class="edge">
<title>Node5&#45;&gt;Node12</title>
<path fill="none" stroke="#63b8ff" d="M773.65,-241.53C725.72,-220.09 635.8,-179.86 582.58,-156.05"/>
<polygon fill="#63b8ff" stroke="#63b8ff" points="584.07,-152.88 573.51,-151.99 581.21,-159.27 584.07,-152.88"/>
</g>
<!-- Node14 -->
<g id="node14" class="node">
<title>Node14</title>
<g id="a_node14"><a xlink:href="soft_8h.html" target="_top" xlink:title="Functions and data structures for secondary structure soft constraints.">
<polygon fill="white" stroke="#666666" points="1310.5,-151 1191.5,-151 1191.5,-121 1310.5,-121 1310.5,-151"/>
<text text-anchor="start" x="1199.5" y="-139" font-family="Helvetica,sans-Serif" font-size="10.00">ViennaRNA/constraints</text>
<text text-anchor="middle" x="1251" y="-128" font-family="Helvetica,sans-Serif" font-size="10.00">/soft.h</text>
</a>
</g>
</g>
<!-- Node5&#45;&gt;Node14 -->
<g id="edge41" class="edge">
<title>Node5&#45;&gt;Node14</title>
<path fill="none" stroke="#63b8ff" d="M855.52,-241.53C934.93,-219.56 1090.74,-177.86 1181.33,-154.31"/>
<polygon fill="#63b8ff" stroke="#63b8ff" points="1182.04,-157.74 1190.84,-151.84 1180.29,-150.97 1182.04,-157.74"/>
</g>
<!-- Node15 -->
<g id="node15" class="node">
<title>Node15</title>
<g id="a_node15"><a xlink:href="grammar_8h.html" target="_top" xlink:title="Implementations for the RNA folding grammar.">
<polygon fill="white" stroke="#666666" points="1040.5,-145.5 923.5,-145.5 923.5,-126.5 1040.5,-126.5 1040.5,-145.5"/>
<text text-anchor="middle" x="982" y="-133.5" font-family="Helvetica,sans-Serif" font-size="10.00">ViennaRNA/grammar.h</text>
</a>
</g>
</g>
<!-- Node5&#45;&gt;Node15 -->
<g id="edge42" class="edge">
<title>Node5&#45;&gt;Node15</title>
<path fill="none" stroke="#63b8ff" d="M830.74,-241.66C847.2,-231.95 869.16,-218.62 888,-206 913.94,-188.61 942.76,-167.12 961.56,-152.79"/>
<polygon fill="#63b8ff" stroke="#63b8ff" points="963.64,-155.6 969.45,-146.74 959.38,-150.05 963.64,-155.6"/>
</g>
<!-- Node16 -->
<g id="node16" class="node">
<title>Node16</title>
<g id="a_node16"><a xlink:href="structured__domains_8h.html" target="_top" xlink:title="This module provides interfaces that deal with additional structured domains in the folding grammar.">
<polygon fill="white" stroke="#666666" points="1173.5,-151 1058.5,-151 1058.5,-121 1173.5,-121 1173.5,-151"/>
<text text-anchor="start" x="1066.5" y="-139" font-family="Helvetica,sans-Serif" font-size="10.00">ViennaRNA/structured</text>
<text text-anchor="middle" x="1116" y="-128" font-family="Helvetica,sans-Serif" font-size="10.00">_domains.h</text>
</a>
</g>
</g>
<!-- Node5&#45;&gt;Node16 -->
<g id="edge43" class="edge">
<title>Node5&#45;&gt;Node16</title>
<path fill="none" stroke="#63b8ff" d="M843.7,-241.53C900.02,-219.91 1006.1,-179.19 1067.92,-155.46"/>
<polygon fill="#63b8ff" stroke="#63b8ff" points="1069.07,-158.77 1077.15,-151.91 1066.56,-152.23 1069.07,-158.77"/>
</g>
<!-- Node17 -->
<g id="node17" class="node">
<title>Node17</title>
<g id="a_node17"><a xlink:href="unstructured__domains_8h.html" target="_top" xlink:title="Functions to modify unstructured domains, e.g. to incorporate ligands binding to unpaired stretches.">
<polygon fill="white" stroke="#666666" points="1453.5,-151 1328.5,-151 1328.5,-121 1453.5,-121 1453.5,-151"/>
<text text-anchor="start" x="1336.5" y="-139" font-family="Helvetica,sans-Serif" font-size="10.00">ViennaRNA/unstructured</text>
<text text-anchor="middle" x="1391" y="-128" font-family="Helvetica,sans-Serif" font-size="10.00">_domains.h</text>
</a>
</g>
</g>
<!-- Node5&#45;&gt;Node17 -->
<g id="edge44" class="edge">
<title>Node5&#45;&gt;Node17</title>
<path fill="none" stroke="#63b8ff" d="M872.55,-241.53C982.82,-218.51 1202.44,-173.84 1317.27,-151.07"/>
<polygon fill="#63b8ff" stroke="#63b8ff" points="1317.77,-154.54 1326.9,-149.17 1316.41,-147.67 1317.77,-154.54"/>
</g>
<!-- Node18 -->
<g id="node18" class="node">
<title>Node18</title>
<g id="a_node18"><a xlink:href="utils_2structures_8h.html" target="_top" xlink:title="Various utility&#45; and helper&#45;functions for secondary structure parsing, converting,...">
<polygon fill="white" stroke="#666666" points="1563,-79.5 1419,-79.5 1419,-60.5 1563,-60.5 1563,-79.5"/>
<text text-anchor="middle" x="1491" y="-67.5" font-family="Helvetica,sans-Serif" font-size="10.00">ViennaRNA/utils/structures.h</text>
</a>
</g>
</g>
<!-- Node5&#45;&gt;Node18 -->
<g id="edge45" class="edge">
<title>Node5&#45;&gt;Node18</title>
<path fill="none" stroke="#63b8ff" d="M873.38,-241.94C1002.58,-220.46 1353.87,-234.79 1454,-151 1471.78,-136.12 1478.28,-109.25 1482.75,-90.79"/>
<polygon fill="#63b8ff" stroke="#63b8ff" points="1486.09,-91.86 1485.18,-81.3 1479.31,-90.12 1486.09,-91.86"/>
</g>
<!-- Node7 -->
<g id="node7" class="node">
<title>Node7</title>
<g id="a_node7"><a xlink:title=" ">
<polygon fill="#e0e0e0" stroke="#999999" points="103,-19 55,-19 55,0 103,0 103,-19"/>
<text text-anchor="middle" x="79" y="-7" font-family="Helvetica,sans-Serif" font-size="10.00">limits.h</text>
</a>
</g>
</g>
<!-- Node6&#45;&gt;Node7 -->
<g id="edge6" class="edge">
<title>Node6&#45;&gt;Node7</title>
<path fill="none" stroke="#63b8ff" d="M79,-60.37C79,-52.5 79,-40.6 79,-30.39"/>
<polygon fill="#63b8ff" stroke="#63b8ff" points="82.5,-30.68 79,-20.68 75.5,-30.68 82.5,-30.68"/>
</g>
<!-- Node8&#45;&gt;Node3 -->
<g id="edge8" class="edge">
<title>Node8&#45;&gt;Node3</title>
<path fill="none" stroke="#63b8ff" d="M732.83,-190.23C648.89,-183.4 516.92,-170.08 471,-151 450.81,-142.61 451.64,-130.61 432,-121 391.73,-101.29 342.78,-88.7 304.39,-81.08"/>
<polygon fill="#63b8ff" stroke="#63b8ff" points="305.31,-77.69 294.83,-79.25 303.99,-84.57 305.31,-77.69"/>
</g>
<!-- Node8&#45;&gt;Node9 -->
<g id="edge9" class="edge">
<title>Node8&#45;&gt;Node9</title>
<path fill="none" stroke="#63b8ff" d="M732.53,-190.54C629.34,-183.03 436.02,-167.84 272,-151 261.1,-149.88 249.64,-148.61 238.42,-147.3"/>
<polygon fill="#63b8ff" stroke="#63b8ff" points="239.16,-143.87 228.82,-146.17 238.34,-150.82 239.16,-143.87"/>
</g>
<!-- Node10 -->
<g id="node10" class="node">
<title>Node10</title>
<g id="a_node10"><a xlink:href="sequence_8h.html" target="_top" xlink:title="Functions and data structures related to sequence representations ,.">
<polygon fill="white" stroke="#666666" points="867,-145.5 745,-145.5 745,-126.5 867,-126.5 867,-145.5"/>
<text text-anchor="middle" x="806" y="-133.5" font-family="Helvetica,sans-Serif" font-size="10.00">ViennaRNA/sequence.h</text>
</a>
</g>
</g>
<!-- Node8&#45;&gt;Node10 -->
<g id="edge14" class="edge">
<title>Node8&#45;&gt;Node10</title>
<path fill="none" stroke="#63b8ff" d="M801.04,-186.87C799.35,-179 798.85,-167.1 799.57,-156.89"/>
<polygon fill="#63b8ff" stroke="#63b8ff" points="803.01,-157.54 800.84,-147.17 796.07,-156.63 803.01,-157.54"/>
</g>
<!-- Node8&#45;&gt;Node11 -->
<g id="edge16" class="edge">
<title>Node8&#45;&gt;Node11</title>
<path fill="none" stroke="#63b8ff" d="M732.79,-188.47C656.57,-180.45 534.06,-166.42 429,-151 422.49,-150.04 415.69,-148.98 408.98,-147.87"/>
<polygon fill="#63b8ff" stroke="#63b8ff" points="409.76,-144.46 399.32,-146.24 408.6,-151.36 409.76,-144.46"/>
</g>
<!-- Node8&#45;&gt;Node12 -->
<g id="edge19" class="edge">
<title>Node8&#45;&gt;Node12</title>
<path fill="none" stroke="#63b8ff" d="M760.29,-186.55C719.21,-177.91 658.35,-164.62 610.97,-153.97"/>
<polygon fill="#63b8ff" stroke="#63b8ff" points="611.85,-150.58 601.33,-151.8 610.31,-157.41 611.85,-150.58"/>
</g>
<!-- Node8&#45;&gt;Node14 -->
<g id="edge23" class="edge">
<title>Node8&#45;&gt;Node14</title>
<path fill="none" stroke="#63b8ff" d="M879.5,-188.02C953.96,-180.43 1072.18,-167.46 1174,-151 1176.01,-150.68 1178.05,-150.33 1180.11,-149.97"/>
<polygon fill="#63b8ff" stroke="#63b8ff" points="1180.57,-153.45 1189.78,-148.22 1179.32,-146.56 1180.57,-153.45"/>
</g>
<!-- Node8&#45;&gt;Node15 -->
<g id="edge27" class="edge">
<title>Node8&#45;&gt;Node15</title>
<path fill="none" stroke="#63b8ff" d="M827.72,-186.62C855.48,-176.69 903.79,-160.57 939.05,-149.4"/>
<polygon fill="#63b8ff" stroke="#63b8ff" points="940.05,-152.76 948.55,-146.42 937.96,-146.08 940.05,-152.76"/>
</g>
<!-- Node8&#45;&gt;Node16 -->
<g id="edge29" class="edge">
<title>Node8&#45;&gt;Node16</title>
<path fill="none" stroke="#63b8ff" d="M857.49,-186.55C904.51,-178.28 976.24,-165.41 1047.16,-151.53"/>
<polygon fill="#63b8ff" stroke="#63b8ff" points="1047.45,-155.04 1056.59,-149.68 1046.1,-148.17 1047.45,-155.04"/>
</g>
<!-- Node8&#45;&gt;Node17 -->
<g id="edge30" class="edge">
<title>Node8&#45;&gt;Node17</title>
<path fill="none" stroke="#63b8ff" d="M879.3,-191.29C977.82,-185.32 1158.01,-172.64 1311,-151 1313.01,-150.72 1315.05,-150.41 1317.11,-150.09"/>
<polygon fill="#63b8ff" stroke="#63b8ff" points="1317.48,-153.58 1326.77,-148.49 1316.34,-146.67 1317.48,-153.58"/>
</g>
<!-- Node20 -->
<g id="node20" class="node">
<title>Node20</title>
<g id="a_node20"><a xlink:href="zscore_8h_source.html" target="_top" xlink:title=" ">
<polygon fill="white" stroke="#666666" points="726.5,-145.5 617.5,-145.5 617.5,-126.5 726.5,-126.5 726.5,-145.5"/>
<text text-anchor="middle" x="672" y="-133.5" font-family="Helvetica,sans-Serif" font-size="10.00">ViennaRNA/zscore.h</text>
</a>
</g>
</g>
<!-- Node8&#45;&gt;Node20 -->
<g id="edge36" class="edge">
<title>Node8&#45;&gt;Node20</title>
<path fill="none" stroke="#63b8ff" d="M785.65,-186.62C763.61,-176.99 728.21,-161.54 702.77,-150.43"/>
<polygon fill="#63b8ff" stroke="#63b8ff" points="704.5,-147.37 693.93,-146.57 701.69,-153.78 704.5,-147.37"/>
</g>
<!-- Node9&#45;&gt;Node3 -->
<g id="edge13" class="edge">
<title>Node9&#45;&gt;Node3</title>
<path fill="none" stroke="#63b8ff" d="M175.43,-126.1C187.18,-116.07 206.54,-99.56 220.99,-87.22"/>
<polygon fill="#63b8ff" stroke="#63b8ff" points="223.17,-89.96 228.51,-80.81 218.63,-84.63 223.17,-89.96"/>
</g>
<!-- Node9&#45;&gt;Node5 -->
<g id="edge11" class="edge">
<title>Node9&#45;&gt;Node5</title>
<path fill="none" stroke="#63b8ff" d="M177.73,-145.93C194.62,-161.32 224.26,-192.49 257,-206 340.45,-240.45 596.32,-251.23 727.21,-254.55"/>
<polygon fill="#63b8ff" stroke="#63b8ff" points="727.12,-258.05 737.2,-254.8 727.29,-251.05 727.12,-258.05"/>
</g>
<!-- Node9&#45;&gt;Node6 -->
<g id="edge10" class="edge">
<title>Node9&#45;&gt;Node6</title>
<path fill="none" stroke="#63b8ff" d="M153.04,-126.1C139.31,-115.88 116.52,-98.93 99.85,-86.52"/>
<polygon fill="#63b8ff" stroke="#63b8ff" points="102.18,-83.89 92.07,-80.73 98,-89.5 102.18,-83.89"/>
</g>
<!-- Node9&#45;&gt;Node8 -->
<g id="edge12" class="edge">
<title>Node9&#45;&gt;Node8</title>
<path fill="none" stroke="#63b8ff" d="M234.38,-144.75C252.55,-146.9 272.04,-149.16 290,-151 441.95,-166.6 619.05,-180.79 721.34,-188.76"/>
<polygon fill="#63b8ff" stroke="#63b8ff" points="720.77,-192.23 731.02,-189.51 721.32,-185.25 720.77,-192.23"/>
</g>
<!-- Node10&#45;&gt;Node8 -->
<g id="edge15" class="edge">
<title>Node10&#45;&gt;Node8</title>
<path fill="none" stroke="#63b8ff" d="M810.96,-145.67C812.66,-153.54 813.15,-165.45 812.43,-175.66"/>
<polygon fill="#63b8ff" stroke="#63b8ff" points="808.99,-175 811.15,-185.37 815.93,-175.91 808.99,-175"/>
</g>
<!-- Node11&#45;&gt;Node5 -->
<g id="edge17" class="edge">
<title>Node11&#45;&gt;Node5</title>
<path fill="none" stroke="#63b8ff" d="M394.56,-145.95C472.18,-165.59 650.5,-212.75 744.91,-238.5"/>
<polygon fill="#63b8ff" stroke="#63b8ff" points="743.96,-241.87 754.53,-241.13 745.81,-235.11 743.96,-241.87"/>
</g>
<!-- Node11&#45;&gt;Node8 -->
<g id="edge18" class="edge">
<title>Node11&#45;&gt;Node8</title>
<path fill="none" stroke="#63b8ff" d="M415.43,-145.99C425.98,-147.75 436.83,-149.51 447,-151 540.83,-164.77 648.58,-177.44 721.41,-185.7"/>
<polygon fill="#63b8ff" stroke="#63b8ff" points="720.96,-189.17 731.29,-186.82 721.75,-182.22 720.96,-189.17"/>
</g>
<!-- Node12&#45;&gt;Node8 -->
<g id="edge20" class="edge">
<title>Node12&#45;&gt;Node8</title>
<path fill="none" stroke="#63b8ff" d="M599.84,-148.94C648.1,-159.2 714.9,-173.89 759.28,-184.02"/>
<polygon fill="#63b8ff" stroke="#63b8ff" points="758.33,-187.39 768.86,-186.21 759.89,-180.57 758.33,-187.39"/>
</g>
<!-- Node13 -->
<g id="node13" class="node">
<title>Node13</title>
<g id="a_node13"><a xlink:href="constraints_2basic_8h.html" target="_top" xlink:title="Functions and data structures for constraining secondary structure predictions and evaluation.">
<polygon fill="white" stroke="#666666" points="954.5,-85 835.5,-85 835.5,-55 954.5,-55 954.5,-85"/>
<text text-anchor="start" x="843.5" y="-73" font-family="Helvetica,sans-Serif" font-size="10.00">ViennaRNA/constraints</text>
<text text-anchor="middle" x="895" y="-62" font-family="Helvetica,sans-Serif" font-size="10.00">/basic.h</text>
</a>
</g>
</g>
<!-- Node12&#45;&gt;Node13 -->
<g id="edge21" class="edge">
<title>Node12&#45;&gt;Node13</title>
<path fill="none" stroke="#63b8ff" d="M599.68,-122.6C602.49,-122.05 605.28,-121.52 608,-121 681.48,-107.04 765.85,-92.52 823.99,-82.75"/>
<polygon fill="#63b8ff" stroke="#63b8ff" points="824.49,-86.22 833.77,-81.11 823.33,-79.31 824.49,-86.22"/>
</g>
<!-- Node13&#45;&gt;Node8 -->
<g id="edge22" class="edge">
<title>Node13&#45;&gt;Node8</title>
<path fill="none" stroke="#63b8ff" d="M894.77,-85.33C893.84,-102.44 890.08,-131.23 876,-151 866.61,-164.18 851.98,-174.36 838.52,-181.64"/>
<polygon fill="#63b8ff" stroke="#63b8ff" points="837.28,-178.35 829.91,-185.96 840.42,-184.6 837.28,-178.35"/>
</g>
<!-- Node14&#45;&gt;Node5 -->
<g id="edge24" class="edge">
<title>Node14&#45;&gt;Node5</title>
<path fill="none" stroke="#63b8ff" d="M1201.51,-151.46C1122.12,-173.43 966.3,-215.13 875.71,-238.68"/>
<polygon fill="#63b8ff" stroke="#63b8ff" points="874.99,-235.25 866.19,-241.15 876.74,-242.02 874.99,-235.25"/>
</g>
<!-- Node14&#45;&gt;Node8 -->
<g id="edge25" class="edge">
<title>Node14&#45;&gt;Node8</title>
<path fill="none" stroke="#63b8ff" d="M1191.05,-151.15C1088.15,-167.75 968.72,-180.78 890.42,-188.3"/>
<polygon fill="#63b8ff" stroke="#63b8ff" points="890.3,-184.8 880.68,-189.23 890.97,-191.77 890.3,-184.8"/>
</g>
<!-- Node14&#45;&gt;Node13 -->
<g id="edge26" class="edge">
<title>Node14&#45;&gt;Node13</title>
<path fill="none" stroke="#63b8ff" d="M1191.32,-122.6C1188.51,-122.05 1185.72,-121.52 1183,-121 1109.26,-107.01 1024.61,-92.5 966.25,-82.74"/>
<polygon fill="#63b8ff" stroke="#63b8ff" points="966.88,-79.29 956.44,-81.1 965.73,-86.2 966.88,-79.29"/>
</g>
<!-- Node15&#45;&gt;Node8 -->
<g id="edge28" class="edge">
<title>Node15&#45;&gt;Node8</title>
<path fill="none" stroke="#63b8ff" d="M960.04,-145.97C932.17,-155.92 883.84,-172.06 848.66,-183.19"/>
<polygon fill="#63b8ff" stroke="#63b8ff" points="847.68,-179.83 839.18,-186.16 849.77,-186.51 847.68,-179.83"/>
</g>
<!-- Node17&#45;&gt;Node5 -->
<g id="edge31" class="edge">
<title>Node17&#45;&gt;Node5</title>
<path fill="none" stroke="#63b8ff" d="M1328.04,-150.72C1220.42,-173.21 1001.57,-217.74 884.29,-241.02"/>
<polygon fill="#63b8ff" stroke="#63b8ff" points="883.87,-237.54 874.75,-242.91 885.24,-244.4 883.87,-237.54"/>
</g>
<!-- Node17&#45;&gt;Node8 -->
<g id="edge32" class="edge">
<title>Node17&#45;&gt;Node8</title>
<path fill="none" stroke="#63b8ff" d="M1328.07,-151.13C1174.6,-172.79 994.01,-185.45 890.41,-191.37"/>
<polygon fill="#63b8ff" stroke="#63b8ff" points="890.39,-187.87 880.6,-191.92 890.78,-194.86 890.39,-187.87"/>
</g>
<!-- Node17&#45;&gt;Node18 -->
<g id="edge33" class="edge">
<title>Node17&#45;&gt;Node18</title>
<path fill="none" stroke="#63b8ff" d="M1413.19,-120.8C1429.39,-110.43 1451.31,-96.4 1467.75,-85.88"/>
<polygon fill="#63b8ff" stroke="#63b8ff" points="1469.37,-89 1475.91,-80.66 1465.6,-83.1 1469.37,-89"/>
</g>
<!-- Node18&#45;&gt;Node5 -->
<g id="edge35" class="edge">
<title>Node18&#45;&gt;Node5</title>
<path fill="none" stroke="#63b8ff" d="M1495.85,-79.84C1498.63,-96.56 1493.78,-132.77 1472,-151 1371.78,-234.87 1019.89,-220.43 891,-242 888.87,-242.36 886.7,-242.72 884.51,-243.1"/>
<polygon fill="#63b8ff" stroke="#63b8ff" points="884.17,-239.61 874.92,-244.77 885.37,-246.5 884.17,-239.61"/>
</g>
<!-- Node19 -->
<g id="node19" class="node">
<title>Node19</title>
<g id="a_node19"><a xlink:title=" ">
<polygon fill="#e0e0e0" stroke="#999999" points="1514,-19 1468,-19 1468,0 1514,0 1514,-19"/>
<text text-anchor="middle" x="1491" y="-7" font-family="Helvetica,sans-Serif" font-size="10.00">stdio.h</text>
</a>
</g>
</g>
<!-- Node18&#45;&gt;Node19 -->
<g id="edge34" class="edge">
<title>Node18&#45;&gt;Node19</title>
<path fill="none" stroke="#63b8ff" d="M1491,-60.37C1491,-52.5 1491,-40.6 1491,-30.39"/>
<polygon fill="#63b8ff" stroke="#63b8ff" points="1494.5,-30.68 1491,-20.68 1487.5,-30.68 1494.5,-30.68"/>
</g>
</g>
</svg>
        <g id="navigator" transform="translate(0 0)" fill="#404254">
                <rect fill="#f2f5e9" fill-opacity="0.5" stroke="#606060" stroke-width=".5" x="0" y="0" width="60" height="60"/>
                <use id="zoomplus" xlink:href="#zoomPlus" x="17" y="9" onmousedown="handleZoom(evt,'in')"/>
                <use id="zoomminus" xlink:href="#zoomMin" x="42" y="9" onmousedown="handleZoom(evt,'out')"/>
                <use id="reset" xlink:href="#resetDef" x="30" y="36" onmousedown="handleReset()"/>
                <g id="arrowUp" xlink:href="#dirArrow" transform="translate(30 24)" onmousedown="handlePan(0,-1)">
                  <use xlink:href="#rim" fill="#404040">
                        <set attributeName="fill" to="#808080" begin="arrowUp.mouseover" end="arrowUp.mouseout"/>
                  </use>
                  <path fill="none" stroke="white" stroke-width="1.5" d="M0,-3.0v7 M-2.5,-0.5L0,-3.0L2.5,-0.5"/>
                </g>
                <g id="arrowRight" xlink:href="#dirArrow" transform="rotate(90) translate(36 -43)" onmousedown="handlePan(1,0)">
                  <use xlink:href="#rim" fill="#404040">
                        <set attributeName="fill" to="#808080" begin="arrowRight.mouseover" end="arrowRight.mouseout"/>
                  </use>
                  <path fill="none" stroke="white" stroke-width="1.5" d="M0,-3.0v7 M-2.5,-0.5L0,-3.0L2.5,-0.5"/>
                </g>
                <g id="arrowDown" xlink:href="#dirArrow" transform="rotate(180) translate(-30 -48)" onmousedown="handlePan(0,1)">
                  <use xlink:href="#rim" fill="#404040">
                        <set attributeName="fill" to="#808080" begin="arrowDown.mouseover" end="arrowDown.mouseout"/>
                  </use>
                  <path fill="none" stroke="white" stroke-width="1.5" d="M0,-3.0v7 M-2.5,-0.5L0,-3.0L2.5,-0.5"/>
                </g>
                <g id="arrowLeft" xlink:href="#dirArrow" transform="rotate(270) translate(-36 17)" onmousedown="handlePan(-1,0)">
                  <use xlink:href="#rim" fill="#404040">
                        <set attributeName="fill" to="#808080" begin="arrowLeft.mouseover" end="arrowLeft.mouseout"/>
                  </use>
                  <path fill="none" stroke="white" stroke-width="1.5" d="M0,-3.0v7 M-2.5,-0.5L0,-3.0L2.5,-0.5"/>
                </g>
        </g>
        <svg viewBox="0 0 15 15" width="100%" height="30px" preserveAspectRatio="xMaxYMin meet">
         <g id="arrow_out" transform="scale(0.3 0.3)">
          <a xlink:href="plot__structure_8h__incl_org.svg" target="_base">
           <rect id="button" ry="5" rx="5" y="6" x="6" height="38" width="38"
                fill="#f2f5e9" fill-opacity="0.5" stroke="#606060" stroke-width="1.0"/>
           <path id="arrow"
             d="M 11.500037,31.436501 C 11.940474,20.09759 22.043105,11.32322 32.158766,21.979434 L 37.068811,17.246167 C 37.068811,17.246167 37.088388,32 37.088388,32 L 22.160133,31.978069 C 22.160133,31.978069 26.997745,27.140456 26.997745,27.140456 C 18.528582,18.264221 13.291696,25.230495 11.500037,31.436501 z"
             style="fill:#404040;"/>
          </a>
         </g>
        </svg>
</svg>
