<?xml version="1.0" encoding="UTF-8" standalone="no"?>
<!DOCTYPE svg PUBLIC "-//W3C//DTD SVG 1.1//EN"
 "http://www.w3.org/Graphics/SVG/1.1/DTD/svg11.dtd">
<!-- Generated by graphviz version 7.1.0 (0)
 -->
<!-- Title: ViennaRNA/plotting/probabilities.h Pages: 1 -->
<svg width="1514pt" height="346pt"
 viewBox="0.00 0.00 1513.50 346.00" xmlns="http://www.w3.org/2000/svg" xmlns:xlink="http://www.w3.org/1999/xlink">
<g id="graph0" class="graph" transform="scale(1 1) rotate(0) translate(4 342)">
<title>ViennaRNA/plotting/probabilities.h</title>
<!-- Node1 -->
<g id="node1" class="node">
<title>Node1</title>
<g id="a_node1"><a xlink:title="Various functions for plotting RNA secondary structures, dot&#45;plots and other visualizations.">
<polygon fill="#999999" stroke="#666666" points="1345,-338 1242,-338 1242,-308 1345,-308 1345,-338"/>
<text text-anchor="start" x="1250" y="-326" font-family="Helvetica,sans-Serif" font-size="10.00">ViennaRNA/plotting</text>
<text text-anchor="middle" x="1293.5" y="-315" font-family="Helvetica,sans-Serif" font-size="10.00">/probabilities.h</text>
</a>
</g>
</g>
<!-- Node2 -->
<g id="node2" class="node">
<title>Node2</title>
<g id="a_node2"><a xlink:href="datastructures_2basic_8h.html" target="_top" xlink:title="Various data structures and pre&#45;processor macros.">
<polygon fill="white" stroke="#666666" points="1174.5,-272 1040.5,-272 1040.5,-242 1174.5,-242 1174.5,-272"/>
<text text-anchor="start" x="1048.5" y="-260" font-family="Helvetica,sans-Serif" font-size="10.00">ViennaRNA/datastructures</text>
<text text-anchor="middle" x="1107.5" y="-249" font-family="Helvetica,sans-Serif" font-size="10.00">/basic.h</text>
</a>
</g>
</g>
<!-- Node1&#45;&gt;Node2 -->
<g id="edge1" class="edge">
<title>Node1&#45;&gt;Node2</title>
<path fill="none" stroke="#63b8ff" d="M1251.76,-307.64C1224.69,-298.32 1189.2,-286.11 1160.19,-276.13"/>
<polygon fill="#63b8ff" stroke="#63b8ff" points="1161.45,-272.86 1150.86,-272.92 1159.17,-279.48 1161.45,-272.86"/>
</g>
<!-- Node16 -->
<g id="node16" class="node">
<title>Node16</title>
<g id="a_node16"><a xlink:href="utils_2structures_8h.html" target="_top" xlink:title="Various utility&#45; and helper&#45;functions for secondary structure parsing, converting,...">
<polygon fill="white" stroke="#666666" points="1505.5,-79.5 1361.5,-79.5 1361.5,-60.5 1505.5,-60.5 1505.5,-79.5"/>
<text text-anchor="middle" x="1433.5" y="-67.5" font-family="Helvetica,sans-Serif" font-size="10.00">ViennaRNA/utils/structures.h</text>
</a>
</g>
</g>
<!-- Node1&#45;&gt;Node16 -->
<g id="edge43" class="edge">
<title>Node1&#45;&gt;Node16</title>
<path fill="none" stroke="#63b8ff" d="M1308.74,-307.71C1336.86,-280.34 1396.46,-217.3 1423.5,-151 1431.42,-131.58 1433.49,-107.49 1433.85,-90.85"/>
<polygon fill="#63b8ff" stroke="#63b8ff" points="1437.35,-91.29 1433.86,-81.29 1430.35,-91.29 1437.35,-91.29"/>
</g>
<!-- Node3 -->
<g id="node3" class="node">
<title>Node3</title>
<g id="a_node3"><a xlink:href="constants_8h.html" target="_top" xlink:title="Energy parameter constants.">
<polygon fill="white" stroke="#666666" points="1340.5,-79.5 1182.5,-79.5 1182.5,-60.5 1340.5,-60.5 1340.5,-79.5"/>
<text text-anchor="middle" x="1261.5" y="-67.5" font-family="Helvetica,sans-Serif" font-size="10.00">ViennaRNA/params/constants.h</text>
</a>
</g>
</g>
<!-- Node2&#45;&gt;Node3 -->
<g id="edge2" class="edge">
<title>Node2&#45;&gt;Node3</title>
<path fill="none" stroke="#63b8ff" d="M1174.95,-250.21C1237.43,-240.79 1326.67,-216.04 1367.5,-151 1374.59,-139.71 1374.64,-132.26 1367.5,-121 1355.96,-102.8 1335.83,-91.1 1316.2,-83.64"/>
<polygon fill="#63b8ff" stroke="#63b8ff" points="1317.42,-80.36 1306.82,-80.41 1315.14,-86.98 1317.42,-80.36"/>
</g>
<!-- Node5 -->
<g id="node5" class="node">
<title>Node5</title>
<g id="a_node5"><a xlink:href="fold__compound_8h.html" target="_top" xlink:title="The Basic Fold Compound API.">
<polygon fill="white" stroke="#666666" points="709.5,-206 563.5,-206 563.5,-187 709.5,-187 709.5,-206"/>
<text text-anchor="middle" x="636.5" y="-194" font-family="Helvetica,sans-Serif" font-size="10.00">ViennaRNA/fold_compound.h</text>
</a>
</g>
</g>
<!-- Node2&#45;&gt;Node5 -->
<g id="edge4" class="edge">
<title>Node2&#45;&gt;Node5</title>
<path fill="none" stroke="#63b8ff" d="M1040.02,-247.62C955.74,-237.15 811.56,-219.24 720.29,-207.91"/>
<polygon fill="#63b8ff" stroke="#63b8ff" points="720.74,-204.44 710.38,-206.68 719.88,-211.38 720.74,-204.44"/>
</g>
<!-- Node6 -->
<g id="node6" class="node">
<title>Node6</title>
<g id="a_node6"><a xlink:href="model_8h.html" target="_top" xlink:title="The model details data structure and its corresponding modifiers.">
<polygon fill="white" stroke="#666666" points="1160.5,-79.5 1054.5,-79.5 1054.5,-60.5 1160.5,-60.5 1160.5,-79.5"/>
<text text-anchor="middle" x="1107.5" y="-67.5" font-family="Helvetica,sans-Serif" font-size="10.00">ViennaRNA/model.h</text>
</a>
</g>
</g>
<!-- Node2&#45;&gt;Node6 -->
<g id="edge34" class="edge">
<title>Node2&#45;&gt;Node6</title>
<path fill="none" stroke="#63b8ff" d="M1122.89,-241.81C1141.88,-223.14 1173.16,-188.3 1185.5,-151 1189.69,-138.34 1191.9,-132.7 1185.5,-121 1176.51,-104.56 1159.55,-92.73 1143.74,-84.72"/>
<polygon fill="#63b8ff" stroke="#63b8ff" points="1145.52,-81.69 1134.98,-80.63 1142.56,-88.03 1145.52,-81.69"/>
</g>
<!-- Node7 -->
<g id="node7" class="node">
<title>Node7</title>
<g id="a_node7"><a xlink:href="params_2basic_8h.html" target="_top" xlink:title="Functions to deal with sets of energy parameters.">
<polygon fill="white" stroke="#666666" points="1176.5,-145.5 1038.5,-145.5 1038.5,-126.5 1176.5,-126.5 1176.5,-145.5"/>
<text text-anchor="middle" x="1107.5" y="-133.5" font-family="Helvetica,sans-Serif" font-size="10.00">ViennaRNA/params/basic.h</text>
</a>
</g>
</g>
<!-- Node2&#45;&gt;Node7 -->
<g id="edge35" class="edge">
<title>Node2&#45;&gt;Node7</title>
<path fill="none" stroke="#63b8ff" d="M1102.95,-241.88C1100.25,-220.8 1100.04,-181 1102.31,-156.95"/>
<polygon fill="#63b8ff" stroke="#63b8ff" points="1105.75,-157.58 1103.57,-147.21 1098.81,-156.68 1105.75,-157.58"/>
</g>
<!-- Node9 -->
<g id="node9" class="node">
<title>Node9</title>
<g id="a_node9"><a xlink:href="dp__matrices_8h.html" target="_top" xlink:title="Functions to deal with standard dynamic programming (DP) matrices.">
<polygon fill="white" stroke="#666666" points="1020,-145.5 887,-145.5 887,-126.5 1020,-126.5 1020,-145.5"/>
<text text-anchor="middle" x="953.5" y="-133.5" font-family="Helvetica,sans-Serif" font-size="10.00">ViennaRNA/dp_matrices.h</text>
</a>
</g>
</g>
<!-- Node2&#45;&gt;Node9 -->
<g id="edge36" class="edge">
<title>Node2&#45;&gt;Node9</title>
<path fill="none" stroke="#63b8ff" d="M1084.34,-241.65C1052.77,-219.42 997.53,-176.79 969.88,-153.39"/>
<polygon fill="#63b8ff" stroke="#63b8ff" points="972.33,-150.88 962.48,-146.97 967.74,-156.16 972.33,-150.88"/>
</g>
<!-- Node10 -->
<g id="node10" class="node">
<title>Node10</title>
<g id="a_node10"><a xlink:href="hard_8h.html" target="_top" xlink:title="Functions and data structures for handling of secondary structure hard constraints.">
<polygon fill="white" stroke="#666666" points="391,-151 272,-151 272,-121 391,-121 391,-151"/>
<text text-anchor="start" x="280" y="-139" font-family="Helvetica,sans-Serif" font-size="10.00">ViennaRNA/constraints</text>
<text text-anchor="middle" x="331.5" y="-128" font-family="Helvetica,sans-Serif" font-size="10.00">/hard.h</text>
</a>
</g>
</g>
<!-- Node2&#45;&gt;Node10 -->
<g id="edge37" class="edge">
<title>Node2&#45;&gt;Node10</title>
<path fill="none" stroke="#63b8ff" d="M1040.03,-254.45C935.21,-251.03 727.33,-240.16 554.5,-206 493.16,-193.88 424.76,-171.31 380.09,-155.28"/>
<polygon fill="#63b8ff" stroke="#63b8ff" points="381.56,-152.09 370.97,-151.98 379.18,-158.67 381.56,-152.09"/>
</g>
<!-- Node12 -->
<g id="node12" class="node">
<title>Node12</title>
<g id="a_node12"><a xlink:href="soft_8h.html" target="_top" xlink:title="Functions and data structures for secondary structure soft constraints.">
<polygon fill="white" stroke="#666666" points="119,-151 0,-151 0,-121 119,-121 119,-151"/>
<text text-anchor="start" x="8" y="-139" font-family="Helvetica,sans-Serif" font-size="10.00">ViennaRNA/constraints</text>
<text text-anchor="middle" x="59.5" y="-128" font-family="Helvetica,sans-Serif" font-size="10.00">/soft.h</text>
</a>
</g>
</g>
<!-- Node2&#45;&gt;Node12 -->
<g id="edge38" class="edge">
<title>Node2&#45;&gt;Node12</title>
<path fill="none" stroke="#63b8ff" d="M1040.34,-254.74C910.22,-251.52 615.42,-240.63 370.5,-206 281.98,-193.48 181.42,-170.3 119.13,-154.28"/>
<polygon fill="#63b8ff" stroke="#63b8ff" points="120.36,-150.98 109.8,-151.85 118.6,-157.76 120.36,-150.98"/>
</g>
<!-- Node13 -->
<g id="node13" class="node">
<title>Node13</title>
<g id="a_node13"><a xlink:href="grammar_8h.html" target="_top" xlink:title="Implementations for the RNA folding grammar.">
<polygon fill="white" stroke="#666666" points="254,-145.5 137,-145.5 137,-126.5 254,-126.5 254,-145.5"/>
<text text-anchor="middle" x="195.5" y="-133.5" font-family="Helvetica,sans-Serif" font-size="10.00">ViennaRNA/grammar.h</text>
</a>
</g>
</g>
<!-- Node2&#45;&gt;Node13 -->
<g id="edge39" class="edge">
<title>Node2&#45;&gt;Node13</title>
<path fill="none" stroke="#63b8ff" d="M1040.3,-254.24C924.51,-250.41 680.19,-238.86 476.5,-206 389.69,-192 290.21,-164.88 235.98,-149.13"/>
<polygon fill="#63b8ff" stroke="#63b8ff" points="237.15,-145.83 226.57,-146.38 235.18,-152.55 237.15,-145.83"/>
</g>
<!-- Node14 -->
<g id="node14" class="node">
<title>Node14</title>
<g id="a_node14"><a xlink:href="structured__domains_8h.html" target="_top" xlink:title="This module provides interfaces that deal with additional structured domains in the folding grammar.">
<polygon fill="white" stroke="#666666" points="869,-151 754,-151 754,-121 869,-121 869,-151"/>
<text text-anchor="start" x="762" y="-139" font-family="Helvetica,sans-Serif" font-size="10.00">ViennaRNA/structured</text>
<text text-anchor="middle" x="811.5" y="-128" font-family="Helvetica,sans-Serif" font-size="10.00">_domains.h</text>
</a>
</g>
</g>
<!-- Node2&#45;&gt;Node14 -->
<g id="edge40" class="edge">
<title>Node2&#45;&gt;Node14</title>
<path fill="none" stroke="#63b8ff" d="M1071.5,-241.53C1017.83,-219.95 916.85,-179.35 857.77,-155.6"/>
<polygon fill="#63b8ff" stroke="#63b8ff" points="859.24,-152.42 848.65,-151.94 856.63,-158.91 859.24,-152.42"/>
</g>
<!-- Node15 -->
<g id="node15" class="node">
<title>Node15</title>
<g id="a_node15"><a xlink:href="unstructured__domains_8h.html" target="_top" xlink:title="Functions to modify unstructured domains, e.g. to incorporate ligands binding to unpaired stretches.">
<polygon fill="white" stroke="#666666" points="1358,-151 1233,-151 1233,-121 1358,-121 1358,-151"/>
<text text-anchor="start" x="1241" y="-139" font-family="Helvetica,sans-Serif" font-size="10.00">ViennaRNA/unstructured</text>
<text text-anchor="middle" x="1295.5" y="-128" font-family="Helvetica,sans-Serif" font-size="10.00">_domains.h</text>
</a>
</g>
</g>
<!-- Node2&#45;&gt;Node15 -->
<g id="edge41" class="edge">
<title>Node2&#45;&gt;Node15</title>
<path fill="none" stroke="#63b8ff" d="M1139.11,-241.65C1159.94,-232.87 1187.18,-220.53 1209.5,-206 1230.19,-192.53 1250.87,-173.62 1266.98,-159"/>
<polygon fill="#63b8ff" stroke="#63b8ff" points="1269.22,-161.69 1274.31,-152.4 1264.54,-156.49 1269.22,-161.69"/>
</g>
<!-- Node2&#45;&gt;Node16 -->
<g id="edge42" class="edge">
<title>Node2&#45;&gt;Node16</title>
<path fill="none" stroke="#63b8ff" d="M1174.8,-251.22C1219.95,-245.52 1279.28,-233.08 1325.5,-206 1372.18,-178.65 1403.32,-119.7 1420.3,-89.56"/>
<polygon fill="#63b8ff" stroke="#63b8ff" points="1423.16,-91.59 1425.15,-81.18 1417.11,-88.08 1423.16,-91.59"/>
</g>
<!-- Node4 -->
<g id="node4" class="node">
<title>Node4</title>
<g id="a_node4"><a xlink:title=" ">
<polygon fill="#e0e0e0" stroke="#999999" points="1285.5,-19 1237.5,-19 1237.5,0 1285.5,0 1285.5,-19"/>
<text text-anchor="middle" x="1261.5" y="-7" font-family="Helvetica,sans-Serif" font-size="10.00">limits.h</text>
</a>
</g>
</g>
<!-- Node3&#45;&gt;Node4 -->
<g id="edge3" class="edge">
<title>Node3&#45;&gt;Node4</title>
<path fill="none" stroke="#63b8ff" d="M1261.5,-60.37C1261.5,-52.5 1261.5,-40.6 1261.5,-30.39"/>
<polygon fill="#63b8ff" stroke="#63b8ff" points="1265,-30.68 1261.5,-20.68 1258,-30.68 1265,-30.68"/>
</g>
<!-- Node5&#45;&gt;Node6 -->
<g id="edge5" class="edge">
<title>Node5&#45;&gt;Node6</title>
<path fill="none" stroke="#63b8ff" d="M651.54,-186.55C665.91,-177.86 688.06,-164.09 706.5,-151 724.05,-138.55 724.7,-129.43 744.5,-121 796.86,-98.7 953.32,-83.15 1042.81,-75.81"/>
<polygon fill="#63b8ff" stroke="#63b8ff" points="1042.99,-79.3 1052.67,-75.01 1042.42,-72.33 1042.99,-79.3"/>
</g>
<!-- Node5&#45;&gt;Node7 -->
<g id="edge6" class="edge">
<title>Node5&#45;&gt;Node7</title>
<path fill="none" stroke="#63b8ff" d="M709.79,-187.88C787,-179.98 911.9,-166.63 1019.5,-151 1025.95,-150.06 1032.67,-149 1039.42,-147.89"/>
<polygon fill="#63b8ff" stroke="#63b8ff" points="1039.97,-151.35 1049.25,-146.24 1038.81,-144.45 1039.97,-151.35"/>
</g>
<!-- Node8 -->
<g id="node8" class="node">
<title>Node8</title>
<g id="a_node8"><a xlink:href="sequence_8h.html" target="_top" xlink:title="Functions and data structures related to sequence representations ,.">
<polygon fill="white" stroke="#666666" points="697.5,-145.5 575.5,-145.5 575.5,-126.5 697.5,-126.5 697.5,-145.5"/>
<text text-anchor="middle" x="636.5" y="-133.5" font-family="Helvetica,sans-Serif" font-size="10.00">ViennaRNA/sequence.h</text>
</a>
</g>
</g>
<!-- Node5&#45;&gt;Node8 -->
<g id="edge11" class="edge">
<title>Node5&#45;&gt;Node8</title>
<path fill="none" stroke="#63b8ff" d="M631.54,-186.87C629.85,-179 629.35,-167.1 630.07,-156.89"/>
<polygon fill="#63b8ff" stroke="#63b8ff" points="633.51,-157.54 631.34,-147.17 626.57,-156.63 633.51,-157.54"/>
</g>
<!-- Node5&#45;&gt;Node9 -->
<g id="edge13" class="edge">
<title>Node5&#45;&gt;Node9</title>
<path fill="none" stroke="#63b8ff" d="M679.97,-186.55C733.89,-176.2 826.11,-159.16 888.45,-148.01"/>
<polygon fill="#63b8ff" stroke="#63b8ff" points="889,-151.46 898.23,-146.26 887.77,-144.57 889,-151.46"/>
</g>
<!-- Node5&#45;&gt;Node10 -->
<g id="edge16" class="edge">
<title>Node5&#45;&gt;Node10</title>
<path fill="none" stroke="#63b8ff" d="M584.82,-186.55C534.73,-177.31 458.46,-162.75 402.66,-151.79"/>
<polygon fill="#63b8ff" stroke="#63b8ff" points="403.41,-148.37 392.92,-149.87 402.05,-155.24 403.41,-148.37"/>
</g>
<!-- Node5&#45;&gt;Node12 -->
<g id="edge20" class="edge">
<title>Node5&#45;&gt;Node12</title>
<path fill="none" stroke="#63b8ff" d="M563.2,-192.1C464.94,-186.74 285.23,-174.63 130.52,-152.73"/>
<polygon fill="#63b8ff" stroke="#63b8ff" points="131.32,-149.31 120.92,-151.35 130.32,-156.24 131.32,-149.31"/>
</g>
<!-- Node5&#45;&gt;Node13 -->
<g id="edge24" class="edge">
<title>Node5&#45;&gt;Node13</title>
<path fill="none" stroke="#63b8ff" d="M563.15,-189.33C485.7,-182 360.46,-168.5 253.5,-151 248.42,-150.17 243.13,-149.22 237.9,-148.21"/>
<polygon fill="#63b8ff" stroke="#63b8ff" points="238.63,-144.79 228.14,-146.24 237.25,-151.65 238.63,-144.79"/>
</g>
<!-- Node5&#45;&gt;Node14 -->
<g id="edge26" class="edge">
<title>Node5&#45;&gt;Node14</title>
<path fill="none" stroke="#63b8ff" d="M663.08,-186.62C688.05,-178.27 726.18,-165.52 757.53,-155.04"/>
<polygon fill="#63b8ff" stroke="#63b8ff" points="758.49,-158.41 766.87,-151.92 756.28,-151.77 758.49,-158.41"/>
</g>
<!-- Node5&#45;&gt;Node15 -->
<g id="edge27" class="edge">
<title>Node5&#45;&gt;Node15</title>
<path fill="none" stroke="#63b8ff" d="M709.6,-190.22C813.51,-182.84 1009.58,-168.38 1176.5,-151 1191,-149.49 1206.54,-147.65 1221.47,-145.81"/>
<polygon fill="#63b8ff" stroke="#63b8ff" points="1221.75,-149.3 1231.24,-144.59 1220.89,-142.35 1221.75,-149.3"/>
</g>
<!-- Node18 -->
<g id="node18" class="node">
<title>Node18</title>
<g id="a_node18"><a xlink:href="zscore_8h_source.html" target="_top" xlink:title=" ">
<polygon fill="white" stroke="#666666" points="557,-145.5 448,-145.5 448,-126.5 557,-126.5 557,-145.5"/>
<text text-anchor="middle" x="502.5" y="-133.5" font-family="Helvetica,sans-Serif" font-size="10.00">ViennaRNA/zscore.h</text>
</a>
</g>
</g>
<!-- Node5&#45;&gt;Node18 -->
<g id="edge33" class="edge">
<title>Node5&#45;&gt;Node18</title>
<path fill="none" stroke="#63b8ff" d="M616.15,-186.62C594.11,-176.99 558.71,-161.54 533.27,-150.43"/>
<polygon fill="#63b8ff" stroke="#63b8ff" points="535,-147.37 524.43,-146.57 532.19,-153.78 535,-147.37"/>
</g>
<!-- Node7&#45;&gt;Node2 -->
<g id="edge8" class="edge">
<title>Node7&#45;&gt;Node2</title>
<path fill="none" stroke="#63b8ff" d="M1111.23,-145.71C1114.46,-163.38 1115.1,-204.02 1113.14,-230.73"/>
<polygon fill="#63b8ff" stroke="#63b8ff" points="1109.68,-230.08 1112.2,-240.38 1116.65,-230.76 1109.68,-230.08"/>
</g>
<!-- Node7&#45;&gt;Node3 -->
<g id="edge7" class="edge">
<title>Node7&#45;&gt;Node3</title>
<path fill="none" stroke="#63b8ff" d="M1128.91,-126.1C1155.12,-115.21 1199.71,-96.68 1229.87,-84.14"/>
<polygon fill="#63b8ff" stroke="#63b8ff" points="1230.98,-87.47 1238.87,-80.4 1228.29,-81.01 1230.98,-87.47"/>
</g>
<!-- Node7&#45;&gt;Node5 -->
<g id="edge9" class="edge">
<title>Node7&#45;&gt;Node5</title>
<path fill="none" stroke="#63b8ff" d="M1068.33,-145.99C1058.31,-147.77 1047.56,-149.54 1037.5,-151 928.74,-166.79 802.32,-180.27 720.89,-188.13"/>
<polygon fill="#63b8ff" stroke="#63b8ff" points="720.83,-184.62 711.21,-189.06 721.5,-191.59 720.83,-184.62"/>
</g>
<!-- Node7&#45;&gt;Node6 -->
<g id="edge10" class="edge">
<title>Node7&#45;&gt;Node6</title>
<path fill="none" stroke="#63b8ff" d="M1107.5,-126.1C1107.5,-117.12 1107.5,-102.95 1107.5,-91.22"/>
<polygon fill="#63b8ff" stroke="#63b8ff" points="1111,-91.34 1107.5,-81.34 1104,-91.34 1111,-91.34"/>
</g>
<!-- Node8&#45;&gt;Node5 -->
<g id="edge12" class="edge">
<title>Node8&#45;&gt;Node5</title>
<path fill="none" stroke="#63b8ff" d="M641.46,-145.67C643.16,-153.54 643.65,-165.45 642.93,-175.66"/>
<polygon fill="#63b8ff" stroke="#63b8ff" points="639.49,-175 641.65,-185.37 646.43,-175.91 639.49,-175"/>
</g>
<!-- Node9&#45;&gt;Node2 -->
<g id="edge14" class="edge">
<title>Node9&#45;&gt;Node2</title>
<path fill="none" stroke="#63b8ff" d="M968.89,-145.97C996.36,-164.62 1053.01,-207.99 1084.86,-234.37"/>
<polygon fill="#63b8ff" stroke="#63b8ff" points="1082.44,-236.91 1092.35,-240.67 1086.95,-231.56 1082.44,-236.91"/>
</g>
<!-- Node9&#45;&gt;Node5 -->
<g id="edge15" class="edge">
<title>Node9&#45;&gt;Node5</title>
<path fill="none" stroke="#63b8ff" d="M909.79,-146C855.75,-156.37 763.52,-173.41 701.27,-184.54"/>
<polygon fill="#63b8ff" stroke="#63b8ff" points="700.73,-181.08 691.5,-186.29 701.96,-187.98 700.73,-181.08"/>
</g>
<!-- Node10&#45;&gt;Node5 -->
<g id="edge17" class="edge">
<title>Node10&#45;&gt;Node5</title>
<path fill="none" stroke="#63b8ff" d="M391.46,-147.48C447.54,-157.88 530.33,-173.75 583.9,-184.37"/>
<polygon fill="#63b8ff" stroke="#63b8ff" points="582.89,-187.74 593.38,-186.26 584.26,-180.87 582.89,-187.74"/>
</g>
<!-- Node11 -->
<g id="node11" class="node">
<title>Node11</title>
<g id="a_node11"><a xlink:href="constraints_2basic_8h.html" target="_top" xlink:title="Functions and data structures for constraining secondary structure predictions and evaluation.">
<polygon fill="white" stroke="#666666" points="391,-85 272,-85 272,-55 391,-55 391,-85"/>
<text text-anchor="start" x="280" y="-73" font-family="Helvetica,sans-Serif" font-size="10.00">ViennaRNA/constraints</text>
<text text-anchor="middle" x="331.5" y="-62" font-family="Helvetica,sans-Serif" font-size="10.00">/basic.h</text>
</a>
</g>
</g>
<!-- Node10&#45;&gt;Node11 -->
<g id="edge18" class="edge">
<title>Node10&#45;&gt;Node11</title>
<path fill="none" stroke="#63b8ff" d="M331.5,-120.8C331.5,-113.67 331.5,-104.82 331.5,-96.56"/>
<polygon fill="#63b8ff" stroke="#63b8ff" points="335,-96.68 331.5,-86.68 328,-96.68 335,-96.68"/>
</g>
<!-- Node11&#45;&gt;Node5 -->
<g id="edge19" class="edge">
<title>Node11&#45;&gt;Node5</title>
<path fill="none" stroke="#63b8ff" d="M351.22,-85.33C364.84,-95.27 383.34,-108.84 399.5,-121 416.98,-134.14 418.7,-141.72 438.5,-151 473.91,-167.6 515.85,-178.17 551.99,-184.82"/>
<polygon fill="#63b8ff" stroke="#63b8ff" points="551.06,-188.21 561.51,-186.5 552.27,-181.32 551.06,-188.21"/>
</g>
<!-- Node12&#45;&gt;Node2 -->
<g id="edge21" class="edge">
<title>Node12&#45;&gt;Node2</title>
<path fill="none" stroke="#63b8ff" d="M119.3,-150.97C185.05,-166.94 293.68,-192.59 388.5,-206 620.08,-238.75 896.27,-250.27 1028.9,-254.14"/>
<polygon fill="#63b8ff" stroke="#63b8ff" points="1028.52,-257.63 1038.62,-254.42 1028.72,-250.64 1028.52,-257.63"/>
</g>
<!-- Node12&#45;&gt;Node5 -->
<g id="edge22" class="edge">
<title>Node12&#45;&gt;Node5</title>
<path fill="none" stroke="#63b8ff" d="M119.2,-148.12C125.06,-149.19 130.89,-150.18 136.5,-151 281.87,-172.25 452.18,-184.63 551.88,-190.72"/>
<polygon fill="#63b8ff" stroke="#63b8ff" points="551.39,-194.2 561.58,-191.31 551.81,-187.21 551.39,-194.2"/>
</g>
<!-- Node12&#45;&gt;Node11 -->
<g id="edge23" class="edge">
<title>Node12&#45;&gt;Node11</title>
<path fill="none" stroke="#63b8ff" d="M119.19,-120.95C160.91,-111.14 216.79,-97.99 260.76,-87.65"/>
<polygon fill="#63b8ff" stroke="#63b8ff" points="261.54,-91.06 270.47,-85.36 259.94,-84.24 261.54,-91.06"/>
</g>
<!-- Node13&#45;&gt;Node5 -->
<g id="edge25" class="edge">
<title>Node13&#45;&gt;Node5</title>
<path fill="none" stroke="#63b8ff" d="M244.2,-145.94C253.31,-147.76 262.7,-149.56 271.5,-151 367.41,-166.69 478.01,-179.16 552.16,-186.86"/>
<polygon fill="#63b8ff" stroke="#63b8ff" points="551.47,-190.31 561.78,-187.86 552.19,-183.35 551.47,-190.31"/>
</g>
<!-- Node15&#45;&gt;Node2 -->
<g id="edge28" class="edge">
<title>Node15&#45;&gt;Node2</title>
<path fill="none" stroke="#63b8ff" d="M1288.78,-151.38C1276.53,-166.43 1252.02,-190.04 1227.5,-206 1208.57,-218.32 1186.1,-229.07 1165.69,-237.41"/>
<polygon fill="#63b8ff" stroke="#63b8ff" points="1164.65,-234.06 1156.64,-240.99 1167.23,-240.56 1164.65,-234.06"/>
</g>
<!-- Node15&#45;&gt;Node5 -->
<g id="edge29" class="edge">
<title>Node15&#45;&gt;Node5</title>
<path fill="none" stroke="#63b8ff" d="M1232.52,-146.62C1219.96,-148.19 1206.85,-149.71 1194.5,-151 1027.31,-168.41 830.88,-182.89 721.28,-190.26"/>
<polygon fill="#63b8ff" stroke="#63b8ff" points="721.23,-186.75 711.48,-190.91 721.69,-193.74 721.23,-186.75"/>
</g>
<!-- Node15&#45;&gt;Node16 -->
<g id="edge30" class="edge">
<title>Node15&#45;&gt;Node16</title>
<path fill="none" stroke="#63b8ff" d="M1326.47,-120.64C1349.55,-109.93 1380.89,-95.4 1403.69,-84.82"/>
<polygon fill="#63b8ff" stroke="#63b8ff" points="1405.15,-88.01 1412.75,-80.62 1402.21,-81.65 1405.15,-88.01"/>
</g>
<!-- Node16&#45;&gt;Node2 -->
<g id="edge32" class="edge">
<title>Node16&#45;&gt;Node2</title>
<path fill="none" stroke="#63b8ff" d="M1434.12,-79.88C1428.73,-104.75 1395.91,-175.3 1343.5,-206 1295.95,-233.85 1234.54,-246.22 1186.22,-251.69"/>
<polygon fill="#63b8ff" stroke="#63b8ff" points="1185.95,-248.2 1176.37,-252.72 1186.68,-255.16 1185.95,-248.2"/>
</g>
<!-- Node17 -->
<g id="node17" class="node">
<title>Node17</title>
<g id="a_node17"><a xlink:title=" ">
<polygon fill="#e0e0e0" stroke="#999999" points="1456.5,-19 1410.5,-19 1410.5,0 1456.5,0 1456.5,-19"/>
<text text-anchor="middle" x="1433.5" y="-7" font-family="Helvetica,sans-Serif" font-size="10.00">stdio.h</text>
</a>
</g>
</g>
<!-- Node16&#45;&gt;Node17 -->
<g id="edge31" class="edge">
<title>Node16&#45;&gt;Node17</title>
<path fill="none" stroke="#63b8ff" d="M1433.5,-60.37C1433.5,-52.5 1433.5,-40.6 1433.5,-30.39"/>
<polygon fill="#63b8ff" stroke="#63b8ff" points="1437,-30.68 1433.5,-20.68 1430,-30.68 1437,-30.68"/>
</g>
</g>
</svg>
