<?xml version="1.0" encoding="UTF-8" standalone="no"?>
<!DOCTYPE svg PUBLIC "-//W3C//DTD SVG 1.1//EN"
 "http://www.w3.org/Graphics/SVG/1.1/DTD/svg11.dtd">
<!-- Generated by graphviz version 7.1.0 (0)
 -->
<!-- Title: ViennaRNA/PS_dot.h Pages: 1 -->
<!--zoomable 467 -->
<svg id="main" version="1.1" xmlns="http://www.w3.org/2000/svg" xmlns:xlink="http://www.w3.org/1999/xlink" xml:space="preserve" onload="init(evt)">
<style type="text/css"><![CDATA[
.edge:hover path { stroke: red; }
.edge:hover polygon { stroke: red; fill: red; }
]]></style>
<script type="text/javascript"><![CDATA[
var edges = document.getElementsByTagName('g');
if (edges && edges.length) {
  for (var i=0;i<edges.length;i++) {
    if (edges[i].id.substr(0,4)=='edge') {
      edges[i].setAttribute('class','edge');
    }
  }
}
]]></script>
        <defs>
                <circle id="rim" cx="0" cy="0" r="7"/>
                <circle id="rim2" cx="0" cy="0" r="3.5"/>
                <g id="zoomPlus">
                        <use xlink:href="#rim" fill="#404040">
                                <set attributeName="fill" to="#808080" begin="zoomplus.mouseover" end="zoomplus.mouseout"/>
                        </use>
                        <path d="M-4,0h8M0,-4v8" fill="none" stroke="white" stroke-width="1.5" pointer-events="none"/>
                </g>
                <g id="zoomMin">
                        <use xlink:href="#rim" fill="#404040">
                                <set attributeName="fill" to="#808080" begin="zoomminus.mouseover" end="zoomminus.mouseout"/>
                        </use>
                        <path d="M-4,0h8" fill="none" stroke="white" stroke-width="1.5" pointer-events="none"/>
                </g>
                <g id="dirArrow">
                        <path fill="none" stroke="white" stroke-width="1.5" d="M0,-3.0v7 M-2.5,-0.5L0,-3.0L2.5,-0.5"/>
                </g>
               <g id="resetDef">
                       <use xlink:href="#rim2" fill="#404040">
                               <set attributeName="fill" to="#808080" begin="reset.mouseover" end="reset.mouseout"/>
                       </use>
               </g>
        </defs>

<script type="text/javascript">
var viewWidth = 1598;
var viewHeight = 467;
var sectionId = 'dynsection-0';
</script>
<script xlink:href="svgpan.js"/>
<svg id="graph" class="graph">
<g id="viewport">
<title>ViennaRNA/PS_dot.h</title>
<!-- Node1 -->
<g id="node1" class="node">
<title>Node1</title>
<g id="a_node1"><a xlink:title="Use ViennaRNA/plotting/probabilities.h instead.">
<polygon fill="#999999" stroke="#666666" points="745,-459 633,-459 633,-440 745,-440 745,-459"/>
<text text-anchor="middle" x="689" y="-447" font-family="Helvetica,sans-Serif" font-size="10.00">ViennaRNA/PS_dot.h</text>
</a>
</g>
</g>
<!-- Node2 -->
<g id="node2" class="node">
<title>Node2</title>
<g id="a_node2"><a xlink:href="probabilities_8h.html" target="_top" xlink:title="Various functions for plotting RNA secondary structures, dot&#45;plots and other visualizations.">
<polygon fill="white" stroke="#666666" points="582.5,-338 479.5,-338 479.5,-308 582.5,-308 582.5,-338"/>
<text text-anchor="start" x="487.5" y="-326" font-family="Helvetica,sans-Serif" font-size="10.00">ViennaRNA/plotting</text>
<text text-anchor="middle" x="531" y="-315" font-family="Helvetica,sans-Serif" font-size="10.00">/probabilities.h</text>
</a>
</g>
</g>
<!-- Node1&#45;&gt;Node2 -->
<g id="edge1" class="edge">
<title>Node1&#45;&gt;Node2</title>
<path fill="none" stroke="#63b8ff" d="M677.64,-439.55C652.82,-419.99 593.22,-373.02 558.11,-345.36"/>
<polygon fill="#63b8ff" stroke="#63b8ff" points="560.54,-342.82 550.52,-339.38 556.21,-348.32 560.54,-342.82"/>
</g>
<!-- Node20 -->
<g id="node20" class="node">
<title>Node20</title>
<g id="a_node20"><a xlink:href="layouts_8h.html" target="_top" xlink:title="Secondary structure plot layout algorithms.">
<polygon fill="white" stroke="#666666" points="740.5,-338 637.5,-338 637.5,-308 740.5,-308 740.5,-338"/>
<text text-anchor="start" x="645.5" y="-326" font-family="Helvetica,sans-Serif" font-size="10.00">ViennaRNA/plotting</text>
<text text-anchor="middle" x="689" y="-315" font-family="Helvetica,sans-Serif" font-size="10.00">/layouts.h</text>
</a>
</g>
</g>
<!-- Node1&#45;&gt;Node20 -->
<g id="edge45" class="edge">
<title>Node1&#45;&gt;Node20</title>
<path fill="none" stroke="#63b8ff" d="M689,-439.55C689,-420.99 689,-377.75 689,-349.75"/>
<polygon fill="#63b8ff" stroke="#63b8ff" points="692.5,-349.96 689,-339.96 685.5,-349.96 692.5,-349.96"/>
</g>
<!-- Node23 -->
<g id="node23" class="node">
<title>Node23</title>
<g id="a_node23"><a xlink:href="plotting_2structures_8h.html" target="_top" xlink:title="Various functions for plotting RNA secondary structures.">
<polygon fill="white" stroke="#666666" points="855.5,-404 752.5,-404 752.5,-374 855.5,-374 855.5,-404"/>
<text text-anchor="start" x="760.5" y="-392" font-family="Helvetica,sans-Serif" font-size="10.00">ViennaRNA/plotting</text>
<text text-anchor="middle" x="804" y="-381" font-family="Helvetica,sans-Serif" font-size="10.00">/structures.h</text>
</a>
</g>
</g>
<!-- Node1&#45;&gt;Node23 -->
<g id="edge49" class="edge">
<title>Node1&#45;&gt;Node23</title>
<path fill="none" stroke="#63b8ff" d="M706.47,-439.62C722.09,-431.67 745.54,-419.74 765.54,-409.57"/>
<polygon fill="#63b8ff" stroke="#63b8ff" points="766.94,-412.78 774.27,-405.13 763.77,-406.54 766.94,-412.78"/>
</g>
<!-- Node3 -->
<g id="node3" class="node">
<title>Node3</title>
<g id="a_node3"><a xlink:href="datastructures_2basic_8h.html" target="_top" xlink:title="Various data structures and pre&#45;processor macros.">
<polygon fill="white" stroke="#666666" points="598,-272 464,-272 464,-242 598,-242 598,-272"/>
<text text-anchor="start" x="472" y="-260" font-family="Helvetica,sans-Serif" font-size="10.00">ViennaRNA/datastructures</text>
<text text-anchor="middle" x="531" y="-249" font-family="Helvetica,sans-Serif" font-size="10.00">/basic.h</text>
</a>
</g>
</g>
<!-- Node2&#45;&gt;Node3 -->
<g id="edge2" class="edge">
<title>Node2&#45;&gt;Node3</title>
<path fill="none" stroke="#63b8ff" d="M531,-307.8C531,-300.67 531,-291.82 531,-283.56"/>
<polygon fill="#63b8ff" stroke="#63b8ff" points="534.5,-283.68 531,-273.68 527.5,-283.68 534.5,-283.68"/>
</g>
<!-- Node17 -->
<g id="node17" class="node">
<title>Node17</title>
<g id="a_node17"><a xlink:href="utils_2structures_8h.html" target="_top" xlink:title="Various utility&#45; and helper&#45;functions for secondary structure parsing, converting,...">
<polygon fill="white" stroke="#666666" points="144,-79.5 0,-79.5 0,-60.5 144,-60.5 144,-79.5"/>
<text text-anchor="middle" x="72" y="-67.5" font-family="Helvetica,sans-Serif" font-size="10.00">ViennaRNA/utils/structures.h</text>
</a>
</g>
</g>
<!-- Node2&#45;&gt;Node17 -->
<g id="edge44" class="edge">
<title>Node2&#45;&gt;Node17</title>
<path fill="none" stroke="#63b8ff" d="M479.23,-309.49C407.68,-291.3 275.33,-254.36 169,-206 125.98,-186.43 102.74,-191.26 78,-151 66.91,-132.95 66.88,-108.09 68.68,-90.9"/>
<polygon fill="#63b8ff" stroke="#63b8ff" points="72.12,-91.6 70.02,-81.21 65.19,-90.64 72.12,-91.6"/>
</g>
<!-- Node4 -->
<g id="node4" class="node">
<title>Node4</title>
<g id="a_node4"><a xlink:href="constants_8h.html" target="_top" xlink:title="Energy parameter constants.">
<polygon fill="white" stroke="#666666" points="1590,-79.5 1432,-79.5 1432,-60.5 1590,-60.5 1590,-79.5"/>
<text text-anchor="middle" x="1511" y="-67.5" font-family="Helvetica,sans-Serif" font-size="10.00">ViennaRNA/params/constants.h</text>
</a>
</g>
</g>
<!-- Node3&#45;&gt;Node4 -->
<g id="edge3" class="edge">
<title>Node3&#45;&gt;Node4</title>
<path fill="none" stroke="#63b8ff" d="M598.47,-243.09C601.35,-242.69 604.2,-242.32 607,-242 936.3,-203.89 1029.57,-282.99 1352,-206 1410.25,-192.09 1432.61,-193.29 1475,-151 1491.65,-134.39 1501.31,-108.7 1506.36,-90.94"/>
<polygon fill="#63b8ff" stroke="#63b8ff" points="1509.73,-91.9 1508.82,-81.35 1502.95,-90.16 1509.73,-91.9"/>
</g>
<!-- Node6 -->
<g id="node6" class="node">
<title>Node6</title>
<g id="a_node6"><a xlink:href="fold__compound_8h.html" target="_top" xlink:title="The Basic Fold Compound API.">
<polygon fill="white" stroke="#666666" points="805,-206 659,-206 659,-187 805,-187 805,-206"/>
<text text-anchor="middle" x="732" y="-194" font-family="Helvetica,sans-Serif" font-size="10.00">ViennaRNA/fold_compound.h</text>
</a>
</g>
</g>
<!-- Node3&#45;&gt;Node6 -->
<g id="edge5" class="edge">
<title>Node3&#45;&gt;Node6</title>
<path fill="none" stroke="#63b8ff" d="M580.69,-241.54C614.48,-231.7 658.69,-218.84 690.58,-209.56"/>
<polygon fill="#63b8ff" stroke="#63b8ff" points="691.23,-213.01 699.86,-206.86 689.28,-206.29 691.23,-213.01"/>
</g>
<!-- Node7 -->
<g id="node7" class="node">
<title>Node7</title>
<g id="a_node7"><a xlink:href="model_8h.html" target="_top" xlink:title="The model details data structure and its corresponding modifiers.">
<polygon fill="white" stroke="#666666" points="1373,-79.5 1267,-79.5 1267,-60.5 1373,-60.5 1373,-79.5"/>
<text text-anchor="middle" x="1320" y="-67.5" font-family="Helvetica,sans-Serif" font-size="10.00">ViennaRNA/model.h</text>
</a>
</g>
</g>
<!-- Node3&#45;&gt;Node7 -->
<g id="edge35" class="edge">
<title>Node3&#45;&gt;Node7</title>
<path fill="none" stroke="#63b8ff" d="M598.09,-243.37C601.1,-242.89 604.08,-242.43 607,-242 756.53,-220 1159.5,-240.89 1281,-151 1300.57,-136.52 1310.83,-109.56 1315.82,-90.96"/>
<polygon fill="#63b8ff" stroke="#63b8ff" points="1319.18,-91.94 1318.08,-81.4 1312.37,-90.32 1319.18,-91.94"/>
</g>
<!-- Node8 -->
<g id="node8" class="node">
<title>Node8</title>
<g id="a_node8"><a xlink:href="params_2basic_8h.html" target="_top" xlink:title="Functions to deal with sets of energy parameters.">
<polygon fill="white" stroke="#666666" points="1466,-145.5 1328,-145.5 1328,-126.5 1466,-126.5 1466,-145.5"/>
<text text-anchor="middle" x="1397" y="-133.5" font-family="Helvetica,sans-Serif" font-size="10.00">ViennaRNA/params/basic.h</text>
</a>
</g>
</g>
<!-- Node3&#45;&gt;Node8 -->
<g id="edge36" class="edge">
<title>Node3&#45;&gt;Node8</title>
<path fill="none" stroke="#63b8ff" d="M598.46,-241.95C755.04,-223.79 1158.6,-263.16 1305,-206 1333.24,-194.97 1358.94,-170.32 1376.3,-153.67"/>
<polygon fill="#63b8ff" stroke="#63b8ff" points="1378.64,-156.28 1383.49,-146.85 1373.83,-151.2 1378.64,-156.28"/>
</g>
<!-- Node10 -->
<g id="node10" class="node">
<title>Node10</title>
<g id="a_node10"><a xlink:href="dp__matrices_8h.html" target="_top" xlink:title="Functions to deal with standard dynamic programming (DP) matrices.">
<polygon fill="white" stroke="#666666" points="385.5,-145.5 252.5,-145.5 252.5,-126.5 385.5,-126.5 385.5,-145.5"/>
<text text-anchor="middle" x="319" y="-133.5" font-family="Helvetica,sans-Serif" font-size="10.00">ViennaRNA/dp_matrices.h</text>
</a>
</g>
</g>
<!-- Node3&#45;&gt;Node10 -->
<g id="edge37" class="edge">
<title>Node3&#45;&gt;Node10</title>
<path fill="none" stroke="#63b8ff" d="M500.84,-241.65C457.51,-218.93 379.08,-174.92 340.86,-151.88"/>
<polygon fill="#63b8ff" stroke="#63b8ff" points="342.86,-149 332.5,-146.76 339.2,-154.97 342.86,-149"/>
</g>
<!-- Node11 -->
<g id="node11" class="node">
<title>Node11</title>
<g id="a_node11"><a xlink:href="hard_8h.html" target="_top" xlink:title="Functions and data structures for handling of secondary structure hard constraints.">
<polygon fill="white" stroke="#666666" points="659.5,-151 540.5,-151 540.5,-121 659.5,-121 659.5,-151"/>
<text text-anchor="start" x="548.5" y="-139" font-family="Helvetica,sans-Serif" font-size="10.00">ViennaRNA/constraints</text>
<text text-anchor="middle" x="600" y="-128" font-family="Helvetica,sans-Serif" font-size="10.00">/hard.h</text>
</a>
</g>
</g>
<!-- Node3&#45;&gt;Node11 -->
<g id="edge38" class="edge">
<title>Node3&#45;&gt;Node11</title>
<path fill="none" stroke="#63b8ff" d="M539.19,-241.88C550.69,-222.04 571.81,-185.62 585.88,-161.35"/>
<polygon fill="#63b8ff" stroke="#63b8ff" points="588.86,-163.19 590.85,-152.78 582.81,-159.68 588.86,-163.19"/>
</g>
<!-- Node13 -->
<g id="node13" class="node">
<title>Node13</title>
<g id="a_node13"><a xlink:href="soft_8h.html" target="_top" xlink:title="Functions and data structures for secondary structure soft constraints.">
<polygon fill="white" stroke="#666666" points="522.5,-151 403.5,-151 403.5,-121 522.5,-121 522.5,-151"/>
<text text-anchor="start" x="411.5" y="-139" font-family="Helvetica,sans-Serif" font-size="10.00">ViennaRNA/constraints</text>
<text text-anchor="middle" x="463" y="-128" font-family="Helvetica,sans-Serif" font-size="10.00">/soft.h</text>
</a>
</g>
</g>
<!-- Node3&#45;&gt;Node13 -->
<g id="edge39" class="edge">
<title>Node3&#45;&gt;Node13</title>
<path fill="none" stroke="#63b8ff" d="M518.38,-241.88C504.56,-222.13 483.54,-185.94 471.51,-161.68"/>
<polygon fill="#63b8ff" stroke="#63b8ff" points="474.76,-160.38 467.32,-152.84 468.44,-163.37 474.76,-160.38"/>
</g>
<!-- Node14 -->
<g id="node14" class="node">
<title>Node14</title>
<g id="a_node14"><a xlink:href="grammar_8h.html" target="_top" xlink:title="Implementations for the RNA folding grammar.">
<polygon fill="white" stroke="#666666" points="1138.5,-145.5 1021.5,-145.5 1021.5,-126.5 1138.5,-126.5 1138.5,-145.5"/>
<text text-anchor="middle" x="1080" y="-133.5" font-family="Helvetica,sans-Serif" font-size="10.00">ViennaRNA/grammar.h</text>
</a>
</g>
</g>
<!-- Node3&#45;&gt;Node14 -->
<g id="edge40" class="edge">
<title>Node3&#45;&gt;Node14</title>
<path fill="none" stroke="#63b8ff" d="M598.13,-243.6C601.13,-243.05 604.09,-242.52 607,-242 698.92,-225.54 722.73,-225.74 814,-206 893.94,-188.71 986.09,-163.64 1038.26,-148.96"/>
<polygon fill="#63b8ff" stroke="#63b8ff" points="1038.95,-152.4 1047.62,-146.31 1037.04,-145.66 1038.95,-152.4"/>
</g>
<!-- Node15 -->
<g id="node15" class="node">
<title>Node15</title>
<g id="a_node15"><a xlink:href="structured__domains_8h.html" target="_top" xlink:title="This module provides interfaces that deal with additional structured domains in the folding grammar.">
<polygon fill="white" stroke="#666666" points="1271.5,-151 1156.5,-151 1156.5,-121 1271.5,-121 1271.5,-151"/>
<text text-anchor="start" x="1164.5" y="-139" font-family="Helvetica,sans-Serif" font-size="10.00">ViennaRNA/structured</text>
<text text-anchor="middle" x="1214" y="-128" font-family="Helvetica,sans-Serif" font-size="10.00">_domains.h</text>
</a>
</g>
</g>
<!-- Node3&#45;&gt;Node15 -->
<g id="edge41" class="edge">
<title>Node3&#45;&gt;Node15</title>
<path fill="none" stroke="#63b8ff" d="M598.11,-243.47C601.11,-242.96 604.09,-242.47 607,-242 722.61,-223.39 752.5,-225.29 868,-206 989.55,-185.7 1021.93,-176.88 1145.06,-151.6"/>
<polygon fill="#63b8ff" stroke="#63b8ff" points="1145.49,-155.08 1154.58,-149.65 1144.08,-148.22 1145.49,-155.08"/>
</g>
<!-- Node16 -->
<g id="node16" class="node">
<title>Node16</title>
<g id="a_node16"><a xlink:href="unstructured__domains_8h.html" target="_top" xlink:title="Functions to modify unstructured domains, e.g. to incorporate ligands binding to unpaired stretches.">
<polygon fill="white" stroke="#666666" points="234.5,-151 109.5,-151 109.5,-121 234.5,-121 234.5,-151"/>
<text text-anchor="start" x="117.5" y="-139" font-family="Helvetica,sans-Serif" font-size="10.00">ViennaRNA/unstructured</text>
<text text-anchor="middle" x="172" y="-128" font-family="Helvetica,sans-Serif" font-size="10.00">_domains.h</text>
</a>
</g>
</g>
<!-- Node3&#45;&gt;Node16 -->
<g id="edge42" class="edge">
<title>Node3&#45;&gt;Node16</title>
<path fill="none" stroke="#63b8ff" d="M482.74,-241.53C414.48,-219.8 290.61,-178.79 221.62,-155.11"/>
<polygon fill="#63b8ff" stroke="#63b8ff" points="223.07,-151.91 212.47,-151.96 220.79,-158.52 223.07,-151.91"/>
</g>
<!-- Node3&#45;&gt;Node17 -->
<g id="edge43" class="edge">
<title>Node3&#45;&gt;Node17</title>
<path fill="none" stroke="#63b8ff" d="M463.59,-248.23C354.14,-233.82 144.91,-199.89 91,-151 74.08,-135.65 67.38,-109.5 66.74,-91.29"/>
<polygon fill="#63b8ff" stroke="#63b8ff" points="70.23,-91.6 67.18,-81.45 63.24,-91.29 70.23,-91.6"/>
</g>
<!-- Node5 -->
<g id="node5" class="node">
<title>Node5</title>
<g id="a_node5"><a xlink:title=" ">
<polygon fill="#e0e0e0" stroke="#999999" points="1535,-19 1487,-19 1487,0 1535,0 1535,-19"/>
<text text-anchor="middle" x="1511" y="-7" font-family="Helvetica,sans-Serif" font-size="10.00">limits.h</text>
</a>
</g>
</g>
<!-- Node4&#45;&gt;Node5 -->
<g id="edge4" class="edge">
<title>Node4&#45;&gt;Node5</title>
<path fill="none" stroke="#63b8ff" d="M1511,-60.37C1511,-52.5 1511,-40.6 1511,-30.39"/>
<polygon fill="#63b8ff" stroke="#63b8ff" points="1514.5,-30.68 1511,-20.68 1507.5,-30.68 1514.5,-30.68"/>
</g>
<!-- Node6&#45;&gt;Node7 -->
<g id="edge6" class="edge">
<title>Node6&#45;&gt;Node7</title>
<path fill="none" stroke="#63b8ff" d="M801.8,-186.5C846.18,-179.57 904.43,-168.21 954,-151 981.79,-141.35 985.04,-130.14 1013,-121 1094.18,-94.46 1192.23,-81.63 1255.32,-75.7"/>
<polygon fill="#63b8ff" stroke="#63b8ff" points="1255.53,-79.2 1265.17,-74.81 1254.9,-72.22 1255.53,-79.2"/>
</g>
<!-- Node6&#45;&gt;Node8 -->
<g id="edge7" class="edge">
<title>Node6&#45;&gt;Node8</title>
<path fill="none" stroke="#63b8ff" d="M805.08,-190.06C908.97,-182.5 1105.02,-167.84 1272,-151 1286.31,-149.56 1301.6,-147.84 1316.41,-146.11"/>
<polygon fill="#63b8ff" stroke="#63b8ff" points="1316.6,-149.61 1326.12,-144.96 1315.78,-142.66 1316.6,-149.61"/>
</g>
<!-- Node9 -->
<g id="node9" class="node">
<title>Node9</title>
<g id="a_node9"><a xlink:href="sequence_8h.html" target="_top" xlink:title="Functions and data structures related to sequence representations ,.">
<polygon fill="white" stroke="#666666" points="927,-145.5 805,-145.5 805,-126.5 927,-126.5 927,-145.5"/>
<text text-anchor="middle" x="866" y="-133.5" font-family="Helvetica,sans-Serif" font-size="10.00">ViennaRNA/sequence.h</text>
</a>
</g>
</g>
<!-- Node6&#45;&gt;Node9 -->
<g id="edge12" class="edge">
<title>Node6&#45;&gt;Node9</title>
<path fill="none" stroke="#63b8ff" d="M747.34,-186.62C767.44,-176.95 802.82,-161.4 829.81,-150.28"/>
<polygon fill="#63b8ff" stroke="#63b8ff" points="831.08,-153.55 839.03,-146.54 828.45,-147.06 831.08,-153.55"/>
</g>
<!-- Node6&#45;&gt;Node10 -->
<g id="edge14" class="edge">
<title>Node6&#45;&gt;Node10</title>
<path fill="none" stroke="#63b8ff" d="M658.7,-187.81C588.19,-179.67 478.96,-165.94 385,-151 379.26,-150.09 373.29,-149.08 367.37,-148.03"/>
<polygon fill="#63b8ff" stroke="#63b8ff" points="368.1,-144.6 357.63,-146.25 366.84,-151.49 368.1,-144.6"/>
</g>
<!-- Node6&#45;&gt;Node11 -->
<g id="edge17" class="edge">
<title>Node6&#45;&gt;Node11</title>
<path fill="none" stroke="#63b8ff" d="M706.94,-186.62C687.07,-178.56 659.19,-166.41 636.83,-156.15"/>
<polygon fill="#63b8ff" stroke="#63b8ff" points="638.59,-153.11 628.04,-152.08 635.64,-159.46 638.59,-153.11"/>
</g>
<!-- Node6&#45;&gt;Node13 -->
<g id="edge21" class="edge">
<title>Node6&#45;&gt;Node13</title>
<path fill="none" stroke="#63b8ff" d="M685.83,-186.55C644,-177.85 581.87,-164.42 533.8,-153.74"/>
<polygon fill="#63b8ff" stroke="#63b8ff" points="534.83,-150.38 524.31,-151.62 533.31,-157.22 534.83,-150.38"/>
</g>
<!-- Node6&#45;&gt;Node14 -->
<g id="edge25" class="edge">
<title>Node6&#45;&gt;Node14</title>
<path fill="none" stroke="#63b8ff" d="M783.61,-186.53C837.29,-177.87 923.47,-164.17 998,-151 1003.42,-150.04 1009.06,-149.01 1014.74,-147.97"/>
<polygon fill="#63b8ff" stroke="#63b8ff" points="1014.98,-151.48 1024.17,-146.22 1013.7,-144.6 1014.98,-151.48"/>
</g>
<!-- Node6&#45;&gt;Node15 -->
<g id="edge27" class="edge">
<title>Node6&#45;&gt;Node15</title>
<path fill="none" stroke="#63b8ff" d="M805.19,-189.95C886.08,-183.31 1020.41,-170.77 1144.87,-151.4"/>
<polygon fill="#63b8ff" stroke="#63b8ff" points="1145.29,-154.88 1154.62,-149.86 1144.2,-147.96 1145.29,-154.88"/>
</g>
<!-- Node6&#45;&gt;Node16 -->
<g id="edge28" class="edge">
<title>Node6&#45;&gt;Node16</title>
<path fill="none" stroke="#63b8ff" d="M658.51,-191.58C563.51,-185.75 393.05,-173.21 245.88,-152.68"/>
<polygon fill="#63b8ff" stroke="#63b8ff" points="246.77,-149.27 236.38,-151.34 245.79,-156.2 246.77,-149.27"/>
</g>
<!-- Node19 -->
<g id="node19" class="node">
<title>Node19</title>
<g id="a_node19"><a xlink:href="zscore_8h_source.html" target="_top" xlink:title=" ">
<polygon fill="white" stroke="#666666" points="786.5,-145.5 677.5,-145.5 677.5,-126.5 786.5,-126.5 786.5,-145.5"/>
<text text-anchor="middle" x="732" y="-133.5" font-family="Helvetica,sans-Serif" font-size="10.00">ViennaRNA/zscore.h</text>
</a>
</g>
</g>
<!-- Node6&#45;&gt;Node19 -->
<g id="edge34" class="edge">
<title>Node6&#45;&gt;Node19</title>
<path fill="none" stroke="#63b8ff" d="M732,-186.87C732,-179 732,-167.1 732,-156.89"/>
<polygon fill="#63b8ff" stroke="#63b8ff" points="735.5,-157.18 732,-147.18 728.5,-157.18 735.5,-157.18"/>
</g>
<!-- Node8&#45;&gt;Node3 -->
<g id="edge9" class="edge">
<title>Node8&#45;&gt;Node3</title>
<path fill="none" stroke="#63b8ff" d="M1395.23,-145.81C1385.82,-161.32 1356.17,-193.05 1323,-206 1176.46,-263.21 772.25,-223.71 616,-242 613.85,-242.25 611.67,-242.53 609.47,-242.82"/>
<polygon fill="#63b8ff" stroke="#63b8ff" points="609.23,-239.32 599.84,-244.23 610.24,-246.25 609.23,-239.32"/>
</g>
<!-- Node8&#45;&gt;Node4 -->
<g id="edge8" class="edge">
<title>Node8&#45;&gt;Node4</title>
<path fill="none" stroke="#63b8ff" d="M1412.85,-126.1C1431.65,-115.55 1463.25,-97.81 1485.5,-85.32"/>
<polygon fill="#63b8ff" stroke="#63b8ff" points="1486.96,-88.51 1493.96,-80.56 1483.53,-82.41 1486.96,-88.51"/>
</g>
<!-- Node8&#45;&gt;Node6 -->
<g id="edge10" class="edge">
<title>Node8&#45;&gt;Node6</title>
<path fill="none" stroke="#63b8ff" d="M1334.99,-145.99C1320.28,-147.76 1304.63,-149.52 1290,-151 1122.76,-167.86 926.35,-182.55 816.76,-190.1"/>
<polygon fill="#63b8ff" stroke="#63b8ff" points="816.71,-186.59 806.97,-190.77 817.18,-193.58 816.71,-186.59"/>
</g>
<!-- Node8&#45;&gt;Node7 -->
<g id="edge11" class="edge">
<title>Node8&#45;&gt;Node7</title>
<path fill="none" stroke="#63b8ff" d="M1386.29,-126.1C1374.11,-115.98 1353.98,-99.24 1339.09,-86.87"/>
<polygon fill="#63b8ff" stroke="#63b8ff" points="1341.71,-84.49 1331.78,-80.79 1337.23,-89.87 1341.71,-84.49"/>
</g>
<!-- Node9&#45;&gt;Node6 -->
<g id="edge13" class="edge">
<title>Node9&#45;&gt;Node6</title>
<path fill="none" stroke="#63b8ff" d="M850.48,-145.97C830.29,-155.67 794.9,-171.22 767.96,-182.31"/>
<polygon fill="#63b8ff" stroke="#63b8ff" points="766.71,-179.04 758.76,-186.05 769.35,-185.53 766.71,-179.04"/>
</g>
<!-- Node10&#45;&gt;Node3 -->
<g id="edge15" class="edge">
<title>Node10&#45;&gt;Node3</title>
<path fill="none" stroke="#63b8ff" d="M338.77,-145.97C376.03,-164.98 456.14,-209.68 500.37,-235.88"/>
<polygon fill="#63b8ff" stroke="#63b8ff" points="498.33,-238.74 508.71,-240.87 501.93,-232.73 498.33,-238.74"/>
</g>
<!-- Node10&#45;&gt;Node6 -->
<g id="edge16" class="edge">
<title>Node10&#45;&gt;Node6</title>
<path fill="none" stroke="#63b8ff" d="M373.74,-145.98C383.53,-147.74 393.58,-149.5 403,-151 487.26,-164.4 583.81,-176.82 650.48,-185.11"/>
<polygon fill="#63b8ff" stroke="#63b8ff" points="649.88,-188.57 660.24,-186.33 650.74,-181.62 649.88,-188.57"/>
</g>
<!-- Node11&#45;&gt;Node6 -->
<g id="edge18" class="edge">
<title>Node11&#45;&gt;Node6</title>
<path fill="none" stroke="#63b8ff" d="M638.49,-151.44C660.52,-160.69 687.43,-172.63 706.79,-181.75"/>
<polygon fill="#63b8ff" stroke="#63b8ff" points="705.07,-184.8 715.6,-185.96 708.09,-178.49 705.07,-184.8"/>
</g>
<!-- Node12 -->
<g id="node12" class="node">
<title>Node12</title>
<g id="a_node12"><a xlink:href="constraints_2basic_8h.html" target="_top" xlink:title="Functions and data structures for constraining secondary structure predictions and evaluation.">
<polygon fill="white" stroke="#666666" points="659.5,-85 540.5,-85 540.5,-55 659.5,-55 659.5,-85"/>
<text text-anchor="start" x="548.5" y="-73" font-family="Helvetica,sans-Serif" font-size="10.00">ViennaRNA/constraints</text>
<text text-anchor="middle" x="600" y="-62" font-family="Helvetica,sans-Serif" font-size="10.00">/basic.h</text>
</a>
</g>
</g>
<!-- Node11&#45;&gt;Node12 -->
<g id="edge19" class="edge">
<title>Node11&#45;&gt;Node12</title>
<path fill="none" stroke="#63b8ff" d="M600,-120.8C600,-113.67 600,-104.82 600,-96.56"/>
<polygon fill="#63b8ff" stroke="#63b8ff" points="603.5,-96.68 600,-86.68 596.5,-96.68 603.5,-96.68"/>
</g>
<!-- Node12&#45;&gt;Node6 -->
<g id="edge20" class="edge">
<title>Node12&#45;&gt;Node6</title>
<path fill="none" stroke="#63b8ff" d="M659.93,-70.94C746.77,-72.27 901.05,-80.47 936,-121 974.74,-165.93 888.81,-183.77 816.81,-190.85"/>
<polygon fill="#63b8ff" stroke="#63b8ff" points="816.55,-187.36 806.91,-191.76 817.19,-194.33 816.55,-187.36"/>
</g>
<!-- Node13&#45;&gt;Node3 -->
<g id="edge22" class="edge">
<title>Node13&#45;&gt;Node3</title>
<path fill="none" stroke="#63b8ff" d="M475.87,-151.47C489.77,-171.42 510.78,-207.63 522.71,-231.75"/>
<polygon fill="#63b8ff" stroke="#63b8ff" points="519.41,-232.96 526.84,-240.51 525.74,-229.98 519.41,-232.96"/>
</g>
<!-- Node13&#45;&gt;Node6 -->
<g id="edge23" class="edge">
<title>Node13&#45;&gt;Node6</title>
<path fill="none" stroke="#63b8ff" d="M522.95,-148.83C571.75,-159.09 639.6,-173.85 684.65,-184.01"/>
<polygon fill="#63b8ff" stroke="#63b8ff" points="683.87,-187.42 694.4,-186.22 685.42,-180.59 683.87,-187.42"/>
</g>
<!-- Node13&#45;&gt;Node12 -->
<g id="edge24" class="edge">
<title>Node13&#45;&gt;Node12</title>
<path fill="none" stroke="#63b8ff" d="M493.75,-120.64C513.05,-111.62 538.17,-99.89 559.13,-90.09"/>
<polygon fill="#63b8ff" stroke="#63b8ff" points="560.41,-93.36 567.99,-85.96 557.44,-87.02 560.41,-93.36"/>
</g>
<!-- Node14&#45;&gt;Node6 -->
<g id="edge26" class="edge">
<title>Node14&#45;&gt;Node6</title>
<path fill="none" stroke="#63b8ff" d="M1043.29,-145.94C1034.38,-147.67 1024.9,-149.43 1016,-151 946.12,-163.35 866.01,-176.16 808.66,-184.85"/>
<polygon fill="#63b8ff" stroke="#63b8ff" points="808.36,-181.35 799,-186.3 809.41,-188.27 808.36,-181.35"/>
</g>
<!-- Node16&#45;&gt;Node3 -->
<g id="edge29" class="edge">
<title>Node16&#45;&gt;Node3</title>
<path fill="none" stroke="#63b8ff" d="M220.24,-151.46C288.49,-173.19 412.35,-214.2 481.35,-237.88"/>
<polygon fill="#63b8ff" stroke="#63b8ff" points="479.91,-241.09 490.51,-241.03 482.19,-234.47 479.91,-241.09"/>
</g>
<!-- Node16&#45;&gt;Node6 -->
<g id="edge30" class="edge">
<title>Node16&#45;&gt;Node6</title>
<path fill="none" stroke="#63b8ff" d="M234.74,-148.22C240.58,-149.24 246.4,-150.2 252,-151 390.05,-170.84 551.36,-183.49 647.47,-190.05"/>
<polygon fill="#63b8ff" stroke="#63b8ff" points="647.14,-193.53 657.36,-190.71 647.62,-186.55 647.14,-193.53"/>
</g>
<!-- Node16&#45;&gt;Node17 -->
<g id="edge31" class="edge">
<title>Node16&#45;&gt;Node17</title>
<path fill="none" stroke="#63b8ff" d="M149.81,-120.8C133.61,-110.43 111.69,-96.4 95.25,-85.88"/>
<polygon fill="#63b8ff" stroke="#63b8ff" points="97.4,-83.1 87.09,-80.66 93.63,-89 97.4,-83.1"/>
</g>
<!-- Node17&#45;&gt;Node3 -->
<g id="edge33" class="edge">
<title>Node17&#45;&gt;Node3</title>
<path fill="none" stroke="#63b8ff" d="M77.65,-79.94C82.79,-96.51 88.07,-132.02 109,-151 159.35,-196.66 345.15,-229.27 452.74,-245.12"/>
<polygon fill="#63b8ff" stroke="#63b8ff" points="451.97,-248.54 462.37,-246.52 452.97,-241.62 451.97,-248.54"/>
</g>
<!-- Node18 -->
<g id="node18" class="node">
<title>Node18</title>
<g id="a_node18"><a xlink:title=" ">
<polygon fill="#e0e0e0" stroke="#999999" points="95,-19 49,-19 49,0 95,0 95,-19"/>
<text text-anchor="middle" x="72" y="-7" font-family="Helvetica,sans-Serif" font-size="10.00">stdio.h</text>
</a>
</g>
</g>
<!-- Node17&#45;&gt;Node18 -->
<g id="edge32" class="edge">
<title>Node17&#45;&gt;Node18</title>
<path fill="none" stroke="#63b8ff" d="M72,-60.37C72,-52.5 72,-40.6 72,-30.39"/>
<polygon fill="#63b8ff" stroke="#63b8ff" points="75.5,-30.68 72,-20.68 68.5,-30.68 75.5,-30.68"/>
</g>
<!-- Node20&#45;&gt;Node3 -->
<g id="edge46" class="edge">
<title>Node20&#45;&gt;Node3</title>
<path fill="none" stroke="#63b8ff" d="M653.54,-307.64C630.95,-298.49 601.46,-286.54 577.07,-276.66"/>
<polygon fill="#63b8ff" stroke="#63b8ff" points="578.6,-273.5 568.02,-272.99 575.97,-279.99 578.6,-273.5"/>
</g>
<!-- Node21 -->
<g id="node21" class="node">
<title>Node21</title>
<g id="a_node21"><a xlink:href="RNAturtle_8h.html" target="_top" xlink:title="Implementation of the RNAturtle RNA secondary structure layout algorithm .">
<polygon fill="white" stroke="#666666" points="744,-272 616,-272 616,-242 744,-242 744,-272"/>
<text text-anchor="start" x="624" y="-260" font-family="Helvetica,sans-Serif" font-size="10.00">ViennaRNA/plotting</text>
<text text-anchor="middle" x="680" y="-249" font-family="Helvetica,sans-Serif" font-size="10.00">/RNApuzzler/RNAturtle.h</text>
</a>
</g>
</g>
<!-- Node20&#45;&gt;Node21 -->
<g id="edge47" class="edge">
<title>Node20&#45;&gt;Node21</title>
<path fill="none" stroke="#63b8ff" d="M687,-307.8C686,-300.67 684.76,-291.82 683.59,-283.56"/>
<polygon fill="#63b8ff" stroke="#63b8ff" points="687.06,-283.08 682.2,-273.66 680.13,-284.05 687.06,-283.08"/>
</g>
<!-- Node22 -->
<g id="node22" class="node">
<title>Node22</title>
<g id="a_node22"><a xlink:href="RNApuzzler_8h.html" target="_top" xlink:title="Implementation of the RNApuzzler RNA secondary structure layout algorithm .">
<polygon fill="white" stroke="#666666" points="899.5,-272 762.5,-272 762.5,-242 899.5,-242 899.5,-272"/>
<text text-anchor="start" x="770.5" y="-260" font-family="Helvetica,sans-Serif" font-size="10.00">ViennaRNA/plotting</text>
<text text-anchor="middle" x="831" y="-249" font-family="Helvetica,sans-Serif" font-size="10.00">/RNApuzzler/RNApuzzler.h</text>
</a>
</g>
</g>
<!-- Node20&#45;&gt;Node22 -->
<g id="edge48" class="edge">
<title>Node20&#45;&gt;Node22</title>
<path fill="none" stroke="#63b8ff" d="M720.87,-307.64C740.97,-298.58 767.15,-286.78 788.94,-276.96"/>
<polygon fill="#63b8ff" stroke="#63b8ff" points="790.18,-280.24 797.86,-272.94 787.3,-273.85 790.18,-280.24"/>
</g>
<!-- Node23&#45;&gt;Node7 -->
<g id="edge50" class="edge">
<title>Node23&#45;&gt;Node7</title>
<path fill="none" stroke="#63b8ff" d="M855.86,-383.72C1016.33,-369.8 1494,-322.91 1494,-258 1494,-258 1494,-258 1494,-195.5 1494,-161.33 1498.4,-145.9 1475,-121 1451.64,-96.13 1415.85,-83.6 1384.56,-77.3"/>
<polygon fill="#63b8ff" stroke="#63b8ff" points="1385.21,-73.86 1374.75,-75.52 1383.96,-80.75 1385.21,-73.86"/>
</g>
<!-- Node23&#45;&gt;Node20 -->
<g id="edge51" class="edge">
<title>Node23&#45;&gt;Node20</title>
<path fill="none" stroke="#63b8ff" d="M778.19,-373.64C762.36,-364.83 741.87,-353.42 724.52,-343.77"/>
<polygon fill="#63b8ff" stroke="#63b8ff" points="726.48,-340.86 716.04,-339.05 723.08,-346.97 726.48,-340.86"/>
</g>
<!-- Node23&#45;&gt;Node22 -->
<g id="edge52" class="edge">
<title>Node23&#45;&gt;Node22</title>
<path fill="none" stroke="#63b8ff" d="M806.99,-373.59C811.49,-351.92 820.07,-310.62 825.66,-283.7"/>
<polygon fill="#63b8ff" stroke="#63b8ff" points="829.08,-284.46 827.69,-273.96 822.23,-283.03 829.08,-284.46"/>
</g>
</g>
</svg>
        <g id="navigator" transform="translate(0 0)" fill="#404254">
                <rect fill="#f2f5e9" fill-opacity="0.5" stroke="#606060" stroke-width=".5" x="0" y="0" width="60" height="60"/>
                <use id="zoomplus" xlink:href="#zoomPlus" x="17" y="9" onmousedown="handleZoom(evt,'in')"/>
                <use id="zoomminus" xlink:href="#zoomMin" x="42" y="9" onmousedown="handleZoom(evt,'out')"/>
                <use id="reset" xlink:href="#resetDef" x="30" y="36" onmousedown="handleReset()"/>
                <g id="arrowUp" xlink:href="#dirArrow" transform="translate(30 24)" onmousedown="handlePan(0,-1)">
                  <use xlink:href="#rim" fill="#404040">
                        <set attributeName="fill" to="#808080" begin="arrowUp.mouseover" end="arrowUp.mouseout"/>
                  </use>
                  <path fill="none" stroke="white" stroke-width="1.5" d="M0,-3.0v7 M-2.5,-0.5L0,-3.0L2.5,-0.5"/>
                </g>
                <g id="arrowRight" xlink:href="#dirArrow" transform="rotate(90) translate(36 -43)" onmousedown="handlePan(1,0)">
                  <use xlink:href="#rim" fill="#404040">
                        <set attributeName="fill" to="#808080" begin="arrowRight.mouseover" end="arrowRight.mouseout"/>
                  </use>
                  <path fill="none" stroke="white" stroke-width="1.5" d="M0,-3.0v7 M-2.5,-0.5L0,-3.0L2.5,-0.5"/>
                </g>
                <g id="arrowDown" xlink:href="#dirArrow" transform="rotate(180) translate(-30 -48)" onmousedown="handlePan(0,1)">
                  <use xlink:href="#rim" fill="#404040">
                        <set attributeName="fill" to="#808080" begin="arrowDown.mouseover" end="arrowDown.mouseout"/>
                  </use>
                  <path fill="none" stroke="white" stroke-width="1.5" d="M0,-3.0v7 M-2.5,-0.5L0,-3.0L2.5,-0.5"/>
                </g>
                <g id="arrowLeft" xlink:href="#dirArrow" transform="rotate(270) translate(-36 17)" onmousedown="handlePan(-1,0)">
                  <use xlink:href="#rim" fill="#404040">
                        <set attributeName="fill" to="#808080" begin="arrowLeft.mouseover" end="arrowLeft.mouseout"/>
                  </use>
                  <path fill="none" stroke="white" stroke-width="1.5" d="M0,-3.0v7 M-2.5,-0.5L0,-3.0L2.5,-0.5"/>
                </g>
        </g>
        <svg viewBox="0 0 15 15" width="100%" height="30px" preserveAspectRatio="xMaxYMin meet">
         <g id="arrow_out" transform="scale(0.3 0.3)">
          <a xlink:href="PS__dot_8h__incl_org.svg" target="_base">
           <rect id="button" ry="5" rx="5" y="6" x="6" height="38" width="38"
                fill="#f2f5e9" fill-opacity="0.5" stroke="#606060" stroke-width="1.0"/>
           <path id="arrow"
             d="M 11.500037,31.436501 C 11.940474,20.09759 22.043105,11.32322 32.158766,21.979434 L 37.068811,17.246167 C 37.068811,17.246167 37.088388,32 37.088388,32 L 22.160133,31.978069 C 22.160133,31.978069 26.997745,27.140456 26.997745,27.140456 C 18.528582,18.264221 13.291696,25.230495 11.500037,31.436501 z"
             style="fill:#404040;"/>
          </a>
         </g>
        </svg>
</svg>
