<?xml version="1.0" encoding="UTF-8" standalone="no"?>
<!DOCTYPE svg PUBLIC "-//W3C//DTD SVG 1.1//EN"
 "http://www.w3.org/Graphics/SVG/1.1/DTD/svg11.dtd">
<!-- Generated by graphviz version 7.1.0 (0)
 -->
<!-- Title: ViennaRNA/plotting/RNApuzzler/RNApuzzler.h Pages: 1 -->
<svg width="321pt" height="225pt"
 viewBox="0.00 0.00 320.50 225.00" xmlns="http://www.w3.org/2000/svg" xmlns:xlink="http://www.w3.org/1999/xlink">
<g id="graph0" class="graph" transform="scale(1 1) rotate(0) translate(4 221)">
<title>ViennaRNA/plotting/RNApuzzler/RNApuzzler.h</title>
<!-- Node1 -->
<g id="node1" class="node">
<title>Node1</title>
<g id="a_node1"><a xlink:title="Implementation of the RNApuzzler RNA secondary structure layout algorithm .">
<polygon fill="#999999" stroke="#666666" points="243.5,-217 106.5,-217 106.5,-187 243.5,-187 243.5,-217"/>
<text text-anchor="start" x="114.5" y="-205" font-family="Helvetica,sans-Serif" font-size="10.00">ViennaRNA/plotting</text>
<text text-anchor="middle" x="175" y="-194" font-family="Helvetica,sans-Serif" font-size="10.00">/RNApuzzler/RNApuzzler.h</text>
</a>
</g>
</g>
<!-- Node2 -->
<g id="node2" class="node">
<title>Node2</title>
<g id="a_node2"><a xlink:href="layouts_8h.html" target="_top" xlink:title="Secondary structure plot layout algorithms.">
<polygon fill="white" stroke="#666666" points="186.5,-151 83.5,-151 83.5,-121 186.5,-121 186.5,-151"/>
<text text-anchor="start" x="91.5" y="-139" font-family="Helvetica,sans-Serif" font-size="10.00">ViennaRNA/plotting</text>
<text text-anchor="middle" x="135" y="-128" font-family="Helvetica,sans-Serif" font-size="10.00">/layouts.h</text>
</a>
</g>
</g>
<!-- Node1&#45;&gt;Node2 -->
<g id="edge1" class="edge">
<title>Node1&#45;&gt;Node2</title>
<path fill="none" stroke="#63b8ff" d="M160.07,-177.11C154.61,-168.38 148.61,-158.78 143.85,-151.16"/>
<polygon fill="#63b8ff" stroke="#63b8ff" points="157.05,-178.89 165.32,-185.51 162.99,-175.18 157.05,-178.89"/>
</g>
<!-- Node5 -->
<g id="node5" class="node">
<title>Node5</title>
<g id="a_node5"><a xlink:href="plotting_2structures_8h.html" target="_top" xlink:title="Various functions for plotting RNA secondary structures.">
<polygon fill="white" stroke="#666666" points="294.5,-85 191.5,-85 191.5,-55 294.5,-55 294.5,-85"/>
<text text-anchor="start" x="199.5" y="-73" font-family="Helvetica,sans-Serif" font-size="10.00">ViennaRNA/plotting</text>
<text text-anchor="middle" x="243" y="-62" font-family="Helvetica,sans-Serif" font-size="10.00">/structures.h</text>
</a>
</g>
</g>
<!-- Node1&#45;&gt;Node5 -->
<g id="edge7" class="edge">
<title>Node1&#45;&gt;Node5</title>
<path fill="none" stroke="#63b8ff" d="M187.84,-176.46C201.88,-149.61 223.92,-107.48 235.43,-85.47"/>
<polygon fill="#63b8ff" stroke="#63b8ff" points="184.77,-174.77 183.24,-185.25 190.97,-178.01 184.77,-174.77"/>
</g>
<!-- Node3 -->
<g id="node3" class="node">
<title>Node3</title>
<g id="a_node3"><a xlink:href="PS__dot_8h.html" target="_top" xlink:title="Use ViennaRNA/plotting/probabilities.h instead.">
<polygon fill="white" stroke="#666666" points="112,-19 0,-19 0,0 112,0 112,-19"/>
<text text-anchor="middle" x="56" y="-7" font-family="Helvetica,sans-Serif" font-size="10.00">ViennaRNA/PS_dot.h</text>
</a>
</g>
</g>
<!-- Node2&#45;&gt;Node3 -->
<g id="edge2" class="edge">
<title>Node2&#45;&gt;Node3</title>
<path fill="none" stroke="#63b8ff" d="M72.68,-118.07C56.7,-110.61 41.39,-99.99 32,-85 18.59,-63.58 37.33,-33.96 48.59,-19.36"/>
<polygon fill="#63b8ff" stroke="#63b8ff" points="71.25,-121.27 81.83,-121.95 73.98,-114.82 71.25,-121.27"/>
</g>
<!-- Node4 -->
<g id="node4" class="node">
<title>Node4</title>
<g id="a_node4"><a xlink:href="plot__layouts_8h.html" target="_top" xlink:title="Use ViennaRNA/plotting/layouts.h instead.">
<polygon fill="white" stroke="#666666" points="173,-79.5 41,-79.5 41,-60.5 173,-60.5 173,-79.5"/>
<text text-anchor="middle" x="107" y="-67.5" font-family="Helvetica,sans-Serif" font-size="10.00">ViennaRNA/plot_layouts.h</text>
</a>
</g>
</g>
<!-- Node2&#45;&gt;Node4 -->
<g id="edge3" class="edge">
<title>Node2&#45;&gt;Node4</title>
<path fill="none" stroke="#63b8ff" d="M124.18,-110.27C119.49,-99.55 114.3,-87.7 110.87,-79.84"/>
<polygon fill="#63b8ff" stroke="#63b8ff" points="120.96,-111.65 128.18,-119.41 127.38,-108.85 120.96,-111.65"/>
</g>
<!-- Node2&#45;&gt;Node5 -->
<g id="edge4" class="edge">
<title>Node2&#45;&gt;Node5</title>
<path fill="none" stroke="#63b8ff" d="M168.9,-114.91C185.11,-105.31 204.13,-94.03 218.84,-85.31"/>
<polygon fill="#63b8ff" stroke="#63b8ff" points="167.36,-111.76 160.54,-119.87 170.93,-117.78 167.36,-111.76"/>
</g>
<!-- Node5&#45;&gt;Node3 -->
<g id="edge5" class="edge">
<title>Node5&#45;&gt;Node3</title>
<path fill="none" stroke="#63b8ff" d="M186.16,-51.22C152.56,-40.71 111.46,-27.85 84.55,-19.43"/>
<polygon fill="#63b8ff" stroke="#63b8ff" points="184.74,-54.44 195.33,-54.09 186.83,-47.76 184.74,-54.44"/>
</g>
<!-- Node6 -->
<g id="node6" class="node">
<title>Node6</title>
<g id="a_node6"><a xlink:href="plot__structure_8h.html" target="_top" xlink:title="Use ViennaRNA/plotting/structures.h instead.">
<polygon fill="white" stroke="#666666" points="312.5,-19 173.5,-19 173.5,0 312.5,0 312.5,-19"/>
<text text-anchor="middle" x="243" y="-7" font-family="Helvetica,sans-Serif" font-size="10.00">ViennaRNA/plot_structure.h</text>
</a>
</g>
</g>
<!-- Node5&#45;&gt;Node6 -->
<g id="edge6" class="edge">
<title>Node5&#45;&gt;Node6</title>
<path fill="none" stroke="#63b8ff" d="M243,-43.3C243,-34.65 243,-25.58 243,-19.18"/>
<polygon fill="#63b8ff" stroke="#63b8ff" points="239.5,-43.03 243,-53.03 246.5,-43.03 239.5,-43.03"/>
</g>
</g>
</svg>
