<?xml version="1.0" encoding="UTF-8" standalone="no"?>
<!DOCTYPE svg PUBLIC "-//W3C//DTD SVG 1.1//EN"
 "http://www.w3.org/Graphics/SVG/1.1/DTD/svg11.dtd">
<!-- Generated by graphviz version 7.1.0 (0)
 -->
<!-- Title: ViennaRNA/plotting/RNApuzzler/RNAturtle.h Pages: 1 -->
<svg width="321pt" height="225pt"
 viewBox="0.00 0.00 320.50 225.00" xmlns="http://www.w3.org/2000/svg" xmlns:xlink="http://www.w3.org/1999/xlink">
<g id="graph0" class="graph" transform="scale(1 1) rotate(0) translate(4 221)">
<title>ViennaRNA/plotting/RNApuzzler/RNAturtle.h</title>
<!-- Node1 -->
<g id="node1" class="node">
<title>Node1</title>
<g id="a_node1"><a xlink:title="Implementation of the RNAturtle RNA secondary structure layout algorithm .">
<polygon fill="#999999" stroke="#666666" points="171,-217 43,-217 43,-187 171,-187 171,-217"/>
<text text-anchor="start" x="51" y="-205" font-family="Helvetica,sans-Serif" font-size="10.00">ViennaRNA/plotting</text>
<text text-anchor="middle" x="107" y="-194" font-family="Helvetica,sans-Serif" font-size="10.00">/RNApuzzler/RNAturtle.h</text>
</a>
</g>
</g>
<!-- Node2 -->
<g id="node2" class="node">
<title>Node2</title>
<g id="a_node2"><a xlink:href="layouts_8h.html" target="_top" xlink:title="Secondary structure plot layout algorithms.">
<polygon fill="white" stroke="#666666" points="158.5,-151 55.5,-151 55.5,-121 158.5,-121 158.5,-151"/>
<text text-anchor="start" x="63.5" y="-139" font-family="Helvetica,sans-Serif" font-size="10.00">ViennaRNA/plotting</text>
<text text-anchor="middle" x="107" y="-128" font-family="Helvetica,sans-Serif" font-size="10.00">/layouts.h</text>
</a>
</g>
</g>
<!-- Node1&#45;&gt;Node2 -->
<g id="edge1" class="edge">
<title>Node1&#45;&gt;Node2</title>
<path fill="none" stroke="#63b8ff" d="M107,-175.39C107,-167.13 107,-158.28 107,-151.16"/>
<polygon fill="#63b8ff" stroke="#63b8ff" points="103.5,-175.28 107,-185.28 110.5,-175.28 103.5,-175.28"/>
</g>
<!-- Node3 -->
<g id="node3" class="node">
<title>Node3</title>
<g id="a_node3"><a xlink:href="PS__dot_8h.html" target="_top" xlink:title="Use ViennaRNA/plotting/probabilities.h instead.">
<polygon fill="white" stroke="#666666" points="112,-19 0,-19 0,0 112,0 112,-19"/>
<text text-anchor="middle" x="56" y="-7" font-family="Helvetica,sans-Serif" font-size="10.00">ViennaRNA/PS_dot.h</text>
</a>
</g>
</g>
<!-- Node2&#45;&gt;Node3 -->
<g id="edge2" class="edge">
<title>Node2&#45;&gt;Node3</title>
<path fill="none" stroke="#63b8ff" d="M61.61,-114.82C49.85,-107.25 38.63,-97.4 32,-85 20.07,-62.72 38.15,-33.49 48.92,-19.17"/>
<polygon fill="#63b8ff" stroke="#63b8ff" points="59.83,-117.83 70.23,-119.88 63.38,-111.8 59.83,-117.83"/>
</g>
<!-- Node4 -->
<g id="node4" class="node">
<title>Node4</title>
<g id="a_node4"><a xlink:href="plot__layouts_8h.html" target="_top" xlink:title="Use ViennaRNA/plotting/layouts.h instead.">
<polygon fill="white" stroke="#666666" points="173,-79.5 41,-79.5 41,-60.5 173,-60.5 173,-79.5"/>
<text text-anchor="middle" x="107" y="-67.5" font-family="Helvetica,sans-Serif" font-size="10.00">ViennaRNA/plot_layouts.h</text>
</a>
</g>
</g>
<!-- Node2&#45;&gt;Node4 -->
<g id="edge3" class="edge">
<title>Node2&#45;&gt;Node4</title>
<path fill="none" stroke="#63b8ff" d="M107,-109.59C107,-99.06 107,-87.53 107,-79.84"/>
<polygon fill="#63b8ff" stroke="#63b8ff" points="103.5,-109.28 107,-119.28 110.5,-109.28 103.5,-109.28"/>
</g>
<!-- Node5 -->
<g id="node5" class="node">
<title>Node5</title>
<g id="a_node5"><a xlink:href="plotting_2structures_8h.html" target="_top" xlink:title="Various functions for plotting RNA secondary structures.">
<polygon fill="white" stroke="#666666" points="294.5,-85 191.5,-85 191.5,-55 294.5,-55 294.5,-85"/>
<text text-anchor="start" x="199.5" y="-73" font-family="Helvetica,sans-Serif" font-size="10.00">ViennaRNA/plotting</text>
<text text-anchor="middle" x="243" y="-62" font-family="Helvetica,sans-Serif" font-size="10.00">/structures.h</text>
</a>
</g>
</g>
<!-- Node2&#45;&gt;Node5 -->
<g id="edge4" class="edge">
<title>Node2&#45;&gt;Node5</title>
<path fill="none" stroke="#63b8ff" d="M147.68,-115.86C168.51,-106.05 193.44,-94.32 212.58,-85.31"/>
<polygon fill="#63b8ff" stroke="#63b8ff" points="146.45,-112.57 138.89,-119.99 149.43,-118.9 146.45,-112.57"/>
</g>
<!-- Node5&#45;&gt;Node3 -->
<g id="edge5" class="edge">
<title>Node5&#45;&gt;Node3</title>
<path fill="none" stroke="#63b8ff" d="M186.16,-51.22C152.56,-40.71 111.46,-27.85 84.55,-19.43"/>
<polygon fill="#63b8ff" stroke="#63b8ff" points="184.74,-54.44 195.33,-54.09 186.83,-47.76 184.74,-54.44"/>
</g>
<!-- Node6 -->
<g id="node6" class="node">
<title>Node6</title>
<g id="a_node6"><a xlink:href="plot__structure_8h.html" target="_top" xlink:title="Use ViennaRNA/plotting/structures.h instead.">
<polygon fill="white" stroke="#666666" points="312.5,-19 173.5,-19 173.5,0 312.5,0 312.5,-19"/>
<text text-anchor="middle" x="243" y="-7" font-family="Helvetica,sans-Serif" font-size="10.00">ViennaRNA/plot_structure.h</text>
</a>
</g>
</g>
<!-- Node5&#45;&gt;Node6 -->
<g id="edge6" class="edge">
<title>Node5&#45;&gt;Node6</title>
<path fill="none" stroke="#63b8ff" d="M243,-43.3C243,-34.65 243,-25.58 243,-19.18"/>
<polygon fill="#63b8ff" stroke="#63b8ff" points="239.5,-43.03 243,-53.03 246.5,-43.03 239.5,-43.03"/>
</g>
</g>
</svg>
