<?xml version="1.0" encoding="UTF-8" standalone="no"?>
<!DOCTYPE svg PUBLIC "-//W3C//DTD SVG 1.1//EN"
 "http://www.w3.org/Graphics/SVG/1.1/DTD/svg11.dtd">
<!-- Generated by graphviz version 7.1.0 (0)
 -->
<!-- Title: ViennaRNA/params/salt.h Pages: 1 -->
<svg width="399pt" height="203pt"
 viewBox="0.00 0.00 399.00 203.00" xmlns="http://www.w3.org/2000/svg" xmlns:xlink="http://www.w3.org/1999/xlink">
<g id="graph0" class="graph" transform="scale(1 1) rotate(0) translate(4 199)">
<title>ViennaRNA/params/salt.h</title>
<!-- Node1 -->
<g id="node1" class="node">
<title>Node1</title>
<g id="a_node1"><a xlink:title="Functions to compute salt correction.">
<polygon fill="#999999" stroke="#666666" points="270,-195 139,-195 139,-176 270,-176 270,-195"/>
<text text-anchor="middle" x="204.5" y="-183" font-family="Helvetica,sans-Serif" font-size="10.00">ViennaRNA/params/salt.h</text>
</a>
</g>
</g>
<!-- Node2 -->
<g id="node2" class="node">
<title>Node2</title>
<g id="a_node2"><a xlink:href="hairpin_8h.html" target="_top" xlink:title="Energy evaluation of hairpin loops for MFE and partition function calculations.">
<polygon fill="white" stroke="#666666" points="194.5,-140 60.5,-140 60.5,-121 194.5,-121 194.5,-140"/>
<text text-anchor="middle" x="127.5" y="-128" font-family="Helvetica,sans-Serif" font-size="10.00">ViennaRNA/loops/hairpin.h</text>
</a>
</g>
</g>
<!-- Node1&#45;&gt;Node2 -->
<g id="edge1" class="edge">
<title>Node1&#45;&gt;Node2</title>
<path fill="none" stroke="#63b8ff" d="M182.25,-169.19C168.67,-159.84 151.77,-148.21 140.37,-140.36"/>
<polygon fill="#63b8ff" stroke="#63b8ff" points="179.97,-171.86 190.19,-174.65 183.94,-166.1 179.97,-171.86"/>
</g>
<!-- Node6 -->
<g id="node6" class="node">
<title>Node6</title>
<g id="a_node6"><a xlink:href="internal_8h.html" target="_top" xlink:title="Energy evaluation of interior loops for MFE and partition function calculations.">
<polygon fill="white" stroke="#666666" points="350,-140 213,-140 213,-121 350,-121 350,-140"/>
<text text-anchor="middle" x="281.5" y="-128" font-family="Helvetica,sans-Serif" font-size="10.00">ViennaRNA/loops/internal.h</text>
</a>
</g>
</g>
<!-- Node1&#45;&gt;Node6 -->
<g id="edge5" class="edge">
<title>Node1&#45;&gt;Node6</title>
<path fill="none" stroke="#63b8ff" d="M226.75,-169.19C240.33,-159.84 257.23,-148.21 268.63,-140.36"/>
<polygon fill="#63b8ff" stroke="#63b8ff" points="225.06,-166.1 218.81,-174.65 229.03,-171.86 225.06,-166.1"/>
</g>
<!-- Node3 -->
<g id="node3" class="node">
<title>Node3</title>
<g id="a_node3"><a xlink:href="hairpin__loops_8h.html" target="_top" xlink:title="Use ViennaRNA/loops/hairpin.h instead.">
<polygon fill="white" stroke="#666666" points="137,-79.5 0,-79.5 0,-60.5 137,-60.5 137,-79.5"/>
<text text-anchor="middle" x="68.5" y="-67.5" font-family="Helvetica,sans-Serif" font-size="10.00">ViennaRNA/hairpin_loops.h</text>
</a>
</g>
</g>
<!-- Node2&#45;&gt;Node3 -->
<g id="edge2" class="edge">
<title>Node2&#45;&gt;Node3</title>
<path fill="none" stroke="#63b8ff" d="M110.64,-112.78C99.87,-102.1 86.33,-88.67 77.55,-79.97"/>
<polygon fill="#63b8ff" stroke="#63b8ff" points="107.9,-114.99 117.46,-119.55 112.83,-110.02 107.9,-114.99"/>
</g>
<!-- Node4 -->
<g id="node4" class="node">
<title>Node4</title>
<g id="a_node4"><a xlink:href="all_8h.html" target="_top" xlink:title="Energy evaluation for MFE and partition function calculations.">
<polygon fill="white" stroke="#666666" points="271.5,-79.5 155.5,-79.5 155.5,-60.5 271.5,-60.5 271.5,-79.5"/>
<text text-anchor="middle" x="213.5" y="-67.5" font-family="Helvetica,sans-Serif" font-size="10.00">ViennaRNA/loops/all.h</text>
</a>
</g>
</g>
<!-- Node2&#45;&gt;Node4 -->
<g id="edge3" class="edge">
<title>Node2&#45;&gt;Node4</title>
<path fill="none" stroke="#63b8ff" d="M149.78,-114.35C165.8,-103.44 186.88,-89.11 200.32,-79.97"/>
<polygon fill="#63b8ff" stroke="#63b8ff" points="148.11,-111.25 141.81,-119.76 152.05,-117.03 148.11,-111.25"/>
</g>
<!-- Node5 -->
<g id="node5" class="node">
<title>Node5</title>
<g id="a_node5"><a xlink:href="loop__energies_8h.html" target="_top" xlink:title="Use ViennaRNA/loops/all.h instead.">
<polygon fill="white" stroke="#666666" points="283.5,-19 143.5,-19 143.5,0 283.5,0 283.5,-19"/>
<text text-anchor="middle" x="213.5" y="-7" font-family="Helvetica,sans-Serif" font-size="10.00">ViennaRNA/loop_energies.h</text>
</a>
</g>
</g>
<!-- Node4&#45;&gt;Node5 -->
<g id="edge4" class="edge">
<title>Node4&#45;&gt;Node5</title>
<path fill="none" stroke="#63b8ff" d="M213.5,-49.16C213.5,-38.95 213.5,-27.04 213.5,-19.17"/>
<polygon fill="#63b8ff" stroke="#63b8ff" points="210,-48.85 213.5,-58.85 217,-48.85 210,-48.85"/>
</g>
<!-- Node6&#45;&gt;Node4 -->
<g id="edge7" class="edge">
<title>Node6&#45;&gt;Node4</title>
<path fill="none" stroke="#63b8ff" d="M262.8,-113.41C250.27,-102.64 234.25,-88.85 223.92,-79.97"/>
<polygon fill="#63b8ff" stroke="#63b8ff" points="260.16,-115.76 270.02,-119.63 264.73,-110.45 260.16,-115.76"/>
</g>
<!-- Node7 -->
<g id="node7" class="node">
<title>Node7</title>
<g id="a_node7"><a xlink:href="interior__loops_8h.html" target="_top" xlink:title="Use ViennaRNA/loops/internal.h instead.">
<polygon fill="white" stroke="#666666" points="391,-85 290,-85 290,-55 391,-55 391,-85"/>
<text text-anchor="start" x="298" y="-73" font-family="Helvetica,sans-Serif" font-size="10.00">ViennaRNA/interior</text>
<text text-anchor="middle" x="340.5" y="-62" font-family="Helvetica,sans-Serif" font-size="10.00">_loops.h</text>
</a>
</g>
</g>
<!-- Node6&#45;&gt;Node7 -->
<g id="edge6" class="edge">
<title>Node6&#45;&gt;Node7</title>
<path fill="none" stroke="#63b8ff" d="M298.41,-112.73C307.11,-104.11 317.6,-93.7 325.94,-85.44"/>
<polygon fill="#63b8ff" stroke="#63b8ff" points="296.17,-110.02 291.54,-119.55 301.1,-114.99 296.17,-110.02"/>
</g>
</g>
</svg>
