<?xml version="1.0" encoding="UTF-8" standalone="no"?>
<!DOCTYPE svg PUBLIC "-//W3C//DTD SVG 1.1//EN"
 "http://www.w3.org/Graphics/SVG/1.1/DTD/svg11.dtd">
<!-- Generated by graphviz version 7.1.0 (0)
 -->
<!-- Title: ViennaRNA/sequence.h Pages: 1 -->
<svg width="1269pt" height="390pt"
 viewBox="0.00 0.00 1268.50 390.00" xmlns="http://www.w3.org/2000/svg" xmlns:xlink="http://www.w3.org/1999/xlink">
<g id="graph0" class="graph" transform="scale(1 1) rotate(0) translate(4 386)">
<title>ViennaRNA/sequence.h</title>
<!-- Node1 -->
<g id="node1" class="node">
<title>Node1</title>
<g id="a_node1"><a xlink:title="Functions and data structures related to sequence representations ,.">
<polygon fill="#999999" stroke="#666666" points="772,-382 650,-382 650,-363 772,-363 772,-382"/>
<text text-anchor="middle" x="711" y="-370" font-family="Helvetica,sans-Serif" font-size="10.00">ViennaRNA/sequence.h</text>
</a>
</g>
</g>
<!-- Node2 -->
<g id="node2" class="node">
<title>Node2</title>
<g id="a_node2"><a xlink:href="fold__compound_8h.html" target="_top" xlink:title="The Basic Fold Compound API.">
<polygon fill="white" stroke="#666666" points="784,-327 638,-327 638,-308 784,-308 784,-327"/>
<text text-anchor="middle" x="711" y="-315" font-family="Helvetica,sans-Serif" font-size="10.00">ViennaRNA/fold_compound.h</text>
</a>
</g>
</g>
<!-- Node1&#45;&gt;Node2 -->
<g id="edge1" class="edge">
<title>Node1&#45;&gt;Node2</title>
<path fill="none" stroke="#63b8ff" d="M705.83,-362.75C704.42,-356.19 703.96,-346.95 704.43,-338.6"/>
<polygon fill="#63b8ff" stroke="#63b8ff" points="707.87,-339.3 705.61,-328.94 700.92,-338.45 707.87,-339.3"/>
</g>
<!-- Node2&#45;&gt;Node1 -->
<g id="edge34" class="edge">
<title>Node2&#45;&gt;Node1</title>
<path fill="none" stroke="#63b8ff" d="M716.21,-327.44C717.58,-333.97 718.04,-343.1 717.57,-351.35"/>
<polygon fill="#63b8ff" stroke="#63b8ff" points="714.1,-350.89 716.35,-361.25 721.05,-351.75 714.1,-350.89"/>
</g>
<!-- Node3 -->
<g id="node3" class="node">
<title>Node3</title>
<g id="a_node3"><a xlink:href="model_8h.html" target="_top" xlink:title="The model details data structure and its corresponding modifiers.">
<polygon fill="white" stroke="#666666" points="106,-145.5 0,-145.5 0,-126.5 106,-126.5 106,-145.5"/>
<text text-anchor="middle" x="53" y="-133.5" font-family="Helvetica,sans-Serif" font-size="10.00">ViennaRNA/model.h</text>
</a>
</g>
</g>
<!-- Node2&#45;&gt;Node3 -->
<g id="edge2" class="edge">
<title>Node2&#45;&gt;Node3</title>
<path fill="none" stroke="#63b8ff" d="M637.55,-311.82C570.59,-306.3 469.38,-294.83 384,-272 267.09,-240.74 136.23,-178.77 80.51,-151.02"/>
<polygon fill="#63b8ff" stroke="#63b8ff" points="82.25,-147.98 71.75,-146.62 79.11,-154.23 82.25,-147.98"/>
</g>
<!-- Node4 -->
<g id="node4" class="node">
<title>Node4</title>
<g id="a_node4"><a xlink:href="params_2basic_8h.html" target="_top" xlink:title="Functions to deal with sets of energy parameters.">
<polygon fill="white" stroke="#666666" points="580,-272 442,-272 442,-253 580,-253 580,-272"/>
<text text-anchor="middle" x="511" y="-260" font-family="Helvetica,sans-Serif" font-size="10.00">ViennaRNA/params/basic.h</text>
</a>
</g>
</g>
<!-- Node2&#45;&gt;Node4 -->
<g id="edge3" class="edge">
<title>Node2&#45;&gt;Node4</title>
<path fill="none" stroke="#63b8ff" d="M671.86,-307.51C636.72,-298.69 585.58,-285.18 550.38,-275.46"/>
<polygon fill="#63b8ff" stroke="#63b8ff" points="551.58,-272.16 541.01,-272.85 549.71,-278.9 551.58,-272.16"/>
</g>
<!-- Node8 -->
<g id="node8" class="node">
<title>Node8</title>
<g id="a_node8"><a xlink:href="dp__matrices_8h.html" target="_top" xlink:title="Functions to deal with standard dynamic programming (DP) matrices.">
<polygon fill="white" stroke="#666666" points="257.5,-145.5 124.5,-145.5 124.5,-126.5 257.5,-126.5 257.5,-145.5"/>
<text text-anchor="middle" x="191" y="-133.5" font-family="Helvetica,sans-Serif" font-size="10.00">ViennaRNA/dp_matrices.h</text>
</a>
</g>
</g>
<!-- Node2&#45;&gt;Node8 -->
<g id="edge35" class="edge">
<title>Node2&#45;&gt;Node8</title>
<path fill="none" stroke="#63b8ff" d="M637.69,-312.44C578.48,-307.39 493.96,-296.26 424,-272 336.79,-241.76 244.38,-181.02 207.33,-152.48"/>
<polygon fill="#63b8ff" stroke="#63b8ff" points="209.95,-150.1 199.95,-146.59 205.58,-155.57 209.95,-150.1"/>
</g>
<!-- Node9 -->
<g id="node9" class="node">
<title>Node9</title>
<g id="a_node9"><a xlink:href="hard_8h.html" target="_top" xlink:title="Functions and data structures for handling of secondary structure hard constraints.">
<polygon fill="white" stroke="#666666" points="1214.5,-151 1095.5,-151 1095.5,-121 1214.5,-121 1214.5,-151"/>
<text text-anchor="start" x="1103.5" y="-139" font-family="Helvetica,sans-Serif" font-size="10.00">ViennaRNA/constraints</text>
<text text-anchor="middle" x="1155" y="-128" font-family="Helvetica,sans-Serif" font-size="10.00">/hard.h</text>
</a>
</g>
</g>
<!-- Node2&#45;&gt;Node9 -->
<g id="edge36" class="edge">
<title>Node2&#45;&gt;Node9</title>
<path fill="none" stroke="#63b8ff" d="M784.41,-315.3C876.04,-312.46 1026.11,-303.03 1072,-272 1110.45,-246 1130.79,-193.15 1142.7,-161.84"/>
<polygon fill="#63b8ff" stroke="#63b8ff" points="1145.86,-163.37 1146.19,-152.78 1139.33,-160.86 1145.86,-163.37"/>
</g>
<!-- Node11 -->
<g id="node11" class="node">
<title>Node11</title>
<g id="a_node11"><a xlink:href="soft_8h.html" target="_top" xlink:title="Functions and data structures for secondary structure soft constraints.">
<polygon fill="white" stroke="#666666" points="770.5,-151 651.5,-151 651.5,-121 770.5,-121 770.5,-151"/>
<text text-anchor="start" x="659.5" y="-139" font-family="Helvetica,sans-Serif" font-size="10.00">ViennaRNA/constraints</text>
<text text-anchor="middle" x="711" y="-128" font-family="Helvetica,sans-Serif" font-size="10.00">/soft.h</text>
</a>
</g>
</g>
<!-- Node2&#45;&gt;Node11 -->
<g id="edge37" class="edge">
<title>Node2&#45;&gt;Node11</title>
<path fill="none" stroke="#63b8ff" d="M707.89,-307.84C703.74,-281.88 703.14,-203.97 706.08,-162.94"/>
<polygon fill="#63b8ff" stroke="#63b8ff" points="709.57,-163.26 706.98,-152.99 702.6,-162.64 709.57,-163.26"/>
</g>
<!-- Node12 -->
<g id="node12" class="node">
<title>Node12</title>
<g id="a_node12"><a xlink:href="grammar_8h.html" target="_top" xlink:title="Implementations for the RNA folding grammar.">
<polygon fill="white" stroke="#666666" points="905.5,-145.5 788.5,-145.5 788.5,-126.5 905.5,-126.5 905.5,-145.5"/>
<text text-anchor="middle" x="847" y="-133.5" font-family="Helvetica,sans-Serif" font-size="10.00">ViennaRNA/grammar.h</text>
</a>
</g>
</g>
<!-- Node2&#45;&gt;Node12 -->
<g id="edge38" class="edge">
<title>Node2&#45;&gt;Node12</title>
<path fill="none" stroke="#63b8ff" d="M714.45,-307.84C731.12,-279.95 797.33,-192.09 829.6,-154.42"/>
<polygon fill="#63b8ff" stroke="#63b8ff" points="832.04,-156.95 836.02,-147.13 826.79,-152.32 832.04,-156.95"/>
</g>
<!-- Node13 -->
<g id="node13" class="node">
<title>Node13</title>
<g id="a_node13"><a xlink:href="structured__domains_8h.html" target="_top" xlink:title="This module provides interfaces that deal with additional structured domains in the folding grammar.">
<polygon fill="white" stroke="#666666" points="1038.5,-151 923.5,-151 923.5,-121 1038.5,-121 1038.5,-151"/>
<text text-anchor="start" x="931.5" y="-139" font-family="Helvetica,sans-Serif" font-size="10.00">ViennaRNA/structured</text>
<text text-anchor="middle" x="981" y="-128" font-family="Helvetica,sans-Serif" font-size="10.00">_domains.h</text>
</a>
</g>
</g>
<!-- Node2&#45;&gt;Node13 -->
<g id="edge39" class="edge">
<title>Node2&#45;&gt;Node13</title>
<path fill="none" stroke="#63b8ff" d="M724.39,-307.6C765.53,-280.25 890.87,-196.92 949.78,-157.76"/>
<polygon fill="#63b8ff" stroke="#63b8ff" points="951.66,-160.71 958.05,-152.26 947.78,-154.88 951.66,-160.71"/>
</g>
<!-- Node14 -->
<g id="node14" class="node">
<title>Node14</title>
<g id="a_node14"><a xlink:href="unstructured__domains_8h.html" target="_top" xlink:title="Functions to modify unstructured domains, e.g. to incorporate ligands binding to unpaired stretches.">
<polygon fill="white" stroke="#666666" points="633.5,-151 508.5,-151 508.5,-121 633.5,-121 633.5,-151"/>
<text text-anchor="start" x="516.5" y="-139" font-family="Helvetica,sans-Serif" font-size="10.00">ViennaRNA/unstructured</text>
<text text-anchor="middle" x="571" y="-128" font-family="Helvetica,sans-Serif" font-size="10.00">_domains.h</text>
</a>
</g>
</g>
<!-- Node2&#45;&gt;Node14 -->
<g id="edge40" class="edge">
<title>Node2&#45;&gt;Node14</title>
<path fill="none" stroke="#63b8ff" d="M701.14,-307.84C676.32,-281.44 613.25,-201.27 584.84,-160.85"/>
<polygon fill="#63b8ff" stroke="#63b8ff" points="587.81,-158.99 579.26,-152.73 582.04,-162.95 587.81,-158.99"/>
</g>
<!-- Node17 -->
<g id="node17" class="node">
<title>Node17</title>
<g id="a_node17"><a xlink:href="zscore_8h_source.html" target="_top" xlink:title=" ">
<polygon fill="white" stroke="#666666" points="1260.5,-272 1151.5,-272 1151.5,-253 1260.5,-253 1260.5,-272"/>
<text text-anchor="middle" x="1206" y="-260" font-family="Helvetica,sans-Serif" font-size="10.00">ViennaRNA/zscore.h</text>
</a>
</g>
</g>
<!-- Node2&#45;&gt;Node17 -->
<g id="edge41" class="edge">
<title>Node2&#45;&gt;Node17</title>
<path fill="none" stroke="#63b8ff" d="M784.16,-309.27C869.06,-300.79 1013.24,-286.09 1137,-272 1138,-271.89 1139,-271.77 1140.01,-271.66"/>
<polygon fill="#63b8ff" stroke="#63b8ff" points="1140,-275.18 1149.52,-270.54 1139.18,-268.23 1140,-275.18"/>
</g>
<!-- Node4&#45;&gt;Node2 -->
<g id="edge32" class="edge">
<title>Node4&#45;&gt;Node2</title>
<path fill="none" stroke="#63b8ff" d="M549.97,-272.45C585.05,-281.25 636.19,-294.76 671.44,-304.49"/>
<polygon fill="#63b8ff" stroke="#63b8ff" points="670.26,-307.8 680.83,-307.1 672.14,-301.05 670.26,-307.8"/>
</g>
<!-- Node4&#45;&gt;Node3 -->
<g id="edge33" class="edge">
<title>Node4&#45;&gt;Node3</title>
<path fill="none" stroke="#63b8ff" d="M478.06,-252.55C397.12,-230.54 188.44,-173.82 97.02,-148.96"/>
<polygon fill="#63b8ff" stroke="#63b8ff" points="97.98,-145.6 87.41,-146.35 96.14,-152.35 97.98,-145.6"/>
</g>
<!-- Node5 -->
<g id="node5" class="node">
<title>Node5</title>
<g id="a_node5"><a xlink:href="constants_8h.html" target="_top" xlink:title="Energy parameter constants.">
<polygon fill="white" stroke="#666666" points="434,-145.5 276,-145.5 276,-126.5 434,-126.5 434,-145.5"/>
<text text-anchor="middle" x="355" y="-133.5" font-family="Helvetica,sans-Serif" font-size="10.00">ViennaRNA/params/constants.h</text>
</a>
</g>
</g>
<!-- Node4&#45;&gt;Node5 -->
<g id="edge4" class="edge">
<title>Node4&#45;&gt;Node5</title>
<path fill="none" stroke="#63b8ff" d="M499.84,-252.65C488.53,-243.67 470.54,-229.39 455,-217 427.21,-194.84 395.14,-169.17 374.97,-153"/>
<polygon fill="#63b8ff" stroke="#63b8ff" points="377.26,-150.36 367.27,-146.84 372.88,-155.82 377.26,-150.36"/>
</g>
<!-- Node7 -->
<g id="node7" class="node">
<title>Node7</title>
<g id="a_node7"><a xlink:href="datastructures_2basic_8h.html" target="_top" xlink:title="Various data structures and pre&#45;processor macros.">
<polygon fill="white" stroke="#666666" points="598,-217 464,-217 464,-187 598,-187 598,-217"/>
<text text-anchor="start" x="472" y="-205" font-family="Helvetica,sans-Serif" font-size="10.00">ViennaRNA/datastructures</text>
<text text-anchor="middle" x="531" y="-194" font-family="Helvetica,sans-Serif" font-size="10.00">/basic.h</text>
</a>
</g>
</g>
<!-- Node4&#45;&gt;Node7 -->
<g id="edge6" class="edge">
<title>Node4&#45;&gt;Node7</title>
<path fill="none" stroke="#63b8ff" d="M509,-252.87C509.84,-246.18 512.55,-236.57 515.93,-227.56"/>
<polygon fill="#63b8ff" stroke="#63b8ff" points="519.09,-229.09 519.72,-218.51 512.63,-226.38 519.09,-229.09"/>
</g>
<!-- Node6 -->
<g id="node6" class="node">
<title>Node6</title>
<g id="a_node6"><a xlink:title=" ">
<polygon fill="#e0e0e0" stroke="#999999" points="379,-79.5 331,-79.5 331,-60.5 379,-60.5 379,-79.5"/>
<text text-anchor="middle" x="355" y="-67.5" font-family="Helvetica,sans-Serif" font-size="10.00">limits.h</text>
</a>
</g>
</g>
<!-- Node5&#45;&gt;Node6 -->
<g id="edge5" class="edge">
<title>Node5&#45;&gt;Node6</title>
<path fill="none" stroke="#63b8ff" d="M355,-126.1C355,-117.12 355,-102.95 355,-91.22"/>
<polygon fill="#63b8ff" stroke="#63b8ff" points="358.5,-91.34 355,-81.34 351.5,-91.34 358.5,-91.34"/>
</g>
<!-- Node7&#45;&gt;Node2 -->
<g id="edge8" class="edge">
<title>Node7&#45;&gt;Node2</title>
<path fill="none" stroke="#63b8ff" d="M550.78,-217.26C570.9,-231.59 603.14,-254.06 632,-272 649.05,-282.6 668.73,-293.69 684.18,-302.14"/>
<polygon fill="#63b8ff" stroke="#63b8ff" points="682.32,-305.12 692.78,-306.81 685.66,-298.97 682.32,-305.12"/>
</g>
<!-- Node7&#45;&gt;Node3 -->
<g id="edge9" class="edge">
<title>Node7&#45;&gt;Node3</title>
<path fill="none" stroke="#63b8ff" d="M463.69,-195.05C381.17,-187.26 237.22,-172.09 115,-151 110.41,-150.21 105.65,-149.3 100.9,-148.33"/>
<polygon fill="#63b8ff" stroke="#63b8ff" points="101.91,-144.96 91.4,-146.3 100.45,-151.81 101.91,-144.96"/>
</g>
<!-- Node7&#45;&gt;Node4 -->
<g id="edge10" class="edge">
<title>Node7&#45;&gt;Node4</title>
<path fill="none" stroke="#63b8ff" d="M532.05,-217.11C530.4,-224.78 527.29,-234.36 523.8,-242.65"/>
<polygon fill="#63b8ff" stroke="#63b8ff" points="520.72,-240.97 519.56,-251.5 527.04,-244 520.72,-240.97"/>
</g>
<!-- Node7&#45;&gt;Node5 -->
<g id="edge7" class="edge">
<title>Node7&#45;&gt;Node5</title>
<path fill="none" stroke="#63b8ff" d="M491.5,-186.64C461.13,-175.59 419.54,-160.47 390.27,-149.83"/>
<polygon fill="#63b8ff" stroke="#63b8ff" points="391.73,-146.63 381.13,-146.5 389.34,-153.21 391.73,-146.63"/>
</g>
<!-- Node7&#45;&gt;Node8 -->
<g id="edge11" class="edge">
<title>Node7&#45;&gt;Node8</title>
<path fill="none" stroke="#63b8ff" d="M463.68,-189.34C399.44,-177.6 304.01,-159.63 244.71,-148.1"/>
<polygon fill="#63b8ff" stroke="#63b8ff" points="245.68,-144.72 235.2,-146.24 244.34,-151.59 245.68,-144.72"/>
</g>
<!-- Node7&#45;&gt;Node9 -->
<g id="edge14" class="edge">
<title>Node7&#45;&gt;Node9</title>
<path fill="none" stroke="#63b8ff" d="M598.41,-195.21C697.17,-186.56 886.95,-169.32 1048,-151 1059.57,-149.68 1071.82,-148.18 1083.75,-146.66"/>
<polygon fill="#63b8ff" stroke="#63b8ff" points="1084.09,-150.15 1093.56,-145.4 1083.19,-143.21 1084.09,-150.15"/>
</g>
<!-- Node7&#45;&gt;Node11 -->
<g id="edge18" class="edge">
<title>Node7&#45;&gt;Node11</title>
<path fill="none" stroke="#63b8ff" d="M565.65,-186.64C590.66,-177.32 624.87,-165.11 653.86,-155.13"/>
<polygon fill="#63b8ff" stroke="#63b8ff" points="654.92,-158.47 663.25,-151.92 652.65,-151.84 654.92,-158.47"/>
</g>
<!-- Node7&#45;&gt;Node12 -->
<g id="edge22" class="edge">
<title>Node7&#45;&gt;Node12</title>
<path fill="none" stroke="#63b8ff" d="M598.4,-187.61C648.51,-177.63 718.56,-163.59 780,-151 784.33,-150.11 788.81,-149.19 793.32,-148.26"/>
<polygon fill="#63b8ff" stroke="#63b8ff" points="793.92,-151.71 803,-146.25 792.49,-144.85 793.92,-151.71"/>
</g>
<!-- Node7&#45;&gt;Node13 -->
<g id="edge24" class="edge">
<title>Node7&#45;&gt;Node13</title>
<path fill="none" stroke="#63b8ff" d="M598.18,-193.89C672.63,-185.65 796.46,-170.85 911.95,-151.45"/>
<polygon fill="#63b8ff" stroke="#63b8ff" points="912.34,-154.93 921.61,-149.81 911.17,-148.03 912.34,-154.93"/>
</g>
<!-- Node7&#45;&gt;Node14 -->
<g id="edge25" class="edge">
<title>Node7&#45;&gt;Node14</title>
<path fill="none" stroke="#63b8ff" d="M534.16,-186.8C538.02,-179.01 543.91,-169.16 549.93,-160.28"/>
<polygon fill="#63b8ff" stroke="#63b8ff" points="552.59,-162.57 555.55,-152.4 546.9,-158.5 552.59,-162.57"/>
</g>
<!-- Node15 -->
<g id="node15" class="node">
<title>Node15</title>
<g id="a_node15"><a xlink:href="utils_2structures_8h.html" target="_top" xlink:title="Various utility&#45; and helper&#45;functions for secondary structure parsing, converting,...">
<polygon fill="white" stroke="#666666" points="543,-79.5 399,-79.5 399,-60.5 543,-60.5 543,-79.5"/>
<text text-anchor="middle" x="471" y="-67.5" font-family="Helvetica,sans-Serif" font-size="10.00">ViennaRNA/utils/structures.h</text>
</a>
</g>
</g>
<!-- Node7&#45;&gt;Node15 -->
<g id="edge31" class="edge">
<title>Node7&#45;&gt;Node15</title>
<path fill="none" stroke="#63b8ff" d="M512.89,-186.65C504.78,-176.93 496.13,-163.6 490,-151 480.35,-131.18 472.41,-107.16 469.28,-90.64"/>
<polygon fill="#63b8ff" stroke="#63b8ff" points="472.81,-90.65 468.07,-81.17 465.87,-91.53 472.81,-90.65"/>
</g>
<!-- Node8&#45;&gt;Node2 -->
<g id="edge13" class="edge">
<title>Node8&#45;&gt;Node2</title>
<path fill="none" stroke="#63b8ff" d="M207.25,-145.82C246.3,-170.25 347.23,-239.14 442,-272 501.93,-292.78 572.53,-303.93 626.42,-309.87"/>
<polygon fill="#63b8ff" stroke="#63b8ff" points="625.84,-313.33 636.15,-310.9 626.58,-306.37 625.84,-313.33"/>
</g>
<!-- Node8&#45;&gt;Node7 -->
<g id="edge12" class="edge">
<title>Node8&#45;&gt;Node7</title>
<path fill="none" stroke="#63b8ff" d="M243.57,-145.98C299.44,-156.1 388.28,-172.76 452.44,-185.1"/>
<polygon fill="#63b8ff" stroke="#63b8ff" points="451.75,-188.53 462.23,-186.98 453.08,-181.65 451.75,-188.53"/>
</g>
<!-- Node9&#45;&gt;Node2 -->
<g id="edge15" class="edge">
<title>Node9&#45;&gt;Node2</title>
<path fill="none" stroke="#63b8ff" d="M1156.77,-151.37C1153.51,-179.76 1133.18,-242.81 1090,-272 1043.86,-303.2 892.41,-312.56 795.44,-315.35"/>
<polygon fill="#63b8ff" stroke="#63b8ff" points="795.6,-311.84 785.7,-315.61 795.79,-318.84 795.6,-311.84"/>
</g>
<!-- Node10 -->
<g id="node10" class="node">
<title>Node10</title>
<g id="a_node10"><a xlink:href="constraints_2basic_8h.html" target="_top" xlink:title="Functions and data structures for constraining secondary structure predictions and evaluation.">
<polygon fill="white" stroke="#666666" points="1126.5,-85 1007.5,-85 1007.5,-55 1126.5,-55 1126.5,-85"/>
<text text-anchor="start" x="1015.5" y="-73" font-family="Helvetica,sans-Serif" font-size="10.00">ViennaRNA/constraints</text>
<text text-anchor="middle" x="1067" y="-62" font-family="Helvetica,sans-Serif" font-size="10.00">/basic.h</text>
</a>
</g>
</g>
<!-- Node9&#45;&gt;Node10 -->
<g id="edge16" class="edge">
<title>Node9&#45;&gt;Node10</title>
<path fill="none" stroke="#63b8ff" d="M1135.47,-120.8C1123.82,-112.32 1108.81,-101.4 1095.81,-91.95"/>
<polygon fill="#63b8ff" stroke="#63b8ff" points="1098.15,-89.33 1088,-86.28 1094.03,-94.99 1098.15,-89.33"/>
</g>
<!-- Node10&#45;&gt;Node2 -->
<g id="edge17" class="edge">
<title>Node10&#45;&gt;Node2</title>
<path fill="none" stroke="#63b8ff" d="M1067.12,-85.27C1066.55,-102.6 1063.16,-131.87 1048,-151 976.28,-241.5 842.44,-286 766.8,-304.83"/>
<polygon fill="#63b8ff" stroke="#63b8ff" points="766,-301.42 757.1,-307.17 767.64,-308.22 766,-301.42"/>
</g>
<!-- Node11&#45;&gt;Node2 -->
<g id="edge20" class="edge">
<title>Node11&#45;&gt;Node2</title>
<path fill="none" stroke="#63b8ff" d="M714.89,-151.48C718.52,-183.52 718.69,-260.44 715.41,-296.81"/>
<polygon fill="#63b8ff" stroke="#63b8ff" points="711.99,-296 714.29,-306.34 718.94,-296.82 711.99,-296"/>
</g>
<!-- Node11&#45;&gt;Node7 -->
<g id="edge19" class="edge">
<title>Node11&#45;&gt;Node7</title>
<path fill="none" stroke="#63b8ff" d="M676.18,-151.43C651.13,-160.75 616.91,-172.97 587.95,-182.94"/>
<polygon fill="#63b8ff" stroke="#63b8ff" points="586.9,-179.6 578.57,-186.15 589.16,-186.22 586.9,-179.6"/>
</g>
<!-- Node11&#45;&gt;Node10 -->
<g id="edge21" class="edge">
<title>Node11&#45;&gt;Node10</title>
<path fill="none" stroke="#63b8ff" d="M770.82,-122.76C773.92,-122.16 777,-121.57 780,-121 853.5,-107.14 937.86,-92.61 996.01,-82.81"/>
<polygon fill="#63b8ff" stroke="#63b8ff" points="996.5,-86.27 1005.78,-81.16 995.34,-79.37 996.5,-86.27"/>
</g>
<!-- Node12&#45;&gt;Node2 -->
<g id="edge23" class="edge">
<title>Node12&#45;&gt;Node2</title>
<path fill="none" stroke="#63b8ff" d="M843.35,-145.99C826.28,-174.36 760.01,-262.26 728.01,-299.53"/>
<polygon fill="#63b8ff" stroke="#63b8ff" points="725.67,-296.9 721.67,-306.71 730.91,-301.53 725.67,-296.9"/>
</g>
<!-- Node14&#45;&gt;Node2 -->
<g id="edge27" class="edge">
<title>Node14&#45;&gt;Node2</title>
<path fill="none" stroke="#63b8ff" d="M586.18,-151.48C615.3,-184.08 677.08,-263.14 701.34,-298.68"/>
<polygon fill="#63b8ff" stroke="#63b8ff" points="698.11,-300.14 706.53,-306.58 703.96,-296.3 698.11,-300.14"/>
</g>
<!-- Node14&#45;&gt;Node7 -->
<g id="edge26" class="edge">
<title>Node14&#45;&gt;Node7</title>
<path fill="none" stroke="#63b8ff" d="M567.86,-151.16C564.01,-158.95 558.13,-168.79 552.1,-177.68"/>
<polygon fill="#63b8ff" stroke="#63b8ff" points="549.43,-175.39 546.48,-185.56 555.13,-179.45 549.43,-175.39"/>
</g>
<!-- Node14&#45;&gt;Node15 -->
<g id="edge28" class="edge">
<title>Node14&#45;&gt;Node15</title>
<path fill="none" stroke="#63b8ff" d="M548.81,-120.8C532.61,-110.43 510.69,-96.4 494.25,-85.88"/>
<polygon fill="#63b8ff" stroke="#63b8ff" points="496.4,-83.1 486.09,-80.66 492.63,-89 496.4,-83.1"/>
</g>
<!-- Node15&#45;&gt;Node7 -->
<g id="edge30" class="edge">
<title>Node15&#45;&gt;Node7</title>
<path fill="none" stroke="#63b8ff" d="M478.75,-79.67C486.47,-94.64 495.89,-126.13 508,-151 512.27,-159.76 517.75,-168.87 522.51,-176.88"/>
<polygon fill="#63b8ff" stroke="#63b8ff" points="519.38,-178.46 527.43,-185.34 525.43,-174.94 519.38,-178.46"/>
</g>
<!-- Node16 -->
<g id="node16" class="node">
<title>Node16</title>
<g id="a_node16"><a xlink:title=" ">
<polygon fill="#e0e0e0" stroke="#999999" points="494,-19 448,-19 448,0 494,0 494,-19"/>
<text text-anchor="middle" x="471" y="-7" font-family="Helvetica,sans-Serif" font-size="10.00">stdio.h</text>
</a>
</g>
</g>
<!-- Node15&#45;&gt;Node16 -->
<g id="edge29" class="edge">
<title>Node15&#45;&gt;Node16</title>
<path fill="none" stroke="#63b8ff" d="M471,-60.37C471,-52.5 471,-40.6 471,-30.39"/>
<polygon fill="#63b8ff" stroke="#63b8ff" points="474.5,-30.68 471,-20.68 467.5,-30.68 474.5,-30.68"/>
</g>
</g>
</svg>
