<?xml version="1.0" encoding="UTF-8" standalone="no"?>
<!DOCTYPE svg PUBLIC "-//W3C//DTD SVG 1.1//EN"
 "http://www.w3.org/Graphics/SVG/1.1/DTD/svg11.dtd">
<!-- Generated by graphviz version 7.1.0 (0)
 -->
<!-- Title: ViennaRNA/constraints/soft.h Pages: 1 -->
<!--zoomable 346 -->
<svg id="main" version="1.1" xmlns="http://www.w3.org/2000/svg" xmlns:xlink="http://www.w3.org/1999/xlink" xml:space="preserve" onload="init(evt)">
<style type="text/css"><![CDATA[
.edge:hover path { stroke: red; }
.edge:hover polygon { stroke: red; fill: red; }
]]></style>
<script type="text/javascript"><![CDATA[
var edges = document.getElementsByTagName('g');
if (edges && edges.length) {
  for (var i=0;i<edges.length;i++) {
    if (edges[i].id.substr(0,4)=='edge') {
      edges[i].setAttribute('class','edge');
    }
  }
}
]]></script>
        <defs>
                <circle id="rim" cx="0" cy="0" r="7"/>
                <circle id="rim2" cx="0" cy="0" r="3.5"/>
                <g id="zoomPlus">
                        <use xlink:href="#rim" fill="#404040">
                                <set attributeName="fill" to="#808080" begin="zoomplus.mouseover" end="zoomplus.mouseout"/>
                        </use>
                        <path d="M-4,0h8M0,-4v8" fill="none" stroke="white" stroke-width="1.5" pointer-events="none"/>
                </g>
                <g id="zoomMin">
                        <use xlink:href="#rim" fill="#404040">
                                <set attributeName="fill" to="#808080" begin="zoomminus.mouseover" end="zoomminus.mouseout"/>
                        </use>
                        <path d="M-4,0h8" fill="none" stroke="white" stroke-width="1.5" pointer-events="none"/>
                </g>
                <g id="dirArrow">
                        <path fill="none" stroke="white" stroke-width="1.5" d="M0,-3.0v7 M-2.5,-0.5L0,-3.0L2.5,-0.5"/>
                </g>
               <g id="resetDef">
                       <use xlink:href="#rim2" fill="#404040">
                               <set attributeName="fill" to="#808080" begin="reset.mouseover" end="reset.mouseout"/>
                       </use>
               </g>
        </defs>

<script type="text/javascript">
var viewWidth = 1395;
var viewHeight = 346;
var sectionId = 'dynsection-0';
</script>
<script xlink:href="svgpan.js"/>
<svg id="graph" class="graph">
<g id="viewport">
<title>ViennaRNA/constraints/soft.h</title>
<!-- Node1 -->
<g id="node1" class="node">
<title>Node1</title>
<g id="a_node1"><a xlink:title="Functions and data structures for secondary structure soft constraints.">
<polygon fill="#999999" stroke="#666666" points="751.84,-338 632.84,-338 632.84,-308 751.84,-308 751.84,-338"/>
<text text-anchor="start" x="640.84" y="-326" font-family="Helvetica,sans-Serif" font-size="10.00">ViennaRNA/constraints</text>
<text text-anchor="middle" x="692.34" y="-315" font-family="Helvetica,sans-Serif" font-size="10.00">/soft.h</text>
</a>
</g>
</g>
<!-- Node2 -->
<g id="node2" class="node">
<title>Node2</title>
<g id="a_node2"><a xlink:href="datastructures_2basic_8h.html" target="_top" xlink:title="Various data structures and pre&#45;processor macros.">
<polygon fill="white" stroke="#666666" points="1010.34,-272 876.34,-272 876.34,-242 1010.34,-242 1010.34,-272"/>
<text text-anchor="start" x="884.34" y="-260" font-family="Helvetica,sans-Serif" font-size="10.00">ViennaRNA/datastructures</text>
<text text-anchor="middle" x="943.34" y="-249" font-family="Helvetica,sans-Serif" font-size="10.00">/basic.h</text>
</a>
</g>
</g>
<!-- Node1&#45;&gt;Node2 -->
<g id="edge1" class="edge">
<title>Node1&#45;&gt;Node2</title>
<path fill="none" stroke="#63b8ff" d="M743.24,-307.56C779.76,-297.93 829.44,-285.24 870.2,-275.11"/>
<polygon fill="#63b8ff" stroke="#63b8ff" points="870.83,-278.56 879.69,-272.75 869.15,-271.76 870.83,-278.56"/>
</g>
<!-- Node5 -->
<g id="node5" class="node">
<title>Node5</title>
<g id="a_node5"><a xlink:href="fold__compound_8h.html" target="_top" xlink:title="The Basic Fold Compound API.">
<polygon fill="white" stroke="#666666" points="765.34,-206 619.34,-206 619.34,-187 765.34,-187 765.34,-206"/>
<text text-anchor="middle" x="692.34" y="-194" font-family="Helvetica,sans-Serif" font-size="10.00">ViennaRNA/fold_compound.h</text>
</a>
</g>
</g>
<!-- Node1&#45;&gt;Node5 -->
<g id="edge40" class="edge">
<title>Node1&#45;&gt;Node5</title>
<path fill="none" stroke="#63b8ff" d="M687.85,-307.72C685.06,-285.53 684.86,-242.73 687.23,-217.49"/>
<polygon fill="#63b8ff" stroke="#63b8ff" points="690.66,-218.25 688.46,-207.88 683.72,-217.36 690.66,-218.25"/>
</g>
<!-- Node11 -->
<g id="node11" class="node">
<title>Node11</title>
<g id="a_node11"><a xlink:href="constraints_2basic_8h.html" target="_top" xlink:title="Functions and data structures for constraining secondary structure predictions and evaluation.">
<polygon fill="white" stroke="#666666" points="270.84,-85 151.84,-85 151.84,-55 270.84,-55 270.84,-85"/>
<text text-anchor="start" x="159.84" y="-73" font-family="Helvetica,sans-Serif" font-size="10.00">ViennaRNA/constraints</text>
<text text-anchor="middle" x="211.34" y="-62" font-family="Helvetica,sans-Serif" font-size="10.00">/basic.h</text>
</a>
</g>
</g>
<!-- Node1&#45;&gt;Node11 -->
<g id="edge41" class="edge">
<title>Node1&#45;&gt;Node11</title>
<path fill="none" stroke="#63b8ff" d="M632.39,-316.25C480.42,-300.31 86.67,-250.07 9.34,-151 -29.26,-101.54 67.6,-82.58 140.17,-75.36"/>
<polygon fill="#63b8ff" stroke="#63b8ff" points="140.45,-78.85 150.08,-74.44 139.8,-71.88 140.45,-78.85"/>
</g>
<!-- Node2&#45;&gt;Node1 -->
<g id="edge35" class="edge">
<title>Node2&#45;&gt;Node1</title>
<path fill="none" stroke="#63b8ff" d="M892.43,-272.45C855.22,-282.25 804.38,-295.24 763.22,-305.46"/>
<polygon fill="#63b8ff" stroke="#63b8ff" points="762.5,-302.03 753.64,-307.83 764.18,-308.82 762.5,-302.03"/>
</g>
<!-- Node3 -->
<g id="node3" class="node">
<title>Node3</title>
<g id="a_node3"><a xlink:href="constants_8h.html" target="_top" xlink:title="Energy parameter constants.">
<polygon fill="white" stroke="#666666" points="1222.34,-79.5 1064.34,-79.5 1064.34,-60.5 1222.34,-60.5 1222.34,-79.5"/>
<text text-anchor="middle" x="1143.34" y="-67.5" font-family="Helvetica,sans-Serif" font-size="10.00">ViennaRNA/params/constants.h</text>
</a>
</g>
</g>
<!-- Node2&#45;&gt;Node3 -->
<g id="edge2" class="edge">
<title>Node2&#45;&gt;Node3</title>
<path fill="none" stroke="#63b8ff" d="M1010.83,-255.53C1084.79,-250.86 1199.54,-230.32 1249.34,-151 1256.43,-139.71 1256.48,-132.26 1249.34,-121 1237.81,-102.8 1217.68,-91.1 1198.04,-83.64"/>
<polygon fill="#63b8ff" stroke="#63b8ff" points="1199.26,-80.36 1188.67,-80.41 1196.98,-86.98 1199.26,-80.36"/>
</g>
<!-- Node2&#45;&gt;Node5 -->
<g id="edge4" class="edge">
<title>Node2&#45;&gt;Node5</title>
<path fill="none" stroke="#63b8ff" d="M881.3,-241.54C838.26,-231.51 781.72,-218.33 741.74,-209.01"/>
<polygon fill="#63b8ff" stroke="#63b8ff" points="742.68,-205.64 732.14,-206.78 741.09,-212.45 742.68,-205.64"/>
</g>
<!-- Node6 -->
<g id="node6" class="node">
<title>Node6</title>
<g id="a_node6"><a xlink:href="model_8h.html" target="_top" xlink:title="The model details data structure and its corresponding modifiers.">
<polygon fill="white" stroke="#666666" points="1042.34,-79.5 936.34,-79.5 936.34,-60.5 1042.34,-60.5 1042.34,-79.5"/>
<text text-anchor="middle" x="989.34" y="-67.5" font-family="Helvetica,sans-Serif" font-size="10.00">ViennaRNA/model.h</text>
</a>
</g>
</g>
<!-- Node2&#45;&gt;Node6 -->
<g id="edge31" class="edge">
<title>Node2&#45;&gt;Node6</title>
<path fill="none" stroke="#63b8ff" d="M971.79,-241.64C1001.91,-224.64 1047.77,-193.23 1067.34,-151 1072.95,-138.9 1073.74,-132.7 1067.34,-121 1058.35,-104.56 1041.4,-92.73 1025.58,-84.72"/>
<polygon fill="#63b8ff" stroke="#63b8ff" points="1027.37,-81.69 1016.82,-80.63 1024.41,-88.03 1027.37,-81.69"/>
</g>
<!-- Node7 -->
<g id="node7" class="node">
<title>Node7</title>
<g id="a_node7"><a xlink:href="params_2basic_8h.html" target="_top" xlink:title="Functions to deal with sets of energy parameters.">
<polygon fill="white" stroke="#666666" points="1058.34,-145.5 920.34,-145.5 920.34,-126.5 1058.34,-126.5 1058.34,-145.5"/>
<text text-anchor="middle" x="989.34" y="-133.5" font-family="Helvetica,sans-Serif" font-size="10.00">ViennaRNA/params/basic.h</text>
</a>
</g>
</g>
<!-- Node2&#45;&gt;Node7 -->
<g id="edge32" class="edge">
<title>Node2&#45;&gt;Node7</title>
<path fill="none" stroke="#63b8ff" d="M944.25,-241.88C949.8,-220.41 965.44,-179.52 977.07,-155.64"/>
<polygon fill="#63b8ff" stroke="#63b8ff" points="980.03,-157.54 981.55,-147.05 973.82,-154.3 980.03,-157.54"/>
</g>
<!-- Node9 -->
<g id="node9" class="node">
<title>Node9</title>
<g id="a_node9"><a xlink:href="dp__matrices_8h.html" target="_top" xlink:title="Functions to deal with standard dynamic programming (DP) matrices.">
<polygon fill="white" stroke="#666666" points="901.84,-145.5 768.84,-145.5 768.84,-126.5 901.84,-126.5 901.84,-145.5"/>
<text text-anchor="middle" x="835.34" y="-133.5" font-family="Helvetica,sans-Serif" font-size="10.00">ViennaRNA/dp_matrices.h</text>
</a>
</g>
</g>
<!-- Node2&#45;&gt;Node9 -->
<g id="edge33" class="edge">
<title>Node2&#45;&gt;Node9</title>
<path fill="none" stroke="#63b8ff" d="M925.98,-241.88C903.44,-220.12 865.45,-178.41 846.42,-154.67"/>
<polygon fill="#63b8ff" stroke="#63b8ff" points="849.31,-152.7 840.44,-146.91 843.77,-156.97 849.31,-152.7"/>
</g>
<!-- Node10 -->
<g id="node10" class="node">
<title>Node10</title>
<g id="a_node10"><a xlink:href="hard_8h.html" target="_top" xlink:title="Functions and data structures for handling of secondary structure hard constraints.">
<polygon fill="white" stroke="#666666" points="270.84,-151 151.84,-151 151.84,-121 270.84,-121 270.84,-151"/>
<text text-anchor="start" x="159.84" y="-139" font-family="Helvetica,sans-Serif" font-size="10.00">ViennaRNA/constraints</text>
<text text-anchor="middle" x="211.34" y="-128" font-family="Helvetica,sans-Serif" font-size="10.00">/hard.h</text>
</a>
</g>
</g>
<!-- Node2&#45;&gt;Node10 -->
<g id="edge34" class="edge">
<title>Node2&#45;&gt;Node10</title>
<path fill="none" stroke="#63b8ff" d="M876.25,-246.95C757.58,-230.63 502.78,-194.1 282.41,-152.33"/>
<polygon fill="#63b8ff" stroke="#63b8ff" points="283.25,-148.93 272.77,-150.49 281.94,-155.8 283.25,-148.93"/>
</g>
<!-- Node12 -->
<g id="node12" class="node">
<title>Node12</title>
<g id="a_node12"><a xlink:href="grammar_8h.html" target="_top" xlink:title="Implementations for the RNA folding grammar.">
<polygon fill="white" stroke="#666666" points="750.84,-145.5 633.84,-145.5 633.84,-126.5 750.84,-126.5 750.84,-145.5"/>
<text text-anchor="middle" x="692.34" y="-133.5" font-family="Helvetica,sans-Serif" font-size="10.00">ViennaRNA/grammar.h</text>
</a>
</g>
</g>
<!-- Node2&#45;&gt;Node12 -->
<g id="edge36" class="edge">
<title>Node2&#45;&gt;Node12</title>
<path fill="none" stroke="#63b8ff" d="M913.07,-241.65C864.44,-218.59 769.54,-173.6 721.58,-150.86"/>
<polygon fill="#63b8ff" stroke="#63b8ff" points="723.18,-147.74 712.64,-146.62 720.18,-154.07 723.18,-147.74"/>
</g>
<!-- Node13 -->
<g id="node13" class="node">
<title>Node13</title>
<g id="a_node13"><a xlink:href="structured__domains_8h.html" target="_top" xlink:title="This module provides interfaces that deal with additional structured domains in the folding grammar.">
<polygon fill="white" stroke="#666666" points="133.84,-151 18.84,-151 18.84,-121 133.84,-121 133.84,-151"/>
<text text-anchor="start" x="26.84" y="-139" font-family="Helvetica,sans-Serif" font-size="10.00">ViennaRNA/structured</text>
<text text-anchor="middle" x="76.34" y="-128" font-family="Helvetica,sans-Serif" font-size="10.00">_domains.h</text>
</a>
</g>
</g>
<!-- Node2&#45;&gt;Node13 -->
<g id="edge37" class="edge">
<title>Node2&#45;&gt;Node13</title>
<path fill="none" stroke="#63b8ff" d="M876.22,-249.55C787.84,-240.84 627.7,-224.28 491.34,-206 339.36,-185.63 298.65,-179.8 145.48,-151.54"/>
<polygon fill="#63b8ff" stroke="#63b8ff" points="146.22,-148.12 135.75,-149.74 144.94,-155 146.22,-148.12"/>
</g>
<!-- Node14 -->
<g id="node14" class="node">
<title>Node14</title>
<g id="a_node14"><a xlink:href="unstructured__domains_8h.html" target="_top" xlink:title="Functions to modify unstructured domains, e.g. to incorporate ligands binding to unpaired stretches.">
<polygon fill="white" stroke="#666666" points="1239.84,-151 1114.84,-151 1114.84,-121 1239.84,-121 1239.84,-151"/>
<text text-anchor="start" x="1122.84" y="-139" font-family="Helvetica,sans-Serif" font-size="10.00">ViennaRNA/unstructured</text>
<text text-anchor="middle" x="1177.34" y="-128" font-family="Helvetica,sans-Serif" font-size="10.00">_domains.h</text>
</a>
</g>
</g>
<!-- Node2&#45;&gt;Node14 -->
<g id="edge38" class="edge">
<title>Node2&#45;&gt;Node14</title>
<path fill="none" stroke="#63b8ff" d="M1001.46,-241.54C1029.71,-233.57 1063.41,-221.98 1091.34,-206 1113.04,-193.59 1133.91,-174.28 1149.88,-159.23"/>
<polygon fill="#63b8ff" stroke="#63b8ff" points="1152.24,-161.82 1157.13,-152.42 1147.44,-156.72 1152.24,-161.82"/>
</g>
<!-- Node15 -->
<g id="node15" class="node">
<title>Node15</title>
<g id="a_node15"><a xlink:href="utils_2structures_8h.html" target="_top" xlink:title="Various utility&#45; and helper&#45;functions for secondary structure parsing, converting,...">
<polygon fill="white" stroke="#666666" points="1387.34,-79.5 1243.34,-79.5 1243.34,-60.5 1387.34,-60.5 1387.34,-79.5"/>
<text text-anchor="middle" x="1315.34" y="-67.5" font-family="Helvetica,sans-Serif" font-size="10.00">ViennaRNA/utils/structures.h</text>
</a>
</g>
</g>
<!-- Node2&#45;&gt;Node15 -->
<g id="edge39" class="edge">
<title>Node2&#45;&gt;Node15</title>
<path fill="none" stroke="#63b8ff" d="M1010.61,-248.33C1078.2,-240.08 1176.83,-225.49 1210.34,-206 1256.62,-179.09 1286.35,-119.94 1302.6,-89.66"/>
<polygon fill="#63b8ff" stroke="#63b8ff" points="1305.47,-91.7 1307.24,-81.25 1299.34,-88.31 1305.47,-91.7"/>
</g>
<!-- Node4 -->
<g id="node4" class="node">
<title>Node4</title>
<g id="a_node4"><a xlink:title=" ">
<polygon fill="#e0e0e0" stroke="#999999" points="1167.34,-19 1119.34,-19 1119.34,0 1167.34,0 1167.34,-19"/>
<text text-anchor="middle" x="1143.34" y="-7" font-family="Helvetica,sans-Serif" font-size="10.00">limits.h</text>
</a>
</g>
</g>
<!-- Node3&#45;&gt;Node4 -->
<g id="edge3" class="edge">
<title>Node3&#45;&gt;Node4</title>
<path fill="none" stroke="#63b8ff" d="M1143.34,-60.37C1143.34,-52.5 1143.34,-40.6 1143.34,-30.39"/>
<polygon fill="#63b8ff" stroke="#63b8ff" points="1146.84,-30.68 1143.34,-20.68 1139.84,-30.68 1146.84,-30.68"/>
</g>
<!-- Node5&#45;&gt;Node1 -->
<g id="edge20" class="edge">
<title>Node5&#45;&gt;Node1</title>
<path fill="none" stroke="#63b8ff" d="M696.03,-206.38C699.34,-224.93 699.97,-268.38 697.92,-296.42"/>
<polygon fill="#63b8ff" stroke="#63b8ff" points="694.45,-295.92 696.98,-306.21 701.42,-296.59 694.45,-295.92"/>
</g>
<!-- Node5&#45;&gt;Node6 -->
<g id="edge5" class="edge">
<title>Node5&#45;&gt;Node6</title>
<path fill="none" stroke="#63b8ff" d="M667.88,-186.61C652.37,-179.55 633.54,-168 624.34,-151 618,-139.27 615.58,-131.05 624.34,-121 662.54,-77.22 830.34,-70.4 924.56,-70.13"/>
<polygon fill="#63b8ff" stroke="#63b8ff" points="924.44,-73.63 934.44,-70.12 924.44,-66.63 924.44,-73.63"/>
</g>
<!-- Node5&#45;&gt;Node7 -->
<g id="edge6" class="edge">
<title>Node5&#45;&gt;Node7</title>
<path fill="none" stroke="#63b8ff" d="M732.75,-186.55C783.03,-176.22 869.17,-159.23 927.69,-148.08"/>
<polygon fill="#63b8ff" stroke="#63b8ff" points="927.98,-151.58 937.15,-146.28 926.68,-144.71 927.98,-151.58"/>
</g>
<!-- Node8 -->
<g id="node8" class="node">
<title>Node8</title>
<g id="a_node8"><a xlink:href="sequence_8h.html" target="_top" xlink:title="Functions and data structures related to sequence representations ,.">
<polygon fill="white" stroke="#666666" points="577.34,-145.5 455.34,-145.5 455.34,-126.5 577.34,-126.5 577.34,-145.5"/>
<text text-anchor="middle" x="516.34" y="-133.5" font-family="Helvetica,sans-Serif" font-size="10.00">ViennaRNA/sequence.h</text>
</a>
</g>
</g>
<!-- Node5&#45;&gt;Node8 -->
<g id="edge11" class="edge">
<title>Node5&#45;&gt;Node8</title>
<path fill="none" stroke="#63b8ff" d="M660.6,-186.62C628.94,-176.78 580.78,-160.84 548.86,-149.69"/>
<polygon fill="#63b8ff" stroke="#63b8ff" points="550.32,-146.5 539.73,-146.47 547.99,-153.1 550.32,-146.5"/>
</g>
<!-- Node5&#45;&gt;Node9 -->
<g id="edge13" class="edge">
<title>Node5&#45;&gt;Node9</title>
<path fill="none" stroke="#63b8ff" d="M709.05,-186.62C730.83,-176.87 769.08,-161.12 797.87,-149.99"/>
<polygon fill="#63b8ff" stroke="#63b8ff" points="798.89,-153.35 806.98,-146.51 796.39,-146.81 798.89,-153.35"/>
</g>
<!-- Node5&#45;&gt;Node10 -->
<g id="edge16" class="edge">
<title>Node5&#45;&gt;Node10</title>
<path fill="none" stroke="#63b8ff" d="M619.14,-189.81C538.24,-182.77 404.11,-169.61 282.59,-151.89"/>
<polygon fill="#63b8ff" stroke="#63b8ff" points="283.15,-148.44 272.74,-150.44 282.13,-155.36 283.15,-148.44"/>
</g>
<!-- Node5&#45;&gt;Node12 -->
<g id="edge21" class="edge">
<title>Node5&#45;&gt;Node12</title>
<path fill="none" stroke="#63b8ff" d="M687.39,-186.87C685.69,-179 685.2,-167.1 685.91,-156.89"/>
<polygon fill="#63b8ff" stroke="#63b8ff" points="689.36,-157.54 687.18,-147.17 682.42,-156.63 689.36,-157.54"/>
</g>
<!-- Node5&#45;&gt;Node13 -->
<g id="edge23" class="edge">
<title>Node5&#45;&gt;Node13</title>
<path fill="none" stroke="#63b8ff" d="M619.06,-192.56C515.54,-187.75 320.44,-176.25 145.45,-151.34"/>
<polygon fill="#63b8ff" stroke="#63b8ff" points="146.11,-147.9 135.71,-149.93 145.11,-154.82 146.11,-147.9"/>
</g>
<!-- Node5&#45;&gt;Node14 -->
<g id="edge24" class="edge">
<title>Node5&#45;&gt;Node14</title>
<path fill="none" stroke="#63b8ff" d="M762.7,-186.53C836.41,-177.67 955.37,-163.66 1058.34,-151 1072.81,-149.22 1088.34,-147.27 1103.27,-145.4"/>
<polygon fill="#63b8ff" stroke="#63b8ff" points="1103.55,-148.9 1113.04,-144.19 1102.69,-141.95 1103.55,-148.9"/>
</g>
<!-- Node17 -->
<g id="node17" class="node">
<title>Node17</title>
<g id="a_node17"><a xlink:href="zscore_8h_source.html" target="_top" xlink:title=" ">
<polygon fill="white" stroke="#666666" points="436.84,-145.5 327.84,-145.5 327.84,-126.5 436.84,-126.5 436.84,-145.5"/>
<text text-anchor="middle" x="382.34" y="-133.5" font-family="Helvetica,sans-Serif" font-size="10.00">ViennaRNA/zscore.h</text>
</a>
</g>
</g>
<!-- Node5&#45;&gt;Node17 -->
<g id="edge30" class="edge">
<title>Node5&#45;&gt;Node17</title>
<path fill="none" stroke="#63b8ff" d="M639.45,-186.51C589.56,-177.89 512.74,-164.26 446.34,-151 442.07,-150.15 437.65,-149.24 433.21,-148.3"/>
<polygon fill="#63b8ff" stroke="#63b8ff" points="434.23,-144.94 423.72,-146.28 432.77,-151.79 434.23,-144.94"/>
</g>
<!-- Node7&#45;&gt;Node2 -->
<g id="edge8" class="edge">
<title>Node7&#45;&gt;Node2</title>
<path fill="none" stroke="#63b8ff" d="M989.71,-145.71C986.06,-163.62 970.63,-205.12 958.26,-231.8"/>
<polygon fill="#63b8ff" stroke="#63b8ff" points="955.24,-230 954.02,-240.52 961.54,-233.06 955.24,-230"/>
</g>
<!-- Node7&#45;&gt;Node3 -->
<g id="edge7" class="edge">
<title>Node7&#45;&gt;Node3</title>
<path fill="none" stroke="#63b8ff" d="M1010.76,-126.1C1036.96,-115.21 1081.56,-96.68 1111.72,-84.14"/>
<polygon fill="#63b8ff" stroke="#63b8ff" points="1112.82,-87.47 1120.72,-80.4 1110.14,-81.01 1112.82,-87.47"/>
</g>
<!-- Node7&#45;&gt;Node5 -->
<g id="edge9" class="edge">
<title>Node7&#45;&gt;Node5</title>
<path fill="none" stroke="#63b8ff" d="M948.94,-145.95C898.59,-156.29 812.28,-173.32 753.75,-184.47"/>
<polygon fill="#63b8ff" stroke="#63b8ff" points="753.46,-180.96 744.28,-186.27 754.76,-187.84 753.46,-180.96"/>
</g>
<!-- Node7&#45;&gt;Node6 -->
<g id="edge10" class="edge">
<title>Node7&#45;&gt;Node6</title>
<path fill="none" stroke="#63b8ff" d="M989.34,-126.1C989.34,-117.12 989.34,-102.95 989.34,-91.22"/>
<polygon fill="#63b8ff" stroke="#63b8ff" points="992.84,-91.34 989.34,-81.34 985.84,-91.34 992.84,-91.34"/>
</g>
<!-- Node8&#45;&gt;Node5 -->
<g id="edge12" class="edge">
<title>Node8&#45;&gt;Node5</title>
<path fill="none" stroke="#63b8ff" d="M548.35,-145.97C580.11,-155.84 628.27,-171.78 660.1,-182.9"/>
<polygon fill="#63b8ff" stroke="#63b8ff" points="658.6,-186.08 669.2,-186.11 660.93,-179.48 658.6,-186.08"/>
</g>
<!-- Node9&#45;&gt;Node2 -->
<g id="edge14" class="edge">
<title>Node9&#45;&gt;Node2</title>
<path fill="none" stroke="#63b8ff" d="M846.98,-145.71C866.86,-163.94 906.16,-206.61 928.11,-233.21"/>
<polygon fill="#63b8ff" stroke="#63b8ff" points="925.14,-235.11 934.14,-240.7 930.59,-230.72 925.14,-235.11"/>
</g>
<!-- Node9&#45;&gt;Node5 -->
<g id="edge15" class="edge">
<title>Node9&#45;&gt;Node5</title>
<path fill="none" stroke="#63b8ff" d="M818.45,-145.97C796.57,-155.75 758.31,-171.5 729.57,-182.61"/>
<polygon fill="#63b8ff" stroke="#63b8ff" points="728.58,-179.24 720.49,-186.08 731.08,-185.78 728.58,-179.24"/>
</g>
<!-- Node10&#45;&gt;Node5 -->
<g id="edge17" class="edge">
<title>Node10&#45;&gt;Node5</title>
<path fill="none" stroke="#63b8ff" d="M271.1,-147.16C278.94,-148.55 286.84,-149.88 294.34,-151 402.28,-167.09 527.14,-179.88 607.86,-187.55"/>
<polygon fill="#63b8ff" stroke="#63b8ff" points="607.16,-191 617.44,-188.46 607.81,-184.03 607.16,-191"/>
</g>
<!-- Node10&#45;&gt;Node11 -->
<g id="edge18" class="edge">
<title>Node10&#45;&gt;Node11</title>
<path fill="none" stroke="#63b8ff" d="M211.34,-120.8C211.34,-113.67 211.34,-104.82 211.34,-96.56"/>
<polygon fill="#63b8ff" stroke="#63b8ff" points="214.84,-96.68 211.34,-86.68 207.84,-96.68 214.84,-96.68"/>
</g>
<!-- Node11&#45;&gt;Node5 -->
<g id="edge19" class="edge">
<title>Node11&#45;&gt;Node5</title>
<path fill="none" stroke="#63b8ff" d="M231.07,-85.33C244.69,-95.27 263.18,-108.84 279.34,-121 296.82,-134.14 298.09,-142.75 318.34,-151 369.13,-171.7 513.95,-184.38 607.76,-190.66"/>
<polygon fill="#63b8ff" stroke="#63b8ff" points="607.51,-194.15 617.71,-191.32 607.97,-187.17 607.51,-194.15"/>
</g>
<!-- Node12&#45;&gt;Node5 -->
<g id="edge22" class="edge">
<title>Node12&#45;&gt;Node5</title>
<path fill="none" stroke="#63b8ff" d="M697.31,-145.67C699,-153.54 699.49,-165.45 698.77,-175.66"/>
<polygon fill="#63b8ff" stroke="#63b8ff" points="695.33,-175 697.5,-185.37 702.27,-175.91 695.33,-175"/>
</g>
<!-- Node14&#45;&gt;Node2 -->
<g id="edge25" class="edge">
<title>Node14&#45;&gt;Node2</title>
<path fill="none" stroke="#63b8ff" d="M1171.41,-151.38C1159.61,-166.88 1135.05,-191.3 1109.34,-206 1082.48,-221.36 1050.29,-232.67 1021.38,-240.61"/>
<polygon fill="#63b8ff" stroke="#63b8ff" points="1020.72,-237.16 1011.95,-243.1 1022.51,-243.93 1020.72,-237.16"/>
</g>
<!-- Node14&#45;&gt;Node5 -->
<g id="edge26" class="edge">
<title>Node14&#45;&gt;Node5</title>
<path fill="none" stroke="#63b8ff" d="M1114.61,-146.2C1101.97,-147.82 1088.76,-149.47 1076.34,-151 973.54,-163.64 854.81,-177.63 776.85,-186.48"/>
<polygon fill="#63b8ff" stroke="#63b8ff" points="776.69,-182.98 767.15,-187.58 777.48,-189.93 776.69,-182.98"/>
</g>
<!-- Node14&#45;&gt;Node15 -->
<g id="edge27" class="edge">
<title>Node14&#45;&gt;Node15</title>
<path fill="none" stroke="#63b8ff" d="M1208.31,-120.64C1231.4,-109.93 1262.74,-95.4 1285.54,-84.82"/>
<polygon fill="#63b8ff" stroke="#63b8ff" points="1287,-88.01 1294.6,-80.62 1284.05,-81.65 1287,-88.01"/>
</g>
<!-- Node15&#45;&gt;Node2 -->
<g id="edge29" class="edge">
<title>Node15&#45;&gt;Node2</title>
<path fill="none" stroke="#63b8ff" d="M1316.18,-79.92C1311.41,-104.92 1280.3,-175.78 1228.34,-206 1194.48,-225.69 1094.16,-240.38 1022.06,-248.58"/>
<polygon fill="#63b8ff" stroke="#63b8ff" points="1021.81,-245.09 1012.25,-249.67 1022.58,-252.04 1021.81,-245.09"/>
</g>
<!-- Node16 -->
<g id="node16" class="node">
<title>Node16</title>
<g id="a_node16"><a xlink:title=" ">
<polygon fill="#e0e0e0" stroke="#999999" points="1338.34,-19 1292.34,-19 1292.34,0 1338.34,0 1338.34,-19"/>
<text text-anchor="middle" x="1315.34" y="-7" font-family="Helvetica,sans-Serif" font-size="10.00">stdio.h</text>
</a>
</g>
</g>
<!-- Node15&#45;&gt;Node16 -->
<g id="edge28" class="edge">
<title>Node15&#45;&gt;Node16</title>
<path fill="none" stroke="#63b8ff" d="M1315.34,-60.37C1315.34,-52.5 1315.34,-40.6 1315.34,-30.39"/>
<polygon fill="#63b8ff" stroke="#63b8ff" points="1318.84,-30.68 1315.34,-20.68 1311.84,-30.68 1318.84,-30.68"/>
</g>
</g>
</svg>
        <g id="navigator" transform="translate(0 0)" fill="#404254">
                <rect fill="#f2f5e9" fill-opacity="0.5" stroke="#606060" stroke-width=".5" x="0" y="0" width="60" height="60"/>
                <use id="zoomplus" xlink:href="#zoomPlus" x="17" y="9" onmousedown="handleZoom(evt,'in')"/>
                <use id="zoomminus" xlink:href="#zoomMin" x="42" y="9" onmousedown="handleZoom(evt,'out')"/>
                <use id="reset" xlink:href="#resetDef" x="30" y="36" onmousedown="handleReset()"/>
                <g id="arrowUp" xlink:href="#dirArrow" transform="translate(30 24)" onmousedown="handlePan(0,-1)">
                  <use xlink:href="#rim" fill="#404040">
                        <set attributeName="fill" to="#808080" begin="arrowUp.mouseover" end="arrowUp.mouseout"/>
                  </use>
                  <path fill="none" stroke="white" stroke-width="1.5" d="M0,-3.0v7 M-2.5,-0.5L0,-3.0L2.5,-0.5"/>
                </g>
                <g id="arrowRight" xlink:href="#dirArrow" transform="rotate(90) translate(36 -43)" onmousedown="handlePan(1,0)">
                  <use xlink:href="#rim" fill="#404040">
                        <set attributeName="fill" to="#808080" begin="arrowRight.mouseover" end="arrowRight.mouseout"/>
                  </use>
                  <path fill="none" stroke="white" stroke-width="1.5" d="M0,-3.0v7 M-2.5,-0.5L0,-3.0L2.5,-0.5"/>
                </g>
                <g id="arrowDown" xlink:href="#dirArrow" transform="rotate(180) translate(-30 -48)" onmousedown="handlePan(0,1)">
                  <use xlink:href="#rim" fill="#404040">
                        <set attributeName="fill" to="#808080" begin="arrowDown.mouseover" end="arrowDown.mouseout"/>
                  </use>
                  <path fill="none" stroke="white" stroke-width="1.5" d="M0,-3.0v7 M-2.5,-0.5L0,-3.0L2.5,-0.5"/>
                </g>
                <g id="arrowLeft" xlink:href="#dirArrow" transform="rotate(270) translate(-36 17)" onmousedown="handlePan(-1,0)">
                  <use xlink:href="#rim" fill="#404040">
                        <set attributeName="fill" to="#808080" begin="arrowLeft.mouseover" end="arrowLeft.mouseout"/>
                  </use>
                  <path fill="none" stroke="white" stroke-width="1.5" d="M0,-3.0v7 M-2.5,-0.5L0,-3.0L2.5,-0.5"/>
                </g>
        </g>
        <svg viewBox="0 0 15 15" width="100%" height="30px" preserveAspectRatio="xMaxYMin meet">
         <g id="arrow_out" transform="scale(0.3 0.3)">
          <a xlink:href="soft_8h__incl_org.svg" target="_base">
           <rect id="button" ry="5" rx="5" y="6" x="6" height="38" width="38"
                fill="#f2f5e9" fill-opacity="0.5" stroke="#606060" stroke-width="1.0"/>
           <path id="arrow"
             d="M 11.500037,31.436501 C 11.940474,20.09759 22.043105,11.32322 32.158766,21.979434 L 37.068811,17.246167 C 37.068811,17.246167 37.088388,32 37.088388,32 L 22.160133,31.978069 C 22.160133,31.978069 26.997745,27.140456 26.997745,27.140456 C 18.528582,18.264221 13.291696,25.230495 11.500037,31.436501 z"
             style="fill:#404040;"/>
          </a>
         </g>
        </svg>
</svg>
