<?xml version="1.0" encoding="UTF-8" standalone="no"?>
<!DOCTYPE svg PUBLIC "-//W3C//DTD SVG 1.1//EN"
 "http://www.w3.org/Graphics/SVG/1.1/DTD/svg11.dtd">
<!-- Generated by graphviz version 7.1.0 (0)
 -->
<!-- Title: ViennaRNA/utils/strings.h Pages: 1 -->
<svg width="1581pt" height="335pt"
 viewBox="0.00 0.00 1581.00 335.00" xmlns="http://www.w3.org/2000/svg" xmlns:xlink="http://www.w3.org/1999/xlink">
<g id="graph0" class="graph" transform="scale(1 1) rotate(0) translate(4 331)">
<title>ViennaRNA/utils/strings.h</title>
<!-- Node1 -->
<g id="node1" class="node">
<title>Node1</title>
<g id="a_node1"><a xlink:title="General utility&#45; and helper&#45;functions for RNA sequence and structure strings used throughout the Vien...">
<polygon fill="#999999" stroke="#666666" points="923,-327 793,-327 793,-308 923,-308 923,-327"/>
<text text-anchor="middle" x="858" y="-315" font-family="Helvetica,sans-Serif" font-size="10.00">ViennaRNA/utils/strings.h</text>
</a>
</g>
</g>
<!-- Node2 -->
<g id="node2" class="node">
<title>Node2</title>
<g id="a_node2"><a xlink:title=" ">
<polygon fill="#e0e0e0" stroke="#999999" points="829,-266.5 777,-266.5 777,-247.5 829,-247.5 829,-266.5"/>
<text text-anchor="middle" x="803" y="-254.5" font-family="Helvetica,sans-Serif" font-size="10.00">stdarg.h</text>
</a>
</g>
</g>
<!-- Node1&#45;&gt;Node2 -->
<g id="edge1" class="edge">
<title>Node1&#45;&gt;Node2</title>
<path fill="none" stroke="#63b8ff" d="M849.88,-307.87C841.76,-299.23 829.04,-285.7 818.9,-274.92"/>
<polygon fill="#63b8ff" stroke="#63b8ff" points="821.59,-272.66 812.19,-267.77 816.49,-277.45 821.59,-272.66"/>
</g>
<!-- Node3 -->
<g id="node3" class="node">
<title>Node3</title>
<g id="a_node3"><a xlink:href="datastructures_2basic_8h.html" target="_top" xlink:title="Various data structures and pre&#45;processor macros.">
<polygon fill="white" stroke="#666666" points="981,-272 847,-272 847,-242 981,-242 981,-272"/>
<text text-anchor="start" x="855" y="-260" font-family="Helvetica,sans-Serif" font-size="10.00">ViennaRNA/datastructures</text>
<text text-anchor="middle" x="914" y="-249" font-family="Helvetica,sans-Serif" font-size="10.00">/basic.h</text>
</a>
</g>
</g>
<!-- Node1&#45;&gt;Node3 -->
<g id="edge2" class="edge">
<title>Node1&#45;&gt;Node3</title>
<path fill="none" stroke="#63b8ff" d="M866.26,-307.87C873.23,-300.59 883.51,-289.85 892.75,-280.2"/>
<polygon fill="#63b8ff" stroke="#63b8ff" points="895.06,-282.85 899.44,-273.21 890,-278.01 895.06,-282.85"/>
</g>
<!-- Node4 -->
<g id="node4" class="node">
<title>Node4</title>
<g id="a_node4"><a xlink:href="constants_8h.html" target="_top" xlink:title="Energy parameter constants.">
<polygon fill="white" stroke="#666666" points="158,-79.5 0,-79.5 0,-60.5 158,-60.5 158,-79.5"/>
<text text-anchor="middle" x="79" y="-67.5" font-family="Helvetica,sans-Serif" font-size="10.00">ViennaRNA/params/constants.h</text>
</a>
</g>
</g>
<!-- Node3&#45;&gt;Node4 -->
<g id="edge3" class="edge">
<title>Node3&#45;&gt;Node4</title>
<path fill="none" stroke="#63b8ff" d="M846.52,-243.11C843.65,-242.71 840.8,-242.33 838,-242 694.35,-224.86 321.78,-261.07 188,-206 135.65,-184.45 101.42,-121.79 86.92,-89.99"/>
<polygon fill="#63b8ff" stroke="#63b8ff" points="90.29,-88.96 83.08,-81.19 83.87,-91.76 90.29,-88.96"/>
</g>
<!-- Node6 -->
<g id="node6" class="node">
<title>Node6</title>
<g id="a_node6"><a xlink:href="fold__compound_8h.html" target="_top" xlink:title="The Basic Fold Compound API.">
<polygon fill="white" stroke="#666666" points="927,-206 781,-206 781,-187 927,-187 927,-206"/>
<text text-anchor="middle" x="854" y="-194" font-family="Helvetica,sans-Serif" font-size="10.00">ViennaRNA/fold_compound.h</text>
</a>
</g>
</g>
<!-- Node3&#45;&gt;Node6 -->
<g id="edge5" class="edge">
<title>Node3&#45;&gt;Node6</title>
<path fill="none" stroke="#63b8ff" d="M899.17,-241.54C890.63,-233.22 879.87,-222.72 870.99,-214.07"/>
<polygon fill="#63b8ff" stroke="#63b8ff" points="873.58,-211.71 863.98,-207.23 868.7,-216.72 873.58,-211.71"/>
</g>
<!-- Node7 -->
<g id="node7" class="node">
<title>Node7</title>
<g id="a_node7"><a xlink:href="model_8h.html" target="_top" xlink:title="The model details data structure and its corresponding modifiers.">
<polygon fill="white" stroke="#666666" points="282,-79.5 176,-79.5 176,-60.5 282,-60.5 282,-79.5"/>
<text text-anchor="middle" x="229" y="-67.5" font-family="Helvetica,sans-Serif" font-size="10.00">ViennaRNA/model.h</text>
</a>
</g>
</g>
<!-- Node3&#45;&gt;Node7 -->
<g id="edge35" class="edge">
<title>Node3&#45;&gt;Node7</title>
<path fill="none" stroke="#63b8ff" d="M846.5,-243.28C843.63,-242.83 840.79,-242.4 838,-242 682.28,-219.73 238.23,-270.55 136,-151 113.23,-124.38 158.12,-98.94 193.11,-84.15"/>
<polygon fill="#63b8ff" stroke="#63b8ff" points="194.22,-87.48 202.17,-80.49 191.59,-81 194.22,-87.48"/>
</g>
<!-- Node8 -->
<g id="node8" class="node">
<title>Node8</title>
<g id="a_node8"><a xlink:href="params_2basic_8h.html" target="_top" xlink:title="Functions to deal with sets of energy parameters.">
<polygon fill="white" stroke="#666666" points="283,-145.5 145,-145.5 145,-126.5 283,-126.5 283,-145.5"/>
<text text-anchor="middle" x="214" y="-133.5" font-family="Helvetica,sans-Serif" font-size="10.00">ViennaRNA/params/basic.h</text>
</a>
</g>
</g>
<!-- Node3&#45;&gt;Node8 -->
<g id="edge36" class="edge">
<title>Node3&#45;&gt;Node8</title>
<path fill="none" stroke="#63b8ff" d="M846.57,-245.01C840.61,-243.97 834.69,-242.94 829,-242 720.86,-224.07 693.16,-223.79 585,-206 470.7,-187.2 337.61,-162.35 265.92,-148.18"/>
<polygon fill="#63b8ff" stroke="#63b8ff" points="266.92,-144.81 256.43,-146.29 265.56,-151.68 266.92,-144.81"/>
</g>
<!-- Node10 -->
<g id="node10" class="node">
<title>Node10</title>
<g id="a_node10"><a xlink:href="dp__matrices_8h.html" target="_top" xlink:title="Functions to deal with standard dynamic programming (DP) matrices.">
<polygon fill="white" stroke="#666666" points="434.5,-145.5 301.5,-145.5 301.5,-126.5 434.5,-126.5 434.5,-145.5"/>
<text text-anchor="middle" x="368" y="-133.5" font-family="Helvetica,sans-Serif" font-size="10.00">ViennaRNA/dp_matrices.h</text>
</a>
</g>
</g>
<!-- Node3&#45;&gt;Node10 -->
<g id="edge37" class="edge">
<title>Node3&#45;&gt;Node10</title>
<path fill="none" stroke="#63b8ff" d="M846.57,-242.96C798.54,-232.88 732.69,-218.57 675,-206 582.22,-185.79 474.13,-162.17 414.04,-148.47"/>
<polygon fill="#63b8ff" stroke="#63b8ff" points="415.04,-145.1 404.51,-146.28 413.47,-151.93 415.04,-145.1"/>
</g>
<!-- Node11 -->
<g id="node11" class="node">
<title>Node11</title>
<g id="a_node11"><a xlink:href="hard_8h.html" target="_top" xlink:title="Functions and data structures for handling of secondary structure hard constraints.">
<polygon fill="white" stroke="#666666" points="571.5,-151 452.5,-151 452.5,-121 571.5,-121 571.5,-151"/>
<text text-anchor="start" x="460.5" y="-139" font-family="Helvetica,sans-Serif" font-size="10.00">ViennaRNA/constraints</text>
<text text-anchor="middle" x="512" y="-128" font-family="Helvetica,sans-Serif" font-size="10.00">/hard.h</text>
</a>
</g>
</g>
<!-- Node3&#45;&gt;Node11 -->
<g id="edge38" class="edge">
<title>Node3&#45;&gt;Node11</title>
<path fill="none" stroke="#63b8ff" d="M865.11,-241.53C791.27,-219.67 651.46,-178.28 571.71,-154.67"/>
<polygon fill="#63b8ff" stroke="#63b8ff" points="572.9,-151.38 562.32,-151.89 570.91,-158.09 572.9,-151.38"/>
</g>
<!-- Node13 -->
<g id="node13" class="node">
<title>Node13</title>
<g id="a_node13"><a xlink:href="soft_8h.html" target="_top" xlink:title="Functions and data structures for secondary structure soft constraints.">
<polygon fill="white" stroke="#666666" points="1187.5,-151 1068.5,-151 1068.5,-121 1187.5,-121 1187.5,-151"/>
<text text-anchor="start" x="1076.5" y="-139" font-family="Helvetica,sans-Serif" font-size="10.00">ViennaRNA/constraints</text>
<text text-anchor="middle" x="1128" y="-128" font-family="Helvetica,sans-Serif" font-size="10.00">/soft.h</text>
</a>
</g>
</g>
<!-- Node3&#45;&gt;Node13 -->
<g id="edge39" class="edge">
<title>Node3&#45;&gt;Node13</title>
<path fill="none" stroke="#63b8ff" d="M935.23,-241.65C970.71,-220.43 1042.1,-180.62 1087.42,-156.69"/>
<polygon fill="#63b8ff" stroke="#63b8ff" points="1088.93,-159.85 1096.16,-152.11 1085.68,-153.65 1088.93,-159.85"/>
</g>
<!-- Node14 -->
<g id="node14" class="node">
<title>Node14</title>
<g id="a_node14"><a xlink:href="grammar_8h.html" target="_top" xlink:title="Implementations for the RNA folding grammar.">
<polygon fill="white" stroke="#666666" points="1050.5,-145.5 933.5,-145.5 933.5,-126.5 1050.5,-126.5 1050.5,-145.5"/>
<text text-anchor="middle" x="992" y="-133.5" font-family="Helvetica,sans-Serif" font-size="10.00">ViennaRNA/grammar.h</text>
</a>
</g>
</g>
<!-- Node3&#45;&gt;Node14 -->
<g id="edge40" class="edge">
<title>Node3&#45;&gt;Node14</title>
<path fill="none" stroke="#63b8ff" d="M923.25,-241.88C937.39,-220.31 964.37,-179.15 980,-155.31"/>
<polygon fill="#63b8ff" stroke="#63b8ff" points="982.91,-157.26 985.46,-146.98 977.05,-153.42 982.91,-157.26"/>
</g>
<!-- Node15 -->
<g id="node15" class="node">
<title>Node15</title>
<g id="a_node15"><a xlink:href="structured__domains_8h.html" target="_top" xlink:title="This module provides interfaces that deal with additional structured domains in the folding grammar.">
<polygon fill="white" stroke="#666666" points="1320.5,-151 1205.5,-151 1205.5,-121 1320.5,-121 1320.5,-151"/>
<text text-anchor="start" x="1213.5" y="-139" font-family="Helvetica,sans-Serif" font-size="10.00">ViennaRNA/structured</text>
<text text-anchor="middle" x="1263" y="-128" font-family="Helvetica,sans-Serif" font-size="10.00">_domains.h</text>
</a>
</g>
</g>
<!-- Node3&#45;&gt;Node15 -->
<g id="edge41" class="edge">
<title>Node3&#45;&gt;Node15</title>
<path fill="none" stroke="#63b8ff" d="M956.45,-241.53C1020.16,-219.8 1140.44,-178.79 1209.88,-155.11"/>
<polygon fill="#63b8ff" stroke="#63b8ff" points="1210.81,-158.49 1219.14,-151.95 1208.55,-151.87 1210.81,-158.49"/>
</g>
<!-- Node16 -->
<g id="node16" class="node">
<title>Node16</title>
<g id="a_node16"><a xlink:href="unstructured__domains_8h.html" target="_top" xlink:title="Functions to modify unstructured domains, e.g. to incorporate ligands binding to unpaired stretches.">
<polygon fill="white" stroke="#666666" points="1463.5,-151 1338.5,-151 1338.5,-121 1463.5,-121 1463.5,-151"/>
<text text-anchor="start" x="1346.5" y="-139" font-family="Helvetica,sans-Serif" font-size="10.00">ViennaRNA/unstructured</text>
<text text-anchor="middle" x="1401" y="-128" font-family="Helvetica,sans-Serif" font-size="10.00">_domains.h</text>
</a>
</g>
</g>
<!-- Node3&#45;&gt;Node16 -->
<g id="edge42" class="edge">
<title>Node3&#45;&gt;Node16</title>
<path fill="none" stroke="#63b8ff" d="M968.63,-241.53C1056.41,-219.4 1228.76,-177.26 1327.32,-153.81"/>
<polygon fill="#63b8ff" stroke="#63b8ff" points="1327.98,-157.25 1336.9,-151.54 1326.36,-150.44 1327.98,-157.25"/>
</g>
<!-- Node17 -->
<g id="node17" class="node">
<title>Node17</title>
<g id="a_node17"><a xlink:href="utils_2structures_8h.html" target="_top" xlink:title="Various utility&#45; and helper&#45;functions for secondary structure parsing, converting,...">
<polygon fill="white" stroke="#666666" points="1573,-79.5 1429,-79.5 1429,-60.5 1573,-60.5 1573,-79.5"/>
<text text-anchor="middle" x="1501" y="-67.5" font-family="Helvetica,sans-Serif" font-size="10.00">ViennaRNA/utils/structures.h</text>
</a>
</g>
</g>
<!-- Node3&#45;&gt;Node17 -->
<g id="edge43" class="edge">
<title>Node3&#45;&gt;Node17</title>
<path fill="none" stroke="#63b8ff" d="M981.39,-251.28C1111.8,-241.14 1391.87,-212.98 1464,-151 1481.58,-135.89 1488.13,-109.07 1492.66,-90.68"/>
<polygon fill="#63b8ff" stroke="#63b8ff" points="1495.99,-91.81 1495.13,-81.25 1489.21,-90.04 1495.99,-91.81"/>
</g>
<!-- Node5 -->
<g id="node5" class="node">
<title>Node5</title>
<g id="a_node5"><a xlink:title=" ">
<polygon fill="#e0e0e0" stroke="#999999" points="103,-19 55,-19 55,0 103,0 103,-19"/>
<text text-anchor="middle" x="79" y="-7" font-family="Helvetica,sans-Serif" font-size="10.00">limits.h</text>
</a>
</g>
</g>
<!-- Node4&#45;&gt;Node5 -->
<g id="edge4" class="edge">
<title>Node4&#45;&gt;Node5</title>
<path fill="none" stroke="#63b8ff" d="M79,-60.37C79,-52.5 79,-40.6 79,-30.39"/>
<polygon fill="#63b8ff" stroke="#63b8ff" points="82.5,-30.68 79,-20.68 75.5,-30.68 82.5,-30.68"/>
</g>
<!-- Node6&#45;&gt;Node7 -->
<g id="edge6" class="edge">
<title>Node6&#45;&gt;Node7</title>
<path fill="none" stroke="#63b8ff" d="M836.51,-186.55C797.93,-166.81 708.85,-121.25 708,-121 564.28,-78.44 386.95,-70.97 293.56,-70.31"/>
<polygon fill="#63b8ff" stroke="#63b8ff" points="293.85,-66.81 283.84,-70.27 293.82,-73.81 293.85,-66.81"/>
</g>
<!-- Node6&#45;&gt;Node8 -->
<g id="edge7" class="edge">
<title>Node6&#45;&gt;Node8</title>
<path fill="none" stroke="#63b8ff" d="M780.59,-192.3C671.49,-186.81 460.64,-173.92 283,-151 276.19,-150.12 269.06,-149.05 262.08,-147.9"/>
<polygon fill="#63b8ff" stroke="#63b8ff" points="262.85,-144.48 252.4,-146.23 261.66,-151.38 262.85,-144.48"/>
</g>
<!-- Node9 -->
<g id="node9" class="node">
<title>Node9</title>
<g id="a_node9"><a xlink:href="sequence_8h.html" target="_top" xlink:title="Functions and data structures related to sequence representations ,.">
<polygon fill="white" stroke="#666666" points="915,-145.5 793,-145.5 793,-126.5 915,-126.5 915,-145.5"/>
<text text-anchor="middle" x="854" y="-133.5" font-family="Helvetica,sans-Serif" font-size="10.00">ViennaRNA/sequence.h</text>
</a>
</g>
</g>
<!-- Node6&#45;&gt;Node9 -->
<g id="edge12" class="edge">
<title>Node6&#45;&gt;Node9</title>
<path fill="none" stroke="#63b8ff" d="M849.04,-186.87C847.35,-179 846.85,-167.1 847.57,-156.89"/>
<polygon fill="#63b8ff" stroke="#63b8ff" points="851.01,-157.54 848.84,-147.17 844.07,-156.63 851.01,-157.54"/>
</g>
<!-- Node6&#45;&gt;Node10 -->
<g id="edge14" class="edge">
<title>Node6&#45;&gt;Node10</title>
<path fill="none" stroke="#63b8ff" d="M780.52,-189.83C696.34,-182.57 554.71,-168.77 434,-151 427.86,-150.1 421.45,-149.05 415.14,-147.95"/>
<polygon fill="#63b8ff" stroke="#63b8ff" points="415.9,-144.53 405.44,-146.2 414.65,-151.42 415.9,-144.53"/>
</g>
<!-- Node6&#45;&gt;Node11 -->
<g id="edge17" class="edge">
<title>Node6&#45;&gt;Node11</title>
<path fill="none" stroke="#63b8ff" d="M787.29,-186.54C732.83,-178.49 653.78,-166 583.12,-153.21"/>
<polygon fill="#63b8ff" stroke="#63b8ff" points="583.82,-149.78 573.35,-151.43 582.56,-156.67 583.82,-149.78"/>
</g>
<!-- Node6&#45;&gt;Node13 -->
<g id="edge21" class="edge">
<title>Node6&#45;&gt;Node13</title>
<path fill="none" stroke="#63b8ff" d="M890.89,-186.55C933.34,-177.06 1003.84,-161.95 1057,-150.91"/>
<polygon fill="#63b8ff" stroke="#63b8ff" points="1057.5,-154.38 1066.58,-148.93 1056.08,-147.53 1057.5,-154.38"/>
</g>
<!-- Node6&#45;&gt;Node14 -->
<g id="edge25" class="edge">
<title>Node6&#45;&gt;Node14</title>
<path fill="none" stroke="#63b8ff" d="M869.95,-186.62C890.8,-176.91 927.47,-161.26 955.27,-150.14"/>
<polygon fill="#63b8ff" stroke="#63b8ff" points="956.4,-153.46 964.41,-146.52 953.82,-146.95 956.4,-153.46"/>
</g>
<!-- Node6&#45;&gt;Node15 -->
<g id="edge27" class="edge">
<title>Node6&#45;&gt;Node15</title>
<path fill="none" stroke="#63b8ff" d="M927.19,-187.72C994.22,-180.21 1096.43,-167.77 1193.86,-151.46"/>
<polygon fill="#63b8ff" stroke="#63b8ff" points="1194.33,-154.93 1203.61,-149.81 1193.17,-148.03 1194.33,-154.93"/>
</g>
<!-- Node6&#45;&gt;Node16 -->
<g id="edge28" class="edge">
<title>Node6&#45;&gt;Node16</title>
<path fill="none" stroke="#63b8ff" d="M927.46,-190.52C1019.69,-184.03 1182.39,-171.09 1321,-151 1323.01,-150.71 1325.05,-150.4 1327.11,-150.07"/>
<polygon fill="#63b8ff" stroke="#63b8ff" points="1327.49,-153.56 1336.77,-148.45 1326.33,-146.65 1327.49,-153.56"/>
</g>
<!-- Node19 -->
<g id="node19" class="node">
<title>Node19</title>
<g id="a_node19"><a xlink:href="zscore_8h_source.html" target="_top" xlink:title=" ">
<polygon fill="white" stroke="#666666" points="698.5,-145.5 589.5,-145.5 589.5,-126.5 698.5,-126.5 698.5,-145.5"/>
<text text-anchor="middle" x="644" y="-133.5" font-family="Helvetica,sans-Serif" font-size="10.00">ViennaRNA/zscore.h</text>
</a>
</g>
</g>
<!-- Node6&#45;&gt;Node19 -->
<g id="edge34" class="edge">
<title>Node6&#45;&gt;Node19</title>
<path fill="none" stroke="#63b8ff" d="M822.11,-186.62C786.1,-176.59 727.34,-160.22 687.23,-149.04"/>
<polygon fill="#63b8ff" stroke="#63b8ff" points="688.23,-145.69 677.65,-146.37 686.35,-152.43 688.23,-145.69"/>
</g>
<!-- Node8&#45;&gt;Node3 -->
<g id="edge9" class="edge">
<title>Node8&#45;&gt;Node3</title>
<path fill="none" stroke="#63b8ff" d="M266.48,-146C341.32,-159.67 482.59,-186.19 603,-206 707.26,-223.15 736.75,-224.03 835.6,-240.13"/>
<polygon fill="#63b8ff" stroke="#63b8ff" points="834.75,-243.53 845.19,-241.7 835.89,-236.63 834.75,-243.53"/>
</g>
<!-- Node8&#45;&gt;Node4 -->
<g id="edge8" class="edge">
<title>Node8&#45;&gt;Node4</title>
<path fill="none" stroke="#63b8ff" d="M195.23,-126.1C172.56,-115.35 134.19,-97.16 107.78,-84.64"/>
<polygon fill="#63b8ff" stroke="#63b8ff" points="109.51,-81.59 98.98,-80.47 106.52,-87.92 109.51,-81.59"/>
</g>
<!-- Node8&#45;&gt;Node6 -->
<g id="edge10" class="edge">
<title>Node8&#45;&gt;Node6</title>
<path fill="none" stroke="#63b8ff" d="M268.42,-145.97C279.25,-147.84 290.49,-149.64 301,-151 466.47,-172.35 660.77,-185 769.47,-191.07"/>
<polygon fill="#63b8ff" stroke="#63b8ff" points="769,-194.55 779.17,-191.6 769.38,-187.56 769,-194.55"/>
</g>
<!-- Node8&#45;&gt;Node7 -->
<g id="edge11" class="edge">
<title>Node8&#45;&gt;Node7</title>
<path fill="none" stroke="#63b8ff" d="M216.09,-126.1C218.21,-117.03 221.58,-102.64 224.35,-90.85"/>
<polygon fill="#63b8ff" stroke="#63b8ff" points="227.71,-91.83 226.59,-81.3 220.9,-90.23 227.71,-91.83"/>
</g>
<!-- Node9&#45;&gt;Node6 -->
<g id="edge13" class="edge">
<title>Node9&#45;&gt;Node6</title>
<path fill="none" stroke="#63b8ff" d="M858.96,-145.67C860.66,-153.54 861.15,-165.45 860.43,-175.66"/>
<polygon fill="#63b8ff" stroke="#63b8ff" points="856.99,-175 859.15,-185.37 863.93,-175.91 856.99,-175"/>
</g>
<!-- Node10&#45;&gt;Node3 -->
<g id="edge15" class="edge">
<title>Node10&#45;&gt;Node3</title>
<path fill="none" stroke="#63b8ff" d="M415.04,-146C478.46,-159.18 594.38,-184.51 693,-206 743.69,-217.04 800.66,-229.43 844.13,-239.11"/>
<polygon fill="#63b8ff" stroke="#63b8ff" points="843.16,-242.48 853.68,-241.25 844.69,-235.65 843.16,-242.48"/>
</g>
<!-- Node10&#45;&gt;Node6 -->
<g id="edge16" class="edge">
<title>Node10&#45;&gt;Node6</title>
<path fill="none" stroke="#63b8ff" d="M421.49,-145.93C431.66,-147.75 442.17,-149.55 452,-151 561.35,-167.1 687.88,-179.94 769.38,-187.61"/>
<polygon fill="#63b8ff" stroke="#63b8ff" points="768.79,-191.06 779.07,-188.51 769.44,-184.1 768.79,-191.06"/>
</g>
<!-- Node11&#45;&gt;Node6 -->
<g id="edge18" class="edge">
<title>Node11&#45;&gt;Node6</title>
<path fill="none" stroke="#63b8ff" d="M571.77,-147.71C577.61,-148.85 583.43,-149.97 589,-151 657.7,-163.64 736.44,-176.24 790.19,-184.78"/>
<polygon fill="#63b8ff" stroke="#63b8ff" points="789.35,-188.19 799.78,-186.3 790.45,-181.28 789.35,-188.19"/>
</g>
<!-- Node12 -->
<g id="node12" class="node">
<title>Node12</title>
<g id="a_node12"><a xlink:href="constraints_2basic_8h.html" target="_top" xlink:title="Functions and data structures for constraining secondary structure predictions and evaluation.">
<polygon fill="white" stroke="#666666" points="824.5,-85 705.5,-85 705.5,-55 824.5,-55 824.5,-85"/>
<text text-anchor="start" x="713.5" y="-73" font-family="Helvetica,sans-Serif" font-size="10.00">ViennaRNA/constraints</text>
<text text-anchor="middle" x="765" y="-62" font-family="Helvetica,sans-Serif" font-size="10.00">/basic.h</text>
</a>
</g>
</g>
<!-- Node11&#45;&gt;Node12 -->
<g id="edge19" class="edge">
<title>Node11&#45;&gt;Node12</title>
<path fill="none" stroke="#63b8ff" d="M569.09,-120.56C607.06,-110.95 657.11,-98.29 697.11,-88.17"/>
<polygon fill="#63b8ff" stroke="#63b8ff" points="697.81,-91.61 706.65,-85.76 696.09,-84.82 697.81,-91.61"/>
</g>
<!-- Node12&#45;&gt;Node6 -->
<g id="edge20" class="edge">
<title>Node12&#45;&gt;Node6</title>
<path fill="none" stroke="#63b8ff" d="M765.23,-85.33C766.16,-102.44 769.92,-131.23 784,-151 793.39,-164.18 808.02,-174.36 821.48,-181.64"/>
<polygon fill="#63b8ff" stroke="#63b8ff" points="819.58,-184.6 830.09,-185.96 822.72,-178.35 819.58,-184.6"/>
</g>
<!-- Node13&#45;&gt;Node3 -->
<g id="edge22" class="edge">
<title>Node13&#45;&gt;Node3</title>
<path fill="none" stroke="#63b8ff" d="M1106.69,-151.41C1071.15,-172.65 999.75,-212.46 954.47,-236.37"/>
<polygon fill="#63b8ff" stroke="#63b8ff" points="952.97,-233.2 945.74,-240.94 956.22,-239.4 952.97,-233.2"/>
</g>
<!-- Node13&#45;&gt;Node6 -->
<g id="edge23" class="edge">
<title>Node13&#45;&gt;Node6</title>
<path fill="none" stroke="#63b8ff" d="M1068.22,-151.01C1021.89,-161.19 958.14,-174.77 912.21,-184.24"/>
<polygon fill="#63b8ff" stroke="#63b8ff" points="911.51,-180.81 902.42,-186.25 912.92,-187.66 911.51,-180.81"/>
</g>
<!-- Node13&#45;&gt;Node12 -->
<g id="edge24" class="edge">
<title>Node13&#45;&gt;Node12</title>
<path fill="none" stroke="#63b8ff" d="M1068.32,-122.59C1065.51,-122.04 1062.72,-121.51 1060,-121 983.74,-106.69 896.04,-92.06 836.21,-82.35"/>
<polygon fill="#63b8ff" stroke="#63b8ff" points="836.92,-78.92 826.49,-80.78 835.81,-85.83 836.92,-78.92"/>
</g>
<!-- Node14&#45;&gt;Node6 -->
<g id="edge26" class="edge">
<title>Node14&#45;&gt;Node6</title>
<path fill="none" stroke="#63b8ff" d="M975.87,-145.97C954.93,-155.71 918.24,-171.36 890.49,-182.46"/>
<polygon fill="#63b8ff" stroke="#63b8ff" points="889.39,-179.13 881.38,-186.06 891.96,-185.64 889.39,-179.13"/>
</g>
<!-- Node16&#45;&gt;Node3 -->
<g id="edge29" class="edge">
<title>Node16&#45;&gt;Node3</title>
<path fill="none" stroke="#63b8ff" d="M1346.4,-151.46C1258.99,-173.5 1087.69,-215.38 988.92,-238.89"/>
<polygon fill="#63b8ff" stroke="#63b8ff" points="988.22,-235.46 979.3,-241.18 989.84,-242.27 988.22,-235.46"/>
</g>
<!-- Node16&#45;&gt;Node6 -->
<g id="edge30" class="edge">
<title>Node16&#45;&gt;Node6</title>
<path fill="none" stroke="#63b8ff" d="M1338.15,-151.12C1198.87,-171.27 1035.48,-184.2 938.51,-190.64"/>
<polygon fill="#63b8ff" stroke="#63b8ff" points="938.57,-187.13 928.82,-191.27 939.03,-194.11 938.57,-187.13"/>
</g>
<!-- Node16&#45;&gt;Node17 -->
<g id="edge31" class="edge">
<title>Node16&#45;&gt;Node17</title>
<path fill="none" stroke="#63b8ff" d="M1423.19,-120.8C1439.39,-110.43 1461.31,-96.4 1477.75,-85.88"/>
<polygon fill="#63b8ff" stroke="#63b8ff" points="1479.37,-89 1485.91,-80.66 1475.6,-83.1 1479.37,-89"/>
</g>
<!-- Node17&#45;&gt;Node3 -->
<g id="edge33" class="edge">
<title>Node17&#45;&gt;Node3</title>
<path fill="none" stroke="#63b8ff" d="M1505.8,-79.79C1508.52,-96.42 1503.54,-132.49 1482,-151 1410.02,-212.85 1130.97,-241.02 992.59,-251.21"/>
<polygon fill="#63b8ff" stroke="#63b8ff" points="992.49,-247.71 982.77,-251.92 992.99,-254.69 992.49,-247.71"/>
</g>
<!-- Node18 -->
<g id="node18" class="node">
<title>Node18</title>
<g id="a_node18"><a xlink:title=" ">
<polygon fill="#e0e0e0" stroke="#999999" points="1524,-19 1478,-19 1478,0 1524,0 1524,-19"/>
<text text-anchor="middle" x="1501" y="-7" font-family="Helvetica,sans-Serif" font-size="10.00">stdio.h</text>
</a>
</g>
</g>
<!-- Node17&#45;&gt;Node18 -->
<g id="edge32" class="edge">
<title>Node17&#45;&gt;Node18</title>
<path fill="none" stroke="#63b8ff" d="M1501,-60.37C1501,-52.5 1501,-40.6 1501,-30.39"/>
<polygon fill="#63b8ff" stroke="#63b8ff" points="1504.5,-30.68 1501,-20.68 1497.5,-30.68 1504.5,-30.68"/>
</g>
</g>
</svg>
