<?xml version="1.0" encoding="UTF-8" standalone="no"?>
<!DOCTYPE svg PUBLIC "-//W3C//DTD SVG 1.1//EN"
 "http://www.w3.org/Graphics/SVG/1.1/DTD/svg11.dtd">
<!-- Generated by graphviz version 7.1.0 (0)
 -->
<!-- Title: vrna_path_s Pages: 1 -->
<svg width="123pt" height="93pt"
 viewBox="0.00 0.00 123.00 93.00" xmlns="http://www.w3.org/2000/svg" xmlns:xlink="http://www.w3.org/1999/xlink">
<g id="graph0" class="graph" transform="scale(1 1) rotate(0) translate(4 89)">
<title>vrna_path_s</title>
<!-- Node1 -->
<g id="node1" class="node">
<title>Node1</title>
<g id="a_node1"><a xlink:title="An element of a refolding path list.">
<polygon fill="#999999" stroke="#666666" points="72.5,-19 2.5,-19 2.5,0 72.5,0 72.5,-19"/>
<text text-anchor="middle" x="37.5" y="-7" font-family="Helvetica,sans-Serif" font-size="10.00">vrna_path_s</text>
</a>
</g>
</g>
<!-- Node2 -->
<g id="node2" class="node">
<title>Node2</title>
<g id="a_node2"><a xlink:href="group__neighbors.html#structvrna__move__s" target="_top" xlink:title="An atomic representation of the transition / move from one structure to its neighbor.">
<polygon fill="white" stroke="#666666" points="75,-85 0,-85 0,-66 75,-66 75,-85"/>
<text text-anchor="middle" x="37.5" y="-73" font-family="Helvetica,sans-Serif" font-size="10.00">vrna_move_s</text>
</a>
</g>
</g>
<!-- Node2&#45;&gt;Node1 -->
<g id="edge1" class="edge">
<title>Node2&#45;&gt;Node1</title>
<path fill="none" stroke="#9a32cd" stroke-dasharray="5,2" d="M37.5,-54.18C37.5,-42.44 37.5,-28.27 37.5,-19.32"/>
<polygon fill="#9a32cd" stroke="#9a32cd" points="34,-54.09 37.5,-64.09 41,-54.09 34,-54.09"/>
<text text-anchor="middle" x="51.5" y="-40" font-family="Helvetica,sans-Serif" font-size="10.00"> move</text>
</g>
<!-- Node2&#45;&gt;Node2 -->
<g id="edge2" class="edge">
<title>Node2&#45;&gt;Node2</title>
<path fill="none" stroke="#9a32cd" stroke-dasharray="5,2" d="M86.71,-80.2C90.6,-79.17 93,-77.6 93,-75.5 93,-71.76 85.4,-69.72 75.37,-69.37"/>
<polygon fill="#9a32cd" stroke="#9a32cd" points="86.36,-76.72 76.87,-81.44 87.23,-83.66 86.36,-76.72"/>
<text text-anchor="middle" x="104" y="-73" font-family="Helvetica,sans-Serif" font-size="10.00"> next</text>
</g>
</g>
</svg>
