<?xml version="1.0" encoding="UTF-8" standalone="no"?>
<!DOCTYPE svg PUBLIC "-//W3C//DTD SVG 1.1//EN"
 "http://www.w3.org/Graphics/SVG/1.1/DTD/svg11.dtd">
<!-- Generated by graphviz version 7.1.0 (0)
 -->
<!-- Title: vrna_unstructured_domain_s Pages: 1 -->
<!--zoomable 471 -->
<svg id="main" version="1.1" xmlns="http://www.w3.org/2000/svg" xmlns:xlink="http://www.w3.org/1999/xlink" xml:space="preserve" onload="init(evt)">
<style type="text/css"><![CDATA[
.edge:hover path { stroke: red; }
.edge:hover polygon { stroke: red; fill: red; }
]]></style>
<script type="text/javascript"><![CDATA[
var edges = document.getElementsByTagName('g');
if (edges && edges.length) {
  for (var i=0;i<edges.length;i++) {
    if (edges[i].id.substr(0,4)=='edge') {
      edges[i].setAttribute('class','edge');
    }
  }
}
]]></script>
        <defs>
                <circle id="rim" cx="0" cy="0" r="7"/>
                <circle id="rim2" cx="0" cy="0" r="3.5"/>
                <g id="zoomPlus">
                        <use xlink:href="#rim" fill="#404040">
                                <set attributeName="fill" to="#808080" begin="zoomplus.mouseover" end="zoomplus.mouseout"/>
                        </use>
                        <path d="M-4,0h8M0,-4v8" fill="none" stroke="white" stroke-width="1.5" pointer-events="none"/>
                </g>
                <g id="zoomMin">
                        <use xlink:href="#rim" fill="#404040">
                                <set attributeName="fill" to="#808080" begin="zoomminus.mouseover" end="zoomminus.mouseout"/>
                        </use>
                        <path d="M-4,0h8" fill="none" stroke="white" stroke-width="1.5" pointer-events="none"/>
                </g>
                <g id="dirArrow">
                        <path fill="none" stroke="white" stroke-width="1.5" d="M0,-3.0v7 M-2.5,-0.5L0,-3.0L2.5,-0.5"/>
                </g>
               <g id="resetDef">
                       <use xlink:href="#rim2" fill="#404040">
                               <set attributeName="fill" to="#808080" begin="reset.mouseover" end="reset.mouseout"/>
                       </use>
               </g>
        </defs>

<script type="text/javascript">
var viewWidth = 713;
var viewHeight = 471;
var sectionId = 'dynsection-1';
</script>
<script xlink:href="svgpan.js"/>
<svg id="graph" class="graph">
<g id="viewport">
<title>vrna_unstructured_domain_s</title>
<!-- Node1 -->
<g id="node1" class="node">
<title>Node1</title>
<g id="a_node1"><a xlink:title="Data structure to store all functionality for ligand binding.">
<polygon fill="#999999" stroke="#666666" points="355,-426 213,-426 213,-407 355,-407 355,-426"/>
<text text-anchor="middle" x="284" y="-414" font-family="Helvetica,sans-Serif" font-size="10.00">vrna_unstructured_domain_s</text>
</a>
</g>
</g>
<!-- Node2 -->
<g id="node2" class="node">
<title>Node2</title>
<g id="a_node2"><a xlink:href="group__fold__compound.html#structvrna__fc__s" target="_top" xlink:title="The most basic data structure required by many functions throughout the RNAlib.">
<polygon fill="white" stroke="#666666" points="517,-226 458,-226 458,-207 517,-207 517,-226"/>
<text text-anchor="middle" x="487.5" y="-214" font-family="Helvetica,sans-Serif" font-size="10.00">vrna_fc_s</text>
</a>
</g>
</g>
<!-- Node1&#45;&gt;Node2 -->
<g id="edge13" class="edge">
<title>Node1&#45;&gt;Node2</title>
<path fill="none" stroke="#9a32cd" stroke-dasharray="5,2" d="M312.73,-431.19C346.61,-446.88 403.87,-465.8 440,-436.5 473.43,-409.4 483.77,-265.77 485.99,-226.45"/>
<polygon fill="#9a32cd" stroke="#9a32cd" points="314.5,-428.16 303.97,-426.94 311.44,-434.45 314.5,-428.16"/>
<text text-anchor="middle" x="406.5" y="-454.5" font-family="Helvetica,sans-Serif" font-size="10.00"> domains_up</text>
</g>
<!-- Node2&#45;&gt;Node1 -->
<g id="edge1" class="edge">
<title>Node2&#45;&gt;Node1</title>
<path fill="none" stroke="#9a32cd" stroke-dasharray="5,2" d="M484.67,-237.3C481.05,-265.93 470.48,-317.33 440,-347.5 417.62,-369.65 401.92,-358.06 373,-370.5 347.66,-381.4 319.62,-396.64 302.15,-406.54"/>
<polygon fill="#9a32cd" stroke="#9a32cd" points="488.1,-238.05 485.69,-227.74 481.14,-237.31 488.1,-238.05"/>
<text text-anchor="middle" x="406.5" y="-428.5" font-family="Helvetica,sans-Serif" font-size="10.00"> energy_cb</text>
<text text-anchor="middle" x="406.5" y="-417.5" font-family="Helvetica,sans-Serif" font-size="10.00">exp_energy_cb</text>
<text text-anchor="middle" x="406.5" y="-406.5" font-family="Helvetica,sans-Serif" font-size="10.00">exp_prod_cb</text>
<text text-anchor="middle" x="406.5" y="-395.5" font-family="Helvetica,sans-Serif" font-size="10.00">probs_add</text>
<text text-anchor="middle" x="406.5" y="-384.5" font-family="Helvetica,sans-Serif" font-size="10.00">probs_get</text>
<text text-anchor="middle" x="406.5" y="-373.5" font-family="Helvetica,sans-Serif" font-size="10.00">prod_cb</text>
</g>
<!-- Node12 -->
<g id="node12" class="node">
<title>Node12</title>
<g id="a_node12"><a xlink:href="group__grammar.html#structvrna__gr__aux__s" target="_top" xlink:title=" ">
<polygon fill="white" stroke="#bfbfbf" points="705,-226 625,-226 625,-207 705,-207 705,-226"/>
<text text-anchor="middle" x="665" y="-214" font-family="Helvetica,sans-Serif" font-size="10.00">vrna_gr_aux_s</text>
</a>
</g>
</g>
<!-- Node2&#45;&gt;Node12 -->
<g id="edge15" class="edge">
<title>Node2&#45;&gt;Node12</title>
<path fill="none" stroke="#9a32cd" stroke-dasharray="5,2" d="M528.79,-216.5C557.61,-216.5 596.21,-216.5 624.79,-216.5"/>
<polygon fill="#9a32cd" stroke="#9a32cd" points="528.99,-213 518.99,-216.5 528.99,-220 528.99,-213"/>
<text text-anchor="middle" x="571" y="-329.5" font-family="Helvetica,sans-Serif" font-size="10.00"> cb_aux</text>
<text text-anchor="middle" x="571" y="-318.5" font-family="Helvetica,sans-Serif" font-size="10.00">cb_aux_c</text>
<text text-anchor="middle" x="571" y="-307.5" font-family="Helvetica,sans-Serif" font-size="10.00">cb_aux_exp</text>
<text text-anchor="middle" x="571" y="-296.5" font-family="Helvetica,sans-Serif" font-size="10.00">cb_aux_exp_c</text>
<text text-anchor="middle" x="571" y="-285.5" font-family="Helvetica,sans-Serif" font-size="10.00">cb_aux_exp_f</text>
<text text-anchor="middle" x="571" y="-274.5" font-family="Helvetica,sans-Serif" font-size="10.00">cb_aux_exp_m</text>
<text text-anchor="middle" x="571" y="-263.5" font-family="Helvetica,sans-Serif" font-size="10.00">cb_aux_exp_m1</text>
<text text-anchor="middle" x="571" y="-252.5" font-family="Helvetica,sans-Serif" font-size="10.00">cb_aux_f</text>
<text text-anchor="middle" x="571" y="-241.5" font-family="Helvetica,sans-Serif" font-size="10.00">cb_aux_m</text>
<text text-anchor="middle" x="571" y="-230.5" font-family="Helvetica,sans-Serif" font-size="10.00">cb_aux_m1</text>
<text text-anchor="middle" x="571" y="-219.5" font-family="Helvetica,sans-Serif" font-size="10.00">...</text>
</g>
<!-- Node3 -->
<g id="node3" class="node">
<title>Node3</title>
<g id="a_node3"><a xlink:href="group__alphabet__utils.html#structvrna__sequence__s" target="_top" xlink:title="Data structure representing a nucleotide sequence.">
<polygon fill="white" stroke="#666666" points="103,-333 10,-333 10,-314 103,-314 103,-333"/>
<text text-anchor="middle" x="56.5" y="-321" font-family="Helvetica,sans-Serif" font-size="10.00">vrna_sequence_s</text>
</a>
</g>
</g>
<!-- Node3&#45;&gt;Node2 -->
<g id="edge2" class="edge">
<title>Node3&#45;&gt;Node2</title>
<path fill="none" stroke="#9a32cd" stroke-dasharray="5,2" d="M113.61,-335.54C193.66,-349.38 341.78,-362.27 440,-294.5 464.53,-277.58 478.18,-243.13 483.65,-226.25"/>
<polygon fill="#9a32cd" stroke="#9a32cd" points="114.26,-332.1 103.8,-333.77 113.02,-338.99 114.26,-332.1"/>
<text text-anchor="middle" x="284" y="-349.5" font-family="Helvetica,sans-Serif" font-size="10.00"> nucleotides</text>
</g>
<!-- Node4 -->
<g id="node4" class="node">
<title>Node4</title>
<g id="a_node4"><a xlink:href="group__alphabet__utils.html#structvrna__alignment__s" target="_top" xlink:title=" ">
<polygon fill="white" stroke="#bfbfbf" points="330.5,-300 237.5,-300 237.5,-281 330.5,-281 330.5,-300"/>
<text text-anchor="middle" x="284" y="-288" font-family="Helvetica,sans-Serif" font-size="10.00">vrna_alignment_s</text>
</a>
</g>
</g>
<!-- Node3&#45;&gt;Node4 -->
<g id="edge4" class="edge">
<title>Node3&#45;&gt;Node4</title>
<path fill="none" stroke="#9a32cd" stroke-dasharray="5,2" d="M114.63,-314.03C120.16,-313.16 125.69,-312.3 131,-311.5 166.56,-306.14 206.89,-300.59 237.06,-296.55"/>
<polygon fill="#9a32cd" stroke="#9a32cd" points="114.16,-310.56 104.84,-315.6 115.27,-317.47 114.16,-310.56"/>
<text text-anchor="middle" x="163" y="-314.5" font-family="Helvetica,sans-Serif" font-size="10.00"> sequences</text>
</g>
<!-- Node4&#45;&gt;Node2 -->
<g id="edge3" class="edge">
<title>Node4&#45;&gt;Node2</title>
<path fill="none" stroke="#9a32cd" stroke-dasharray="5,2" d="M342.05,-285.43C372.39,-281.02 409.6,-272.8 440,-257.5 455.38,-249.76 469.7,-235.68 478.28,-226.21"/>
<polygon fill="#9a32cd" stroke="#9a32cd" points="341.73,-281.94 332.28,-286.73 342.66,-288.87 341.73,-281.94"/>
<text text-anchor="middle" x="406.5" y="-282.5" font-family="Helvetica,sans-Serif" font-size="10.00"> alignment</text>
</g>
<!-- Node5 -->
<g id="node5" class="node">
<title>Node5</title>
<g id="a_node5"><a xlink:href="group__hard__constraints.html#structvrna__hc__s" target="_top" xlink:title="The hard constraints data structure.">
<polygon fill="white" stroke="#666666" points="315,-263 253,-263 253,-244 315,-244 315,-263"/>
<text text-anchor="middle" x="284" y="-251" font-family="Helvetica,sans-Serif" font-size="10.00">vrna_hc_s</text>
</a>
</g>
</g>
<!-- Node5&#45;&gt;Node2 -->
<g id="edge5" class="edge">
<title>Node5&#45;&gt;Node2</title>
<path fill="none" stroke="#9a32cd" stroke-dasharray="5,2" d="M326.67,-249.54C358.07,-246.09 402.07,-240.24 440,-231.5 445.95,-230.13 452.23,-228.34 458.19,-226.48"/>
<polygon fill="#9a32cd" stroke="#9a32cd" points="326.36,-246.05 316.79,-250.59 327.1,-253.02 326.36,-246.05"/>
<text text-anchor="middle" x="406.5" y="-245.5" font-family="Helvetica,sans-Serif" font-size="10.00"> hc</text>
</g>
<!-- Node6 -->
<g id="node6" class="node">
<title>Node6</title>
<g id="a_node6"><a xlink:href="group__dp__matrices.html#structvrna__mx__mfe__s" target="_top" xlink:title="Minimum Free Energy (MFE) Dynamic Programming (DP) matrices data structure required within the vrna_f...">
<polygon fill="white" stroke="#666666" points="327,-226 241,-226 241,-207 327,-207 327,-226"/>
<text text-anchor="middle" x="284" y="-214" font-family="Helvetica,sans-Serif" font-size="10.00">vrna_mx_mfe_s</text>
</a>
</g>
</g>
<!-- Node6&#45;&gt;Node2 -->
<g id="edge6" class="edge">
<title>Node6&#45;&gt;Node2</title>
<path fill="none" stroke="#9a32cd" stroke-dasharray="5,2" d="M338.69,-216.5C376.87,-216.5 426.7,-216.5 457.64,-216.5"/>
<polygon fill="#9a32cd" stroke="#9a32cd" points="338.75,-213 328.75,-216.5 338.75,-220 338.75,-213"/>
<text text-anchor="middle" x="406.5" y="-219.5" font-family="Helvetica,sans-Serif" font-size="10.00"> matrices</text>
</g>
<!-- Node7 -->
<g id="node7" class="node">
<title>Node7</title>
<g id="a_node7"><a xlink:href="group__dp__matrices.html#structvrna__mx__pf__s" target="_top" xlink:title="Partition function (PF) Dynamic Programming (DP) matrices data structure required within the vrna_fol...">
<polygon fill="white" stroke="#666666" points="323,-189 245,-189 245,-170 323,-170 323,-189"/>
<text text-anchor="middle" x="284" y="-177" font-family="Helvetica,sans-Serif" font-size="10.00">vrna_mx_pf_s</text>
</a>
</g>
</g>
<!-- Node7&#45;&gt;Node2 -->
<g id="edge7" class="edge">
<title>Node7&#45;&gt;Node2</title>
<path fill="none" stroke="#9a32cd" stroke-dasharray="5,2" d="M334.49,-184.34C365.12,-187.87 405.13,-193.46 440,-201.5 445.95,-202.87 452.23,-204.66 458.19,-206.52"/>
<polygon fill="#9a32cd" stroke="#9a32cd" points="335.07,-180.88 324.74,-183.25 334.29,-187.84 335.07,-180.88"/>
<text text-anchor="middle" x="406.5" y="-204.5" font-family="Helvetica,sans-Serif" font-size="10.00"> exp_matrices</text>
</g>
<!-- Node8 -->
<g id="node8" class="node">
<title>Node8</title>
<g id="a_node8"><a xlink:href="group__energy__parameters.html#structvrna__param__s" target="_top" xlink:title="The datastructure that contains temperature scaled energy parameters.">
<polygon fill="white" stroke="#666666" points="323,-152 245,-152 245,-133 323,-133 323,-152"/>
<text text-anchor="middle" x="284" y="-140" font-family="Helvetica,sans-Serif" font-size="10.00">vrna_param_s</text>
</a>
</g>
</g>
<!-- Node8&#45;&gt;Node2 -->
<g id="edge8" class="edge">
<title>Node8&#45;&gt;Node2</title>
<path fill="none" stroke="#9a32cd" stroke-dasharray="5,2" d="M334.65,-146.03C366.21,-149.86 407.15,-157.85 440,-174.5 455.53,-182.37 469.81,-196.81 478.34,-206.53"/>
<polygon fill="#9a32cd" stroke="#9a32cd" points="335.31,-142.58 324.99,-144.97 334.54,-149.54 335.31,-142.58"/>
<text text-anchor="middle" x="406.5" y="-177.5" font-family="Helvetica,sans-Serif" font-size="10.00"> params</text>
</g>
<!-- Node9 -->
<g id="node9" class="node">
<title>Node9</title>
<g id="a_node9"><a xlink:href="group__model__details.html#structvrna__md__s" target="_top" xlink:title="The data structure that contains the complete model details used throughout the calculations.">
<polygon fill="white" stroke="#666666" points="89,-134 24,-134 24,-115 89,-115 89,-134"/>
<text text-anchor="middle" x="56.5" y="-122" font-family="Helvetica,sans-Serif" font-size="10.00">vrna_md_s</text>
</a>
</g>
</g>
<!-- Node9&#45;&gt;Node8 -->
<g id="edge9" class="edge">
<title>Node9&#45;&gt;Node8</title>
<path fill="none" stroke="#9a32cd" stroke-dasharray="5,2" d="M100.74,-127.95C142.34,-131.27 204.63,-136.24 244.54,-139.43"/>
<polygon fill="#9a32cd" stroke="#9a32cd" points="101.09,-124.47 90.84,-127.16 100.53,-131.45 101.09,-124.47"/>
<text text-anchor="middle" x="163" y="-137.5" font-family="Helvetica,sans-Serif" font-size="10.00"> model_details</text>
</g>
<!-- Node10 -->
<g id="node10" class="node">
<title>Node10</title>
<g id="a_node10"><a xlink:href="group__energy__parameters.html#structvrna__exp__param__s" target="_top" xlink:title="The data structure that contains temperature scaled Boltzmann weights of the energy parameters.">
<polygon fill="white" stroke="#666666" points="333.5,-115 234.5,-115 234.5,-96 333.5,-96 333.5,-115"/>
<text text-anchor="middle" x="284" y="-103" font-family="Helvetica,sans-Serif" font-size="10.00">vrna_exp_param_s</text>
</a>
</g>
</g>
<!-- Node9&#45;&gt;Node10 -->
<g id="edge11" class="edge">
<title>Node9&#45;&gt;Node10</title>
<path fill="none" stroke="#9a32cd" stroke-dasharray="5,2" d="M100.63,-118.81C110.59,-117.61 121.16,-116.43 131,-115.5 165.49,-112.26 204.49,-109.71 234.34,-108"/>
<polygon fill="#9a32cd" stroke="#9a32cd" points="100.29,-115.32 90.8,-120.03 101.15,-122.27 100.29,-115.32"/>
<text text-anchor="middle" x="163" y="-118.5" font-family="Helvetica,sans-Serif" font-size="10.00"> model_details</text>
</g>
<!-- Node10&#45;&gt;Node2 -->
<g id="edge10" class="edge">
<title>Node10&#45;&gt;Node2</title>
<path fill="none" stroke="#9a32cd" stroke-dasharray="5,2" d="M344.86,-106.52C375.72,-109.69 412.54,-117.84 440,-137.5 464.46,-155.01 478.15,-189.72 483.64,-206.7"/>
<polygon fill="#9a32cd" stroke="#9a32cd" points="345.55,-103.06 335.29,-105.69 344.95,-110.04 345.55,-103.06"/>
<text text-anchor="middle" x="406.5" y="-140.5" font-family="Helvetica,sans-Serif" font-size="10.00"> exp_params</text>
</g>
<!-- Node11 -->
<g id="node11" class="node">
<title>Node11</title>
<g id="a_node11"><a xlink:href="structvrna__structured__domains__s.html" target="_top" xlink:title=" ">
<polygon fill="white" stroke="#bfbfbf" points="352.5,-78 215.5,-78 215.5,-59 352.5,-59 352.5,-78"/>
<text text-anchor="middle" x="284" y="-66" font-family="Helvetica,sans-Serif" font-size="10.00">vrna_structured_domains_s</text>
</a>
</g>
</g>
<!-- Node11&#45;&gt;Node2 -->
<g id="edge12" class="edge">
<title>Node11&#45;&gt;Node2</title>
<path fill="none" stroke="#9a32cd" stroke-dasharray="5,2" d="M364.22,-67.06C390.78,-70.28 418.95,-78.19 440,-95.5 475.29,-124.52 483.85,-183.6 485.88,-206.82"/>
<polygon fill="#9a32cd" stroke="#9a32cd" points="364.76,-63.59 354.47,-66.1 364.08,-70.56 364.76,-63.59"/>
<text text-anchor="middle" x="406.5" y="-98.5" font-family="Helvetica,sans-Serif" font-size="10.00"> domains_struc</text>
</g>
<!-- Node12&#45;&gt;Node2 -->
<g id="edge14" class="edge">
<title>Node12&#45;&gt;Node2</title>
<path fill="none" stroke="#9a32cd" stroke-dasharray="5,2" d="M623.45,-203.66C617.97,-202.36 612.38,-201.24 607,-200.5 575.3,-196.14 566.56,-195.22 535,-200.5 527.42,-201.77 519.42,-204.12 512.24,-206.64"/>
<polygon fill="#9a32cd" stroke="#9a32cd" points="622.42,-207.01 632.98,-206.17 624.2,-200.24 622.42,-207.01"/>
<text text-anchor="middle" x="571" y="-203.5" font-family="Helvetica,sans-Serif" font-size="10.00"> aux_grammar</text>
</g>
<!-- Node13 -->
<g id="node13" class="node">
<title>Node13</title>
<g id="a_node13"><a xlink:href="group__soft__constraints.html#structvrna__sc__s" target="_top" xlink:title="The soft constraints data structure.">
<polygon fill="white" stroke="#666666" points="315,-37 253,-37 253,-18 315,-18 315,-37"/>
<text text-anchor="middle" x="284" y="-25" font-family="Helvetica,sans-Serif" font-size="10.00">vrna_sc_s</text>
</a>
</g>
</g>
<!-- Node13&#45;&gt;Node2 -->
<g id="edge16" class="edge">
<title>Node13&#45;&gt;Node2</title>
<path fill="none" stroke="#9a32cd" stroke-dasharray="5,2" d="M326.47,-19.64C360.85,-15.63 408.96,-16.19 440,-42.5 465.76,-64.33 481.15,-173.2 485.34,-206.68"/>
<polygon fill="#9a32cd" stroke="#9a32cd" points="326.32,-16.13 316.88,-20.94 327.26,-23.06 326.32,-16.13"/>
<text text-anchor="middle" x="406.5" y="-56.5" font-family="Helvetica,sans-Serif" font-size="10.00"> sc</text>
<text text-anchor="middle" x="406.5" y="-45.5" font-family="Helvetica,sans-Serif" font-size="10.00">scs</text>
</g>
<!-- Node14 -->
<g id="node14" class="node">
<title>Node14</title>
<g id="a_node14"><a xlink:href="structvrna__sc__bp__storage__t.html" target="_top" xlink:title="A base pair constraint.">
<polygon fill="white" stroke="#666666" points="113,-56 0,-56 0,-37 113,-37 113,-56"/>
<text text-anchor="middle" x="56.5" y="-44" font-family="Helvetica,sans-Serif" font-size="10.00">vrna_sc_bp_storage_t</text>
</a>
</g>
</g>
<!-- Node14&#45;&gt;Node13 -->
<g id="edge17" class="edge">
<title>Node14&#45;&gt;Node13</title>
<path fill="none" stroke="#9a32cd" stroke-dasharray="5,2" d="M124.66,-40.84C167.21,-37.26 220.18,-32.79 252.78,-30.05"/>
<polygon fill="#9a32cd" stroke="#9a32cd" points="124.42,-37.35 114.75,-41.68 125.01,-44.32 124.42,-37.35"/>
<text text-anchor="middle" x="163" y="-43.5" font-family="Helvetica,sans-Serif" font-size="10.00"> bp_storage</text>
</g>
<!-- Node15 -->
<g id="node15" class="node">
<title>Node15</title>
<g id="a_node15"><a xlink:href="group__data__structures.html#structvrna__basepair__s" target="_top" xlink:title="Base pair data structure used in subopt.c.">
<polygon fill="white" stroke="#666666" points="100.5,-19 12.5,-19 12.5,0 100.5,0 100.5,-19"/>
<text text-anchor="middle" x="56.5" y="-7" font-family="Helvetica,sans-Serif" font-size="10.00">vrna_basepair_s</text>
</a>
</g>
</g>
<!-- Node15&#45;&gt;Node13 -->
<g id="edge18" class="edge">
<title>Node15&#45;&gt;Node13</title>
<path fill="none" stroke="#9a32cd" stroke-dasharray="5,2" d="M112.15,-9.48C137.41,-9.88 167.78,-10.95 195,-13.5 214.25,-15.3 235.69,-18.68 252.58,-21.67"/>
<polygon fill="#9a32cd" stroke="#9a32cd" points="112.49,-5.98 102.45,-9.36 112.41,-12.98 112.49,-5.98"/>
<text text-anchor="middle" x="163" y="-16.5" font-family="Helvetica,sans-Serif" font-size="10.00"> bt</text>
</g>
</g>
</svg>
        <g id="navigator" transform="translate(0 0)" fill="#404254">
                <rect fill="#f2f5e9" fill-opacity="0.5" stroke="#606060" stroke-width=".5" x="0" y="0" width="60" height="60"/>
                <use id="zoomplus" xlink:href="#zoomPlus" x="17" y="9" onmousedown="handleZoom(evt,'in')"/>
                <use id="zoomminus" xlink:href="#zoomMin" x="42" y="9" onmousedown="handleZoom(evt,'out')"/>
                <use id="reset" xlink:href="#resetDef" x="30" y="36" onmousedown="handleReset()"/>
                <g id="arrowUp" xlink:href="#dirArrow" transform="translate(30 24)" onmousedown="handlePan(0,-1)">
                  <use xlink:href="#rim" fill="#404040">
                        <set attributeName="fill" to="#808080" begin="arrowUp.mouseover" end="arrowUp.mouseout"/>
                  </use>
                  <path fill="none" stroke="white" stroke-width="1.5" d="M0,-3.0v7 M-2.5,-0.5L0,-3.0L2.5,-0.5"/>
                </g>
                <g id="arrowRight" xlink:href="#dirArrow" transform="rotate(90) translate(36 -43)" onmousedown="handlePan(1,0)">
                  <use xlink:href="#rim" fill="#404040">
                        <set attributeName="fill" to="#808080" begin="arrowRight.mouseover" end="arrowRight.mouseout"/>
                  </use>
                  <path fill="none" stroke="white" stroke-width="1.5" d="M0,-3.0v7 M-2.5,-0.5L0,-3.0L2.5,-0.5"/>
                </g>
                <g id="arrowDown" xlink:href="#dirArrow" transform="rotate(180) translate(-30 -48)" onmousedown="handlePan(0,1)">
                  <use xlink:href="#rim" fill="#404040">
                        <set attributeName="fill" to="#808080" begin="arrowDown.mouseover" end="arrowDown.mouseout"/>
                  </use>
                  <path fill="none" stroke="white" stroke-width="1.5" d="M0,-3.0v7 M-2.5,-0.5L0,-3.0L2.5,-0.5"/>
                </g>
                <g id="arrowLeft" xlink:href="#dirArrow" transform="rotate(270) translate(-36 17)" onmousedown="handlePan(-1,0)">
                  <use xlink:href="#rim" fill="#404040">
                        <set attributeName="fill" to="#808080" begin="arrowLeft.mouseover" end="arrowLeft.mouseout"/>
                  </use>
                  <path fill="none" stroke="white" stroke-width="1.5" d="M0,-3.0v7 M-2.5,-0.5L0,-3.0L2.5,-0.5"/>
                </g>
        </g>
        <svg viewBox="0 0 15 15" width="100%" height="30px" preserveAspectRatio="xMaxYMin meet">
         <g id="arrow_out" transform="scale(0.3 0.3)">
          <a xlink:href="structvrna__unstructured__domain__s__coll__graph_org.svg" target="_base">
           <rect id="button" ry="5" rx="5" y="6" x="6" height="38" width="38"
                fill="#f2f5e9" fill-opacity="0.5" stroke="#606060" stroke-width="1.0"/>
           <path id="arrow"
             d="M 11.500037,31.436501 C 11.940474,20.09759 22.043105,11.32322 32.158766,21.979434 L 37.068811,17.246167 C 37.068811,17.246167 37.088388,32 37.088388,32 L 22.160133,31.978069 C 22.160133,31.978069 26.997745,27.140456 26.997745,27.140456 C 18.528582,18.264221 13.291696,25.230495 11.500037,31.436501 z"
             style="fill:#404040;"/>
          </a>
         </g>
        </svg>
</svg>
