<?xml version="1.0" encoding="UTF-8" standalone="no"?>
<!DOCTYPE svg PUBLIC "-//W3C//DTD SVG 1.1//EN"
 "http://www.w3.org/Graphics/SVG/1.1/DTD/svg11.dtd">
<!-- Generated by graphviz version 7.1.0 (0)
 -->
<!-- Title: LIST Pages: 1 -->
<svg width="129pt" height="115pt"
 viewBox="0.00 0.00 129.00 115.00" xmlns="http://www.w3.org/2000/svg" xmlns:xlink="http://www.w3.org/1999/xlink">
<g id="graph0" class="graph" transform="scale(1 1) rotate(0) translate(4 111)">
<title>LIST</title>
<!-- Node1 -->
<g id="node1" class="node">
<title>Node1</title>
<g id="a_node1"><a xlink:title=" ">
<polygon fill="#999999" stroke="#666666" points="59.5,-19 21.5,-19 21.5,0 59.5,0 59.5,-19"/>
<text text-anchor="middle" x="40.5" y="-7" font-family="Helvetica,sans-Serif" font-size="10.00">LIST</text>
</a>
</g>
</g>
<!-- Node2 -->
<g id="node2" class="node">
<title>Node2</title>
<g id="a_node2"><a xlink:href="structLST__BUCKET.html" target="_top" xlink:title=" ">
<polygon fill="white" stroke="#bfbfbf" points="81,-107 0,-107 0,-88 81,-88 81,-107"/>
<text text-anchor="middle" x="40.5" y="-95" font-family="Helvetica,sans-Serif" font-size="10.00">LST_BUCKET</text>
</a>
</g>
</g>
<!-- Node2&#45;&gt;Node1 -->
<g id="edge1" class="edge">
<title>Node2&#45;&gt;Node1</title>
<path fill="none" stroke="#9a32cd" stroke-dasharray="5,2" d="M40.5,-76.37C40.5,-58.37 40.5,-32.83 40.5,-19.46"/>
<polygon fill="#9a32cd" stroke="#9a32cd" points="37,-76.11 40.5,-86.11 44,-76.11 37,-76.11"/>
<text text-anchor="middle" x="53" y="-62" font-family="Helvetica,sans-Serif" font-size="10.00"> head</text>
<text text-anchor="middle" x="53" y="-51" font-family="Helvetica,sans-Serif" font-size="10.00">hz</text>
<text text-anchor="middle" x="53" y="-40" font-family="Helvetica,sans-Serif" font-size="10.00">z</text>
</g>
<!-- Node2&#45;&gt;Node2 -->
<g id="edge2" class="edge">
<title>Node2&#45;&gt;Node2</title>
<path fill="none" stroke="#9a32cd" stroke-dasharray="5,2" d="M92.35,-103.77C96.46,-102.4 99,-100.31 99,-97.5 99,-92.64 91.4,-89.93 81.23,-89.36"/>
<polygon fill="#9a32cd" stroke="#9a32cd" points="92.01,-100.28 82.73,-105.39 93.17,-107.18 92.01,-100.28"/>
<text text-anchor="middle" x="110" y="-95" font-family="Helvetica,sans-Serif" font-size="10.00"> next</text>
</g>
</g>
</svg>
