<?xml version="1.0" encoding="UTF-8" standalone="no"?>
<!DOCTYPE svg PUBLIC "-//W3C//DTD SVG 1.1//EN"
 "http://www.w3.org/Graphics/SVG/1.1/DTD/svg11.dtd">
<!-- Generated by graphviz version 7.1.0 (0)
 -->
<!-- Title: vrna_gr_aux_s Pages: 1 -->
<svg width="770pt" height="524pt"
 viewBox="0.00 0.00 770.00 523.50" xmlns="http://www.w3.org/2000/svg" xmlns:xlink="http://www.w3.org/1999/xlink">
<g id="graph0" class="graph" transform="scale(1 1) rotate(0) translate(4 519.5)">
<title>vrna_gr_aux_s</title>
<!-- Node1 -->
<g id="node1" class="node">
<title>Node1</title>
<g id="a_node1"><a xlink:title=" ">
<polygon fill="#999999" stroke="#666666" points="321.5,-454 241.5,-454 241.5,-435 321.5,-435 321.5,-454"/>
<text text-anchor="middle" x="281.5" y="-442" font-family="Helvetica,sans-Serif" font-size="10.00">vrna_gr_aux_s</text>
</a>
</g>
</g>
<!-- Node2 -->
<g id="node2" class="node">
<title>Node2</title>
<g id="a_node2"><a xlink:href="group__fold__compound.html#structvrna__fc__s" target="_top" xlink:title="The most basic data structure required by many functions throughout the RNAlib.">
<polygon fill="white" stroke="#666666" points="517,-226 458,-226 458,-207 517,-207 517,-226"/>
<text text-anchor="middle" x="487.5" y="-214" font-family="Helvetica,sans-Serif" font-size="10.00">vrna_fc_s</text>
</a>
</g>
</g>
<!-- Node1&#45;&gt;Node2 -->
<g id="edge15" class="edge">
<title>Node1&#45;&gt;Node2</title>
<path fill="none" stroke="#9a32cd" stroke-dasharray="5,2" d="M302.89,-461.25C335.47,-485.91 399.71,-525.55 440,-491.5 481.51,-456.42 485.98,-271.38 486.45,-226.37"/>
<polygon fill="#9a32cd" stroke="#9a32cd" points="305.08,-458.52 295.04,-455.11 300.76,-464.03 305.08,-458.52"/>
<text text-anchor="middle" x="404" y="-507.5" font-family="Helvetica,sans-Serif" font-size="10.00"> aux_grammar</text>
</g>
<!-- Node2&#45;&gt;Node1 -->
<g id="edge1" class="edge">
<title>Node2&#45;&gt;Node1</title>
<path fill="none" stroke="#9a32cd" stroke-dasharray="5,2" d="M484.76,-237.39C481.25,-266.13 470.8,-317.66 440,-347.5 415.87,-370.87 397.3,-354.06 368,-370.5 336.16,-388.37 305.45,-419.34 291.04,-434.93"/>
<polygon fill="#9a32cd" stroke="#9a32cd" points="488.2,-238.09 485.75,-227.79 481.24,-237.37 488.2,-238.09"/>
<text text-anchor="middle" x="404" y="-483.5" font-family="Helvetica,sans-Serif" font-size="10.00"> cb_aux</text>
<text text-anchor="middle" x="404" y="-472.5" font-family="Helvetica,sans-Serif" font-size="10.00">cb_aux_c</text>
<text text-anchor="middle" x="404" y="-461.5" font-family="Helvetica,sans-Serif" font-size="10.00">cb_aux_exp</text>
<text text-anchor="middle" x="404" y="-450.5" font-family="Helvetica,sans-Serif" font-size="10.00">cb_aux_exp_c</text>
<text text-anchor="middle" x="404" y="-439.5" font-family="Helvetica,sans-Serif" font-size="10.00">cb_aux_exp_f</text>
<text text-anchor="middle" x="404" y="-428.5" font-family="Helvetica,sans-Serif" font-size="10.00">cb_aux_exp_m</text>
<text text-anchor="middle" x="404" y="-417.5" font-family="Helvetica,sans-Serif" font-size="10.00">cb_aux_exp_m1</text>
<text text-anchor="middle" x="404" y="-406.5" font-family="Helvetica,sans-Serif" font-size="10.00">cb_aux_f</text>
<text text-anchor="middle" x="404" y="-395.5" font-family="Helvetica,sans-Serif" font-size="10.00">cb_aux_m</text>
<text text-anchor="middle" x="404" y="-384.5" font-family="Helvetica,sans-Serif" font-size="10.00">cb_aux_m1</text>
<text text-anchor="middle" x="404" y="-373.5" font-family="Helvetica,sans-Serif" font-size="10.00">...</text>
</g>
<!-- Node12 -->
<g id="node12" class="node">
<title>Node12</title>
<g id="a_node12"><a xlink:href="group__domains__up.html#structvrna__unstructured__domain__s" target="_top" xlink:title="Data structure to store all functionality for ligand binding.">
<polygon fill="white" stroke="#666666" points="762,-226 620,-226 620,-207 762,-207 762,-226"/>
<text text-anchor="middle" x="691" y="-214" font-family="Helvetica,sans-Serif" font-size="10.00">vrna_unstructured_domain_s</text>
</a>
</g>
</g>
<!-- Node2&#45;&gt;Node12 -->
<g id="edge14" class="edge">
<title>Node2&#45;&gt;Node12</title>
<path fill="none" stroke="#9a32cd" stroke-dasharray="5,2" d="M528.69,-216.5C554.74,-216.5 589.38,-216.5 619.88,-216.5"/>
<polygon fill="#9a32cd" stroke="#9a32cd" points="528.88,-213 518.88,-216.5 528.88,-220 528.88,-213"/>
<text text-anchor="middle" x="568.5" y="-274.5" font-family="Helvetica,sans-Serif" font-size="10.00"> energy_cb</text>
<text text-anchor="middle" x="568.5" y="-263.5" font-family="Helvetica,sans-Serif" font-size="10.00">exp_energy_cb</text>
<text text-anchor="middle" x="568.5" y="-252.5" font-family="Helvetica,sans-Serif" font-size="10.00">exp_prod_cb</text>
<text text-anchor="middle" x="568.5" y="-241.5" font-family="Helvetica,sans-Serif" font-size="10.00">probs_add</text>
<text text-anchor="middle" x="568.5" y="-230.5" font-family="Helvetica,sans-Serif" font-size="10.00">probs_get</text>
<text text-anchor="middle" x="568.5" y="-219.5" font-family="Helvetica,sans-Serif" font-size="10.00">prod_cb</text>
</g>
<!-- Node3 -->
<g id="node3" class="node">
<title>Node3</title>
<g id="a_node3"><a xlink:href="group__alphabet__utils.html#structvrna__sequence__s" target="_top" xlink:title="Data structure representing a nucleotide sequence.">
<polygon fill="white" stroke="#666666" points="103,-333 10,-333 10,-314 103,-314 103,-333"/>
<text text-anchor="middle" x="56.5" y="-321" font-family="Helvetica,sans-Serif" font-size="10.00">vrna_sequence_s</text>
</a>
</g>
</g>
<!-- Node3&#45;&gt;Node2 -->
<g id="edge2" class="edge">
<title>Node3&#45;&gt;Node2</title>
<path fill="none" stroke="#9a32cd" stroke-dasharray="5,2" d="M113.17,-335.5C192.98,-349.41 341.17,-362.62 440,-295.5 464.88,-278.6 478.37,-243.6 483.73,-226.43"/>
<polygon fill="#9a32cd" stroke="#9a32cd" points="113.86,-332.07 103.39,-333.72 112.6,-338.95 113.86,-332.07"/>
<text text-anchor="middle" x="281.5" y="-349.5" font-family="Helvetica,sans-Serif" font-size="10.00"> nucleotides</text>
</g>
<!-- Node4 -->
<g id="node4" class="node">
<title>Node4</title>
<g id="a_node4"><a xlink:href="group__alphabet__utils.html#structvrna__alignment__s" target="_top" xlink:title=" ">
<polygon fill="white" stroke="#bfbfbf" points="328,-300 235,-300 235,-281 328,-281 328,-300"/>
<text text-anchor="middle" x="281.5" y="-288" font-family="Helvetica,sans-Serif" font-size="10.00">vrna_alignment_s</text>
</a>
</g>
</g>
<!-- Node3&#45;&gt;Node4 -->
<g id="edge4" class="edge">
<title>Node3&#45;&gt;Node4</title>
<path fill="none" stroke="#9a32cd" stroke-dasharray="5,2" d="M114.63,-314.04C120.16,-313.17 125.69,-312.31 131,-311.5 165.72,-306.23 205.06,-300.72 234.66,-296.67"/>
<polygon fill="#9a32cd" stroke="#9a32cd" points="114.16,-310.58 104.84,-315.61 115.27,-317.49 114.16,-310.58"/>
<text text-anchor="middle" x="163" y="-314.5" font-family="Helvetica,sans-Serif" font-size="10.00"> sequences</text>
</g>
<!-- Node4&#45;&gt;Node2 -->
<g id="edge3" class="edge">
<title>Node4&#45;&gt;Node2</title>
<path fill="none" stroke="#9a32cd" stroke-dasharray="5,2" d="M339.46,-286.3C370.5,-282.23 408.83,-274.24 440,-258.5 455.54,-250.66 469.82,-236.21 478.34,-226.48"/>
<polygon fill="#9a32cd" stroke="#9a32cd" points="339.4,-282.78 329.88,-287.45 340.23,-289.73 339.4,-282.78"/>
<text text-anchor="middle" x="404" y="-283.5" font-family="Helvetica,sans-Serif" font-size="10.00"> alignment</text>
</g>
<!-- Node5 -->
<g id="node5" class="node">
<title>Node5</title>
<g id="a_node5"><a xlink:href="group__hard__constraints.html#structvrna__hc__s" target="_top" xlink:title="The hard constraints data structure.">
<polygon fill="white" stroke="#666666" points="312.5,-263 250.5,-263 250.5,-244 312.5,-244 312.5,-263"/>
<text text-anchor="middle" x="281.5" y="-251" font-family="Helvetica,sans-Serif" font-size="10.00">vrna_hc_s</text>
</a>
</g>
</g>
<!-- Node5&#45;&gt;Node2 -->
<g id="edge5" class="edge">
<title>Node5&#45;&gt;Node2</title>
<path fill="none" stroke="#9a32cd" stroke-dasharray="5,2" d="M324.12,-249.67C356.08,-246.26 401.17,-240.4 440,-231.5 445.95,-230.13 452.24,-228.35 458.19,-226.49"/>
<polygon fill="#9a32cd" stroke="#9a32cd" points="324.07,-246.16 314.48,-250.67 324.79,-253.12 324.07,-246.16"/>
<text text-anchor="middle" x="404" y="-246.5" font-family="Helvetica,sans-Serif" font-size="10.00"> hc</text>
</g>
<!-- Node6 -->
<g id="node6" class="node">
<title>Node6</title>
<g id="a_node6"><a xlink:href="group__dp__matrices.html#structvrna__mx__mfe__s" target="_top" xlink:title="Minimum Free Energy (MFE) Dynamic Programming (DP) matrices data structure required within the vrna_f...">
<polygon fill="white" stroke="#666666" points="324.5,-226 238.5,-226 238.5,-207 324.5,-207 324.5,-226"/>
<text text-anchor="middle" x="281.5" y="-214" font-family="Helvetica,sans-Serif" font-size="10.00">vrna_mx_mfe_s</text>
</a>
</g>
</g>
<!-- Node6&#45;&gt;Node2 -->
<g id="edge6" class="edge">
<title>Node6&#45;&gt;Node2</title>
<path fill="none" stroke="#9a32cd" stroke-dasharray="5,2" d="M336.17,-216.5C375.11,-216.5 426.27,-216.5 457.75,-216.5"/>
<polygon fill="#9a32cd" stroke="#9a32cd" points="336.28,-213 326.28,-216.5 336.28,-220 336.28,-213"/>
<text text-anchor="middle" x="404" y="-219.5" font-family="Helvetica,sans-Serif" font-size="10.00"> matrices</text>
</g>
<!-- Node7 -->
<g id="node7" class="node">
<title>Node7</title>
<g id="a_node7"><a xlink:href="group__dp__matrices.html#structvrna__mx__pf__s" target="_top" xlink:title="Partition function (PF) Dynamic Programming (DP) matrices data structure required within the vrna_fol...">
<polygon fill="white" stroke="#666666" points="320.5,-189 242.5,-189 242.5,-170 320.5,-170 320.5,-189"/>
<text text-anchor="middle" x="281.5" y="-177" font-family="Helvetica,sans-Serif" font-size="10.00">vrna_mx_pf_s</text>
</a>
</g>
</g>
<!-- Node7&#45;&gt;Node2 -->
<g id="edge7" class="edge">
<title>Node7&#45;&gt;Node2</title>
<path fill="none" stroke="#9a32cd" stroke-dasharray="5,2" d="M331.75,-184.16C363,-187.66 404.17,-193.28 440,-201.5 445.95,-202.87 452.24,-204.65 458.19,-206.51"/>
<polygon fill="#9a32cd" stroke="#9a32cd" points="332.53,-180.72 322.21,-183.13 331.78,-187.68 332.53,-180.72"/>
<text text-anchor="middle" x="404" y="-204.5" font-family="Helvetica,sans-Serif" font-size="10.00"> exp_matrices</text>
</g>
<!-- Node8 -->
<g id="node8" class="node">
<title>Node8</title>
<g id="a_node8"><a xlink:href="group__energy__parameters.html#structvrna__param__s" target="_top" xlink:title="The datastructure that contains temperature scaled energy parameters.">
<polygon fill="white" stroke="#666666" points="320.5,-152 242.5,-152 242.5,-133 320.5,-133 320.5,-152"/>
<text text-anchor="middle" x="281.5" y="-140" font-family="Helvetica,sans-Serif" font-size="10.00">vrna_param_s</text>
</a>
</g>
</g>
<!-- Node8&#45;&gt;Node2 -->
<g id="edge8" class="edge">
<title>Node8&#45;&gt;Node2</title>
<path fill="none" stroke="#9a32cd" stroke-dasharray="5,2" d="M332.37,-145.31C364.54,-148.77 406.48,-156.46 440,-173.5 455.88,-181.57 470.28,-196.65 478.72,-206.63"/>
<polygon fill="#9a32cd" stroke="#9a32cd" points="332.79,-141.83 322.5,-144.36 332.12,-148.8 332.79,-141.83"/>
<text text-anchor="middle" x="404" y="-176.5" font-family="Helvetica,sans-Serif" font-size="10.00"> params</text>
</g>
<!-- Node9 -->
<g id="node9" class="node">
<title>Node9</title>
<g id="a_node9"><a xlink:href="group__model__details.html#structvrna__md__s" target="_top" xlink:title="The data structure that contains the complete model details used throughout the calculations.">
<polygon fill="white" stroke="#666666" points="89,-134 24,-134 24,-115 89,-115 89,-134"/>
<text text-anchor="middle" x="56.5" y="-122" font-family="Helvetica,sans-Serif" font-size="10.00">vrna_md_s</text>
</a>
</g>
</g>
<!-- Node9&#45;&gt;Node8 -->
<g id="edge9" class="edge">
<title>Node9&#45;&gt;Node8</title>
<path fill="none" stroke="#9a32cd" stroke-dasharray="5,2" d="M100.72,-127.99C141.78,-131.3 202.92,-136.24 242.25,-139.41"/>
<polygon fill="#9a32cd" stroke="#9a32cd" points="101.21,-124.52 90.96,-127.2 100.65,-131.49 101.21,-124.52"/>
<text text-anchor="middle" x="163" y="-137.5" font-family="Helvetica,sans-Serif" font-size="10.00"> model_details</text>
</g>
<!-- Node10 -->
<g id="node10" class="node">
<title>Node10</title>
<g id="a_node10"><a xlink:href="group__energy__parameters.html#structvrna__exp__param__s" target="_top" xlink:title="The data structure that contains temperature scaled Boltzmann weights of the energy parameters.">
<polygon fill="white" stroke="#666666" points="331,-115 232,-115 232,-96 331,-96 331,-115"/>
<text text-anchor="middle" x="281.5" y="-103" font-family="Helvetica,sans-Serif" font-size="10.00">vrna_exp_param_s</text>
</a>
</g>
</g>
<!-- Node9&#45;&gt;Node10 -->
<g id="edge11" class="edge">
<title>Node9&#45;&gt;Node10</title>
<path fill="none" stroke="#9a32cd" stroke-dasharray="5,2" d="M100.63,-118.82C110.59,-117.62 121.16,-116.43 131,-115.5 164.54,-112.33 202.4,-109.81 231.63,-108.09"/>
<polygon fill="#9a32cd" stroke="#9a32cd" points="100.29,-115.33 90.8,-120.03 101.15,-122.28 100.29,-115.33"/>
<text text-anchor="middle" x="163" y="-118.5" font-family="Helvetica,sans-Serif" font-size="10.00"> model_details</text>
</g>
<!-- Node10&#45;&gt;Node2 -->
<g id="edge10" class="edge">
<title>Node10&#45;&gt;Node2</title>
<path fill="none" stroke="#9a32cd" stroke-dasharray="5,2" d="M342.67,-105.24C374.18,-107.84 411.93,-115.51 440,-135.5 465.09,-153.37 478.55,-189.33 483.83,-206.69"/>
<polygon fill="#9a32cd" stroke="#9a32cd" points="343.09,-101.76 332.89,-104.6 342.64,-108.75 343.09,-101.76"/>
<text text-anchor="middle" x="404" y="-138.5" font-family="Helvetica,sans-Serif" font-size="10.00"> exp_params</text>
</g>
<!-- Node11 -->
<g id="node11" class="node">
<title>Node11</title>
<g id="a_node11"><a xlink:href="structvrna__structured__domains__s.html" target="_top" xlink:title=" ">
<polygon fill="white" stroke="#bfbfbf" points="350,-78 213,-78 213,-59 350,-59 350,-78"/>
<text text-anchor="middle" x="281.5" y="-66" font-family="Helvetica,sans-Serif" font-size="10.00">vrna_structured_domains_s</text>
</a>
</g>
</g>
<!-- Node11&#45;&gt;Node2 -->
<g id="edge12" class="edge">
<title>Node11&#45;&gt;Node2</title>
<path fill="none" stroke="#9a32cd" stroke-dasharray="5,2" d="M361.53,-65.44C388.93,-68.15 418.21,-75.75 440,-93.5 475.94,-122.76 484.12,-182.96 485.97,-206.63"/>
<polygon fill="#9a32cd" stroke="#9a32cd" points="362.09,-61.97 351.85,-64.7 361.55,-68.95 362.09,-61.97"/>
<text text-anchor="middle" x="404" y="-96.5" font-family="Helvetica,sans-Serif" font-size="10.00"> domains_struc</text>
</g>
<!-- Node12&#45;&gt;Node2 -->
<g id="edge13" class="edge">
<title>Node12&#45;&gt;Node2</title>
<path fill="none" stroke="#9a32cd" stroke-dasharray="5,2" d="M638.83,-204.35C608.52,-198.85 569.42,-194.74 535,-200.5 527.42,-201.77 519.42,-204.12 512.24,-206.64"/>
<polygon fill="#9a32cd" stroke="#9a32cd" points="638.03,-207.75 648.51,-206.21 639.35,-200.88 638.03,-207.75"/>
<text text-anchor="middle" x="568.5" y="-203.5" font-family="Helvetica,sans-Serif" font-size="10.00"> domains_up</text>
</g>
<!-- Node13 -->
<g id="node13" class="node">
<title>Node13</title>
<g id="a_node13"><a xlink:href="group__soft__constraints.html#structvrna__sc__s" target="_top" xlink:title="The soft constraints data structure.">
<polygon fill="white" stroke="#666666" points="312.5,-37 250.5,-37 250.5,-18 312.5,-18 312.5,-37"/>
<text text-anchor="middle" x="281.5" y="-25" font-family="Helvetica,sans-Serif" font-size="10.00">vrna_sc_s</text>
</a>
</g>
</g>
<!-- Node13&#45;&gt;Node2 -->
<g id="edge16" class="edge">
<title>Node13&#45;&gt;Node2</title>
<path fill="none" stroke="#9a32cd" stroke-dasharray="5,2" d="M324.24,-18.51C359.15,-13.57 408.21,-12.99 440,-39.5 466.48,-61.57 481.48,-173.4 485.43,-206.96"/>
<polygon fill="#9a32cd" stroke="#9a32cd" points="323.81,-15.04 314.49,-20.08 324.92,-21.95 323.81,-15.04"/>
<text text-anchor="middle" x="404" y="-53.5" font-family="Helvetica,sans-Serif" font-size="10.00"> sc</text>
<text text-anchor="middle" x="404" y="-42.5" font-family="Helvetica,sans-Serif" font-size="10.00">scs</text>
</g>
<!-- Node14 -->
<g id="node14" class="node">
<title>Node14</title>
<g id="a_node14"><a xlink:href="structvrna__sc__bp__storage__t.html" target="_top" xlink:title="A base pair constraint.">
<polygon fill="white" stroke="#666666" points="113,-56 0,-56 0,-37 113,-37 113,-56"/>
<text text-anchor="middle" x="56.5" y="-44" font-family="Helvetica,sans-Serif" font-size="10.00">vrna_sc_bp_storage_t</text>
</a>
</g>
</g>
<!-- Node14&#45;&gt;Node13 -->
<g id="edge17" class="edge">
<title>Node14&#45;&gt;Node13</title>
<path fill="none" stroke="#9a32cd" stroke-dasharray="5,2" d="M124.7,-40.77C166.48,-37.22 218.16,-32.81 250.23,-30.08"/>
<polygon fill="#9a32cd" stroke="#9a32cd" points="124.66,-37.27 114.99,-41.6 125.25,-44.24 124.66,-37.27"/>
<text text-anchor="middle" x="163" y="-43.5" font-family="Helvetica,sans-Serif" font-size="10.00"> bp_storage</text>
</g>
<!-- Node15 -->
<g id="node15" class="node">
<title>Node15</title>
<g id="a_node15"><a xlink:href="group__data__structures.html#structvrna__basepair__s" target="_top" xlink:title="Base pair data structure used in subopt.c.">
<polygon fill="white" stroke="#666666" points="100.5,-19 12.5,-19 12.5,0 100.5,0 100.5,-19"/>
<text text-anchor="middle" x="56.5" y="-7" font-family="Helvetica,sans-Serif" font-size="10.00">vrna_basepair_s</text>
</a>
</g>
</g>
<!-- Node15&#45;&gt;Node13 -->
<g id="edge18" class="edge">
<title>Node15&#45;&gt;Node13</title>
<path fill="none" stroke="#9a32cd" stroke-dasharray="5,2" d="M112.16,-9.42C137.42,-9.81 167.79,-10.89 195,-13.5 213.42,-15.27 233.87,-18.57 250.16,-21.52"/>
<polygon fill="#9a32cd" stroke="#9a32cd" points="112.5,-5.92 102.46,-9.3 112.41,-12.92 112.5,-5.92"/>
<text text-anchor="middle" x="163" y="-16.5" font-family="Helvetica,sans-Serif" font-size="10.00"> bt</text>
</g>
</g>
</svg>
