<?xml version="1.0" encoding="UTF-8" standalone="no"?>
<!DOCTYPE svg PUBLIC "-//W3C//DTD SVG 1.1//EN"
 "http://www.w3.org/Graphics/SVG/1.1/DTD/svg11.dtd">
<!-- Generated by graphviz version 7.1.0 (0)
 -->
<!-- Title: vrna_dotplot_auxdata_t Pages: 1 -->
<svg width="126pt" height="192pt"
 viewBox="0.00 0.00 126.00 192.00" xmlns="http://www.w3.org/2000/svg" xmlns:xlink="http://www.w3.org/1999/xlink">
<g id="graph0" class="graph" transform="scale(1 1) rotate(0) translate(4 188)">
<title>vrna_dotplot_auxdata_t</title>
<!-- Node1 -->
<g id="node1" class="node">
<title>Node1</title>
<g id="a_node1"><a xlink:title=" ">
<polygon fill="#999999" stroke="#666666" points="118,-19 0,-19 0,0 118,0 118,-19"/>
<text text-anchor="middle" x="59" y="-7" font-family="Helvetica,sans-Serif" font-size="10.00">vrna_dotplot_auxdata_t</text>
</a>
</g>
</g>
<!-- Node2 -->
<g id="node2" class="node">
<title>Node2</title>
<g id="a_node2"><a xlink:href="group__data__structures.html#structvrna__data__linear__s" target="_top" xlink:title=" ">
<polygon fill="white" stroke="#bfbfbf" points="108,-118 10,-118 10,-99 108,-99 108,-118"/>
<text text-anchor="middle" x="59" y="-106" font-family="Helvetica,sans-Serif" font-size="10.00">vrna_data_linear_s</text>
</a>
</g>
</g>
<!-- Node2&#45;&gt;Node1 -->
<g id="edge1" class="edge">
<title>Node2&#45;&gt;Node1</title>
<path fill="none" stroke="#9a32cd" stroke-dasharray="5,2" d="M59,-87.16C59,-66.27 59,-34.72 59,-19.43"/>
<polygon fill="#9a32cd" stroke="#9a32cd" points="55.5,-87.03 59,-97.03 62.5,-87.03 55.5,-87.03"/>
<text text-anchor="middle" x="76" y="-73" font-family="Helvetica,sans-Serif" font-size="10.00"> bottom</text>
<text text-anchor="middle" x="76" y="-62" font-family="Helvetica,sans-Serif" font-size="10.00">left</text>
<text text-anchor="middle" x="76" y="-51" font-family="Helvetica,sans-Serif" font-size="10.00">right</text>
<text text-anchor="middle" x="76" y="-40" font-family="Helvetica,sans-Serif" font-size="10.00">top</text>
</g>
<!-- Node3 -->
<g id="node3" class="node">
<title>Node3</title>
<g id="a_node3"><a xlink:href="group__data__structures.html#structvrna__color__s" target="_top" xlink:title=" ">
<polygon fill="white" stroke="#bfbfbf" points="95,-184 23,-184 23,-165 95,-165 95,-184"/>
<text text-anchor="middle" x="59" y="-172" font-family="Helvetica,sans-Serif" font-size="10.00">vrna_color_s</text>
</a>
</g>
</g>
<!-- Node3&#45;&gt;Node2 -->
<g id="edge2" class="edge">
<title>Node3&#45;&gt;Node2</title>
<path fill="none" stroke="#9a32cd" stroke-dasharray="5,2" d="M59,-153.18C59,-141.44 59,-127.27 59,-118.32"/>
<polygon fill="#9a32cd" stroke="#9a32cd" points="55.5,-153.09 59,-163.09 62.5,-153.09 55.5,-153.09"/>
<text text-anchor="middle" x="71.5" y="-139" font-family="Helvetica,sans-Serif" font-size="10.00"> color</text>
</g>
</g>
</svg>
