<?xml version="1.0" encoding="UTF-8" standalone="no"?>
<!DOCTYPE svg PUBLIC "-//W3C//DTD SVG 1.1//EN"
 "http://www.w3.org/Graphics/SVG/1.1/DTD/svg11.dtd">
<!-- Generated by graphviz version 7.1.0 (0)
 -->
<!-- Title: vrna_sc_s Pages: 1 -->
<svg width="228pt" height="93pt"
 viewBox="0.00 0.00 227.50 93.00" xmlns="http://www.w3.org/2000/svg" xmlns:xlink="http://www.w3.org/1999/xlink">
<g id="graph0" class="graph" transform="scale(1 1) rotate(0) translate(4 89)">
<title>vrna_sc_s</title>
<!-- Node1 -->
<g id="node1" class="node">
<title>Node1</title>
<g id="a_node1"><a xlink:title="The soft constraints data structure.">
<polygon fill="#999999" stroke="#666666" points="146.5,-19 84.5,-19 84.5,0 146.5,0 146.5,-19"/>
<text text-anchor="middle" x="115.5" y="-7" font-family="Helvetica,sans-Serif" font-size="10.00">vrna_sc_s</text>
</a>
</g>
</g>
<!-- Node2 -->
<g id="node2" class="node">
<title>Node2</title>
<g id="a_node2"><a xlink:href="structvrna__sc__bp__storage__t.html" target="_top" xlink:title="A base pair constraint.">
<polygon fill="white" stroke="#666666" points="113,-85 0,-85 0,-66 113,-66 113,-85"/>
<text text-anchor="middle" x="56.5" y="-73" font-family="Helvetica,sans-Serif" font-size="10.00">vrna_sc_bp_storage_t</text>
</a>
</g>
</g>
<!-- Node2&#45;&gt;Node1 -->
<g id="edge1" class="edge">
<title>Node2&#45;&gt;Node1</title>
<path fill="none" stroke="#9a32cd" stroke-dasharray="5,2" d="M72.19,-57.48C83.51,-45.2 98.33,-29.13 107.37,-19.32"/>
<polygon fill="#9a32cd" stroke="#9a32cd" points="69.93,-54.76 65.73,-64.49 75.08,-59.51 69.93,-54.76"/>
<text text-anchor="middle" x="116.5" y="-40" font-family="Helvetica,sans-Serif" font-size="10.00"> bp_storage</text>
</g>
<!-- Node3 -->
<g id="node3" class="node">
<title>Node3</title>
<g id="a_node3"><a xlink:href="group__data__structures.html#structvrna__basepair__s" target="_top" xlink:title="Base pair data structure used in subopt.c.">
<polygon fill="white" stroke="#666666" points="219.5,-85 131.5,-85 131.5,-66 219.5,-66 219.5,-85"/>
<text text-anchor="middle" x="175.5" y="-73" font-family="Helvetica,sans-Serif" font-size="10.00">vrna_basepair_s</text>
</a>
</g>
</g>
<!-- Node3&#45;&gt;Node1 -->
<g id="edge2" class="edge">
<title>Node3&#45;&gt;Node1</title>
<path fill="none" stroke="#9a32cd" stroke-dasharray="5,2" d="M162.79,-56.54C157.96,-50.14 152.24,-43.02 146.5,-37 140.45,-30.64 132.98,-24.23 126.9,-19.3"/>
<polygon fill="#9a32cd" stroke="#9a32cd" points="159.91,-58.52 168.63,-64.53 165.56,-54.39 159.91,-58.52"/>
<text text-anchor="middle" x="161.5" y="-40" font-family="Helvetica,sans-Serif" font-size="10.00"> bt</text>
</g>
</g>
</svg>
