<?xml version="1.0" encoding="UTF-8" standalone="no"?>
<!DOCTYPE svg PUBLIC "-//W3C//DTD SVG 1.1//EN"
 "http://www.w3.org/Graphics/SVG/1.1/DTD/svg11.dtd">
<!-- Generated by graphviz version 7.1.0 (0)
 -->
<!-- Title: TwoDfold_vars Pages: 1 -->
<!--zoomable 375 -->
<svg id="main" version="1.1" xmlns="http://www.w3.org/2000/svg" xmlns:xlink="http://www.w3.org/1999/xlink" xml:space="preserve" onload="init(evt)">
<style type="text/css"><![CDATA[
.edge:hover path { stroke: red; }
.edge:hover polygon { stroke: red; fill: red; }
]]></style>
<script type="text/javascript"><![CDATA[
var edges = document.getElementsByTagName('g');
if (edges && edges.length) {
  for (var i=0;i<edges.length;i++) {
    if (edges[i].id.substr(0,4)=='edge') {
      edges[i].setAttribute('class','edge');
    }
  }
}
]]></script>
        <defs>
                <circle id="rim" cx="0" cy="0" r="7"/>
                <circle id="rim2" cx="0" cy="0" r="3.5"/>
                <g id="zoomPlus">
                        <use xlink:href="#rim" fill="#404040">
                                <set attributeName="fill" to="#808080" begin="zoomplus.mouseover" end="zoomplus.mouseout"/>
                        </use>
                        <path d="M-4,0h8M0,-4v8" fill="none" stroke="white" stroke-width="1.5" pointer-events="none"/>
                </g>
                <g id="zoomMin">
                        <use xlink:href="#rim" fill="#404040">
                                <set attributeName="fill" to="#808080" begin="zoomminus.mouseover" end="zoomminus.mouseout"/>
                        </use>
                        <path d="M-4,0h8" fill="none" stroke="white" stroke-width="1.5" pointer-events="none"/>
                </g>
                <g id="dirArrow">
                        <path fill="none" stroke="white" stroke-width="1.5" d="M0,-3.0v7 M-2.5,-0.5L0,-3.0L2.5,-0.5"/>
                </g>
               <g id="resetDef">
                       <use xlink:href="#rim2" fill="#404040">
                               <set attributeName="fill" to="#808080" begin="reset.mouseover" end="reset.mouseout"/>
                       </use>
               </g>
        </defs>

<script type="text/javascript">
var viewWidth = 770;
var viewHeight = 375;
var sectionId = 'dynsection-1';
</script>
<script xlink:href="svgpan.js"/>
<svg id="graph" class="graph">
<g id="viewport">
<title>TwoDfold_vars</title>
<!-- Node1 -->
<g id="node1" class="node">
<title>Node1</title>
<g id="a_node1"><a xlink:title="Variables compound for 2Dfold MFE folding.">
<polygon fill="#999999" stroke="#666666" points="732,-47 650,-47 650,-28 732,-28 732,-47"/>
<text text-anchor="middle" x="691" y="-35" font-family="Helvetica,sans-Serif" font-size="10.00">TwoDfold_vars</text>
</a>
</g>
</g>
<!-- Node2 -->
<g id="node2" class="node">
<title>Node2</title>
<g id="a_node2"><a xlink:href="group__energy__parameters.html#structvrna__param__s" target="_top" xlink:title="The datastructure that contains temperature scaled energy parameters.">
<polygon fill="white" stroke="#666666" points="320.5,-19 242.5,-19 242.5,0 320.5,0 320.5,-19"/>
<text text-anchor="middle" x="281.5" y="-7" font-family="Helvetica,sans-Serif" font-size="10.00">vrna_param_s</text>
</a>
</g>
</g>
<!-- Node2&#45;&gt;Node1 -->
<g id="edge1" class="edge">
<title>Node2&#45;&gt;Node1</title>
<path fill="none" stroke="#9a32cd" stroke-dasharray="5,2" d="M332.23,-8.14C343.96,-7.87 356.42,-7.64 368,-7.5 397.78,-7.15 405.27,-5.76 435,-7.5 511.32,-11.97 599.82,-23.92 649.94,-31.31"/>
<polygon fill="#9a32cd" stroke="#9a32cd" points="332.23,-4.64 322.32,-8.38 332.4,-11.64 332.23,-4.64"/>
<text text-anchor="middle" x="482.5" y="-17.5" font-family="Helvetica,sans-Serif" font-size="10.00"> P</text>
</g>
<!-- Node4 -->
<g id="node4" class="node">
<title>Node4</title>
<g id="a_node4"><a xlink:href="group__fold__compound.html#structvrna__fc__s" target="_top" xlink:title="The most basic data structure required by many functions throughout the RNAlib.">
<polygon fill="white" stroke="#666666" points="512,-149 453,-149 453,-130 512,-130 512,-149"/>
<text text-anchor="middle" x="482.5" y="-137" font-family="Helvetica,sans-Serif" font-size="10.00">vrna_fc_s</text>
</a>
</g>
</g>
<!-- Node2&#45;&gt;Node4 -->
<g id="edge10" class="edge">
<title>Node2&#45;&gt;Node4</title>
<path fill="none" stroke="#9a32cd" stroke-dasharray="5,2" d="M332.39,-7.34C364.74,-8.47 406.08,-14.94 435,-37.5 465.23,-61.08 476.47,-108.77 480.05,-129.5"/>
<polygon fill="#9a32cd" stroke="#9a32cd" points="332.49,-3.84 322.44,-7.18 332.38,-10.84 332.49,-3.84"/>
<text text-anchor="middle" x="401.5" y="-40.5" font-family="Helvetica,sans-Serif" font-size="10.00"> params</text>
</g>
<!-- Node3 -->
<g id="node3" class="node">
<title>Node3</title>
<g id="a_node3"><a xlink:href="group__model__details.html#structvrna__md__s" target="_top" xlink:title="The data structure that contains the complete model details used throughout the calculations.">
<polygon fill="white" stroke="#666666" points="89,-51 24,-51 24,-32 89,-32 89,-51"/>
<text text-anchor="middle" x="56.5" y="-39" font-family="Helvetica,sans-Serif" font-size="10.00">vrna_md_s</text>
</a>
</g>
</g>
<!-- Node3&#45;&gt;Node2 -->
<g id="edge2" class="edge">
<title>Node3&#45;&gt;Node2</title>
<path fill="none" stroke="#9a32cd" stroke-dasharray="5,2" d="M100.67,-34.97C110.63,-33.49 121.18,-31.92 131,-30.5 168.74,-25.03 211.87,-18.99 242.08,-14.8"/>
<polygon fill="#9a32cd" stroke="#9a32cd" points="100.2,-31.5 90.82,-36.45 101.23,-38.43 100.2,-31.5"/>
<text text-anchor="middle" x="163" y="-33.5" font-family="Helvetica,sans-Serif" font-size="10.00"> model_details</text>
</g>
<!-- Node10 -->
<g id="node10" class="node">
<title>Node10</title>
<g id="a_node10"><a xlink:href="group__energy__parameters.html#structvrna__exp__param__s" target="_top" xlink:title="The data structure that contains temperature scaled Boltzmann weights of the energy parameters.">
<polygon fill="white" stroke="#666666" points="331,-93 232,-93 232,-74 331,-74 331,-93"/>
<text text-anchor="middle" x="281.5" y="-81" font-family="Helvetica,sans-Serif" font-size="10.00">vrna_exp_param_s</text>
</a>
</g>
</g>
<!-- Node3&#45;&gt;Node10 -->
<g id="edge12" class="edge">
<title>Node3&#45;&gt;Node10</title>
<path fill="none" stroke="#9a32cd" stroke-dasharray="5,2" d="M100.53,-49.6C138.1,-56.68 192.6,-66.94 231.77,-74.32"/>
<polygon fill="#9a32cd" stroke="#9a32cd" points="101.41,-46.21 90.94,-47.8 100.12,-53.09 101.41,-46.21"/>
<text text-anchor="middle" x="163" y="-69.5" font-family="Helvetica,sans-Serif" font-size="10.00"> model_details</text>
</g>
<!-- Node4&#45;&gt;Node1 -->
<g id="edge3" class="edge">
<title>Node4&#45;&gt;Node1</title>
<path fill="none" stroke="#9a32cd" stroke-dasharray="5,2" d="M492.7,-119.75C500.57,-105.05 513.26,-85.67 530,-74.5 565.93,-50.52 615.37,-41.97 649.74,-38.98"/>
<polygon fill="#9a32cd" stroke="#9a32cd" points="489.66,-118 488.32,-128.51 495.92,-121.13 489.66,-118"/>
<text text-anchor="middle" x="566" y="-77.5" font-family="Helvetica,sans-Serif" font-size="10.00"> compatibility</text>
</g>
<!-- Node12 -->
<g id="node12" class="node">
<title>Node12</title>
<g id="a_node12"><a xlink:href="group__domains__up.html#structvrna__unstructured__domain__s" target="_top" xlink:title="Data structure to store all functionality for ligand binding.">
<polygon fill="white" stroke="#666666" points="762,-116 620,-116 620,-97 762,-97 762,-116"/>
<text text-anchor="middle" x="691" y="-104" font-family="Helvetica,sans-Serif" font-size="10.00">vrna_unstructured_domain_s</text>
</a>
</g>
</g>
<!-- Node4&#45;&gt;Node12 -->
<g id="edge15" class="edge">
<title>Node4&#45;&gt;Node12</title>
<path fill="none" stroke="#9a32cd" stroke-dasharray="5,2" d="M523.34,-133.13C552.88,-128.41 593.73,-121.89 627.59,-116.47"/>
<polygon fill="#9a32cd" stroke="#9a32cd" points="523.03,-129.64 513.71,-134.67 524.13,-136.55 523.03,-129.64"/>
<text text-anchor="middle" x="566" y="-190.5" font-family="Helvetica,sans-Serif" font-size="10.00"> energy_cb</text>
<text text-anchor="middle" x="566" y="-179.5" font-family="Helvetica,sans-Serif" font-size="10.00">exp_energy_cb</text>
<text text-anchor="middle" x="566" y="-168.5" font-family="Helvetica,sans-Serif" font-size="10.00">exp_prod_cb</text>
<text text-anchor="middle" x="566" y="-157.5" font-family="Helvetica,sans-Serif" font-size="10.00">probs_add</text>
<text text-anchor="middle" x="566" y="-146.5" font-family="Helvetica,sans-Serif" font-size="10.00">probs_get</text>
<text text-anchor="middle" x="566" y="-135.5" font-family="Helvetica,sans-Serif" font-size="10.00">prod_cb</text>
</g>
<!-- Node13 -->
<g id="node13" class="node">
<title>Node13</title>
<g id="a_node13"><a xlink:href="group__grammar.html#structvrna__gr__aux__s" target="_top" xlink:title=" ">
<polygon fill="white" stroke="#bfbfbf" points="731,-302 651,-302 651,-283 731,-283 731,-302"/>
<text text-anchor="middle" x="691" y="-290" font-family="Helvetica,sans-Serif" font-size="10.00">vrna_gr_aux_s</text>
</a>
</g>
</g>
<!-- Node4&#45;&gt;Node13 -->
<g id="edge17" class="edge">
<title>Node4&#45;&gt;Node13</title>
<path fill="none" stroke="#9a32cd" stroke-dasharray="5,2" d="M494.53,-159.4C502.7,-172.37 515.01,-188.66 530,-198.5 557.67,-216.66 572.67,-202.16 602,-217.5 635.08,-234.8 666.55,-266.56 681.28,-282.63"/>
<polygon fill="#9a32cd" stroke="#9a32cd" points="497.54,-157.62 489.43,-150.8 491.52,-161.18 497.54,-157.62"/>
<text text-anchor="middle" x="566" y="-330.5" font-family="Helvetica,sans-Serif" font-size="10.00"> cb_aux</text>
<text text-anchor="middle" x="566" y="-319.5" font-family="Helvetica,sans-Serif" font-size="10.00">cb_aux_c</text>
<text text-anchor="middle" x="566" y="-308.5" font-family="Helvetica,sans-Serif" font-size="10.00">cb_aux_exp</text>
<text text-anchor="middle" x="566" y="-297.5" font-family="Helvetica,sans-Serif" font-size="10.00">cb_aux_exp_c</text>
<text text-anchor="middle" x="566" y="-286.5" font-family="Helvetica,sans-Serif" font-size="10.00">cb_aux_exp_f</text>
<text text-anchor="middle" x="566" y="-275.5" font-family="Helvetica,sans-Serif" font-size="10.00">cb_aux_exp_m</text>
<text text-anchor="middle" x="566" y="-264.5" font-family="Helvetica,sans-Serif" font-size="10.00">cb_aux_exp_m1</text>
<text text-anchor="middle" x="566" y="-253.5" font-family="Helvetica,sans-Serif" font-size="10.00">cb_aux_f</text>
<text text-anchor="middle" x="566" y="-242.5" font-family="Helvetica,sans-Serif" font-size="10.00">cb_aux_m</text>
<text text-anchor="middle" x="566" y="-231.5" font-family="Helvetica,sans-Serif" font-size="10.00">cb_aux_m1</text>
<text text-anchor="middle" x="566" y="-220.5" font-family="Helvetica,sans-Serif" font-size="10.00">...</text>
</g>
<!-- Node5 -->
<g id="node5" class="node">
<title>Node5</title>
<g id="a_node5"><a xlink:href="group__alphabet__utils.html#structvrna__sequence__s" target="_top" xlink:title="Data structure representing a nucleotide sequence.">
<polygon fill="white" stroke="#666666" points="103,-273 10,-273 10,-254 103,-254 103,-273"/>
<text text-anchor="middle" x="56.5" y="-261" font-family="Helvetica,sans-Serif" font-size="10.00">vrna_sequence_s</text>
</a>
</g>
</g>
<!-- Node5&#45;&gt;Node4 -->
<g id="edge4" class="edge">
<title>Node5&#45;&gt;Node4</title>
<path fill="none" stroke="#9a32cd" stroke-dasharray="5,2" d="M114.89,-266.95C207.74,-271.37 385.51,-274.6 435,-238.5 465.22,-216.46 476.47,-169.71 480.04,-149.34"/>
<polygon fill="#9a32cd" stroke="#9a32cd" points="115.13,-263.46 104.97,-266.46 114.78,-270.45 115.13,-263.46"/>
<text text-anchor="middle" x="281.5" y="-273.5" font-family="Helvetica,sans-Serif" font-size="10.00"> nucleotides</text>
</g>
<!-- Node6 -->
<g id="node6" class="node">
<title>Node6</title>
<g id="a_node6"><a xlink:href="group__alphabet__utils.html#structvrna__alignment__s" target="_top" xlink:title=" ">
<polygon fill="white" stroke="#bfbfbf" points="328,-241 235,-241 235,-222 328,-222 328,-241"/>
<text text-anchor="middle" x="281.5" y="-229" font-family="Helvetica,sans-Serif" font-size="10.00">vrna_alignment_s</text>
</a>
</g>
</g>
<!-- Node5&#45;&gt;Node6 -->
<g id="edge6" class="edge">
<title>Node5&#45;&gt;Node6</title>
<path fill="none" stroke="#9a32cd" stroke-dasharray="5,2" d="M114.65,-254.9C120.17,-254.08 125.69,-253.27 131,-252.5 165.76,-247.46 205.09,-241.94 234.68,-237.83"/>
<polygon fill="#9a32cd" stroke="#9a32cd" points="114.24,-251.42 104.86,-256.35 115.27,-258.34 114.24,-251.42"/>
<text text-anchor="middle" x="163" y="-255.5" font-family="Helvetica,sans-Serif" font-size="10.00"> sequences</text>
</g>
<!-- Node6&#45;&gt;Node4 -->
<g id="edge5" class="edge">
<title>Node6&#45;&gt;Node4</title>
<path fill="none" stroke="#9a32cd" stroke-dasharray="5,2" d="M339.5,-228.43C369.76,-224.61 406.48,-216.31 435,-198.5 454.69,-186.2 469.48,-162.48 476.66,-149.17"/>
<polygon fill="#9a32cd" stroke="#9a32cd" points="339.3,-224.93 329.75,-229.52 340.08,-231.89 339.3,-224.93"/>
<text text-anchor="middle" x="401.5" y="-226.5" font-family="Helvetica,sans-Serif" font-size="10.00"> alignment</text>
</g>
<!-- Node7 -->
<g id="node7" class="node">
<title>Node7</title>
<g id="a_node7"><a xlink:href="group__hard__constraints.html#structvrna__hc__s" target="_top" xlink:title="The hard constraints data structure.">
<polygon fill="white" stroke="#666666" points="312.5,-204 250.5,-204 250.5,-185 312.5,-185 312.5,-204"/>
<text text-anchor="middle" x="281.5" y="-192" font-family="Helvetica,sans-Serif" font-size="10.00">vrna_hc_s</text>
</a>
</g>
</g>
<!-- Node7&#45;&gt;Node4 -->
<g id="edge7" class="edge">
<title>Node7&#45;&gt;Node4</title>
<path fill="none" stroke="#9a32cd" stroke-dasharray="5,2" d="M324.1,-190.26C355.32,-186.2 398.73,-178.69 435,-165.5 446.13,-161.45 457.75,-154.95 466.59,-149.46"/>
<polygon fill="#9a32cd" stroke="#9a32cd" points="323.78,-186.77 314.28,-191.46 324.63,-193.72 323.78,-186.77"/>
<text text-anchor="middle" x="401.5" y="-186.5" font-family="Helvetica,sans-Serif" font-size="10.00"> hc</text>
</g>
<!-- Node8 -->
<g id="node8" class="node">
<title>Node8</title>
<g id="a_node8"><a xlink:href="group__dp__matrices.html#structvrna__mx__mfe__s" target="_top" xlink:title="Minimum Free Energy (MFE) Dynamic Programming (DP) matrices data structure required within the vrna_f...">
<polygon fill="white" stroke="#666666" points="324.5,-167 238.5,-167 238.5,-148 324.5,-148 324.5,-167"/>
<text text-anchor="middle" x="281.5" y="-155" font-family="Helvetica,sans-Serif" font-size="10.00">vrna_mx_mfe_s</text>
</a>
</g>
</g>
<!-- Node8&#45;&gt;Node4 -->
<g id="edge8" class="edge">
<title>Node8&#45;&gt;Node4</title>
<path fill="none" stroke="#9a32cd" stroke-dasharray="5,2" d="M335.94,-152.67C373.41,-149.28 422.07,-144.88 452.54,-142.12"/>
<polygon fill="#9a32cd" stroke="#9a32cd" points="335.85,-149.16 326.21,-153.55 336.48,-156.13 335.85,-149.16"/>
<text text-anchor="middle" x="401.5" y="-153.5" font-family="Helvetica,sans-Serif" font-size="10.00"> matrices</text>
</g>
<!-- Node9 -->
<g id="node9" class="node">
<title>Node9</title>
<g id="a_node9"><a xlink:href="group__dp__matrices.html#structvrna__mx__pf__s" target="_top" xlink:title="Partition function (PF) Dynamic Programming (DP) matrices data structure required within the vrna_fol...">
<polygon fill="white" stroke="#666666" points="320.5,-130 242.5,-130 242.5,-111 320.5,-111 320.5,-130"/>
<text text-anchor="middle" x="281.5" y="-118" font-family="Helvetica,sans-Serif" font-size="10.00">vrna_mx_pf_s</text>
</a>
</g>
</g>
<!-- Node9&#45;&gt;Node4 -->
<g id="edge9" class="edge">
<title>Node9&#45;&gt;Node4</title>
<path fill="none" stroke="#9a32cd" stroke-dasharray="5,2" d="M332.29,-121.52C362.18,-122.61 400.9,-124.85 435,-129.5 440.73,-130.28 446.8,-131.38 452.6,-132.57"/>
<polygon fill="#9a32cd" stroke="#9a32cd" points="332.51,-118.02 322.4,-121.19 332.28,-125.02 332.51,-118.02"/>
<text text-anchor="middle" x="401.5" y="-132.5" font-family="Helvetica,sans-Serif" font-size="10.00"> exp_matrices</text>
</g>
<!-- Node10&#45;&gt;Node4 -->
<g id="edge11" class="edge">
<title>Node10&#45;&gt;Node4</title>
<path fill="none" stroke="#9a32cd" stroke-dasharray="5,2" d="M342.42,-87.4C371.19,-90.74 405.69,-96.95 435,-108.5 447.82,-113.55 460.72,-122.54 469.68,-129.54"/>
<polygon fill="#9a32cd" stroke="#9a32cd" points="343.11,-83.95 332.8,-86.37 342.37,-90.91 343.11,-83.95"/>
<text text-anchor="middle" x="401.5" y="-111.5" font-family="Helvetica,sans-Serif" font-size="10.00"> exp_params</text>
</g>
<!-- Node11 -->
<g id="node11" class="node">
<title>Node11</title>
<g id="a_node11"><a xlink:href="structvrna__structured__domains__s.html" target="_top" xlink:title=" ">
<polygon fill="white" stroke="#bfbfbf" points="350,-56 213,-56 213,-37 350,-37 350,-56"/>
<text text-anchor="middle" x="281.5" y="-44" font-family="Helvetica,sans-Serif" font-size="10.00">vrna_structured_domains_s</text>
</a>
</g>
</g>
<!-- Node11&#45;&gt;Node4 -->
<g id="edge13" class="edge">
<title>Node11&#45;&gt;Node4</title>
<path fill="none" stroke="#9a32cd" stroke-dasharray="5,2" d="M361.58,-50.85C386.54,-55.05 413.26,-62.73 435,-76.5 455.67,-89.59 470.26,-115.42 477.1,-129.6"/>
<polygon fill="#9a32cd" stroke="#9a32cd" points="362.17,-47.39 351.76,-49.37 361.13,-54.32 362.17,-47.39"/>
<text text-anchor="middle" x="401.5" y="-79.5" font-family="Helvetica,sans-Serif" font-size="10.00"> domains_struc</text>
</g>
<!-- Node12&#45;&gt;Node4 -->
<g id="edge14" class="edge">
<title>Node12&#45;&gt;Node4</title>
<path fill="none" stroke="#9a32cd" stroke-dasharray="5,2" d="M642.39,-94.35C609.72,-88.33 565.96,-84.91 530,-98.5 513.49,-104.74 499.05,-119.81 490.8,-129.84"/>
<polygon fill="#9a32cd" stroke="#9a32cd" points="641.47,-97.73 651.96,-96.26 642.84,-90.87 641.47,-97.73"/>
<text text-anchor="middle" x="566" y="-101.5" font-family="Helvetica,sans-Serif" font-size="10.00"> domains_up</text>
</g>
<!-- Node13&#45;&gt;Node4 -->
<g id="edge16" class="edge">
<title>Node13&#45;&gt;Node4</title>
<path fill="none" stroke="#9a32cd" stroke-dasharray="5,2" d="M669.98,-309.37C637.38,-334.7 572.26,-376.17 530,-342.5 499.04,-317.83 487.02,-186.81 484.19,-149.45"/>
<polygon fill="#9a32cd" stroke="#9a32cd" points="671.84,-312.37 677.44,-303.38 667.45,-306.91 671.84,-312.37"/>
<text text-anchor="middle" x="566" y="-358.5" font-family="Helvetica,sans-Serif" font-size="10.00"> aux_grammar</text>
</g>
<!-- Node14 -->
<g id="node14" class="node">
<title>Node14</title>
<g id="a_node14"><a xlink:href="group__soft__constraints.html#structvrna__sc__s" target="_top" xlink:title="The soft constraints data structure.">
<polygon fill="white" stroke="#666666" points="312.5,-326 250.5,-326 250.5,-307 312.5,-307 312.5,-326"/>
<text text-anchor="middle" x="281.5" y="-314" font-family="Helvetica,sans-Serif" font-size="10.00">vrna_sc_s</text>
</a>
</g>
</g>
<!-- Node14&#45;&gt;Node4 -->
<g id="edge18" class="edge">
<title>Node14&#45;&gt;Node4</title>
<path fill="none" stroke="#9a32cd" stroke-dasharray="5,2" d="M324.12,-320.83C357.93,-321.98 404.82,-317.87 435,-291.5 478.43,-253.55 481.94,-176.25 481.77,-149.15"/>
<polygon fill="#9a32cd" stroke="#9a32cd" points="324.43,-317.34 314.26,-320.31 324.06,-324.33 324.43,-317.34"/>
<text text-anchor="middle" x="401.5" y="-332.5" font-family="Helvetica,sans-Serif" font-size="10.00"> sc</text>
<text text-anchor="middle" x="401.5" y="-321.5" font-family="Helvetica,sans-Serif" font-size="10.00">scs</text>
</g>
<!-- Node15 -->
<g id="node15" class="node">
<title>Node15</title>
<g id="a_node15"><a xlink:href="structvrna__sc__bp__storage__t.html" target="_top" xlink:title="A base pair constraint.">
<polygon fill="white" stroke="#666666" points="113,-360 0,-360 0,-341 113,-341 113,-360"/>
<text text-anchor="middle" x="56.5" y="-348" font-family="Helvetica,sans-Serif" font-size="10.00">vrna_sc_bp_storage_t</text>
</a>
</g>
</g>
<!-- Node15&#45;&gt;Node14 -->
<g id="edge19" class="edge">
<title>Node15&#45;&gt;Node14</title>
<path fill="none" stroke="#9a32cd" stroke-dasharray="5,2" d="M124.7,-340.25C166.48,-333.88 218.16,-326.01 250.23,-321.12"/>
<polygon fill="#9a32cd" stroke="#9a32cd" points="124.34,-336.77 114.98,-341.74 125.39,-343.69 124.34,-336.77"/>
<text text-anchor="middle" x="163" y="-342.5" font-family="Helvetica,sans-Serif" font-size="10.00"> bp_storage</text>
</g>
<!-- Node16 -->
<g id="node16" class="node">
<title>Node16</title>
<g id="a_node16"><a xlink:href="group__data__structures.html#structvrna__basepair__s" target="_top" xlink:title="Base pair data structure used in subopt.c.">
<polygon fill="white" stroke="#666666" points="100.5,-323 12.5,-323 12.5,-304 100.5,-304 100.5,-323"/>
<text text-anchor="middle" x="56.5" y="-311" font-family="Helvetica,sans-Serif" font-size="10.00">vrna_basepair_s</text>
</a>
</g>
</g>
<!-- Node16&#45;&gt;Node14 -->
<g id="edge20" class="edge">
<title>Node16&#45;&gt;Node14</title>
<path fill="none" stroke="#9a32cd" stroke-dasharray="5,2" d="M112.01,-314.23C155.5,-314.82 214.81,-315.62 250.22,-316.09"/>
<polygon fill="#9a32cd" stroke="#9a32cd" points="112.32,-310.74 102.27,-314.1 112.23,-317.74 112.32,-310.74"/>
<text text-anchor="middle" x="163" y="-318.5" font-family="Helvetica,sans-Serif" font-size="10.00"> bt</text>
</g>
</g>
</svg>
        <g id="navigator" transform="translate(0 0)" fill="#404254">
                <rect fill="#f2f5e9" fill-opacity="0.5" stroke="#606060" stroke-width=".5" x="0" y="0" width="60" height="60"/>
                <use id="zoomplus" xlink:href="#zoomPlus" x="17" y="9" onmousedown="handleZoom(evt,'in')"/>
                <use id="zoomminus" xlink:href="#zoomMin" x="42" y="9" onmousedown="handleZoom(evt,'out')"/>
                <use id="reset" xlink:href="#resetDef" x="30" y="36" onmousedown="handleReset()"/>
                <g id="arrowUp" xlink:href="#dirArrow" transform="translate(30 24)" onmousedown="handlePan(0,-1)">
                  <use xlink:href="#rim" fill="#404040">
                        <set attributeName="fill" to="#808080" begin="arrowUp.mouseover" end="arrowUp.mouseout"/>
                  </use>
                  <path fill="none" stroke="white" stroke-width="1.5" d="M0,-3.0v7 M-2.5,-0.5L0,-3.0L2.5,-0.5"/>
                </g>
                <g id="arrowRight" xlink:href="#dirArrow" transform="rotate(90) translate(36 -43)" onmousedown="handlePan(1,0)">
                  <use xlink:href="#rim" fill="#404040">
                        <set attributeName="fill" to="#808080" begin="arrowRight.mouseover" end="arrowRight.mouseout"/>
                  </use>
                  <path fill="none" stroke="white" stroke-width="1.5" d="M0,-3.0v7 M-2.5,-0.5L0,-3.0L2.5,-0.5"/>
                </g>
                <g id="arrowDown" xlink:href="#dirArrow" transform="rotate(180) translate(-30 -48)" onmousedown="handlePan(0,1)">
                  <use xlink:href="#rim" fill="#404040">
                        <set attributeName="fill" to="#808080" begin="arrowDown.mouseover" end="arrowDown.mouseout"/>
                  </use>
                  <path fill="none" stroke="white" stroke-width="1.5" d="M0,-3.0v7 M-2.5,-0.5L0,-3.0L2.5,-0.5"/>
                </g>
                <g id="arrowLeft" xlink:href="#dirArrow" transform="rotate(270) translate(-36 17)" onmousedown="handlePan(-1,0)">
                  <use xlink:href="#rim" fill="#404040">
                        <set attributeName="fill" to="#808080" begin="arrowLeft.mouseover" end="arrowLeft.mouseout"/>
                  </use>
                  <path fill="none" stroke="white" stroke-width="1.5" d="M0,-3.0v7 M-2.5,-0.5L0,-3.0L2.5,-0.5"/>
                </g>
        </g>
        <svg viewBox="0 0 15 15" width="100%" height="30px" preserveAspectRatio="xMaxYMin meet">
         <g id="arrow_out" transform="scale(0.3 0.3)">
          <a xlink:href="structTwoDfold__vars__coll__graph_org.svg" target="_base">
           <rect id="button" ry="5" rx="5" y="6" x="6" height="38" width="38"
                fill="#f2f5e9" fill-opacity="0.5" stroke="#606060" stroke-width="1.0"/>
           <path id="arrow"
             d="M 11.500037,31.436501 C 11.940474,20.09759 22.043105,11.32322 32.158766,21.979434 L 37.068811,17.246167 C 37.068811,17.246167 37.088388,32 37.088388,32 L 22.160133,31.978069 C 22.160133,31.978069 26.997745,27.140456 26.997745,27.140456 C 18.528582,18.264221 13.291696,25.230495 11.500037,31.436501 z"
             style="fill:#404040;"/>
          </a>
         </g>
        </svg>
</svg>
