<?xml version="1.0" encoding="UTF-8" standalone="no"?>
<!DOCTYPE svg PUBLIC "-//W3C//DTD SVG 1.1//EN"
 "http://www.w3.org/Graphics/SVG/1.1/DTD/svg11.dtd">
<!-- Generated by graphviz version 7.1.0 (0)
 -->
<!-- Title: vrna_fc_s Pages: 1 -->
<!--zoomable 371 -->
<svg id="main" version="1.1" xmlns="http://www.w3.org/2000/svg" xmlns:xlink="http://www.w3.org/1999/xlink" xml:space="preserve" onload="init(evt)">
<style type="text/css"><![CDATA[
.edge:hover path { stroke: red; }
.edge:hover polygon { stroke: red; fill: red; }
]]></style>
<script type="text/javascript"><![CDATA[
var edges = document.getElementsByTagName('g');
if (edges && edges.length) {
  for (var i=0;i<edges.length;i++) {
    if (edges[i].id.substr(0,4)=='edge') {
      edges[i].setAttribute('class','edge');
    }
  }
}
]]></script>
        <defs>
                <circle id="rim" cx="0" cy="0" r="7"/>
                <circle id="rim2" cx="0" cy="0" r="3.5"/>
                <g id="zoomPlus">
                        <use xlink:href="#rim" fill="#404040">
                                <set attributeName="fill" to="#808080" begin="zoomplus.mouseover" end="zoomplus.mouseout"/>
                        </use>
                        <path d="M-4,0h8M0,-4v8" fill="none" stroke="white" stroke-width="1.5" pointer-events="none"/>
                </g>
                <g id="zoomMin">
                        <use xlink:href="#rim" fill="#404040">
                                <set attributeName="fill" to="#808080" begin="zoomminus.mouseover" end="zoomminus.mouseout"/>
                        </use>
                        <path d="M-4,0h8" fill="none" stroke="white" stroke-width="1.5" pointer-events="none"/>
                </g>
                <g id="dirArrow">
                        <path fill="none" stroke="white" stroke-width="1.5" d="M0,-3.0v7 M-2.5,-0.5L0,-3.0L2.5,-0.5"/>
                </g>
               <g id="resetDef">
                       <use xlink:href="#rim2" fill="#404040">
                               <set attributeName="fill" to="#808080" begin="reset.mouseover" end="reset.mouseout"/>
                       </use>
               </g>
        </defs>

<script type="text/javascript">
var viewWidth = 770;
var viewHeight = 371;
var sectionId = 'dynsection-1';
</script>
<script xlink:href="svgpan.js"/>
<svg id="graph" class="graph">
<g id="viewport">
<title>vrna_fc_s</title>
<!-- Node1 -->
<g id="node1" class="node">
<title>Node1</title>
<g id="a_node1"><a xlink:title="The most basic data structure required by many functions throughout the RNAlib.">
<polygon fill="#999999" stroke="#666666" points="512,-189 453,-189 453,-170 512,-170 512,-189"/>
<text text-anchor="middle" x="482.5" y="-177" font-family="Helvetica,sans-Serif" font-size="10.00">vrna_fc_s</text>
</a>
</g>
</g>
<!-- Node11 -->
<g id="node11" class="node">
<title>Node11</title>
<g id="a_node11"><a xlink:href="group__domains__up.html#structvrna__unstructured__domain__s" target="_top" xlink:title="Data structure to store all functionality for ligand binding.">
<polygon fill="white" stroke="#666666" points="762,-278 620,-278 620,-259 762,-259 762,-278"/>
<text text-anchor="middle" x="691" y="-266" font-family="Helvetica,sans-Serif" font-size="10.00">vrna_unstructured_domain_s</text>
</a>
</g>
</g>
<!-- Node1&#45;&gt;Node11 -->
<g id="edge13" class="edge">
<title>Node1&#45;&gt;Node11</title>
<path fill="none" stroke="#9a32cd" stroke-dasharray="5,2" d="M488.64,-200.31C494.8,-220.35 507.27,-249.62 530,-263.5 564.04,-284.28 610.19,-283.34 644.18,-278.49"/>
<polygon fill="#9a32cd" stroke="#9a32cd" points="492.09,-199.66 486.05,-190.96 485.35,-201.53 492.09,-199.66"/>
<text text-anchor="middle" x="566" y="-338.5" font-family="Helvetica,sans-Serif" font-size="10.00"> energy_cb</text>
<text text-anchor="middle" x="566" y="-327.5" font-family="Helvetica,sans-Serif" font-size="10.00">exp_energy_cb</text>
<text text-anchor="middle" x="566" y="-316.5" font-family="Helvetica,sans-Serif" font-size="10.00">exp_prod_cb</text>
<text text-anchor="middle" x="566" y="-305.5" font-family="Helvetica,sans-Serif" font-size="10.00">probs_add</text>
<text text-anchor="middle" x="566" y="-294.5" font-family="Helvetica,sans-Serif" font-size="10.00">probs_get</text>
<text text-anchor="middle" x="566" y="-283.5" font-family="Helvetica,sans-Serif" font-size="10.00">prod_cb</text>
</g>
<!-- Node12 -->
<g id="node12" class="node">
<title>Node12</title>
<g id="a_node12"><a xlink:href="group__grammar.html#structvrna__gr__aux__s" target="_top" xlink:title=" ">
<polygon fill="white" stroke="#bfbfbf" points="731,-100 651,-100 651,-81 731,-81 731,-100"/>
<text text-anchor="middle" x="691" y="-88" font-family="Helvetica,sans-Serif" font-size="10.00">vrna_gr_aux_s</text>
</a>
</g>
</g>
<!-- Node1&#45;&gt;Node12 -->
<g id="edge15" class="edge">
<title>Node1&#45;&gt;Node12</title>
<path fill="none" stroke="#9a32cd" stroke-dasharray="5,2" d="M490.26,-158.98C497.24,-141.33 509.97,-116.82 530,-104.5 549.53,-92.48 610.03,-90.13 650.78,-89.98"/>
<polygon fill="#9a32cd" stroke="#9a32cd" points="487.04,-157.61 486.92,-168.21 493.62,-160 487.04,-157.61"/>
<text text-anchor="middle" x="566" y="-217.5" font-family="Helvetica,sans-Serif" font-size="10.00"> cb_aux</text>
<text text-anchor="middle" x="566" y="-206.5" font-family="Helvetica,sans-Serif" font-size="10.00">cb_aux_c</text>
<text text-anchor="middle" x="566" y="-195.5" font-family="Helvetica,sans-Serif" font-size="10.00">cb_aux_exp</text>
<text text-anchor="middle" x="566" y="-184.5" font-family="Helvetica,sans-Serif" font-size="10.00">cb_aux_exp_c</text>
<text text-anchor="middle" x="566" y="-173.5" font-family="Helvetica,sans-Serif" font-size="10.00">cb_aux_exp_f</text>
<text text-anchor="middle" x="566" y="-162.5" font-family="Helvetica,sans-Serif" font-size="10.00">cb_aux_exp_m</text>
<text text-anchor="middle" x="566" y="-151.5" font-family="Helvetica,sans-Serif" font-size="10.00">cb_aux_exp_m1</text>
<text text-anchor="middle" x="566" y="-140.5" font-family="Helvetica,sans-Serif" font-size="10.00">cb_aux_f</text>
<text text-anchor="middle" x="566" y="-129.5" font-family="Helvetica,sans-Serif" font-size="10.00">cb_aux_m</text>
<text text-anchor="middle" x="566" y="-118.5" font-family="Helvetica,sans-Serif" font-size="10.00">cb_aux_m1</text>
<text text-anchor="middle" x="566" y="-107.5" font-family="Helvetica,sans-Serif" font-size="10.00">...</text>
</g>
<!-- Node2 -->
<g id="node2" class="node">
<title>Node2</title>
<g id="a_node2"><a xlink:href="group__alphabet__utils.html#structvrna__sequence__s" target="_top" xlink:title="Data structure representing a nucleotide sequence.">
<polygon fill="white" stroke="#666666" points="103,-333 10,-333 10,-314 103,-314 103,-333"/>
<text text-anchor="middle" x="56.5" y="-321" font-family="Helvetica,sans-Serif" font-size="10.00">vrna_sequence_s</text>
</a>
</g>
</g>
<!-- Node2&#45;&gt;Node1 -->
<g id="edge1" class="edge">
<title>Node2&#45;&gt;Node1</title>
<path fill="none" stroke="#9a32cd" stroke-dasharray="5,2" d="M105.93,-335.96C184.12,-352.98 339.07,-373.49 435,-298.5 470.3,-270.91 478.84,-212.77 480.88,-189.47"/>
<polygon fill="#9a32cd" stroke="#9a32cd" points="106.97,-332.61 96.44,-333.82 105.43,-339.44 106.97,-332.61"/>
<text text-anchor="middle" x="281.5" y="-354.5" font-family="Helvetica,sans-Serif" font-size="10.00"> nucleotides</text>
</g>
<!-- Node3 -->
<g id="node3" class="node">
<title>Node3</title>
<g id="a_node3"><a xlink:href="group__alphabet__utils.html#structvrna__alignment__s" target="_top" xlink:title=" ">
<polygon fill="white" stroke="#bfbfbf" points="328,-300 235,-300 235,-281 328,-281 328,-300"/>
<text text-anchor="middle" x="281.5" y="-288" font-family="Helvetica,sans-Serif" font-size="10.00">vrna_alignment_s</text>
</a>
</g>
</g>
<!-- Node2&#45;&gt;Node3 -->
<g id="edge3" class="edge">
<title>Node2&#45;&gt;Node3</title>
<path fill="none" stroke="#9a32cd" stroke-dasharray="5,2" d="M114.63,-314.04C120.16,-313.17 125.69,-312.31 131,-311.5 165.72,-306.23 205.06,-300.72 234.66,-296.67"/>
<polygon fill="#9a32cd" stroke="#9a32cd" points="114.16,-310.58 104.84,-315.61 115.27,-317.49 114.16,-310.58"/>
<text text-anchor="middle" x="163" y="-314.5" font-family="Helvetica,sans-Serif" font-size="10.00"> sequences</text>
</g>
<!-- Node3&#45;&gt;Node1 -->
<g id="edge2" class="edge">
<title>Node3&#45;&gt;Node1</title>
<path fill="none" stroke="#9a32cd" stroke-dasharray="5,2" d="M339.81,-288.95C370.48,-285.6 407.5,-277.27 435,-257.5 459.07,-240.2 472.86,-206.24 478.49,-189.43"/>
<polygon fill="#9a32cd" stroke="#9a32cd" points="339.54,-285.46 329.9,-289.86 340.18,-292.43 339.54,-285.46"/>
<text text-anchor="middle" x="401.5" y="-286.5" font-family="Helvetica,sans-Serif" font-size="10.00"> alignment</text>
</g>
<!-- Node4 -->
<g id="node4" class="node">
<title>Node4</title>
<g id="a_node4"><a xlink:href="group__hard__constraints.html#structvrna__hc__s" target="_top" xlink:title="The hard constraints data structure.">
<polygon fill="white" stroke="#666666" points="312.5,-263 250.5,-263 250.5,-244 312.5,-244 312.5,-263"/>
<text text-anchor="middle" x="281.5" y="-251" font-family="Helvetica,sans-Serif" font-size="10.00">vrna_hc_s</text>
</a>
</g>
</g>
<!-- Node4&#45;&gt;Node1 -->
<g id="edge4" class="edge">
<title>Node4&#45;&gt;Node1</title>
<path fill="none" stroke="#9a32cd" stroke-dasharray="5,2" d="M324.11,-250.68C355.93,-247.16 400.11,-239.26 435,-221.5 450.51,-213.61 464.8,-199.17 473.33,-189.46"/>
<polygon fill="#9a32cd" stroke="#9a32cd" points="324.1,-247.17 314.5,-251.64 324.79,-254.13 324.1,-247.17"/>
<text text-anchor="middle" x="401.5" y="-245.5" font-family="Helvetica,sans-Serif" font-size="10.00"> hc</text>
</g>
<!-- Node5 -->
<g id="node5" class="node">
<title>Node5</title>
<g id="a_node5"><a xlink:href="group__dp__matrices.html#structvrna__mx__mfe__s" target="_top" xlink:title="Minimum Free Energy (MFE) Dynamic Programming (DP) matrices data structure required within the vrna_f...">
<polygon fill="white" stroke="#666666" points="324.5,-226 238.5,-226 238.5,-207 324.5,-207 324.5,-226"/>
<text text-anchor="middle" x="281.5" y="-214" font-family="Helvetica,sans-Serif" font-size="10.00">vrna_mx_mfe_s</text>
</a>
</g>
</g>
<!-- Node5&#45;&gt;Node1 -->
<g id="edge5" class="edge">
<title>Node5&#45;&gt;Node1</title>
<path fill="none" stroke="#9a32cd" stroke-dasharray="5,2" d="M336.21,-211C365.61,-207.42 402.56,-202.02 435,-194.5 440.95,-193.12 447.23,-191.33 453.19,-189.47"/>
<polygon fill="#9a32cd" stroke="#9a32cd" points="335.96,-207.5 326.43,-212.15 336.77,-214.45 335.96,-207.5"/>
<text text-anchor="middle" x="401.5" y="-209.5" font-family="Helvetica,sans-Serif" font-size="10.00"> matrices</text>
</g>
<!-- Node6 -->
<g id="node6" class="node">
<title>Node6</title>
<g id="a_node6"><a xlink:href="group__dp__matrices.html#structvrna__mx__pf__s" target="_top" xlink:title="Partition function (PF) Dynamic Programming (DP) matrices data structure required within the vrna_fol...">
<polygon fill="white" stroke="#666666" points="320.5,-189 242.5,-189 242.5,-170 320.5,-170 320.5,-189"/>
<text text-anchor="middle" x="281.5" y="-177" font-family="Helvetica,sans-Serif" font-size="10.00">vrna_mx_pf_s</text>
</a>
</g>
</g>
<!-- Node6&#45;&gt;Node1 -->
<g id="edge6" class="edge">
<title>Node6&#45;&gt;Node1</title>
<path fill="none" stroke="#9a32cd" stroke-dasharray="5,2" d="M332.19,-179.5C370.14,-179.5 421.11,-179.5 452.6,-179.5"/>
<polygon fill="#9a32cd" stroke="#9a32cd" points="332.38,-176 322.38,-179.5 332.38,-183 332.38,-176"/>
<text text-anchor="middle" x="401.5" y="-182.5" font-family="Helvetica,sans-Serif" font-size="10.00"> exp_matrices</text>
</g>
<!-- Node7 -->
<g id="node7" class="node">
<title>Node7</title>
<g id="a_node7"><a xlink:href="group__energy__parameters.html#structvrna__param__s" target="_top" xlink:title="The datastructure that contains temperature scaled energy parameters.">
<polygon fill="white" stroke="#666666" points="320.5,-152 242.5,-152 242.5,-133 320.5,-133 320.5,-152"/>
<text text-anchor="middle" x="281.5" y="-140" font-family="Helvetica,sans-Serif" font-size="10.00">vrna_param_s</text>
</a>
</g>
</g>
<!-- Node7&#45;&gt;Node1 -->
<g id="edge7" class="edge">
<title>Node7&#45;&gt;Node1</title>
<path fill="none" stroke="#9a32cd" stroke-dasharray="5,2" d="M331.8,-147.47C361.85,-151.03 400.92,-156.6 435,-164.5 440.95,-165.88 447.23,-167.67 453.19,-169.53"/>
<polygon fill="#9a32cd" stroke="#9a32cd" points="332.58,-144.04 322.25,-146.38 331.79,-151 332.58,-144.04"/>
<text text-anchor="middle" x="401.5" y="-167.5" font-family="Helvetica,sans-Serif" font-size="10.00"> params</text>
</g>
<!-- Node8 -->
<g id="node8" class="node">
<title>Node8</title>
<g id="a_node8"><a xlink:href="group__model__details.html#structvrna__md__s" target="_top" xlink:title="The data structure that contains the complete model details used throughout the calculations.">
<polygon fill="white" stroke="#666666" points="89,-134 24,-134 24,-115 89,-115 89,-134"/>
<text text-anchor="middle" x="56.5" y="-122" font-family="Helvetica,sans-Serif" font-size="10.00">vrna_md_s</text>
</a>
</g>
</g>
<!-- Node8&#45;&gt;Node7 -->
<g id="edge8" class="edge">
<title>Node8&#45;&gt;Node7</title>
<path fill="none" stroke="#9a32cd" stroke-dasharray="5,2" d="M100.72,-127.99C141.78,-131.3 202.92,-136.24 242.25,-139.41"/>
<polygon fill="#9a32cd" stroke="#9a32cd" points="101.21,-124.52 90.96,-127.2 100.65,-131.49 101.21,-124.52"/>
<text text-anchor="middle" x="163" y="-137.5" font-family="Helvetica,sans-Serif" font-size="10.00"> model_details</text>
</g>
<!-- Node9 -->
<g id="node9" class="node">
<title>Node9</title>
<g id="a_node9"><a xlink:href="group__energy__parameters.html#structvrna__exp__param__s" target="_top" xlink:title="The data structure that contains temperature scaled Boltzmann weights of the energy parameters.">
<polygon fill="white" stroke="#666666" points="331,-115 232,-115 232,-96 331,-96 331,-115"/>
<text text-anchor="middle" x="281.5" y="-103" font-family="Helvetica,sans-Serif" font-size="10.00">vrna_exp_param_s</text>
</a>
</g>
</g>
<!-- Node8&#45;&gt;Node9 -->
<g id="edge10" class="edge">
<title>Node8&#45;&gt;Node9</title>
<path fill="none" stroke="#9a32cd" stroke-dasharray="5,2" d="M100.63,-118.82C110.59,-117.62 121.16,-116.43 131,-115.5 164.54,-112.33 202.4,-109.81 231.63,-108.09"/>
<polygon fill="#9a32cd" stroke="#9a32cd" points="100.29,-115.33 90.8,-120.03 101.15,-122.28 100.29,-115.33"/>
<text text-anchor="middle" x="163" y="-118.5" font-family="Helvetica,sans-Serif" font-size="10.00"> model_details</text>
</g>
<!-- Node9&#45;&gt;Node1 -->
<g id="edge9" class="edge">
<title>Node9&#45;&gt;Node1</title>
<path fill="none" stroke="#9a32cd" stroke-dasharray="5,2" d="M342.71,-110.11C371.83,-114.2 406.55,-121.93 435,-136.5 450.85,-144.62 465.26,-159.68 473.71,-169.65"/>
<polygon fill="#9a32cd" stroke="#9a32cd" points="343.3,-106.66 332.94,-108.86 342.41,-113.6 343.3,-106.66"/>
<text text-anchor="middle" x="401.5" y="-139.5" font-family="Helvetica,sans-Serif" font-size="10.00"> exp_params</text>
</g>
<!-- Node10 -->
<g id="node10" class="node">
<title>Node10</title>
<g id="a_node10"><a xlink:href="structvrna__structured__domains__s.html" target="_top" xlink:title=" ">
<polygon fill="white" stroke="#bfbfbf" points="350,-78 213,-78 213,-59 350,-59 350,-78"/>
<text text-anchor="middle" x="281.5" y="-66" font-family="Helvetica,sans-Serif" font-size="10.00">vrna_structured_domains_s</text>
</a>
</g>
</g>
<!-- Node10&#45;&gt;Node1 -->
<g id="edge11" class="edge">
<title>Node10&#45;&gt;Node1</title>
<path fill="none" stroke="#9a32cd" stroke-dasharray="5,2" d="M361.51,-71.88C386.83,-76.12 413.78,-84.27 435,-99.5 459.67,-117.2 473.26,-152.37 478.68,-169.57"/>
<polygon fill="#9a32cd" stroke="#9a32cd" points="362.3,-68.46 351.9,-70.46 361.28,-75.38 362.3,-68.46"/>
<text text-anchor="middle" x="401.5" y="-102.5" font-family="Helvetica,sans-Serif" font-size="10.00"> domains_struc</text>
</g>
<!-- Node11&#45;&gt;Node1 -->
<g id="edge12" class="edge">
<title>Node11&#45;&gt;Node1</title>
<path fill="none" stroke="#9a32cd" stroke-dasharray="5,2" d="M623.56,-256.3C587.07,-248.82 546.04,-238.9 530,-229.5 512.62,-219.31 497.81,-200.6 489.83,-189.19"/>
<polygon fill="#9a32cd" stroke="#9a32cd" points="622.74,-259.7 633.23,-258.24 624.11,-252.84 622.74,-259.7"/>
<text text-anchor="middle" x="566" y="-253.5" font-family="Helvetica,sans-Serif" font-size="10.00"> domains_up</text>
</g>
<!-- Node12&#45;&gt;Node1 -->
<g id="edge14" class="edge">
<title>Node12&#45;&gt;Node1</title>
<path fill="none" stroke="#9a32cd" stroke-dasharray="5,2" d="M658.44,-76.38C624,-63.31 568.64,-49.35 530,-74.5 496.58,-96.25 487,-148.1 484.4,-169.75"/>
<polygon fill="#9a32cd" stroke="#9a32cd" points="656.84,-79.51 667.43,-79.98 659.45,-73.01 656.84,-79.51"/>
<text text-anchor="middle" x="566" y="-77.5" font-family="Helvetica,sans-Serif" font-size="10.00"> aux_grammar</text>
</g>
<!-- Node13 -->
<g id="node13" class="node">
<title>Node13</title>
<g id="a_node13"><a xlink:href="group__soft__constraints.html#structvrna__sc__s" target="_top" xlink:title="The soft constraints data structure.">
<polygon fill="white" stroke="#666666" points="312.5,-37 250.5,-37 250.5,-18 312.5,-18 312.5,-37"/>
<text text-anchor="middle" x="281.5" y="-25" font-family="Helvetica,sans-Serif" font-size="10.00">vrna_sc_s</text>
</a>
</g>
</g>
<!-- Node13&#45;&gt;Node1 -->
<g id="edge16" class="edge">
<title>Node13&#45;&gt;Node1</title>
<path fill="none" stroke="#9a32cd" stroke-dasharray="5,2" d="M323.98,-21.59C357.52,-19.19 404.08,-21.54 435,-46.5 474.02,-78 480.36,-144.34 481.34,-169.52"/>
<polygon fill="#9a32cd" stroke="#9a32cd" points="323.86,-18.09 314.22,-22.47 324.49,-25.06 323.86,-18.09"/>
<text text-anchor="middle" x="401.5" y="-60.5" font-family="Helvetica,sans-Serif" font-size="10.00"> sc</text>
<text text-anchor="middle" x="401.5" y="-49.5" font-family="Helvetica,sans-Serif" font-size="10.00">scs</text>
</g>
<!-- Node14 -->
<g id="node14" class="node">
<title>Node14</title>
<g id="a_node14"><a xlink:href="structvrna__sc__bp__storage__t.html" target="_top" xlink:title="A base pair constraint.">
<polygon fill="white" stroke="#666666" points="113,-56 0,-56 0,-37 113,-37 113,-56"/>
<text text-anchor="middle" x="56.5" y="-44" font-family="Helvetica,sans-Serif" font-size="10.00">vrna_sc_bp_storage_t</text>
</a>
</g>
</g>
<!-- Node14&#45;&gt;Node13 -->
<g id="edge17" class="edge">
<title>Node14&#45;&gt;Node13</title>
<path fill="none" stroke="#9a32cd" stroke-dasharray="5,2" d="M124.7,-40.77C166.48,-37.22 218.16,-32.81 250.23,-30.08"/>
<polygon fill="#9a32cd" stroke="#9a32cd" points="124.66,-37.27 114.99,-41.6 125.25,-44.24 124.66,-37.27"/>
<text text-anchor="middle" x="163" y="-43.5" font-family="Helvetica,sans-Serif" font-size="10.00"> bp_storage</text>
</g>
<!-- Node15 -->
<g id="node15" class="node">
<title>Node15</title>
<g id="a_node15"><a xlink:href="group__data__structures.html#structvrna__basepair__s" target="_top" xlink:title="Base pair data structure used in subopt.c.">
<polygon fill="white" stroke="#666666" points="100.5,-19 12.5,-19 12.5,0 100.5,0 100.5,-19"/>
<text text-anchor="middle" x="56.5" y="-7" font-family="Helvetica,sans-Serif" font-size="10.00">vrna_basepair_s</text>
</a>
</g>
</g>
<!-- Node15&#45;&gt;Node13 -->
<g id="edge18" class="edge">
<title>Node15&#45;&gt;Node13</title>
<path fill="none" stroke="#9a32cd" stroke-dasharray="5,2" d="M112.16,-9.42C137.42,-9.81 167.79,-10.89 195,-13.5 213.42,-15.27 233.87,-18.57 250.16,-21.52"/>
<polygon fill="#9a32cd" stroke="#9a32cd" points="112.5,-5.92 102.46,-9.3 112.41,-12.92 112.5,-5.92"/>
<text text-anchor="middle" x="163" y="-16.5" font-family="Helvetica,sans-Serif" font-size="10.00"> bt</text>
</g>
</g>
</svg>
        <g id="navigator" transform="translate(0 0)" fill="#404254">
                <rect fill="#f2f5e9" fill-opacity="0.5" stroke="#606060" stroke-width=".5" x="0" y="0" width="60" height="60"/>
                <use id="zoomplus" xlink:href="#zoomPlus" x="17" y="9" onmousedown="handleZoom(evt,'in')"/>
                <use id="zoomminus" xlink:href="#zoomMin" x="42" y="9" onmousedown="handleZoom(evt,'out')"/>
                <use id="reset" xlink:href="#resetDef" x="30" y="36" onmousedown="handleReset()"/>
                <g id="arrowUp" xlink:href="#dirArrow" transform="translate(30 24)" onmousedown="handlePan(0,-1)">
                  <use xlink:href="#rim" fill="#404040">
                        <set attributeName="fill" to="#808080" begin="arrowUp.mouseover" end="arrowUp.mouseout"/>
                  </use>
                  <path fill="none" stroke="white" stroke-width="1.5" d="M0,-3.0v7 M-2.5,-0.5L0,-3.0L2.5,-0.5"/>
                </g>
                <g id="arrowRight" xlink:href="#dirArrow" transform="rotate(90) translate(36 -43)" onmousedown="handlePan(1,0)">
                  <use xlink:href="#rim" fill="#404040">
                        <set attributeName="fill" to="#808080" begin="arrowRight.mouseover" end="arrowRight.mouseout"/>
                  </use>
                  <path fill="none" stroke="white" stroke-width="1.5" d="M0,-3.0v7 M-2.5,-0.5L0,-3.0L2.5,-0.5"/>
                </g>
                <g id="arrowDown" xlink:href="#dirArrow" transform="rotate(180) translate(-30 -48)" onmousedown="handlePan(0,1)">
                  <use xlink:href="#rim" fill="#404040">
                        <set attributeName="fill" to="#808080" begin="arrowDown.mouseover" end="arrowDown.mouseout"/>
                  </use>
                  <path fill="none" stroke="white" stroke-width="1.5" d="M0,-3.0v7 M-2.5,-0.5L0,-3.0L2.5,-0.5"/>
                </g>
                <g id="arrowLeft" xlink:href="#dirArrow" transform="rotate(270) translate(-36 17)" onmousedown="handlePan(-1,0)">
                  <use xlink:href="#rim" fill="#404040">
                        <set attributeName="fill" to="#808080" begin="arrowLeft.mouseover" end="arrowLeft.mouseout"/>
                  </use>
                  <path fill="none" stroke="white" stroke-width="1.5" d="M0,-3.0v7 M-2.5,-0.5L0,-3.0L2.5,-0.5"/>
                </g>
        </g>
        <svg viewBox="0 0 15 15" width="100%" height="30px" preserveAspectRatio="xMaxYMin meet">
         <g id="arrow_out" transform="scale(0.3 0.3)">
          <a xlink:href="structvrna__fc__s__coll__graph_org.svg" target="_base">
           <rect id="button" ry="5" rx="5" y="6" x="6" height="38" width="38"
                fill="#f2f5e9" fill-opacity="0.5" stroke="#606060" stroke-width="1.0"/>
           <path id="arrow"
             d="M 11.500037,31.436501 C 11.940474,20.09759 22.043105,11.32322 32.158766,21.979434 L 37.068811,17.246167 C 37.068811,17.246167 37.088388,32 37.088388,32 L 22.160133,31.978069 C 22.160133,31.978069 26.997745,27.140456 26.997745,27.140456 C 18.528582,18.264221 13.291696,25.230495 11.500037,31.436501 z"
             style="fill:#404040;"/>
          </a>
         </g>
        </svg>
</svg>
