<?xml version="1.0" encoding="UTF-8" standalone="no"?>
<!DOCTYPE svg PUBLIC "-//W3C//DTD SVG 1.1//EN"
 "http://www.w3.org/Graphics/SVG/1.1/DTD/svg11.dtd">
<!-- Generated by graphviz version 7.1.0 (0)
 -->
<!-- Title: ViennaRNA/subopt.h Pages: 1 -->
<svg width="1505pt" height="335pt"
 viewBox="0.00 0.00 1505.00 335.00" xmlns="http://www.w3.org/2000/svg" xmlns:xlink="http://www.w3.org/1999/xlink">
<g id="graph0" class="graph" transform="scale(1 1) rotate(0) translate(4 331)">
<title>ViennaRNA/subopt.h</title>
<!-- Node1 -->
<g id="node1" class="node">
<title>Node1</title>
<g id="a_node1"><a xlink:title="RNAsubopt and density of states declarations.">
<polygon fill="#999999" stroke="#666666" points="1222.5,-327 1113.5,-327 1113.5,-308 1222.5,-308 1222.5,-327"/>
<text text-anchor="middle" x="1168" y="-315" font-family="Helvetica,sans-Serif" font-size="10.00">ViennaRNA/subopt.h</text>
</a>
</g>
</g>
<!-- Node2 -->
<g id="node2" class="node">
<title>Node2</title>
<g id="a_node2"><a xlink:title=" ">
<polygon fill="#e0e0e0" stroke="#999999" points="1497,-19 1451,-19 1451,0 1497,0 1497,-19"/>
<text text-anchor="middle" x="1474" y="-7" font-family="Helvetica,sans-Serif" font-size="10.00">stdio.h</text>
</a>
</g>
</g>
<!-- Node1&#45;&gt;Node2 -->
<g id="edge1" class="edge">
<title>Node1&#45;&gt;Node2</title>
<path fill="none" stroke="#63b8ff" d="M1222.73,-308.17C1315.82,-292.44 1495,-254.74 1495,-197.5 1495,-197.5 1495,-197.5 1495,-135 1495,-97.67 1485.71,-54.9 1479.48,-30.46"/>
<polygon fill="#63b8ff" stroke="#63b8ff" points="1482.9,-29.71 1476.96,-20.94 1476.14,-31.5 1482.9,-29.71"/>
</g>
<!-- Node3 -->
<g id="node3" class="node">
<title>Node3</title>
<g id="a_node3"><a xlink:href="datastructures_2basic_8h.html" target="_top" xlink:title="Various data structures and pre&#45;processor macros.">
<polygon fill="white" stroke="#666666" points="958,-272 824,-272 824,-242 958,-242 958,-272"/>
<text text-anchor="start" x="832" y="-260" font-family="Helvetica,sans-Serif" font-size="10.00">ViennaRNA/datastructures</text>
<text text-anchor="middle" x="891" y="-249" font-family="Helvetica,sans-Serif" font-size="10.00">/basic.h</text>
</a>
</g>
</g>
<!-- Node1&#45;&gt;Node3 -->
<g id="edge2" class="edge">
<title>Node1&#45;&gt;Node3</title>
<path fill="none" stroke="#63b8ff" d="M1125.63,-307.55C1084.27,-298.82 1020.36,-285.32 969.68,-274.62"/>
<polygon fill="#63b8ff" stroke="#63b8ff" points="970.41,-271.19 959.9,-272.55 968.96,-278.04 970.41,-271.19"/>
</g>
<!-- Node6 -->
<g id="node6" class="node">
<title>Node6</title>
<g id="a_node6"><a xlink:href="fold__compound_8h.html" target="_top" xlink:title="The Basic Fold Compound API.">
<polygon fill="white" stroke="#666666" points="816,-206 670,-206 670,-187 816,-187 816,-206"/>
<text text-anchor="middle" x="743" y="-194" font-family="Helvetica,sans-Serif" font-size="10.00">ViennaRNA/fold_compound.h</text>
</a>
</g>
</g>
<!-- Node1&#45;&gt;Node6 -->
<g id="edge44" class="edge">
<title>Node1&#45;&gt;Node6</title>
<path fill="none" stroke="#63b8ff" d="M1113.05,-314.01C1027.25,-309.39 866.03,-297.53 815,-272 789.32,-259.15 767.66,-233.35 755,-215.75"/>
<polygon fill="#63b8ff" stroke="#63b8ff" points="758.04,-213.99 749.48,-207.74 752.28,-217.96 758.04,-213.99"/>
</g>
<!-- Node8 -->
<g id="node8" class="node">
<title>Node8</title>
<g id="a_node8"><a xlink:href="params_2basic_8h.html" target="_top" xlink:title="Functions to deal with sets of energy parameters.">
<polygon fill="white" stroke="#666666" points="1417,-145.5 1279,-145.5 1279,-126.5 1417,-126.5 1417,-145.5"/>
<text text-anchor="middle" x="1348" y="-133.5" font-family="Helvetica,sans-Serif" font-size="10.00">ViennaRNA/params/basic.h</text>
</a>
</g>
</g>
<!-- Node1&#45;&gt;Node8 -->
<g id="edge45" class="edge">
<title>Node1&#45;&gt;Node8</title>
<path fill="none" stroke="#63b8ff" d="M1181.41,-307.62C1207.05,-290.22 1263.96,-249.51 1303,-206 1317.01,-190.39 1329.73,-170.03 1338.05,-155.48"/>
<polygon fill="#63b8ff" stroke="#63b8ff" points="1340.97,-157.42 1342.76,-146.98 1334.85,-154.03 1340.97,-157.42"/>
</g>
<!-- Node4 -->
<g id="node4" class="node">
<title>Node4</title>
<g id="a_node4"><a xlink:href="constants_8h.html" target="_top" xlink:title="Energy parameter constants.">
<polygon fill="white" stroke="#666666" points="1467,-79.5 1309,-79.5 1309,-60.5 1467,-60.5 1467,-79.5"/>
<text text-anchor="middle" x="1388" y="-67.5" font-family="Helvetica,sans-Serif" font-size="10.00">ViennaRNA/params/constants.h</text>
</a>
</g>
</g>
<!-- Node3&#45;&gt;Node4 -->
<g id="edge3" class="edge">
<title>Node3&#45;&gt;Node4</title>
<path fill="none" stroke="#63b8ff" d="M958.2,-254C1040.75,-250.15 1184.45,-238.89 1303,-206 1360.7,-189.99 1393.43,-201.25 1426,-151 1439.39,-130.34 1421.17,-104.24 1405.64,-87.57"/>
<polygon fill="#63b8ff" stroke="#63b8ff" points="1408.53,-85.52 1399.01,-80.88 1403.56,-90.45 1408.53,-85.52"/>
</g>
<!-- Node3&#45;&gt;Node6 -->
<g id="edge5" class="edge">
<title>Node3&#45;&gt;Node6</title>
<path fill="none" stroke="#63b8ff" d="M854.42,-241.54C830.33,-232.02 799.06,-219.66 775.78,-210.46"/>
<polygon fill="#63b8ff" stroke="#63b8ff" points="777.37,-207.32 766.79,-206.9 774.8,-213.83 777.37,-207.32"/>
</g>
<!-- Node7 -->
<g id="node7" class="node">
<title>Node7</title>
<g id="a_node7"><a xlink:href="model_8h.html" target="_top" xlink:title="The model details data structure and its corresponding modifiers.">
<polygon fill="white" stroke="#666666" points="1291,-79.5 1185,-79.5 1185,-60.5 1291,-60.5 1291,-79.5"/>
<text text-anchor="middle" x="1238" y="-67.5" font-family="Helvetica,sans-Serif" font-size="10.00">ViennaRNA/model.h</text>
</a>
</g>
</g>
<!-- Node3&#45;&gt;Node7 -->
<g id="edge35" class="edge">
<title>Node3&#45;&gt;Node7</title>
<path fill="none" stroke="#63b8ff" d="M958.23,-244.49C1047.46,-227.74 1197.76,-193.91 1232,-151 1245.35,-134.27 1244.83,-108.79 1242.29,-91.1"/>
<polygon fill="#63b8ff" stroke="#63b8ff" points="1245.74,-90.54 1240.51,-81.32 1238.86,-91.78 1245.74,-90.54"/>
</g>
<!-- Node3&#45;&gt;Node8 -->
<g id="edge36" class="edge">
<title>Node3&#45;&gt;Node8</title>
<path fill="none" stroke="#63b8ff" d="M958.13,-251.03C1048.45,-243.89 1203.58,-228.98 1256,-206 1283.62,-193.89 1309.32,-169.73 1326.83,-153.47"/>
<polygon fill="#63b8ff" stroke="#63b8ff" points="1329.09,-156.14 1334.09,-146.81 1324.36,-150.98 1329.09,-156.14"/>
</g>
<!-- Node10 -->
<g id="node10" class="node">
<title>Node10</title>
<g id="a_node10"><a xlink:href="dp__matrices_8h.html" target="_top" xlink:title="Functions to deal with standard dynamic programming (DP) matrices.">
<polygon fill="white" stroke="#666666" points="1222.5,-145.5 1089.5,-145.5 1089.5,-126.5 1222.5,-126.5 1222.5,-145.5"/>
<text text-anchor="middle" x="1156" y="-133.5" font-family="Helvetica,sans-Serif" font-size="10.00">ViennaRNA/dp_matrices.h</text>
</a>
</g>
</g>
<!-- Node3&#45;&gt;Node10 -->
<g id="edge37" class="edge">
<title>Node3&#45;&gt;Node10</title>
<path fill="none" stroke="#63b8ff" d="M918.38,-241.65C967.22,-218.4 1068.72,-172.84 1121.95,-150.29"/>
<polygon fill="#63b8ff" stroke="#63b8ff" points="1122.98,-153.66 1130.84,-146.56 1120.27,-147.2 1122.98,-153.66"/>
</g>
<!-- Node11 -->
<g id="node11" class="node">
<title>Node11</title>
<g id="a_node11"><a xlink:href="hard_8h.html" target="_top" xlink:title="Functions and data structures for handling of secondary structure hard constraints.">
<polygon fill="white" stroke="#666666" points="321.5,-151 202.5,-151 202.5,-121 321.5,-121 321.5,-151"/>
<text text-anchor="start" x="210.5" y="-139" font-family="Helvetica,sans-Serif" font-size="10.00">ViennaRNA/constraints</text>
<text text-anchor="middle" x="262" y="-128" font-family="Helvetica,sans-Serif" font-size="10.00">/hard.h</text>
</a>
</g>
</g>
<!-- Node3&#45;&gt;Node11 -->
<g id="edge38" class="edge">
<title>Node3&#45;&gt;Node11</title>
<path fill="none" stroke="#63b8ff" d="M823.69,-243.26C703.98,-220.62 455.21,-173.55 332.95,-150.42"/>
<polygon fill="#63b8ff" stroke="#63b8ff" points="333.84,-147.03 323.36,-148.61 332.54,-153.91 333.84,-147.03"/>
</g>
<!-- Node13 -->
<g id="node13" class="node">
<title>Node13</title>
<g id="a_node13"><a xlink:href="soft_8h.html" target="_top" xlink:title="Functions and data structures for secondary structure soft constraints.">
<polygon fill="white" stroke="#666666" points="938.5,-151 819.5,-151 819.5,-121 938.5,-121 938.5,-151"/>
<text text-anchor="start" x="827.5" y="-139" font-family="Helvetica,sans-Serif" font-size="10.00">ViennaRNA/constraints</text>
<text text-anchor="middle" x="879" y="-128" font-family="Helvetica,sans-Serif" font-size="10.00">/soft.h</text>
</a>
</g>
</g>
<!-- Node3&#45;&gt;Node13 -->
<g id="edge39" class="edge">
<title>Node3&#45;&gt;Node13</title>
<path fill="none" stroke="#63b8ff" d="M885.02,-241.88C880.57,-222.39 876.62,-186.92 875.92,-162.67"/>
<polygon fill="#63b8ff" stroke="#63b8ff" points="879.42,-162.97 875.87,-152.98 872.42,-163 879.42,-162.97"/>
</g>
<!-- Node14 -->
<g id="node14" class="node">
<title>Node14</title>
<g id="a_node14"><a xlink:href="grammar_8h.html" target="_top" xlink:title="Implementations for the RNA folding grammar.">
<polygon fill="white" stroke="#666666" points="801.5,-145.5 684.5,-145.5 684.5,-126.5 801.5,-126.5 801.5,-145.5"/>
<text text-anchor="middle" x="743" y="-133.5" font-family="Helvetica,sans-Serif" font-size="10.00">ViennaRNA/grammar.h</text>
</a>
</g>
</g>
<!-- Node3&#45;&gt;Node14 -->
<g id="edge40" class="edge">
<title>Node3&#45;&gt;Node14</title>
<path fill="none" stroke="#63b8ff" d="M879.3,-241.73C866.79,-226.99 845.92,-203.84 825,-187 808.06,-173.37 787.09,-160.65 770.6,-151.45"/>
<polygon fill="#63b8ff" stroke="#63b8ff" points="772.28,-148.38 761.83,-146.66 768.93,-154.52 772.28,-148.38"/>
</g>
<!-- Node15 -->
<g id="node15" class="node">
<title>Node15</title>
<g id="a_node15"><a xlink:href="structured__domains_8h.html" target="_top" xlink:title="This module provides interfaces that deal with additional structured domains in the folding grammar.">
<polygon fill="white" stroke="#666666" points="1071.5,-151 956.5,-151 956.5,-121 1071.5,-121 1071.5,-151"/>
<text text-anchor="start" x="964.5" y="-139" font-family="Helvetica,sans-Serif" font-size="10.00">ViennaRNA/structured</text>
<text text-anchor="middle" x="1014" y="-128" font-family="Helvetica,sans-Serif" font-size="10.00">_domains.h</text>
</a>
</g>
</g>
<!-- Node3&#45;&gt;Node15 -->
<g id="edge41" class="edge">
<title>Node3&#45;&gt;Node15</title>
<path fill="none" stroke="#63b8ff" d="M905.59,-241.88C926.65,-221.5 965.79,-183.64 990.83,-159.42"/>
<polygon fill="#63b8ff" stroke="#63b8ff" points="993.2,-161.99 997.95,-152.52 988.33,-156.96 993.2,-161.99"/>
</g>
<!-- Node16 -->
<g id="node16" class="node">
<title>Node16</title>
<g id="a_node16"><a xlink:href="unstructured__domains_8h.html" target="_top" xlink:title="Functions to modify unstructured domains, e.g. to incorporate ligands binding to unpaired stretches.">
<polygon fill="white" stroke="#666666" points="184.5,-151 59.5,-151 59.5,-121 184.5,-121 184.5,-151"/>
<text text-anchor="start" x="67.5" y="-139" font-family="Helvetica,sans-Serif" font-size="10.00">ViennaRNA/unstructured</text>
<text text-anchor="middle" x="122" y="-128" font-family="Helvetica,sans-Serif" font-size="10.00">_domains.h</text>
</a>
</g>
</g>
<!-- Node3&#45;&gt;Node16 -->
<g id="edge42" class="edge">
<title>Node3&#45;&gt;Node16</title>
<path fill="none" stroke="#63b8ff" d="M823.62,-247.81C699.63,-231.76 427.23,-194.14 196.01,-153.14"/>
<polygon fill="#63b8ff" stroke="#63b8ff" points="196.63,-149.7 186.17,-151.39 195.41,-156.59 196.63,-149.7"/>
</g>
<!-- Node17 -->
<g id="node17" class="node">
<title>Node17</title>
<g id="a_node17"><a xlink:href="utils_2structures_8h.html" target="_top" xlink:title="Various utility&#45; and helper&#45;functions for secondary structure parsing, converting,...">
<polygon fill="white" stroke="#666666" points="144,-79.5 0,-79.5 0,-60.5 144,-60.5 144,-79.5"/>
<text text-anchor="middle" x="72" y="-67.5" font-family="Helvetica,sans-Serif" font-size="10.00">ViennaRNA/utils/structures.h</text>
</a>
</g>
</g>
<!-- Node3&#45;&gt;Node17 -->
<g id="edge43" class="edge">
<title>Node3&#45;&gt;Node17</title>
<path fill="none" stroke="#63b8ff" d="M823.6,-252.89C631.41,-243.08 91.74,-209.86 41,-151 25.7,-133.25 38.72,-105.76 52.56,-88.08"/>
<polygon fill="#63b8ff" stroke="#63b8ff" points="54.82,-90.81 58.74,-80.97 49.54,-86.22 54.82,-90.81"/>
</g>
<!-- Node5 -->
<g id="node5" class="node">
<title>Node5</title>
<g id="a_node5"><a xlink:title=" ">
<polygon fill="#e0e0e0" stroke="#999999" points="1412,-19 1364,-19 1364,0 1412,0 1412,-19"/>
<text text-anchor="middle" x="1388" y="-7" font-family="Helvetica,sans-Serif" font-size="10.00">limits.h</text>
</a>
</g>
</g>
<!-- Node4&#45;&gt;Node5 -->
<g id="edge4" class="edge">
<title>Node4&#45;&gt;Node5</title>
<path fill="none" stroke="#63b8ff" d="M1388,-60.37C1388,-52.5 1388,-40.6 1388,-30.39"/>
<polygon fill="#63b8ff" stroke="#63b8ff" points="1391.5,-30.68 1388,-20.68 1384.5,-30.68 1391.5,-30.68"/>
</g>
<!-- Node6&#45;&gt;Node7 -->
<g id="edge6" class="edge">
<title>Node6&#45;&gt;Node7</title>
<path fill="none" stroke="#63b8ff" d="M718.54,-186.61C703.02,-179.55 684.19,-168 675,-151 668.66,-139.27 666,-130.84 675,-121 708.1,-84.83 1032.73,-74.66 1173.47,-71.94"/>
<polygon fill="#63b8ff" stroke="#63b8ff" points="1173.44,-75.44 1183.38,-71.76 1173.31,-68.44 1173.44,-75.44"/>
</g>
<!-- Node6&#45;&gt;Node8 -->
<g id="edge7" class="edge">
<title>Node6&#45;&gt;Node8</title>
<path fill="none" stroke="#63b8ff" d="M816.32,-188.97C910.53,-180.87 1078.89,-166.25 1223,-151 1237.31,-149.49 1252.59,-147.74 1267.4,-146"/>
<polygon fill="#63b8ff" stroke="#63b8ff" points="1267.59,-149.5 1277.11,-144.85 1266.77,-142.55 1267.59,-149.5"/>
</g>
<!-- Node9 -->
<g id="node9" class="node">
<title>Node9</title>
<g id="a_node9"><a xlink:href="sequence_8h.html" target="_top" xlink:title="Functions and data structures related to sequence representations ,.">
<polygon fill="white" stroke="#666666" points="500,-145.5 378,-145.5 378,-126.5 500,-126.5 500,-145.5"/>
<text text-anchor="middle" x="439" y="-133.5" font-family="Helvetica,sans-Serif" font-size="10.00">ViennaRNA/sequence.h</text>
</a>
</g>
</g>
<!-- Node6&#45;&gt;Node9 -->
<g id="edge12" class="edge">
<title>Node6&#45;&gt;Node9</title>
<path fill="none" stroke="#63b8ff" d="M688.16,-186.51C638.7,-177.62 564.33,-163.55 500,-151 495.35,-150.09 490.52,-149.14 485.71,-148.19"/>
<polygon fill="#63b8ff" stroke="#63b8ff" points="486.57,-144.79 476.08,-146.25 485.19,-151.65 486.57,-144.79"/>
</g>
<!-- Node6&#45;&gt;Node10 -->
<g id="edge14" class="edge">
<title>Node6&#45;&gt;Node10</title>
<path fill="none" stroke="#63b8ff" d="M813.26,-186.51C879.98,-178.25 982.86,-165.18 1072,-151 1077.89,-150.06 1084.02,-149.02 1090.18,-147.95"/>
<polygon fill="#63b8ff" stroke="#63b8ff" points="1090.53,-151.44 1099.77,-146.24 1089.31,-144.55 1090.53,-151.44"/>
</g>
<!-- Node6&#45;&gt;Node11 -->
<g id="edge17" class="edge">
<title>Node6&#45;&gt;Node11</title>
<path fill="none" stroke="#63b8ff" d="M669.8,-189.81C588.89,-182.77 454.77,-169.61 333.25,-151.89"/>
<polygon fill="#63b8ff" stroke="#63b8ff" points="333.8,-148.44 323.4,-150.44 332.78,-155.36 333.8,-148.44"/>
</g>
<!-- Node6&#45;&gt;Node13 -->
<g id="edge21" class="edge">
<title>Node6&#45;&gt;Node13</title>
<path fill="none" stroke="#63b8ff" d="M758.65,-186.62C775.91,-178.45 804.23,-166.08 829.11,-155.73"/>
<polygon fill="#63b8ff" stroke="#63b8ff" points="830.21,-159.06 838.12,-152.02 827.54,-152.59 830.21,-159.06"/>
</g>
<!-- Node6&#45;&gt;Node14 -->
<g id="edge25" class="edge">
<title>Node6&#45;&gt;Node14</title>
<path fill="none" stroke="#63b8ff" d="M738.04,-186.87C736.35,-179 735.85,-167.1 736.57,-156.89"/>
<polygon fill="#63b8ff" stroke="#63b8ff" points="740.01,-157.54 737.84,-147.17 733.07,-156.63 740.01,-157.54"/>
</g>
<!-- Node6&#45;&gt;Node15 -->
<g id="edge27" class="edge">
<title>Node6&#45;&gt;Node15</title>
<path fill="none" stroke="#63b8ff" d="M784.45,-186.55C827.12,-177.34 894.33,-162.83 945.02,-151.89"/>
<polygon fill="#63b8ff" stroke="#63b8ff" points="945.7,-155.32 954.74,-149.79 944.22,-148.48 945.7,-155.32"/>
</g>
<!-- Node6&#45;&gt;Node16 -->
<g id="edge28" class="edge">
<title>Node6&#45;&gt;Node16</title>
<path fill="none" stroke="#63b8ff" d="M669.67,-192.52C564.85,-187.48 366.3,-175.53 195.94,-152.63"/>
<polygon fill="#63b8ff" stroke="#63b8ff" points="196.64,-149.19 186.26,-151.31 195.7,-156.13 196.64,-149.19"/>
</g>
<!-- Node18 -->
<g id="node18" class="node">
<title>Node18</title>
<g id="a_node18"><a xlink:href="zscore_8h_source.html" target="_top" xlink:title=" ">
<polygon fill="white" stroke="#666666" points="627.5,-145.5 518.5,-145.5 518.5,-126.5 627.5,-126.5 627.5,-145.5"/>
<text text-anchor="middle" x="573" y="-133.5" font-family="Helvetica,sans-Serif" font-size="10.00">ViennaRNA/zscore.h</text>
</a>
</g>
</g>
<!-- Node6&#45;&gt;Node18 -->
<g id="edge34" class="edge">
<title>Node6&#45;&gt;Node18</title>
<path fill="none" stroke="#63b8ff" d="M717.18,-186.62C688.6,-176.78 642.29,-160.84 609.89,-149.69"/>
<polygon fill="#63b8ff" stroke="#63b8ff" points="611.09,-146.41 600.49,-146.46 608.81,-153.02 611.09,-146.41"/>
</g>
<!-- Node8&#45;&gt;Node3 -->
<g id="edge9" class="edge">
<title>Node8&#45;&gt;Node3</title>
<path fill="none" stroke="#63b8ff" d="M1346.12,-145.54C1336.53,-160.62 1306.61,-191.7 1274,-206 1221.47,-229.03 1065.78,-243.95 969.78,-251.08"/>
<polygon fill="#63b8ff" stroke="#63b8ff" points="969.6,-247.58 959.89,-251.8 970.11,-254.56 969.6,-247.58"/>
</g>
<!-- Node8&#45;&gt;Node4 -->
<g id="edge8" class="edge">
<title>Node8&#45;&gt;Node4</title>
<path fill="none" stroke="#63b8ff" d="M1353.56,-126.1C1359.47,-116.64 1368.99,-101.42 1376.52,-89.37"/>
<polygon fill="#63b8ff" stroke="#63b8ff" points="1379.35,-91.44 1381.68,-81.11 1373.42,-87.73 1379.35,-91.44"/>
</g>
<!-- Node8&#45;&gt;Node6 -->
<g id="edge10" class="edge">
<title>Node8&#45;&gt;Node6</title>
<path fill="none" stroke="#63b8ff" d="M1285.07,-145.99C1270.62,-147.73 1255.32,-149.48 1241,-151 1096.26,-166.32 927.07,-181 827.76,-189.08"/>
<polygon fill="#63b8ff" stroke="#63b8ff" points="827.49,-185.59 817.8,-189.88 828.05,-192.56 827.49,-185.59"/>
</g>
<!-- Node8&#45;&gt;Node7 -->
<g id="edge11" class="edge">
<title>Node8&#45;&gt;Node7</title>
<path fill="none" stroke="#63b8ff" d="M1332.7,-126.1C1314.64,-115.59 1284.35,-97.97 1262.9,-85.49"/>
<polygon fill="#63b8ff" stroke="#63b8ff" points="1264.88,-82.59 1254.47,-80.58 1261.36,-88.64 1264.88,-82.59"/>
</g>
<!-- Node9&#45;&gt;Node6 -->
<g id="edge13" class="edge">
<title>Node9&#45;&gt;Node6</title>
<path fill="none" stroke="#63b8ff" d="M492.26,-145.95C500.91,-147.64 509.73,-149.39 518,-151 577.31,-162.57 645.14,-175.43 690.78,-184.34"/>
<polygon fill="#63b8ff" stroke="#63b8ff" points="689.91,-187.73 700.4,-186.22 691.26,-180.86 689.91,-187.73"/>
</g>
<!-- Node10&#45;&gt;Node3 -->
<g id="edge15" class="edge">
<title>Node10&#45;&gt;Node3</title>
<path fill="none" stroke="#63b8ff" d="M1139.84,-145.95C1100.37,-165.23 998.82,-211.03 938.27,-237.06"/>
<polygon fill="#63b8ff" stroke="#63b8ff" points="937.04,-233.78 929.22,-240.93 939.79,-240.22 937.04,-233.78"/>
</g>
<!-- Node10&#45;&gt;Node6 -->
<g id="edge16" class="edge">
<title>Node10&#45;&gt;Node6</title>
<path fill="none" stroke="#63b8ff" d="M1118.86,-145.98C1109.47,-147.74 1099.42,-149.5 1090,-151 1000.81,-165.19 897.86,-178.27 827.34,-186.53"/>
<polygon fill="#63b8ff" stroke="#63b8ff" points="827.34,-183 817.81,-187.63 828.14,-189.96 827.34,-183"/>
</g>
<!-- Node11&#45;&gt;Node6 -->
<g id="edge18" class="edge">
<title>Node11&#45;&gt;Node6</title>
<path fill="none" stroke="#63b8ff" d="M321.76,-147.16C329.6,-148.55 337.5,-149.88 345,-151 452.94,-167.09 577.79,-179.88 658.51,-187.55"/>
<polygon fill="#63b8ff" stroke="#63b8ff" points="657.81,-191 668.1,-188.46 658.47,-184.03 657.81,-191"/>
</g>
<!-- Node12 -->
<g id="node12" class="node">
<title>Node12</title>
<g id="a_node12"><a xlink:href="constraints_2basic_8h.html" target="_top" xlink:title="Functions and data structures for constraining secondary structure predictions and evaluation.">
<polygon fill="white" stroke="#666666" points="409.5,-85 290.5,-85 290.5,-55 409.5,-55 409.5,-85"/>
<text text-anchor="start" x="298.5" y="-73" font-family="Helvetica,sans-Serif" font-size="10.00">ViennaRNA/constraints</text>
<text text-anchor="middle" x="350" y="-62" font-family="Helvetica,sans-Serif" font-size="10.00">/basic.h</text>
</a>
</g>
</g>
<!-- Node11&#45;&gt;Node12 -->
<g id="edge19" class="edge">
<title>Node11&#45;&gt;Node12</title>
<path fill="none" stroke="#63b8ff" d="M281.53,-120.8C293.18,-112.32 308.19,-101.4 321.19,-91.95"/>
<polygon fill="#63b8ff" stroke="#63b8ff" points="322.97,-94.99 329,-86.28 318.85,-89.33 322.97,-94.99"/>
</g>
<!-- Node12&#45;&gt;Node6 -->
<g id="edge20" class="edge">
<title>Node12&#45;&gt;Node6</title>
<path fill="none" stroke="#63b8ff" d="M348.89,-85.28C348.34,-103.45 350.46,-134.47 369,-151 410.44,-187.93 561.41,-195.45 658.4,-196.33"/>
<polygon fill="#63b8ff" stroke="#63b8ff" points="658.12,-199.82 668.15,-196.39 658.17,-192.82 658.12,-199.82"/>
</g>
<!-- Node13&#45;&gt;Node3 -->
<g id="edge22" class="edge">
<title>Node13&#45;&gt;Node3</title>
<path fill="none" stroke="#63b8ff" d="M885.06,-151.47C889.49,-171.06 893.4,-206.33 894.08,-230.44"/>
<polygon fill="#63b8ff" stroke="#63b8ff" points="890.58,-230.38 894.12,-240.37 897.58,-230.35 890.58,-230.38"/>
</g>
<!-- Node13&#45;&gt;Node6 -->
<g id="edge23" class="edge">
<title>Node13&#45;&gt;Node6</title>
<path fill="none" stroke="#63b8ff" d="M851.34,-151.44C830.5,-160.91 801.9,-173.19 779.25,-182.38"/>
<polygon fill="#63b8ff" stroke="#63b8ff" points="778.05,-179.09 770.07,-186.05 780.65,-185.58 778.05,-179.09"/>
</g>
<!-- Node13&#45;&gt;Node12 -->
<g id="edge24" class="edge">
<title>Node13&#45;&gt;Node12</title>
<path fill="none" stroke="#63b8ff" d="M819.22,-122.52C816.11,-121.98 813.02,-121.47 810,-121 672.98,-99.7 511.6,-84.39 421,-76.68"/>
<polygon fill="#63b8ff" stroke="#63b8ff" points="421.54,-73.21 411.28,-75.86 420.95,-80.19 421.54,-73.21"/>
</g>
<!-- Node14&#45;&gt;Node6 -->
<g id="edge26" class="edge">
<title>Node14&#45;&gt;Node6</title>
<path fill="none" stroke="#63b8ff" d="M747.96,-145.67C749.66,-153.54 750.15,-165.45 749.43,-175.66"/>
<polygon fill="#63b8ff" stroke="#63b8ff" points="745.99,-175 748.15,-185.37 752.93,-175.91 745.99,-175"/>
</g>
<!-- Node16&#45;&gt;Node3 -->
<g id="edge29" class="edge">
<title>Node16&#45;&gt;Node3</title>
<path fill="none" stroke="#63b8ff" d="M184.8,-147.82C190.63,-148.93 196.43,-150 202,-151 422.72,-190.5 684.51,-227.17 812.61,-244.88"/>
<polygon fill="#63b8ff" stroke="#63b8ff" points="811.96,-248.33 822.34,-246.23 812.92,-241.39 811.96,-248.33"/>
</g>
<!-- Node16&#45;&gt;Node6 -->
<g id="edge30" class="edge">
<title>Node16&#45;&gt;Node6</title>
<path fill="none" stroke="#63b8ff" d="M184.73,-148.27C190.57,-149.29 196.4,-150.22 202,-151 362.68,-173.27 551.43,-185.55 658.21,-191.31"/>
<polygon fill="#63b8ff" stroke="#63b8ff" points="657.87,-194.8 668.04,-191.83 658.24,-187.81 657.87,-194.8"/>
</g>
<!-- Node16&#45;&gt;Node17 -->
<g id="edge31" class="edge">
<title>Node16&#45;&gt;Node17</title>
<path fill="none" stroke="#63b8ff" d="M110.9,-120.8C103.49,-111.31 93.69,-98.76 85.77,-88.63"/>
<polygon fill="#63b8ff" stroke="#63b8ff" points="88.76,-86.76 79.84,-81.04 83.24,-91.07 88.76,-86.76"/>
</g>
<!-- Node17&#45;&gt;Node2 -->
<g id="edge32" class="edge">
<title>Node17&#45;&gt;Node2</title>
<path fill="none" stroke="#63b8ff" d="M144.02,-63.55C184.3,-60.65 235.42,-57.25 281,-55 787.31,-30.06 916.38,-67.23 1421,-19 1426.94,-18.43 1433.22,-17.62 1439.3,-16.71"/>
<polygon fill="#63b8ff" stroke="#63b8ff" points="1439.78,-20.18 1449.11,-15.15 1438.68,-13.27 1439.78,-20.18"/>
</g>
<!-- Node17&#45;&gt;Node3 -->
<g id="edge33" class="edge">
<title>Node17&#45;&gt;Node3</title>
<path fill="none" stroke="#63b8ff" d="M70.25,-79.82C62.12,-95.89 41.04,-130.16 59,-151 108.04,-207.89 613.85,-240.83 812.04,-251.83"/>
<polygon fill="#63b8ff" stroke="#63b8ff" points="811.82,-255.32 822,-252.38 812.21,-248.33 811.82,-255.32"/>
</g>
</g>
</svg>
