<?xml version="1.0" encoding="UTF-8" standalone="no"?>
<!DOCTYPE svg PUBLIC "-//W3C//DTD SVG 1.1//EN"
 "http://www.w3.org/Graphics/SVG/1.1/DTD/svg11.dtd">
<!-- Generated by graphviz version 7.1.0 (0)
 -->
<!-- Title: ViennaRNA/unstructured_domains.h Pages: 1 -->
<!--zoomable 346 -->
<svg id="main" version="1.1" xmlns="http://www.w3.org/2000/svg" xmlns:xlink="http://www.w3.org/1999/xlink" xml:space="preserve" onload="init(evt)">
<style type="text/css"><![CDATA[
.edge:hover path { stroke: red; }
.edge:hover polygon { stroke: red; fill: red; }
]]></style>
<script type="text/javascript"><![CDATA[
var edges = document.getElementsByTagName('g');
if (edges && edges.length) {
  for (var i=0;i<edges.length;i++) {
    if (edges[i].id.substr(0,4)=='edge') {
      edges[i].setAttribute('class','edge');
    }
  }
}
]]></script>
        <defs>
                <circle id="rim" cx="0" cy="0" r="7"/>
                <circle id="rim2" cx="0" cy="0" r="3.5"/>
                <g id="zoomPlus">
                        <use xlink:href="#rim" fill="#404040">
                                <set attributeName="fill" to="#808080" begin="zoomplus.mouseover" end="zoomplus.mouseout"/>
                        </use>
                        <path d="M-4,0h8M0,-4v8" fill="none" stroke="white" stroke-width="1.5" pointer-events="none"/>
                </g>
                <g id="zoomMin">
                        <use xlink:href="#rim" fill="#404040">
                                <set attributeName="fill" to="#808080" begin="zoomminus.mouseover" end="zoomminus.mouseout"/>
                        </use>
                        <path d="M-4,0h8" fill="none" stroke="white" stroke-width="1.5" pointer-events="none"/>
                </g>
                <g id="dirArrow">
                        <path fill="none" stroke="white" stroke-width="1.5" d="M0,-3.0v7 M-2.5,-0.5L0,-3.0L2.5,-0.5"/>
                </g>
               <g id="resetDef">
                       <use xlink:href="#rim2" fill="#404040">
                               <set attributeName="fill" to="#808080" begin="reset.mouseover" end="reset.mouseout"/>
                       </use>
               </g>
        </defs>

<script type="text/javascript">
var viewWidth = 1423;
var viewHeight = 346;
var sectionId = 'dynsection-0';
</script>
<script xlink:href="svgpan.js"/>
<svg id="graph" class="graph">
<g id="viewport">
<title>ViennaRNA/unstructured_domains.h</title>
<!-- Node1 -->
<g id="node1" class="node">
<title>Node1</title>
<g id="a_node1"><a xlink:title="Functions to modify unstructured domains, e.g. to incorporate ligands binding to unpaired stretches.">
<polygon fill="#999999" stroke="#666666" points="896,-338 771,-338 771,-308 896,-308 896,-338"/>
<text text-anchor="start" x="779" y="-326" font-family="Helvetica,sans-Serif" font-size="10.00">ViennaRNA/unstructured</text>
<text text-anchor="middle" x="833.5" y="-315" font-family="Helvetica,sans-Serif" font-size="10.00">_domains.h</text>
</a>
</g>
</g>
<!-- Node2 -->
<g id="node2" class="node">
<title>Node2</title>
<g id="a_node2"><a xlink:href="datastructures_2basic_8h.html" target="_top" xlink:title="Various data structures and pre&#45;processor macros.">
<polygon fill="white" stroke="#666666" points="900.5,-272 766.5,-272 766.5,-242 900.5,-242 900.5,-272"/>
<text text-anchor="start" x="774.5" y="-260" font-family="Helvetica,sans-Serif" font-size="10.00">ViennaRNA/datastructures</text>
<text text-anchor="middle" x="833.5" y="-249" font-family="Helvetica,sans-Serif" font-size="10.00">/basic.h</text>
</a>
</g>
</g>
<!-- Node1&#45;&gt;Node2 -->
<g id="edge1" class="edge">
<title>Node1&#45;&gt;Node2</title>
<path fill="none" stroke="#63b8ff" d="M827.78,-307.8C826.86,-300.67 826.55,-291.82 826.87,-283.56"/>
<polygon fill="#63b8ff" stroke="#63b8ff" points="830.36,-283.92 827.66,-273.67 823.38,-283.36 830.36,-283.92"/>
</g>
<!-- Node5 -->
<g id="node5" class="node">
<title>Node5</title>
<g id="a_node5"><a xlink:href="fold__compound_8h.html" target="_top" xlink:title="The Basic Fold Compound API.">
<polygon fill="white" stroke="#666666" points="758.5,-206 612.5,-206 612.5,-187 758.5,-187 758.5,-206"/>
<text text-anchor="middle" x="685.5" y="-194" font-family="Helvetica,sans-Serif" font-size="10.00">ViennaRNA/fold_compound.h</text>
</a>
</g>
</g>
<!-- Node1&#45;&gt;Node5 -->
<g id="edge40" class="edge">
<title>Node1&#45;&gt;Node5</title>
<path fill="none" stroke="#63b8ff" d="M800.81,-307.54C784.25,-298.18 764.55,-285.31 748.5,-272 727.37,-254.48 705.85,-231.38 693.82,-215.58"/>
<polygon fill="#63b8ff" stroke="#63b8ff" points="696.85,-213.8 688.25,-207.62 691.11,-217.82 696.85,-213.8"/>
</g>
<!-- Node16 -->
<g id="node16" class="node">
<title>Node16</title>
<g id="a_node16"><a xlink:href="utils_2structures_8h.html" target="_top" xlink:title="Various utility&#45; and helper&#45;functions for secondary structure parsing, converting,...">
<polygon fill="white" stroke="#666666" points="1414.5,-206 1270.5,-206 1270.5,-187 1414.5,-187 1414.5,-206"/>
<text text-anchor="middle" x="1342.5" y="-194" font-family="Helvetica,sans-Serif" font-size="10.00">ViennaRNA/utils/structures.h</text>
</a>
</g>
</g>
<!-- Node1&#45;&gt;Node16 -->
<g id="edge41" class="edge">
<title>Node1&#45;&gt;Node16</title>
<path fill="none" stroke="#63b8ff" d="M892.39,-307.6C994.25,-282.68 1201.4,-232.01 1294.86,-209.15"/>
<polygon fill="#63b8ff" stroke="#63b8ff" points="1295.6,-212.58 1304.48,-206.8 1293.93,-205.78 1295.6,-212.58"/>
</g>
<!-- Node2&#45;&gt;Node1 -->
<g id="edge36" class="edge">
<title>Node2&#45;&gt;Node1</title>
<path fill="none" stroke="#63b8ff" d="M839.21,-272.16C840.14,-279.28 840.45,-288.13 840.13,-296.39"/>
<polygon fill="#63b8ff" stroke="#63b8ff" points="836.65,-296.04 839.34,-306.29 843.62,-296.6 836.65,-296.04"/>
</g>
<!-- Node3 -->
<g id="node3" class="node">
<title>Node3</title>
<g id="a_node3"><a xlink:href="constants_8h.html" target="_top" xlink:title="Energy parameter constants.">
<polygon fill="white" stroke="#666666" points="1321.5,-79.5 1163.5,-79.5 1163.5,-60.5 1321.5,-60.5 1321.5,-79.5"/>
<text text-anchor="middle" x="1242.5" y="-67.5" font-family="Helvetica,sans-Serif" font-size="10.00">ViennaRNA/params/constants.h</text>
</a>
</g>
</g>
<!-- Node2&#45;&gt;Node3 -->
<g id="edge2" class="edge">
<title>Node2&#45;&gt;Node3</title>
<path fill="none" stroke="#63b8ff" d="M900.91,-252.2C960.49,-247.01 1048.8,-234.77 1120.5,-206 1161.23,-189.66 1173.5,-183.94 1202.5,-151 1218.26,-133.09 1229.51,-107.87 1235.99,-90.56"/>
<polygon fill="#63b8ff" stroke="#63b8ff" points="1239.26,-91.82 1239.28,-81.22 1232.65,-89.49 1239.26,-91.82"/>
</g>
<!-- Node2&#45;&gt;Node5 -->
<g id="edge4" class="edge">
<title>Node2&#45;&gt;Node5</title>
<path fill="none" stroke="#63b8ff" d="M796.92,-241.54C772.83,-232.02 741.56,-219.66 718.28,-210.46"/>
<polygon fill="#63b8ff" stroke="#63b8ff" points="719.87,-207.32 709.29,-206.9 717.3,-213.83 719.87,-207.32"/>
</g>
<!-- Node6 -->
<g id="node6" class="node">
<title>Node6</title>
<g id="a_node6"><a xlink:href="model_8h.html" target="_top" xlink:title="The model details data structure and its corresponding modifiers.">
<polygon fill="white" stroke="#666666" points="1145.5,-79.5 1039.5,-79.5 1039.5,-60.5 1145.5,-60.5 1145.5,-79.5"/>
<text text-anchor="middle" x="1092.5" y="-67.5" font-family="Helvetica,sans-Serif" font-size="10.00">ViennaRNA/model.h</text>
</a>
</g>
</g>
<!-- Node2&#45;&gt;Node6 -->
<g id="edge29" class="edge">
<title>Node2&#45;&gt;Node6</title>
<path fill="none" stroke="#63b8ff" d="M900.62,-245.64C992.89,-229.87 1151.39,-196.76 1185.5,-151 1193.47,-140.31 1192.34,-132.44 1185.5,-121 1174.96,-103.37 1155.84,-91.6 1137.67,-83.93"/>
<polygon fill="#63b8ff" stroke="#63b8ff" points="1139.15,-80.75 1128.56,-80.42 1136.63,-87.28 1139.15,-80.75"/>
</g>
<!-- Node7 -->
<g id="node7" class="node">
<title>Node7</title>
<g id="a_node7"><a xlink:href="params_2basic_8h.html" target="_top" xlink:title="Functions to deal with sets of energy parameters.">
<polygon fill="white" stroke="#666666" points="1176.5,-145.5 1038.5,-145.5 1038.5,-126.5 1176.5,-126.5 1176.5,-145.5"/>
<text text-anchor="middle" x="1107.5" y="-133.5" font-family="Helvetica,sans-Serif" font-size="10.00">ViennaRNA/params/basic.h</text>
</a>
</g>
</g>
<!-- Node2&#45;&gt;Node7 -->
<g id="edge30" class="edge">
<title>Node2&#45;&gt;Node7</title>
<path fill="none" stroke="#63b8ff" d="M862.22,-241.53C912.94,-218.23 1017.69,-172.76 1072.52,-150.26"/>
<polygon fill="#63b8ff" stroke="#63b8ff" points="1073.77,-153.53 1081.71,-146.52 1071.13,-147.05 1073.77,-153.53"/>
</g>
<!-- Node9 -->
<g id="node9" class="node">
<title>Node9</title>
<g id="a_node9"><a xlink:href="dp__matrices_8h.html" target="_top" xlink:title="Functions to deal with standard dynamic programming (DP) matrices.">
<polygon fill="white" stroke="#666666" points="133,-145.5 0,-145.5 0,-126.5 133,-126.5 133,-145.5"/>
<text text-anchor="middle" x="66.5" y="-133.5" font-family="Helvetica,sans-Serif" font-size="10.00">ViennaRNA/dp_matrices.h</text>
</a>
</g>
</g>
<!-- Node2&#45;&gt;Node9 -->
<g id="edge31" class="edge">
<title>Node2&#45;&gt;Node9</title>
<path fill="none" stroke="#63b8ff" d="M766.15,-248.04C691.95,-238.55 569.46,-221.98 464.5,-206 316.64,-183.49 279.8,-176.95 132.5,-151 127.16,-150.06 121.6,-149.06 116.08,-148.05"/>
<polygon fill="#63b8ff" stroke="#63b8ff" points="116.82,-144.62 106.35,-146.24 115.54,-151.51 116.82,-144.62"/>
</g>
<!-- Node10 -->
<g id="node10" class="node">
<title>Node10</title>
<g id="a_node10"><a xlink:href="hard_8h.html" target="_top" xlink:title="Functions and data structures for handling of secondary structure hard constraints.">
<polygon fill="white" stroke="#666666" points="270,-151 151,-151 151,-121 270,-121 270,-151"/>
<text text-anchor="start" x="159" y="-139" font-family="Helvetica,sans-Serif" font-size="10.00">ViennaRNA/constraints</text>
<text text-anchor="middle" x="210.5" y="-128" font-family="Helvetica,sans-Serif" font-size="10.00">/hard.h</text>
</a>
</g>
</g>
<!-- Node2&#45;&gt;Node10 -->
<g id="edge32" class="edge">
<title>Node2&#45;&gt;Node10</title>
<path fill="none" stroke="#63b8ff" d="M766.08,-243.51C663.81,-224.5 463.05,-186.94 281.44,-151.37"/>
<polygon fill="#63b8ff" stroke="#63b8ff" points="282.3,-147.97 271.81,-149.48 280.95,-154.84 282.3,-147.97"/>
</g>
<!-- Node12 -->
<g id="node12" class="node">
<title>Node12</title>
<g id="a_node12"><a xlink:href="soft_8h.html" target="_top" xlink:title="Functions and data structures for secondary structure soft constraints.">
<polygon fill="white" stroke="#666666" points="887,-151 768,-151 768,-121 887,-121 887,-151"/>
<text text-anchor="start" x="776" y="-139" font-family="Helvetica,sans-Serif" font-size="10.00">ViennaRNA/constraints</text>
<text text-anchor="middle" x="827.5" y="-128" font-family="Helvetica,sans-Serif" font-size="10.00">/soft.h</text>
</a>
</g>
</g>
<!-- Node2&#45;&gt;Node12 -->
<g id="edge33" class="edge">
<title>Node2&#45;&gt;Node12</title>
<path fill="none" stroke="#63b8ff" d="M828.23,-241.88C824.76,-222.39 822.6,-186.92 823.13,-162.67"/>
<polygon fill="#63b8ff" stroke="#63b8ff" points="826.61,-163.13 823.56,-152.98 819.62,-162.82 826.61,-163.13"/>
</g>
<!-- Node13 -->
<g id="node13" class="node">
<title>Node13</title>
<g id="a_node13"><a xlink:href="grammar_8h.html" target="_top" xlink:title="Implementations for the RNA folding grammar.">
<polygon fill="white" stroke="#666666" points="750,-145.5 633,-145.5 633,-126.5 750,-126.5 750,-145.5"/>
<text text-anchor="middle" x="691.5" y="-133.5" font-family="Helvetica,sans-Serif" font-size="10.00">ViennaRNA/grammar.h</text>
</a>
</g>
</g>
<!-- Node2&#45;&gt;Node13 -->
<g id="edge34" class="edge">
<title>Node2&#45;&gt;Node13</title>
<path fill="none" stroke="#63b8ff" d="M821.45,-241.61C808.82,-226.97 788,-204.09 767.5,-187 751.73,-173.86 732.38,-161.17 717.15,-151.86"/>
<polygon fill="#63b8ff" stroke="#63b8ff" points="719.03,-148.91 708.66,-146.77 715.43,-154.92 719.03,-148.91"/>
</g>
<!-- Node14 -->
<g id="node14" class="node">
<title>Node14</title>
<g id="a_node14"><a xlink:href="structured__domains_8h.html" target="_top" xlink:title="This module provides interfaces that deal with additional structured domains in the folding grammar.">
<polygon fill="white" stroke="#666666" points="1020,-151 905,-151 905,-121 1020,-121 1020,-151"/>
<text text-anchor="start" x="913" y="-139" font-family="Helvetica,sans-Serif" font-size="10.00">ViennaRNA/structured</text>
<text text-anchor="middle" x="962.5" y="-128" font-family="Helvetica,sans-Serif" font-size="10.00">_domains.h</text>
</a>
</g>
</g>
<!-- Node2&#45;&gt;Node14 -->
<g id="edge35" class="edge">
<title>Node2&#45;&gt;Node14</title>
<path fill="none" stroke="#63b8ff" d="M849.06,-241.65C871.34,-221.1 912.51,-183.12 938.65,-159.01"/>
<polygon fill="#63b8ff" stroke="#63b8ff" points="940.79,-161.78 945.77,-152.43 936.05,-156.64 940.79,-161.78"/>
</g>
<!-- Node2&#45;&gt;Node16 -->
<g id="edge37" class="edge">
<title>Node2&#45;&gt;Node16</title>
<path fill="none" stroke="#63b8ff" d="M901,-247.68C993.31,-236.79 1158.72,-217.78 1258.8,-206.54"/>
<polygon fill="#63b8ff" stroke="#63b8ff" points="1259.02,-210.04 1268.56,-205.45 1258.24,-203.08 1259.02,-210.04"/>
</g>
<!-- Node4 -->
<g id="node4" class="node">
<title>Node4</title>
<g id="a_node4"><a xlink:title=" ">
<polygon fill="#e0e0e0" stroke="#999999" points="1266.5,-19 1218.5,-19 1218.5,0 1266.5,0 1266.5,-19"/>
<text text-anchor="middle" x="1242.5" y="-7" font-family="Helvetica,sans-Serif" font-size="10.00">limits.h</text>
</a>
</g>
</g>
<!-- Node3&#45;&gt;Node4 -->
<g id="edge3" class="edge">
<title>Node3&#45;&gt;Node4</title>
<path fill="none" stroke="#63b8ff" d="M1242.5,-60.37C1242.5,-52.5 1242.5,-40.6 1242.5,-30.39"/>
<polygon fill="#63b8ff" stroke="#63b8ff" points="1246,-30.68 1242.5,-20.68 1239,-30.68 1246,-30.68"/>
</g>
<!-- Node5&#45;&gt;Node1 -->
<g id="edge27" class="edge">
<title>Node5&#45;&gt;Node1</title>
<path fill="none" stroke="#63b8ff" d="M698.48,-206.38C714.41,-220.99 740.74,-250.65 766.5,-272 779.16,-282.5 794.1,-292.73 806.77,-301.18"/>
<polygon fill="#63b8ff" stroke="#63b8ff" points="804.82,-304.08 815.08,-306.7 808.69,-298.25 804.82,-304.08"/>
</g>
<!-- Node5&#45;&gt;Node6 -->
<g id="edge5" class="edge">
<title>Node5&#45;&gt;Node6</title>
<path fill="none" stroke="#63b8ff" d="M664.06,-186.54C649.72,-179.26 631.97,-167.5 623.5,-151 617.41,-139.14 614.59,-130.92 623.5,-121 650.05,-91.47 905.68,-77.98 1027.95,-73.18"/>
<polygon fill="#63b8ff" stroke="#63b8ff" points="1027.99,-76.68 1037.85,-72.8 1027.72,-69.69 1027.99,-76.68"/>
</g>
<!-- Node5&#45;&gt;Node7 -->
<g id="edge6" class="edge">
<title>Node5&#45;&gt;Node7</title>
<path fill="none" stroke="#63b8ff" d="M755.55,-186.53C823.22,-178.19 928.39,-164.98 1019.5,-151 1025.85,-150.03 1032.48,-148.95 1039.13,-147.84"/>
<polygon fill="#63b8ff" stroke="#63b8ff" points="1039.53,-151.32 1048.8,-146.2 1038.36,-144.42 1039.53,-151.32"/>
</g>
<!-- Node8 -->
<g id="node8" class="node">
<title>Node8</title>
<g id="a_node8"><a xlink:href="sequence_8h.html" target="_top" xlink:title="Functions and data structures related to sequence representations ,.">
<polygon fill="white" stroke="#666666" points="410.5,-145.5 288.5,-145.5 288.5,-126.5 410.5,-126.5 410.5,-145.5"/>
<text text-anchor="middle" x="349.5" y="-133.5" font-family="Helvetica,sans-Serif" font-size="10.00">ViennaRNA/sequence.h</text>
</a>
</g>
</g>
<!-- Node5&#45;&gt;Node8 -->
<g id="edge11" class="edge">
<title>Node5&#45;&gt;Node8</title>
<path fill="none" stroke="#63b8ff" d="M624.33,-186.5C569.4,-177.68 486.88,-163.75 415.5,-151 410.24,-150.06 404.77,-149.07 399.32,-148.06"/>
<polygon fill="#63b8ff" stroke="#63b8ff" points="400.22,-144.67 389.75,-146.28 398.93,-151.55 400.22,-144.67"/>
</g>
<!-- Node5&#45;&gt;Node9 -->
<g id="edge13" class="edge">
<title>Node5&#45;&gt;Node9</title>
<path fill="none" stroke="#63b8ff" d="M612.06,-192.21C505.72,-186.69 303.2,-173.85 132.5,-151 126.02,-150.13 119.26,-149.08 112.62,-147.95"/>
<polygon fill="#63b8ff" stroke="#63b8ff" points="113.59,-144.56 103.13,-146.24 112.36,-151.45 113.59,-144.56"/>
</g>
<!-- Node5&#45;&gt;Node10 -->
<g id="edge16" class="edge">
<title>Node5&#45;&gt;Node10</title>
<path fill="none" stroke="#63b8ff" d="M612.05,-190.03C531.42,-183.25 398.18,-170.38 282.03,-152.77"/>
<polygon fill="#63b8ff" stroke="#63b8ff" points="282.76,-149.34 272.34,-151.28 281.7,-156.26 282.76,-149.34"/>
</g>
<!-- Node5&#45;&gt;Node12 -->
<g id="edge20" class="edge">
<title>Node5&#45;&gt;Node12</title>
<path fill="none" stroke="#63b8ff" d="M702.06,-186.62C720.24,-178.41 750.01,-165.97 776.03,-155.59"/>
<polygon fill="#63b8ff" stroke="#63b8ff" points="777.12,-158.93 785.13,-152 774.54,-152.42 777.12,-158.93"/>
</g>
<!-- Node5&#45;&gt;Node13 -->
<g id="edge24" class="edge">
<title>Node5&#45;&gt;Node13</title>
<path fill="none" stroke="#63b8ff" d="M681.43,-186.87C680.53,-178.92 681.28,-166.83 683.09,-156.55"/>
<polygon fill="#63b8ff" stroke="#63b8ff" points="686.42,-157.68 685.3,-147.14 679.6,-156.07 686.42,-157.68"/>
</g>
<!-- Node5&#45;&gt;Node14 -->
<g id="edge26" class="edge">
<title>Node5&#45;&gt;Node14</title>
<path fill="none" stroke="#63b8ff" d="M727.87,-186.55C771.92,-177.25 841.58,-162.54 893.57,-151.56"/>
<polygon fill="#63b8ff" stroke="#63b8ff" points="894.17,-155.01 903.23,-149.52 892.72,-148.16 894.17,-155.01"/>
</g>
<!-- Node15 -->
<g id="node15" class="node">
<title>Node15</title>
<g id="a_node15"><a xlink:href="zscore_8h_source.html" target="_top" xlink:title=" ">
<polygon fill="white" stroke="#666666" points="576,-145.5 467,-145.5 467,-126.5 576,-126.5 576,-145.5"/>
<text text-anchor="middle" x="521.5" y="-133.5" font-family="Helvetica,sans-Serif" font-size="10.00">ViennaRNA/zscore.h</text>
</a>
</g>
</g>
<!-- Node5&#45;&gt;Node15 -->
<g id="edge28" class="edge">
<title>Node5&#45;&gt;Node15</title>
<path fill="none" stroke="#63b8ff" d="M660.59,-186.62C633.02,-176.78 588.35,-160.84 557.09,-149.69"/>
<polygon fill="#63b8ff" stroke="#63b8ff" points="558.66,-146.54 548.07,-146.48 556.31,-153.13 558.66,-146.54"/>
</g>
<!-- Node7&#45;&gt;Node2 -->
<g id="edge8" class="edge">
<title>Node7&#45;&gt;Node2</title>
<path fill="none" stroke="#63b8ff" d="M1090.66,-145.95C1049.65,-165.27 944.28,-211.22 881.81,-237.22"/>
<polygon fill="#63b8ff" stroke="#63b8ff" points="880.72,-233.89 872.82,-240.95 883.4,-240.36 880.72,-233.89"/>
</g>
<!-- Node7&#45;&gt;Node3 -->
<g id="edge7" class="edge">
<title>Node7&#45;&gt;Node3</title>
<path fill="none" stroke="#63b8ff" d="M1126.27,-126.1C1148.94,-115.35 1187.31,-97.16 1213.72,-84.64"/>
<polygon fill="#63b8ff" stroke="#63b8ff" points="1214.98,-87.92 1222.52,-80.47 1211.99,-81.59 1214.98,-87.92"/>
</g>
<!-- Node7&#45;&gt;Node5 -->
<g id="edge9" class="edge">
<title>Node7&#45;&gt;Node5</title>
<path fill="none" stroke="#63b8ff" d="M1067.89,-145.94C1058,-147.71 1047.41,-149.48 1037.5,-151 946.51,-164.96 841.5,-178.16 769.95,-186.5"/>
<polygon fill="#63b8ff" stroke="#63b8ff" points="769.8,-182.99 760.27,-187.62 770.61,-189.95 769.8,-182.99"/>
</g>
<!-- Node7&#45;&gt;Node6 -->
<g id="edge10" class="edge">
<title>Node7&#45;&gt;Node6</title>
<path fill="none" stroke="#63b8ff" d="M1105.41,-126.1C1103.29,-117.03 1099.92,-102.64 1097.15,-90.85"/>
<polygon fill="#63b8ff" stroke="#63b8ff" points="1100.6,-90.23 1094.91,-81.3 1093.79,-91.83 1100.6,-90.23"/>
</g>
<!-- Node8&#45;&gt;Node5 -->
<g id="edge12" class="edge">
<title>Node8&#45;&gt;Node5</title>
<path fill="none" stroke="#63b8ff" d="M405.92,-146C415.19,-147.69 424.63,-149.42 433.5,-151 499.97,-162.87 576.09,-175.77 627.2,-184.61"/>
<polygon fill="#63b8ff" stroke="#63b8ff" points="626.41,-188.02 636.86,-186.28 627.61,-181.13 626.41,-188.02"/>
</g>
<!-- Node9&#45;&gt;Node2 -->
<g id="edge14" class="edge">
<title>Node9&#45;&gt;Node2</title>
<path fill="none" stroke="#63b8ff" d="M122.51,-145.96C131.9,-147.67 141.5,-149.41 150.5,-151 297.8,-176.95 334.64,-183.49 482.5,-206 576.21,-220.27 683.89,-235.01 755.07,-244.75"/>
<polygon fill="#63b8ff" stroke="#63b8ff" points="754.29,-248.18 764.67,-246.07 755.24,-241.24 754.29,-248.18"/>
</g>
<!-- Node9&#45;&gt;Node5 -->
<g id="edge15" class="edge">
<title>Node9&#45;&gt;Node5</title>
<path fill="none" stroke="#63b8ff" d="M119.15,-145.98C129.58,-147.84 140.39,-149.65 150.5,-151 309.09,-172.23 495.13,-184.81 600.84,-190.92"/>
<polygon fill="#63b8ff" stroke="#63b8ff" points="600.37,-194.4 610.56,-191.48 600.77,-187.41 600.37,-194.4"/>
</g>
<!-- Node10&#45;&gt;Node5 -->
<g id="edge17" class="edge">
<title>Node10&#45;&gt;Node5</title>
<path fill="none" stroke="#63b8ff" d="M270.21,-147.85C276.4,-148.99 282.58,-150.08 288.5,-151 396.06,-167.77 520.64,-180.43 601.19,-187.88"/>
<polygon fill="#63b8ff" stroke="#63b8ff" points="600.47,-191.33 610.75,-188.76 601.11,-184.36 600.47,-191.33"/>
</g>
<!-- Node11 -->
<g id="node11" class="node">
<title>Node11</title>
<g id="a_node11"><a xlink:href="constraints_2basic_8h.html" target="_top" xlink:title="Functions and data structures for constraining secondary structure predictions and evaluation.">
<polygon fill="white" stroke="#666666" points="498,-85 379,-85 379,-55 498,-55 498,-85"/>
<text text-anchor="start" x="387" y="-73" font-family="Helvetica,sans-Serif" font-size="10.00">ViennaRNA/constraints</text>
<text text-anchor="middle" x="438.5" y="-62" font-family="Helvetica,sans-Serif" font-size="10.00">/basic.h</text>
</a>
</g>
</g>
<!-- Node10&#45;&gt;Node11 -->
<g id="edge18" class="edge">
<title>Node10&#45;&gt;Node11</title>
<path fill="none" stroke="#63b8ff" d="M261.95,-120.56C295.87,-111.04 340.5,-98.51 376.4,-88.43"/>
<polygon fill="#63b8ff" stroke="#63b8ff" points="377.1,-91.87 385.78,-85.8 375.2,-85.13 377.1,-91.87"/>
</g>
<!-- Node11&#45;&gt;Node5 -->
<g id="edge19" class="edge">
<title>Node11&#45;&gt;Node5</title>
<path fill="none" stroke="#63b8ff" d="M437.58,-85.38C437.27,-103.37 439.69,-133.89 457.5,-151 477.94,-170.63 544.68,-182.12 600.7,-188.49"/>
<polygon fill="#63b8ff" stroke="#63b8ff" points="600.29,-191.97 610.61,-189.57 601.05,-185.01 600.29,-191.97"/>
</g>
<!-- Node12&#45;&gt;Node2 -->
<g id="edge21" class="edge">
<title>Node12&#45;&gt;Node2</title>
<path fill="none" stroke="#63b8ff" d="M832.83,-151.47C836.27,-171.06 838.4,-206.33 837.87,-230.44"/>
<polygon fill="#63b8ff" stroke="#63b8ff" points="834.38,-230.22 837.41,-240.37 841.37,-230.54 834.38,-230.22"/>
</g>
<!-- Node12&#45;&gt;Node5 -->
<g id="edge22" class="edge">
<title>Node12&#45;&gt;Node5</title>
<path fill="none" stroke="#63b8ff" d="M798.36,-151.44C776.45,-160.95 746.41,-173.3 722.77,-182.5"/>
<polygon fill="#63b8ff" stroke="#63b8ff" points="721.57,-179.22 713.49,-186.07 724.08,-185.75 721.57,-179.22"/>
</g>
<!-- Node12&#45;&gt;Node11 -->
<g id="edge23" class="edge">
<title>Node12&#45;&gt;Node11</title>
<path fill="none" stroke="#63b8ff" d="M767.69,-122.69C764.59,-122.11 761.51,-121.54 758.5,-121 673.27,-105.7 574.78,-90.72 509.82,-81.2"/>
<polygon fill="#63b8ff" stroke="#63b8ff" points="510.4,-77.75 500,-79.77 509.38,-84.67 510.4,-77.75"/>
</g>
<!-- Node13&#45;&gt;Node5 -->
<g id="edge25" class="edge">
<title>Node13&#45;&gt;Node5</title>
<path fill="none" stroke="#63b8ff" d="M695.57,-145.67C696.47,-153.63 695.71,-165.72 693.91,-175.99"/>
<polygon fill="#63b8ff" stroke="#63b8ff" points="690.58,-174.86 691.69,-185.4 697.39,-176.47 690.58,-174.86"/>
</g>
<!-- Node16&#45;&gt;Node2 -->
<g id="edge39" class="edge">
<title>Node16&#45;&gt;Node2</title>
<path fill="none" stroke="#63b8ff" d="M1270.1,-206.4C1175.3,-217.56 1009.84,-236.58 912.08,-247.53"/>
<polygon fill="#63b8ff" stroke="#63b8ff" points="911.84,-244.04 902.29,-248.63 912.62,-251 911.84,-244.04"/>
</g>
<!-- Node17 -->
<g id="node17" class="node">
<title>Node17</title>
<g id="a_node17"><a xlink:title=" ">
<polygon fill="#e0e0e0" stroke="#999999" points="1365.5,-145.5 1319.5,-145.5 1319.5,-126.5 1365.5,-126.5 1365.5,-145.5"/>
<text text-anchor="middle" x="1342.5" y="-133.5" font-family="Helvetica,sans-Serif" font-size="10.00">stdio.h</text>
</a>
</g>
</g>
<!-- Node16&#45;&gt;Node17 -->
<g id="edge38" class="edge">
<title>Node16&#45;&gt;Node17</title>
<path fill="none" stroke="#63b8ff" d="M1342.5,-186.87C1342.5,-179 1342.5,-167.1 1342.5,-156.89"/>
<polygon fill="#63b8ff" stroke="#63b8ff" points="1346,-157.18 1342.5,-147.18 1339,-157.18 1346,-157.18"/>
</g>
</g>
</svg>
        <g id="navigator" transform="translate(0 0)" fill="#404254">
                <rect fill="#f2f5e9" fill-opacity="0.5" stroke="#606060" stroke-width=".5" x="0" y="0" width="60" height="60"/>
                <use id="zoomplus" xlink:href="#zoomPlus" x="17" y="9" onmousedown="handleZoom(evt,'in')"/>
                <use id="zoomminus" xlink:href="#zoomMin" x="42" y="9" onmousedown="handleZoom(evt,'out')"/>
                <use id="reset" xlink:href="#resetDef" x="30" y="36" onmousedown="handleReset()"/>
                <g id="arrowUp" xlink:href="#dirArrow" transform="translate(30 24)" onmousedown="handlePan(0,-1)">
                  <use xlink:href="#rim" fill="#404040">
                        <set attributeName="fill" to="#808080" begin="arrowUp.mouseover" end="arrowUp.mouseout"/>
                  </use>
                  <path fill="none" stroke="white" stroke-width="1.5" d="M0,-3.0v7 M-2.5,-0.5L0,-3.0L2.5,-0.5"/>
                </g>
                <g id="arrowRight" xlink:href="#dirArrow" transform="rotate(90) translate(36 -43)" onmousedown="handlePan(1,0)">
                  <use xlink:href="#rim" fill="#404040">
                        <set attributeName="fill" to="#808080" begin="arrowRight.mouseover" end="arrowRight.mouseout"/>
                  </use>
                  <path fill="none" stroke="white" stroke-width="1.5" d="M0,-3.0v7 M-2.5,-0.5L0,-3.0L2.5,-0.5"/>
                </g>
                <g id="arrowDown" xlink:href="#dirArrow" transform="rotate(180) translate(-30 -48)" onmousedown="handlePan(0,1)">
                  <use xlink:href="#rim" fill="#404040">
                        <set attributeName="fill" to="#808080" begin="arrowDown.mouseover" end="arrowDown.mouseout"/>
                  </use>
                  <path fill="none" stroke="white" stroke-width="1.5" d="M0,-3.0v7 M-2.5,-0.5L0,-3.0L2.5,-0.5"/>
                </g>
                <g id="arrowLeft" xlink:href="#dirArrow" transform="rotate(270) translate(-36 17)" onmousedown="handlePan(-1,0)">
                  <use xlink:href="#rim" fill="#404040">
                        <set attributeName="fill" to="#808080" begin="arrowLeft.mouseover" end="arrowLeft.mouseout"/>
                  </use>
                  <path fill="none" stroke="white" stroke-width="1.5" d="M0,-3.0v7 M-2.5,-0.5L0,-3.0L2.5,-0.5"/>
                </g>
        </g>
        <svg viewBox="0 0 15 15" width="100%" height="30px" preserveAspectRatio="xMaxYMin meet">
         <g id="arrow_out" transform="scale(0.3 0.3)">
          <a xlink:href="unstructured__domains_8h__incl_org.svg" target="_base">
           <rect id="button" ry="5" rx="5" y="6" x="6" height="38" width="38"
                fill="#f2f5e9" fill-opacity="0.5" stroke="#606060" stroke-width="1.0"/>
           <path id="arrow"
             d="M 11.500037,31.436501 C 11.940474,20.09759 22.043105,11.32322 32.158766,21.979434 L 37.068811,17.246167 C 37.068811,17.246167 37.088388,32 37.088388,32 L 22.160133,31.978069 C 22.160133,31.978069 26.997745,27.140456 26.997745,27.140456 C 18.528582,18.264221 13.291696,25.230495 11.500037,31.436501 z"
             style="fill:#404040;"/>
          </a>
         </g>
        </svg>
</svg>
