<?xml version="1.0" encoding="UTF-8" standalone="no"?>
<!DOCTYPE svg PUBLIC "-//W3C//DTD SVG 1.1//EN"
 "http://www.w3.org/Graphics/SVG/1.1/DTD/svg11.dtd">
<!-- Generated by graphviz version 7.1.0 (0)
 -->
<!-- Title: ViennaRNA/utils/structures.h Pages: 1 -->
<!--zoomable 401 -->
<svg id="main" version="1.1" xmlns="http://www.w3.org/2000/svg" xmlns:xlink="http://www.w3.org/1999/xlink" xml:space="preserve" onload="init(evt)">
<style type="text/css"><![CDATA[
.edge:hover path { stroke: red; }
.edge:hover polygon { stroke: red; fill: red; }
]]></style>
<script type="text/javascript"><![CDATA[
var edges = document.getElementsByTagName('g');
if (edges && edges.length) {
  for (var i=0;i<edges.length;i++) {
    if (edges[i].id.substr(0,4)=='edge') {
      edges[i].setAttribute('class','edge');
    }
  }
}
]]></script>
        <defs>
                <circle id="rim" cx="0" cy="0" r="7"/>
                <circle id="rim2" cx="0" cy="0" r="3.5"/>
                <g id="zoomPlus">
                        <use xlink:href="#rim" fill="#404040">
                                <set attributeName="fill" to="#808080" begin="zoomplus.mouseover" end="zoomplus.mouseout"/>
                        </use>
                        <path d="M-4,0h8M0,-4v8" fill="none" stroke="white" stroke-width="1.5" pointer-events="none"/>
                </g>
                <g id="zoomMin">
                        <use xlink:href="#rim" fill="#404040">
                                <set attributeName="fill" to="#808080" begin="zoomminus.mouseover" end="zoomminus.mouseout"/>
                        </use>
                        <path d="M-4,0h8" fill="none" stroke="white" stroke-width="1.5" pointer-events="none"/>
                </g>
                <g id="dirArrow">
                        <path fill="none" stroke="white" stroke-width="1.5" d="M0,-3.0v7 M-2.5,-0.5L0,-3.0L2.5,-0.5"/>
                </g>
               <g id="resetDef">
                       <use xlink:href="#rim2" fill="#404040">
                               <set attributeName="fill" to="#808080" begin="reset.mouseover" end="reset.mouseout"/>
                       </use>
               </g>
        </defs>

<script type="text/javascript">
var viewWidth = 1307;
var viewHeight = 401;
var sectionId = 'dynsection-0';
</script>
<script xlink:href="svgpan.js"/>
<svg id="graph" class="graph">
<g id="viewport">
<title>ViennaRNA/utils/structures.h</title>
<!-- Node1 -->
<g id="node1" class="node">
<title>Node1</title>
<g id="a_node1"><a xlink:title="Various utility&#45; and helper&#45;functions for secondary structure parsing, converting,...">
<polygon fill="#999999" stroke="#666666" points="597,-393 453,-393 453,-374 597,-374 597,-393"/>
<text text-anchor="middle" x="525" y="-381" font-family="Helvetica,sans-Serif" font-size="10.00">ViennaRNA/utils/structures.h</text>
</a>
</g>
</g>
<!-- Node2 -->
<g id="node2" class="node">
<title>Node2</title>
<g id="a_node2"><a xlink:title=" ">
<polygon fill="#e0e0e0" stroke="#999999" points="450,-332.5 404,-332.5 404,-313.5 450,-313.5 450,-332.5"/>
<text text-anchor="middle" x="427" y="-320.5" font-family="Helvetica,sans-Serif" font-size="10.00">stdio.h</text>
</a>
</g>
</g>
<!-- Node1&#45;&gt;Node2 -->
<g id="edge1" class="edge">
<title>Node1&#45;&gt;Node2</title>
<path fill="none" stroke="#63b8ff" d="M510.12,-373.62C494.65,-364.38 470.17,-349.77 451.78,-338.79"/>
<polygon fill="#63b8ff" stroke="#63b8ff" points="453.7,-335.86 443.32,-333.74 450.12,-341.88 453.7,-335.86"/>
</g>
<!-- Node3 -->
<g id="node3" class="node">
<title>Node3</title>
<g id="a_node3"><a xlink:href="datastructures_2basic_8h.html" target="_top" xlink:title="Various data structures and pre&#45;processor macros.">
<polygon fill="white" stroke="#666666" points="640,-338 506,-338 506,-308 640,-308 640,-338"/>
<text text-anchor="start" x="514" y="-326" font-family="Helvetica,sans-Serif" font-size="10.00">ViennaRNA/datastructures</text>
<text text-anchor="middle" x="573" y="-315" font-family="Helvetica,sans-Serif" font-size="10.00">/basic.h</text>
</a>
</g>
</g>
<!-- Node1&#45;&gt;Node3 -->
<g id="edge2" class="edge">
<title>Node1&#45;&gt;Node3</title>
<path fill="none" stroke="#63b8ff" d="M527.13,-373.87C531.48,-366.67 539.63,-356.07 547.96,-346.49"/>
<polygon fill="#63b8ff" stroke="#63b8ff" points="550.41,-349 554.53,-339.24 545.22,-344.3 550.41,-349"/>
</g>
<!-- Node3&#45;&gt;Node1 -->
<g id="edge41" class="edge">
<title>Node3&#45;&gt;Node1</title>
<path fill="none" stroke="#63b8ff" d="M567.07,-338.44C561.37,-346.62 553.03,-356.89 545.18,-365.46"/>
<polygon fill="#63b8ff" stroke="#63b8ff" points="542.78,-362.9 538.35,-372.53 547.82,-367.77 542.78,-362.9"/>
</g>
<!-- Node4 -->
<g id="node4" class="node">
<title>Node4</title>
<g id="a_node4"><a xlink:href="constants_8h.html" target="_top" xlink:title="Energy parameter constants.">
<polygon fill="white" stroke="#666666" points="158,-79.5 0,-79.5 0,-60.5 158,-60.5 158,-79.5"/>
<text text-anchor="middle" x="79" y="-67.5" font-family="Helvetica,sans-Serif" font-size="10.00">ViennaRNA/params/constants.h</text>
</a>
</g>
</g>
<!-- Node3&#45;&gt;Node4 -->
<g id="edge3" class="edge">
<title>Node3&#45;&gt;Node4</title>
<path fill="none" stroke="#63b8ff" d="M505.87,-313.52C400.58,-300.13 207.81,-275.3 201,-272 131.42,-238.27 106.17,-222.19 76,-151 67.88,-131.83 70.29,-107.7 73.69,-90.98"/>
<polygon fill="#63b8ff" stroke="#63b8ff" points="77.08,-91.85 75.97,-81.32 70.26,-90.24 77.08,-91.85"/>
</g>
<!-- Node6 -->
<g id="node6" class="node">
<title>Node6</title>
<g id="a_node6"><a xlink:href="fold__compound_8h.html" target="_top" xlink:title="The Basic Fold Compound API.">
<polygon fill="white" stroke="#666666" points="692,-206 546,-206 546,-187 692,-187 692,-206"/>
<text text-anchor="middle" x="619" y="-194" font-family="Helvetica,sans-Serif" font-size="10.00">ViennaRNA/fold_compound.h</text>
</a>
</g>
</g>
<!-- Node3&#45;&gt;Node6 -->
<g id="edge5" class="edge">
<title>Node3&#45;&gt;Node6</title>
<path fill="none" stroke="#63b8ff" d="M606.71,-307.53C621.27,-299.38 636.82,-287.64 645,-272 654.69,-253.48 643.59,-230.57 633.04,-215.08"/>
<polygon fill="#63b8ff" stroke="#63b8ff" points="636.07,-213.29 627.32,-207.32 630.44,-217.44 636.07,-213.29"/>
</g>
<!-- Node7 -->
<g id="node7" class="node">
<title>Node7</title>
<g id="a_node7"><a xlink:href="model_8h.html" target="_top" xlink:title="The model details data structure and its corresponding modifiers.">
<polygon fill="white" stroke="#666666" points="304,-79.5 198,-79.5 198,-60.5 304,-60.5 304,-79.5"/>
<text text-anchor="middle" x="251" y="-67.5" font-family="Helvetica,sans-Serif" font-size="10.00">ViennaRNA/model.h</text>
</a>
</g>
</g>
<!-- Node3&#45;&gt;Node7 -->
<g id="edge33" class="edge">
<title>Node3&#45;&gt;Node7</title>
<path fill="none" stroke="#63b8ff" d="M521.18,-307.5C452.61,-285.51 333.19,-236.89 271,-151 258.23,-133.36 253.57,-108.43 251.9,-91.1"/>
<polygon fill="#63b8ff" stroke="#63b8ff" points="255.4,-91.06 251.23,-81.33 248.42,-91.54 255.4,-91.06"/>
</g>
<!-- Node8 -->
<g id="node8" class="node">
<title>Node8</title>
<g id="a_node8"><a xlink:href="params_2basic_8h.html" target="_top" xlink:title="Functions to deal with sets of energy parameters.">
<polygon fill="white" stroke="#666666" points="223,-145.5 85,-145.5 85,-126.5 223,-126.5 223,-145.5"/>
<text text-anchor="middle" x="154" y="-133.5" font-family="Helvetica,sans-Serif" font-size="10.00">ViennaRNA/params/basic.h</text>
</a>
</g>
</g>
<!-- Node3&#45;&gt;Node8 -->
<g id="edge34" class="edge">
<title>Node3&#45;&gt;Node8</title>
<path fill="none" stroke="#63b8ff" d="M505.64,-314.18C408.4,-302.1 239.33,-279.49 228,-272 186.01,-244.27 161.66,-187.27 154.45,-156.97"/>
<polygon fill="#63b8ff" stroke="#63b8ff" points="157.92,-156.47 152.68,-147.27 151.03,-157.73 157.92,-156.47"/>
</g>
<!-- Node10 -->
<g id="node10" class="node">
<title>Node10</title>
<g id="a_node10"><a xlink:href="dp__matrices_8h.html" target="_top" xlink:title="Functions to deal with standard dynamic programming (DP) matrices.">
<polygon fill="white" stroke="#666666" points="412.5,-145.5 279.5,-145.5 279.5,-126.5 412.5,-126.5 412.5,-145.5"/>
<text text-anchor="middle" x="346" y="-133.5" font-family="Helvetica,sans-Serif" font-size="10.00">ViennaRNA/dp_matrices.h</text>
</a>
</g>
</g>
<!-- Node3&#45;&gt;Node10 -->
<g id="edge35" class="edge">
<title>Node3&#45;&gt;Node10</title>
<path fill="none" stroke="#63b8ff" d="M543.82,-307.66C528.18,-297.95 509.15,-284.63 493,-272 441.51,-231.75 384.16,-180.29 358.73,-154.05"/>
<polygon fill="#63b8ff" stroke="#63b8ff" points="361.53,-151.92 352.15,-146.99 356.4,-156.69 361.53,-151.92"/>
</g>
<!-- Node11 -->
<g id="node11" class="node">
<title>Node11</title>
<g id="a_node11"><a xlink:href="hard_8h.html" target="_top" xlink:title="Functions and data structures for handling of secondary structure hard constraints.">
<polygon fill="white" stroke="#666666" points="893.5,-151 774.5,-151 774.5,-121 893.5,-121 893.5,-151"/>
<text text-anchor="start" x="782.5" y="-139" font-family="Helvetica,sans-Serif" font-size="10.00">ViennaRNA/constraints</text>
<text text-anchor="middle" x="834" y="-128" font-family="Helvetica,sans-Serif" font-size="10.00">/hard.h</text>
</a>
</g>
</g>
<!-- Node3&#45;&gt;Node11 -->
<g id="edge36" class="edge">
<title>Node3&#45;&gt;Node11</title>
<path fill="none" stroke="#63b8ff" d="M600.23,-307.62C617.68,-298.09 640.61,-285 660,-272 715.15,-235.02 775.55,-186.08 808.7,-158.43"/>
<polygon fill="#63b8ff" stroke="#63b8ff" points="810.72,-161.3 816.14,-152.2 806.23,-155.94 810.72,-161.3"/>
</g>
<!-- Node13 -->
<g id="node13" class="node">
<title>Node13</title>
<g id="a_node13"><a xlink:href="soft_8h.html" target="_top" xlink:title="Functions and data structures for secondary structure soft constraints.">
<polygon fill="white" stroke="#666666" points="1030.5,-151 911.5,-151 911.5,-121 1030.5,-121 1030.5,-151"/>
<text text-anchor="start" x="919.5" y="-139" font-family="Helvetica,sans-Serif" font-size="10.00">ViennaRNA/constraints</text>
<text text-anchor="middle" x="971" y="-128" font-family="Helvetica,sans-Serif" font-size="10.00">/soft.h</text>
</a>
</g>
</g>
<!-- Node3&#45;&gt;Node13 -->
<g id="edge37" class="edge">
<title>Node3&#45;&gt;Node13</title>
<path fill="none" stroke="#63b8ff" d="M602.43,-307.53C625.42,-297.87 657.81,-284.66 686,-272 772.41,-233.21 871.72,-183.29 927.48,-156.33"/>
<polygon fill="#63b8ff" stroke="#63b8ff" points="928.84,-159.56 936.34,-152.07 925.81,-153.25 928.84,-159.56"/>
</g>
<!-- Node14 -->
<g id="node14" class="node">
<title>Node14</title>
<g id="a_node14"><a xlink:href="grammar_8h.html" target="_top" xlink:title="Implementations for the RNA folding grammar.">
<polygon fill="white" stroke="#666666" points="1165.5,-145.5 1048.5,-145.5 1048.5,-126.5 1165.5,-126.5 1165.5,-145.5"/>
<text text-anchor="middle" x="1107" y="-133.5" font-family="Helvetica,sans-Serif" font-size="10.00">ViennaRNA/grammar.h</text>
</a>
</g>
</g>
<!-- Node3&#45;&gt;Node14 -->
<g id="edge38" class="edge">
<title>Node3&#45;&gt;Node14</title>
<path fill="none" stroke="#63b8ff" d="M627.74,-307.59C662.42,-298.16 708.1,-285.18 748,-272 870.28,-231.62 1012.68,-175.21 1075.02,-150.03"/>
<polygon fill="#63b8ff" stroke="#63b8ff" points="1076.01,-153.41 1083.96,-146.41 1073.38,-146.92 1076.01,-153.41"/>
</g>
<!-- Node15 -->
<g id="node15" class="node">
<title>Node15</title>
<g id="a_node15"><a xlink:href="structured__domains_8h.html" target="_top" xlink:title="This module provides interfaces that deal with additional structured domains in the folding grammar.">
<polygon fill="white" stroke="#666666" points="1298.5,-151 1183.5,-151 1183.5,-121 1298.5,-121 1298.5,-151"/>
<text text-anchor="start" x="1191.5" y="-139" font-family="Helvetica,sans-Serif" font-size="10.00">ViennaRNA/structured</text>
<text text-anchor="middle" x="1241" y="-128" font-family="Helvetica,sans-Serif" font-size="10.00">_domains.h</text>
</a>
</g>
</g>
<!-- Node3&#45;&gt;Node15 -->
<g id="edge39" class="edge">
<title>Node3&#45;&gt;Node15</title>
<path fill="none" stroke="#63b8ff" d="M640.33,-309.03C686.61,-299.72 749.32,-286.33 804,-272 943.89,-235.33 1105.92,-182.5 1187.78,-155.07"/>
<polygon fill="#63b8ff" stroke="#63b8ff" points="1188.75,-158.44 1197.12,-151.94 1186.52,-151.8 1188.75,-158.44"/>
</g>
<!-- Node16 -->
<g id="node16" class="node">
<title>Node16</title>
<g id="a_node16"><a xlink:href="unstructured__domains_8h.html" target="_top" xlink:title="Functions to modify unstructured domains, e.g. to incorporate ligands binding to unpaired stretches.">
<polygon fill="white" stroke="#666666" points="635.5,-272 510.5,-272 510.5,-242 635.5,-242 635.5,-272"/>
<text text-anchor="start" x="518.5" y="-260" font-family="Helvetica,sans-Serif" font-size="10.00">ViennaRNA/unstructured</text>
<text text-anchor="middle" x="573" y="-249" font-family="Helvetica,sans-Serif" font-size="10.00">_domains.h</text>
</a>
</g>
</g>
<!-- Node3&#45;&gt;Node16 -->
<g id="edge40" class="edge">
<title>Node3&#45;&gt;Node16</title>
<path fill="none" stroke="#63b8ff" d="M567.28,-307.8C566.36,-300.67 566.05,-291.82 566.37,-283.56"/>
<polygon fill="#63b8ff" stroke="#63b8ff" points="569.86,-283.92 567.16,-273.67 562.88,-283.36 569.86,-283.92"/>
</g>
<!-- Node5 -->
<g id="node5" class="node">
<title>Node5</title>
<g id="a_node5"><a xlink:title=" ">
<polygon fill="#e0e0e0" stroke="#999999" points="103,-19 55,-19 55,0 103,0 103,-19"/>
<text text-anchor="middle" x="79" y="-7" font-family="Helvetica,sans-Serif" font-size="10.00">limits.h</text>
</a>
</g>
</g>
<!-- Node4&#45;&gt;Node5 -->
<g id="edge4" class="edge">
<title>Node4&#45;&gt;Node5</title>
<path fill="none" stroke="#63b8ff" d="M79,-60.37C79,-52.5 79,-40.6 79,-30.39"/>
<polygon fill="#63b8ff" stroke="#63b8ff" points="82.5,-30.68 79,-20.68 75.5,-30.68 82.5,-30.68"/>
</g>
<!-- Node6&#45;&gt;Node7 -->
<g id="edge6" class="edge">
<title>Node6&#45;&gt;Node7</title>
<path fill="none" stroke="#63b8ff" d="M567.69,-186.52C535.57,-179.62 493.98,-168.29 460,-151 440.82,-141.24 441.12,-130.87 422,-121 386.93,-102.9 344.35,-90.43 310.45,-82.46"/>
<polygon fill="#63b8ff" stroke="#63b8ff" points="311.31,-79.07 300.78,-80.27 309.76,-85.9 311.31,-79.07"/>
</g>
<!-- Node6&#45;&gt;Node8 -->
<g id="edge7" class="edge">
<title>Node6&#45;&gt;Node8</title>
<path fill="none" stroke="#63b8ff" d="M545.69,-186.9C459.98,-176.4 318.86,-158.66 231.42,-147.41"/>
<polygon fill="#63b8ff" stroke="#63b8ff" points="232.11,-143.97 221.74,-146.16 231.21,-150.91 232.11,-143.97"/>
</g>
<!-- Node9 -->
<g id="node9" class="node">
<title>Node9</title>
<g id="a_node9"><a xlink:href="sequence_8h.html" target="_top" xlink:title="Functions and data structures related to sequence representations ,.">
<polygon fill="white" stroke="#666666" points="591,-145.5 469,-145.5 469,-126.5 591,-126.5 591,-145.5"/>
<text text-anchor="middle" x="530" y="-133.5" font-family="Helvetica,sans-Serif" font-size="10.00">ViennaRNA/sequence.h</text>
</a>
</g>
</g>
<!-- Node6&#45;&gt;Node9 -->
<g id="edge12" class="edge">
<title>Node6&#45;&gt;Node9</title>
<path fill="none" stroke="#63b8ff" d="M600.47,-186.62C584.85,-177.6 562.98,-163.45 547.63,-152.56"/>
<polygon fill="#63b8ff" stroke="#63b8ff" points="549.98,-149.94 539.84,-146.86 545.84,-155.59 549.98,-149.94"/>
</g>
<!-- Node6&#45;&gt;Node10 -->
<g id="edge14" class="edge">
<title>Node6&#45;&gt;Node10</title>
<path fill="none" stroke="#63b8ff" d="M572.22,-186.55C522.41,-176.34 444.17,-159.6 393.94,-148.45"/>
<polygon fill="#63b8ff" stroke="#63b8ff" points="394.73,-145.04 384.21,-146.28 393.21,-151.87 394.73,-145.04"/>
</g>
<!-- Node6&#45;&gt;Node11 -->
<g id="edge17" class="edge">
<title>Node6&#45;&gt;Node11</title>
<path fill="none" stroke="#63b8ff" d="M646.64,-186.62C676.2,-178.08 724.01,-164.96 763.98,-154.36"/>
<polygon fill="#63b8ff" stroke="#63b8ff" points="764.78,-157.77 773.56,-151.83 762.99,-151 764.78,-157.77"/>
</g>
<!-- Node6&#45;&gt;Node13 -->
<g id="edge21" class="edge">
<title>Node6&#45;&gt;Node13</title>
<path fill="none" stroke="#63b8ff" d="M675,-186.5C730.68,-178.07 818.25,-164.72 894,-151 896,-150.64 898.04,-150.26 900.09,-149.88"/>
<polygon fill="#63b8ff" stroke="#63b8ff" points="900.59,-153.34 909.75,-148.02 899.27,-146.47 900.59,-153.34"/>
</g>
<!-- Node6&#45;&gt;Node14 -->
<g id="edge25" class="edge">
<title>Node6&#45;&gt;Node14</title>
<path fill="none" stroke="#63b8ff" d="M692.16,-189.47C774.76,-182.49 912.83,-169.54 1031,-151 1036.44,-150.15 1042.1,-149.14 1047.78,-148.07"/>
<polygon fill="#63b8ff" stroke="#63b8ff" points="1048.04,-151.59 1057.19,-146.24 1046.71,-144.72 1048.04,-151.59"/>
</g>
<!-- Node6&#45;&gt;Node15 -->
<g id="edge27" class="edge">
<title>Node6&#45;&gt;Node15</title>
<path fill="none" stroke="#63b8ff" d="M692.2,-192.66C796.6,-187.93 994.46,-176.51 1171.75,-151.36"/>
<polygon fill="#63b8ff" stroke="#63b8ff" points="1172.23,-154.82 1181.63,-149.93 1171.23,-147.89 1172.23,-154.82"/>
</g>
<!-- Node6&#45;&gt;Node16 -->
<g id="edge28" class="edge">
<title>Node6&#45;&gt;Node16</title>
<path fill="none" stroke="#63b8ff" d="M617.14,-206.18C613.11,-213.23 605.57,-223.53 597.75,-232.93"/>
<polygon fill="#63b8ff" stroke="#63b8ff" points="595.19,-230.55 591.28,-240.4 600.47,-235.14 595.19,-230.55"/>
</g>
<!-- Node17 -->
<g id="node17" class="node">
<title>Node17</title>
<g id="a_node17"><a xlink:href="zscore_8h_source.html" target="_top" xlink:title=" ">
<polygon fill="white" stroke="#666666" points="756.5,-145.5 647.5,-145.5 647.5,-126.5 756.5,-126.5 756.5,-145.5"/>
<text text-anchor="middle" x="702" y="-133.5" font-family="Helvetica,sans-Serif" font-size="10.00">ViennaRNA/zscore.h</text>
</a>
</g>
</g>
<!-- Node6&#45;&gt;Node17 -->
<g id="edge32" class="edge">
<title>Node6&#45;&gt;Node17</title>
<path fill="none" stroke="#63b8ff" d="M631.61,-186.62C644.4,-177.6 664.48,-163.45 679.92,-152.56"/>
<polygon fill="#63b8ff" stroke="#63b8ff" points="681.88,-155.46 688.04,-146.84 677.85,-149.74 681.88,-155.46"/>
</g>
<!-- Node8&#45;&gt;Node3 -->
<g id="edge9" class="edge">
<title>Node8&#45;&gt;Node3</title>
<path fill="none" stroke="#63b8ff" d="M160.62,-145.78C173.06,-170.38 198.02,-240.31 246,-272 256.45,-278.9 401.05,-298.67 494.48,-311.18"/>
<polygon fill="#63b8ff" stroke="#63b8ff" points="494.02,-314.65 504.39,-312.51 494.94,-307.71 494.02,-314.65"/>
</g>
<!-- Node8&#45;&gt;Node4 -->
<g id="edge8" class="edge">
<title>Node8&#45;&gt;Node4</title>
<path fill="none" stroke="#63b8ff" d="M143.57,-126.1C131.82,-116.07 112.46,-99.56 98.01,-87.22"/>
<polygon fill="#63b8ff" stroke="#63b8ff" points="100.37,-84.63 90.49,-80.81 95.83,-89.96 100.37,-84.63"/>
</g>
<!-- Node8&#45;&gt;Node6 -->
<g id="edge10" class="edge">
<title>Node8&#45;&gt;Node6</title>
<path fill="none" stroke="#63b8ff" d="M223.22,-145.1C308.45,-155.52 452.69,-173.65 541.54,-185.09"/>
<polygon fill="#63b8ff" stroke="#63b8ff" points="541.03,-188.55 551.39,-186.36 541.92,-181.61 541.03,-188.55"/>
</g>
<!-- Node8&#45;&gt;Node7 -->
<g id="edge11" class="edge">
<title>Node8&#45;&gt;Node7</title>
<path fill="none" stroke="#63b8ff" d="M167.49,-126.1C183.2,-115.74 209.4,-98.45 228.27,-86"/>
<polygon fill="#63b8ff" stroke="#63b8ff" points="229.94,-89.09 236.36,-80.66 226.09,-83.24 229.94,-89.09"/>
</g>
<!-- Node9&#45;&gt;Node6 -->
<g id="edge13" class="edge">
<title>Node9&#45;&gt;Node6</title>
<path fill="none" stroke="#63b8ff" d="M548.67,-145.97C564.33,-155.02 586.2,-169.17 601.51,-180.04"/>
<polygon fill="#63b8ff" stroke="#63b8ff" points="599.14,-182.64 609.27,-185.72 603.27,-176.99 599.14,-182.64"/>
</g>
<!-- Node10&#45;&gt;Node3 -->
<g id="edge15" class="edge">
<title>Node10&#45;&gt;Node3</title>
<path fill="none" stroke="#63b8ff" d="M360.02,-145.88C388.55,-167.99 453.43,-227 511,-272 523.75,-281.96 538.28,-292.36 550.21,-301.08"/>
<polygon fill="#63b8ff" stroke="#63b8ff" points="547.78,-303.64 557.91,-306.76 551.94,-298.01 547.78,-303.64"/>
</g>
<!-- Node10&#45;&gt;Node6 -->
<g id="edge16" class="edge">
<title>Node10&#45;&gt;Node6</title>
<path fill="none" stroke="#63b8ff" d="M392.78,-145.95C442.58,-156.16 520.82,-172.89 571.06,-184.05"/>
<polygon fill="#63b8ff" stroke="#63b8ff" points="570.26,-187.46 580.79,-186.22 571.79,-180.63 570.26,-187.46"/>
</g>
<!-- Node11&#45;&gt;Node6 -->
<g id="edge18" class="edge">
<title>Node11&#45;&gt;Node6</title>
<path fill="none" stroke="#63b8ff" d="M786.84,-151.44C751.54,-161.38 703.48,-174.42 667.79,-183.73"/>
<polygon fill="#63b8ff" stroke="#63b8ff" points="666.93,-180.34 658.13,-186.24 668.69,-187.11 666.93,-180.34"/>
</g>
<!-- Node12 -->
<g id="node12" class="node">
<title>Node12</title>
<g id="a_node12"><a xlink:href="constraints_2basic_8h.html" target="_top" xlink:title="Functions and data structures for constraining secondary structure predictions and evaluation.">
<polygon fill="white" stroke="#666666" points="893.5,-85 774.5,-85 774.5,-55 893.5,-55 893.5,-85"/>
<text text-anchor="start" x="782.5" y="-73" font-family="Helvetica,sans-Serif" font-size="10.00">ViennaRNA/constraints</text>
<text text-anchor="middle" x="834" y="-62" font-family="Helvetica,sans-Serif" font-size="10.00">/basic.h</text>
</a>
</g>
</g>
<!-- Node11&#45;&gt;Node12 -->
<g id="edge19" class="edge">
<title>Node11&#45;&gt;Node12</title>
<path fill="none" stroke="#63b8ff" d="M834,-120.8C834,-113.67 834,-104.82 834,-96.56"/>
<polygon fill="#63b8ff" stroke="#63b8ff" points="837.5,-96.68 834,-86.68 830.5,-96.68 837.5,-96.68"/>
</g>
<!-- Node12&#45;&gt;Node6 -->
<g id="edge20" class="edge">
<title>Node12&#45;&gt;Node6</title>
<path fill="none" stroke="#63b8ff" d="M774.42,-79.56C724.38,-87.92 658.07,-102.14 639,-121 624.58,-135.26 620.22,-158.71 619.07,-175.49"/>
<polygon fill="#63b8ff" stroke="#63b8ff" points="615.58,-175.14 618.74,-185.25 622.57,-175.37 615.58,-175.14"/>
</g>
<!-- Node13&#45;&gt;Node3 -->
<g id="edge22" class="edge">
<title>Node13&#45;&gt;Node3</title>
<path fill="none" stroke="#63b8ff" d="M948.46,-151.42C902.58,-176.81 795.97,-230.71 704,-272 679.55,-282.97 651.95,-294.37 628.33,-303.5"/>
<polygon fill="#63b8ff" stroke="#63b8ff" points="627.29,-300.15 619.2,-306.99 629.79,-306.69 627.29,-300.15"/>
</g>
<!-- Node13&#45;&gt;Node6 -->
<g id="edge23" class="edge">
<title>Node13&#45;&gt;Node6</title>
<path fill="none" stroke="#63b8ff" d="M911.11,-151.16C840.14,-164 758.95,-176.49 700.15,-184.92"/>
<polygon fill="#63b8ff" stroke="#63b8ff" points="699.97,-181.41 690.56,-186.29 700.95,-188.34 699.97,-181.41"/>
</g>
<!-- Node13&#45;&gt;Node12 -->
<g id="edge24" class="edge">
<title>Node13&#45;&gt;Node12</title>
<path fill="none" stroke="#63b8ff" d="M940.25,-120.64C920.95,-111.62 895.83,-99.89 874.87,-90.09"/>
<polygon fill="#63b8ff" stroke="#63b8ff" points="876.56,-87.02 866.01,-85.96 873.59,-93.36 876.56,-87.02"/>
</g>
<!-- Node14&#45;&gt;Node6 -->
<g id="edge26" class="edge">
<title>Node14&#45;&gt;Node6</title>
<path fill="none" stroke="#63b8ff" d="M1076.21,-145.95C1067.45,-147.8 1057.92,-149.6 1049,-151 930,-169.67 790.82,-182.68 703.71,-189.62"/>
<polygon fill="#63b8ff" stroke="#63b8ff" points="703.5,-186.12 693.8,-190.39 704.05,-193.1 703.5,-186.12"/>
</g>
<!-- Node16&#45;&gt;Node1 -->
<g id="edge31" class="edge">
<title>Node16&#45;&gt;Node1</title>
<path fill="none" stroke="#63b8ff" d="M536.68,-272.46C521.55,-280.5 505.54,-292.15 497,-308 487,-326.56 498.86,-349.46 510.08,-364.93"/>
<polygon fill="#63b8ff" stroke="#63b8ff" points="507.27,-367.01 516.19,-372.72 512.77,-362.69 507.27,-367.01"/>
</g>
<!-- Node16&#45;&gt;Node3 -->
<g id="edge29" class="edge">
<title>Node16&#45;&gt;Node3</title>
<path fill="none" stroke="#63b8ff" d="M578.71,-272.16C579.64,-279.28 579.95,-288.13 579.63,-296.39"/>
<polygon fill="#63b8ff" stroke="#63b8ff" points="576.15,-296.04 578.84,-306.29 583.12,-296.6 576.15,-296.04"/>
</g>
<!-- Node16&#45;&gt;Node6 -->
<g id="edge30" class="edge">
<title>Node16&#45;&gt;Node6</title>
<path fill="none" stroke="#63b8ff" d="M578.46,-241.54C583.92,-233.3 591.97,-222.94 599.58,-214.34"/>
<polygon fill="#63b8ff" stroke="#63b8ff" points="601.91,-216.98 606.18,-207.28 596.79,-212.2 601.91,-216.98"/>
</g>
</g>
</svg>
        <g id="navigator" transform="translate(0 0)" fill="#404254">
                <rect fill="#f2f5e9" fill-opacity="0.5" stroke="#606060" stroke-width=".5" x="0" y="0" width="60" height="60"/>
                <use id="zoomplus" xlink:href="#zoomPlus" x="17" y="9" onmousedown="handleZoom(evt,'in')"/>
                <use id="zoomminus" xlink:href="#zoomMin" x="42" y="9" onmousedown="handleZoom(evt,'out')"/>
                <use id="reset" xlink:href="#resetDef" x="30" y="36" onmousedown="handleReset()"/>
                <g id="arrowUp" xlink:href="#dirArrow" transform="translate(30 24)" onmousedown="handlePan(0,-1)">
                  <use xlink:href="#rim" fill="#404040">
                        <set attributeName="fill" to="#808080" begin="arrowUp.mouseover" end="arrowUp.mouseout"/>
                  </use>
                  <path fill="none" stroke="white" stroke-width="1.5" d="M0,-3.0v7 M-2.5,-0.5L0,-3.0L2.5,-0.5"/>
                </g>
                <g id="arrowRight" xlink:href="#dirArrow" transform="rotate(90) translate(36 -43)" onmousedown="handlePan(1,0)">
                  <use xlink:href="#rim" fill="#404040">
                        <set attributeName="fill" to="#808080" begin="arrowRight.mouseover" end="arrowRight.mouseout"/>
                  </use>
                  <path fill="none" stroke="white" stroke-width="1.5" d="M0,-3.0v7 M-2.5,-0.5L0,-3.0L2.5,-0.5"/>
                </g>
                <g id="arrowDown" xlink:href="#dirArrow" transform="rotate(180) translate(-30 -48)" onmousedown="handlePan(0,1)">
                  <use xlink:href="#rim" fill="#404040">
                        <set attributeName="fill" to="#808080" begin="arrowDown.mouseover" end="arrowDown.mouseout"/>
                  </use>
                  <path fill="none" stroke="white" stroke-width="1.5" d="M0,-3.0v7 M-2.5,-0.5L0,-3.0L2.5,-0.5"/>
                </g>
                <g id="arrowLeft" xlink:href="#dirArrow" transform="rotate(270) translate(-36 17)" onmousedown="handlePan(-1,0)">
                  <use xlink:href="#rim" fill="#404040">
                        <set attributeName="fill" to="#808080" begin="arrowLeft.mouseover" end="arrowLeft.mouseout"/>
                  </use>
                  <path fill="none" stroke="white" stroke-width="1.5" d="M0,-3.0v7 M-2.5,-0.5L0,-3.0L2.5,-0.5"/>
                </g>
        </g>
        <svg viewBox="0 0 15 15" width="100%" height="30px" preserveAspectRatio="xMaxYMin meet">
         <g id="arrow_out" transform="scale(0.3 0.3)">
          <a xlink:href="utils_2structures_8h__incl_org.svg" target="_base">
           <rect id="button" ry="5" rx="5" y="6" x="6" height="38" width="38"
                fill="#f2f5e9" fill-opacity="0.5" stroke="#606060" stroke-width="1.0"/>
           <path id="arrow"
             d="M 11.500037,31.436501 C 11.940474,20.09759 22.043105,11.32322 32.158766,21.979434 L 37.068811,17.246167 C 37.068811,17.246167 37.088388,32 37.088388,32 L 22.160133,31.978069 C 22.160133,31.978069 26.997745,27.140456 26.997745,27.140456 C 18.528582,18.264221 13.291696,25.230495 11.500037,31.436501 z"
             style="fill:#404040;"/>
          </a>
         </g>
        </svg>
</svg>
