<?xml version="1.0" encoding="UTF-8" standalone="no"?>
<!DOCTYPE svg PUBLIC "-//W3C//DTD SVG 1.1//EN"
 "http://www.w3.org/Graphics/SVG/1.1/DTD/svg11.dtd">
<!-- Generated by graphviz version 7.1.0 (0)
 -->
<!-- Title: ViennaRNA/utils.h Pages: 1 -->
<!--zoomable 390 -->
<svg id="main" version="1.1" xmlns="http://www.w3.org/2000/svg" xmlns:xlink="http://www.w3.org/1999/xlink" xml:space="preserve" onload="init(evt)">
<style type="text/css"><![CDATA[
.edge:hover path { stroke: red; }
.edge:hover polygon { stroke: red; fill: red; }
]]></style>
<script type="text/javascript"><![CDATA[
var edges = document.getElementsByTagName('g');
if (edges && edges.length) {
  for (var i=0;i<edges.length;i++) {
    if (edges[i].id.substr(0,4)=='edge') {
      edges[i].setAttribute('class','edge');
    }
  }
}
]]></script>
        <defs>
                <circle id="rim" cx="0" cy="0" r="7"/>
                <circle id="rim2" cx="0" cy="0" r="3.5"/>
                <g id="zoomPlus">
                        <use xlink:href="#rim" fill="#404040">
                                <set attributeName="fill" to="#808080" begin="zoomplus.mouseover" end="zoomplus.mouseout"/>
                        </use>
                        <path d="M-4,0h8M0,-4v8" fill="none" stroke="white" stroke-width="1.5" pointer-events="none"/>
                </g>
                <g id="zoomMin">
                        <use xlink:href="#rim" fill="#404040">
                                <set attributeName="fill" to="#808080" begin="zoomminus.mouseover" end="zoomminus.mouseout"/>
                        </use>
                        <path d="M-4,0h8" fill="none" stroke="white" stroke-width="1.5" pointer-events="none"/>
                </g>
                <g id="dirArrow">
                        <path fill="none" stroke="white" stroke-width="1.5" d="M0,-3.0v7 M-2.5,-0.5L0,-3.0L2.5,-0.5"/>
                </g>
               <g id="resetDef">
                       <use xlink:href="#rim2" fill="#404040">
                               <set attributeName="fill" to="#808080" begin="reset.mouseover" end="reset.mouseout"/>
                       </use>
               </g>
        </defs>

<script type="text/javascript">
var viewWidth = 1690;
var viewHeight = 390;
var sectionId = 'dynsection-0';
</script>
<script xlink:href="svgpan.js"/>
<svg id="graph" class="graph">
<g id="viewport">
<title>ViennaRNA/utils.h</title>
<!-- Node1 -->
<g id="node1" class="node">
<title>Node1</title>
<g id="a_node1"><a xlink:title="Use ViennaRNA/utils/basic.h instead.">
<polygon fill="#999999" stroke="#666666" points="556,-382 458,-382 458,-363 556,-363 556,-382"/>
<text text-anchor="middle" x="507" y="-370" font-family="Helvetica,sans-Serif" font-size="10.00">ViennaRNA/utils.h</text>
</a>
</g>
</g>
<!-- Node2 -->
<g id="node2" class="node">
<title>Node2</title>
<g id="a_node2"><a xlink:href="utils_2basic_8h.html" target="_top" xlink:title="General utility&#45; and helper&#45;functions used throughout the ViennaRNA Package.">
<polygon fill="white" stroke="#666666" points="569,-327 445,-327 445,-308 569,-308 569,-327"/>
<text text-anchor="middle" x="507" y="-315" font-family="Helvetica,sans-Serif" font-size="10.00">ViennaRNA/utils/basic.h</text>
</a>
</g>
</g>
<!-- Node1&#45;&gt;Node2 -->
<g id="edge1" class="edge">
<title>Node1&#45;&gt;Node2</title>
<path fill="none" stroke="#63b8ff" d="M507,-362.75C507,-356.27 507,-347.16 507,-338.9"/>
<polygon fill="#63b8ff" stroke="#63b8ff" points="510.5,-338.96 507,-328.96 503.5,-338.96 510.5,-338.96"/>
</g>
<!-- Node19 -->
<g id="node19" class="node">
<title>Node19</title>
<g id="a_node19"><a xlink:href="utils_2structures_8h.html" target="_top" xlink:title="Various utility&#45; and helper&#45;functions for secondary structure parsing, converting,...">
<polygon fill="white" stroke="#666666" points="308,-79.5 164,-79.5 164,-60.5 308,-60.5 308,-79.5"/>
<text text-anchor="middle" x="236" y="-67.5" font-family="Helvetica,sans-Serif" font-size="10.00">ViennaRNA/utils/structures.h</text>
</a>
</g>
</g>
<!-- Node1&#45;&gt;Node19 -->
<g id="edge49" class="edge">
<title>Node1&#45;&gt;Node19</title>
<path fill="none" stroke="#63b8ff" d="M457.84,-364.82C366.77,-351.07 181,-315.91 181,-258 181,-258 181,-258 181,-195.5 181,-154.72 205.99,-112.35 222.28,-89.06"/>
<polygon fill="#63b8ff" stroke="#63b8ff" points="225.09,-91.14 228.14,-81 219.43,-87.03 225.09,-91.14"/>
</g>
<!-- Node21 -->
<g id="node21" class="node">
<title>Node21</title>
<g id="a_node21"><a xlink:href="strings_8h.html" target="_top" xlink:title="General utility&#45; and helper&#45;functions for RNA sequence and structure strings used throughout the Vien...">
<polygon fill="white" stroke="#666666" points="717,-327 587,-327 587,-308 717,-308 717,-327"/>
<text text-anchor="middle" x="652" y="-315" font-family="Helvetica,sans-Serif" font-size="10.00">ViennaRNA/utils/strings.h</text>
</a>
</g>
</g>
<!-- Node1&#45;&gt;Node21 -->
<g id="edge46" class="edge">
<title>Node1&#45;&gt;Node21</title>
<path fill="none" stroke="#63b8ff" d="M531.6,-362.51C555.07,-353.93 590.67,-340.92 617.07,-331.27"/>
<polygon fill="#63b8ff" stroke="#63b8ff" points="618.15,-334.6 626.34,-327.88 615.75,-328.02 618.15,-334.6"/>
</g>
<!-- Node22 -->
<g id="node22" class="node">
<title>Node22</title>
<g id="a_node22"><a xlink:href="io_2utils_8h.html" target="_top" xlink:title="Several utilities for file handling.">
<polygon fill="white" stroke="#666666" points="108,-206 0,-206 0,-187 108,-187 108,-206"/>
<text text-anchor="middle" x="54" y="-194" font-family="Helvetica,sans-Serif" font-size="10.00">ViennaRNA/io/utils.h</text>
</a>
</g>
</g>
<!-- Node1&#45;&gt;Node22 -->
<g id="edge50" class="edge">
<title>Node1&#45;&gt;Node22</title>
<path fill="none" stroke="#63b8ff" d="M457.56,-369.31C375.72,-364.97 216.2,-353.35 167,-327 118.49,-301.02 81.22,-245.25 64.18,-216.11"/>
<polygon fill="#63b8ff" stroke="#63b8ff" points="67.38,-214.65 59.4,-207.68 61.29,-218.1 67.38,-214.65"/>
</g>
<!-- Node23 -->
<g id="node23" class="node">
<title>Node23</title>
<g id="a_node23"><a xlink:href="alphabet_8h.html" target="_top" xlink:title="Functions to process, convert, and generally handle different nucleotide and/or base pair alphabets.">
<polygon fill="white" stroke="#666666" points="902,-266.5 786,-266.5 786,-247.5 902,-247.5 902,-266.5"/>
<text text-anchor="middle" x="844" y="-254.5" font-family="Helvetica,sans-Serif" font-size="10.00">ViennaRNA/alphabet.h</text>
</a>
</g>
</g>
<!-- Node1&#45;&gt;Node23 -->
<g id="edge52" class="edge">
<title>Node1&#45;&gt;Node23</title>
<path fill="none" stroke="#63b8ff" d="M556.13,-366.2C601.39,-360.24 669.82,-348.45 726,-327 761.95,-313.27 799.7,-289.25 822.55,-273.48"/>
<polygon fill="#63b8ff" stroke="#63b8ff" points="824.53,-276.37 830.7,-267.76 820.51,-270.64 824.53,-276.37"/>
</g>
<!-- Node3 -->
<g id="node3" class="node">
<title>Node3</title>
<g id="a_node3"><a xlink:title=" ">
<polygon fill="#e0e0e0" stroke="#999999" points="159,-19 113,-19 113,0 159,0 159,-19"/>
<text text-anchor="middle" x="136" y="-7" font-family="Helvetica,sans-Serif" font-size="10.00">stdio.h</text>
</a>
</g>
</g>
<!-- Node2&#45;&gt;Node3 -->
<g id="edge2" class="edge">
<title>Node2&#45;&gt;Node3</title>
<path fill="none" stroke="#63b8ff" d="M444.9,-309.56C339.29,-296 136,-261.59 136,-197.5 136,-197.5 136,-197.5 136,-135 136,-98.17 136,-55.22 136,-30.61"/>
<polygon fill="#63b8ff" stroke="#63b8ff" points="139.5,-30.77 136,-20.77 132.5,-30.77 139.5,-30.77"/>
</g>
<!-- Node4 -->
<g id="node4" class="node">
<title>Node4</title>
<g id="a_node4"><a xlink:title=" ">
<polygon fill="#e0e0e0" stroke="#999999" points="756,-266.5 704,-266.5 704,-247.5 756,-247.5 756,-266.5"/>
<text text-anchor="middle" x="730" y="-254.5" font-family="Helvetica,sans-Serif" font-size="10.00">stdarg.h</text>
</a>
</g>
</g>
<!-- Node2&#45;&gt;Node4 -->
<g id="edge3" class="edge">
<title>Node2&#45;&gt;Node4</title>
<path fill="none" stroke="#63b8ff" d="M553.1,-307.58C591.48,-299.68 647.35,-287.08 695,-272 696.15,-271.63 697.32,-271.25 698.5,-270.85"/>
<polygon fill="#63b8ff" stroke="#63b8ff" points="699.49,-274.21 707.66,-267.47 697.07,-267.65 699.49,-274.21"/>
</g>
<!-- Node5 -->
<g id="node5" class="node">
<title>Node5</title>
<g id="a_node5"><a xlink:href="datastructures_2basic_8h.html" target="_top" xlink:title="Various data structures and pre&#45;processor macros.">
<polygon fill="white" stroke="#666666" points="686,-272 552,-272 552,-242 686,-242 686,-272"/>
<text text-anchor="start" x="560" y="-260" font-family="Helvetica,sans-Serif" font-size="10.00">ViennaRNA/datastructures</text>
<text text-anchor="middle" x="619" y="-249" font-family="Helvetica,sans-Serif" font-size="10.00">/basic.h</text>
</a>
</g>
</g>
<!-- Node2&#45;&gt;Node5 -->
<g id="edge4" class="edge">
<title>Node2&#45;&gt;Node5</title>
<path fill="none" stroke="#63b8ff" d="M524.01,-307.62C539.16,-299.7 561.86,-287.85 581.27,-277.71"/>
<polygon fill="#63b8ff" stroke="#63b8ff" points="582.77,-280.87 590.01,-273.14 579.53,-274.67 582.77,-280.87"/>
</g>
<!-- Node6 -->
<g id="node6" class="node">
<title>Node6</title>
<g id="a_node6"><a xlink:href="constants_8h.html" target="_top" xlink:title="Energy parameter constants.">
<polygon fill="white" stroke="#666666" points="1418,-79.5 1260,-79.5 1260,-60.5 1418,-60.5 1418,-79.5"/>
<text text-anchor="middle" x="1339" y="-67.5" font-family="Helvetica,sans-Serif" font-size="10.00">ViennaRNA/params/constants.h</text>
</a>
</g>
</g>
<!-- Node5&#45;&gt;Node6 -->
<g id="edge5" class="edge">
<title>Node5&#45;&gt;Node6</title>
<path fill="none" stroke="#63b8ff" d="M686.1,-243.43C689.11,-242.93 692.08,-242.45 695,-242 948.95,-202.66 1041.83,-276.65 1266,-151 1292.59,-136.1 1314.77,-108 1327.47,-89.38"/>
<polygon fill="#63b8ff" stroke="#63b8ff" points="1330.28,-91.48 1332.83,-81.19 1324.43,-87.64 1330.28,-91.48"/>
</g>
<!-- Node8 -->
<g id="node8" class="node">
<title>Node8</title>
<g id="a_node8"><a xlink:href="fold__compound_8h.html" target="_top" xlink:title="The Basic Fold Compound API.">
<polygon fill="white" stroke="#666666" points="917,-206 771,-206 771,-187 917,-187 917,-206"/>
<text text-anchor="middle" x="844" y="-194" font-family="Helvetica,sans-Serif" font-size="10.00">ViennaRNA/fold_compound.h</text>
</a>
</g>
</g>
<!-- Node5&#45;&gt;Node8 -->
<g id="edge7" class="edge">
<title>Node5&#45;&gt;Node8</title>
<path fill="none" stroke="#63b8ff" d="M674.62,-241.54C712.78,-231.62 762.8,-218.61 798.57,-209.31"/>
<polygon fill="#63b8ff" stroke="#63b8ff" points="799.38,-212.72 808.18,-206.81 797.62,-205.94 799.38,-212.72"/>
</g>
<!-- Node9 -->
<g id="node9" class="node">
<title>Node9</title>
<g id="a_node9"><a xlink:href="model_8h.html" target="_top" xlink:title="The model details data structure and its corresponding modifiers.">
<polygon fill="white" stroke="#666666" points="1650,-79.5 1544,-79.5 1544,-60.5 1650,-60.5 1650,-79.5"/>
<text text-anchor="middle" x="1597" y="-67.5" font-family="Helvetica,sans-Serif" font-size="10.00">ViennaRNA/model.h</text>
</a>
</g>
</g>
<!-- Node5&#45;&gt;Node9 -->
<g id="edge37" class="edge">
<title>Node5&#45;&gt;Node9</title>
<path fill="none" stroke="#63b8ff" d="M686.48,-243.1C689.35,-242.7 692.2,-242.33 695,-242 1003.96,-205.74 1085.93,-249.19 1394,-206 1501.51,-190.93 1564.43,-235.97 1632,-151 1647.27,-131.8 1629.26,-104.92 1613.93,-87.73"/>
<polygon fill="#63b8ff" stroke="#63b8ff" points="1616.81,-85.68 1607.39,-80.81 1611.72,-90.49 1616.81,-85.68"/>
</g>
<!-- Node10 -->
<g id="node10" class="node">
<title>Node10</title>
<g id="a_node10"><a xlink:href="params_2basic_8h.html" target="_top" xlink:title="Functions to deal with sets of energy parameters.">
<polygon fill="white" stroke="#666666" points="1489,-145.5 1351,-145.5 1351,-126.5 1489,-126.5 1489,-145.5"/>
<text text-anchor="middle" x="1420" y="-133.5" font-family="Helvetica,sans-Serif" font-size="10.00">ViennaRNA/params/basic.h</text>
</a>
</g>
</g>
<!-- Node5&#45;&gt;Node10 -->
<g id="edge38" class="edge">
<title>Node5&#45;&gt;Node10</title>
<path fill="none" stroke="#63b8ff" d="M686.39,-241.95C820.15,-225.83 1161.24,-244.27 1290,-206 1328.71,-194.5 1368.4,-168.64 1393.83,-152.05"/>
<polygon fill="#63b8ff" stroke="#63b8ff" points="1395.73,-154.99 1402.21,-146.61 1391.92,-149.12 1395.73,-154.99"/>
</g>
<!-- Node12 -->
<g id="node12" class="node">
<title>Node12</title>
<g id="a_node12"><a xlink:href="dp__matrices_8h.html" target="_top" xlink:title="Functions to deal with standard dynamic programming (DP) matrices.">
<polygon fill="white" stroke="#666666" points="398.5,-145.5 265.5,-145.5 265.5,-126.5 398.5,-126.5 398.5,-145.5"/>
<text text-anchor="middle" x="332" y="-133.5" font-family="Helvetica,sans-Serif" font-size="10.00">ViennaRNA/dp_matrices.h</text>
</a>
</g>
</g>
<!-- Node5&#45;&gt;Node12 -->
<g id="edge39" class="edge">
<title>Node5&#45;&gt;Node12</title>
<path fill="none" stroke="#63b8ff" d="M579.5,-241.53C520.64,-218.33 411.69,-173.14 360.19,-150.54"/>
<polygon fill="#63b8ff" stroke="#63b8ff" points="361.76,-147.41 351.2,-146.57 358.93,-153.82 361.76,-147.41"/>
</g>
<!-- Node13 -->
<g id="node13" class="node">
<title>Node13</title>
<g id="a_node13"><a xlink:href="hard_8h.html" target="_top" xlink:title="Functions and data structures for handling of secondary structure hard constraints.">
<polygon fill="white" stroke="#666666" points="815.5,-151 696.5,-151 696.5,-121 815.5,-121 815.5,-151"/>
<text text-anchor="start" x="704.5" y="-139" font-family="Helvetica,sans-Serif" font-size="10.00">ViennaRNA/constraints</text>
<text text-anchor="middle" x="756" y="-128" font-family="Helvetica,sans-Serif" font-size="10.00">/hard.h</text>
</a>
</g>
</g>
<!-- Node5&#45;&gt;Node13 -->
<g id="edge40" class="edge">
<title>Node5&#45;&gt;Node13</title>
<path fill="none" stroke="#63b8ff" d="M635.53,-241.65C659.29,-221.01 703.29,-182.79 731.03,-158.69"/>
<polygon fill="#63b8ff" stroke="#63b8ff" points="733.02,-161.6 738.27,-152.4 728.43,-156.31 733.02,-161.6"/>
</g>
<!-- Node15 -->
<g id="node15" class="node">
<title>Node15</title>
<g id="a_node15"><a xlink:href="soft_8h.html" target="_top" xlink:title="Functions and data structures for secondary structure soft constraints.">
<polygon fill="white" stroke="#666666" points="678.5,-151 559.5,-151 559.5,-121 678.5,-121 678.5,-151"/>
<text text-anchor="start" x="567.5" y="-139" font-family="Helvetica,sans-Serif" font-size="10.00">ViennaRNA/constraints</text>
<text text-anchor="middle" x="619" y="-128" font-family="Helvetica,sans-Serif" font-size="10.00">/soft.h</text>
</a>
</g>
</g>
<!-- Node5&#45;&gt;Node15 -->
<g id="edge41" class="edge">
<title>Node5&#45;&gt;Node15</title>
<path fill="none" stroke="#63b8ff" d="M614.45,-241.88C611.95,-222.39 611.58,-186.92 613.33,-162.67"/>
<polygon fill="#63b8ff" stroke="#63b8ff" points="616.79,-163.26 614.26,-152.98 609.82,-162.6 616.79,-163.26"/>
</g>
<!-- Node16 -->
<g id="node16" class="node">
<title>Node16</title>
<g id="a_node16"><a xlink:href="grammar_8h.html" target="_top" xlink:title="Implementations for the RNA folding grammar.">
<polygon fill="white" stroke="#666666" points="1256.5,-145.5 1139.5,-145.5 1139.5,-126.5 1256.5,-126.5 1256.5,-145.5"/>
<text text-anchor="middle" x="1198" y="-133.5" font-family="Helvetica,sans-Serif" font-size="10.00">ViennaRNA/grammar.h</text>
</a>
</g>
</g>
<!-- Node5&#45;&gt;Node16 -->
<g id="edge42" class="edge">
<title>Node5&#45;&gt;Node16</title>
<path fill="none" stroke="#63b8ff" d="M686.12,-243.53C689.12,-243.01 692.09,-242.49 695,-242 797.44,-224.59 824.2,-226.8 926,-206 1008.05,-189.24 1102.54,-163.88 1155.78,-149.02"/>
<polygon fill="#63b8ff" stroke="#63b8ff" points="1156.67,-152.41 1165.35,-146.34 1154.78,-145.67 1156.67,-152.41"/>
</g>
<!-- Node17 -->
<g id="node17" class="node">
<title>Node17</title>
<g id="a_node17"><a xlink:href="structured__domains_8h.html" target="_top" xlink:title="This module provides interfaces that deal with additional structured domains in the folding grammar.">
<polygon fill="white" stroke="#666666" points="1622.5,-151 1507.5,-151 1507.5,-121 1622.5,-121 1622.5,-151"/>
<text text-anchor="start" x="1515.5" y="-139" font-family="Helvetica,sans-Serif" font-size="10.00">ViennaRNA/structured</text>
<text text-anchor="middle" x="1565" y="-128" font-family="Helvetica,sans-Serif" font-size="10.00">_domains.h</text>
</a>
</g>
</g>
<!-- Node5&#45;&gt;Node17 -->
<g id="edge43" class="edge">
<title>Node5&#45;&gt;Node17</title>
<path fill="none" stroke="#63b8ff" d="M686.48,-243.11C689.35,-242.71 692.2,-242.33 695,-242 981.41,-207.8 1059.13,-257.19 1343,-206 1404.7,-194.87 1473.26,-171.84 1517.64,-155.45"/>
<polygon fill="#63b8ff" stroke="#63b8ff" points="1518.82,-158.75 1526.96,-151.97 1516.37,-152.19 1518.82,-158.75"/>
</g>
<!-- Node18 -->
<g id="node18" class="node">
<title>Node18</title>
<g id="a_node18"><a xlink:href="unstructured__domains_8h.html" target="_top" xlink:title="Functions to modify unstructured domains, e.g. to incorporate ligands binding to unpaired stretches.">
<polygon fill="white" stroke="#666666" points="541.5,-151 416.5,-151 416.5,-121 541.5,-121 541.5,-151"/>
<text text-anchor="start" x="424.5" y="-139" font-family="Helvetica,sans-Serif" font-size="10.00">ViennaRNA/unstructured</text>
<text text-anchor="middle" x="479" y="-128" font-family="Helvetica,sans-Serif" font-size="10.00">_domains.h</text>
</a>
</g>
</g>
<!-- Node5&#45;&gt;Node18 -->
<g id="edge44" class="edge">
<title>Node5&#45;&gt;Node18</title>
<path fill="none" stroke="#63b8ff" d="M597.53,-241.65C570.76,-221.1 525.82,-183.12 499.51,-159.01"/>
<polygon fill="#63b8ff" stroke="#63b8ff" points="502.16,-156.7 492.46,-152.44 497.39,-161.82 502.16,-156.7"/>
</g>
<!-- Node5&#45;&gt;Node19 -->
<g id="edge45" class="edge">
<title>Node5&#45;&gt;Node19</title>
<path fill="none" stroke="#63b8ff" d="M551.81,-255.78C468.54,-252.07 328.16,-233.24 248,-151 232.44,-135.04 228.03,-109.01 228.97,-91"/>
<polygon fill="#63b8ff" stroke="#63b8ff" points="232.42,-91.67 230.27,-81.3 225.48,-90.75 232.42,-91.67"/>
</g>
<!-- Node7 -->
<g id="node7" class="node">
<title>Node7</title>
<g id="a_node7"><a xlink:title=" ">
<polygon fill="#e0e0e0" stroke="#999999" points="1363,-19 1315,-19 1315,0 1363,0 1363,-19"/>
<text text-anchor="middle" x="1339" y="-7" font-family="Helvetica,sans-Serif" font-size="10.00">limits.h</text>
</a>
</g>
</g>
<!-- Node6&#45;&gt;Node7 -->
<g id="edge6" class="edge">
<title>Node6&#45;&gt;Node7</title>
<path fill="none" stroke="#63b8ff" d="M1339,-60.37C1339,-52.5 1339,-40.6 1339,-30.39"/>
<polygon fill="#63b8ff" stroke="#63b8ff" points="1342.5,-30.68 1339,-20.68 1335.5,-30.68 1342.5,-30.68"/>
</g>
<!-- Node8&#45;&gt;Node9 -->
<g id="edge8" class="edge">
<title>Node8&#45;&gt;Node9</title>
<path fill="none" stroke="#63b8ff" d="M917.46,-193.76C1002.48,-190.37 1146.15,-180.39 1266,-151 1301.27,-142.35 1307.15,-131.2 1342,-121 1405.73,-102.34 1480.48,-88.61 1532.51,-80.31"/>
<polygon fill="#63b8ff" stroke="#63b8ff" points="1532.75,-83.81 1542.08,-78.8 1531.66,-76.9 1532.75,-83.81"/>
</g>
<!-- Node8&#45;&gt;Node10 -->
<g id="edge9" class="edge">
<title>Node8&#45;&gt;Node10</title>
<path fill="none" stroke="#63b8ff" d="M917.27,-190.21C1012.25,-183.29 1182.68,-169.79 1328,-151 1335.3,-150.06 1342.95,-148.94 1350.58,-147.76"/>
<polygon fill="#63b8ff" stroke="#63b8ff" points="1350.9,-151.25 1360.23,-146.23 1349.81,-144.34 1350.9,-151.25"/>
</g>
<!-- Node11 -->
<g id="node11" class="node">
<title>Node11</title>
<g id="a_node11"><a xlink:href="sequence_8h.html" target="_top" xlink:title="Functions and data structures related to sequence representations ,.">
<polygon fill="white" stroke="#666666" points="994,-145.5 872,-145.5 872,-126.5 994,-126.5 994,-145.5"/>
<text text-anchor="middle" x="933" y="-133.5" font-family="Helvetica,sans-Serif" font-size="10.00">ViennaRNA/sequence.h</text>
</a>
</g>
</g>
<!-- Node8&#45;&gt;Node11 -->
<g id="edge14" class="edge">
<title>Node8&#45;&gt;Node11</title>
<path fill="none" stroke="#63b8ff" d="M852.51,-186.62C864.61,-177.38 886.52,-162.77 904.54,-151.79"/>
<polygon fill="#63b8ff" stroke="#63b8ff" points="906.22,-154.86 913.03,-146.74 902.64,-148.85 906.22,-154.86"/>
</g>
<!-- Node8&#45;&gt;Node12 -->
<g id="edge16" class="edge">
<title>Node8&#45;&gt;Node12</title>
<path fill="none" stroke="#63b8ff" d="M770.71,-190.34C682.17,-183.36 529.12,-169.59 399,-151 392.62,-150.09 385.96,-149.03 379.4,-147.9"/>
<polygon fill="#63b8ff" stroke="#63b8ff" points="380.49,-144.54 370.03,-146.23 379.26,-151.43 380.49,-144.54"/>
</g>
<!-- Node8&#45;&gt;Node13 -->
<g id="edge19" class="edge">
<title>Node8&#45;&gt;Node13</title>
<path fill="none" stroke="#63b8ff" d="M825.63,-186.62C812.62,-179.03 795.26,-167.82 781.05,-157.98"/>
<polygon fill="#63b8ff" stroke="#63b8ff" points="783.23,-155.23 773.04,-152.31 779.19,-160.95 783.23,-155.23"/>
</g>
<!-- Node8&#45;&gt;Node15 -->
<g id="edge23" class="edge">
<title>Node8&#45;&gt;Node15</title>
<path fill="none" stroke="#63b8ff" d="M804.56,-186.55C769.92,-178.01 719.12,-164.91 679.39,-154.32"/>
<polygon fill="#63b8ff" stroke="#63b8ff" points="680.53,-151 669.97,-151.8 678.72,-157.76 680.53,-151"/>
</g>
<!-- Node8&#45;&gt;Node16 -->
<g id="edge27" class="edge">
<title>Node8&#45;&gt;Node16</title>
<path fill="none" stroke="#63b8ff" d="M901.23,-186.51C957.55,-178.13 1045.73,-164.87 1122,-151 1126.87,-150.11 1131.92,-149.15 1137.01,-148.15"/>
<polygon fill="#63b8ff" stroke="#63b8ff" points="1137.56,-151.61 1146.68,-146.22 1136.19,-144.74 1137.56,-151.61"/>
</g>
<!-- Node8&#45;&gt;Node17 -->
<g id="edge29" class="edge">
<title>Node8&#45;&gt;Node17</title>
<path fill="none" stroke="#63b8ff" d="M917.41,-193.81C1036.68,-190.33 1280.09,-180.22 1496.1,-151.11"/>
<polygon fill="#63b8ff" stroke="#63b8ff" points="1496.41,-154.6 1505.84,-149.78 1495.46,-147.66 1496.41,-154.6"/>
</g>
<!-- Node8&#45;&gt;Node18 -->
<g id="edge30" class="edge">
<title>Node8&#45;&gt;Node18</title>
<path fill="none" stroke="#63b8ff" d="M772.86,-186.54C714.41,-178.46 629.37,-165.9 553.57,-152.99"/>
<polygon fill="#63b8ff" stroke="#63b8ff" points="554.4,-149.58 543.95,-151.34 553.22,-156.48 554.4,-149.58"/>
</g>
<!-- Node20 -->
<g id="node20" class="node">
<title>Node20</title>
<g id="a_node20"><a xlink:href="zscore_8h_source.html" target="_top" xlink:title=" ">
<polygon fill="white" stroke="#666666" points="1121.5,-145.5 1012.5,-145.5 1012.5,-126.5 1121.5,-126.5 1121.5,-145.5"/>
<text text-anchor="middle" x="1067" y="-133.5" font-family="Helvetica,sans-Serif" font-size="10.00">ViennaRNA/zscore.h</text>
</a>
</g>
</g>
<!-- Node8&#45;&gt;Node20 -->
<g id="edge36" class="edge">
<title>Node8&#45;&gt;Node20</title>
<path fill="none" stroke="#63b8ff" d="M877.87,-186.62C916.34,-176.52 979.3,-160.01 1021.91,-148.83"/>
<polygon fill="#63b8ff" stroke="#63b8ff" points="1022.56,-152.28 1031.35,-146.35 1020.79,-145.5 1022.56,-152.28"/>
</g>
<!-- Node10&#45;&gt;Node5 -->
<g id="edge11" class="edge">
<title>Node10&#45;&gt;Node5</title>
<path fill="none" stroke="#63b8ff" d="M1414.12,-145.78C1397.36,-161.24 1352.04,-192.91 1308,-206 1179.11,-244.31 837.48,-225.79 704,-242 701.85,-242.26 699.67,-242.54 697.47,-242.85"/>
<polygon fill="#63b8ff" stroke="#63b8ff" points="697.23,-239.35 687.85,-244.27 698.25,-246.27 697.23,-239.35"/>
</g>
<!-- Node10&#45;&gt;Node6 -->
<g id="edge10" class="edge">
<title>Node10&#45;&gt;Node6</title>
<path fill="none" stroke="#63b8ff" d="M1408.74,-126.1C1395.92,-115.98 1374.74,-99.24 1359.08,-86.87"/>
<polygon fill="#63b8ff" stroke="#63b8ff" points="1361.37,-84.22 1351.35,-80.76 1357.03,-89.71 1361.37,-84.22"/>
</g>
<!-- Node10&#45;&gt;Node8 -->
<g id="edge12" class="edge">
<title>Node10&#45;&gt;Node8</title>
<path fill="none" stroke="#63b8ff" d="M1379.27,-145.99C1368.49,-147.81 1356.87,-149.59 1346,-151 1199.92,-169.88 1028.46,-183.43 928.38,-190.32"/>
<polygon fill="#63b8ff" stroke="#63b8ff" points="928.38,-186.81 918.65,-190.98 928.86,-193.79 928.38,-186.81"/>
</g>
<!-- Node10&#45;&gt;Node9 -->
<g id="edge13" class="edge">
<title>Node10&#45;&gt;Node9</title>
<path fill="none" stroke="#63b8ff" d="M1444.61,-126.1C1475.04,-115.1 1527.04,-96.3 1561.71,-83.76"/>
<polygon fill="#63b8ff" stroke="#63b8ff" points="1562.68,-87.13 1570.89,-80.44 1560.3,-80.55 1562.68,-87.13"/>
</g>
<!-- Node11&#45;&gt;Node8 -->
<g id="edge15" class="edge">
<title>Node11&#45;&gt;Node8</title>
<path fill="none" stroke="#63b8ff" d="M924.38,-145.97C912.22,-155.24 890.29,-169.85 872.3,-180.81"/>
<polygon fill="#63b8ff" stroke="#63b8ff" points="870.64,-177.72 863.83,-185.84 874.21,-183.74 870.64,-177.72"/>
</g>
<!-- Node12&#45;&gt;Node5 -->
<g id="edge17" class="edge">
<title>Node12&#45;&gt;Node5</title>
<path fill="none" stroke="#63b8ff" d="M357.37,-145.95C407.33,-165.23 518.22,-211.03 578.42,-237.06"/>
<polygon fill="#63b8ff" stroke="#63b8ff" points="576.74,-240.15 587.31,-240.92 579.53,-233.73 576.74,-240.15"/>
</g>
<!-- Node12&#45;&gt;Node8 -->
<g id="edge18" class="edge">
<title>Node12&#45;&gt;Node8</title>
<path fill="none" stroke="#63b8ff" d="M386.09,-145.96C396.39,-147.79 407.04,-149.58 417,-151 535.58,-167.95 673.2,-180.88 759.51,-188.33"/>
<polygon fill="#63b8ff" stroke="#63b8ff" points="759.05,-191.8 769.31,-189.17 759.65,-184.82 759.05,-191.8"/>
</g>
<!-- Node13&#45;&gt;Node8 -->
<g id="edge20" class="edge">
<title>Node13&#45;&gt;Node8</title>
<path fill="none" stroke="#63b8ff" d="M783.63,-151.44C797.65,-160.05 814.14,-170.98 826.44,-179.8"/>
<polygon fill="#63b8ff" stroke="#63b8ff" points="824.31,-182.57 834.43,-185.71 828.48,-176.95 824.31,-182.57"/>
</g>
<!-- Node14 -->
<g id="node14" class="node">
<title>Node14</title>
<g id="a_node14"><a xlink:href="constraints_2basic_8h.html" target="_top" xlink:title="Functions and data structures for constraining secondary structure predictions and evaluation.">
<polygon fill="white" stroke="#666666" points="815.5,-85 696.5,-85 696.5,-55 815.5,-55 815.5,-85"/>
<text text-anchor="start" x="704.5" y="-73" font-family="Helvetica,sans-Serif" font-size="10.00">ViennaRNA/constraints</text>
<text text-anchor="middle" x="756" y="-62" font-family="Helvetica,sans-Serif" font-size="10.00">/basic.h</text>
</a>
</g>
</g>
<!-- Node13&#45;&gt;Node14 -->
<g id="edge21" class="edge">
<title>Node13&#45;&gt;Node14</title>
<path fill="none" stroke="#63b8ff" d="M756,-120.8C756,-113.67 756,-104.82 756,-96.56"/>
<polygon fill="#63b8ff" stroke="#63b8ff" points="759.5,-96.68 756,-86.68 752.5,-96.68 759.5,-96.68"/>
</g>
<!-- Node14&#45;&gt;Node8 -->
<g id="edge22" class="edge">
<title>Node14&#45;&gt;Node8</title>
<path fill="none" stroke="#63b8ff" d="M784.59,-85.49C798.71,-94.02 814.86,-106.07 825,-121 836.13,-137.38 840.74,-159.79 842.65,-175.75"/>
<polygon fill="#63b8ff" stroke="#63b8ff" points="839.14,-175.77 843.54,-185.41 846.11,-175.13 839.14,-175.77"/>
</g>
<!-- Node15&#45;&gt;Node5 -->
<g id="edge24" class="edge">
<title>Node15&#45;&gt;Node5</title>
<path fill="none" stroke="#63b8ff" d="M623.6,-151.47C626.05,-171.06 626.41,-206.33 624.66,-230.44"/>
<polygon fill="#63b8ff" stroke="#63b8ff" points="621.18,-230.09 623.7,-240.38 628.15,-230.76 621.18,-230.09"/>
</g>
<!-- Node15&#45;&gt;Node8 -->
<g id="edge25" class="edge">
<title>Node15&#45;&gt;Node8</title>
<path fill="none" stroke="#63b8ff" d="M678.66,-150.99C718.33,-160.97 769.28,-174.24 804.12,-183.69"/>
<polygon fill="#63b8ff" stroke="#63b8ff" points="802.81,-186.96 813.38,-186.22 804.65,-180.21 802.81,-186.96"/>
</g>
<!-- Node15&#45;&gt;Node14 -->
<g id="edge26" class="edge">
<title>Node15&#45;&gt;Node14</title>
<path fill="none" stroke="#63b8ff" d="M649.75,-120.64C669.05,-111.62 694.17,-99.89 715.13,-90.09"/>
<polygon fill="#63b8ff" stroke="#63b8ff" points="716.41,-93.36 723.99,-85.96 713.44,-87.02 716.41,-93.36"/>
</g>
<!-- Node16&#45;&gt;Node8 -->
<g id="edge28" class="edge">
<title>Node16&#45;&gt;Node8</title>
<path fill="none" stroke="#63b8ff" d="M1165.76,-145.93C1157.4,-147.69 1148.42,-149.47 1140,-151 1068.35,-164.03 986.18,-176.52 926.57,-184.94"/>
<polygon fill="#63b8ff" stroke="#63b8ff" points="926.25,-181.45 916.83,-186.3 927.22,-188.38 926.25,-181.45"/>
</g>
<!-- Node18&#45;&gt;Node5 -->
<g id="edge31" class="edge">
<title>Node18&#45;&gt;Node5</title>
<path fill="none" stroke="#63b8ff" d="M500.62,-151.47C527.53,-172.14 572.63,-210.26 598.84,-234.31"/>
<polygon fill="#63b8ff" stroke="#63b8ff" points="596.14,-236.58 605.84,-240.85 600.92,-231.47 596.14,-236.58"/>
</g>
<!-- Node18&#45;&gt;Node8 -->
<g id="edge32" class="edge">
<title>Node18&#45;&gt;Node8</title>
<path fill="none" stroke="#63b8ff" d="M541.76,-147.72C547.94,-148.86 554.1,-149.98 560,-151 633.67,-163.75 718.11,-176.36 775.71,-184.89"/>
<polygon fill="#63b8ff" stroke="#63b8ff" points="774.96,-188.31 785.37,-186.32 775.99,-181.39 774.96,-188.31"/>
</g>
<!-- Node18&#45;&gt;Node19 -->
<g id="edge33" class="edge">
<title>Node18&#45;&gt;Node19</title>
<path fill="none" stroke="#63b8ff" d="M424.16,-120.56C381.01,-109.19 321.6,-93.55 281.16,-82.89"/>
<polygon fill="#63b8ff" stroke="#63b8ff" points="282.06,-79.51 271.49,-80.35 280.27,-86.28 282.06,-79.51"/>
</g>
<!-- Node19&#45;&gt;Node3 -->
<g id="edge34" class="edge">
<title>Node19&#45;&gt;Node3</title>
<path fill="none" stroke="#63b8ff" d="M220.81,-60.12C204.95,-50.84 179.82,-36.13 161.02,-25.14"/>
<polygon fill="#63b8ff" stroke="#63b8ff" points="163.04,-22.26 152.64,-20.23 159.5,-28.3 163.04,-22.26"/>
</g>
<!-- Node19&#45;&gt;Node5 -->
<g id="edge35" class="edge">
<title>Node19&#45;&gt;Node5</title>
<path fill="none" stroke="#63b8ff" d="M240.88,-79.8C244.57,-96.13 246.76,-131.26 266,-151 338.48,-225.36 460.21,-247.88 540.13,-254.25"/>
<polygon fill="#63b8ff" stroke="#63b8ff" points="539.87,-257.74 550.1,-254.97 540.38,-250.76 539.87,-257.74"/>
</g>
<!-- Node21&#45;&gt;Node4 -->
<g id="edge47" class="edge">
<title>Node21&#45;&gt;Node4</title>
<path fill="none" stroke="#63b8ff" d="M663.85,-307.62C675.76,-298.68 694.38,-284.72 708.83,-273.87"/>
<polygon fill="#63b8ff" stroke="#63b8ff" points="710.93,-276.68 716.83,-267.88 706.73,-271.08 710.93,-276.68"/>
</g>
<!-- Node21&#45;&gt;Node5 -->
<g id="edge48" class="edge">
<title>Node21&#45;&gt;Node5</title>
<path fill="none" stroke="#63b8ff" d="M647.13,-307.87C643.27,-301.03 637.7,-291.14 632.52,-281.97"/>
<polygon fill="#63b8ff" stroke="#63b8ff" points="635.67,-280.42 627.71,-273.43 629.57,-283.86 635.67,-280.42"/>
</g>
<!-- Node22&#45;&gt;Node3 -->
<g id="edge51" class="edge">
<title>Node22&#45;&gt;Node3</title>
<path fill="none" stroke="#63b8ff" d="M57.96,-186.58C70.56,-158.13 110.01,-69.13 127.5,-29.67"/>
<polygon fill="#63b8ff" stroke="#63b8ff" points="130.62,-31.28 131.47,-20.72 124.22,-28.44 130.62,-31.28"/>
</g>
<!-- Node23&#45;&gt;Node8 -->
<g id="edge53" class="edge">
<title>Node23&#45;&gt;Node8</title>
<path fill="none" stroke="#63b8ff" d="M844,-247.37C844,-239.5 844,-227.6 844,-217.39"/>
<polygon fill="#63b8ff" stroke="#63b8ff" points="847.5,-217.68 844,-207.68 840.5,-217.68 847.5,-217.68"/>
</g>
<!-- Node23&#45;&gt;Node9 -->
<g id="edge54" class="edge">
<title>Node23&#45;&gt;Node9</title>
<path fill="none" stroke="#63b8ff" d="M902.21,-254.62C1085.3,-249.99 1638.88,-233.75 1665,-206 1690.89,-178.49 1682.05,-154.71 1665,-121 1657.12,-105.43 1641.86,-93.52 1627.78,-85.24"/>
<polygon fill="#63b8ff" stroke="#63b8ff" points="1629.66,-82.28 1619.2,-80.58 1626.31,-88.43 1629.66,-82.28"/>
</g>
</g>
</svg>
        <g id="navigator" transform="translate(0 0)" fill="#404254">
                <rect fill="#f2f5e9" fill-opacity="0.5" stroke="#606060" stroke-width=".5" x="0" y="0" width="60" height="60"/>
                <use id="zoomplus" xlink:href="#zoomPlus" x="17" y="9" onmousedown="handleZoom(evt,'in')"/>
                <use id="zoomminus" xlink:href="#zoomMin" x="42" y="9" onmousedown="handleZoom(evt,'out')"/>
                <use id="reset" xlink:href="#resetDef" x="30" y="36" onmousedown="handleReset()"/>
                <g id="arrowUp" xlink:href="#dirArrow" transform="translate(30 24)" onmousedown="handlePan(0,-1)">
                  <use xlink:href="#rim" fill="#404040">
                        <set attributeName="fill" to="#808080" begin="arrowUp.mouseover" end="arrowUp.mouseout"/>
                  </use>
                  <path fill="none" stroke="white" stroke-width="1.5" d="M0,-3.0v7 M-2.5,-0.5L0,-3.0L2.5,-0.5"/>
                </g>
                <g id="arrowRight" xlink:href="#dirArrow" transform="rotate(90) translate(36 -43)" onmousedown="handlePan(1,0)">
                  <use xlink:href="#rim" fill="#404040">
                        <set attributeName="fill" to="#808080" begin="arrowRight.mouseover" end="arrowRight.mouseout"/>
                  </use>
                  <path fill="none" stroke="white" stroke-width="1.5" d="M0,-3.0v7 M-2.5,-0.5L0,-3.0L2.5,-0.5"/>
                </g>
                <g id="arrowDown" xlink:href="#dirArrow" transform="rotate(180) translate(-30 -48)" onmousedown="handlePan(0,1)">
                  <use xlink:href="#rim" fill="#404040">
                        <set attributeName="fill" to="#808080" begin="arrowDown.mouseover" end="arrowDown.mouseout"/>
                  </use>
                  <path fill="none" stroke="white" stroke-width="1.5" d="M0,-3.0v7 M-2.5,-0.5L0,-3.0L2.5,-0.5"/>
                </g>
                <g id="arrowLeft" xlink:href="#dirArrow" transform="rotate(270) translate(-36 17)" onmousedown="handlePan(-1,0)">
                  <use xlink:href="#rim" fill="#404040">
                        <set attributeName="fill" to="#808080" begin="arrowLeft.mouseover" end="arrowLeft.mouseout"/>
                  </use>
                  <path fill="none" stroke="white" stroke-width="1.5" d="M0,-3.0v7 M-2.5,-0.5L0,-3.0L2.5,-0.5"/>
                </g>
        </g>
        <svg viewBox="0 0 15 15" width="100%" height="30px" preserveAspectRatio="xMaxYMin meet">
         <g id="arrow_out" transform="scale(0.3 0.3)">
          <a xlink:href="utils_8h__incl_org.svg" target="_base">
           <rect id="button" ry="5" rx="5" y="6" x="6" height="38" width="38"
                fill="#f2f5e9" fill-opacity="0.5" stroke="#606060" stroke-width="1.0"/>
           <path id="arrow"
             d="M 11.500037,31.436501 C 11.940474,20.09759 22.043105,11.32322 32.158766,21.979434 L 37.068811,17.246167 C 37.068811,17.246167 37.088388,32 37.088388,32 L 22.160133,31.978069 C 22.160133,31.978069 26.997745,27.140456 26.997745,27.140456 C 18.528582,18.264221 13.291696,25.230495 11.500037,31.436501 z"
             style="fill:#404040;"/>
          </a>
         </g>
        </svg>
</svg>
