<?xml version="1.0" encoding="UTF-8" standalone="no"?>
<!DOCTYPE svg PUBLIC "-//W3C//DTD SVG 1.1//EN"
 "http://www.w3.org/Graphics/SVG/1.1/DTD/svg11.dtd">
<!-- Generated by graphviz version 7.1.0 (0)
 -->
<!-- Title: ViennaRNA/utils/basic.h Pages: 1 -->
<!--zoomable 269 -->
<svg id="main" version="1.1" xmlns="http://www.w3.org/2000/svg" xmlns:xlink="http://www.w3.org/1999/xlink" xml:space="preserve" onload="init(evt)">
<style type="text/css"><![CDATA[
.edge:hover path { stroke: red; }
.edge:hover polygon { stroke: red; fill: red; }
]]></style>
<script type="text/javascript"><![CDATA[
var edges = document.getElementsByTagName('g');
if (edges && edges.length) {
  for (var i=0;i<edges.length;i++) {
    if (edges[i].id.substr(0,4)=='edge') {
      edges[i].setAttribute('class','edge');
    }
  }
}
]]></script>
        <defs>
                <circle id="rim" cx="0" cy="0" r="7"/>
                <circle id="rim2" cx="0" cy="0" r="3.5"/>
                <g id="zoomPlus">
                        <use xlink:href="#rim" fill="#404040">
                                <set attributeName="fill" to="#808080" begin="zoomplus.mouseover" end="zoomplus.mouseout"/>
                        </use>
                        <path d="M-4,0h8M0,-4v8" fill="none" stroke="white" stroke-width="1.5" pointer-events="none"/>
                </g>
                <g id="zoomMin">
                        <use xlink:href="#rim" fill="#404040">
                                <set attributeName="fill" to="#808080" begin="zoomminus.mouseover" end="zoomminus.mouseout"/>
                        </use>
                        <path d="M-4,0h8" fill="none" stroke="white" stroke-width="1.5" pointer-events="none"/>
                </g>
                <g id="dirArrow">
                        <path fill="none" stroke="white" stroke-width="1.5" d="M0,-3.0v7 M-2.5,-0.5L0,-3.0L2.5,-0.5"/>
                </g>
               <g id="resetDef">
                       <use xlink:href="#rim2" fill="#404040">
                               <set attributeName="fill" to="#808080" begin="reset.mouseover" end="reset.mouseout"/>
                       </use>
               </g>
        </defs>

<script type="text/javascript">
var viewWidth = 707;
var viewHeight = 269;
var sectionId = 'dynsection-1';
</script>
<script xlink:href="svgpan.js"/>
<svg id="graph" class="graph">
<g id="viewport">
<title>ViennaRNA/utils/basic.h</title>
<!-- Node1 -->
<g id="node1" class="node">
<title>Node1</title>
<g id="a_node1"><a xlink:title="General utility&#45; and helper&#45;functions used throughout the ViennaRNA Package.">
<polygon fill="#999999" stroke="#666666" points="377.5,-261 253.5,-261 253.5,-242 377.5,-242 377.5,-261"/>
<text text-anchor="middle" x="315.5" y="-249" font-family="Helvetica,sans-Serif" font-size="10.00">ViennaRNA/utils/basic.h</text>
</a>
</g>
</g>
<!-- Node2 -->
<g id="node2" class="node">
<title>Node2</title>
<g id="a_node2"><a xlink:href="hairpin_8h.html" target="_top" xlink:title="Energy evaluation of hairpin loops for MFE and partition function calculations.">
<polygon fill="white" stroke="#666666" points="135.5,-145.5 1.5,-145.5 1.5,-126.5 135.5,-126.5 135.5,-145.5"/>
<text text-anchor="middle" x="68.5" y="-133.5" font-family="Helvetica,sans-Serif" font-size="10.00">ViennaRNA/loops/hairpin.h</text>
</a>
</g>
</g>
<!-- Node1&#45;&gt;Node2 -->
<g id="edge1" class="edge">
<title>Node1&#45;&gt;Node2</title>
<path fill="none" stroke="#63b8ff" d="M241.87,-243.53C186.13,-236.85 115.52,-224.95 93.5,-206 75.34,-190.38 70.37,-160.49 69.01,-145.71"/>
<polygon fill="#63b8ff" stroke="#63b8ff" points="241.32,-246.99 251.65,-244.66 242.12,-240.03 241.32,-246.99"/>
</g>
<!-- Node6 -->
<g id="node6" class="node">
<title>Node6</title>
<g id="a_node6"><a xlink:href="internal_8h.html" target="_top" xlink:title="Energy evaluation of interior loops for MFE and partition function calculations.">
<polygon fill="white" stroke="#666666" points="291,-145.5 154,-145.5 154,-126.5 291,-126.5 291,-145.5"/>
<text text-anchor="middle" x="222.5" y="-133.5" font-family="Helvetica,sans-Serif" font-size="10.00">ViennaRNA/loops/internal.h</text>
</a>
</g>
</g>
<!-- Node1&#45;&gt;Node6 -->
<g id="edge5" class="edge">
<title>Node1&#45;&gt;Node6</title>
<path fill="none" stroke="#63b8ff" d="M301.09,-232.91C280.94,-208.32 245.08,-164.56 229.76,-145.86"/>
<polygon fill="#63b8ff" stroke="#63b8ff" points="298.2,-234.91 307.24,-240.42 303.61,-230.47 298.2,-234.91"/>
</g>
<!-- Node8 -->
<g id="node8" class="node">
<title>Node8</title>
<g id="a_node8"><a xlink:href="multibranch_8h.html" target="_top" xlink:title="Energy evaluation of multibranch loops for MFE and partition function calculations.">
<polygon fill="white" stroke="#666666" points="446.5,-206 290.5,-206 290.5,-187 446.5,-187 446.5,-206"/>
<text text-anchor="middle" x="368.5" y="-194" font-family="Helvetica,sans-Serif" font-size="10.00">ViennaRNA/loops/multibranch.h</text>
</a>
</g>
</g>
<!-- Node1&#45;&gt;Node8 -->
<g id="edge8" class="edge">
<title>Node1&#45;&gt;Node8</title>
<path fill="none" stroke="#63b8ff" d="M332.22,-233.78C341.28,-224.72 352.1,-213.9 359.56,-206.44"/>
<polygon fill="#63b8ff" stroke="#63b8ff" points="329.92,-231.13 325.32,-240.68 334.87,-236.08 329.92,-231.13"/>
</g>
<!-- Node10 -->
<g id="node10" class="node">
<title>Node10</title>
<g id="a_node10"><a xlink:href="pair__mat_8h_source.html" target="_top" xlink:title=" ">
<polygon fill="white" stroke="#666666" points="582,-206 465,-206 465,-187 582,-187 582,-206"/>
<text text-anchor="middle" x="523.5" y="-194" font-family="Helvetica,sans-Serif" font-size="10.00">ViennaRNA/pair_mat.h</text>
</a>
</g>
</g>
<!-- Node1&#45;&gt;Node10 -->
<g id="edge11" class="edge">
<title>Node1&#45;&gt;Node10</title>
<path fill="none" stroke="#63b8ff" d="M361.64,-238.74C399.92,-228.99 453.54,-215.33 488.39,-206.45"/>
<polygon fill="#63b8ff" stroke="#63b8ff" points="361.08,-235.27 352.25,-241.14 362.81,-242.06 361.08,-235.27"/>
</g>
<!-- Node11 -->
<g id="node11" class="node">
<title>Node11</title>
<g id="a_node11"><a xlink:href="salt_8h.html" target="_top" xlink:title="Functions to compute salt correction.">
<polygon fill="white" stroke="#666666" points="234,-206 103,-206 103,-187 234,-187 234,-206"/>
<text text-anchor="middle" x="168.5" y="-194" font-family="Helvetica,sans-Serif" font-size="10.00">ViennaRNA/params/salt.h</text>
</a>
</g>
</g>
<!-- Node1&#45;&gt;Node11 -->
<g id="edge12" class="edge">
<title>Node1&#45;&gt;Node11</title>
<path fill="none" stroke="#63b8ff" d="M280.03,-237.71C253.13,-228.01 216.84,-214.93 193.07,-206.36"/>
<polygon fill="#63b8ff" stroke="#63b8ff" points="278.55,-240.9 289.14,-241 280.92,-234.31 278.55,-240.9"/>
</g>
<!-- Node12 -->
<g id="node12" class="node">
<title>Node12</title>
<g id="a_node12"><a xlink:href="utils_8h.html" target="_top" xlink:title="Use ViennaRNA/utils/basic.h instead.">
<polygon fill="white" stroke="#666666" points="698.5,-206 600.5,-206 600.5,-187 698.5,-187 698.5,-206"/>
<text text-anchor="middle" x="649.5" y="-194" font-family="Helvetica,sans-Serif" font-size="10.00">ViennaRNA/utils.h</text>
</a>
</g>
</g>
<!-- Node1&#45;&gt;Node12 -->
<g id="edge15" class="edge">
<title>Node1&#45;&gt;Node12</title>
<path fill="none" stroke="#63b8ff" d="M383.4,-239.73C447.74,-229.52 542.82,-214.43 600.19,-205.32"/>
<polygon fill="#63b8ff" stroke="#63b8ff" points="382.98,-236.25 373.65,-241.27 384.08,-243.16 382.98,-236.25"/>
</g>
<!-- Node3 -->
<g id="node3" class="node">
<title>Node3</title>
<g id="a_node3"><a xlink:href="hairpin__loops_8h.html" target="_top" xlink:title="Use ViennaRNA/loops/hairpin.h instead.">
<polygon fill="white" stroke="#666666" points="137,-79.5 0,-79.5 0,-60.5 137,-60.5 137,-79.5"/>
<text text-anchor="middle" x="68.5" y="-67.5" font-family="Helvetica,sans-Serif" font-size="10.00">ViennaRNA/hairpin_loops.h</text>
</a>
</g>
</g>
<!-- Node2&#45;&gt;Node3 -->
<g id="edge2" class="edge">
<title>Node2&#45;&gt;Node3</title>
<path fill="none" stroke="#63b8ff" d="M68.5,-114.68C68.5,-102.94 68.5,-88.77 68.5,-79.82"/>
<polygon fill="#63b8ff" stroke="#63b8ff" points="65,-114.59 68.5,-124.59 72,-114.59 65,-114.59"/>
</g>
<!-- Node4 -->
<g id="node4" class="node">
<title>Node4</title>
<g id="a_node4"><a xlink:href="all_8h.html" target="_top" xlink:title="Energy evaluation for MFE and partition function calculations.">
<polygon fill="white" stroke="#666666" points="275.5,-79.5 159.5,-79.5 159.5,-60.5 275.5,-60.5 275.5,-79.5"/>
<text text-anchor="middle" x="217.5" y="-67.5" font-family="Helvetica,sans-Serif" font-size="10.00">ViennaRNA/loops/all.h</text>
</a>
</g>
</g>
<!-- Node2&#45;&gt;Node4 -->
<g id="edge3" class="edge">
<title>Node2&#45;&gt;Node4</title>
<path fill="none" stroke="#63b8ff" d="M99.69,-121.6C128.93,-109.04 171.8,-90.63 196.96,-79.82"/>
<polygon fill="#63b8ff" stroke="#63b8ff" points="98.42,-118.34 90.61,-125.5 101.18,-124.77 98.42,-118.34"/>
</g>
<!-- Node5 -->
<g id="node5" class="node">
<title>Node5</title>
<g id="a_node5"><a xlink:href="loop__energies_8h.html" target="_top" xlink:title="Use ViennaRNA/loops/all.h instead.">
<polygon fill="white" stroke="#666666" points="287.5,-19 147.5,-19 147.5,0 287.5,0 287.5,-19"/>
<text text-anchor="middle" x="217.5" y="-7" font-family="Helvetica,sans-Serif" font-size="10.00">ViennaRNA/loop_energies.h</text>
</a>
</g>
</g>
<!-- Node4&#45;&gt;Node5 -->
<g id="edge4" class="edge">
<title>Node4&#45;&gt;Node5</title>
<path fill="none" stroke="#63b8ff" d="M217.5,-49.16C217.5,-38.95 217.5,-27.04 217.5,-19.17"/>
<polygon fill="#63b8ff" stroke="#63b8ff" points="214,-48.85 217.5,-58.85 221,-48.85 214,-48.85"/>
</g>
<!-- Node6&#45;&gt;Node4 -->
<g id="edge7" class="edge">
<title>Node6&#45;&gt;Node4</title>
<path fill="none" stroke="#63b8ff" d="M220.91,-114.68C220,-102.94 218.89,-88.77 218.19,-79.82"/>
<polygon fill="#63b8ff" stroke="#63b8ff" points="217.42,-114.9 221.69,-124.59 224.4,-114.35 217.42,-114.9"/>
</g>
<!-- Node7 -->
<g id="node7" class="node">
<title>Node7</title>
<g id="a_node7"><a xlink:href="interior__loops_8h.html" target="_top" xlink:title="Use ViennaRNA/loops/internal.h instead.">
<polygon fill="white" stroke="#666666" points="395,-85 294,-85 294,-55 395,-55 395,-85"/>
<text text-anchor="start" x="302" y="-73" font-family="Helvetica,sans-Serif" font-size="10.00">ViennaRNA/interior</text>
<text text-anchor="middle" x="344.5" y="-62" font-family="Helvetica,sans-Serif" font-size="10.00">_loops.h</text>
</a>
</g>
</g>
<!-- Node6&#45;&gt;Node7 -->
<g id="edge6" class="edge">
<title>Node6&#45;&gt;Node7</title>
<path fill="none" stroke="#63b8ff" d="M249.48,-120.85C269.51,-110.34 296.73,-96.06 316.9,-85.48"/>
<polygon fill="#63b8ff" stroke="#63b8ff" points="248.03,-117.65 240.8,-125.4 251.29,-123.85 248.03,-117.65"/>
</g>
<!-- Node8&#45;&gt;Node4 -->
<g id="edge9" class="edge">
<title>Node8&#45;&gt;Node4</title>
<path fill="none" stroke="#63b8ff" d="M405.58,-181.74C419.07,-174.72 432.86,-164.71 440.5,-151 446.99,-139.35 448.83,-131.41 440.5,-121 439.07,-119.21 323.25,-93.9 259.11,-79.99"/>
<polygon fill="#63b8ff" stroke="#63b8ff" points="404.35,-178.45 396.81,-185.88 407.34,-184.78 404.35,-178.45"/>
</g>
<!-- Node9 -->
<g id="node9" class="node">
<title>Node9</title>
<g id="a_node9"><a xlink:href="multibranch__loops_8h.html" target="_top" xlink:title="Use ViennaRNA/loops/multibranch.h instead.">
<polygon fill="white" stroke="#666666" points="431.5,-151 309.5,-151 309.5,-121 431.5,-121 431.5,-151"/>
<text text-anchor="start" x="317.5" y="-139" font-family="Helvetica,sans-Serif" font-size="10.00">ViennaRNA/multibranch</text>
<text text-anchor="middle" x="370.5" y="-128" font-family="Helvetica,sans-Serif" font-size="10.00">_loops.h</text>
</a>
</g>
</g>
<!-- Node8&#45;&gt;Node9 -->
<g id="edge10" class="edge">
<title>Node8&#45;&gt;Node9</title>
<path fill="none" stroke="#63b8ff" d="M369.18,-175.51C369.46,-167.49 369.77,-158.43 370.02,-151.11"/>
<polygon fill="#63b8ff" stroke="#63b8ff" points="365.69,-175.24 368.85,-185.36 372.69,-175.48 365.69,-175.24"/>
</g>
<!-- Node11&#45;&gt;Node2 -->
<g id="edge13" class="edge">
<title>Node11&#45;&gt;Node2</title>
<path fill="none" stroke="#63b8ff" d="M143.39,-180.81C124.66,-169.85 99.67,-155.24 83.83,-145.97"/>
<polygon fill="#63b8ff" stroke="#63b8ff" points="141.61,-183.82 152.01,-185.85 145.14,-177.78 141.61,-183.82"/>
</g>
<!-- Node11&#45;&gt;Node6 -->
<g id="edge14" class="edge">
<title>Node11&#45;&gt;Node6</title>
<path fill="none" stroke="#63b8ff" d="M184.07,-178.63C194.02,-167.85 206.51,-154.32 214.5,-145.67"/>
<polygon fill="#63b8ff" stroke="#63b8ff" points="181.71,-176.03 177.49,-185.76 186.85,-180.78 181.71,-176.03"/>
</g>
</g>
</svg>
        <g id="navigator" transform="translate(0 0)" fill="#404254">
                <rect fill="#f2f5e9" fill-opacity="0.5" stroke="#606060" stroke-width=".5" x="0" y="0" width="60" height="60"/>
                <use id="zoomplus" xlink:href="#zoomPlus" x="17" y="9" onmousedown="handleZoom(evt,'in')"/>
                <use id="zoomminus" xlink:href="#zoomMin" x="42" y="9" onmousedown="handleZoom(evt,'out')"/>
                <use id="reset" xlink:href="#resetDef" x="30" y="36" onmousedown="handleReset()"/>
                <g id="arrowUp" xlink:href="#dirArrow" transform="translate(30 24)" onmousedown="handlePan(0,-1)">
                  <use xlink:href="#rim" fill="#404040">
                        <set attributeName="fill" to="#808080" begin="arrowUp.mouseover" end="arrowUp.mouseout"/>
                  </use>
                  <path fill="none" stroke="white" stroke-width="1.5" d="M0,-3.0v7 M-2.5,-0.5L0,-3.0L2.5,-0.5"/>
                </g>
                <g id="arrowRight" xlink:href="#dirArrow" transform="rotate(90) translate(36 -43)" onmousedown="handlePan(1,0)">
                  <use xlink:href="#rim" fill="#404040">
                        <set attributeName="fill" to="#808080" begin="arrowRight.mouseover" end="arrowRight.mouseout"/>
                  </use>
                  <path fill="none" stroke="white" stroke-width="1.5" d="M0,-3.0v7 M-2.5,-0.5L0,-3.0L2.5,-0.5"/>
                </g>
                <g id="arrowDown" xlink:href="#dirArrow" transform="rotate(180) translate(-30 -48)" onmousedown="handlePan(0,1)">
                  <use xlink:href="#rim" fill="#404040">
                        <set attributeName="fill" to="#808080" begin="arrowDown.mouseover" end="arrowDown.mouseout"/>
                  </use>
                  <path fill="none" stroke="white" stroke-width="1.5" d="M0,-3.0v7 M-2.5,-0.5L0,-3.0L2.5,-0.5"/>
                </g>
                <g id="arrowLeft" xlink:href="#dirArrow" transform="rotate(270) translate(-36 17)" onmousedown="handlePan(-1,0)">
                  <use xlink:href="#rim" fill="#404040">
                        <set attributeName="fill" to="#808080" begin="arrowLeft.mouseover" end="arrowLeft.mouseout"/>
                  </use>
                  <path fill="none" stroke="white" stroke-width="1.5" d="M0,-3.0v7 M-2.5,-0.5L0,-3.0L2.5,-0.5"/>
                </g>
        </g>
        <svg viewBox="0 0 15 15" width="100%" height="30px" preserveAspectRatio="xMaxYMin meet">
         <g id="arrow_out" transform="scale(0.3 0.3)">
          <a xlink:href="utils_2basic_8h__dep__incl_org.svg" target="_base">
           <rect id="button" ry="5" rx="5" y="6" x="6" height="38" width="38"
                fill="#f2f5e9" fill-opacity="0.5" stroke="#606060" stroke-width="1.0"/>
           <path id="arrow"
             d="M 11.500037,31.436501 C 11.940474,20.09759 22.043105,11.32322 32.158766,21.979434 L 37.068811,17.246167 C 37.068811,17.246167 37.088388,32 37.088388,32 L 22.160133,31.978069 C 22.160133,31.978069 26.997745,27.140456 26.997745,27.140456 C 18.528582,18.264221 13.291696,25.230495 11.500037,31.436501 z"
             style="fill:#404040;"/>
          </a>
         </g>
        </svg>
</svg>
